<svg xmlns="http://www.w3.org/2000/svg" viewBox="0 0 150 150"><defs><style>.cls-1{isolation:isolate;}.cls-2{fill:#f2f5fc;}.cls-3{fill:#e0ebf7;opacity:0.8;}.cls-3,.cls-4{mix-blend-mode:multiply;}.cls-4{fill:#cee2f3;opacity:0.4;}.cls-5{fill:#f38073;}.cls-6{fill:#76acaa;}.cls-7{fill:#639392;}.cls-8{fill:#4c3321;stroke:#422e1f;stroke-width:0.15px;}.cls-24,.cls-8{stroke-miterlimit:10;}.cls-9{fill:#90d2cf;}.cls-10{fill:#b1acab;}.cls-11{fill:#454547;}.cls-12{fill:#5b5b5d;}.cls-13{fill:#6f7072;}.cls-14{fill:#352317;}.cls-15{fill:#f16a5a;}.cls-16{fill:#80bbb9;}.cls-17{fill:#d1d1cc;}.cls-18{fill:#4c4c4e;}.cls-19{fill:#3b3b3d;}.cls-20{fill:#fff;}.cls-21{fill:#211f1f;}.cls-22{fill:#25150c;}.cls-23{fill:#311c11;}.cls-24{fill:none;stroke:#211f1f;stroke-width:0.25px;}.cls-25{fill:#4d2c18;}</style></defs><title>Mesa de trabajo 3</title><g class="cls-1"><g id="Capa_1" data-name="Capa 1"><path class="cls-2" d="M144.49,48.38a21.88,21.88,0,0,0,2.11-8.3c.28-7-2.52-13.29-6.63-18.75C131.92,11.52,119,8,106.73,9.48a61.89,61.89,0,0,0-25.3,9.3c-6.44,4.15-13.15,11.61-21,13s-15.31-4.95-22.65-6.56c-6.83-1.51-14.12-2-21-.42C5,27.61-1.91,37.16.14,49.32c.73,4.28,6,7.32,5.07,9.51C-7.74,88,17.57,99.85,45.89,108.16c60.13,17.64,85.52,6.25,96.81-5.07,5.26-5.28,7.29-13.47,6.7-20.74-.53-6.71-3.42-13.25-9.63-16.46a9.74,9.74,0,0,1-2.6-1.6C133.24,60.29,142.91,51.81,144.49,48.38Z"/><path class="cls-3" d="M132.63,54.91a20.31,20.31,0,0,0,2.24-7.35c.64-6.68-1.85-12.38-5.29-17.9-7-9.42-18.66-13.25-30-12.34A52.26,52.26,0,0,0,77,24.88C71,28.46,64.5,35.09,57.27,36.08s-13.83-5.21-20.49-7c-6.2-1.67-12.85-2.46-19.21-1.24C6.62,29.93-.11,38.49,1.29,49.84c.49,4,5.23,7,4.25,9-13,26.45,9.67,38.5,35.28,47.36,54.39,18.81,77.14,9.32,87.94-.71,5.34-5,7.67-13.42,7.09-20.53a16.59,16.59,0,0,0-4.5-10.42c-2.91-2.89-8.39-5.09-6.28-9.93C126.73,60.81,130.76,58.57,132.63,54.91Z"/><path class="cls-4" d="M120.91,60.13a16.67,16.67,0,0,0,2.27-6A21.52,21.52,0,0,0,119,38.6c-6-8.26-16.36-12-26.6-11.6a53.1,53.1,0,0,0-21.51,5.54c-5.6,2.81-11.65,8.2-18.2,8.76S40.44,36.37,34.5,34.59a41.16,41.16,0,0,0-17.28-1.78C7.26,34.18.9,41.2,1.77,50.88c.3,3.41,4.47,6.16,3.52,7.82-12.69,22,7.37,33,30.16,41.51,48.4,18,70.13,10.83,80.21,2.73,8.69-7,10.26-22.87.2-29.49C109.5,69.27,118.56,64.08,120.91,60.13Z"/><path class="cls-5" d="M82.75,109.16a2.45,2.45,0,0,0,.6-.83,2.16,2.16,0,0,0-1-.77h0a.81.81,0,0,0-.64.52A4.41,4.41,0,0,0,82.75,109.16Z"/><path class="cls-5" d="M74.16,108a2.15,2.15,0,0,0-.61,1.12,2.73,2.73,0,0,0,.88.51,4.08,4.08,0,0,0,.55-1.44.79.79,0,0,0-.59-.24A.39.39,0,0,0,74.16,108Z"/><path class="cls-6" d="M64.64,96.1l0,0a17.62,17.62,0,0,0,11.45,5.15,6.32,6.32,0,0,1,.73-1.25.14.14,0,0,1,.2,0,.15.15,0,0,1,0,.2,7,7,0,0,0-.65,1.1c.38,0,.76,0,1.15,0s.82,0,1.22,0a6.91,6.91,0,0,0-.59-1.11.16.16,0,0,1,0-.2.15.15,0,0,1,.2,0,7.43,7.43,0,0,1,.66,1.26,29.83,29.83,0,0,0,13.28-4.24,16,16,0,0,0-1.65-2.2l-.54.29a25.43,25.43,0,0,1-12.62,3.47,18.13,18.13,0,0,1-11.11-3.54h0l0,0c-.45-.35-.69-.58-.7-.59a.13.13,0,0,1,0-.08l0,.06S65.22,95.11,64.64,96.1Z"/><path class="cls-7" d="M65.85,94.2a.1.1,0,0,1,.09,0s.2.19.56.48a7.47,7.47,0,0,0,.39-1A2.21,2.21,0,0,0,65.85,94.2Z"/><path class="cls-7" d="M90.5,94.65a1.17,1.17,0,0,0-.9-.21,5.18,5.18,0,0,0,.31.54l.15-.09Z"/><path class="cls-8" d="M67.68,92a14.36,14.36,0,0,1-1,2.93,17.86,17.86,0,0,0,10.86,3.43,24.86,24.86,0,0,0,12.08-3.22,13.36,13.36,0,0,1-1.28-3.27A53.51,53.51,0,0,1,76.55,93.3,26.54,26.54,0,0,1,67.68,92Zm9.57,3.46a.14.14,0,0,1,.28,0v.79a.14.14,0,0,1-.28,0Z"/><path class="cls-9" d="M83.05,112.18h18.29c-1.16-3.15-5.45-6.51-5.49-6.54a.14.14,0,1,1,.17-.23c.07,0,.7.55,1.52,1.31-.35-2-3.08-6.55-5-9.43a30.41,30.41,0,0,1-13.33,4.28,7.19,7.19,0,0,1,.5,2.56,4.43,4.43,0,0,0,2.06,3.34,1,1,0,0,1,.6-.2,2.3,2.3,0,0,1,1.24,1c.11.26-.35.81-.75,1.22a.16.16,0,0,1-.1,0,.14.14,0,0,1-.09,0c-.5-.4-1.33-1.11-1.29-1.43a.71.71,0,0,1,.18-.37,4.6,4.6,0,0,1-2.13-3.54,7.17,7.17,0,0,0-.52-2.55c-.44,0-.89,0-1.34,0s-.85,0-1.27,0a5.12,5.12,0,0,0-.42,2.53,6,6,0,0,1-.83,3.73.69.69,0,0,1,.17.17c.17.28-.31,1.27-.61,1.83a.13.13,0,0,1-.12.08h0c-.54-.22-1.18-.54-1.19-.83a2.37,2.37,0,0,1,.76-1.37.7.7,0,0,1,.37-.09,1.3,1.3,0,0,1,.42.08,5.79,5.79,0,0,0,.8-3.56,5.45,5.45,0,0,1,.39-2.58,18,18,0,0,1-11.51-5.21,58.27,58.27,0,0,0-3.87,7.46,16.46,16.46,0,0,0-.9,5.54.15.15,0,0,1-.14.15h0a.15.15,0,0,1-.14-.14,16,16,0,0,1,.24-3A24.34,24.34,0,0,0,56,112.18H74.38a7.3,7.3,0,0,1-2.59-2.35.15.15,0,0,1,.07-.19.15.15,0,0,1,.19.08c.43,1,2.59,2.3,2.88,2.46H82.3a5.75,5.75,0,0,0,2.58-1.84.14.14,0,0,1,.2,0,.16.16,0,0,1,0,.21A6.78,6.78,0,0,1,83.05,112.18Z"/><path class="cls-5" d="M101.84,106.4h0a.75.75,0,0,0-.15.25c-.35,1,.58,2.75.83,3.18a7.31,7.31,0,0,1,1.19-1.27.14.14,0,0,1,.2,0,.14.14,0,0,1,0,.2s-1.33,1.07-1.48,2a4.71,4.71,0,0,0-.07,1.39v0h3a1,1,0,0,1,.46-.47,1.38,1.38,0,0,1,1.11.12l0,0a1.63,1.63,0,0,1,1.3-.3.92.92,0,0,1,.41.2,1.7,1.7,0,0,1,1.63-.22,1.15,1.15,0,0,0-.18-.23.13.13,0,0,1-.08,0h0a.15.15,0,0,1-.1-.17,1.2,1.2,0,0,1,.58-.77,3,3,0,0,1,1.93-.14,4.44,4.44,0,0,0-1.45-1.37,3,3,0,0,0-2.78,0,.14.14,0,0,1-.19-.06.14.14,0,0,1,.06-.19,3.83,3.83,0,0,1,1.12-.36,1.83,1.83,0,0,0-.48-1c-.29-.27-1.71.29-2.63.78a.15.15,0,0,1-.2-.06.14.14,0,0,1,.06-.19,10.15,10.15,0,0,1,2.05-.82,9,9,0,0,0-.57-2.61C105.93,104.6,102.66,105.51,101.84,106.4Z"/><path class="cls-8" d="M109.33,117a1.4,1.4,0,0,0,1.21-.79c-.08-.19-.15-.41-.22-.64s-.07-.21-.09-.28a.55.55,0,0,1-.42-.38,1.32,1.32,0,0,1,0-1c-.18-.63-1.21-2.11-1.7-2.18a1.39,1.39,0,0,0-1.06.22.21.21,0,0,0-.06.16,3,3,0,0,0,.33.69,7.05,7.05,0,0,1,.83,2l0,.14C108.44,116.22,108.61,117,109.33,117Z"/><path class="cls-8" d="M110.55,110.57a.92.92,0,0,0-.38.4,1.67,1.67,0,0,1,.54,1.06,1.89,1.89,0,0,1-.28,1.56,1.24,1.24,0,0,0-.36,1.24.3.3,0,0,0,.26.22,2.92,2.92,0,0,0,2.45-1.73,4.66,4.66,0,0,0-.28-2.81A3,3,0,0,0,110.55,110.57Z"/><path class="cls-8" d="M92.44,79c.36,1.17.76,3.53,1.19,6s.88,5.17,1.36,7.11c.89,3.63,6,12.63,6.77,13.92.92-.82,3.3-1.52,4.66-1.88l0,0a22.48,22.48,0,0,1-1.1-5c-.17-1.65-1.34-4.63-2.36-7.27a29.32,29.32,0,0,1-1.47-4.21c-.08-.58-.13-1.34-.18-2.23a36.55,36.55,0,0,0-.73-6,29.91,29.91,0,0,1-.33-5c-.07-3.92-.16-8.79-1.77-10.71-2.16-2.58-8-4.22-9.31-4.56a31.57,31.57,0,0,1,4,10.35A20.45,20.45,0,0,1,92.44,79Zm3.1,8.54s1.25-.38,2.82,1.18a.15.15,0,0,1,0,.2.16.16,0,0,1-.1.05.12.12,0,0,1-.1-.05c-1.45-1.44-2.52-1.11-2.53-1.11a.13.13,0,0,1-.18-.09A.14.14,0,0,1,95.54,87.58Z"/><path class="cls-8" d="M111.13,116.59h.09a1.12,1.12,0,0,0,1.27-.47c.31-.48,0-1.3-.16-1.65a3.71,3.71,0,0,1-1.8.84l.06.19C110.69,115.83,110.91,116.57,111.13,116.59Z"/><path class="cls-8" d="M108.82,111.88a6.29,6.29,0,0,1,1.21,1.74,1.43,1.43,0,0,1,.2-.23,1.61,1.61,0,0,0,.2-1.31l-.06-.26h0S109.31,111.4,108.82,111.88Z"/><path class="cls-8" d="M47.85,117l.09,0a1.22,1.22,0,0,0,.92,0,.64.64,0,0,0,.36-.32,8.76,8.76,0,0,1-.13-2.52,2.1,2.1,0,0,1,0-.27,2,2,0,0,1,.6-1.44.87.87,0,0,0-.41-.56,1.15,1.15,0,0,0-.88.12v.11a3,3,0,0,1-.36.77,7,7,0,0,0-.8,1.94l0,.15c0,.19-.07.38-.11.57C47.05,116.6,47.42,116.78,47.85,117Z"/><path class="cls-10" d="M103.87,114.91a6.55,6.55,0,0,0,0-1,1.46,1.46,0,0,1,.39-1.13,1.44,1.44,0,0,1,.36-.3h-54a1.64,1.64,0,0,1,.36.3,1.43,1.43,0,0,1,.38,1.13,8.29,8.29,0,0,0,0,1c0,.19,0,.37,0,.56H74.73s0,.11,0,.09a.15.15,0,0,1,.2,0s0-.12,0-.1h28.83C103.86,115.28,103.86,115.1,103.87,114.91Z"/><path class="cls-8" d="M104.28,116.46a1.14,1.14,0,0,0,.93.57.45.45,0,0,0,.38-.17,7.18,7.18,0,0,0,.19-2.61V114c0-.56-.33-1.34-.8-1.34a.88.88,0,0,0-.53.32,1.18,1.18,0,0,0-.31.91,9,9,0,0,1,0,1A3.72,3.72,0,0,0,104.28,116.46Z"/><path class="cls-10" d="M42.61,114.26a2.2,2.2,0,0,1-.5-.85,3.06,3.06,0,0,1-.14-.94H35a3.4,3.4,0,0,0,0,3h7.22A3.6,3.6,0,0,1,42.61,114.26Z"/><path class="cls-8" d="M50.71,113a.88.88,0,0,0-.53-.32c-.47,0-.79.78-.8,1.34,0,.07,0,.16,0,.27a7.17,7.17,0,0,0,.2,2.61A.45.45,0,0,0,50,117a1.12,1.12,0,0,0,.92-.57,3.87,3.87,0,0,0,.14-1.54,6,6,0,0,1,0-1A1.18,1.18,0,0,0,50.71,113Z"/><path class="cls-10" d="M113.05,113.41a2.48,2.48,0,0,1-.5.85,3.86,3.86,0,0,1,.35,1.21h7.21a3.45,3.45,0,0,0,0-3h-6.93A3.82,3.82,0,0,1,113.05,113.41Z"/><path class="cls-8" d="M107.91,114.91a7.3,7.3,0,0,0-.8-1.94,3,3,0,0,1-.36-.77.21.21,0,0,1,0-.11,1.15,1.15,0,0,0-.88-.12.88.88,0,0,0-.42.56,2,2,0,0,1,.61,1.44c0,.07,0,.16,0,.27a9.14,9.14,0,0,1-.13,2.52.61.61,0,0,0,.36.32,1.19,1.19,0,0,0,.91,0l.1,0c.43-.22.79-.4.73-1.37,0-.19-.07-.38-.11-.57Z"/><path class="cls-11" d="M34.82,115.67a3.64,3.64,0,0,1,0-3.42.15.15,0,0,1,.12-.07H36.6a1.91,1.91,0,0,0-.38-1.23,1.38,1.38,0,0,0-1.09-.42c-.85,0-1.38,1.92-1.38,3.7,0,1.57.43,3.16,1.38,3.16a1.57,1.57,0,0,0,1.34-.5,1.44,1.44,0,0,0,.16-1.14H35A.16.16,0,0,1,34.82,115.67Z"/><path class="cls-8" d="M45.13,113.62a5.89,5.89,0,0,1,1.21-1.74c-.5-.49-1.51-.14-1.52-.14h0a3.38,3.38,0,0,0-.08.34,1.61,1.61,0,0,0,.2,1.31A2.2,2.2,0,0,1,45.13,113.62Z"/><path class="cls-8" d="M43.94,116.6H44c.21,0,.44-.76.54-1.08l.06-.19a3.73,3.73,0,0,1-1.81-.84c-.15.35-.46,1.17-.15,1.65A1.12,1.12,0,0,0,43.94,116.6Z"/><path class="cls-8" d="M45.82,117c.72-.06.9-.81,1.12-2l0-.14a7.05,7.05,0,0,1,.83-2,3.33,3.33,0,0,0,.32-.69s0-.09-.06-.16a1.36,1.36,0,0,0-1.05-.22c-.49.07-1.52,1.55-1.7,2.18a1.37,1.37,0,0,1,0,1,.59.59,0,0,1-.42.38,2.34,2.34,0,0,0-.09.28c-.07.23-.14.45-.22.64A1.4,1.4,0,0,0,45.82,117Z"/><path class="cls-12" d="M36.7,117.06a1.8,1.8,0,0,1-1.57.61c-.55,0-1-.38-1.29-1.1a6.56,6.56,0,0,1-.37-2.34c0-1.93.58-4,1.66-4a1.65,1.65,0,0,1,1.3.51,2.1,2.1,0,0,1,.45,1.42h1.25C38,111,37.25,103,34.81,103c-2.17,0-3.16,5.68-3.16,11a34.28,34.28,0,0,0,.77,7.64c.54,2.18,1.29,3.38,2.13,3.38a2.19,2.19,0,0,0,1.6-.71c2-2,2-7.56,2-8.5H36.92A1.69,1.69,0,0,1,36.7,117.06Z"/><path class="cls-13" d="M26.8,104.77H24.21c-.27.45-1.83,3.34-1.83,9.21s2.18,8.81,2.5,9.2h2.43a19.28,19.28,0,0,1-1.94-9.2A25.12,25.12,0,0,1,26.8,104.77Z"/><path class="cls-13" d="M30.08,104H27.49c-.27.49-1.84,3.63-1.84,10a18.91,18.91,0,0,0,2,9.24.1.1,0,0,1,0,.07,5.47,5.47,0,0,0,.46.71h2.49a21.16,21.16,0,0,1-2.13-10A27.32,27.32,0,0,1,30.08,104Z"/><path class="cls-13" d="M30.08,104H27.49c-.27.49-1.84,3.63-1.84,10a18.91,18.91,0,0,0,2,9.24.1.1,0,0,1,0,.07,5.47,5.47,0,0,0,.46.71h2.49a21.16,21.16,0,0,1-2.13-10A27.32,27.32,0,0,1,30.08,104Z"/><path class="cls-11" d="M120.33,112.25a3.65,3.65,0,0,1,0,3.42.13.13,0,0,1-.13.08h-1.67a1.48,1.48,0,0,0,.15,1.14,1.57,1.57,0,0,0,1.34.5c.44,0,.78-.31,1-.93a6.16,6.16,0,0,0,.36-2.23c0-1.78-.53-3.7-1.39-3.7a1.36,1.36,0,0,0-1.08.42,1.81,1.81,0,0,0-.38,1.23h1.64A.17.17,0,0,1,120.33,112.25Z"/><path class="cls-13" d="M31.36,113.94a31.44,31.44,0,0,1,.82-7.66A5.67,5.67,0,0,1,33.94,103h-3.1c-.29.51-2,4-2,11s2.43,10.53,2.78,11h2.18C32.12,123.73,31.36,118.68,31.36,113.94Z"/><path class="cls-12" d="M22.22,111.11H20.13a2.48,2.48,0,0,0-.33,1.21h0s0,0,0,0a14.39,14.39,0,0,0,0,3.28h0l.09.47c.1.38.21.52.28.52h2.12a22,22,0,0,1-.16-2.68C22.09,112.92,22.14,112,22.22,111.11Z"/><path class="cls-10" d="M19.5,112.47H13a3.18,3.18,0,0,0-.66,2,1.5,1.5,0,0,0,.63,1h6.49c0-.44-.06-.91-.06-1.26C19.4,114.24,19.41,113.34,19.5,112.47Z"/><path class="cls-13" d="M127.49,123.22a18.91,18.91,0,0,0,2-9.24c0-6.4-1.57-9.54-1.84-10h-2.58a27.32,27.32,0,0,1,1.56,10,21.28,21.28,0,0,1-2.13,10H127a5.86,5.86,0,0,0,.45-.71A.16.16,0,0,1,127.49,123.22Z"/><path class="cls-5" d="M51.13,116.59a1.42,1.42,0,0,1-1.18.73h0a.74.74,0,0,1-.58-.26,1,1,0,0,1-.41.29,1.51,1.51,0,0,1-1.15,0l-.09,0a1.34,1.34,0,0,1-.82-.84,1.2,1.2,0,0,1-1.06.9h-.1a1.59,1.59,0,0,1-1.27-.76.57.57,0,0,1-.41.33H44c-.11,0-.25,0-.4,0a1.29,1.29,0,0,1-1-.46,1.34,1.34,0,0,0,.41.93,2.15,2.15,0,0,0,1.45.1l0-.09a.15.15,0,0,1,0-.16.14.14,0,0,1,.19-.07c.06,0,.08.07.16.23s.48.93.93,1A2.49,2.49,0,0,0,47,118.2a1.59,1.59,0,0,1-.18-.46.14.14,0,0,1,.12-.16.13.13,0,0,1,.16.11,1.13,1.13,0,0,0,.64.79,3,3,0,0,0,1.74-.38l0,0a.14.14,0,0,1,0-.2.14.14,0,0,1,.19,0,2.49,2.49,0,0,0,.83.42c.27,0,1.12-.64,1.62-1.31a3.59,3.59,0,0,0,.58-1.2H51.3A2.19,2.19,0,0,1,51.13,116.59Z"/><path class="cls-13" d="M124.32,103h-3.1c1.77,1.21,2.57,6.1,2.57,11s-.75,9.79-2.39,11h2.18c.34-.45,2.78-3.88,2.78-11S124.6,103.5,124.32,103Z"/><path class="cls-8" d="M44.83,115.05c.14,0,.22-.14.25-.22a1.21,1.21,0,0,0-.35-1.24,1.93,1.93,0,0,1-.29-1.56,1.66,1.66,0,0,1,.54-1,.91.91,0,0,0-.36-.37,3.17,3.17,0,0,0-2-.1,4.69,4.69,0,0,0-.27,2.81A2.92,2.92,0,0,0,44.83,115.05Z"/><path class="cls-5" d="M111.58,116.92c-.15,0-.28,0-.4,0h-.09a.6.6,0,0,1-.4-.33,1.63,1.63,0,0,1-1.27.76h-.11a1.18,1.18,0,0,1-1-.9,1.34,1.34,0,0,1-.82.84l-.1,0a1.42,1.42,0,0,1-.63.14,1.5,1.5,0,0,1-.52-.09,1,1,0,0,1-.4-.29.75.75,0,0,1-.58.26,1.4,1.4,0,0,1-1.18-.73,2,2,0,0,1-.17-.84h-1.34a3.93,3.93,0,0,0,.59,1.2c.49.67,1.34,1.36,1.62,1.31a2.3,2.3,0,0,0,.82-.42.15.15,0,0,1,.2,0,.14.14,0,0,1,0,.2l0,0a3,3,0,0,0,1.73.38,1.07,1.07,0,0,0,.64-.79.15.15,0,0,1,.17-.11.13.13,0,0,1,.11.16,1.42,1.42,0,0,1-.17.46,2.49,2.49,0,0,0,1.39.24c.44-.11.78-.76.92-1s.11-.21.17-.23a.15.15,0,0,1,.19.07.14.14,0,0,1,0,.16l0,.09a2.12,2.12,0,0,0,1.44-.1,1.26,1.26,0,0,0,.41-.93A1.26,1.26,0,0,1,111.58,116.92Z"/><path class="cls-12" d="M122.73,121.58a34.23,34.23,0,0,0,.78-7.64c0-5.27-1-11-3.17-11-2.43,0-3.21,8-3.31,9.19h1.25a2.14,2.14,0,0,1,.44-1.42,1.67,1.67,0,0,1,1.3-.51c1.09,0,1.67,2,1.67,4,0,1.59-.44,3.44-1.67,3.44a1.83,1.83,0,0,1-1.57-.61,1.68,1.68,0,0,1-.21-1.31H117c0,.94,0,6.51,2,8.5a2.17,2.17,0,0,0,1.59.71C121.44,125,122.2,123.76,122.73,121.58Z"/><path class="cls-13" d="M130.94,104.77h-2.58a25.12,25.12,0,0,1,1.43,9.21,19.28,19.28,0,0,1-1.94,9.2h2.43c.32-.39,2.5-3.27,2.5-9.2S131.21,105.22,130.94,104.77Z"/><path class="cls-10" d="M135.65,112.47a17.84,17.84,0,0,1,.1,1.79,11.59,11.59,0,0,1-.06,1.26h6.49a1.48,1.48,0,0,0,.64-1,3.18,3.18,0,0,0-.66-2Z"/><path class="cls-8" d="M68,70.21c1.29,3.81,5.64,4.4,9.56,4.36v-1.5a.14.14,0,0,1,.14-.14.15.15,0,0,1,.15.14v1.5l.53,0c4.79-.14,8.14-1.52,9.18-3.8S86.79,60.13,86,58.51a11.94,11.94,0,0,1-3.91-2c0,.2.07.37.1.5a.14.14,0,0,1-.12.16h0a.14.14,0,0,1-.14-.12c-.16-.94-.76-3.61-.92-4.31a4.64,4.64,0,0,1-3.29,1.43,6.21,6.21,0,0,1-4.35-1.7c-.05.52-.17,1.71-.29,2.78h0c0,.27-.06.54-.09.79a.13.13,0,0,1,0,.06c0,.39-.09.72-.13,1a.14.14,0,0,1-.14.12h0a.13.13,0,0,1-.11-.16c0-.14.05-.32.07-.53a11.93,11.93,0,0,1-3.89,2.12C68.54,59.36,66.68,66.38,68,70.21ZM79.29,62A34.54,34.54,0,0,1,82,59.31a3.85,3.85,0,0,1,1.55,0,.15.15,0,0,1,.12.17.14.14,0,0,1-.16.12,3.58,3.58,0,0,0-1.38,0,32.36,32.36,0,0,0-2.63,2.65.14.14,0,0,1-.1,0,.17.17,0,0,1-.1,0A.15.15,0,0,1,79.29,62Zm-8-2.29c.17,0,1.68,0,2.09.34s1.86,2.19,1.92,2.27a.14.14,0,0,1,0,.2l-.09,0a.14.14,0,0,1-.11-.06s-1.52-1.88-1.89-2.23A4,4,0,0,0,71.31,60h0a.13.13,0,0,1-.14-.13A.14.14,0,0,1,71.3,59.72Z"/><path class="cls-12" d="M135.39,115.66h0c.23-1.67-.07-4.39-.38-4.55h-2.08c.08.87.13,1.82.13,2.88a22.06,22.06,0,0,1-.15,2.68H135c.07,0,.18-.14.27-.52a3.55,3.55,0,0,0,.09-.47Z"/><path class="cls-8" d="M60.17,92.17c.48-2,.9-4.69,1.27-7.09a54.82,54.82,0,0,1,1.06-5.7c-.79-2.46-.51-5.76-.15-8.79A32.65,32.65,0,0,1,66,59.23c-1.42.37-7.13,2-9.27,4.55C55.1,65.7,55,70.57,54.93,74.49a30.12,30.12,0,0,1-.32,5,35.49,35.49,0,0,0-.73,6c-.05.89-.1,1.65-.18,2.23A30.67,30.67,0,0,1,52.23,92a37.58,37.58,0,0,0-2.36,7.27,22.13,22.13,0,0,1-1.11,5l0,0a14.47,14.47,0,0,1,4.61,1.85C54.09,104.79,59.27,95.8,60.17,92.17ZM56.8,88.76c1.56-1.56,2.77-1.19,2.82-1.18a.16.16,0,0,1,.09.18.13.13,0,0,1-.18.09S58.43,87.53,57,89a.12.12,0,0,1-.2,0A.13.13,0,0,1,56.8,88.76Z"/><path class="cls-5" d="M44.76,110.36a1.2,1.2,0,0,1,.58.77.13.13,0,0,1-.1.17h0a.14.14,0,0,1-.11-.06,1,1,0,0,0-.12.15,1.69,1.69,0,0,1,1.58.29,1,1,0,0,1,.42-.2,1.6,1.6,0,0,1,1.29.3.08.08,0,0,1,0,0,1.34,1.34,0,0,1,1.11-.12,1,1,0,0,1,.5.55.14.14,0,0,1,.12-.08H52.8v0a4.22,4.22,0,0,0,0-1.39c-.15-.89-1.46-2-1.47-2a.15.15,0,0,1,0-.2.14.14,0,0,1,.2,0,6.58,6.58,0,0,1,1.19,1.27c.26-.43,1.19-2.13.84-3.18a.77.77,0,0,0-.19-.28l0,0c-.87-.88-4.06-1.76-5.44-2.08a9.28,9.28,0,0,0-.7,2.59,8.81,8.81,0,0,1,2.17.84.14.14,0,0,1-.13.25c-.92-.48-2.35-1-2.63-.78a1.85,1.85,0,0,0-.49,1,4,4,0,0,1,1.13.36.15.15,0,0,1,.06.19.15.15,0,0,1-.2.06,3,3,0,0,0-2.77,0,4.32,4.32,0,0,0-1.45,1.37A3.12,3.12,0,0,1,44.76,110.36Z"/><path class="cls-5" d="M62.63,70.62c-.47,3.95-.8,8.36,1.21,10.64a4.55,4.55,0,0,0,1.36,1h0a7.5,7.5,0,0,0,3.3.69.13.13,0,0,1,.14.14.14.14,0,0,1-.14.14h0a8,8,0,0,1-3.11-.57,18,18,0,0,1,1,8.43c8.45,3.93,21.6.53,23.24.08-1.31-2.61-.31-7.31,0-8.62a5.31,5.31,0,0,1-2.36.68h0a.14.14,0,0,1-.14-.13.13.13,0,0,1,.13-.15A5,5,0,0,0,91,81.13,8,8,0,0,0,92.16,79a.06.06,0,0,1,0,0,20,20,0,0,0,.7-9.35,30,30,0,0,0-4.46-10.93c-.58-.67-1.73-.48-2.17-.37h0v0C87,60,89,68.29,87.79,70.86c-1.08,2.39-4.51,3.84-9.42,4-3.88.11-9.21-.23-10.66-4.54-1.32-3.9.48-10.76.76-11.76-.23-.09-.9-.22-2.1.57A31.84,31.84,0,0,0,62.63,70.62Z"/><path class="cls-14" d="M87.54,70.75c.73-1.62.15-5.8-.54-8.89,0,1.17,0,2.34,0,3.5a13.66,13.66,0,0,1-.8,4.63A5.7,5.7,0,0,1,83,73.29a7.22,7.22,0,0,1-1.6.33,3.06,3.06,0,0,1-2.87-.75c-.23-.31-.47-.77-.85-.7a1,1,0,0,0-.51.41,4,4,0,0,1-4.64,1.15A7.1,7.1,0,0,1,71,72.67a8.49,8.49,0,0,1-1.86-2A8.63,8.63,0,0,1,68.2,68a25.17,25.17,0,0,1-.54-3.67A14.75,14.75,0,0,0,68,70.21c1.29,3.81,5.64,4.4,9.56,4.36v-1.5a.14.14,0,0,1,.14-.14.15.15,0,0,1,.15.14v1.5l.53,0C83.15,74.41,86.5,73,87.54,70.75Z"/><path class="cls-14" d="M80.8,52.92a4.59,4.59,0,0,1-3.08,1.23,6.21,6.21,0,0,1-4.35-1.7c0,.44-.14,1.37-.24,2.3l.19.07a2.49,2.49,0,0,0,.86.07l1.59,0a10.5,10.5,0,0,0,2.91-.35A3.67,3.67,0,0,0,80.8,52.92Z"/><path class="cls-14" d="M62.35,70.59a32.67,32.67,0,0,1,3.48-11.1,2.64,2.64,0,0,0-.65.85c-2.57,4.79-5.2,9.78-5.54,15.21-.17,2.7.23,5.49-.63,8.06a23.87,23.87,0,0,1-3,5.18,1.4,1.4,0,0,0-.28.72,1,1,0,0,0,.92.86,2.87,2.87,0,0,0,1.33-.3,30,30,0,0,1-3.76,10.12c-.8,1.34-1.7,2.62-2.39,4-.14.28-.26.57-.38.86a6.88,6.88,0,0,1,1.87,1c.74-1.27,5.92-10.26,6.82-13.89.48-2,.9-4.69,1.27-7.09a54.82,54.82,0,0,1,1.06-5.7C61.71,76.92,62,73.62,62.35,70.59ZM59.71,87.76a.13.13,0,0,1-.18.09S58.43,87.53,57,89a.12.12,0,0,1-.2,0,.13.13,0,0,1,0-.2c1.56-1.56,2.77-1.19,2.82-1.18A.16.16,0,0,1,59.71,87.76Z"/><path class="cls-14" d="M103.65,105.08q-.18-.43-.39-.87c-.68-1.4-1.59-2.68-2.39-4a29.81,29.81,0,0,1-3.75-10.12,2.82,2.82,0,0,0,1.33.3,1,1,0,0,0,.91-.86,1.4,1.4,0,0,0-.28-.72,24.25,24.25,0,0,1-3-5.18c-.86-2.57-.46-5.36-.63-8.06-.34-5.43-3-10.42-5.55-15.21a2.54,2.54,0,0,0-.63-.84,31.38,31.38,0,0,1,3.85,10.07A20.45,20.45,0,0,1,92.44,79c.36,1.17.76,3.53,1.19,6s.88,5.17,1.36,7.11c.89,3.63,6,12.63,6.77,13.92A6.85,6.85,0,0,1,103.65,105.08Zm-8-17.23a.13.13,0,0,1-.18-.09.14.14,0,0,1,.09-.18s1.25-.38,2.82,1.18a.15.15,0,0,1,0,.2.16.16,0,0,1-.1.05.12.12,0,0,1-.1-.05C96.71,87.52,95.64,87.85,95.63,87.85Z"/><path class="cls-14" d="M77.77,96.68a2.22,2.22,0,0,1,0-.63,4.71,4.71,0,0,0,0-.75c0-.42-.75-.4-.83,0a6.2,6.2,0,0,0-.07,1c0,.31-.07.63.17.86A.46.46,0,0,0,77.77,96.68Z"/><path class="cls-14" d="M88.11,91.91A53.75,53.75,0,0,1,76.55,93.3,26.54,26.54,0,0,1,67.68,92c-.06.26-.19.81-.37,1.38a17.87,17.87,0,0,0,1.75.57,18.61,18.61,0,0,0,4.1.87,17.29,17.29,0,0,0,3.13-.16c1.3-.15,2.59-.32,3.89-.49C82.92,93.77,85.8,93.35,88.11,91.91Z"/><path class="cls-14" d="M45.08,114.83a1.21,1.21,0,0,0-.35-1.24,1.93,1.93,0,0,1-.29-1.56,1.66,1.66,0,0,1,.54-1,.91.91,0,0,0-.36-.37,1.74,1.74,0,0,0-.45-.17,6.49,6.49,0,0,0-.62,1.58,2.38,2.38,0,0,0,.28,1.79c.28.43.76.79.93,1.24h.07C45,115.05,45.05,114.91,45.08,114.83Z"/><path class="cls-14" d="M43.94,116.6H44c.21,0,.44-.76.54-1.08l.06-.19a3.49,3.49,0,0,1-.65-.17,3.41,3.41,0,0,1-.29.83,1.55,1.55,0,0,1-.53.58A1.49,1.49,0,0,0,43.94,116.6Z"/><path class="cls-14" d="M44.78,113.14a.76.76,0,0,0,.15.25,2.2,2.2,0,0,1,.2.23,5.89,5.89,0,0,1,1.21-1.74.73.73,0,0,0-.26-.17l-.07,0A2.92,2.92,0,0,0,44.78,113.14Z"/><path class="cls-14" d="M48.12,112.15a.12.12,0,0,0,0-.12l-.28.22a4.74,4.74,0,0,0-1.67,3.09,3.61,3.61,0,0,1-.27,1.35,1.1,1.1,0,0,1-.28.33h.23c.72-.06.9-.81,1.12-2l0-.14a7.05,7.05,0,0,1,.83-2A3.33,3.33,0,0,0,48.12,112.15Z"/><path class="cls-14" d="M49.29,112l-.07,0a2.76,2.76,0,0,1-.15.85,9.47,9.47,0,0,0-.48,1.45c-.14,1,.28,2-.11,2.87l0,0a1.29,1.29,0,0,0,.4-.08.64.64,0,0,0,.36-.32,8.76,8.76,0,0,1-.13-2.52,2.1,2.1,0,0,1,0-.27,2,2,0,0,1,.6-1.44A.87.87,0,0,0,49.29,112Z"/><path class="cls-14" d="M50.87,116.46a3.87,3.87,0,0,0,.14-1.54,6,6,0,0,1,0-1,1.18,1.18,0,0,0-.31-.91.23.23,0,0,1-.07-.07,19.26,19.26,0,0,0-.18,2.63,2.91,2.91,0,0,1-.29,1.48A1.13,1.13,0,0,0,50.87,116.46Z"/><path class="cls-14" d="M110.77,110.48a.85.85,0,0,0-.22.09.92.92,0,0,0-.38.4,1.67,1.67,0,0,1,.54,1.06,1.89,1.89,0,0,1-.28,1.56,1.24,1.24,0,0,0-.36,1.24.3.3,0,0,0,.26.22h0a2.58,2.58,0,0,1,.5-1.09,3,3,0,0,0,.71-1.45,2.67,2.67,0,0,0-.44-1.37Z"/><path class="cls-14" d="M109.09,111.71a.77.77,0,0,0-.27.17,6.29,6.29,0,0,1,1.21,1.74,1.43,1.43,0,0,1,.2-.23.71.71,0,0,0,.15-.26A3,3,0,0,0,109.09,111.71Z"/><path class="cls-14" d="M112,116.55h0a1.54,1.54,0,0,1-.3-.11.85.85,0,0,1-.29-.52l-.22-.78a3.85,3.85,0,0,1-.68.18l.06.19c.1.32.32,1.06.54,1.08h.09A1.51,1.51,0,0,0,112,116.55Z"/><path class="cls-14" d="M109.33,117h.23a1.85,1.85,0,0,1-.34-.4,3.55,3.55,0,0,1-.3-1.37,4.27,4.27,0,0,0-.55-1.62,3.56,3.56,0,0,1-.81-1.85.93.93,0,0,0-.47.21.21.21,0,0,0-.06.16,3,3,0,0,0,.33.69,7.05,7.05,0,0,1,.83,2l0,.14C108.44,116.22,108.61,117,109.33,117Z"/><path class="cls-14" d="M107,117.11a2.06,2.06,0,0,1-.63-1.69,6.24,6.24,0,0,0-.07-2.07,4.77,4.77,0,0,1-.46-1.38h0a.88.88,0,0,0-.42.56,2,2,0,0,1,.61,1.44c0,.07,0,.16,0,.27a9.14,9.14,0,0,1-.13,2.52.61.61,0,0,0,.36.32A1.17,1.17,0,0,0,107,117.11Z"/><path class="cls-14" d="M104.28,116.46a1.12,1.12,0,0,0,.71.54,8.65,8.65,0,0,1-.39-2.68,3.14,3.14,0,0,1,.39-1.68h0a.88.88,0,0,0-.53.32,1.18,1.18,0,0,0-.31.91,9,9,0,0,1,0,1A3.72,3.72,0,0,0,104.28,116.46Z"/><path class="cls-15" d="M110.23,111.47a1.15,1.15,0,0,0-.18-.23.13.13,0,0,1-.08,0h0a.15.15,0,0,1-.1-.17,1.18,1.18,0,0,1,.07-.2,2.12,2.12,0,0,0-.72-.28,4.92,4.92,0,0,0-1.71.1,5.78,5.78,0,0,0-2.71,1,1.06,1.06,0,0,1-.54.31.58.58,0,0,1-.54-.37,1.48,1.48,0,0,1-.08-.69,5.29,5.29,0,0,1,.85-2.47.37.37,0,0,0,.1-.32c0-.12-.18-.16-.3-.18-.48-.09-1-.19-1.26-.62a1.23,1.23,0,0,1-.11-.66,2.71,2.71,0,0,1,.34-1.11,4.53,4.53,0,0,0-1.38.83h0a.75.75,0,0,0-.15.25c-.35,1,.58,2.75.83,3.18a7.31,7.31,0,0,1,1.19-1.27.14.14,0,0,1,.2,0,.14.14,0,0,1,0,.2s-1.33,1.07-1.48,2a4.71,4.71,0,0,0-.07,1.39v0h3a1,1,0,0,1,.46-.47,1.38,1.38,0,0,1,1.11.12l0,0a1.63,1.63,0,0,1,1.3-.3.92.92,0,0,1,.41.2A1.7,1.7,0,0,1,110.23,111.47Z"/><path class="cls-15" d="M112.42,116.64a1.29,1.29,0,0,1-.84.28c-.15,0-.28,0-.4,0h-.09a.6.6,0,0,1-.4-.33,1.63,1.63,0,0,1-1.27.76h-.11a1.18,1.18,0,0,1-1-.9,1.34,1.34,0,0,1-.82.84l-.1,0a1.42,1.42,0,0,1-.63.14,1.5,1.5,0,0,1-.52-.09,1,1,0,0,1-.4-.29.75.75,0,0,1-.58.26,1.4,1.4,0,0,1-1.18-.73,2,2,0,0,1-.17-.84h-1.34a3.93,3.93,0,0,0,.59,1.2c.49.67,1.34,1.36,1.62,1.31a2.23,2.23,0,0,0,.71-.34l.11-.08.06,0h0a.89.89,0,0,1,.6.07,2.57,2.57,0,0,0,.94.21,1,1,0,0,0,.83-.42.52.52,0,0,1,.15-.18c.13-.07.28,0,.4.13a1.41,1.41,0,0,0,2-.56,2.25,2.25,0,0,0,1.08.16A1,1,0,0,0,112.42,116.64Z"/><path class="cls-15" d="M51.45,108.57a6.58,6.58,0,0,1,1.19,1.27c.26-.43,1.19-2.13.84-3.18a.77.77,0,0,0-.19-.28l0,0a3.67,3.67,0,0,0-1-.65l.38.39a1.61,1.61,0,0,1,.52,1.24c-.11.64-.87,1-1.53.94-.41,0-.95,0-1.1.35s.16.67.34,1a1.37,1.37,0,0,1-.75,2,2.4,2.4,0,0,1-.6,0c-.64,0-1.29-.1-1.92-.21a6.18,6.18,0,0,0-1.2-.16,1.85,1.85,0,0,0-.53.11,1.19,1.19,0,0,1,.69.34,1,1,0,0,1,.42-.2,1.6,1.6,0,0,1,1.29.3.08.08,0,0,1,0,0,1.34,1.34,0,0,1,1.11-.12,1,1,0,0,1,.5.55.14.14,0,0,1,.12-.08H52.8v0a4.22,4.22,0,0,0,0-1.39c-.15-.89-1.46-2-1.47-2a.15.15,0,0,1,0-.2A.14.14,0,0,1,51.45,108.57Z"/><path class="cls-15" d="M52.63,115.75H51.3a2.19,2.19,0,0,1-.17.84,1.42,1.42,0,0,1-1.18.73h0a.74.74,0,0,1-.58-.26,1,1,0,0,1-.41.29,1.51,1.51,0,0,1-1.15,0l-.09,0a1.34,1.34,0,0,1-.82-.84,1.2,1.2,0,0,1-1.06.9h-.1a1.59,1.59,0,0,1-1.27-.76.57.57,0,0,1-.41.33H44c-.11,0-.25,0-.4,0a1.29,1.29,0,0,1-1-.46,1.65,1.65,0,0,0,.26.78,1.74,1.74,0,0,0,.45.06A4.1,4.1,0,0,0,44.4,117l.08.12h0c.06,0,.08.07.16.23l.06.1a2.06,2.06,0,0,0,.48.45,1,1,0,0,0,1.16,0c.22-.18.38-.49.65-.48a.89.89,0,0,1,.36.15,1.9,1.9,0,0,0,1.64.13c.35-.15.7-.41,1.08-.33a1.9,1.9,0,0,1,.62.34,2,2,0,0,0,.36.16,5.58,5.58,0,0,0,1-1A3.59,3.59,0,0,0,52.63,115.75Z"/><path class="cls-15" d="M68.62,83.24a.14.14,0,0,1-.11.05h0a8.32,8.32,0,0,1-2.89-.48l-.2,0a18.59,18.59,0,0,1,1.07,8v-.08a36.32,36.32,0,0,1,1.41-4.32A5.28,5.28,0,0,1,68.6,85a5.44,5.44,0,0,0,.58-.78.81.81,0,0,0-.05-.92Z"/><path class="cls-15" d="M87.31,83.29h0a.15.15,0,0,1-.14-.11.66.66,0,0,0-.51.31,3.74,3.74,0,0,1,1.1,1.87l1.37,4a19.87,19.87,0,0,1,.55-6.78A5.31,5.31,0,0,1,87.31,83.29Z"/><path class="cls-15" d="M89.66,91.23c-.85-1.68-.73-4.23-.45-6.18,0-.21-1-.64-1.18-.73.57.28-.07,3.14-.25,3.64-.81,2.29-3.13,3.25-5.29,3.88a22.39,22.39,0,0,1-6.31.8,11.09,11.09,0,0,1-1.73-.1,12.68,12.68,0,0,1-3-1,8.78,8.78,0,0,1-1.76-1,4.46,4.46,0,0,1-.73-6.44H66.74c-.24.22-.48.46-.71.69a15.79,15.79,0,0,1,.39,6.34C74.87,95.08,88,91.68,89.66,91.23Z"/><path class="cls-15" d="M77.11,83.61l-2,.6a4.56,4.56,0,0,1-1.5.27,12.45,12.45,0,0,1-2.71-.94,16.26,16.26,0,0,0,6.38-1.93,1.26,1.26,0,0,1,.58-.2,1.24,1.24,0,0,1,.65.27,11.19,11.19,0,0,0,6.27,1.84c0,.63-.76,1-1.39,1.08A6,6,0,0,1,79.54,84a3.81,3.81,0,0,0-1.3-.55A2.94,2.94,0,0,0,77.11,83.61Z"/><path class="cls-7" d="M68,96.11a15.17,15.17,0,0,1-1.55-1h0l0,0c-.45-.35-.69-.58-.7-.59a.13.13,0,0,1,0-.08l0,.06s-.43.69-1,1.68l0,0a11.1,11.1,0,0,0,1.51,1.36C66.8,97.05,67.4,96.56,68,96.11Z"/><path class="cls-7" d="M90.74,94.85l-.54.29c-.42.24-1,.57-1.76.93A9.25,9.25,0,0,1,90.77,98c.84-.43,1.4-.78,1.62-.92A16,16,0,0,0,90.74,94.85Z"/><path class="cls-16" d="M56,112.18h1.8a2.21,2.21,0,0,0,.14-.59c0-.39,0-.89.4-1s.65.06.89.29a1.59,1.59,0,0,0,.8.57c.56.09.94-.53,1.17-1.05a24.61,24.61,0,0,0,2.28-7.24,6.67,6.67,0,0,1,.49-2.56A3.57,3.57,0,0,1,66,99a7.37,7.37,0,0,1,1.4-.27,14.65,14.65,0,0,1-2.92-2.36,58.27,58.27,0,0,0-3.87,7.46,16.46,16.46,0,0,0-.9,5.54.15.15,0,0,1-.14.15h0a.15.15,0,0,1-.14-.14,16,16,0,0,1,.24-3A24.34,24.34,0,0,0,56,112.18Z"/><path class="cls-16" d="M95.85,105.64a.14.14,0,1,1,.17-.23c.07,0,.7.55,1.52,1.31-.35-2-3.08-6.55-5-9.43a26.35,26.35,0,0,1-3.11,1.65,5.91,5.91,0,0,1,1.25.58,13.5,13.5,0,0,1,2.85,2.7,2.47,2.47,0,0,1,.7,1.23l-.87,0a.46.46,0,0,0-.31.1c-.15.15,0,.4.08.57a21.05,21.05,0,0,0,3,3.4,4.29,4.29,0,0,1,1,1.17,3.5,3.5,0,0,1,.32,1.24,18.11,18.11,0,0,1,.17,2.21h3.68C100.18,109,95.89,105.67,95.85,105.64Z"/><path class="cls-16" d="M83.05,112.18h2.28a7.91,7.91,0,0,0,2.07-3.29.55.55,0,0,0,0-.31c-.07-.25-.4-.27-.65-.23-2,.31-3.51,1.84-5.38,2.49a11,11,0,0,1-5,.21,5.83,5.83,0,0,1-2.62-.81c-.32-.22-.59-.49-.9-.71a6.25,6.25,0,0,0-3.17-.8A12.87,12.87,0,0,0,72,112.18h2.4a7.3,7.3,0,0,1-2.59-2.35.15.15,0,0,1,.07-.19.15.15,0,0,1,.19.08c.43,1,2.59,2.3,2.88,2.46H82.3a5.75,5.75,0,0,0,2.58-1.84.14.14,0,0,1,.2,0,.16.16,0,0,1,0,.21A6.78,6.78,0,0,1,83.05,112.18Z"/><path class="cls-9" d="M54.59,115.78s-1.47,3.75-1.9,5.37a16.91,16.91,0,0,0-.47,4.18c0,.28,17.76,0,18,0s1.28-3.47,2-5.23a42.15,42.15,0,0,1,2.52-4.63S54.73,115.73,54.59,115.78Z"/><path class="cls-9" d="M82.28,115.69s2.85,4.79,3.42,5.84a23.62,23.62,0,0,1,1.24,3.7c0,.15,19.52.1,19.9,0s-.81-3.8-1.33-4.84a9.24,9.24,0,0,1-.71-1.93,4.4,4.4,0,0,1-1.41-.89,4.82,4.82,0,0,1-1.12-2Z"/><path class="cls-16" d="M54.59,115.78s-1.47,3.75-1.9,5.37a16.91,16.91,0,0,0-.47,4.18s.17,0,.46.07a43,43,0,0,1,4.18-9.67C55.49,115.75,54.62,115.77,54.59,115.78Z"/><path class="cls-16" d="M74.73,115.47l-2.79,0c.52,1.9-.3,3.92-.9,5.82a26.23,26.23,0,0,0-.94,4h.12c.24,0,1.28-3.47,2-5.23A42.15,42.15,0,0,1,74.73,115.47Z"/><path class="cls-16" d="M82.28,115.69s2.85,4.79,3.42,5.84a23.62,23.62,0,0,1,1.24,3.7,1.59,1.59,0,0,0,.46,0,23.46,23.46,0,0,0-1.58-4.3,14.53,14.53,0,0,1-.95-5.3Z"/><path class="cls-16" d="M104.8,118.46a4.4,4.4,0,0,1-1.41-.89,4.82,4.82,0,0,1-1.12-2l-3.47,0a3.31,3.31,0,0,0,.82,2.37c.6.74,1.37,1.32,2,2a10.42,10.42,0,0,1,2,3.2c.29.68.52,1.4.79,2.09,1.39,0,2.29,0,2.37,0,.38-.09-.81-3.8-1.33-4.84A9.24,9.24,0,0,1,104.8,118.46Z"/><path class="cls-17" d="M51,112.84a1.39,1.39,0,0,1,.33,1.06.49.49,0,0,1,0,.12h52.57a.49.49,0,0,0,0-.12,1.43,1.43,0,0,1,.33-1.06Z"/><path class="cls-17" d="M12.77,112.84a3.23,3.23,0,0,0-.44,1.18h7.08c0-.26,0-.71.06-1.18Z"/><path class="cls-17" d="M42.11,113.41a2.9,2.9,0,0,1-.12-.57H34.88A3.36,3.36,0,0,0,34.7,114h7.72A2.06,2.06,0,0,1,42.11,113.41Z"/><path class="cls-17" d="M142.39,112.84h-6.7c0,.47.05.92.06,1.18h7.07A3.41,3.41,0,0,0,142.39,112.84Z"/><path class="cls-17" d="M120.27,112.84h-7.11a2.87,2.87,0,0,1-.11.57,2.33,2.33,0,0,1-.31.61h7.72A3.33,3.33,0,0,0,120.27,112.84Z"/><path class="cls-18" d="M123.5,114.66a2.11,2.11,0,0,1-.33.18,4.56,4.56,0,0,1-1.27.32l-.26,0c-.15,1.3-.63,2.49-1.62,2.49a1.83,1.83,0,0,1-1.57-.61,1.68,1.68,0,0,1-.21-1.31H117c0,.94,0,6.51,2,8.5a2.17,2.17,0,0,0,1.59.71c.84,0,1.6-1.2,2.13-3.38A32.86,32.86,0,0,0,123.5,114.66Z"/><path class="cls-18" d="M117.52,112.18a12.5,12.5,0,0,1-.31-1.64c-.1.78-.16,1.38-.18,1.64Z"/><path class="cls-18" d="M135.47,114.3a3.09,3.09,0,0,1-1.05,0,3.16,3.16,0,0,1-1.36-.64V114a22.06,22.06,0,0,1-.15,2.68H135c.07,0,.18-.14.27-.52a3.55,3.55,0,0,0,.09-.47h0A9.52,9.52,0,0,0,135.47,114.3Z"/><path class="cls-19" d="M120.33,115.67a.13.13,0,0,1-.13.08h-1.67a1.48,1.48,0,0,0,.15,1.14,1.57,1.57,0,0,0,1.34.5c.44,0,.78-.31,1-.93a6.16,6.16,0,0,0,.36-2.23c0-.23,0-.45,0-.68a3.71,3.71,0,0,1-.63.24A3.84,3.84,0,0,1,120.33,115.67Z"/><path class="cls-12" d="M123.79,114.66c-.08,4.51-.83,9.13-2.39,10.3h2.18c.33-.43,2.53-3.55,2.76-9.94A7.57,7.57,0,0,1,123.79,114.66Z"/><path class="cls-12" d="M126.63,114.89a20.64,20.64,0,0,1-2.12,9.11H127a5.86,5.86,0,0,0,.45-.71.16.16,0,0,1,0-.07,18.45,18.45,0,0,0,2-8.5A9.82,9.82,0,0,1,126.63,114.89Z"/><path class="cls-12" d="M132.75,115.1a7.48,7.48,0,0,1-3,0,18.58,18.58,0,0,1-1.92,8.11h2.43C130.58,122.81,132.5,120.27,132.75,115.1Z"/><path class="cls-12" d="M28.85,115.69c.35,6,2.41,8.86,2.73,9.27h2.18c-1.4-1-2.16-4.89-2.35-8.94a10.07,10.07,0,0,1-2.5-.31Z"/><path class="cls-12" d="M28.56,115.57a6.4,6.4,0,0,1-2.86-.06,17.9,17.9,0,0,0,2,7.71.1.1,0,0,1,0,.07,5.47,5.47,0,0,0,.46.71h2.49A20.25,20.25,0,0,1,28.56,115.57Z"/><path class="cls-12" d="M22.45,115.79c.38,4.71,2.14,7,2.43,7.39h2.43a18,18,0,0,1-1.88-7.36A8.77,8.77,0,0,1,22.45,115.79Z"/><path class="cls-18" d="M38.14,115.75H36.92a1.69,1.69,0,0,1-.22,1.31,1.8,1.8,0,0,1-1.57.61c-.55,0-1-.38-1.29-1.1a5.18,5.18,0,0,1-.26-.95,10.08,10.08,0,0,1-1.9-.08,31.12,31.12,0,0,0,.74,6c.54,2.18,1.29,3.38,2.13,3.38a2.19,2.19,0,0,0,1.6-.71C38.1,122.26,38.15,116.69,38.14,115.75Z"/><path class="cls-18" d="M19.69,113.87a11.32,11.32,0,0,0,.07,1.78h0l.09.47c.1.38.21.52.28.52h2.12a20.17,20.17,0,0,1-.15-2.56l-.1,0A4.89,4.89,0,0,1,19.69,113.87Z"/><path class="cls-19" d="M35,115.75a.16.16,0,0,1-.13-.08,4.1,4.1,0,0,1-.29-.8,2.39,2.39,0,0,1-.77-.37c0,1.48.47,2.89,1.37,2.89a1.57,1.57,0,0,0,1.34-.5,1.44,1.44,0,0,0,.16-1.14Z"/><path class="cls-15" d="M74.59,107.93a3.55,3.55,0,0,1-.08.47.83.83,0,0,1-.27.51.36.36,0,0,1-.51-.08.25.25,0,0,1,0-.19h0a1.24,1.24,0,0,0-.14.44,2.73,2.73,0,0,0,.88.51,4.08,4.08,0,0,0,.55-1.44A.63.63,0,0,0,74.59,107.93Z"/><path class="cls-15" d="M83.35,108.33a.41.41,0,0,0,0-.09c-.14.14-.24.33-.42.37a.64.64,0,0,1-.54-.21A1.12,1.12,0,0,1,82,108a.62.62,0,0,1,0-.33.79.79,0,0,0-.34.41,4.41,4.41,0,0,0,1.08,1.09A2.45,2.45,0,0,0,83.35,108.33Z"/><path class="cls-20" d="M88.41,58.68c-.58-.67-1.73-.48-2.17-.37h0a4.07,4.07,0,0,1,1.8.5c.48.34,2.74,4.12,4.31,8.4A31,31,0,0,0,88.41,58.68Z"/><path class="cls-20" d="M66.37,59.11a31.83,31.83,0,0,0-3.61,10.57,60.78,60.78,0,0,1,3.87-10.33,5.4,5.4,0,0,1,1.84-.81C68.24,58.45,67.57,58.32,66.37,59.11Z"/><path class="cls-21" d="M56.7,63.78C55.1,65.7,55,70.57,54.93,74.49a30.12,30.12,0,0,1-.32,5,35.49,35.49,0,0,0-.73,6c-.05.89-.1,1.65-.18,2.23A30.67,30.67,0,0,1,52.23,92a37.58,37.58,0,0,0-2.36,7.27,22.13,22.13,0,0,1-1.11,5l0,0,.44.12c.79-1.79,1-4.75,1.33-6s3.05-8.49,3.46-9.93c0,0,.27-5.47.54-6.46a23.9,23.9,0,0,0,.71-4.49c.18-2.2.41-11.72,2.2-13.83S65,59.57,65.73,59.3C64,59.77,58.73,61.36,56.7,63.78Z"/><path class="cls-14" d="M98,63.8c1.8,2.2,1.8,10.19,1.93,13.42s1.35,8.76,1.17,10.24,2.56,7,3,8.71a24.41,24.41,0,0,1,.85,3.86,15.09,15.09,0,0,0,1.27,4.24l.23-.06,0,0a22.48,22.48,0,0,1-1.1-5c-.17-1.65-1.34-4.63-2.36-7.27a29.32,29.32,0,0,1-1.47-4.21c-.08-.58-.13-1.34-.18-2.23a36.55,36.55,0,0,0-.73-6,29.91,29.91,0,0,1-.33-5c-.07-3.92-.16-8.79-1.77-10.71-2.16-2.58-8-4.22-9.31-4.56C89.14,59.22,96.17,61.6,98,63.8Z"/><path class="cls-20" d="M108.56,107.52c.16.09.21.65.22.75l.32-.07a1.83,1.83,0,0,0-.48-1c-.24-.23-1.29.14-2.17.55l1.21-.21C108.2,107.43,108.38,107.43,108.56,107.52Z"/><path class="cls-20" d="M111.81,110.1c.2,0,.38.05.53.08a4.44,4.44,0,0,0-1.45-1.37,2.72,2.72,0,0,0-2.33-.18,12.92,12.92,0,0,1,1.84.33A3.5,3.5,0,0,1,111.81,110.1Z"/><path class="cls-20" d="M106.9,104.7c.11.26.64,1.78.8,2.24l.2,0a9,9,0,0,0-.57-2.61c-.51.12-1.26.31-2,.55C106,104.67,106.82,104.52,106.9,104.7Z"/><path class="cls-14" d="M112.55,112.91a4.49,4.49,0,0,1-1.5,2,2.72,2.72,0,0,0,1.73-1.58,4.66,4.66,0,0,0-.28-2.81A9.8,9.8,0,0,1,112.55,112.91Z"/><path class="cls-20" d="M87.79,70.86c-1.08,2.39-4.51,3.84-9.42,4-3.88.11-9.21-.23-10.66-4.54-.76-2.23-.49-5.43-.07-7.95-.49,1.62-2.21,8.41,2.44,11.37,5.3,3.37,15.27,1.3,17.42-1.39,2-2.49.81-8.18-.2-10.42C88,65,88.56,69.18,87.79,70.86Z"/><path class="cls-20" d="M46.54,107.18a1.85,1.85,0,0,0-.49,1,2.24,2.24,0,0,1,.6-.72,4.15,4.15,0,0,1,1.48,0C47.42,107.19,46.73,107,46.54,107.18Z"/><path class="cls-20" d="M47,108.81a3,3,0,0,0-2.77,0,4.32,4.32,0,0,0-1.45,1.37l.37-.05A10.06,10.06,0,0,1,45,108.91,12.42,12.42,0,0,1,47,108.81Z"/><path class="cls-20" d="M47.83,104.28a9.28,9.28,0,0,0-.7,2.59l.26,0a8.85,8.85,0,0,1,.83-2.14c.18,0,1.53.13,2.12.2C49.38,104.67,48.43,104.42,47.83,104.28Z"/><path class="cls-14" d="M42.65,113.13a4.83,4.83,0,0,1,.09-2.64l-.09,0a4.69,4.69,0,0,0-.27,2.81A2.86,2.86,0,0,0,44.52,115,8.33,8.33,0,0,1,42.65,113.13Z"/><path class="cls-20" d="M30.84,103a2.67,2.67,0,0,0-.16.31l2.79.12a2.35,2.35,0,0,1,.47-.43Z"/><path class="cls-20" d="M29.91,104.41c.06-.17.11-.32.17-.46H27.49c0,.07-.1.19-.18.37Z"/><path class="cls-20" d="M26.8,104.77H24.21l-.14.26,2.61.06Z"/><path class="cls-20" d="M20,111.45l2.23.11,0-.45H20.13C20.07,111.14,20,111.26,20,111.45Z"/><path class="cls-20" d="M124.32,103h-3.1a2.52,2.52,0,0,1,.48.45h2.84C124.44,103.22,124.36,103.07,124.32,103Z"/><path class="cls-20" d="M127.66,104h-2.58l.19.5,2.59-.11C127.77,104.15,127.7,104,127.66,104Z"/><path class="cls-20" d="M130.94,104.77h-2.58q.06.18.15.39l2.69.1C131.08,105,131,104.85,130.94,104.77Z"/><path class="cls-20" d="M135,111.1h-2.08l0,.37,2.23,0C135.13,111.26,135.07,111.13,135,111.1Z"/><path class="cls-21" d="M87.3,83.32a.18.18,0,0,1-.18-.16.19.19,0,0,1,.17-.19,4.92,4.92,0,0,0,3.64-1.86c2.24-2.75,2.43-7.91,1.91-11.5A29.85,29.85,0,0,0,88.38,58.7c-.55-.64-1.64-.47-2.09-.37.79,1.68,2.7,10,1.53,12.55-1.08,2.39-4.53,3.85-9.45,4-3.89.12-9.23-.23-10.69-4.56-1.31-3.87.44-10.65.74-11.75-.23-.08-.89-.18-2,.57a31.87,31.87,0,0,0-3.72,11.49c-.47,3.95-.8,8.35,1.19,10.62A5.9,5.9,0,0,0,68.51,83a.18.18,0,0,1,.18.18.17.17,0,0,1-.18.17h0a6.22,6.22,0,0,1-4.91-1.85c-2.1-2.38-1.78-6.68-1.28-10.89a32.07,32.07,0,0,1,3.79-11.66l0-.06c1.73-1.15,2.55-.56,2.58-.54a.18.18,0,0,1,.06.19c0,.08-2.15,7.66-.79,11.69s6.25,4.44,10.35,4.32c4.78-.14,8.11-1.52,9.14-3.79,1.16-2.54-1-11.5-1.62-12.41a.16.16,0,0,1,0-.15.17.17,0,0,1,.11-.12c.07,0,1.82-.57,2.68.42a30.22,30.22,0,0,1,4.54,11.09c.53,3.66.33,8.93-2,11.77a5.22,5.22,0,0,1-3.9,2Z"/><path class="cls-21" d="M76.55,93.34a24.59,24.59,0,0,1-10.36-2,.16.16,0,0,1-.1-.19c.77-4-1.09-8.64-1.1-8.69a.17.17,0,0,1,.09-.23.19.19,0,0,1,.23.1c0,.05,1.88,4.68,1.15,8.75,8.37,3.87,21.36.57,23.16.08-1.49-3,0-8.71.11-9a.17.17,0,0,1,.21-.12.18.18,0,0,1,.13.22c0,.06-1.63,6.06,0,8.88a.22.22,0,0,1,0,.16.24.24,0,0,1-.12.1A54.24,54.24,0,0,1,76.55,93.34Z"/><path class="cls-21" d="M68.63,58.64a.17.17,0,0,1,0-.34s3-1,4.13-2.38a.17.17,0,0,1,.25,0,.17.17,0,0,1,0,.24c-1.23,1.48-4.17,2.45-4.29,2.49Z"/><path class="cls-21" d="M73,52.68c-.11,1.08-.36,3.47-.5,4.29a.19.19,0,0,0,.15.21h0a.17.17,0,0,0,.17-.15c.14-.82.37-3.07.49-4.2A.81.81,0,0,1,73,52.68Z"/><path class="cls-21" d="M86.12,58.57h-.05c-.12,0-3.09-.93-4.33-2.42a.17.17,0,0,1,0-.24.16.16,0,0,1,.24,0c1.17,1.4,4.13,2.29,4.16,2.3a.17.17,0,0,1,.12.22A.17.17,0,0,1,86.12,58.57Z"/><path class="cls-21" d="M81.4,53a.92.92,0,0,1-.32.18c.23,1,.68,3.06.81,3.85a.18.18,0,0,0,.18.15h0a.18.18,0,0,0,.14-.21C82.1,56.15,81.62,54,81.4,53Z"/><path class="cls-21" d="M75.2,62.59a.2.2,0,0,1-.14-.06s-1.51-1.88-1.88-2.24A4,4,0,0,0,71.32,60a.18.18,0,0,1-.19-.17.18.18,0,0,1,.17-.18c.28,0,1.7,0,2.12.35s1.85,2.19,1.92,2.26a.18.18,0,0,1,0,.25A.15.15,0,0,1,75.2,62.59Z"/><path class="cls-21" d="M79.4,62.29a.17.17,0,0,1-.12,0,.18.18,0,0,1,0-.25A28.9,28.9,0,0,1,82,59.28a3.77,3.77,0,0,1,1.57,0,.17.17,0,0,1,.14.2.17.17,0,0,1-.2.15,3.48,3.48,0,0,0-1.36,0,36.22,36.22,0,0,0-2.61,2.64A.19.19,0,0,1,79.4,62.29Z"/><path class="cls-21" d="M48.63,104.3h-.06a.18.18,0,0,1-.1-.23,22.43,22.43,0,0,0,1.08-4.88,38.32,38.32,0,0,1,2.38-7.34,29.34,29.34,0,0,0,1.45-4.15c.08-.56.13-1.32.18-2.2a36.24,36.24,0,0,1,.74-6,30.26,30.26,0,0,0,.32-5c.07-4,.17-8.91,1.84-10.91,2.5-3,9.47-4.67,9.76-4.74a.17.17,0,0,1,.21.13.17.17,0,0,1-.13.21c-.07,0-7.14,1.72-9.57,4.62C55.13,65.71,55,70.58,55,74.49a30,30,0,0,1-.33,5.05,36.31,36.31,0,0,0-.73,6c0,.89-.1,1.66-.18,2.23A30.66,30.66,0,0,1,52.26,92c-1,2.5-2.19,5.61-2.36,7.25a21.5,21.5,0,0,1-1.11,5A.16.16,0,0,1,48.63,104.3Z"/><path class="cls-21" d="M53.39,106.45a.15.15,0,0,1-.09,0,.18.18,0,0,1-.06-.24c.06-.1,5.94-10.14,6.89-14,.49-2,.91-4.7,1.28-7.09a53.44,53.44,0,0,1,1.07-5.74.17.17,0,0,1,.22-.12.18.18,0,0,1,.11.22,53,53,0,0,0-1.05,5.69c-.37,2.4-.79,5.12-1.29,7.12-1,3.93-6.69,13.7-6.93,14.12A.18.18,0,0,1,53.39,106.45Z"/><path class="cls-21" d="M56.9,89a.21.21,0,0,1-.13-.05.2.2,0,0,1,0-.25c1.58-1.58,2.81-1.21,2.86-1.19a.18.18,0,0,1,.11.22.18.18,0,0,1-.22.12c-.05,0-1.09-.31-2.5,1.1A.18.18,0,0,1,56.9,89Z"/><path class="cls-21" d="M52.7,110.2a.16.16,0,0,1-.09,0,.18.18,0,0,1-.06-.24s1.29-2.07.9-3.26c-.32-.94-4.06-2-5.61-2.35a9.5,9.5,0,0,0-.68,2.57.17.17,0,1,1-.34,0c.06-.41.39-2.46.84-2.85a.23.23,0,0,1,.16,0c.56.13,5.52,1.28,6,2.61s-.87,3.47-.93,3.56A.18.18,0,0,1,52.7,110.2Z"/><path class="cls-21" d="M45.89,108.48h0a.17.17,0,0,1-.16-.19,2.24,2.24,0,0,1,.6-1.34c.54-.51,2.43.43,3,.73a.17.17,0,0,1-.16.31c-1.06-.56-2.36-1-2.6-.79a1.93,1.93,0,0,0-.49,1.12A.18.18,0,0,1,45.89,108.48Z"/><path class="cls-21" d="M45.2,111.34a.18.18,0,0,1-.17-.13.86.86,0,0,0-.43-.57,3.17,3.17,0,0,0-2-.08.19.19,0,0,1-.18,0,.2.2,0,0,1,0-.18,4.08,4.08,0,0,1,1.72-1.79,3.26,3.26,0,0,1,3.09,0,.17.17,0,0,1,.07.24.17.17,0,0,1-.23.07,3,3,0,0,0-2.74,0,4.47,4.47,0,0,0-1.4,1.31,3,3,0,0,1,1.88.19,1.26,1.26,0,0,1,.6.79.18.18,0,0,1-.12.22Z"/><path class="cls-21" d="M44.83,115.37a3.22,3.22,0,0,1-2.75-2,5,5,0,0,1,.31-3.1.17.17,0,1,1,.32.14,4.74,4.74,0,0,0-.3,2.85A2.92,2.92,0,0,0,44.83,115c.13,0,.19-.13.22-.2a1.15,1.15,0,0,0-.34-1.2,1.91,1.91,0,0,1-.3-1.59c.05-.28.21-.94.67-1.15a.17.17,0,0,1,.23.09.18.18,0,0,1-.08.23,1.21,1.21,0,0,0-.47.89,1.61,1.61,0,0,0,.19,1.27,1.52,1.52,0,0,1,.43,1.59A.61.61,0,0,1,44.83,115.37Z"/><path class="cls-21" d="M43.57,117a1.29,1.29,0,0,1-1.17-.65c-.5-.78.2-2.09.22-2.14a.17.17,0,0,1,.24-.07.16.16,0,0,1,.07.23c-.17.33-.55,1.29-.23,1.8a1.08,1.08,0,0,0,1.23.45H44c.19,0,.43-.8.51-1.06a2.9,2.9,0,0,1,.13-.39.19.19,0,0,1,.24-.08.18.18,0,0,1,.08.24,2.88,2.88,0,0,0-.12.34c-.21.68-.42,1.26-.8,1.3H44C43.86,116.93,43.72,117,43.57,117Z"/><path class="cls-21" d="M45.74,117.35a1.79,1.79,0,0,1-1.44-1,.18.18,0,1,1,.32-.16h0s.43.88,1.2.82.87-.79,1.09-2l0-.14a7.07,7.07,0,0,1,.83-2,3.65,3.65,0,0,0,.32-.67A.13.13,0,0,0,48,112a1.37,1.37,0,0,0-1-.21c-.49.08-1.54,1.6-1.68,2.2a.19.19,0,0,1-.21.13.18.18,0,0,1-.13-.22c.15-.66,1.28-2.35,2-2.46a1.74,1.74,0,0,1,1.33.31.5.5,0,0,1,.15.44,3.08,3.08,0,0,1-.36.79,6.79,6.79,0,0,0-.8,1.93l0,.14c-.21,1.14-.41,2.21-1.41,2.28Z"/><path class="cls-21" d="M46.53,112.06a.17.17,0,0,1-.14-.07c-.44-.6-1.55-.22-1.56-.22a.17.17,0,0,1-.22-.1.18.18,0,0,1,.1-.23c.06,0,1.37-.47,2,.34a.19.19,0,0,1,0,.25A.2.2,0,0,1,46.53,112.06Z"/><path class="cls-21" d="M50,117.35h0a.76.76,0,0,1-.64-.31,6.26,6.26,0,0,1-.26-2.8c0-.11,0-.2,0-.27,0-.69.42-1.65,1.12-1.65a1.13,1.13,0,0,1,.77.43,1.5,1.5,0,0,1,.39,1.15,6.55,6.55,0,0,0,0,1,4,4,0,0,1-.16,1.7A1.46,1.46,0,0,1,50,117.35Zm.23-4.68c-.45,0-.75.78-.77,1.31,0,.07,0,.16,0,.27a7.52,7.52,0,0,0,.19,2.59A.44.44,0,0,0,50,117h0a1.09,1.09,0,0,0,.89-.55,3.67,3.67,0,0,0,.13-1.53,7.26,7.26,0,0,1,0-1.06,1.16,1.16,0,0,0-.31-.88A.86.86,0,0,0,50.18,112.67Z"/><path class="cls-21" d="M49.87,112.76a.17.17,0,0,1-.17-.13.91.91,0,0,0-.42-.63,1.12,1.12,0,0,0-.87.13.3.3,0,0,1-.24,0,.22.22,0,0,1-.09-.12.18.18,0,0,1,.11-.22h0l0,0a1.4,1.4,0,0,1,1.16-.13,1.24,1.24,0,0,1,.62.86.17.17,0,0,1-.13.21Z"/><path class="cls-21" d="M48.44,117.47a1.37,1.37,0,0,1-.64-.14l-.09,0c-.47-.23-1-.49-.91-1.68a.18.18,0,0,1,.18-.17.19.19,0,0,1,.17.19c-.07,1,.28,1.13.71,1.35l.1,0a1.19,1.19,0,0,0,.89,0,.59.59,0,0,0,.35-.33.18.18,0,0,1,.23-.11.17.17,0,0,1,.1.23.92.92,0,0,1-.55.54A1.61,1.61,0,0,1,48.44,117.47Z"/><path class="cls-21" d="M52.94,112.36h0a.18.18,0,0,1-.13-.21,4.08,4.08,0,0,0-.05-1.37c-.15-.88-1.45-1.94-1.46-2a.17.17,0,0,1,0-.24.18.18,0,0,1,.25,0,4.83,4.83,0,0,1,1.59,2.16,4.1,4.1,0,0,1,0,1.51A.18.18,0,0,1,52.94,112.36Z"/><path class="cls-21" d="M43.72,117.89a1.62,1.62,0,0,1-.93-.24c-.65-.43-.57-1.65-.57-1.7a.18.18,0,0,1,.19-.17.17.17,0,0,1,.16.19c0,.3,0,1.12.41,1.39a2.07,2.07,0,0,0,1.43.09.18.18,0,0,1,.22.13.17.17,0,0,1-.12.21A3.22,3.22,0,0,1,43.72,117.89Z"/><path class="cls-21" d="M45.89,118.79a1.47,1.47,0,0,1-.36,0c-.58-.14-1-.86-1.13-1.21l-.06-.11a.18.18,0,0,1,0-.2.17.17,0,0,1,.23-.09c.07,0,.1.08.18.24s.47.93.91,1a2.65,2.65,0,0,0,1.41-.26.18.18,0,0,1,.24.08.19.19,0,0,1-.08.24A3.53,3.53,0,0,1,45.89,118.79Z"/><path class="cls-21" d="M48,118.84a1.12,1.12,0,0,1-.38-.06,1.39,1.39,0,0,1-.85-1,.18.18,0,0,1,.14-.21.19.19,0,0,1,.21.15,1,1,0,0,0,.61.76c.5.18,1.46-.26,1.77-.41l.09,0a.17.17,0,0,1,.23.09.18.18,0,0,1-.09.23l-.08,0A4.37,4.37,0,0,1,48,118.84Z"/><path class="cls-21" d="M50.45,118.58h-.08a2.92,2.92,0,0,1-1-.47.19.19,0,0,1,0-.25.17.17,0,0,1,.24,0,2.65,2.65,0,0,0,.81.41c.26,0,1.11-.65,1.59-1.3a3.78,3.78,0,0,0,.59-1.22.18.18,0,0,1,.21-.13.18.18,0,0,1,.13.22,4.28,4.28,0,0,1-.64,1.34C51.93,117.64,51,118.58,50.45,118.58Z"/><path class="cls-21" d="M42.39,115.78H35a.17.17,0,0,1-.16-.09,3.69,3.69,0,0,1,0-3.46.18.18,0,0,1,.15-.08h7.16a.18.18,0,0,1,.18.18.18.18,0,0,1-.18.17H35.05a3.39,3.39,0,0,0,0,2.93h7.33a.18.18,0,0,1,.18.18A.17.17,0,0,1,42.39,115.78Z"/><path class="cls-21" d="M35.13,117.71c-.39,0-.94-.2-1.32-1.13a6.6,6.6,0,0,1-.38-2.35c0-2,.6-4,1.7-4a1.7,1.7,0,0,1,1.33.53,2.24,2.24,0,0,1,.44,1.61.17.17,0,0,1-.19.15.16.16,0,0,1-.15-.19,2,2,0,0,0-.37-1.34,1.34,1.34,0,0,0-1.06-.41c-.48,0-.8.69-1,1.11a7.86,7.86,0,0,0-.4,2.56c0,1.56.42,3.13,1.35,3.13a1.56,1.56,0,0,0,1.32-.49,1.54,1.54,0,0,0,.12-1.21.18.18,0,0,1,.11-.22.18.18,0,0,1,.23.11,1.88,1.88,0,0,1-.18,1.53A1.84,1.84,0,0,1,35.13,117.71Z"/><path class="cls-21" d="M34.55,125.28c-2.21,0-3.22-5.88-3.22-11.34a31.53,31.53,0,0,1,.82-7.67c.61-2.35,1.54-3.6,2.66-3.6,2.92,0,3.62,9.25,3.65,9.64a.18.18,0,0,1-.17.19.16.16,0,0,1-.18-.16c-.19-2.59-1.15-9.32-3.3-9.32s-3.13,5.67-3.13,10.92c0,6.26,1.24,11,2.87,11a2.15,2.15,0,0,0,1.57-.7c2.11-2.16,2-8.55,2-8.62a.18.18,0,0,1,.36,0c0,.27.13,6.61-2.09,8.88A2.48,2.48,0,0,1,34.55,125.28Z"/><path class="cls-21" d="M34.55,125.28h-3a.18.18,0,0,1-.14-.06c-.12-.14-2.89-3.52-2.89-11.24s2-11.08,2.13-11.22a.16.16,0,0,1,.15-.09h4.05a.18.18,0,0,1,.18.18.17.17,0,0,1-.18.17h-4c-.31.57-2,4-2,11s2.39,10.45,2.76,11h3a.17.17,0,0,1,.18.17A.18.18,0,0,1,34.55,125.28Z"/><path class="cls-21" d="M30.84,124.32H28.09a.2.2,0,0,1-.14-.06c-.1-.13-2.61-3.22-2.61-10.28s1.84-10.14,1.92-10.27a.18.18,0,0,1,.15-.08h2.75a.18.18,0,0,1,.18.18.18.18,0,0,1-.18.17H27.51c-.29.54-1.82,3.68-1.82,10s2.13,9.52,2.48,10h2.67a.18.18,0,0,1,.18.17A.18.18,0,0,1,30.84,124.32Z"/><path class="cls-21" d="M27.57,123.5H24.81a.16.16,0,0,1-.13-.06c-.11-.12-2.62-3-2.62-9.46s1.85-9.33,1.93-9.45a.16.16,0,0,1,.14-.08h2.76a.18.18,0,0,1,.17.18.18.18,0,0,1-.17.17H24.23c-.29.5-1.82,3.38-1.82,9.18s2.13,8.73,2.48,9.17h2.68a.18.18,0,0,1,.17.17A.18.18,0,0,1,27.57,123.5Z"/><path class="cls-21" d="M22.38,117H20.13c-.44,0-.58-.69-.62-.92a9.52,9.52,0,0,1-.14-1.8c0-.14,0-3.47.76-3.47h2.25a.18.18,0,0,1,.18.17.18.18,0,0,1-.18.18H20.15c-.35.3-.65,3.76-.22,5.14.08.28.17.35.2.35h2.25a.18.18,0,0,1,.18.17A.18.18,0,0,1,22.38,117Z"/><path class="cls-21" d="M19.62,115.84H12.93a.2.2,0,0,1-.11,0,1.89,1.89,0,0,1-.8-1.25,3.54,3.54,0,0,1,.77-2.34.17.17,0,0,1,.14-.07h6.73a.18.18,0,0,1,.18.18.18.18,0,0,1-.18.17H13a3.19,3.19,0,0,0-.64,2,1.47,1.47,0,0,0,.61,1h6.64a.18.18,0,0,1,.18.17A.18.18,0,0,1,19.62,115.84Z"/><path class="cls-21" d="M106.53,104.3a.18.18,0,0,1-.17-.11,21.83,21.83,0,0,1-1.1-5A39,39,0,0,0,102.89,92a28.92,28.92,0,0,1-1.46-4.23c-.09-.57-.13-1.34-.19-2.23a36.24,36.24,0,0,0-.72-6,29,29,0,0,1-.33-5.05c-.08-3.91-.17-8.78-1.76-10.69-2.43-2.9-9.51-4.6-9.58-4.62a.18.18,0,0,1-.13-.21.18.18,0,0,1,.21-.13c.3.07,7.26,1.75,9.77,4.74,1.67,2,1.76,6.94,1.84,10.91a29.17,29.17,0,0,0,.32,5,36,36,0,0,1,.73,6c.06.88.11,1.64.19,2.2a28.91,28.91,0,0,0,1.44,4.15,37.76,37.76,0,0,1,2.39,7.34,21.75,21.75,0,0,0,1.08,4.88.18.18,0,0,1-.1.23Z"/><path class="cls-21" d="M101.73,106.5a.19.19,0,0,1-.16-.09c-.24-.42-5.92-10.23-6.89-14.16-.48-2-.93-4.59-1.37-7.13s-.84-4.9-1.19-6a.19.19,0,0,1,.12-.22.18.18,0,0,1,.22.11c.36,1.16.77,3.55,1.2,6.08s.89,5.16,1.36,7.11c1,3.88,6.8,14,6.86,14.06a.17.17,0,0,1-.07.24A.11.11,0,0,1,101.73,106.5Z"/><path class="cls-21" d="M98.26,89a.21.21,0,0,1-.13-.05c-1.42-1.43-2.48-1.11-2.49-1.1a.17.17,0,0,1-.22-.12.17.17,0,0,1,.11-.22s1.27-.39,2.85,1.19a.18.18,0,0,1,0,.25A.18.18,0,0,1,98.26,89Z"/><path class="cls-21" d="M102.45,110.2a.19.19,0,0,1-.15-.08c0-.09-1.37-2.22-.93-3.56s5.41-2.48,6-2.61a.2.2,0,0,1,.15,0c.46.39.69,2.54.73,3a.18.18,0,0,1-.16.2.18.18,0,0,1-.19-.16,9.58,9.58,0,0,0-.55-2.67c-1.55.36-5.3,1.41-5.61,2.35-.4,1.19.88,3.24.89,3.26a.18.18,0,0,1,0,.24A.17.17,0,0,1,102.45,110.2Z"/><path class="cls-21" d="M109.26,108.48a.17.17,0,0,1-.17-.16,2,2,0,0,0-.49-1.12c-.25-.23-1.54.23-2.6.79a.17.17,0,1,1-.16-.31c.56-.3,2.46-1.24,3-.73a2.31,2.31,0,0,1,.6,1.34.19.19,0,0,1-.16.19Z"/><path class="cls-21" d="M110,111.3h0a.17.17,0,0,1-.12-.21,1.23,1.23,0,0,1,.6-.79,3,3,0,0,1,1.87-.16,4.72,4.72,0,0,0-1.4-1.3,3,3,0,0,0-2.74,0,.18.18,0,0,1-.24-.07.19.19,0,0,1,.07-.24,3.28,3.28,0,0,1,3.1,0,4,4,0,0,1,1.71,1.79.17.17,0,0,1,0,.18.16.16,0,0,1-.17,0,3.11,3.11,0,0,0-2,0,.9.9,0,0,0-.43.57A.17.17,0,0,1,110,111.3Z"/><path class="cls-21" d="M110.33,115.37a.6.6,0,0,1-.55-.42,1.53,1.53,0,0,1,.42-1.59,1.6,1.6,0,0,0,.2-1.27,1.21,1.21,0,0,0-.47-.89.17.17,0,0,1-.09-.23.18.18,0,0,1,.24-.09,1.57,1.57,0,0,1,.66,1.15,1.9,1.9,0,0,1-.29,1.59,1.18,1.18,0,0,0-.35,1.2c0,.07.1.2.23.2a2.91,2.91,0,0,0,2.41-1.71,4.83,4.83,0,0,0-.29-2.85.17.17,0,0,1,.09-.23.18.18,0,0,1,.23.09,5,5,0,0,1,.31,3.1A3.24,3.24,0,0,1,110.33,115.37Z"/><path class="cls-21" d="M111.58,117c-.15,0-.28,0-.4,0h-.09c-.39,0-.59-.62-.81-1.3a1.92,1.92,0,0,0-.11-.34.18.18,0,0,1,.08-.24.18.18,0,0,1,.23.08,2.66,2.66,0,0,1,.14.39c.08.26.32,1,.51,1.06h.09a1.09,1.09,0,0,0,1.24-.45c.32-.51-.06-1.47-.24-1.8a.18.18,0,0,1,.07-.23.17.17,0,0,1,.24.07s.72,1.36.23,2.14A1.31,1.31,0,0,1,111.58,117Z"/><path class="cls-21" d="M109.42,117.35h-.11c-1-.07-1.2-1.14-1.41-2.28l0-.14a6.78,6.78,0,0,0-.79-1.93,3.08,3.08,0,0,1-.36-.79.48.48,0,0,1,.15-.44,1.73,1.73,0,0,1,1.33-.31c.68.11,1.81,1.8,2,2.46a.18.18,0,0,1-.13.22.18.18,0,0,1-.21-.13c-.14-.6-1.2-2.12-1.69-2.2a1.33,1.33,0,0,0-1,.21.13.13,0,0,0-.05.14,3.08,3.08,0,0,0,.32.67,7.19,7.19,0,0,1,.83,2l0,.14c.22,1.2.39,1.94,1.09,2s1.19-.81,1.2-.82a.18.18,0,0,1,.23-.08.18.18,0,0,1,.09.24A1.81,1.81,0,0,1,109.42,117.35Z"/><path class="cls-21" d="M108.62,112.06a.19.19,0,0,1-.1,0,.18.18,0,0,1,0-.25c.6-.82,1.93-.29,2-.26a.18.18,0,0,1,.1.23.17.17,0,0,1-.23.09s-1.14-.45-1.57.15A.18.18,0,0,1,108.62,112.06Z"/><path class="cls-21" d="M105.21,117.35a1.46,1.46,0,0,1-1.21-.74,3.86,3.86,0,0,1-.17-1.7,8.29,8.29,0,0,0,0-1,1.5,1.5,0,0,1,.39-1.15,1.13,1.13,0,0,1,.77-.43c.7,0,1.1,1,1.11,1.65a2,2,0,0,1,0,.26,6.34,6.34,0,0,1-.25,2.81A.76.76,0,0,1,105.21,117.35Zm-.23-4.68a.9.9,0,0,0-.51.31,1.16,1.16,0,0,0-.3.88,6.16,6.16,0,0,1,0,1.06,4,4,0,0,0,.13,1.53,1.09,1.09,0,0,0,.9.55.41.41,0,0,0,.35-.16,7.28,7.28,0,0,0,.19-2.59c0-.11,0-.2,0-.27C105.73,113.45,105.42,112.67,105,112.67Z"/><path class="cls-21" d="M105.29,112.76h-.05a.17.17,0,0,1-.12-.21,1.23,1.23,0,0,1,.61-.86,1.42,1.42,0,0,1,1.17.13l0,0h0a.17.17,0,0,1,.12.22.19.19,0,0,1-.1.12c-.08,0-.14,0-.23,0a1.12,1.12,0,0,0-.87-.13.91.91,0,0,0-.42.63A.17.17,0,0,1,105.29,112.76Z"/><path class="cls-21" d="M106.71,117.47a1.55,1.55,0,0,1-.53-.09.94.94,0,0,1-.56-.54.18.18,0,0,1,.11-.23.17.17,0,0,1,.22.11.61.61,0,0,0,.36.33,1.19,1.19,0,0,0,.89,0l.09,0c.44-.22.78-.39.72-1.35a.18.18,0,0,1,.16-.19.19.19,0,0,1,.19.17,1.43,1.43,0,0,1-.91,1.68l-.09,0A1.41,1.41,0,0,1,106.71,117.47Z"/><path class="cls-21" d="M102.19,112.36a.17.17,0,0,1-.17-.15,5,5,0,0,1,.07-1.5,4.76,4.76,0,0,1,1.59-2.16.18.18,0,0,1,.25,0,.17.17,0,0,1,0,.24s-1.32,1.07-1.46,2a4.27,4.27,0,0,0-.07,1.38.18.18,0,0,1-.15.2Z"/><path class="cls-21" d="M111.44,117.89a3.22,3.22,0,0,1-.79-.1.17.17,0,0,1-.12-.21.17.17,0,0,1,.21-.13,2.07,2.07,0,0,0,1.43-.09c.4-.27.44-1.09.41-1.39a.18.18,0,1,1,.36,0s.08,1.27-.57,1.7A1.62,1.62,0,0,1,111.44,117.89Z"/><path class="cls-21" d="M109.26,118.79a3.51,3.51,0,0,1-1.29-.32.18.18,0,0,1-.08-.24.17.17,0,0,1,.23-.08,2.69,2.69,0,0,0,1.42.26c.43-.1.76-.75.9-1s.11-.21.19-.24a.17.17,0,0,1,.23.09.18.18,0,0,1,0,.2.36.36,0,0,0-.06.11c-.18.35-.55,1.07-1.14,1.21A1.37,1.37,0,0,1,109.26,118.79Z"/><path class="cls-21" d="M107.14,118.84a4.31,4.31,0,0,1-1.65-.48l-.08,0a.18.18,0,0,1-.09-.23.17.17,0,0,1,.23-.09l.08,0a3.2,3.2,0,0,0,1.77.41,1.06,1.06,0,0,0,.62-.76.18.18,0,0,1,.2-.15.19.19,0,0,1,.15.21,1.39,1.39,0,0,1-.85,1A1.21,1.21,0,0,1,107.14,118.84Z"/><path class="cls-21" d="M104.71,118.58c-.55,0-1.49-.94-1.86-1.44a4,4,0,0,1-.64-1.34.18.18,0,0,1,.13-.22.19.19,0,0,1,.21.13,3.88,3.88,0,0,0,.58,1.22c.49.65,1.33,1.35,1.59,1.3a2.54,2.54,0,0,0,.81-.41.18.18,0,1,1,.21.28,2.81,2.81,0,0,1-1,.47Z"/><path class="cls-21" d="M120.2,115.78h-7.44a.17.17,0,0,1-.17-.17.18.18,0,0,1,.17-.18h7.33a3.4,3.4,0,0,0,0-2.93H113a.18.18,0,0,1-.17-.17.18.18,0,0,1,.17-.18h7.16a.16.16,0,0,1,.15.08,3.69,3.69,0,0,1,0,3.46A.17.17,0,0,1,120.2,115.78Z"/><path class="cls-21" d="M104,115.78H51.17a.17.17,0,0,1-.18-.17.18.18,0,0,1,.18-.18H104a.18.18,0,0,1,.18.18A.17.17,0,0,1,104,115.78Z"/><path class="cls-21" d="M105.29,112.5H50a.18.18,0,0,1-.18-.17.18.18,0,0,1,.18-.18h55.26a.17.17,0,0,1,.17.18A.17.17,0,0,1,105.29,112.5Z"/><path class="cls-21" d="M120,117.71a1.84,1.84,0,0,1-1.59-.63,1.88,1.88,0,0,1-.18-1.53.17.17,0,1,1,.33.11,1.56,1.56,0,0,0,.13,1.21,1.54,1.54,0,0,0,1.31.49c.42,0,.76-.31,1-.91a6.11,6.11,0,0,0,.35-2.22c0-2-.62-3.67-1.35-3.67A1.36,1.36,0,0,0,119,111a2,2,0,0,0-.36,1.34.18.18,0,0,1-.15.19.18.18,0,0,1-.2-.15,2.27,2.27,0,0,1,.45-1.61,1.67,1.67,0,0,1,1.32-.53c1.11,0,1.7,2.07,1.7,4a6.62,6.62,0,0,1-.37,2.35C121,117.51,120.42,117.71,120,117.71Z"/><path class="cls-21" d="M120.6,125.28a2.5,2.5,0,0,1-1.82-.8c-2.21-2.27-2.09-8.61-2.08-8.88a.18.18,0,0,1,.18-.17h0a.18.18,0,0,1,.17.18c0,.07-.13,6.46,2,8.62a2.17,2.17,0,0,0,1.57.7c.82,0,1.57-1.2,2.1-3.36a34.12,34.12,0,0,0,.77-7.63c0-5.26-1-10.92-3.13-10.92s-3.1,6.73-3.29,9.32a.18.18,0,0,1-.35,0c0-.39.73-9.64,3.64-9.64,1.13,0,2,1.25,2.67,3.6a31.53,31.53,0,0,1,.82,7.67C123.83,119.4,122.82,125.28,120.6,125.28Z"/><path class="cls-21" d="M123.65,125.28H120.6a.18.18,0,0,1-.17-.18.17.17,0,0,1,.17-.17h3c.38-.5,2.76-3.93,2.76-11s-1.71-10.39-2-11h-4a.16.16,0,0,1-.17-.17.17.17,0,0,1,.17-.18h4.06a.16.16,0,0,1,.15.09c.09.14,2.12,3.5,2.12,11.22s-2.77,11.1-2.89,11.24A.16.16,0,0,1,123.65,125.28Z"/><path class="cls-21" d="M127.07,124.32h-2.76a.18.18,0,0,1-.17-.18.18.18,0,0,1,.17-.17H127c.35-.47,2.49-3.61,2.49-10s-1.53-9.46-1.83-10H125a.18.18,0,0,1-.17-.17.18.18,0,0,1,.17-.18h2.76a.19.19,0,0,1,.15.08c.08.13,1.92,3.21,1.92,10.27s-2.51,10.15-2.62,10.28A.16.16,0,0,1,127.07,124.32Z"/><path class="cls-21" d="M130.34,123.5h-2.75a.18.18,0,0,1-.18-.18.18.18,0,0,1,.18-.17h2.67c.35-.44,2.48-3.31,2.48-9.17s-1.52-8.68-1.81-9.18h-2.66a.18.18,0,0,1-.18-.17.18.18,0,0,1,.18-.18H131a.18.18,0,0,1,.15.08c.08.12,1.93,3,1.93,9.45s-2.52,9.34-2.63,9.46A.16.16,0,0,1,130.34,123.5Z"/><path class="cls-21" d="M135,117h-2.26a.18.18,0,0,1-.17-.18.18.18,0,0,1,.17-.17H135s.11-.07.2-.35c.43-1.38.13-4.84-.23-5.14h-2.23a.18.18,0,0,1-.17-.18.18.18,0,0,1,.17-.17H135c.75,0,.76,3.33.76,3.47a10.43,10.43,0,0,1-.14,1.8C135.6,116.29,135.46,117,135,117Z"/><path class="cls-21" d="M142.23,115.84h-6.7a.18.18,0,0,1-.17-.18.18.18,0,0,1,.17-.17h6.64a1.48,1.48,0,0,0,.62-1,3.17,3.17,0,0,0-.65-2h-6.65a.18.18,0,0,1-.17-.17.18.18,0,0,1,.17-.18h6.74a.19.19,0,0,1,.14.07,3.6,3.6,0,0,1,.77,2.34,1.87,1.87,0,0,1-.81,1.25A.17.17,0,0,1,142.23,115.84Z"/><path class="cls-21" d="M97.71,107.15a.18.18,0,0,1-.18-.17c-.06-1.07-1.25-3.58-3.26-6.89a45.22,45.22,0,0,0-3.53-5.2l-.53.28a25.41,25.41,0,0,1-12.63,3.48c-7.7,0-11.83-4.15-11.87-4.19a.18.18,0,0,1,.25-.25S70,98.29,77.58,98.29A25.08,25.08,0,0,0,90,94.86c.49-.26.62-.34.73-.34s.23,0,1.36,1.62c.71,1,1.56,2.34,2.33,3.6,1.24,2,3.33,5.65,3.43,7.22a.19.19,0,0,1-.17.19Z"/><path class="cls-21" d="M101.54,112.5a.18.18,0,0,1-.17-.12c-1.05-3.19-5.5-6.68-5.54-6.72a.18.18,0,0,1,.21-.28c.19.15,4.58,3.6,5.67,6.89a.18.18,0,0,1-.11.22Z"/><path class="cls-21" d="M59.57,109.53a.17.17,0,0,1-.17-.17,16.9,16.9,0,0,1,.92-5.66c1-2.9,4.9-9.19,5.06-9.46a2.26,2.26,0,0,1,1.54-.81.19.19,0,0,1,.19.16.18.18,0,0,1-.17.19,1.9,1.9,0,0,0-1.26.66s-4,6.51-5,9.38a16.39,16.39,0,0,0-.9,5.53.18.18,0,0,1-.17.18Z"/><path class="cls-21" d="M55.74,112.5h-.06a.17.17,0,0,1-.1-.23,25,25,0,0,1,4.19-6.49A.18.18,0,0,1,60,106a24.65,24.65,0,0,0-4.12,6.38A.18.18,0,0,1,55.74,112.5Z"/><path class="cls-21" d="M52.17,125.28a.18.18,0,0,1-.17-.18c0-3.7,2.38-9.32,2.49-9.56a.17.17,0,0,1,.32.14c0,.06-2.5,5.79-2.46,9.42a.18.18,0,0,1-.18.18Z"/><path class="cls-21" d="M70.34,125.28h-.06a.18.18,0,0,1-.11-.22c.1-.32,2.46-7.77,4.48-9.56a.17.17,0,0,1,.25,0,.16.16,0,0,1,0,.24c-2,1.73-4.36,9.33-4.39,9.4A.17.17,0,0,1,70.34,125.28Z"/><path class="cls-21" d="M86.87,125.28a.18.18,0,0,1-.17-.15c-.48-3.45-4.49-9.22-4.53-9.28a.17.17,0,0,1,0-.24.18.18,0,0,1,.25,0c.17.24,4.1,5.9,4.59,9.43a.19.19,0,0,1-.15.2Z"/><path class="cls-21" d="M106.89,125.28a.18.18,0,0,1-.18-.16,30,30,0,0,0-2.12-6.65.17.17,0,1,1,.32-.14,29.21,29.21,0,0,1,2.15,6.76.18.18,0,0,1-.16.19Z"/><path class="cls-21" d="M66.53,95.12a.16.16,0,0,1-.09,0,.18.18,0,0,1,0-.25,14.4,14.4,0,0,0,1-3.09.18.18,0,0,1,.21-.14.18.18,0,0,1,.14.21A14.47,14.47,0,0,1,66.68,95,.18.18,0,0,1,66.53,95.12Z"/><path class="cls-21" d="M89.87,95.34a.17.17,0,0,1-.13-.07,12.34,12.34,0,0,1-1.39-3.44.18.18,0,0,1,.12-.22.19.19,0,0,1,.22.13A12.39,12.39,0,0,0,90,95.05a.18.18,0,0,1,0,.25A.21.21,0,0,1,89.87,95.34Z"/><path class="cls-21" d="M90.77,94.88a.17.17,0,0,1-.14-.07,1.15,1.15,0,0,0-1.19-.3.17.17,0,0,1-.21-.13.16.16,0,0,1,.12-.21,1.48,1.48,0,0,1,1.55.42.18.18,0,0,1,0,.25A.3.3,0,0,1,90.77,94.88Z"/><path class="cls-21" d="M77.39,96.4a.18.18,0,0,1-.18-.18v-.79a.18.18,0,0,1,.36,0v.79A.18.18,0,0,1,77.39,96.4Z"/><path class="cls-21" d="M77.58,101.66a18.17,18.17,0,0,1-13.15-5.32.17.17,0,0,1,0-.25.16.16,0,0,1,.24,0,17.85,17.85,0,0,0,12.89,5.19A29.57,29.57,0,0,0,92.47,97a.19.19,0,0,1,.25.05.18.18,0,0,1,0,.24A29.86,29.86,0,0,1,77.58,101.66Z"/><path class="cls-21" d="M74.9,108a.17.17,0,0,1-.1,0,.19.19,0,0,1,0-.25,5.66,5.66,0,0,0,.82-3.58A6.38,6.38,0,0,1,76.82,100a.19.19,0,0,1,.25,0,.18.18,0,0,1,0,.25,6.17,6.17,0,0,0-1.18,3.89,5.93,5.93,0,0,1-.88,3.82A.17.17,0,0,1,74.9,108Z"/><path class="cls-21" d="M81.77,107.82a.16.16,0,0,1-.09,0,4.78,4.78,0,0,1-2.28-3.66,7.92,7.92,0,0,0-1.21-3.92.16.16,0,0,1,0-.24.18.18,0,0,1,.25,0,8.16,8.16,0,0,1,1.27,4.12c0,2.06,2.09,3.35,2.11,3.36a.17.17,0,0,1,.06.24A.16.16,0,0,1,81.77,107.82Z"/><path class="cls-21" d="M74.9,112.5a.15.15,0,0,1-.09,0c-.1-.06-2.55-1.45-3-2.64a.17.17,0,0,1,.32-.14c.46,1.08,2.88,2.46,2.9,2.47a.17.17,0,0,1,.07.24A.16.16,0,0,1,74.9,112.5Z"/><path class="cls-21" d="M82.31,112.5a.17.17,0,0,1-.17-.13.18.18,0,0,1,.13-.21,5.79,5.79,0,0,0,2.59-1.84.16.16,0,0,1,.24,0,.17.17,0,0,1,0,.25,6,6,0,0,1-2.76,2Z"/><path class="cls-21" d="M77.68,74.81a.18.18,0,0,1-.17-.17V73.07a.18.18,0,0,1,.17-.17.18.18,0,0,1,.18.17v1.57A.18.18,0,0,1,77.68,74.81Z"/><path class="cls-21" d="M74.5,110h-.07c-.79-.32-1.2-.61-1.2-.86a2.43,2.43,0,0,1,.77-1.4.8.8,0,0,1,.39-.09,1.07,1.07,0,0,1,.87.41c.17.28-.24,1.16-.61,1.86A.19.19,0,0,1,74.5,110Zm-.92-.89a2.76,2.76,0,0,0,.84.49,4.21,4.21,0,0,0,.53-1.39.81.81,0,0,0-.56-.22.41.41,0,0,0-.21,0A2.26,2.26,0,0,0,73.58,109.06Z"/><path class="cls-21" d="M82.77,109.53a.15.15,0,0,1-.11,0c-.62-.48-1.35-1.13-1.31-1.46a1.09,1.09,0,0,1,1-.79,2.35,2.35,0,0,1,1.27,1c.1.23-.16.66-.76,1.27A.18.18,0,0,1,82.77,109.53Zm-.46-1.94a.78.78,0,0,0-.61.49,5.13,5.13,0,0,0,1,1,3,3,0,0,0,.57-.78,2.19,2.19,0,0,0-1-.75Z"/><g id="Layer0_17_FILL" data-name="Layer0 17 FILL"><path class="cls-8" d="M77.35,55.15A3,3,0,0,1,76,54.79a20.4,20.4,0,0,1-3.46-2l-.27-.2a10.53,10.53,0,0,1-2.18-2,2.41,2.41,0,0,1-.4-.78q-.1-.33-.18-.66l0-.09c-.16-.64-.31-1.29-.43-1.92,0-.19-.07-.37-.1-.56s-.08-.43-.11-.65,0-.25,0-.38-.08-.69-.13-1.17v-.05l.07,0a.81.81,0,0,1,.28,0,1.79,1.79,0,0,1,.56.15,1.57,1.57,0,0,0,.5.13.52.52,0,0,0,.58-.41,3.24,3.24,0,0,1,.13-.76c0-.06.09-.12.39-.22s.21-.14.21-.21a.44.44,0,0,1,.06-.41.45.45,0,0,1,.39-.22.61.61,0,0,1,.36.15.51.51,0,0,0,.24.12,2.67,2.67,0,0,0,.51-.08h0c.07,0,.16,0,.38.19s.28.17.31.17c.24,0,.34-.12.34-.39a1.24,1.24,0,0,0,0-.31.83.83,0,0,1-.08-.35.35.35,0,0,1,.39-.38c.35,0,.41,0,.42,0a1.79,1.79,0,0,0,.27-.43c.06-.13.2-.2.42-.2a.47.47,0,0,1,.37.13.83.83,0,0,0,.37.25.2.2,0,0,0,.11,0,1.1,1.1,0,0,0,.28,0l.35-.07h0a.83.83,0,0,1,.73.48.69.69,0,0,0,.59.4c.22,0,.38-.18.48-.53s.34-.64.63-.64a1,1,0,0,1,.5.18,1,1,0,0,0,.52.15,1.85,1.85,0,0,0,.49-.11,1.66,1.66,0,0,1,.55-.12.24.24,0,0,1,.16.07.83.83,0,0,1,.11.6,1.22,1.22,0,0,0,.18.82,4.6,4.6,0,0,0,.76,0h.06v.06a1.85,1.85,0,0,1,0,.61c0,.2.11.3.33.31h0a1.07,1.07,0,0,0,.35-.09h0c.22,0,.39.14.53.43A2.57,2.57,0,0,0,84,44a1.2,1.2,0,0,0,.45.33c.06,0,.17.1.41.43a.62.62,0,0,0,.45.27h.07v.07c0,.19,0,.37-.05.54,0,.4-.07.77-.11,1.11-.08.8-.16,1.44-.23,1.92v.06a9.27,9.27,0,0,1-.18,1,2.57,2.57,0,0,1-.39.78c-.17.21-.37.45-.61.7a15.09,15.09,0,0,1-1.31,1.14l-.27.21a20.87,20.87,0,0,1-3.61,2.22A2.61,2.61,0,0,1,77.35,55.15Z"/><path class="cls-14" d="M75.17,40.19q-.21,0-.27-.12a.2.2,0,0,0-.17-.14.84.84,0,0,0-.3.08c-.13.06-.2.12-.2.18a1.9,1.9,0,0,0,0,.44,1.77,1.77,0,0,1-.72.19l-.13.41a.48.48,0,0,1-.49.41.45.45,0,0,1-.36-.22c-.11-.15-.19-.23-.26-.23s-.26.12-.47.36a.83.83,0,0,1-.55.35,1.26,1.26,0,0,1-.24,0,.83.83,0,0,0-.27-.06h-.16s0,.05,0,.14a1.6,1.6,0,0,0,.08.36q0,.39-.42.36c-.29,0-.44.06-.44.22s0,.2,0,.51-.1.42-.28.42h-.24a.67.67,0,0,0-.26,0l-.22.16a.59.59,0,0,1-.16.1l0,.27h0a.62.62,0,0,1,.25,0,1.74,1.74,0,0,1,.53.15,1.87,1.87,0,0,0,.53.14.6.6,0,0,0,.65-.47,3.89,3.89,0,0,1,.13-.76.8.8,0,0,1,.34-.17c.18,0,.27-.14.26-.28a.44.44,0,0,1,0-.37.37.37,0,0,1,.33-.19.5.5,0,0,1,.31.14.57.57,0,0,0,.29.13,2.18,2.18,0,0,0,.53-.08.75.75,0,0,1,.32.18.69.69,0,0,0,.36.19c.28,0,.42-.16.42-.47A1.05,1.05,0,0,0,74,42.1a1,1,0,0,1-.08-.33c0-.2.11-.3.32-.3s.44,0,.47-.07A1.66,1.66,0,0,0,75,41c0-.1.16-.15.35-.15a.39.39,0,0,1,.31.1,1,1,0,0,0,.4.27.89.89,0,0,0,.43,0l.36-.08a.75.75,0,0,1,.65.45.77.77,0,0,0,.66.43c.26,0,.45-.19.55-.58s.3-.58.56-.58a1,1,0,0,1,.47.16,1,1,0,0,0,.55.16,1.88,1.88,0,0,0,.51-.11,1.51,1.51,0,0,1,.53-.11c.15,0,.22.2.2.59a1.3,1.3,0,0,0,.21.89,4.63,4.63,0,0,0,.8,0,2,2,0,0,1,0,.58.36.36,0,0,0,.39.39.92.92,0,0,0,.38-.09c.18,0,.33.11.46.38a2.14,2.14,0,0,0,.21.38,1.27,1.27,0,0,0,.48.36,1.26,1.26,0,0,1,.38.41.71.71,0,0,0,.5.29c0-.28.06-.57.08-.87l-.09,0c-.17-.08-.25-.17-.25-.28a.74.74,0,0,1,.06-.2,1.25,1.25,0,0,0,.05-.32q0-.26-.27-.24c-.18,0-.27,0-.27-.2a1,1,0,0,0,.07-.3c0-.23-.07-.34-.21-.34-.28.27-.46.41-.55.41s-.29-.07-.29-.21a.53.53,0,0,1,.06-.15.4.4,0,0,0,.06-.22.44.44,0,0,0-.12-.3.38.38,0,0,0-.3-.16l-.43.15c-.19,0-.27-.19-.26-.58s-.08-.6-.33-.63-.52-.19-.49-.48-.11-.41-.4-.41a.44.44,0,0,0-.34.16c-.1.11-.18.16-.23.16a.35.35,0,0,1-.26-.12.28.28,0,0,0-.23-.12.42.42,0,0,0-.43.23.42.42,0,0,1-.44.23.3.3,0,0,1-.25-.12.33.33,0,0,0-.3-.13.47.47,0,0,0-.52.35.47.47,0,0,1-.53.35c-.19,0-.32-.14-.38-.42a.53.53,0,0,0-.58-.43l-.47.11a.22.22,0,0,1-.22-.17.27.27,0,0,0-.28-.19.47.47,0,0,0-.39.27.45.45,0,0,1-.4.27"/><path class="cls-8" d="M85.72,46.66h.13c.33,0,.54.17.61.4a1.79,1.79,0,0,1,0,.65,1.79,1.79,0,0,0,0-.65c-.07-.23-.28-.36-.61-.4,0,.22,0,.4,0,.56l0,.23,0-.23c0-.16,0-.34,0-.56h-.13a1.41,1.41,0,0,0-.58.13c-.09.79-.16,1.43-.24,1.91a.06.06,0,0,1,0,.06.75.75,0,0,0,.57.25A2.42,2.42,0,0,0,87,48.45a1.71,1.71,0,0,0,.79-1.37A2.25,2.25,0,0,0,87.5,46a1.27,1.27,0,0,0-1.2-.69,1.71,1.71,0,0,0-1,.36c0,.4-.08.77-.11,1.11a1.41,1.41,0,0,1,.58-.13"/><path class="cls-8" d="M68.89,45.87a1.71,1.71,0,0,0-.83-.21,1.26,1.26,0,0,0-1.2.7,2.25,2.25,0,0,0-.24,1.07,1.71,1.71,0,0,0,.79,1.37,2.92,2.92,0,0,0,1,.49,1.86,1.86,0,0,0,.52.07.87.87,0,0,0,.64-.36c-.16-.64-.31-1.28-.43-1.92a1.43,1.43,0,0,0-.46-.07h-.15c0,.21,0,.39,0,.55l0,.23,0-.23c0-.16,0-.34,0-.55-.32,0-.52.15-.59.38a1.83,1.83,0,0,0,0,.66,1.83,1.83,0,0,1,0-.66c.07-.23.27-.35.59-.38h.15a1.43,1.43,0,0,1,.46.07c0-.18-.07-.37-.1-.55S68.93,46.09,68.89,45.87Z"/><path class="cls-22" d="M71.62,39.9c-.32,0-.5.18-.55.55s-.18.56-.39.56a.28.28,0,0,1-.25-.17.28.28,0,0,0-.27-.19.4.4,0,0,0-.31.19.41.41,0,0,1-.32.17H69a.24.24,0,0,0-.21.26v.42c0,.24-.16.36-.34.36a.51.51,0,0,1-.17-.05.51.51,0,0,0-.17,0q-.32,0-.39.51c0,.33-.18.49-.39.49a2,2,0,0,1-.83-.52c-.38-.35-.59-.53-.6-.53s-.23.17-.21.51-.13.49-.47.49-.65-.37-.8-1.1c0-.21-.26-.38-.61-.5s-.51-.27-.51-.44a3.35,3.35,0,0,0,.1-.58c0-.24-.09-.39-.28-.43s-.3-.26-.32-.67c0-.21-.12-.33-.3-.35a2.3,2.3,0,0,0-.6,0,1,1,0,0,1-.6-.08v0a1.5,1.5,0,0,0,.26.62c.18.28.24.49.18.64l-.14.38a1.73,1.73,0,0,0,0,.44.74.74,0,0,0,.39.51c.23.16.34.29.34.4a.85.85,0,0,1-.11.3.82.82,0,0,0-.11.25q0,.13.21.24a.36.36,0,0,1,.2.31,2.11,2.11,0,0,1-.08.38c0,.09.1.17.29.24a.35.35,0,0,1,.27.35.65.65,0,0,1-.26.44c-.17.15-.26.25-.26.3s.08.13.23.25.24.22.25.3a2.83,2.83,0,0,1,0,.33.44.44,0,0,0,.18.27,1,1,0,0,1,.26.32l.18.35c.1.16.33.2.69.11a.37.37,0,0,1,.39.33v.55s.09.13.28.24a.45.45,0,0,1,.23.44c0,.19.06.27.23.26a.33.33,0,0,1,.38.24c.13.4.29.62.48.68a.23.23,0,0,0,.11,0,.5.5,0,0,1,.42.22.59.59,0,0,0,.36.26,1.09,1.09,0,0,1,.44.13c.05,0,.18.14.37.32s.24.24.28.28a.72.72,0,0,1,.16.47c0,.28,0,.44.18.47a1.54,1.54,0,0,0,.43,0c.17,0,.3.11.4.33s.21.33.33.33a1.18,1.18,0,0,0,.41-.11.62.62,0,0,1,.43.24.66.66,0,0,0,.47.22,3.23,3.23,0,0,0,.48-.09.6.6,0,0,1,.44.19.57.57,0,0,0,.46.18h.12a2.83,2.83,0,0,1-.28-.2,10.08,10.08,0,0,1-2.16-2,2.46,2.46,0,0,1-.39-.75c-.07-.22-.13-.44-.18-.65l0-.1a.87.87,0,0,1-.64.36,1.86,1.86,0,0,1-.52-.07,2.92,2.92,0,0,1-1-.49,1.71,1.71,0,0,1-.79-1.37,2.25,2.25,0,0,1,.24-1.07,1.26,1.26,0,0,1,1.2-.7,1.71,1.71,0,0,1,.83.21c0-.12,0-.24,0-.37l-.12-1.17,0-.27a.18.18,0,0,1-.1,0h-.18L68.23,44l.18.12h.18a.18.18,0,0,0,.1,0,.59.59,0,0,0,.16-.1l.22-.16a.67.67,0,0,1,.26,0h.24c.18,0,.27-.14.28-.42s0-.47,0-.51.15-.24.44-.22.42-.1.42-.36a1.6,1.6,0,0,1-.08-.36c0-.09,0-.14,0-.14h.16a.83.83,0,0,1,.27.06,1.26,1.26,0,0,0,.24,0,.83.83,0,0,0,.55-.35c.21-.24.36-.36.47-.36s.15.08.26.23a.45.45,0,0,0,.36.22.48.48,0,0,0,.49-.41l.13-.41a1.77,1.77,0,0,0,.72-.19,1.9,1.9,0,0,1,0-.44c0-.06.07-.12.2-.18a.84.84,0,0,1,.3-.08.2.2,0,0,1,.17.14q.06.12.27.12a.45.45,0,0,0,.4-.27.47.47,0,0,1,.39-.27.27.27,0,0,1,.28.19.22.22,0,0,0,.22.17l.47-.11a.53.53,0,0,1,.58.43c.06.28.19.42.38.42a.47.47,0,0,0,.53-.35.47.47,0,0,1,.52-.35.33.33,0,0,1,.3.13.3.3,0,0,0,.25.12.42.42,0,0,0,.44-.23.42.42,0,0,1,.43-.23.28.28,0,0,1,.23.12.35.35,0,0,0,.26.12c.05,0,.13,0,.23-.16a.44.44,0,0,1,.34-.16c.29,0,.42.14.4.41s.14.45.49.48.36.24.33.63.07.58.26.58l.43-.15a.38.38,0,0,1,.3.16.44.44,0,0,1,.12.3.4.4,0,0,1-.06.22.53.53,0,0,0-.06.15c0,.14.1.21.29.21s.27-.14.55-.41c.14,0,.21.11.21.34a1,1,0,0,1-.07.3c0,.15.09.22.27.2s.27.07.27.24a1.25,1.25,0,0,1-.05.32.74.74,0,0,0-.06.2c0,.11.08.2.25.28l.09,0,.29.12-.29-.12c0,.3,0,.59-.08.87s0,.37,0,.55a1.71,1.71,0,0,1,1-.36,1.27,1.27,0,0,1,1.2.69,2.25,2.25,0,0,1,.24,1.07A1.71,1.71,0,0,1,87,48.45a2.42,2.42,0,0,1-1.48.56.75.75,0,0,1-.57-.25,7.18,7.18,0,0,1-.17,1,2.4,2.4,0,0,1-.38.75,8.67,8.67,0,0,1-.61.7,13.12,13.12,0,0,1-1.29,1.13.78.78,0,0,0,.33.13.44.44,0,0,0,.32-.19,3.12,3.12,0,0,1,.21-.26.69.69,0,0,1,.3-.11h.26a.55.55,0,0,0,.47-.25.47.47,0,0,1,.49-.19.52.52,0,0,0,.42-.24.66.66,0,0,1,.52-.27.36.36,0,0,1,.27.1.3.3,0,0,0,.25.1c.21,0,.31-.13.29-.4l0-.32c0-.11.07-.18.2-.21A.34.34,0,0,0,87,50a.52.52,0,0,1,.1-.26.32.32,0,0,1,.28-.2c.24,0,.4-.18.49-.53a.61.61,0,0,1,.63-.53.8.8,0,0,1,.29.1.83.83,0,0,0,.27.08c.26,0,.41-.24.46-.74a.48.48,0,0,1,.17-.39.33.33,0,0,0,.16-.25,2.11,2.11,0,0,1-.08-.43,2.18,2.18,0,0,0,.08-.42.25.25,0,0,0-.15-.21c-.11-.07-.16-.14-.16-.21s.07-.15.21-.22a.56.56,0,0,1,.28-.11.28.28,0,0,1,.25.19.28.28,0,0,0,.27.2c.09,0,.16-.08.19-.26a2.43,2.43,0,0,1,.08-.33l.41-.33a.43.43,0,0,0,.19-.29.48.48,0,0,0-.11-.29.63.63,0,0,1-.13-.19.42.42,0,0,1,.15-.26l.19-.18a1.25,1.25,0,0,0,0-.24.88.88,0,0,1,0-.18c0-.13.12-.29.38-.46s.32-.67.17-1.49a3.63,3.63,0,0,1,0-.38.51.51,0,0,1,.24-.45.45.45,0,0,0,.24-.37.3.3,0,0,0-.17-.25.29.29,0,0,1-.19-.2.76.76,0,0,1-.59.27,5.39,5.39,0,0,0-.63-.09.59.59,0,0,0-.25.05c-.13,0-.2.12-.2.22a.61.61,0,0,0,.13.27.7.7,0,0,1,.12.28.42.42,0,0,1-.21.4,1,1,0,0,0-.44.38,1.68,1.68,0,0,1,0,.69.45.45,0,0,1-.44.31.58.58,0,0,1-.53-.39c-.11-.28-.25-.41-.42-.41s-.23,0-.27,0a.34.34,0,0,0-.1.29.43.43,0,0,0,.23.39.44.44,0,0,1,.22.39,1,1,0,0,1,0,.38c-.35,0-.53.14-.54.47s-.16.5-.44.5A1,1,0,0,1,87,43.9a1.11,1.11,0,0,1-.31-.69.9.9,0,0,0-.48-.67c-.32-.2-.47-.32-.47-.37a.63.63,0,0,1,.05-.22.92.92,0,0,0,0-.22c0-.25-.18-.37-.54-.35s-.55-.05-.55-.21a.37.37,0,0,1,.19-.3c.13-.1.2-.19.2-.28s-.09-.26-.27-.27a.43.43,0,0,1-.38-.39c-.08-.31-.12-.49-.14-.55a.49.49,0,0,0-.47-.3q-.12,0-.27.21a.42.42,0,0,1-.36.2.54.54,0,0,1-.34-.07.35.35,0,0,1-.05-.08c-.16-.29-.35-.44-.56-.44-.44.06-.69.1-.78.1-.24,0-.33-.21-.27-.61s0-.6-.2-.6a1,1,0,0,0-.43.19c-.2.14-.29.24-.29.32a.68.68,0,0,0,0,.21.51.51,0,0,1,0,.2.46.46,0,0,1-.09.29.55.55,0,0,1-.39.14c-.09,0-.16-.09-.22-.27a.37.37,0,0,0-.38-.28.43.43,0,0,0-.4.33.45.45,0,0,1-.45.32q-.21,0-.24-.42a.41.41,0,0,0-.44-.43,1.19,1.19,0,0,0-.65.27,1.13,1.13,0,0,1-.65.27,1.52,1.52,0,0,1-.61-.14,1.42,1.42,0,0,0-.58-.15,1.83,1.83,0,0,0-.87.15,2.32,2.32,0,0,0-.48.38.82.82,0,0,1-.44.22c-.21,0-.38.17-.5.51a.67.67,0,0,1-.64.5.43.43,0,0,1-.39-.24C71.86,40,71.75,39.9,71.62,39.9Z"/><path class="cls-23" d="M87.74,44.39a1.1,1.1,0,0,1-.83-.44,1.18,1.18,0,0,1-.33-.74c0-.21-.16-.42-.45-.61-.46-.29-.5-.37-.5-.43a1.13,1.13,0,0,1,.05-.24,1.47,1.47,0,0,0,0-.2c0-.12,0-.28-.4-.28h-.17c-.35,0-.53-.1-.53-.29a.46.46,0,0,1,.23-.36c.11-.08.17-.16.17-.22s-.06-.19-.21-.2a.51.51,0,0,1-.45-.44c-.07-.31-.11-.49-.13-.55a.41.41,0,0,0-.4-.24s-.1,0-.21.18a.47.47,0,0,1-.42.22h-.07a.64.64,0,0,1-.31-.09h0l-.06-.08c-.14-.27-.31-.41-.49-.41a7,7,0,0,1-.78.1.35.35,0,0,1-.26-.11.75.75,0,0,1-.08-.58c0-.33,0-.45,0-.49a.1.1,0,0,0-.08,0,.79.79,0,0,0-.39.19c-.25.16-.26.24-.26.25a1.21,1.21,0,0,0,0,.19.66.66,0,0,1,.06.22.49.49,0,0,1-.12.34.59.59,0,0,1-.44.17c-.12,0-.22-.11-.29-.32a.3.3,0,0,0-.31-.24c-.15,0-.26.1-.33.29a.54.54,0,0,1-.52.37c-.19,0-.29-.17-.31-.49s-.14-.36-.37-.36a1.06,1.06,0,0,0-.6.25,1.24,1.24,0,0,1-.7.29,1.54,1.54,0,0,1-.64-.16,1.44,1.44,0,0,0-.55-.14,1.9,1.9,0,0,0-.84.14,2.64,2.64,0,0,0-.46.37.86.86,0,0,1-.48.25c-.18,0-.33.15-.44.45a.76.76,0,0,1-.71.56.49.49,0,0,1-.45-.29c-.09-.15-.18-.22-.28-.22-.28,0-.43.16-.47.49s-.22.62-.47.62a.31.31,0,0,1-.31-.21.23.23,0,0,0-.21-.15.36.36,0,0,0-.25.16.46.46,0,0,1-.38.2h-.47a.17.17,0,0,0-.16.19v.42c-.06.36-.25.43-.41.43a.64.64,0,0,1-.2-.05.44.44,0,0,0-.14,0c-.06,0-.25,0-.31.45s-.29.55-.47.55-.29-.05-.87-.53L65.92,42l0,0s-.08.13-.07.4a.54.54,0,0,1-.11.42.58.58,0,0,1-.43.15c-.42,0-.71-.39-.88-1.15,0-.19-.23-.34-.55-.46s-.56-.3-.56-.5a3.9,3.9,0,0,0,.1-.58c0-.28-.13-.34-.23-.36s-.35-.29-.38-.73c0-.23-.14-.28-.23-.29h-.08L62,39h-.18a.92.92,0,0,1-.46-.11l-.05,0v0a1.08,1.08,0,0,1,.2-.39,1,1,0,0,0,.16-.32,1.17,1.17,0,0,0-.05-.24,1.23,1.23,0,0,1-.06-.32.38.38,0,0,1,.11-.21.4.4,0,0,0,.07-.24,4,4,0,0,1-.07-.51.4.4,0,0,1,.19-.37.21.21,0,0,0,.12-.18.56.56,0,0,0-.1-.26.7.7,0,0,1-.14-.41c0-.1.06-.22.31-.26s.25-.07.29-.17a2.47,2.47,0,0,1,.14-.36.38.38,0,0,1,.35-.22.28.28,0,0,0,.28-.16,2.87,2.87,0,0,1,.08-.32v0h0l.37-.4a.51.51,0,0,0,.16-.33s0-.09-.14-.26a.6.6,0,0,1-.19-.36.57.57,0,0,1,.33-.5c.17-.1.26-.21.26-.32A2.39,2.39,0,0,1,64,31c0-.09.11-.15.28-.21a2.1,2.1,0,0,0,.26-.11s.08-.08.15-.37a1,1,0,0,1,.31-.53c.09-.05.14-.19.16-.41s.1-.34.52-.34a.61.61,0,0,1,.36.14.63.63,0,0,0,.32.12h0c.06,0,.09,0,.1-.08s.07-.24.12-.37a.9.9,0,0,1,.2-.29.62.62,0,0,1,.36-.1,1,1,0,0,0,.29,0,4.4,4.4,0,0,1,.19-.43c.14-.31.3-.46.49-.47a.5.5,0,0,0,.43-.22.92.92,0,0,1,.46-.44s.14-.09.3-.41a.65.65,0,0,1,.59-.37.6.6,0,0,1,.36.22c.17.16.22.17.22.17a1.86,1.86,0,0,0,.34-.11h0a.29.29,0,0,1,.28.19.16.16,0,0,0,.14.11c.19,0,.33-.14.41-.42s.27-.54.51-.55c0,0,.21,0,.29-.32s.19-.42.64-.42a.83.83,0,0,1,.41.12.59.59,0,0,0,.29.1.87.87,0,0,0,.33-.11c.23-.13.3-.14.34-.14s.16.05.28.18a.37.37,0,0,0,.24.12.84.84,0,0,0,.26-.09,1.1,1.1,0,0,1,.39-.1.54.54,0,0,1,.29.07.47.47,0,0,0,.16,0,.6.6,0,0,0,.35-.14.65.65,0,0,1,.37-.16c.06,0,.17,0,.48.22l.1.08a.77.77,0,0,0,.4.12,1.15,1.15,0,0,0,.51-.15,1.15,1.15,0,0,1,.48-.18s0,0,.33.13a1,1,0,0,0,.32.1.4.4,0,0,0,.3-.14.43.43,0,0,1,.32-.19.37.37,0,0,1,.29.13s.09.08.13.08a.4.4,0,0,0,.36-.23.56.56,0,0,1,.52-.29.52.52,0,0,1,.37.13,1.26,1.26,0,0,0,.33.26l.44.08c.3.05.36.22.36.36a.42.42,0,0,1-.05.17.64.64,0,0,0,0,.2s0,.08.1.12a.29.29,0,0,0,.16.06l.3-.11h0c.15,0,.23.17.28.31a.32.32,0,0,0,.32.21l.4-.09h0a.54.54,0,0,1,.56.52c0,.2.16.3.4.3l.15,0h.07c.17,0,.37.09.39.49s.21.42.35.42a.47.47,0,0,0,.17,0,1,1,0,0,1,.21,0c.18,0,.31.14.41.42s.07.28.1.43a.28.28,0,0,0,.16.08c.13,0,.21.09.22.18a2.49,2.49,0,0,1,0,.59c0,.14,0,.17,0,.17h0a1.6,1.6,0,0,0,.32,0,3,3,0,0,1,.61-.14.34.34,0,0,1,.36.36c0,.15.1.23.29.24s.34.08.4.43a1.19,1.19,0,0,0,.14.49l.21.09a.67.67,0,0,1,.31.29,1.19,1.19,0,0,1,0,.58s0,.11,0,.13l.25.17s0,.05.1.26a1.78,1.78,0,0,1,.07.27,1,1,0,0,1,0,.21.45.45,0,0,0,0,.18c0,.06,0,.25.43.33s.54.32.52.51,0,.4.17.49a.47.47,0,0,1,.29.42s0,0-.28.57a.56.56,0,0,0,.17.17.58.58,0,0,1,.23.39.43.43,0,0,1,0,.3.42.42,0,0,0,0,.21.3.3,0,0,0,.16.23c.14.09.21.18.21.28a.94.94,0,0,1-.13.33.78.78,0,0,0-.13.3.25.25,0,0,0,.13.23.39.39,0,0,1,.18.33.61.61,0,0,1-.14.33.48.48,0,0,0-.12.3.46.46,0,0,0,.09.24.7.7,0,0,1,.09.26.35.35,0,0,1-.11.22.24.24,0,0,0-.1.17v.1a.85.85,0,0,1-.65.3,5.53,5.53,0,0,0-.63-.1.93.93,0,0,0-.22,0c-.14.05-.15.12-.15.16s0,.06.11.23a.72.72,0,0,1,.13.32.47.47,0,0,1-.24.46,1.1,1.1,0,0,0-.41.34,1.74,1.74,0,0,1,0,.7.54.54,0,0,1-.51.36.64.64,0,0,1-.59-.44c-.11-.25-.22-.37-.36-.37s-.21,0-.22,0-.07.07-.07.23a.35.35,0,0,0,.18.32.5.5,0,0,1,.26.46,1.31,1.31,0,0,1,0,.42l0,0h-.09a.37.37,0,0,0-.42.4C88.24,44.29,88,44.39,87.74,44.39Z"/></g><path id="Layer0_17_1_STROKES" data-name="Layer0 17 1 STROKES" class="cls-24" d="M61.34,38.79a1.13,1.13,0,0,1,.19-.36,1.2,1.2,0,0,0,.17-.36.86.86,0,0,0-.05-.26,1.11,1.11,0,0,1-.06-.3.35.35,0,0,1,.1-.17.47.47,0,0,0,.09-.28,4.4,4.4,0,0,1-.08-.51.36.36,0,0,1,.16-.31A.28.28,0,0,0,62,36a.65.65,0,0,0-.11-.3.65.65,0,0,1-.12-.37c0-.1.08-.16.24-.19a.39.39,0,0,0,.35-.21,2.05,2.05,0,0,1,.13-.35.32.32,0,0,1,.29-.19.35.35,0,0,0,.34-.2c0-.16.07-.27.09-.33l.37-.4a.62.62,0,0,0,.19-.38.74.74,0,0,0-.16-.31.54.54,0,0,1-.18-.31.51.51,0,0,1,.3-.44c.2-.12.3-.24.3-.38a3.72,3.72,0,0,1,0-.63c0-.06.1-.11.24-.16a.89.89,0,0,0,.28-.13.71.71,0,0,0,.17-.4.89.89,0,0,1,.29-.49c.11-.06.17-.22.18-.46s.16-.28.45-.28a.51.51,0,0,1,.32.13.7.7,0,0,0,.36.14.2.2,0,0,0,.23-.14,1.52,1.52,0,0,1,.12-.36.69.69,0,0,1,.17-.26.53.53,0,0,1,.32-.09.81.81,0,0,0,.32-.05,3,3,0,0,0,.22-.47q.18-.4.42-.42a.54.54,0,0,0,.49-.25.9.9,0,0,1,.42-.41c.1,0,.22-.18.35-.45a.57.57,0,0,1,.52-.33c.07,0,.17.07.31.2s.23.2.27.2l.37-.12a.23.23,0,0,1,.21.15.21.21,0,0,0,.2.15c.23,0,.39-.16.48-.47s.24-.48.44-.49.3-.14.36-.39.25-.35.57-.35a.66.66,0,0,1,.37.11.75.75,0,0,0,.33.11.92.92,0,0,0,.36-.12.83.83,0,0,1,.31-.14s.12.05.22.16a.47.47,0,0,0,.3.15.94.94,0,0,0,.29-.1,1,1,0,0,1,.36-.1.49.49,0,0,1,.25.06.39.39,0,0,0,.2.05.64.64,0,0,0,.39-.15.54.54,0,0,1,.33-.14,1.12,1.12,0,0,1,.44.21l.1.07a.82.82,0,0,0,.44.14,1.16,1.16,0,0,0,.54-.17,1.22,1.22,0,0,1,.45-.17,1.35,1.35,0,0,1,.29.13,1.19,1.19,0,0,0,.36.11.51.51,0,0,0,.35-.16q.15-.18.27-.18a.3.3,0,0,1,.23.11.27.27,0,0,0,.19.1.47.47,0,0,0,.42-.26.5.5,0,0,1,.46-.26.44.44,0,0,1,.32.12,2,2,0,0,0,.34.27l.47.08c.2,0,.3.13.3.29s0,.06,0,.15a.74.74,0,0,0,0,.22.23.23,0,0,0,.12.18.43.43,0,0,0,.21.08l.32-.13c.08,0,.15.09.21.26a.38.38,0,0,0,.39.26l.42-.08a.46.46,0,0,1,.48.45c0,.28.25.4.63.35s.36.11.38.42.15.48.42.48a.48.48,0,0,0,.2,0,.62.62,0,0,1,.18,0c.14,0,.25.12.34.37a3.26,3.26,0,0,1,.1.42s.09.1.21.13.16.07.17.13a2,2,0,0,1,0,.56c0,.13,0,.21.07.24s.17,0,.43,0a2.64,2.64,0,0,1,.59-.13.25.25,0,0,1,.28.28c0,.2.14.3.36.31s.29.13.34.37a1.22,1.22,0,0,0,.16.53.92.92,0,0,0,.23.11.55.55,0,0,1,.27.25,1.29,1.29,0,0,1,0,.54c0,.1,0,.17,0,.2a1.74,1.74,0,0,1,.23.16.83.83,0,0,1,.09.24,1.8,1.8,0,0,1,.06.24.54.54,0,0,1,0,.19.75.75,0,0,0,0,.2c0,.21.16.35.49.4s.48.2.46.43a.53.53,0,0,0,.2.56A.41.41,0,0,1,92,35a5.48,5.48,0,0,1-.29.55c0,.06.07.14.2.25a.51.51,0,0,1,.21.34.42.42,0,0,1,0,.25.47.47,0,0,0,0,.26.37.37,0,0,0,.19.29q.18.1.18.21a1.09,1.09,0,0,1-.13.29.81.81,0,0,0-.13.34.31.31,0,0,0,.16.29.31.31,0,0,1,.14.27.56.56,0,0,1-.12.29.52.52,0,0,0-.13.34.68.68,0,0,0,.09.28.68.68,0,0,1,.09.22.28.28,0,0,1-.1.17.35.35,0,0,0-.11.22.07.07,0,0,0,0,0c0,.09.07.15.18.2a.3.3,0,0,1,.17.25.45.45,0,0,1-.24.37.51.51,0,0,0-.24.45,3.63,3.63,0,0,0,0,.38c.15.82.09,1.31-.17,1.49s-.38.33-.38.46a.88.88,0,0,0,0,.18,1.25,1.25,0,0,1,0,.24l-.19.18a.42.42,0,0,0-.15.26.63.63,0,0,0,.13.19.48.48,0,0,1,.11.29.43.43,0,0,1-.19.29l-.41.33a2.43,2.43,0,0,0-.08.33c0,.18-.1.26-.19.26a.28.28,0,0,1-.27-.2.28.28,0,0,0-.25-.19.56.56,0,0,0-.28.11c-.14.07-.21.15-.21.22s.05.14.16.21a.25.25,0,0,1,.15.21,2.18,2.18,0,0,1-.08.42,2.11,2.11,0,0,0,.08.43.33.33,0,0,1-.16.25.48.48,0,0,0-.17.39c0,.5-.2.74-.46.74a.83.83,0,0,1-.27-.08.8.8,0,0,0-.29-.1.61.61,0,0,0-.63.53c-.09.35-.25.53-.49.53a.32.32,0,0,0-.28.2A.52.52,0,0,0,87,50a.34.34,0,0,1-.3.28c-.13,0-.2.1-.2.21l0,.32c0,.27-.08.4-.29.4a.3.3,0,0,1-.25-.1.36.36,0,0,0-.27-.1.66.66,0,0,0-.52.27.52.52,0,0,1-.42.24.47.47,0,0,0-.49.19.55.55,0,0,1-.47.25h-.26a.69.69,0,0,0-.3.11,3.12,3.12,0,0,0-.21.26.44.44,0,0,1-.32.19.78.78,0,0,1-.33-.13l-.28.21a20.65,20.65,0,0,1-3.59,2.21,2.61,2.61,0,0,1-2.58,0,20.21,20.21,0,0,1-3.44-2h-.12a.57.57,0,0,1-.46-.18.6.6,0,0,0-.44-.19,3.23,3.23,0,0,1-.48.09.66.66,0,0,1-.47-.22.62.62,0,0,0-.43-.24,1.18,1.18,0,0,1-.41.11q-.18,0-.33-.33c-.1-.22-.23-.33-.4-.33a1.54,1.54,0,0,1-.43,0c-.13,0-.19-.19-.18-.47a.72.72,0,0,0-.16-.47s-.13-.14-.28-.28-.32-.28-.37-.32a1.09,1.09,0,0,0-.44-.13.59.59,0,0,1-.36-.26.5.5,0,0,0-.42-.22l-.11,0q-.28-.09-.48-.69a.33.33,0,0,0-.38-.24c-.17,0-.24-.07-.23-.26a.45.45,0,0,0-.23-.44c-.19-.11-.28-.19-.28-.24v-.55a.37.37,0,0,0-.39-.33c-.36.09-.59.05-.69-.11l-.18-.35a1,1,0,0,0-.26-.32.44.44,0,0,1-.18-.27,2.83,2.83,0,0,0,0-.33c0-.08-.09-.18-.25-.3s-.23-.2-.23-.25.09-.15.26-.3a.65.65,0,0,0,.26-.44.35.35,0,0,0-.27-.35c-.19-.07-.29-.15-.29-.24a2.11,2.11,0,0,0,.08-.38.36.36,0,0,0-.2-.31q-.21-.11-.21-.24a.82.82,0,0,1,.11-.25.85.85,0,0,0,.11-.3c0-.11-.11-.24-.34-.4a.68.68,0,0,1-.38-.51,1.08,1.08,0,0,1,0-.43c0-.1.08-.23.13-.38a.79.79,0,0,0-.17-.65,1.42,1.42,0,0,1-.27-.62Zm7.35,5.27a.59.59,0,0,0,.16-.1l.22-.16a.67.67,0,0,1,.26,0h.24c.18,0,.27-.14.28-.42s0-.47,0-.51.15-.24.44-.22.42-.1.42-.36a1.6,1.6,0,0,1-.08-.36c0-.09,0-.14,0-.14h.16a.83.83,0,0,1,.27.06,1.26,1.26,0,0,0,.24,0,.83.83,0,0,0,.55-.35c.21-.24.36-.36.47-.36s.15.08.26.23a.45.45,0,0,0,.36.22.48.48,0,0,0,.49-.41l.13-.41a1.77,1.77,0,0,0,.72-.19,1.9,1.9,0,0,1,0-.44c0-.06.07-.12.2-.18a.84.84,0,0,1,.3-.08.2.2,0,0,1,.17.14q.06.12.27.12a.45.45,0,0,0,.4-.27.47.47,0,0,1,.39-.27.27.27,0,0,1,.28.19.22.22,0,0,0,.22.17l.47-.11a.53.53,0,0,1,.58.43c.06.28.19.42.38.42a.47.47,0,0,0,.53-.35.47.47,0,0,1,.52-.35.33.33,0,0,1,.3.13.3.3,0,0,0,.25.12.42.42,0,0,0,.44-.23.42.42,0,0,1,.43-.23.28.28,0,0,1,.23.12.35.35,0,0,0,.26.12c.05,0,.13,0,.23-.16a.44.44,0,0,1,.34-.16c.29,0,.42.14.4.41s.14.45.49.48.36.24.33.63.07.58.26.58l.43-.15a.38.38,0,0,1,.3.16.44.44,0,0,1,.12.3.4.4,0,0,1-.06.22.53.53,0,0,0-.06.15c0,.14.1.21.29.21s.27-.14.55-.41c.14,0,.21.11.21.34a1,1,0,0,1-.07.3c0,.15.09.22.27.2s.27.07.27.24a1.25,1.25,0,0,1-.05.32.74.74,0,0,0-.06.2c0,.11.08.2.25.28l.09,0,.29.12m-.29-.12c0,.3,0,.59-.08.87M68.69,44.06l0,.27.12,1.17c0,.13,0,.25,0,.38s.07.43.11.65.06.37.1.55c.12.64.27,1.28.43,1.92l0,.1c0,.21.11.43.18.65a2.46,2.46,0,0,0,.39.75,10.08,10.08,0,0,0,2.16,2,2.83,2.83,0,0,0,.28.2M68.23,44l.18.12h.18a.18.18,0,0,0,.1,0m.2,1.82a1.72,1.72,0,0,0-.83-.22,1.26,1.26,0,0,0-1.2.7,2.25,2.25,0,0,0-.24,1.07,1.71,1.71,0,0,0,.79,1.37,2.92,2.92,0,0,0,1,.49,1.86,1.86,0,0,0,.52.07.87.87,0,0,0,.64-.36m-.43-1.92a1.43,1.43,0,0,0-.46-.07h-.15c0,.21,0,.39,0,.55l0,.23m0-.78c-.32,0-.52.15-.59.38a1.83,1.83,0,0,0,0,.66m17.28-1.27a1.41,1.41,0,0,1,.58-.13h.14q.49,0,.6.39a1.79,1.79,0,0,1,0,.65m-1.25-2a1.71,1.71,0,0,1,1-.36,1.27,1.27,0,0,1,1.2.69,2.25,2.25,0,0,1,.24,1.07A1.71,1.71,0,0,1,87,48.45a2.42,2.42,0,0,1-1.48.56.75.75,0,0,1-.57-.25,7.18,7.18,0,0,1-.17,1,2.4,2.4,0,0,1-.38.75,8.67,8.67,0,0,1-.61.7,13.12,13.12,0,0,1-1.29,1.13m2.85-7.2c0,.19,0,.37,0,.55,0,.4-.08.77-.11,1.11-.09.79-.16,1.43-.23,1.92a.07.07,0,0,1,0,0m1-2.09c0,.21,0,.39,0,.55l0,.23"/><g id="Layer0_17_MEMBER_1_FILL" data-name="Layer0 17 MEMBER 1 FILL"><path class="cls-25" d="M90.42,36.13c.23,0,.35-.12.35-.37s-.11-.4-.34-.41-.33.14-.33.41.11.37.32.37m-.26-.89c.26,0,.39-.11.39-.34s-.18-.34-.52-.44-.52,0-.52.34a.42.42,0,0,0,.11.25.7.7,0,0,0,.54.19M63.63,37.06a.32.32,0,0,0,.12-.25c0-.23-.13-.37-.39-.43s-.41.08-.41.38a.35.35,0,0,0,.39.4.48.48,0,0,0,.29-.1m.62-.77a.44.44,0,0,0,.07-.21.45.45,0,0,0-.4-.48c-.27-.06-.4.07-.4.38a1.75,1.75,0,0,0,0,.25.37.37,0,0,0,.39.22.32.32,0,0,0,.29-.16m1-3.22.06.25a.41.41,0,0,0,.4.24.34.34,0,0,0,.28-.14.35.35,0,0,0,.07-.21.46.46,0,0,0-.4-.52c-.28-.06-.41.07-.41.38m1.84-1.79a.42.42,0,0,0,.1-.25c0-.23-.13-.35-.37-.37a.32.32,0,0,0-.39.36s0,.07,0,.2a.35.35,0,0,0,.32.18.38.38,0,0,0,.29-.12m19.56-.4c.24,0,.36-.15.36-.47s-.12-.5-.35-.5-.36.17-.36.5a.73.73,0,0,0,0,.25.3.3,0,0,0,.32.22m-1.39-1.6,0,.21a.37.37,0,0,0,.37.2c.39,0,.59-.18.59-.53a.53.53,0,0,0-.49-.56c-.33-.07-.5.15-.5.68M81.53,27c.23,0,.35-.16.35-.48s-.12-.45-.35-.45-.36.16-.36.48.12.45.36.45m-1-.22c.24,0,.36-.15.36-.46s-.12-.46-.35-.45-.36.16-.36.47c0,0,0,.08,0,.23a.3.3,0,0,0,.32.21m-.88-.07a.45.45,0,0,0,.15-.32c0-.38-.24-.53-.73-.46s-.73.24-.73.49c0,0,0,.07,0,.19a.37.37,0,0,0,.36.17,2.14,2.14,0,0,1,.49.1.54.54,0,0,0,.42-.17M72,27.81c.29,0,.44-.12.44-.36s-.15-.34-.44-.38-.45.07-.45.37.15.37.45.37m-.84.38c.23,0,.34-.14.34-.43s-.11-.43-.34-.43-.36.14-.36.43c0,0,0,.08,0,.22a.32.32,0,0,0,.34.21M70.74,28c-.16-.51-.32-.77-.49-.77a.61.61,0,0,0-.58.31.76.76,0,0,0-.1.39.44.44,0,0,0,.07.29.69.69,0,0,0,.51.14,1.11,1.11,0,0,0,.44-.06A.3.3,0,0,0,70.74,28Z"/></g><path class="cls-20" d="M74,49.39a4.17,4.17,0,0,0,3.51,2.32A3.94,3.94,0,0,0,81,49.53a31.1,31.1,0,0,1-3.5.36A14,14,0,0,1,74,49.39Z"/><path d="M76,45a3.79,3.79,0,0,1-1.94.63,3.36,3.36,0,0,1-2-.54,3.78,3.78,0,0,0,2,.44A4.31,4.31,0,0,0,76,45Z"/><path d="M78.17,45a4.41,4.41,0,0,0,2,.37,3.89,3.89,0,0,0,1.92-.59,3.4,3.4,0,0,1-1.92.69A3.83,3.83,0,0,1,78.17,45Z"/></g></g></svg>