<svg id="Capa_1" data-name="Capa 1" xmlns="http://www.w3.org/2000/svg" xmlns:xlink="http://www.w3.org/1999/xlink" viewBox="0 0 300 300"><defs><style>.cls-1{fill:#fb451e;}.cls-2{fill:#fff;}.cls-3{fill:url(#radial-gradient);}.cls-4{fill:url(#radial-gradient-2);}.cls-5{fill:url(#radial-gradient-3);}.cls-10,.cls-11,.cls-12,.cls-13,.cls-14,.cls-15,.cls-16,.cls-17,.cls-18,.cls-19,.cls-20,.cls-22,.cls-23,.cls-24,.cls-25,.cls-26,.cls-27,.cls-28,.cls-29,.cls-30,.cls-31,.cls-32,.cls-33,.cls-34,.cls-35,.cls-36,.cls-37,.cls-6,.cls-7,.cls-8,.cls-9{stroke:#fa0;stroke-miterlimit:10;stroke-width:0.75px;}.cls-6{fill:url(#Degradado_sin_nombre_5);}.cls-7{fill:url(#Degradado_sin_nombre_5-2);}.cls-8{fill:url(#Degradado_sin_nombre_5-3);}.cls-9{fill:url(#Degradado_sin_nombre_5-4);}.cls-10{fill:url(#Degradado_sin_nombre_5-5);}.cls-11{fill:url(#Degradado_sin_nombre_5-6);}.cls-12{fill:url(#Degradado_sin_nombre_5-7);}.cls-13{fill:url(#Degradado_sin_nombre_5-8);}.cls-14{fill:url(#Degradado_sin_nombre_5-9);}.cls-15{fill:url(#Degradado_sin_nombre_5-10);}.cls-16{fill:url(#Degradado_sin_nombre_5-11);}.cls-17{fill:url(#Degradado_sin_nombre_5-12);}.cls-18{fill:url(#Degradado_sin_nombre_5-13);}.cls-19{fill:url(#Degradado_sin_nombre_5-14);}.cls-20{fill:url(#Degradado_sin_nombre_5-15);}.cls-21{fill:url(#radial-gradient-4);}.cls-22{fill:url(#Degradado_sin_nombre_5-16);}.cls-23{fill:url(#Degradado_sin_nombre_5-17);}.cls-24{fill:url(#Degradado_sin_nombre_5-18);}.cls-25{fill:url(#Degradado_sin_nombre_5-19);}.cls-26{fill:url(#Degradado_sin_nombre_5-20);}.cls-27{fill:url(#Degradado_sin_nombre_5-21);}.cls-28{fill:url(#Degradado_sin_nombre_5-22);}.cls-29{fill:url(#Degradado_sin_nombre_5-23);}.cls-30{fill:url(#Degradado_sin_nombre_5-24);}.cls-31{fill:url(#Degradado_sin_nombre_5-25);}.cls-32{fill:url(#Degradado_sin_nombre_5-26);}.cls-33{fill:url(#Degradado_sin_nombre_5-27);}.cls-34{fill:url(#Degradado_sin_nombre_5-28);}.cls-35{fill:url(#Degradado_sin_nombre_5-29);}.cls-36{fill:url(#Degradado_sin_nombre_5-30);}.cls-37{fill:url(#Degradado_sin_nombre_5-31);}.cls-38{fill:#9d9d9d;}.cls-39{fill:#93d3f6;}</style><radialGradient id="radial-gradient" cx="333.13" cy="1167.36" fx="315.9698097531508" r="31.34" gradientTransform="translate(-311.56 107.97) scale(1.23 0.13)" gradientUnits="userSpaceOnUse"><stop offset="0" stop-color="#c5c8cb"/><stop offset="0.41" stop-color="#dee0e2"/><stop offset="1" stop-color="#fff"/></radialGradient><radialGradient id="radial-gradient-2" cx="329.47" cy="167.94" fx="312.3161007658472" r="31.34" xlink:href="#radial-gradient"/><radialGradient id="radial-gradient-3" cx="426.77" cy="172" fx="409.6141565366834" r="31.34" xlink:href="#radial-gradient"/><radialGradient id="Degradado_sin_nombre_5" cx="95.11" cy="212.73" r="5.34" gradientUnits="userSpaceOnUse"><stop offset="0" stop-color="#fff"/><stop offset="1" stop-color="#fcee21"/></radialGradient><radialGradient id="Degradado_sin_nombre_5-2" cx="87.28" cy="216.25" r="5.43" xlink:href="#Degradado_sin_nombre_5"/><radialGradient id="Degradado_sin_nombre_5-3" cx="78.92" cy="223.62" r="5.48" xlink:href="#Degradado_sin_nombre_5"/><radialGradient id="Degradado_sin_nombre_5-4" cx="73.33" cy="231.7" r="5.51" xlink:href="#Degradado_sin_nombre_5"/><radialGradient id="Degradado_sin_nombre_5-5" cx="73.33" cy="239.73" r="5.51" xlink:href="#Degradado_sin_nombre_5"/><radialGradient id="Degradado_sin_nombre_5-6" cx="78.61" cy="248.28" r="5.48" xlink:href="#Degradado_sin_nombre_5"/><radialGradient id="Degradado_sin_nombre_5-7" cx="87.21" cy="255.74" r="5.43" xlink:href="#Degradado_sin_nombre_5"/><radialGradient id="Degradado_sin_nombre_5-8" cx="95.28" cy="259.23" r="5.34" xlink:href="#Degradado_sin_nombre_5"/><radialGradient id="Degradado_sin_nombre_5-9" cx="103.32" cy="255.59" r="5.43" xlink:href="#Degradado_sin_nombre_5"/><radialGradient id="Degradado_sin_nombre_5-10" cx="111.82" cy="248.01" r="5.48" xlink:href="#Degradado_sin_nombre_5"/><radialGradient id="Degradado_sin_nombre_5-11" cx="117.43" cy="239.68" r="5.51" xlink:href="#Degradado_sin_nombre_5"/><radialGradient id="Degradado_sin_nombre_5-12" cx="117.36" cy="231.42" r="5.51" xlink:href="#Degradado_sin_nombre_5"/><radialGradient id="Degradado_sin_nombre_5-13" cx="111.61" cy="223.16" r="5.48" xlink:href="#Degradado_sin_nombre_5"/><radialGradient id="Degradado_sin_nombre_5-14" cx="103.01" cy="215.7" r="5.43" xlink:href="#Degradado_sin_nombre_5"/><radialGradient id="Degradado_sin_nombre_5-15" cx="95.11" cy="235.72" r="19.56" xlink:href="#Degradado_sin_nombre_5"/><radialGradient id="radial-gradient-4" cx="427.01" cy="1167.36" fx="409.85708758685894" r="31.34" xlink:href="#radial-gradient"/><radialGradient id="Degradado_sin_nombre_5-16" cx="210.74" cy="212.73" r="5.34" xlink:href="#Degradado_sin_nombre_5"/><radialGradient id="Degradado_sin_nombre_5-17" cx="202.91" cy="216.25" r="5.43" xlink:href="#Degradado_sin_nombre_5"/><radialGradient id="Degradado_sin_nombre_5-18" cx="194.55" cy="223.62" r="5.48" xlink:href="#Degradado_sin_nombre_5"/><radialGradient id="Degradado_sin_nombre_5-19" cx="188.97" cy="231.7" r="5.51" xlink:href="#Degradado_sin_nombre_5"/><radialGradient id="Degradado_sin_nombre_5-20" cx="188.96" cy="239.73" r="5.51" xlink:href="#Degradado_sin_nombre_5"/><radialGradient id="Degradado_sin_nombre_5-21" cx="194.25" cy="248.28" r="5.48" xlink:href="#Degradado_sin_nombre_5"/><radialGradient id="Degradado_sin_nombre_5-22" cx="202.84" cy="255.74" r="5.43" xlink:href="#Degradado_sin_nombre_5"/><radialGradient id="Degradado_sin_nombre_5-23" cx="210.92" cy="259.23" r="5.34" xlink:href="#Degradado_sin_nombre_5"/><radialGradient id="Degradado_sin_nombre_5-24" cx="218.95" cy="255.59" r="5.43" xlink:href="#Degradado_sin_nombre_5"/><radialGradient id="Degradado_sin_nombre_5-25" cx="227.45" cy="248.01" r="5.48" xlink:href="#Degradado_sin_nombre_5"/><radialGradient id="Degradado_sin_nombre_5-26" cx="233.06" cy="239.68" r="5.51" xlink:href="#Degradado_sin_nombre_5"/><radialGradient id="Degradado_sin_nombre_5-27" cx="232.99" cy="231.42" r="5.51" xlink:href="#Degradado_sin_nombre_5"/><radialGradient id="Degradado_sin_nombre_5-28" cx="227.24" cy="223.16" r="5.48" xlink:href="#Degradado_sin_nombre_5"/><radialGradient id="Degradado_sin_nombre_5-29" cx="218.64" cy="215.7" r="5.43" xlink:href="#Degradado_sin_nombre_5"/><radialGradient id="Degradado_sin_nombre_5-30" cx="210.74" cy="235.72" r="19.56" xlink:href="#Degradado_sin_nombre_5"/><radialGradient id="Degradado_sin_nombre_5-31" cx="94.49" cy="111.2" r="14.3" xlink:href="#Degradado_sin_nombre_5"/></defs><title>Mesa de trabajo 5</title><rect class="cls-1" x="39.98" y="26.88" width="108.09" height="40.75" rx="6.38" ry="6.38"/><path d="M140.85,28.88a5.22,5.22,0,0,1,5.21,5.22v98.58a5.22,5.22,0,0,1-5.21,5.21H47.19A5.22,5.22,0,0,1,42,132.68V34.1a5.22,5.22,0,0,1,5.21-5.22h93.66m0-2H47.19A7.23,7.23,0,0,0,40,34.1v98.58a7.23,7.23,0,0,0,7.21,7.21h93.66a7.23,7.23,0,0,0,7.21-7.21V34.1a7.24,7.24,0,0,0-7.21-7.22Z"/><rect x="61.98" y="13.5" width="7.39" height="26.76" rx="3.7" ry="3.7"/><rect x="118.66" y="13.5" width="7.39" height="26.76" rx="3.7" ry="3.7"/><path d="M65.5,31.14a5.07,5.07,0,1,1-5.07,5.07,5.07,5.07,0,0,1,5.07-5.07m0-1a6.07,6.07,0,1,0,6.07,6.07,6.07,6.07,0,0,0-6.07-6.07Z"/><path d="M122.54,31.14a5.07,5.07,0,1,1-5.08,5.07,5.08,5.08,0,0,1,5.08-5.07m0-1a6.07,6.07,0,1,0,6.07,6.07,6.07,6.07,0,0,0-6.07-6.07Z"/><path class="cls-2" d="M80.72,51.61c-.11-2-.24-4.37-.22-6.15h-.06c-.48,1.67-1.08,3.45-1.79,5.41l-2.52,6.91H74.74L72.44,51c-.68-2-1.25-3.85-1.65-5.54h0c0,1.78-.15,4.17-.28,6.3l-.38,6.1H68.34l1-14.23h2.35l2.43,6.88c.59,1.75,1.07,3.32,1.43,4.8h.07c.35-1.44.86-3,1.49-4.8l2.54-6.88H82l.89,14.23H81.08Z"/><path class="cls-2" d="M91.43,57.86l-.15-1.29h-.06a3.79,3.79,0,0,1-3.13,1.52A2.9,2.9,0,0,1,85,55.16c0-2.47,2.19-3.82,6.14-3.8v-.21a2.11,2.11,0,0,0-2.32-2.37,5.14,5.14,0,0,0-2.66.76l-.42-1.22a6.29,6.29,0,0,1,3.35-.91c3.13,0,3.89,2.13,3.89,4.18v3.82a14.06,14.06,0,0,0,.17,2.45Zm-.28-5.21c-2,0-4.33.31-4.33,2.3a1.65,1.65,0,0,0,1.76,1.77A2.54,2.54,0,0,0,91.05,55a2,2,0,0,0,.1-.59Z"/><path class="cls-2" d="M96,50.83c0-1.2,0-2.24-.08-3.19h1.62l.07,2h.08a3.05,3.05,0,0,1,2.83-2.24,2.15,2.15,0,0,1,.53.06v1.75a3,3,0,0,0-.64-.06,2.61,2.61,0,0,0-2.49,2.39,5.47,5.47,0,0,0-.08.86v5.45H96Z"/><path class="cls-2" d="M101.89,56.78l4.62-6c.45-.55.87-1,1.33-1.59v0h-5.53v-1.5h7.79l0,1.16-4.56,5.94c-.42.57-.85,1.07-1.31,1.6v0h6v1.48h-8.3Z"/><path class="cls-2" d="M121.19,52.67c0,3.78-2.62,5.42-5.09,5.42-2.76,0-4.9-2-4.9-5.26,0-3.42,2.24-5.42,5.07-5.42S121.19,49.54,121.19,52.67Zm-8.11.1c0,2.24,1.29,3.93,3.11,3.93s3.1-1.67,3.1-4c0-1.73-.87-3.93-3.06-3.93S113.08,50.83,113.08,52.77Z"/><rect class="cls-1" x="158.27" y="26.88" width="108.09" height="40.75" rx="6.38" ry="6.38"/><path d="M259.14,28.88a5.22,5.22,0,0,1,5.22,5.22v98.58a5.22,5.22,0,0,1-5.22,5.21H165.49a5.22,5.22,0,0,1-5.22-5.21V34.1a5.22,5.22,0,0,1,5.22-5.22h93.65m0-2H165.49a7.24,7.24,0,0,0-7.22,7.22v98.58a7.23,7.23,0,0,0,7.22,7.21h93.65a7.23,7.23,0,0,0,7.22-7.21V34.1a7.24,7.24,0,0,0-7.22-7.22Z"/><rect x="180.28" y="13.5" width="7.39" height="26.76" rx="3.7" ry="3.7"/><rect x="236.96" y="13.5" width="7.39" height="26.76" rx="3.7" ry="3.7"/><path d="M183.8,31.14a5.07,5.07,0,1,1-5.07,5.07,5.07,5.07,0,0,1,5.07-5.07m0-1a6.07,6.07,0,1,0,6.07,6.07,6.06,6.06,0,0,0-6.07-6.07Z"/><path d="M240.83,31.14a5.07,5.07,0,1,1-5.07,5.07,5.08,5.08,0,0,1,5.07-5.07m0-1a6.07,6.07,0,1,0,6.08,6.07,6.07,6.07,0,0,0-6.08-6.07Z"/><path class="cls-2" d="M194.32,53.38l-1.48,4.48h-1.9l4.84-14.23H198l4.85,14.23h-2l-1.52-4.48ZM199,52l-1.4-4.1c-.31-.93-.52-1.77-.73-2.6h-.05c-.21.85-.44,1.71-.72,2.58L194.7,52Z"/><path class="cls-2" d="M204.74,57.86c0-.7.08-1.73.08-2.64V42.87h1.84v6.42h0a3.81,3.81,0,0,1,3.48-1.88c2.54,0,4.33,2.11,4.31,5.21,0,3.66-2.3,5.47-4.58,5.47a3.64,3.64,0,0,1-3.42-1.92h-.06l-.09,1.69Zm1.92-4.1a3.62,3.62,0,0,0,.08.68,2.87,2.87,0,0,0,2.79,2.18c1.94,0,3.1-1.59,3.1-3.93,0-2-1-3.8-3-3.8a3,3,0,0,0-2.83,2.28,3.79,3.79,0,0,0-.1.76Z"/><path class="cls-2" d="M216.84,50.83c0-1.2,0-2.24-.08-3.19h1.62l.07,2h.08a3.05,3.05,0,0,1,2.83-2.24,2.15,2.15,0,0,1,.53.06v1.75a3,3,0,0,0-.64-.06,2.62,2.62,0,0,0-2.49,2.39,5.47,5.47,0,0,0-.08.86v5.45h-1.84Z"/><path class="cls-2" d="M225.9,44.77a1.15,1.15,0,0,1-2.3,0,1.13,1.13,0,0,1,1.16-1.16A1.1,1.1,0,0,1,225.9,44.77Zm-2.07,13.09V47.64h1.86V57.86Z"/><path class="cls-2" d="M228.78,42.87h1.85v15h-1.85Z"/><rect class="cls-1" x="39.98" y="163.48" width="108.09" height="40.75" rx="6.38" ry="6.38"/><path d="M140.85,165.48a5.22,5.22,0,0,1,5.21,5.22v98.58a5.22,5.22,0,0,1-5.21,5.22H47.19A5.22,5.22,0,0,1,42,269.28V170.7a5.22,5.22,0,0,1,5.21-5.22h93.66m0-2H47.19A7.23,7.23,0,0,0,40,170.7v98.58a7.23,7.23,0,0,0,7.21,7.22h93.66a7.24,7.24,0,0,0,7.21-7.22V170.7a7.24,7.24,0,0,0-7.21-7.22Z"/><rect x="61.98" y="150.11" width="7.39" height="26.76" rx="3.7" ry="3.7"/><rect x="118.66" y="150.11" width="7.39" height="26.76" rx="3.7" ry="3.7"/><path d="M65.5,167.74a5.08,5.08,0,1,1-5.07,5.07,5.08,5.08,0,0,1,5.07-5.07m0-1a6.08,6.08,0,1,0,6.07,6.07,6.07,6.07,0,0,0-6.07-6.07Z"/><path d="M122.54,167.74a5.08,5.08,0,1,1-5.08,5.07,5.08,5.08,0,0,1,5.08-5.07m0-1a6.08,6.08,0,1,0,6.07,6.07,6.08,6.08,0,0,0-6.07-6.07Z"/><path class="cls-2" d="M82.72,188.21c-.11-2-.24-4.37-.22-6.14h-.06c-.48,1.67-1.08,3.44-1.79,5.41l-2.52,6.9H76.74l-2.3-6.78c-.68-2-1.25-3.84-1.65-5.53h0c0,1.77-.15,4.16-.28,6.29l-.38,6.11H70.34l1-14.24h2.35l2.43,6.89c.59,1.75,1.07,3.31,1.43,4.79h.07c.35-1.44.86-3,1.49-4.79l2.54-6.89H84l.89,14.24H83.08Z"/><path class="cls-2" d="M93.43,194.47l-.15-1.29h-.06a3.82,3.82,0,0,1-3.13,1.52A2.91,2.91,0,0,1,87,191.76c0-2.47,2.19-3.82,6.14-3.8v-.21a2.11,2.11,0,0,0-2.32-2.37,5.05,5.05,0,0,0-2.66.77l-.42-1.23a6.29,6.29,0,0,1,3.35-.91c3.13,0,3.89,2.14,3.89,4.18V192a14.13,14.13,0,0,0,.17,2.45Zm-.28-5.22c-2,0-4.33.32-4.33,2.3a1.66,1.66,0,0,0,1.76,1.78,2.55,2.55,0,0,0,2.47-1.71,2.15,2.15,0,0,0,.1-.6Z"/><path class="cls-2" d="M98.46,184.24l2.24,6c.23.68.48,1.48.65,2.1h0c.19-.62.4-1.4.66-2.14l2-6h2l-2.79,7.29c-1.33,3.51-2.24,5.3-3.5,6.4a5,5,0,0,1-2.29,1.2L97,197.57a4.93,4.93,0,0,0,1.63-.91,5.67,5.67,0,0,0,1.56-2.07,1.5,1.5,0,0,0,.15-.44,1.87,1.87,0,0,0-.13-.49l-3.78-9.42Z"/><path class="cls-2" d="M116.77,189.27c0,3.78-2.62,5.43-5.09,5.43-2.77,0-4.9-2-4.9-5.26,0-3.42,2.24-5.43,5.07-5.43S116.77,186.15,116.77,189.27Zm-8.11.11c0,2.24,1.29,3.92,3.1,3.92s3.11-1.66,3.11-4c0-1.73-.87-3.92-3.06-3.92S108.66,187.43,108.66,189.38Z"/><rect class="cls-1" x="158.27" y="163.48" width="108.09" height="40.75" rx="6.38" ry="6.38"/><path d="M259.14,165.48a5.22,5.22,0,0,1,5.22,5.22v98.58a5.22,5.22,0,0,1-5.22,5.22H165.49a5.22,5.22,0,0,1-5.22-5.22V170.7a5.22,5.22,0,0,1,5.22-5.22h93.65m0-2H165.49a7.24,7.24,0,0,0-7.22,7.22v98.58a7.24,7.24,0,0,0,7.22,7.22h93.65a7.24,7.24,0,0,0,7.22-7.22V170.7a7.24,7.24,0,0,0-7.22-7.22Z"/><rect x="180.28" y="150.11" width="7.39" height="26.76" rx="3.7" ry="3.7"/><rect x="236.96" y="150.11" width="7.39" height="26.76" rx="3.7" ry="3.7"/><path d="M183.8,167.74a5.08,5.08,0,1,1-5.07,5.07,5.08,5.08,0,0,1,5.07-5.07m0-1a6.08,6.08,0,1,0,6.07,6.07,6.07,6.07,0,0,0-6.07-6.07Z"/><path d="M240.83,167.74a5.08,5.08,0,1,1-5.07,5.07,5.09,5.09,0,0,1,5.07-5.07m0-1a6.08,6.08,0,1,0,6.08,6.07,6.07,6.07,0,0,0-6.08-6.07Z"/><path class="cls-2" d="M191.93,180.23h1.84v9.53c0,3.78-1.86,4.94-4.31,4.94a5.93,5.93,0,0,1-2-.34l.27-1.5a4.32,4.32,0,0,0,1.54.28c1.65,0,2.62-.74,2.62-3.53Z"/><path class="cls-2" d="M205.33,191.68c0,1,0,2,.08,2.79h-1.65l-.1-1.67h0a3.84,3.84,0,0,1-3.37,1.9c-1.61,0-3.53-.89-3.53-4.48v-6h1.86v5.66c0,1.95.59,3.26,2.28,3.26a2.7,2.7,0,0,0,2.45-1.69,2.91,2.91,0,0,0,.17-.95v-6.28h1.86Z"/><path class="cls-2" d="M208.41,187c0-1,0-1.92-.08-2.77H210l.11,1.69h0A3.77,3.77,0,0,1,213.5,184c1.42,0,3.61.85,3.61,4.35v6.11h-1.86v-5.9c0-1.64-.61-3-2.36-3a2.63,2.63,0,0,0-2.49,1.91,2.47,2.47,0,0,0-.13.86v6.15h-1.86Z"/><path class="cls-2" d="M222.21,181.37a1.16,1.16,0,0,1-2.31,0,1.14,1.14,0,0,1,1.16-1.16A1.11,1.11,0,0,1,222.21,181.37Zm-2.07,13.1V184.24H222v10.23Z"/><path class="cls-2" d="M234.33,189.27c0,3.78-2.62,5.43-5.09,5.43-2.77,0-4.9-2-4.9-5.26,0-3.42,2.24-5.43,5.07-5.43S234.33,186.15,234.33,189.27Zm-8.11.11c0,2.24,1.29,3.92,3.1,3.92s3.11-1.66,3.11-4c0-1.73-.87-3.92-3.06-3.92S226.22,187.43,226.22,189.38Z"/><path class="cls-3" d="M137.12,264.69c0,2.32-17.28,4.21-38.6,4.21s-38.6-1.89-38.6-4.21,17.28-4.22,38.6-4.22S137.12,262.36,137.12,264.69Z"/><path class="cls-4" d="M132.62,130.26c0,2.33-17.28,4.22-38.6,4.22s-38.6-1.89-38.6-4.22,17.28-4.21,38.6-4.21S132.62,127.94,132.62,130.26Z"/><path class="cls-5" d="M252.45,130.81c0,2.33-17.28,4.22-38.6,4.22s-38.6-1.89-38.6-4.22,17.28-4.21,38.6-4.21S252.45,128.48,252.45,130.81Z"/><polygon class="cls-6" points="95.11 207.79 100.82 217.68 89.4 217.68 95.11 207.79"/><polygon class="cls-7" points="82.99 210.55 92.42 216.99 82.14 221.94 82.99 210.55"/><polygon class="cls-8" points="73.27 218.3 84.56 220 77.44 228.93 73.27 218.3"/><polygon class="cls-9" points="67.88 229.5 78.79 226.13 76.25 237.27 67.88 229.5"/><polygon class="cls-10" points="67.88 241.93 76.25 234.16 78.79 245.29 67.88 241.93"/><polygon class="cls-11" points="72.97 253.6 77.14 242.97 84.26 251.9 72.97 253.6"/><polygon class="cls-12" points="82.92 261.43 82.07 250.04 92.36 255 82.92 261.43"/><polygon class="cls-13" points="95.28 264.17 89.57 254.28 101 254.29 95.28 264.17"/><polygon class="cls-14" points="107.61 261.28 98.18 254.84 108.47 249.89 107.61 261.28"/><polygon class="cls-15" points="117.46 253.33 106.17 251.62 113.3 242.69 117.46 253.33"/><polygon class="cls-16" points="122.89 241.88 111.97 245.25 114.52 234.11 122.89 241.88"/><polygon class="cls-17" points="122.81 229.22 114.44 236.98 111.9 225.85 122.81 229.22"/><polygon class="cls-18" points="117.25 217.84 113.07 228.47 105.96 219.54 117.25 217.84"/><polygon class="cls-19" points="107.31 210.01 108.15 221.4 97.87 216.43 107.31 210.01"/><circle class="cls-20" cx="95.11" cy="235.72" r="19.56"/><path class="cls-21" d="M252.75,264.69c0,2.32-17.28,4.21-38.6,4.21s-38.6-1.89-38.6-4.21,17.28-4.22,38.6-4.22S252.75,262.36,252.75,264.69Z"/><polygon class="cls-22" points="210.74 207.79 216.45 217.68 205.03 217.68 210.74 207.79"/><polygon class="cls-23" points="198.62 210.55 208.06 216.99 197.77 221.94 198.62 210.55"/><polygon class="cls-24" points="188.9 218.3 200.19 220 193.07 228.93 188.9 218.3"/><polygon class="cls-25" points="183.51 229.5 194.42 226.13 191.88 237.27 183.51 229.5"/><polygon class="cls-26" points="183.51 241.93 191.88 234.16 194.42 245.29 183.51 241.93"/><polygon class="cls-27" points="188.6 253.6 192.78 242.97 199.89 251.9 188.6 253.6"/><polygon class="cls-28" points="198.55 261.43 197.7 250.04 207.99 255 198.55 261.43"/><polygon class="cls-29" points="210.91 264.17 205.21 254.28 216.63 254.29 210.91 264.17"/><polygon class="cls-30" points="223.24 261.28 213.81 254.84 224.1 249.89 223.24 261.28"/><polygon class="cls-31" points="233.09 253.33 221.8 251.62 228.93 242.69 233.09 253.33"/><polygon class="cls-32" points="238.52 241.88 227.6 245.25 230.15 234.11 238.52 241.88"/><polygon class="cls-33" points="238.45 229.22 230.07 236.98 227.53 225.85 238.45 229.22"/><polygon class="cls-34" points="232.89 217.84 228.71 228.47 221.59 219.54 232.89 217.84"/><polygon class="cls-35" points="222.94 210.01 223.78 221.4 213.5 216.43 222.94 210.01"/><circle class="cls-36" cx="210.74" cy="235.72" r="19.56"/><polygon class="cls-37" points="89.7 95.86 83.94 113.12 91.61 113.12 85.86 128.46 105.03 105.45 97.36 105.45 103.12 93.94 89.7 95.86"/><path class="cls-2" d="M91.61,102.67a15.59,15.59,0,0,1-9.14-3l-.75-.53-.82.42a9.84,9.84,0,0,1-4.62,1.14,10,10,0,0,1-.1-20h.92l.41-.82a15.74,15.74,0,0,1,29.09,2.15l.46,1.4,1.4-.42a8.15,8.15,0,0,1,2.33-.39,8,8,0,0,1,7.48,5l.49,1.22L120,88.6a5.1,5.1,0,0,1,1.3-.19,5.21,5.21,0,0,1,0,10.42,5.16,5.16,0,0,1-3.7-1.54l-.92-.93-1,.8a8,8,0,0,1-4.87,1.67A7.94,7.94,0,0,1,105.68,97L104.54,96l-1,1.12A15.73,15.73,0,0,1,91.61,102.67Z"/><path class="cls-38" d="M91.61,72.66a14.22,14.22,0,0,1,13.57,9.87l.9,2.8,2.82-.85a6.49,6.49,0,0,1,1.89-.32,6.56,6.56,0,0,1,6.09,4.12l1,2.43,2.54-.66a4,4,0,0,1,.92-.14,3.71,3.71,0,1,1-2.63,6.33l-1.86-1.87L114.75,96a6.41,6.41,0,0,1-8.12-.16l-2.27-1.87-1.92,2.24a14.19,14.19,0,0,1-19.1,2.33l-1.5-1.07-1.64.85a8.27,8.27,0,0,1-3.92,1,8.5,8.5,0,0,1-.08-17l1.84,0,.82-1.64a14.18,14.18,0,0,1,12.75-7.93m0-3a17.23,17.23,0,0,0-15.44,9.59,11.5,11.5,0,0,0,.11,23,11.31,11.31,0,0,0,5.31-1.31,17.2,17.2,0,0,0,23.13-2.82,9.43,9.43,0,0,0,11.85.23,6.71,6.71,0,1,0,4.76-11.44,6.6,6.6,0,0,0-1.67.24,9.57,9.57,0,0,0-8.87-6,9.66,9.66,0,0,0-2.76.45,17.26,17.26,0,0,0-16.42-12Z"/><path class="cls-39" d="M216.32,105.38a8.93,8.93,0,0,1-1.77-2.92,14.76,14.76,0,0,1-1.76,2.92,2.77,2.77,0,0,0-.75,1.79,2.52,2.52,0,1,0,4.28-1.79Z"/><path class="cls-39" d="M216.32,116.11a8.83,8.83,0,0,1-1.77-2.92,14.47,14.47,0,0,1-1.76,2.92,2.79,2.79,0,0,0-.75,1.79,2.52,2.52,0,1,0,4.28-1.79Z"/><path class="cls-39" d="M216.32,127.47a8.83,8.83,0,0,1-1.77-2.92,14.47,14.47,0,0,1-1.76,2.92,2.79,2.79,0,0,0-.75,1.79,2.52,2.52,0,1,0,4.28-1.79Z"/><path class="cls-39" d="M225,101.38a8.93,8.93,0,0,1-1.77-2.92,14.76,14.76,0,0,1-1.76,2.92,2.79,2.79,0,0,0-.75,1.79,2.52,2.52,0,0,0,5,0A2.57,2.57,0,0,0,225,101.38Z"/><path class="cls-39" d="M225,112.11a8.83,8.83,0,0,1-1.77-2.92,14.47,14.47,0,0,1-1.76,2.92,2.79,2.79,0,0,0-.75,1.79,2.52,2.52,0,0,0,5,0A2.57,2.57,0,0,0,225,112.11Z"/><path class="cls-39" d="M225,123.47a8.83,8.83,0,0,1-1.77-2.92,14.47,14.47,0,0,1-1.76,2.92,2.79,2.79,0,0,0-.75,1.79,2.52,2.52,0,1,0,5,0A2.59,2.59,0,0,0,225,123.47Z"/><path class="cls-39" d="M234.63,102a8.83,8.83,0,0,1-1.77-2.92A14.47,14.47,0,0,1,231.1,102a2.79,2.79,0,0,0-.75,1.79,2.52,2.52,0,0,0,5,0A2.57,2.57,0,0,0,234.63,102Z"/><path class="cls-39" d="M234.63,112.74a8.83,8.83,0,0,1-1.77-2.92,14.47,14.47,0,0,1-1.76,2.92,2.79,2.79,0,0,0-.75,1.79,2.52,2.52,0,1,0,5,0A2.57,2.57,0,0,0,234.63,112.74Z"/><path class="cls-39" d="M197.38,103.27a8.83,8.83,0,0,1-1.77-2.92,14.47,14.47,0,0,1-1.76,2.92,2.79,2.79,0,0,0-.75,1.79,2.52,2.52,0,1,0,4.28-1.79Z"/><path class="cls-39" d="M197.38,114a8.83,8.83,0,0,1-1.77-2.92,14.47,14.47,0,0,1-1.76,2.92,2.79,2.79,0,0,0-.75,1.79,2.52,2.52,0,1,0,5,0A2.54,2.54,0,0,0,197.38,114Z"/><path class="cls-39" d="M207.27,107.37a8.93,8.93,0,0,1-1.77-2.93,14.7,14.7,0,0,1-1.76,2.93,2.74,2.74,0,0,0-.75,1.78,2.52,2.52,0,1,0,4.28-1.78Z"/><path class="cls-39" d="M207.42,118.66a8.83,8.83,0,0,1-1.77-2.92,14.47,14.47,0,0,1-1.76,2.92,2.79,2.79,0,0,0-.75,1.79,2.52,2.52,0,1,0,4.28-1.79Z"/><path class="cls-2" d="M209.29,100.71a14.78,14.78,0,0,1-8.66-2.79l-.75-.54-.81.43A9.44,9.44,0,1,1,194.62,80h.92l.4-.83a14.9,14.9,0,0,1,27.54,2l.45,1.4,1.41-.42a7.49,7.49,0,0,1,2.19-.37,7.58,7.58,0,0,1,7.05,4.76l.5,1.22,1.27-.33a4.79,4.79,0,0,1,1.21-.18,4.89,4.89,0,1,1,0,9.77,4.83,4.83,0,0,1-3.46-1.44l-.93-.94-1,.8a7.44,7.44,0,0,1-9.4-.19l-1.14-.93-1,1.12A14.9,14.9,0,0,1,209.29,100.71Z"/><path class="cls-38" d="M209.29,72.38a13.37,13.37,0,0,1,12.76,9.29l.91,2.8,2.82-.85a6.17,6.17,0,0,1,1.75-.3,6.08,6.08,0,0,1,5.66,3.83l1,2.43,2.54-.66a3.74,3.74,0,0,1,.84-.12,3.38,3.38,0,0,1,0,6.76,3.33,3.33,0,0,1-2.4-1l-1.85-1.87-2.1,1.6a6,6,0,0,1-7.54-.15l-2.27-1.88-1.92,2.24a13.35,13.35,0,0,1-18,2.2L200,95.63l-1.64.85a7.85,7.85,0,0,1-3.67.91,7.95,7.95,0,0,1-.07-15.89h1.84l.82-1.65a13.35,13.35,0,0,1,12-7.46m0-3A16.41,16.41,0,0,0,194.6,78.5a10.95,10.95,0,1,0,5.16,20.64,16.36,16.36,0,0,0,22-2.69,8.95,8.95,0,0,0,11.27.22,6.38,6.38,0,1,0,4.53-10.87A6.42,6.42,0,0,0,236,86a8.92,8.92,0,0,0-11.06-5.27,16.42,16.42,0,0,0-15.62-11.37Z"/></svg>