<svg xmlns="http://www.w3.org/2000/svg" xmlns:xlink="http://www.w3.org/1999/xlink" viewBox="0 0 150 150"><defs><style>.cls-1{fill:none;}.cls-2{isolation:isolate;}.cls-3,.cls-4{opacity:0.44;}.cls-4{fill:#bddb0b;}.cls-5{clip-path:url(#clip-path);}.cls-6{fill:#5d5d5d;opacity:0.08;}.cls-10,.cls-6{mix-blend-mode:multiply;}.cls-7{clip-path:url(#clip-path-2);}.cls-8{fill:#eed4be;}.cls-9{clip-path:url(#clip-path-3);}.cls-10{fill:#e3c3a8;opacity:0.16;}.cls-11{fill:#ff8b2c;}.cls-12{fill:#fff;}</style><clipPath id="clip-path"><ellipse class="cls-1" cx="247" cy="80.5" rx="73.5" ry="69"/></clipPath><clipPath id="clip-path-2"><rect class="cls-1" x="170.66" y="2" width="152.98" height="152.98"/></clipPath><clipPath id="clip-path-3"><path class="cls-1" d="M219.66,114.33a8,8,0,0,1,8.29,1.25,23.36,23.36,0,0,0,19.17,5.14c11.63-1.85,23.59,7,28.12,10.89a2.35,2.35,0,0,0,3.57-.64c1.85-3.27,3.63-9.43-4.27-15.08-11.44-8.18-23.33-6.89-21.33-17.37,2.25-11.82,22.91-14,22.91-14s9.88.59,14.43-.49c0,0,12.37,3.68,14.22-5.84,0,0,.41-2.05-2.71-2.32S285.58,75.39,282.5,74s-15.38,1.44-18.88,1.1-1.83-3.4,2.25-5.44,12.64-6.33,14.44-8.61c0,0,10.94-.59,13.88-3.39,0,0,15.12-.84,13.28-10.21a1.28,1.28,0,0,0-1.43-1c-4.08.54-18.11,2.31-23.69,1.7-6.55-.72-16.74,8.92-21.89,9.81s-4.22-2.42-4.22-2.42,8.09-7.86,10.18-12.77c0,0,7.47-.53,10.27-2.56,0,0,13.23-2.46,11.34-10.38,0,0-.71-2.08-5.36.21S265,31.74,261.28,34.12c-3.17,2.05-11.21,10.57-14.62,15.63a1,1,0,0,1-1.77-.38c-.6-3.37-1.47-9-.8-10.63,0,0,3.51-4.9,4.48-7.49,0,0,11-7.67,3.36-15.61,0,0-.84-1.59-6.33,5.92s-11.89,10.7-12.41,14.81S232,51.44,223.48,56.9,204.31,75.27,197.72,84c-6.27,8.33-41.27,22.12-59.91,25.91a5.09,5.09,0,0,0-3.82,3.38c-2.77,8.36-8.07,33,19.18,47.17a5.69,5.69,0,0,0,6.91-1.31C167.58,150.54,189.84,127,219.66,114.33Z"/></clipPath></defs><title>Mesa de trabajo 3</title><g class="cls-2"><g id="Capa_1" data-name="Capa 1"><g class="cls-3"><circle class="cls-4" cx="76" cy="76.68" r="58.71"/><path class="cls-4" d="M89.78,12.53c-8.15,5.62-9,7.07-26.29,29.62-8.1,10.59-21.83,1.72-35.16,3.76C-4.4,50.91,2.89,90.09,2.89,90.09s4,22.62,23.6,25.66,25.13-2,39.08,7.9,53.25-.68,62-6.81,33.07-20.52,16.7-48c-8-13.46,15-28.72-5.14-49.41C116.66-3.64,100,5.47,89.78,12.53Z"/><path class="cls-4" d="M86.64,17.5c-7.4,5.09-8.19,6.41-23.86,26.87C55.43,54,43,45.94,30.87,47.78,1.17,52.32,7.78,87.88,7.78,87.88s3.65,20.53,21.42,23.29,22.81-1.86,35.46,7.16,48.33-.61,56.28-6.17,30-18.63,15.15-43.56c-7.28-12.21,13.61-26.06-4.66-44.84C111,2.82,96,11.09,86.64,17.5Z"/></g><g class="cls-5"><path class="cls-6" d="M254,122a6.68,6.68,0,0,1,6.93,1,19.55,19.55,0,0,0,16,4.29c9.7-1.55,19.69,5.88,23.48,9.09a2,2,0,0,0,3-.54c1.55-2.72,3-7.87-3.57-12.59-9.55-6.83-19.48-5.75-17.81-14.5C283.93,98.88,301.18,97,301.18,97s8.25.49,12.05-.41c0,0,10.33,3.07,11.88-4.88,0,0,.33-1.71-2.27-1.94s-13.76-.36-16.33-1.52-12.84,1.21-15.76.93-1.54-2.85,1.87-4.55,10.55-5.28,12.06-7.19c0,0,9.14-.49,11.59-2.83,0,0,12.63-.7,11.09-8.53a1.08,1.08,0,0,0-1.2-.85c-3.4.45-15.12,1.93-19.77,1.42-5.48-.6-14,7.45-18.29,8.19s-3.52-2-3.52-2,6.75-6.56,8.5-10.66c0,0,6.24-.44,8.58-2.13,0,0,11-2.06,9.47-8.67,0,0-.6-1.75-4.48.17S291.88,53,288.79,55c-2.65,1.7-9.36,8.82-12.21,13.05a.82.82,0,0,1-1.48-.32c-.5-2.82-1.22-7.55-.66-8.88a41.3,41.3,0,0,0,3.74-6.25s9.15-6.4,2.8-13c0,0-.7-1.32-5.28,5s-9.93,8.93-10.37,12.36-1,12.58-8.11,17.14-16,15.35-21.5,22.66c-5.24,7-67.21,37.44-82.77,40.61a4.24,4.24,0,0,0-3.19,2.82c-2.31,7-6.74,27.51,16,39.38a4.74,4.74,0,0,0,5.77-1.09C177.81,171.16,229.13,132.53,254,122Z"/><g class="cls-7"><path class="cls-8" d="M219.66,114.33a8,8,0,0,1,8.29,1.25,23.36,23.36,0,0,0,19.17,5.14c11.63-1.85,23.59,7,28.12,10.89a2.35,2.35,0,0,0,3.57-.64c1.85-3.27,3.63-9.43-4.27-15.08-11.44-8.18-23.33-6.89-21.33-17.37,2.25-11.82,22.91-14,22.91-14s9.88.59,14.43-.49c0,0,12.37,3.68,14.22-5.84,0,0,.41-2.05-2.71-2.32S285.58,75.39,282.5,74s-15.38,1.44-18.88,1.1-1.83-3.4,2.25-5.44,12.64-6.33,14.44-8.61c0,0,10.94-.59,13.88-3.39,0,0,15.12-.84,13.28-10.21a1.28,1.28,0,0,0-1.43-1c-4.08.54-18.11,2.31-23.69,1.7-6.55-.72-16.74,8.92-21.89,9.81s-4.22-2.42-4.22-2.42,8.09-7.86,10.18-12.77c0,0,7.47-.53,10.27-2.56,0,0,13.23-2.46,11.34-10.38,0,0-.71-2.08-5.36.21S265,31.74,261.28,34.12c-3.17,2.05-11.21,10.57-14.62,15.63a1,1,0,0,1-1.77-.38c-.6-3.37-1.47-9-.8-10.63,0,0,3.51-4.9,4.48-7.49,0,0,11-7.67,3.36-15.61,0,0-.84-1.59-6.33,5.92s-11.89,10.7-12.41,14.81S232,51.44,223.48,56.9,204.31,75.27,197.72,84c-6.27,8.33-41.27,22.12-59.91,25.91a5.09,5.09,0,0,0-3.82,3.38c-2.77,8.36-8.07,33,19.18,47.17a5.69,5.69,0,0,0,6.91-1.31C167.58,150.54,189.84,127,219.66,114.33Z"/><g class="cls-9"><path class="cls-10" d="M131.26,141.08s15.2,21.18,31.9,8.22S203,108.44,221,109.19s13,6.73,27.66,6.48,29.4,21.17,31.64,2,12.21,21.68,12.21,21.68l-24.92,6L240.64,134.1,213,138.59l-21.68,11L173.87,163.5l-17.44,11L136.5,162.26Z"/></g></g></g><circle class="cls-11" cx="76.32" cy="77.06" r="52.04"/><path class="cls-12" d="M75.75,121.11c-3.62-.37-7.24-.66-10.83-1.14-2.25-.31-2.38-.66-2.11-2.93s.5-4.62.79-6.93a11.79,11.79,0,0,1,5.27-8.74,2.68,2.68,0,0,1,2.2-.16,11,11,0,0,0,9.66,0,2.63,2.63,0,0,1,2.19.19,11.83,11.83,0,0,1,5.27,8.75c.31,2.48.42,5,.87,7.46.31,1.63-.55,2.11-1.73,2.25-3.49.4-7,.68-10.48,1-.36,0-.72,0-1.08,0Z"/><path class="cls-12" d="M104.56,81c-3.62-.36-7.24-.6-10.83-1.11-2.54-.35-2.6-.65-2.28-3.13.29-2.3.5-4.62.8-6.93a11.7,11.7,0,0,1,5.25-8.55,2.62,2.62,0,0,1,2.19-.17,10.93,10.93,0,0,0,9.66,0,2.65,2.65,0,0,1,2.2.18,11.19,11.19,0,0,1,5,7.69c.43,2.59.74,5.19,1,7.8s.12,2.8-2.35,3.13C111.72,80.33,108.16,80.59,104.56,81Z"/><path class="cls-12" d="M49.59,81c-3.54-.42-7.37-.86-11.2-1.33-1.39-.17-1.87-.89-1.64-2.33.43-2.65.62-5.33,1-8a12,12,0,0,1,5-8.12A2,2,0,0,1,45.24,61a9.7,9.7,0,0,0,9.43,0,2,2,0,0,1,2.42.22,12,12,0,0,1,5,8c.39,2.53.64,5.08.95,7.62.29,2.35.16,2.69-2.27,3C57.18,80.33,53.56,80.59,49.59,81Z"/><path class="cls-12" d="M62.77,106.06a14,14,0,0,1-8,1.3c-7.35-.83-12.43-4.86-15.33-11.55C38.64,94,37.77,93.38,35.91,94a4.64,4.64,0,0,1-1.64-.1,5.36,5.36,0,0,1,.35-1.47q2.67-4.76,5.43-9.46c1.06-1.79,1.79-1.92,3.41-.62,2.74,2.19,5.48,4.41,8.18,6.65a4.86,4.86,0,0,1,.78,1.27c-.45.24-.88.52-1.34.71a4.9,4.9,0,0,1-.88.14c-3.41.67-3.79,1.43-2.08,4.55,2.74,5,7.31,7.5,12.53,9.09l2.13.68Z"/><path class="cls-12" d="M112.47,82.88a16,16,0,0,1,.84,2.13A18.19,18.19,0,0,1,103,106a12.72,12.72,0,0,1-1.31.58,1.82,1.82,0,0,0-1.38,2.59,8.38,8.38,0,0,1,0,2.19,11.25,11.25,0,0,1-2.26-.72c-2.82-1.55-5.6-3.18-8.39-4.79-2.1-1.2-2.27-1.92-.81-3.75,2.12-2.67,4.25-5.32,6.43-7.94a5.74,5.74,0,0,1,1.39-.9c.23.46.48.91.68,1.37a4.11,4.11,0,0,1,.13.7c.7,3.65,1.29,4,4.56,2.23,5.1-2.73,7.56-7.42,9.16-12.71.2-.65.42-1.29.63-1.94Z"/><path class="cls-12" d="M79.09,50.2c.57-1,1.11-2,1.72-2.92,1.18-1.81,1-2.55-1-3.41-4.59-2-9.11-1.27-13.54.54C64.61,45.1,63,46,60.84,47.05a14.05,14.05,0,0,1,.67-2.26c4.3-7.9,13.86-11.19,22.74-7.86,2.64,1,2.62,1,4.27-1.24a5.39,5.39,0,0,1,1-.84c.27.36.68.69.79,1.09,1,3.73,2,7.47,3,11.21.3,1.14-.12,2.05-1.21,2.18-4.14.49-8.3.84-12.45,1.23C79.63,50.57,79.52,50.45,79.09,50.2Z"/><path class="cls-12" d="M104.42,60.88a9,9,0,0,1-8.94-9,9,9,0,1,1,18.07,0A9,9,0,0,1,104.42,60.88Z"/><path class="cls-12" d="M75.91,101A9,9,0,0,1,75.85,83a9.11,9.11,0,0,1,9.09,9A9,9,0,0,1,75.91,101Z"/><path class="cls-12" d="M50,60.88a8.89,8.89,0,0,1-9-8.92,9,9,0,1,1,18,0A8.87,8.87,0,0,1,50,60.88Z"/></g></g></svg>