<svg xmlns="http://www.w3.org/2000/svg" viewBox="0 0 150 150"><defs><style>.cls-1{isolation:isolate;}.cls-2{opacity:0.57;}.cls-3{fill:#bddb0b;opacity:0.44;}.cls-18,.cls-4{fill:#fff;}.cls-5{fill:#67a0d7;}.cls-6{fill:#94c9ef;}.cls-7{fill:#dcecfa;}.cls-8{fill:#898d8f;}.cls-9{fill:#5b5e5e;}.cls-10,.cls-11,.cls-15{fill:#b9b9b8;}.cls-10,.cls-14,.cls-15,.cls-16{mix-blend-mode:multiply;}.cls-12,.cls-18{opacity:0.4;mix-blend-mode:screen;}.cls-13{fill:#a09d9f;}.cls-14,.cls-15,.cls-16{opacity:0.6;}.cls-16{fill:#a7a6a6;}.cls-17{fill:#bdbcbc;}.cls-19{fill:#85c3ee;}.cls-20{fill:#a5aeb7;}.cls-21{fill:#518aad;opacity:0.3;}</style></defs><title>Mesa de trabajo 2</title><g class="cls-1"><g id="Capa_1" data-name="Capa 1"><g class="cls-2"><circle class="cls-3" cx="75" cy="76.68" r="58.71"/><path class="cls-3" d="M88.78,12.53c-8.15,5.62-9,7.07-26.29,29.62-8.1,10.59-21.83,1.72-35.16,3.76C-5.4,50.91,1.89,90.09,1.89,90.09s4,22.62,23.6,25.66,25.13-2,39.08,7.9,53.25-.68,62-6.81,33.07-20.52,16.7-48c-8-13.46,15-28.72-5.14-49.41C115.66-3.64,99,5.47,88.78,12.53Z"/><path class="cls-3" d="M85.64,17.5c-7.4,5.09-8.19,6.41-23.86,26.87C54.43,54,42,45.94,29.87,47.78.17,52.32,6.78,87.88,6.78,87.88s3.65,20.53,21.42,23.29,22.81-1.86,35.46,7.16,48.33-.61,56.28-6.17,30-18.63,15.15-43.56c-7.28-12.21,13.61-26.06-4.66-44.84C110,2.82,95,11.09,85.64,17.5Z"/></g><circle class="cls-4" cx="75" cy="77" r="52"/><path class="cls-5" d="M105.93,107.47l-.29,1.85s0,.91-1.36,1H44.7c-1.34-.1-1.36-1-1.36-1h0l-.29-1.85Z"/><path class="cls-6" d="M105.13,107.47,104.9,109s0,.94-1.32,1.05H45.41c-1.32-.11-1.33-1-1.33-1h0l-.22-1.49Z"/><path class="cls-7" d="M79.2,107.56s1.62,1.61-5.47,1.71C73.73,109.27,79.58,109,79.2,107.56Z"/><path class="cls-7" d="M67,107.56s-1.58,1.52,5.51,1.62C72.46,109.18,66.56,109,67,107.56Z"/><path class="cls-7" d="M76,108.08a12.87,12.87,0,0,1-6.34-.08A9.82,9.82,0,0,0,76,108.08Z"/><path class="cls-7" d="M81.08,107.44s.49,3-8.93,2.7C72.15,110.14,80.48,110.46,81.08,107.44Z"/><path class="cls-7" d="M65.16,107.57s-.36,2.9,6.62,2.57C71.78,110.14,65.61,110.45,65.16,107.57Z"/><rect class="cls-8" x="52.93" y="40.66" width="3.29" height="11.08"/><rect class="cls-9" x="54.7" y="40.66" width="1.51" height="11.08"/><path class="cls-10" d="M56.21,42.14V40.66H52.93v1.45A2.42,2.42,0,0,0,56.21,42.14Z"/><rect class="cls-10" x="52.93" y="48.27" width="3.29" height="3.46"/><path class="cls-11" d="M53.78,40.27c0,1-.61,1.09-2.28,1.32l-5.94.54a2.13,2.13,0,0,1-2.32-1.86h0a2.13,2.13,0,0,1,2.32-1.86l5.88.7c1.44.21,2.34.13,2.34,1.16Z"/><path class="cls-10" d="M47.41,38.63l-1.85-.22a2.13,2.13,0,0,0-2.32,1.86,2.13,2.13,0,0,0,2.32,1.86L47.11,42A2.85,2.85,0,0,0,47.41,38.63Z"/><path class="cls-10" d="M52.41,39.23a2.7,2.7,0,0,0-.06,2.24c1-.17,1.43-.37,1.43-1.2S53.27,39.35,52.41,39.23Z"/><path class="cls-11" d="M47.48,40a2.83,2.83,0,1,1-2.82-2.7A2.77,2.77,0,0,1,47.48,40Z"/><g class="cls-12"><path class="cls-4" d="M44.85,37.83a2.54,2.54,0,0,1,1.72.66,2.53,2.53,0,0,0-1.91-.85,2.46,2.46,0,0,0-2.51,2.41,2.34,2.34,0,0,0,.79,1.74,2.32,2.32,0,0,1-.6-1.55A2.47,2.47,0,0,1,44.85,37.83Z"/></g><path class="cls-11" d="M55.38,40.27c0,1,.61,1.09,2.28,1.32l5.94.54a2.12,2.12,0,0,0,2.31-1.86h0a2.12,2.12,0,0,0-2.31-1.86l-5.88.7c-1.45.21-2.34.13-2.34,1.16Z"/><path class="cls-10" d="M61.75,38.63l1.85-.22a2.12,2.12,0,0,1,2.31,1.86,2.12,2.12,0,0,1-2.31,1.86L62.05,42A2.83,2.83,0,0,1,61.75,38.63Z"/><path class="cls-10" d="M56.75,39.23a2.66,2.66,0,0,1,0,2.24c-1-.17-1.42-.37-1.42-1.2S55.88,39.35,56.75,39.23Z"/><path class="cls-11" d="M61.68,40a2.82,2.82,0,1,0,2.82-2.7A2.76,2.76,0,0,0,61.68,40Z"/><ellipse class="cls-11" cx="54.61" cy="40.33" rx="2.19" ry="2.1"/><g class="cls-12"><path class="cls-4" d="M54.74,38.63a2,2,0,0,1,1.35.51,2,2,0,0,0-1.5-.66,1.92,1.92,0,0,0-2,1.88,1.86,1.86,0,0,0,.62,1.38,1.85,1.85,0,0,1-.47-1.22A1.93,1.93,0,0,1,54.74,38.63Z"/></g><g class="cls-12"><path class="cls-4" d="M64.64,37.83a2.54,2.54,0,0,1,1.72.66,2.53,2.53,0,0,0-1.91-.85,2.46,2.46,0,0,0-2.51,2.41,2.34,2.34,0,0,0,.79,1.74,2.32,2.32,0,0,1-.6-1.55A2.47,2.47,0,0,1,64.64,37.83Z"/></g><path class="cls-13" d="M59.78,51.73a3.27,3.27,0,0,1-3.4,3.12H52.62a3.28,3.28,0,0,1-3.4-3.12h0a3.27,3.27,0,0,1,3.4-3.11h3.76a3.26,3.26,0,0,1,3.4,3.11Z"/><path class="cls-11" d="M65.12,64.11v4h8v-4c0-4.62-1.85-7.29-3.4-8.72a11.19,11.19,0,0,0-7.84-2.76h-24v8H62.26a3.29,3.29,0,0,1,2,.66A4.1,4.1,0,0,1,65.12,64.11Z"/><path class="cls-11" d="M65.12,64.11v4h8v-4c0-4.62-1.85-7.29-3.4-8.72a11.19,11.19,0,0,0-7.84-2.76h-24v8H62.26a3.29,3.29,0,0,1,2,.66A4.1,4.1,0,0,1,65.12,64.11Z"/><g class="cls-14"><path class="cls-11" d="M54.39,58.69l-16.56-.25v2.15H62.26a3.29,3.29,0,0,1,2,.66,4.1,4.1,0,0,1,.84,2.87v4h1.93L67,62.61C66.91,56.72,54.39,58.69,54.39,58.69Z"/></g><rect class="cls-15" x="65.12" y="67.34" width="7.96" height="0.81"/><rect class="cls-15" x="37.83" y="52.63" width="1.27" height="7.96"/><path class="cls-16" d="M61.84,52.63H46.5v8H62.26a2.2,2.2,0,0,1,.43,0v-8A7.85,7.85,0,0,0,61.84,52.63Z"/><rect class="cls-17" x="46.83" y="49.74" width="15.49" height="14.54" rx="5.45" ry="5.45"/><path class="cls-18" d="M47.63,55.74a5.32,5.32,0,0,1,4.94-5c.78-.09,4.88-.32,3.51-.32h-4a4.76,4.76,0,0,0-4.75,4.76v3.17a4.74,4.74,0,0,0,.55,2.22A5,5,0,0,1,47.63,59Z"/><path class="cls-15" d="M61.6,58.56a5.06,5.06,0,0,1-5.22,4.87H52a5.42,5.42,0,0,1-3.17-1A5.22,5.22,0,0,0,52.55,64h4.27a4.94,4.94,0,0,0,5.09-4.78V56A21.8,21.8,0,0,0,61.6,58.56Z"/><path class="cls-8" d="M37.9,61.18a.81.81,0,0,1-.81-.81V52.93a.81.81,0,0,1,.81-.81h0a.81.81,0,0,1,.81.81v7.44a.81.81,0,0,1-.81.81Z"/><path class="cls-11" d="M73.51,68.64a.81.81,0,0,1-.81.81H65.26a.82.82,0,0,1-.81-.81h0a.81.81,0,0,1,.81-.81H72.7a.81.81,0,0,1,.81.81Z"/><path class="cls-19" d="M70.17,71.11s.35.52-.6,1.74,0,2.82,1.38,1.09S70.27,69.76,70.17,71.11Z"/><path class="cls-19" d="M70.17,80.67s.07.22-.39.55-.3,1,.38.52S70.35,80.21,70.17,80.67Z"/><path class="cls-19" d="M71.43,92.92s-.14.3.43.88.19,1.49-.66.66S71.3,92.22,71.43,92.92Z"/><path class="cls-19" d="M71.55,85.87s.14.3-.43.88-.19,1.49.66.66S71.68,85.17,71.55,85.87Z"/><path class="cls-19" d="M73.66,102.11s-.13.12.06.54-.18.81-.47.22S73.72,101.71,73.66,102.11Z"/><path class="cls-20" d="M41.39,78.37v2.2c0,.29.11.52.25.52H42l.81,24.46c0,.39.06,5.23,1.81,5.82h59.7c1.75-.59,1.81-5.43,1.81-5.82L107,81.09h.38c.14,0,.26-.23.26-.52v-2.2c0-.28-.12-.52-.26-.52H41.64C41.5,77.85,41.39,78.09,41.39,78.37Zm1.14,2.72h63.92l-.81,24.4c0,.08,0,4.35-1.36,4.84H44.7c-1.34-.49-1.36-4.76-1.36-4.8v0Zm-.63-2.2h65.19v1.16H41.9Z"/><path class="cls-21" d="M41.39,78.37v2.2c0,.29.11.52.25.52H42l.81,24.46c0,.39.06,5.23,1.81,5.82h59.7c1.75-.59,1.81-5.43,1.81-5.82L107,81.09h.38c.14,0,.26-.23.26-.52v-2.2c0-.28-.12-.52-.26-.52H41.64C41.5,77.85,41.39,78.09,41.39,78.37Z"/></g></g></svg>