<svg xmlns="http://www.w3.org/2000/svg" xmlns:xlink="http://www.w3.org/1999/xlink" viewBox="0 0 150 150"><defs><style>.cls-1,.cls-54,.cls-73{fill:none;}.cls-2{isolation:isolate;}.cls-3{opacity:0.55;}.cls-4{fill:#c0f49f;mix-blend-mode:multiply;}.cls-27,.cls-4{opacity:0.4;}.cls-5{clip-path:url(#clip-path);}.cls-6{fill:#f3e7a8;}.cls-7{fill:#e4c22f;}.cls-8{fill:#e2a437;}.cls-9{clip-path:url(#clip-path-2);}.cls-10{fill:#c38420;}.cls-11{fill:url(#linear-gradient);}.cls-12{fill:url(#linear-gradient-2);}.cls-13{fill:url(#linear-gradient-3);}.cls-14{fill:url(#linear-gradient-4);}.cls-15{fill:#294267;}.cls-16{clip-path:url(#clip-path-3);}.cls-17{fill:#679a9d;}.cls-18{fill:#9bbab9;}.cls-19{fill:#5d8f8f;}.cls-20{fill:#89a5a4;}.cls-21{fill:#6ca2a0;}.cls-22{fill:#fff;}.cls-23{fill:#979797;}.cls-24{fill:#dad7d7;}.cls-25{fill:#878787;}.cls-26{fill:#ccc;}.cls-27,.cls-28{fill:#afd8ea;}.cls-29{fill:#203036;}.cls-30{fill:url(#linear-gradient-5);}.cls-31{fill:#e0a72f;}.cls-32{fill:#090909;}.cls-33{fill:#ac0006;}.cls-34{fill:#c31a23;}.cls-35{fill:#222;}.cls-36{clip-path:url(#clip-path-4);}.cls-37{fill:#969999;}.cls-38,.cls-71{fill:#e3e3e3;}.cls-39{fill:#990913;}.cls-40{fill:#cfcfcf;}.cls-41{clip-path:url(#clip-path-5);}.cls-42{fill:#464646;}.cls-43{fill:#2c2c2c;}.cls-44{clip-path:url(#clip-path-6);}.cls-45{fill:#970c0c;}.cls-46{fill:#1a282f;}.cls-47{fill:#141414;}.cls-48{fill:#e0dbcb;}.cls-49{fill:#a6b0b5;}.cls-50{fill:url(#linear-gradient-6);}.cls-51{fill:url(#linear-gradient-7);}.cls-52{fill:url(#linear-gradient-8);}.cls-53{fill:#8b0d1b;}.cls-54{stroke:#101010;stroke-width:0.22px;}.cls-54,.cls-73{stroke-miterlimit:10;}.cls-55{fill:#faf9f9;}.cls-56{fill:#e1ac2a;}.cls-57{fill:#c9ab29;}.cls-58{fill:#edd763;}.cls-59{fill:#edbc3d;}.cls-60{fill:#e8b035;}.cls-61{fill:#f8ffe6;}.cls-62{fill:#1b1b1b;}.cls-63{fill:url(#linear-gradient-9);}.cls-64{fill:url(#linear-gradient-10);}.cls-65{fill:#dfe0e0;}.cls-66{fill:url(#linear-gradient-11);}.cls-67{fill:url(#linear-gradient-12);}.cls-68{fill:#2a2a2a;}.cls-69{clip-path:url(#clip-path-7);}.cls-70{fill:#bfbfbf;}.cls-71{opacity:0.74;}.cls-72{fill:#e0e0de;}.cls-73{stroke:#1b1b1b;stroke-width:0.5px;}.cls-74{fill:#a2d2de;opacity:0.9;}.cls-75{fill:#8ec0d0;opacity:0.8;}.cls-76{opacity:0.7;}.cls-77{fill:#d6e7eb;}</style><clipPath id="clip-path"><ellipse class="cls-1" cx="76" cy="76.53" rx="66" ry="34.47"/></clipPath><clipPath id="clip-path-2"><rect class="cls-1" x="5.77" y="41.95" width="69.05" height="69.05"/></clipPath><linearGradient id="linear-gradient" x1="4.21" y1="80.25" x2="37.06" y2="80.25" gradientUnits="userSpaceOnUse"><stop offset="0" stop-color="#2c2f0b"/><stop offset="1" stop-color="#322a22"/></linearGradient><linearGradient id="linear-gradient-2" x1="31.72" y1="80.9" x2="33.57" y2="80.9" xlink:href="#linear-gradient"/><linearGradient id="linear-gradient-3" x1="36.3" y1="71.9" x2="35.08" y2="101.51" xlink:href="#linear-gradient"/><linearGradient id="linear-gradient-4" x1="-465.91" y1="72.53" x2="-467.61" y2="113.74" gradientTransform="matrix(-1, 0, 0, 1, -404.53, 0)" xlink:href="#linear-gradient"/><clipPath id="clip-path-3"><rect class="cls-1" x="74.81" y="41.95" width="69.05" height="69.05"/></clipPath><linearGradient id="linear-gradient-5" x1="-1422.24" y1="608.79" x2="-1421.5" y2="608.79" gradientTransform="matrix(0.67, 0.03, 0.22, 0.95, 914.94, -429.3)" gradientUnits="userSpaceOnUse"><stop offset="0" stop-color="#cfd1d2"/><stop offset="1" stop-color="#babcbe"/></linearGradient><clipPath id="clip-path-4"><path id="_Trazado_de_recorte_" data-name="&lt;Trazado de recorte&gt;" class="cls-1" d="M103.12,100.45c-.07,0-.08,0-.09,0s0-.22,0-.27.92-2.27,1.42-3.24a2.83,2.83,0,0,1,2-1.16l1-.14a5.22,5.22,0,0,1,1,0A4.52,4.52,0,0,1,110.21,97v0a.11.11,0,0,1-.06,0h0l-2.57,1.21-4.06,2h0a1,1,0,0,1-.38.16Z"/></clipPath><clipPath id="clip-path-5"><path id="_Trazado_de_recorte_2" data-name="&lt;Trazado de recorte&gt;" class="cls-1" d="M92,103.77s-.58,1.68.7,2.24a1.18,1.18,0,0,0,1.5-.05,2.57,2.57,0,0,0,.64-1.15c0-.33-.4-.22-1-.33A5.13,5.13,0,0,1,92,103.77Z"/></clipPath><clipPath id="clip-path-6"><path id="_Trazado_de_recorte_3" data-name="&lt;Trazado de recorte&gt;" class="cls-1" d="M102.26,100h0c.48-1.06,1.86-3.4,1.86-3.4a32.4,32.4,0,0,0-4.47.66A11.87,11.87,0,0,0,97.46,99s-1.31,1.1-1.12,1.29c.36.37,3.6.16,4.64.18s1.28-.57,1.28-.57"/></clipPath><linearGradient id="linear-gradient-6" x1="388.23" y1="198.45" x2="389.43" y2="198.45" gradientTransform="translate(-99.6 492.75) rotate(-89.44)" xlink:href="#linear-gradient-5"/><linearGradient id="linear-gradient-7" x1="-1325.3" y1="332.34" x2="-1324.98" y2="332.34" gradientTransform="matrix(0.67, -0.02, 0.29, 0.93, 900.19, -231.96)" xlink:href="#linear-gradient-5"/><linearGradient id="linear-gradient-8" x1="647.27" y1="198.77" x2="647.78" y2="198.77" gradientTransform="translate(-48.55 758.44) rotate(-93.41)" xlink:href="#linear-gradient-5"/><linearGradient id="linear-gradient-9" x1="-340.96" y1="-628.17" x2="-339.61" y2="-628.17" gradientTransform="matrix(-0.27, -0.96, -0.96, 0.27, -578.63, -55.73)" xlink:href="#linear-gradient-5"/><linearGradient id="linear-gradient-10" x1="-340.71" y1="-627.27" x2="-339.62" y2="-627.27" gradientTransform="matrix(-0.27, -0.96, -0.96, 0.27, -578.63, -55.73)" xlink:href="#linear-gradient-5"/><linearGradient id="linear-gradient-11" x1="-345.05" y1="-640.64" x2="-343.69" y2="-640.64" gradientTransform="matrix(-0.27, -0.96, -0.96, 0.27, -578.63, -55.73)" xlink:href="#linear-gradient-5"/><linearGradient id="linear-gradient-12" x1="-344.8" y1="-639.74" x2="-343.7" y2="-639.74" gradientTransform="matrix(-0.27, -0.96, -0.96, 0.27, -578.63, -55.73)" xlink:href="#linear-gradient-5"/><clipPath id="clip-path-7"><path class="cls-1" d="M120.06,98.84a9.44,9.44,0,0,1,2.66-1.21,13.65,13.65,0,0,1,2.94-.35h.64a9.72,9.72,0,0,1,3.1.54,5.86,5.86,0,0,1,2.09,1.31,3,3,0,0,1-.79.14c-.52.06-3.39,0-4.56,0h-.9l-4.59,0h-1.22A6.34,6.34,0,0,1,120.06,98.84Z"/></clipPath></defs><title>Mesa de trabajo 3</title><g class="cls-2"><g id="Capa_1" data-name="Capa 1"><g class="cls-3"><path class="cls-4" d="M145.65,55.88a21.7,21.7,0,0,0,2.12-8.3c.27-7-2.52-13.29-6.64-18.75C133.09,19,120.18,15.45,107.9,17a61.89,61.89,0,0,0-25.3,9.3c-6.44,4.15-13.15,11.61-21,13S46.31,34.35,39,32.74c-6.83-1.51-14.12-2-21-.42C6.17,35.11-.75,44.66,1.31,56.82c.73,4.28,6,7.32,5.07,9.51-12.95,29.13,12.36,41,40.67,49.33,60.14,17.64,85.53,6.25,96.81-5.07,5.27-5.28,7.29-13.47,6.71-20.74-.54-6.71-3.42-13.25-9.64-16.46a9.68,9.68,0,0,1-2.59-1.6C134.41,67.79,144.07,59.31,145.65,55.88Z"/><path class="cls-4" d="M133.8,62.41A20.51,20.51,0,0,0,136,55.06c.64-6.68-1.85-12.38-5.3-17.9-7-9.42-18.66-13.25-30-12.34a52.21,52.21,0,0,0-22.58,7.56C72.11,36,65.66,42.59,58.44,43.58s-13.83-5.21-20.49-7c-6.2-1.67-12.86-2.46-19.21-1.24-11,2.1-17.68,10.66-16.29,22,.5,4,5.24,7,4.26,9-13,26.45,9.66,38.5,35.27,47.36,54.4,18.81,77.15,9.32,87.94-.71,5.35-5,7.68-13.42,7.09-20.53a16.48,16.48,0,0,0-4.5-10.42c-2.9-2.89-8.38-5.09-6.28-9.93C127.9,68.31,131.93,66.07,133.8,62.41Z"/><path class="cls-4" d="M122.08,67.63a16.47,16.47,0,0,0,2.26-6,21.51,21.51,0,0,0-4.13-15.5c-6-8.26-16.37-12-26.6-11.6A53.19,53.19,0,0,0,72.09,40c-5.59,2.81-11.64,8.2-18.19,8.76s-12.29-4.93-18.24-6.71a41.14,41.14,0,0,0-17.28-1.78C8.43,41.68,2.07,48.7,2.93,58.38c.31,3.41,4.48,6.16,3.53,7.82-12.69,22,7.37,33,30.16,41.51,48.39,18,70.12,10.83,80.21,2.73,8.69-7,10.26-22.87.19-29.49C110.67,76.77,119.73,71.58,122.08,67.63Z"/></g><g class="cls-5"><rect class="cls-6" x="5.77" y="41.95" width="69.05" height="69.05"/><g id="_Grupo_" data-name="&lt;Grupo&gt;"><path id="_Trazado_" data-name="&lt;Trazado&gt;" class="cls-7" d="M63.72,57.23a5.49,5.49,0,1,1-5.49-5.48A5.49,5.49,0,0,1,63.72,57.23Z"/><polygon id="_Trazado_2" data-name="&lt;Trazado&gt;" class="cls-7" points="55.99 52.52 54.56 53.72 48.66 45.31 48.66 45.31 55.99 52.52"/><polygon id="_Trazado_3" data-name="&lt;Trazado&gt;" class="cls-7" points="54.77 60.32 56.21 61.52 48.95 68.79 48.95 68.79 54.77 60.32"/><g id="_Grupo_2" data-name="&lt;Grupo&gt;"><polygon id="_Trazado_4" data-name="&lt;Trazado&gt;" class="cls-7" points="58.94 52.6 57.28 52.6 58.06 43.54 58.06 43.54 58.94 52.6"/><polygon id="_Trazado_5" data-name="&lt;Trazado&gt;" class="cls-7" points="57.35 52.63 55.79 53.2 53.43 44.42 53.43 44.42 57.35 52.63"/><polygon id="_Trazado_6" data-name="&lt;Trazado&gt;" class="cls-7" points="54.68 54.24 53.85 55.68 46.4 50.47 46.4 50.47 54.68 54.24"/><polygon id="_Trazado_7" data-name="&lt;Trazado&gt;" class="cls-7" points="53.91 55.63 53.63 57.26 44.84 54.92 44.84 54.92 53.91 55.63"/><polygon id="_Trazado_8" data-name="&lt;Trazado&gt;" class="cls-7" points="53.67 57.2 53.96 58.83 44.9 59.63 44.9 59.63 53.67 57.2"/><polygon id="_Trazado_9" data-name="&lt;Trazado&gt;" class="cls-7" points="53.97 58.75 54.8 60.19 46.57 64.03 46.57 64.03 53.97 58.75"/><polygon id="_Trazado_10" data-name="&lt;Trazado&gt;" class="cls-7" points="56.03 61.1 57.59 61.67 53.75 69.91 53.75 69.91 56.03 61.1"/><polygon id="_Trazado_11" data-name="&lt;Trazado&gt;" class="cls-7" points="57.52 61.61 59.18 61.61 58.4 70.67 58.4 70.67 57.52 61.61"/><polygon id="_Trazado_12" data-name="&lt;Trazado&gt;" class="cls-7" points="59.11 61.58 60.67 61.02 63.03 69.8 63.03 69.8 59.11 61.58"/><polygon id="_Trazado_13" data-name="&lt;Trazado&gt;" class="cls-7" points="60.59 61.01 61.86 59.95 67.08 67.39 67.08 67.39 60.59 61.01"/><polygon id="_Trazado_14" data-name="&lt;Trazado&gt;" class="cls-7" points="61.78 59.97 62.61 58.53 70.06 63.74 70.06 63.74 61.78 59.97"/><polygon id="_Trazado_15" data-name="&lt;Trazado&gt;" class="cls-7" points="62.55 58.58 62.83 56.95 71.62 59.3 71.62 59.3 62.55 58.58"/><polygon id="_Trazado_16" data-name="&lt;Trazado&gt;" class="cls-7" points="62.79 57.02 62.5 55.38 71.56 54.59 71.56 54.59 62.79 57.02"/><polygon id="_Trazado_17" data-name="&lt;Trazado&gt;" class="cls-7" points="62.49 55.46 61.66 54.03 69.89 50.18 69.89 50.18 62.49 55.46"/><polygon id="_Trazado_18" data-name="&lt;Trazado&gt;" class="cls-7" points="61.67 54.11 60.4 53.04 66.82 46.61 66.82 46.61 61.67 54.11"/><polygon id="_Trazado_19" data-name="&lt;Trazado&gt;" class="cls-7" points="60.43 53.11 58.88 52.55 62.71 44.3 62.71 44.3 60.43 53.11"/></g><path id="_Trazado_20" data-name="&lt;Trazado&gt;" class="cls-8" d="M63.34,57.25a5.11,5.11,0,1,1-5.11-5.11A5.11,5.11,0,0,1,63.34,57.25Z"/></g><g class="cls-9"><g id="_Grupo_3" data-name="&lt;Grupo&gt;"><polygon id="_Trazado_21" data-name="&lt;Trazado&gt;" class="cls-10" points="62.03 96.12 62.03 97.93 58.4 106.31 58.1 104.87 62.03 96.12"/><polygon id="_Trazado_22" data-name="&lt;Trazado&gt;" class="cls-8" points="82.58 100.49 75.21 111.1 47.51 111.1 19.78 114.51 1.14 107.19 3.35 94.15 21.65 88.49 47.54 89.39 65.84 89.4 72.74 95.47 82.58 100.49"/><polyline id="_Trazado_23" data-name="&lt;Trazado&gt;" class="cls-10" points="1.14 107.19 1.14 109.43 19.96 116.95 19.96 114.51"/><polygon id="_Trazado_24" data-name="&lt;Trazado&gt;" class="cls-10" points="47.51 111.1 47.51 113.09 19.96 116.95 19.96 114.51 47.51 111.1"/><polygon id="_Trazado_25" data-name="&lt;Trazado&gt;" class="cls-10" points="75.21 111.1 47.51 111.1 47.51 113.09 75.77 112.84 75.21 111.1"/><polygon id="_Trazado_26" data-name="&lt;Trazado&gt;" class="cls-10" points="4.86 99.9 15.09 100.8 28.59 98.05 40.63 100 28.75 98.84 22.53 100.16 16.2 101.5 4.42 100.75 4.86 99.9"/><polygon id="_Trazado_27" data-name="&lt;Trazado&gt;" class="cls-10" points="54.02 111.1 47.22 106.82 33.65 104.2 26.69 98.48 34.45 103.53 47.19 105.89 55.99 111.1 54.02 111.1"/><polygon id="_Trazado_28" data-name="&lt;Trazado&gt;" class="cls-10" points="16.2 101.5 7.46 104.47 6.08 109.1 7.56 109.72 8.9 105 16.2 101.5"/><polygon id="_Trazado_29" data-name="&lt;Trazado&gt;" class="cls-10" points="40.63 100 34.66 94.3 38.74 91.62 38.3 89.15 39.98 89.15 40.3 91.62 36.62 94.41 40.63 100"/><polygon id="_Trazado_30" data-name="&lt;Trazado&gt;" class="cls-10" points="37.65 93.63 49.48 94.7 53.35 91.71 65.84 89.4 66.98 90.41 54.4 92.44 50.67 95.45 37.65 93.63"/><polygon id="_Trazado_31" data-name="&lt;Trazado&gt;" class="cls-10" points="15.3 90.51 17.02 94.89 14.09 96.78 18.55 100.08 15.41 96.6 18.22 95.18 17.01 89.93 15.3 90.51"/><polygon id="_Trazado_32" data-name="&lt;Trazado&gt;" class="cls-10" points="5.75 95.39 10.08 94.82 15.44 95.92 10.08 95.22 5.77 96.36 5.75 95.39"/><polygon id="_Trazado_33" data-name="&lt;Trazado&gt;" class="cls-10" points="32.16 112.84 29.77 105.41 35.95 103.05 40.63 100 41.87 100 37.65 103.38 32.82 105.61 35.12 112.63 32.23 112.99 32.16 112.84"/><polygon id="_Trazado_34" data-name="&lt;Trazado&gt;" class="cls-10" points="29.04 94.31 29.98 98.26 29.14 98.76 27.45 94.78 27.71 91.32 22.77 88.55 27.84 88.73 30.05 90.24 29.04 94.31"/><polygon id="_Trazado_35" data-name="&lt;Trazado&gt;" class="cls-10" points="69.06 92.22 60.87 94.34 56.86 101.89 46.81 106.02 55.59 101.49 59.17 94.41 67.58 90.96 69.06 92.22"/><polygon id="_Trazado_36" data-name="&lt;Trazado&gt;" class="cls-10" points="46.81 106.02 58.75 106.79 60.26 110.18 63.73 111.36 62.73 112.09 59.33 110.86 57.43 107.59 46.81 106.02"/><polygon id="_Trazado_37" data-name="&lt;Trazado&gt;" class="cls-10" points="80.4 104.52 67.47 107.19 62.08 104.32 55.72 102.38 55.49 101.71 62.35 103.35 67.27 105.52 79.46 102.97 80.64 104.45 80.4 104.52"/><polygon id="_Trazado_38" data-name="&lt;Trazado&gt;" class="cls-10" points="40.63 99.9 41.41 96.45 43.94 95.35 43.52 94.45 45.03 94.66 45.03 95.45 42.3 96.61 41.87 100 40.63 100 40.63 99.9"/><polygon id="_Trazado_39" data-name="&lt;Trazado&gt;" class="cls-10" points="11.81 103.36 19.29 106.91 30.12 106.5 30.45 107.53 19.51 108.29 11.81 103.36"/><polygon id="_Trazado_40" data-name="&lt;Trazado&gt;" class="cls-10" points="58.7 97.71 65.95 97.71 69.97 100.29 76.64 99.16 78.35 99.54 70.16 100.96 65.47 98.22 58.77 98.28 58.7 97.71"/></g><path class="cls-11" d="M22.32,96.74l-.17-2.89-1-1.44-.48-1.52.53-.53-.45-.06-.49-3.64s.42-2.12,1.68-2.47a3.33,3.33,0,0,1,2.06,0l.25.12.12.34.65.16,1.17-.42L25,84.51l-.38-.31s-.51-.3-.44-.29,1.72-1.23,1.72-1.23l-2.2,1.12-.82-.27-.76.13-1,.27a.18.18,0,0,1-.23-.2l.2-1.86.92-.61,3.38-.54,1.24-1,.63.08.88,1.2-.24-1.13.78.1.71.73,2.07.2,1.68.88.66-.12-.87-.23-1.35-.93-1.9-.16-.81-.89-2.33-.06-.21-.53.57-.35.32-.78-.5-.21-.07.59-1,.6.22.87-.65.64-3.33.37-.47.19.18-1.07,1.72-1,.85,0,.32-.39.38-.25.64-.62-1,.43-.51.56-.6,0,.37-1.17.66-.77,1.94,0-1.88-.23,1.26-1,1.64.2,1.29.43,1.09-.54h1.19l.81.1.74-.14.86.28.47.43,0,.47.44-.59-.69-.46,1.16-.51,1.43-.12,1-.65-1.32.41H34.45l-1.17.56-1-.32-.79.35-1.32-.43L28.69,75l.91-1-1.3-2.4-.22.84L29,74,28,75l-2-.3-3,2.47-.5,1.45-1.16.71L21,78.18l1.25-1.24.5-1.63,1.86-1.39,0-1.64S26.32,71,26.38,70.5l3.84-1.1.42.43,0-.65L31.3,69l-4.67.93,1-1.7-.34,0-1,1.81-.28.42-1,1.07-.77-1L25,69l-.86-.88.16-1.15-.07-2.13,1.46-1.41L24,64.49l-.12,2.34-.71-1L22.94,65l-.23.57-1-.55-.51-.46.07-.59-1.08-.39.62.67-.07.55,1.76,1-.62.48.87-.05.74,1-2.16.36-.48-1L21.05,68l2.46-.3.26.83.33.57-.6,1.69.83,1.32-.27,1.66-1.1.63-1.07-1-.28-.71.8-.83-1.29.77.5,1.09.21,1.52-.71,1.47-.05-1.49-1-.93.42-1.06-.26-1.11,1.07-.86-1.75-3.07L19.65,67l-1.53-.52-.59-.6-.64-1.24,0-1.23-.43,1.37L18,66.89l1.31.43S19,68,19,68,20.72,71,20.72,71l-2.81-1.42-1.08-.28-1.29-1.93-1.21-.67-.95-1.19.55,1.44a7.23,7.23,0,0,1,1.31.56l1.43,2.2,3.67,1.56-.81.63.45.93-.57.91L18,73l-.46-.62-.78-.08-.11-.46.2-1.11-1.27-.12L15.39,70l-1.68-.22-.79-.5-.75-.07-.88-.31-2-1.12,1.81,1.47,1,.24.66.13a8,8,0,0,0,.85.68,8.48,8.48,0,0,0,1.45.06l.2.68.86,0,0,.55-1.09,0,1.24.27v.46l-.33.49,1.32.38,2.47,1.49s.74,1.49.79,1.49S20,77.69,20,77.69L18.32,76l-.05-1.39-.62,0-1.46-.94L17.55,75l-.06.85L18.65,77l-.54.3.93.41,0,.5-.2.87-1.4-1-.1-.94-.56-.73.05-.53-.44.47.64.89,0,.44L16,77l-.38-.68-.26.52-.72-.39L14.41,76l-.06.45-1.16,0,2.78.84,1.25,1.06,1.92,1.45.23,2.23L17.09,80.5l-3-.68-2.73-1.41.2-1.55-.85-.79.14-.43-.38-.28-.42-.89.42-2.37-.81,2.37.2.84v.58L11,77.19l-.33.94-2.61-1-.83-.18-.67-1-1.18-.16-1.2-1.42.86,1.74,1.3.28.6.91.89.06,4.09,2-1.86.23-1.53-.1L7.8,80l1-.13,1.4.09,2.26-.34.64.36-.53.48-.77-.19.84.42.85-.41,2.77.62-.9.39L13.71,81l-1.37.08-1.77-.41-1.16.58-.79.13.92.21,1-.57,1.58.34-.15.43-1.09,0-1.35.66L11,81.93l1.19.07.25-.64,1.4-.08,2,.52.6-.47,1.48,1-2.08.89-1.59-.81-3,.9,2.9-.5,1.88.9,1.74-.85,1.06.46a.2.2,0,0,1,.08.28L18,85.05l-.19,2a1.18,1.18,0,0,0,.12.64l.16.33a.39.39,0,0,1,0,.4l-.43.54a.67.67,0,0,0-.07.72l.3.61a1.12,1.12,0,0,1,.09.8l-1.36,6.1Z"/><polygon class="cls-12" points="33.55 80.99 31.72 80.81 31.72 80.82 33.57 81 33.55 80.99"/><path class="cls-13" d="M40.51,80.07a3,3,0,0,0-.92,1.34,1.72,1.72,0,0,1-1.05.84,4.35,4.35,0,0,1,.2-1.06c.09-.45.35-.36.59-.8a.81.81,0,0,0,.12-.76,1.58,1.58,0,0,1,0-.72,1.16,1.16,0,0,0,0-.58c-.24.12-.17.5-.22.89s-.13.34-.4,0-.06-.31,0-.58,0-.24,0-.24l-.08-.2a1.23,1.23,0,0,0,.13,1.43c.46.48.13.66-.22,1a2.83,2.83,0,0,0-.55,1.58c-.07.57-.79.12-1.38.32a2,2,0,0,1-1.39-.09,3.77,3.77,0,0,0,.44-2.74c0-.25.53-.89.65-1.36s1-.94,1.12-2a2.34,2.34,0,0,1,.92-1.71,1.1,1.1,0,0,0,.3-.73c-.17.71-1.1.84-1.1.84a2.06,2.06,0,0,1-.06-.55,2.51,2.51,0,0,1,.57-1.08l.11-.41c-1,.52-1,2.45-1,3.45s-.32,1.32-.61,1.4a1.14,1.14,0,0,0-.7.84c-.15.48-.38.51-.38.51a3.33,3.33,0,0,0,0-1.63c-.09-.38.44-1.13.49-1.75a15.58,15.58,0,0,1,1.42-2.94l-.18-.48a4.66,4.66,0,0,1-.65,1.57c-1.15,1.11-.79,1.94-1,2.19a3.19,3.19,0,0,0-.43.63c0-.28-.37-.29-.59-1.06s.55-3.46.55-3.46l-.1-.16c-.07.61-.75,2.79-.82,3.81s1.09,2,.92,2.51A3.56,3.56,0,0,0,35.25,80a3.31,3.31,0,0,1-.18,1.94c-.25.43-.47.43-.62.88s0,.8-.3,1.22-.08.4-.37,1-.2.81-.2.81c-.16,0-.31-.4-.56-.23a.32.32,0,0,1-.48,0,11.31,11.31,0,0,1-.27-1.33c-.06-.3.06-.7-.11-.91a1.21,1.21,0,0,1-.13-.86,8.68,8.68,0,0,0,.64-1.8,1.47,1.47,0,0,1,.32-.89,1.72,1.72,0,0,0,.65-1.9c0-.23-.36-.45-.56-.79s.22-1.73.28-2.08a8.49,8.49,0,0,0,0-1.45l-.12-.12a3.5,3.5,0,0,1-.14,1.75c-.06.1-.26.13-.22.38a1.32,1.32,0,0,1-.06.69,4.18,4.18,0,0,0-.16.7,1.25,1.25,0,0,1-.38-.71,1.27,1.27,0,0,0-.25-.74,1.24,1.24,0,0,1-.22-.57,1.3,1.3,0,0,0,.16.9,1.85,1.85,0,0,1,.17.77c0,.18,0,.38.41.64a1.94,1.94,0,0,1,.8.92c.08.24.13.28.07.37a3.87,3.87,0,0,0-.19.5,1.29,1.29,0,0,1-.59.5,2.05,2.05,0,0,0-.41-.66,1.27,1.27,0,0,1-.38-.69c0-.21-.07-.86-.07-.86l-.18,0c.11.13,0,.85,0,1.07s0,.32.48.86.08,1.52-.08,1.9-.7,1-.5,1.73.16.73-.08,1.1-.12.52.19.87.25,1.19.27,1.64.71.38,1.08.64.21,1.44.22,2A11.89,11.89,0,0,1,33,90.93c-.08.41.84,1,.8,1.47a2.84,2.84,0,0,0,.32,1.18s.06,3.88-.12,5.51a3.3,3.3,0,0,1-1,2.24s4.88.58,4.34-.2A7.56,7.56,0,0,1,36.42,99c-.17-.59-.32-3.29-.38-3.43a18.41,18.41,0,0,1-.2-2.54c0-.14,0-.25,0-.35a11.1,11.1,0,0,0,.78-1.85,1.51,1.51,0,0,1,.48-.82,23.57,23.57,0,0,0,.49-2.46,8.56,8.56,0,0,1,.83-1.92,8.86,8.86,0,0,0,.13-1.67l-.09-.14A3.67,3.67,0,0,1,38,85.47c-.08.09-.28.08-.29.33a1.29,1.29,0,0,1-.19.68,4.51,4.51,0,0,0-.28.65,1.27,1.27,0,0,1-.24-.76,1.25,1.25,0,0,0-.12-.78,1.27,1.27,0,0,1-.11-.6,1.32,1.32,0,0,0,0,.92,1.92,1.92,0,0,1,0,.79c0,.17-.08.37.29.69a4.21,4.21,0,0,1-.32,2.37c-.23,0-.19-.75-.29-.82a1.28,1.28,0,0,1-.25-.74c0-.22.09-.87.09-.87l-.17-.07c.08.15-.18.84-.21,1s-.06.32.31.94-.34,1.27-.56,1.63a5.5,5.5,0,0,0-.36.73c0-.08-.1-.16-.15-.26-.47-.81-.25-.56-.46-1.53a8.86,8.86,0,0,1-.12-3.2,5.44,5.44,0,0,1,1.59-3.3c.67-.7,1.8.16,2.33-.28a4.51,4.51,0,0,0,1.2-1.49,3.68,3.68,0,0,1,.71-1.07A.51.51,0,0,0,40.51,80.07Z"/><path class="cls-14" d="M66.8,113.58a3.84,3.84,0,0,1-2-3.17c-.14-2.28-.11-5.93-.11-5.93s-.1-2.71-.13-3.38,1.38-1.4,1.29-2a16.44,16.44,0,0,1,0-2.63c0-.79-.09-2.43.48-2.77s1.55-.2,1.63-.82.06-1.77.54-2.25.67-.67.35-1.2-.38-.61,0-1.54-.39-1.89-.59-2.44-.68-1.94,0-2.65.74-.87.76-1.17-.1-1.31.07-1.49l-.26,0s-.1.9-.18,1.19a1.83,1.83,0,0,1-.61.93c-.18,0-.64.81-.66.89a1.93,1.93,0,0,1-.82-.75,5,5,0,0,0-.23-.71c-.08-.13,0-.18.14-.51A2.8,2.8,0,0,1,67.76,80c.64-.32.63-.6.66-.85a2.46,2.46,0,0,1,.31-1.06A1.77,1.77,0,0,0,69,76.88a1.76,1.76,0,0,1-.37.78,1.7,1.7,0,0,0-.43,1,1.87,1.87,0,0,1-.6,1,7.15,7.15,0,0,0-.18-1,1.68,1.68,0,0,1,0-1c.08-.35-.2-.4-.29-.55a4.7,4.7,0,0,1-.06-2.44l-.18.16a11.5,11.5,0,0,0-.18,2c.06.5.56,2.47.24,2.92s-.8.73-.89,1a2.32,2.32,0,0,0,.79,2.7,2,2,0,0,1,.4,1.26A12,12,0,0,0,68,87.34a1.65,1.65,0,0,1-.25,1.18c-.27.28-.13.84-.24,1.26A14.27,14.27,0,0,1,67,91.61a.48.48,0,0,1-.7,0c-.35-.26-.6.24-.84.28,0,0,.14-.33-.23-1.15s-.07-.78-.45-1.38-.16-1.07-.35-1.71S64,87,63.63,86.4a4.52,4.52,0,0,1-.11-2.72,4.69,4.69,0,0,0,.34-2.5c-.21-.73,1.58-2,1.55-3.43s-.83-4.5-.88-5.35l-.16.21s.9,3.81.51,4.86-1,1-.95,1.42a4,4,0,0,0-.57-.91c-.31-.36.28-1.49-1.31-3.12a6.51,6.51,0,0,1-.82-2.25l-.3.67s1.81,3.34,1.83,4.2.73,1.94.57,2.47a4.27,4.27,0,0,0-.1,2.27s-.34-.06-.52-.74a1.61,1.61,0,0,0-1-1.23c-.42-.13-.85-.59-.76-2s.21-4.08-1.22-4.88l.13.58s.77,1,.73,1.54a2.45,2.45,0,0,1-.13.76S59.15,76,59,75a1.49,1.49,0,0,0,.37,1,3.1,3.1,0,0,1,1.21,2.45c.07,1.5,1.34,2.22,1.48,2.89s.82,1.58.82,1.94a5.12,5.12,0,0,0,.43,3.85,6.45,6.45,0,0,1-2.55-1.5c-.66-.87-1.26-1.31-1.29-2.12s.06-1.37-.47-1.77-1.28-.93-1.43-1.6A14.69,14.69,0,0,1,57.16,78c0-.8.1-.89-.4-1.43s-.95-.81-.25-1.43a1.65,1.65,0,0,0,.31-2l-.13.27s-.06,0,0,.34.34.37-.09.8-.54.47-.59-.06.09-1.06-.24-1.25a1.47,1.47,0,0,0-.08.8,2.13,2.13,0,0,1,0,1,1.09,1.09,0,0,0,.1,1.07c.32.64.71.53.8,1.17a6.33,6.33,0,0,1,.21,1.48,2.47,2.47,0,0,1-1.47-1.25A4.06,4.06,0,0,0,54,75.62a.65.65,0,0,0,.11.57,5.14,5.14,0,0,1,1,1.55,6.27,6.27,0,0,0,1.63,2.17c.74.65.22,1.16,1,1.79s.91,1.8,1.42,3.48,1.87,2.07,2.78,3.1A7.34,7.34,0,0,1,64,93a11.8,11.8,0,0,1-.44,4.45c-.4,1.33-.05,1-.8,2.09s-1,.81-1.14,2.23a22.38,22.38,0,0,1-.5,3.51c-.1.19-.54,4-.84,4.75a10.12,10.12,0,0,1-1.56,3C57.84,114,66.8,113.58,66.8,113.58Z"/></g><rect class="cls-15" x="74.81" y="41.95" width="69.05" height="69.05"/><g class="cls-16"><g id="_Grupo_4" data-name="&lt;Grupo&gt;"><polygon id="_Trazado_41" data-name="&lt;Trazado&gt;" class="cls-17" points="114.21 102.01 86.16 102.01 86.16 53.4 114.21 53.15 114.21 102.01"/><g id="_Grupo_5" data-name="&lt;Grupo&gt;"><rect id="_Rectángulo_" data-name="&lt;Rectángulo&gt;" class="cls-18" x="89.24" y="59.14" width="6.12" height="11"/><rect id="_Rectángulo_2" data-name="&lt;Rectángulo&gt;" class="cls-18" x="89.24" y="73.27" width="6.12" height="11"/><rect id="_Rectángulo_3" data-name="&lt;Rectángulo&gt;" class="cls-18" x="89.24" y="87.65" width="6.12" height="11"/><rect id="_Rectángulo_4" data-name="&lt;Rectángulo&gt;" class="cls-18" x="97.13" y="59.01" width="6.12" height="11"/><rect id="_Rectángulo_5" data-name="&lt;Rectángulo&gt;" class="cls-18" x="97.13" y="73.14" width="6.12" height="11"/><rect id="_Rectángulo_6" data-name="&lt;Rectángulo&gt;" class="cls-18" x="97.13" y="87.53" width="6.12" height="11"/><rect id="_Rectángulo_7" data-name="&lt;Rectángulo&gt;" class="cls-18" x="105.15" y="58.88" width="6.12" height="11"/><rect id="_Rectángulo_8" data-name="&lt;Rectángulo&gt;" class="cls-18" x="105.15" y="73.01" width="6.12" height="11"/><rect id="_Rectángulo_9" data-name="&lt;Rectángulo&gt;" class="cls-18" x="105.15" y="87.4" width="6.12" height="11"/></g></g><polygon class="cls-19" points="114.21 102.01 118.06 98.65 118.06 51.11 114.21 53.15 114.21 102.01"/><polygon class="cls-20" points="115.2 58.88 117.07 57.81 117.07 68.57 115.2 69.88 115.2 58.88"/><polygon class="cls-20" points="115.2 73.13 117.07 72.06 117.07 82.82 115.2 84.13 115.2 73.13"/><polygon class="cls-20" points="115.2 87.38 117.07 86.31 117.07 97.07 115.2 98.38 115.2 87.38"/><polygon class="cls-21" points="86.16 53.4 90.36 51.11 118.06 51.11 114.21 53.15 86.16 53.4"/><g id="_Grupo_6" data-name="&lt;Grupo&gt;"><rect id="_Rectángulo_10" data-name="&lt;Rectángulo&gt;" class="cls-22" x="102.28" y="66.56" width="24.71" height="35.47"/><g id="_Grupo_7" data-name="&lt;Grupo&gt;"><g id="_Grupo_8" data-name="&lt;Grupo&gt;"><rect id="_Rectángulo_11" data-name="&lt;Rectángulo&gt;" class="cls-23" x="105.12" y="69.21" width="5.32" height="5.32"/><rect id="_Rectángulo_12" data-name="&lt;Rectángulo&gt;" class="cls-23" x="105.12" y="76.65" width="5.32" height="5.32"/><rect id="_Rectángulo_13" data-name="&lt;Rectángulo&gt;" class="cls-23" x="105.12" y="85.18" width="5.32" height="5.32"/><rect id="_Rectángulo_14" data-name="&lt;Rectángulo&gt;" class="cls-23" x="105.12" y="94.02" width="5.32" height="5.32"/></g><g id="_Grupo_9" data-name="&lt;Grupo&gt;"><rect id="_Rectángulo_15" data-name="&lt;Rectángulo&gt;" class="cls-23" x="111.94" y="69.21" width="5.32" height="5.32"/><rect id="_Rectángulo_16" data-name="&lt;Rectángulo&gt;" class="cls-23" x="111.94" y="76.65" width="5.32" height="5.32"/><rect id="_Rectángulo_17" data-name="&lt;Rectángulo&gt;" class="cls-23" x="111.94" y="85.18" width="5.32" height="5.32"/><rect id="_Rectángulo_18" data-name="&lt;Rectángulo&gt;" class="cls-23" x="111.94" y="94.02" width="5.32" height="5.32"/></g><g id="_Grupo_10" data-name="&lt;Grupo&gt;"><rect id="_Rectángulo_19" data-name="&lt;Rectángulo&gt;" class="cls-23" x="118.82" y="69.21" width="5.32" height="5.32"/><rect id="_Rectángulo_20" data-name="&lt;Rectángulo&gt;" class="cls-23" x="118.82" y="76.65" width="5.32" height="5.32"/><rect id="_Rectángulo_21" data-name="&lt;Rectángulo&gt;" class="cls-23" x="118.82" y="85.18" width="5.32" height="5.32"/><rect id="_Rectángulo_22" data-name="&lt;Rectángulo&gt;" class="cls-23" x="118.82" y="94.02" width="5.32" height="5.32"/></g></g></g><polygon class="cls-24" points="126.99 66.56 131.83 64.2 131.83 99.35 126.99 102.03 126.99 66.56"/><polygon class="cls-25" points="127.84 69.05 130.98 67.38 130.98 71.91 127.84 73.81 127.84 69.05"/><polygon class="cls-25" points="127.84 77.28 130.98 75.61 130.98 80.14 127.84 82.05 127.84 77.28"/><polygon class="cls-25" points="127.84 85.39 130.98 83.71 130.98 88.24 127.84 90.15 127.84 85.39"/><polygon class="cls-25" points="127.84 93.55 130.98 91.88 130.98 96.41 127.84 98.31 127.84 93.55"/><polygon class="cls-26" points="131.83 64.2 126.99 66.56 102.28 66.56 107.78 64.2 131.83 64.2"/><path id="_Trazado_42" data-name="&lt;Trazado&gt;" class="cls-27" d="M145.37,96.67c-4.61-1.1-.5-2.41-.5-2.41a15.36,15.36,0,0,0-9.33.74,19.5,19.5,0,0,1-4.49,1.56h-1.22c-3.91-1.08-.07-2.3-.07-2.3a15.36,15.36,0,0,0-9.33.74,19.53,19.53,0,0,1-4.5,1.56h-1.22c-3.91-1.08-.07-2.3-.07-2.3a15.36,15.36,0,0,0-9.33.74,19.5,19.5,0,0,1-4.49,1.56H99.6c-3.91-1.08-.07-2.3-.07-2.3A15.36,15.36,0,0,0,90.2,95a19.5,19.5,0,0,1-4.49,1.56H84.49c-3.91-1.08-.07-2.3-.07-2.3a15.36,15.36,0,0,0-9.33.74,19.53,19.53,0,0,1-4.5,1.56h0a5.85,5.85,0,0,1-.79.11h.79v15.57h73.77V96.67Z"/><path id="_Trazado_43" data-name="&lt;Trazado&gt;" class="cls-28" d="M146.87,98.83c-4.61-1.1-.5-2.4-.5-2.4a15.27,15.27,0,0,0-9.33.73,19,19,0,0,1-4.5,1.56h-1.22c-3.91-1.08-.07-2.29-.07-2.29a15.27,15.27,0,0,0-9.33.73,19,19,0,0,1-4.49,1.56h-1.22c-3.91-1.08-.07-2.29-.07-2.29a15.27,15.27,0,0,0-9.33.73,19,19,0,0,1-4.49,1.56H101.1c-3.91-1.08-.07-2.29-.07-2.29a15.27,15.27,0,0,0-9.33.73,19,19,0,0,1-4.5,1.56H86c-3.91-1.08-.07-2.29-.07-2.29a15.27,15.27,0,0,0-9.33.73,19,19,0,0,1-4.49,1.56h0a5.85,5.85,0,0,1-.79.11h.79v15.58h73.77V98.83Z"/><g id="_Grupo_11" data-name="&lt;Grupo&gt;"><path id="_Trazado_44" data-name="&lt;Trazado&gt;" class="cls-29" d="M103.67,106.66a2.25,2.25,0,0,1-1.71,1.76,1.39,1.39,0,0,1-.5,0,1.57,1.57,0,0,1-1-1c0-.13-.07-.26-.1-.4a2.21,2.21,0,0,0,.13.59,1.5,1.5,0,0,0,1,1,1.25,1.25,0,0,0,.51,0,2.24,2.24,0,0,0,1.7-1.76,2.69,2.69,0,0,0,.07-1.19A2.8,2.8,0,0,1,103.67,106.66Z"/><path id="_Trazado_45" data-name="&lt;Trazado&gt;" class="cls-30" d="M101.74,106.76c-.18-.34-.24-.5-.07-.77a.76.76,0,0,0-.28.74,1.12,1.12,0,0,0,.43.88C101.92,107.52,102,107.29,101.74,106.76Z"/><g id="_Grupo_12" data-name="&lt;Grupo&gt;"><path id="_Trazado_46" data-name="&lt;Trazado&gt;" class="cls-31" d="M98.13,107.72c.32-1.13.08-.57-1-.28s-1.62,0-1.73.2c-.28.67,0,.85.85.9S97.82,108.8,98.13,107.72Z"/><path id="_Trazado_47" data-name="&lt;Trazado&gt;" class="cls-22" d="M97.66,107.94a.41.41,0,0,1-.36.46.41.41,0,1,1-.1-.82A.4.4,0,0,1,97.66,107.94Z"/></g><path id="_Trazado_48" data-name="&lt;Trazado&gt;" class="cls-32" d="M111.76,100.65a.72.72,0,0,1-.59.82.7.7,0,0,1-.84-.55.73.73,0,0,1,1.43-.27Z"/><path id="_Trazado_49" data-name="&lt;Trazado&gt;" class="cls-32" d="M103.38,106.81a1.71,1.71,0,1,1-1.89-1.42A1.67,1.67,0,0,1,103.38,106.81Z"/><rect id="_Trazado_50" data-name="&lt;Trazado&gt;" class="cls-1" x="92.12" y="103.21" width="1.62" height="2.49" transform="translate(-46.23 117.95) rotate(-53.88)"/><g id="_Grupo_13" data-name="&lt;Grupo&gt;"><g id="_Grupo_14" data-name="&lt;Grupo&gt;"><path class="cls-33" d="M91.6,103.52s.14-1,1.88-2c0,0,1.45-.9,1.82-1a3.52,3.52,0,0,0,.91-.62c.21-.19,1-1,1-1s1.19-1.1,1.26-1.13a6.69,6.69,0,0,1,1.36-.9,13.42,13.42,0,0,1,1.6-.55,20.39,20.39,0,0,1,2.29-.54c.8-.1,3.27-.42,3.4-.42a3.61,3.61,0,0,1,2.54.54s.91.63,1.07.69.59-.16.85.24.19.2.29.87.37.6.2,1.36.13.63-.45,1.32a38.49,38.49,0,0,1-3.93,2.94l-3.65,2.42-4.58,3.06s-2.21,1.14-3.8.75-2.42-.63-3-1.27a4.21,4.21,0,0,1-1.45-3A2.86,2.86,0,0,1,91.6,103.52Z"/></g></g><path id="_Trazado_51" data-name="&lt;Trazado&gt;" class="cls-34" d="M91.2,105.38a2.78,2.78,0,0,1,.41-1.67s.14-1,1.87-2c0,0,1.45-.9,1.83-1.06a3.45,3.45,0,0,0,.91-.62c.21-.18,1-1,1-1s1.18-1.09,1.26-1.12A6.41,6.41,0,0,1,99.85,97a11.55,11.55,0,0,1,1.61-.54,19.78,19.78,0,0,1,2.28-.55l3.41-.42a3.64,3.64,0,0,1,2.53.54s.92.64,1.07.69.6-.16.86.25.19.19.29.87a3.89,3.89,0,0,0,.23.74c0-.33-.17-.42-.25-.93-.1-.67,0-.46-.29-.86s-.7-.19-.86-.25-1.07-.69-1.07-.69a3.58,3.58,0,0,0-2.53-.54c-.14,0-2.61.32-3.41.42a22.57,22.57,0,0,0-2.28.54,12.88,12.88,0,0,0-1.61.55,6.51,6.51,0,0,0-1.35.9c-.08,0-1.26,1.13-1.26,1.13s-.81.86-1,1a3.45,3.45,0,0,1-.9.62c-.38.15-1.83,1-1.83,1-1.73.93-1.87,2-1.87,2a2.82,2.82,0,0,0-.41,1.68c0,.12,0,.24,0,.36C91.21,105.5,91.21,105.44,91.2,105.38Z"/><path id="_Trazado_52" data-name="&lt;Trazado&gt;" class="cls-35" d="M110.25,97a4.39,4.39,0,0,0-1.76-1.44,11.89,11.89,0,0,0-2,.19s-1.56.16-2.06,1.15-1.42,3.24-1.42,3.24-.28.67.51.19l4.06-2,2.57-1.21S110.28,97.1,110.25,97Z"/><g id="_Grupo_15" data-name="&lt;Grupo&gt;"><g id="_Recortar_grupo_" data-name="&lt;Recortar grupo&gt;"><g class="cls-36"><path id="_Trazado_53" data-name="&lt;Trazado&gt;" class="cls-1" d="M103.12,100.45c-.07,0-.08,0-.09,0s0-.22,0-.27.92-2.27,1.42-3.24,1.86-1.06,2-1.08,0,0,0,0h0a6.11,6.11,0,0,1,.92-.18,5.93,5.93,0,0,1,1-.09A4.37,4.37,0,0,1,110.21,97s0-.07,0-.07-.06,0-.07,0h0l-2.56,1.29-4.06,2v0a1.12,1.12,0,0,1-.38.18Z"/><path id="_Trazado_54" data-name="&lt;Trazado&gt;" class="cls-37" d="M103.12,100.45c-.07,0-.08,0-.09,0s0-.22,0-.27.92-2.27,1.42-3.24,1.86-1.06,2-1.08,0,0,0,0h0a6.11,6.11,0,0,1,.92-.18,5.93,5.93,0,0,1,1-.09A4.37,4.37,0,0,1,110.21,97s0-.07,0-.07-.06,0-.07,0h0l-2.56,1.29-4.06,2v0a1.12,1.12,0,0,1-.38.18Z"/><rect id="_Trazado_55" data-name="&lt;Trazado&gt;" class="cls-38" x="105.51" y="94.74" width="0.4" height="9.55" transform="translate(-39.47 98.13) rotate(-42.73)"/><rect id="_Trazado_56" data-name="&lt;Trazado&gt;" class="cls-38" x="108.52" y="92.01" width="0.78" height="9.55" transform="translate(-36.32 108.53) rotate(-46.25)"/><path id="_Trazado_57" data-name="&lt;Trazado&gt;" class="cls-1" d="M103.12,100.45c-.07,0-.08,0-.09,0s0-.22,0-.27.92-2.27,1.42-3.24,1.86-1.06,2-1.08,0,0,0,0h0a6.11,6.11,0,0,1,.92-.18,5.93,5.93,0,0,1,1-.09A4.37,4.37,0,0,1,110.21,97s0-.07,0-.07-.06,0-.07,0h0l-2.56,1.29-4.06,2v0a1.12,1.12,0,0,1-.38.18Z"/></g></g><path id="_Trazado_58" data-name="&lt;Trazado&gt;" class="cls-35" d="M108,98.07c-.2-.6-.56-1.68-.87-2.41l-.47.07a16.14,16.14,0,0,1,.8,2.6l.07,0Z"/></g><path id="_Trazado_59" data-name="&lt;Trazado&gt;" class="cls-39" d="M92.11,103.64c-1.13-.82,4-3.27,4-3.27-.35.51,2.79.4,2.79.4a13.21,13.21,0,0,0-3.34,1.7,21,21,0,0,0-1.82,1.72A6.84,6.84,0,0,1,92.11,103.64Z"/><g id="_Grupo_16" data-name="&lt;Grupo&gt;"><path id="_Trazado_60" data-name="&lt;Trazado&gt;" class="cls-35" d="M96.92,105.88l-.29,0h0l-.2,0a2.94,2.94,0,0,1-1-.07l-.18,0v-.19a1.44,1.44,0,0,1,.25-.81,1.84,1.84,0,0,1,.68-.61,4,4,0,0,1,1.34-.39,8.75,8.75,0,0,1,1.47,0,.45.45,0,0,1,.39.27c.09.24-.08.54-.55,1A3.19,3.19,0,0,1,96.92,105.88Z"/><path id="_Trazado_61" data-name="&lt;Trazado&gt;" class="cls-40" d="M96.89,105.65l-.3,0-.21,0a3.43,3.43,0,0,1-.93-.07,1.21,1.21,0,0,1,.21-.67,1.51,1.51,0,0,1,.6-.54,3.49,3.49,0,0,1,1.25-.36,8.18,8.18,0,0,1,1.42,0s.15,0,.19.11,0,.27-.49.71A3,3,0,0,1,96.89,105.65Z"/><path id="_Trazado_62" data-name="&lt;Trazado&gt;" class="cls-22" d="M97.24,105a.42.42,0,0,1-.84.1.42.42,0,1,1,.84-.1Z"/><path id="_Trazado_63" data-name="&lt;Trazado&gt;" class="cls-22" d="M98.43,104.61a.6.6,0,0,1-.52.67.61.61,0,0,1-.67-.53.6.6,0,0,1,.52-.67A.61.61,0,0,1,98.43,104.61Z"/></g><path id="_Trazado_64" data-name="&lt;Trazado&gt;" class="cls-39" d="M94.43,105.79c-.85,1.32-1.89.89-1.89.89-1.91-.66-.57-3.06-.57-3.06a2.82,2.82,0,0,0,1.49.62,5.44,5.44,0,0,0,1.33.21S95.33,104.41,94.43,105.79Z"/><path id="_Trazado_65" data-name="&lt;Trazado&gt;" class="cls-39" d="M91.92,103.73a2.9,2.9,0,0,0,1.5.62,5.64,5.64,0,0,0,1.32.2s.31,0,.09.55c.3-.68,0-.65,0-.65a5.44,5.44,0,0,1-1.33-.21,2.82,2.82,0,0,1-1.49-.62s-.08.15-.18.38Z"/><path id="_Trazado_66" data-name="&lt;Trazado&gt;" class="cls-34" d="M94.53,105.57c-.85,1.31-1.89.88-1.89.88-1.45-.5-1-2-.74-2.7-.24.5-1,2.36.64,2.93,0,0,1,.43,1.89-.89a4.28,4.28,0,0,0,.44-.8C94.79,105.14,94.68,105.34,94.53,105.57Z"/><g id="_Recortar_grupo_2" data-name="&lt;Recortar grupo&gt;"><g class="cls-41"><path id="_Trazado_67" data-name="&lt;Trazado&gt;" class="cls-42" d="M92,103.77s-.58,1.68.7,2.24a1.24,1.24,0,0,0,1.58,0,2.65,2.65,0,0,0,.56-1.17c0-.33-.4-.22-1-.33A5.13,5.13,0,0,1,92,103.77Z"/><g id="_Grupo_17" data-name="&lt;Grupo&gt;"><rect id="_Trazado_68" data-name="&lt;Trazado&gt;" class="cls-43" x="94.06" y="105.29" width="2.49" height="0.06" transform="translate(-35.62 160.39) rotate(-70.67)"/><polygon id="_Trazado_69" data-name="&lt;Trazado&gt;" class="cls-43" points="94.53 106.41 94.49 106.4 95.29 104.04 95.33 104.05 94.53 106.41"/><polygon id="_Trazado_70" data-name="&lt;Trazado&gt;" class="cls-43" points="94.39 106.4 94.35 106.38 95.15 104.02 95.19 104.04 94.39 106.4"/><polygon id="_Trazado_71" data-name="&lt;Trazado&gt;" class="cls-43" points="94.25 106.38 94.21 106.37 95.01 104.01 95.05 104.02 94.25 106.38"/><polygon id="_Trazado_72" data-name="&lt;Trazado&gt;" class="cls-43" points="94.12 106.37 94.08 106.35 94.87 103.99 94.92 104 94.12 106.37"/><polygon id="_Trazado_73" data-name="&lt;Trazado&gt;" class="cls-43" points="93.98 106.35 93.94 106.34 94.74 103.97 94.78 103.99 93.98 106.35"/><polygon id="_Trazado_74" data-name="&lt;Trazado&gt;" class="cls-43" points="93.84 106.33 93.8 106.32 94.6 103.96 94.64 103.97 93.84 106.33"/><polygon id="_Trazado_75" data-name="&lt;Trazado&gt;" class="cls-43" points="93.7 106.32 93.66 106.31 94.46 103.94 94.5 103.96 93.7 106.32"/><polygon id="_Trazado_76" data-name="&lt;Trazado&gt;" class="cls-43" points="93.57 106.3 93.53 106.29 94.32 103.93 94.37 103.94 93.57 106.3"/><polygon id="_Trazado_77" data-name="&lt;Trazado&gt;" class="cls-43" points="93.43 106.29 93.39 106.27 94.19 103.91 94.23 103.93 93.43 106.29"/><polygon id="_Trazado_78" data-name="&lt;Trazado&gt;" class="cls-43" points="93.29 106.27 93.25 106.26 94.05 103.9 94.09 103.91 93.29 106.27"/><polygon id="_Trazado_79" data-name="&lt;Trazado&gt;" class="cls-43" points="93.16 106.26 93.11 106.24 93.91 103.88 93.95 103.89 93.16 106.26"/><polygon id="_Trazado_80" data-name="&lt;Trazado&gt;" class="cls-43" points="93.02 106.24 92.98 106.23 93.78 103.86 93.82 103.88 93.02 106.24"/><polygon id="_Trazado_81" data-name="&lt;Trazado&gt;" class="cls-43" points="92.88 106.22 92.84 106.21 93.64 103.85 93.68 103.86 92.88 106.22"/><rect id="_Trazado_82" data-name="&lt;Trazado&gt;" class="cls-43" x="91.88" y="105" width="2.49" height="0.05" transform="translate(-36.24 159.48) rotate(-71.27)"/><polygon id="_Trazado_83" data-name="&lt;Trazado&gt;" class="cls-43" points="92.61 106.19 92.56 106.18 93.36 103.82 93.41 103.83 92.61 106.19"/><polygon id="_Trazado_84" data-name="&lt;Trazado&gt;" class="cls-43" points="92.47 106.18 92.43 106.16 93.22 103.8 93.27 103.82 92.47 106.18"/><polygon id="_Trazado_85" data-name="&lt;Trazado&gt;" class="cls-43" points="92.33 106.16 92.29 106.15 93.09 103.79 93.13 103.8 92.33 106.16"/><polygon id="_Trazado_86" data-name="&lt;Trazado&gt;" class="cls-43" points="92.19 106.15 92.15 106.13 92.95 103.77 92.99 103.78 92.19 106.15"/><polygon id="_Trazado_87" data-name="&lt;Trazado&gt;" class="cls-43" points="92.06 106.13 92.02 106.12 92.81 103.75 92.86 103.77 92.06 106.13"/><polygon id="_Trazado_88" data-name="&lt;Trazado&gt;" class="cls-43" points="91.92 106.11 91.88 106.1 92.68 103.74 92.72 103.75 91.92 106.11"/><polygon id="_Trazado_89" data-name="&lt;Trazado&gt;" class="cls-43" points="91.78 106.1 91.74 106.08 92.54 103.72 92.58 103.74 91.78 106.1"/><polygon id="_Trazado_90" data-name="&lt;Trazado&gt;" class="cls-43" points="91.64 106.08 91.6 106.07 92.4 103.71 92.44 103.72 91.64 106.08"/><polygon id="_Trazado_91" data-name="&lt;Trazado&gt;" class="cls-43" points="91.51 106.07 91.47 106.05 92.27 103.69 92.31 103.71 91.51 106.07"/><polygon id="_Trazado_92" data-name="&lt;Trazado&gt;" class="cls-43" points="91.37 106.05 91.33 106.04 92.13 103.67 92.17 103.69 91.37 106.05"/><polygon id="_Trazado_93" data-name="&lt;Trazado&gt;" class="cls-43" points="91.23 106.04 91.19 106.02 91.99 103.66 92.03 103.67 91.23 106.04"/><polygon id="_Trazado_94" data-name="&lt;Trazado&gt;" class="cls-43" points="91.23 106.04 91.19 106.02 91.99 103.66 92.03 103.67 91.23 106.04"/><rect id="_Trazado_95" data-name="&lt;Trazado&gt;" class="cls-43" x="93.93" y="105.23" width="2.49" height="0.06" transform="translate(-35.04 161.65) rotate(-71.29)"/><polygon id="_Trazado_96" data-name="&lt;Trazado&gt;" class="cls-43" points="94.67 106.43 94.62 106.42 95.42 104.05 95.47 104.07 94.67 106.43"/><polygon id="_Trazado_97" data-name="&lt;Trazado&gt;" class="cls-43" points="94.53 106.41 94.49 106.4 95.29 104.04 95.33 104.05 94.53 106.41"/><polygon id="_Trazado_98" data-name="&lt;Trazado&gt;" class="cls-43" points="94.39 106.4 94.35 106.38 95.15 104.02 95.19 104.04 94.39 106.4"/><polygon id="_Trazado_99" data-name="&lt;Trazado&gt;" class="cls-43" points="94.25 106.38 94.21 106.37 95.01 104.01 95.05 104.02 94.25 106.38"/><polygon id="_Trazado_100" data-name="&lt;Trazado&gt;" class="cls-43" points="94.12 106.37 94.08 106.35 94.87 103.99 94.92 104 94.12 106.37"/><polygon id="_Trazado_101" data-name="&lt;Trazado&gt;" class="cls-43" points="93.98 106.35 93.94 106.34 94.74 103.97 94.78 103.99 93.98 106.35"/><polygon id="_Trazado_102" data-name="&lt;Trazado&gt;" class="cls-43" points="93.84 106.33 93.8 106.32 94.6 103.96 94.64 103.97 93.84 106.33"/><polygon id="_Trazado_103" data-name="&lt;Trazado&gt;" class="cls-43" points="93.7 106.32 93.66 106.31 94.46 103.94 94.5 103.96 93.7 106.32"/><polygon id="_Trazado_104" data-name="&lt;Trazado&gt;" class="cls-43" points="93.57 106.3 93.53 106.29 94.32 103.93 94.37 103.94 93.57 106.3"/><polygon id="_Trazado_105" data-name="&lt;Trazado&gt;" class="cls-43" points="93.43 106.29 93.39 106.27 94.19 103.91 94.23 103.93 93.43 106.29"/><polygon id="_Trazado_106" data-name="&lt;Trazado&gt;" class="cls-43" points="93.29 106.27 93.25 106.26 94.05 103.9 94.09 103.91 93.29 106.27"/><polygon id="_Trazado_107" data-name="&lt;Trazado&gt;" class="cls-43" points="93.16 106.26 93.11 106.24 93.91 103.88 93.95 103.89 93.16 106.26"/><polygon id="_Trazado_108" data-name="&lt;Trazado&gt;" class="cls-43" points="93.02 106.24 92.98 106.23 93.78 103.86 93.82 103.88 93.02 106.24"/><polygon id="_Trazado_109" data-name="&lt;Trazado&gt;" class="cls-43" points="92.88 106.22 92.84 106.21 93.64 103.85 93.68 103.86 92.88 106.22"/><rect id="_Trazado_110" data-name="&lt;Trazado&gt;" class="cls-43" x="91.88" y="105" width="2.49" height="0.05" transform="translate(-36.24 159.48) rotate(-71.27)"/><polygon id="_Trazado_111" data-name="&lt;Trazado&gt;" class="cls-43" points="92.61 106.19 92.56 106.18 93.36 103.82 93.41 103.83 92.61 106.19"/><polygon id="_Trazado_112" data-name="&lt;Trazado&gt;" class="cls-43" points="92.47 106.18 92.43 106.16 93.22 103.8 93.27 103.82 92.47 106.18"/><polygon id="_Trazado_113" data-name="&lt;Trazado&gt;" class="cls-43" points="92.33 106.16 92.29 106.15 93.09 103.79 93.13 103.8 92.33 106.16"/><polygon id="_Trazado_114" data-name="&lt;Trazado&gt;" class="cls-43" points="92.19 106.15 92.15 106.13 92.95 103.77 92.99 103.78 92.19 106.15"/><polygon id="_Trazado_115" data-name="&lt;Trazado&gt;" class="cls-43" points="92.06 106.13 92.02 106.12 92.81 103.75 92.86 103.77 92.06 106.13"/><polygon id="_Trazado_116" data-name="&lt;Trazado&gt;" class="cls-43" points="91.92 106.11 91.88 106.1 92.68 103.74 92.72 103.75 91.92 106.11"/><polygon id="_Trazado_117" data-name="&lt;Trazado&gt;" class="cls-43" points="91.78 106.1 91.74 106.08 92.54 103.72 92.58 103.74 91.78 106.1"/><polygon id="_Trazado_118" data-name="&lt;Trazado&gt;" class="cls-43" points="91.64 106.08 91.6 106.07 92.4 103.71 92.44 103.72 91.64 106.08"/><polygon id="_Trazado_119" data-name="&lt;Trazado&gt;" class="cls-43" points="91.51 106.07 91.47 106.05 92.27 103.69 92.31 103.71 91.51 106.07"/><polygon id="_Trazado_120" data-name="&lt;Trazado&gt;" class="cls-43" points="91.37 106.05 91.33 106.04 92.13 103.67 92.17 103.69 91.37 106.05"/><polygon id="_Trazado_121" data-name="&lt;Trazado&gt;" class="cls-43" points="91.23 106.04 91.19 106.02 91.99 103.66 92.03 103.67 91.23 106.04"/><polygon id="_Trazado_122" data-name="&lt;Trazado&gt;" class="cls-43" points="91.23 106.04 91.19 106.02 91.99 103.66 92.03 103.67 91.23 106.04"/></g><g id="_Grupo_18" data-name="&lt;Grupo&gt;"><polygon id="_Trazado_123" data-name="&lt;Trazado&gt;" class="cls-43" points="92.42 107.33 92.47 107.3 90.38 104.11 90.32 104.14 92.42 107.33"/><polygon id="_Trazado_124" data-name="&lt;Trazado&gt;" class="cls-43" points="92.85 107.16 92.9 107.14 90.8 103.94 90.76 103.97 92.85 107.16"/><polygon id="_Trazado_125" data-name="&lt;Trazado&gt;" class="cls-43" points="93.01 107.13 93.05 107.1 90.95 103.91 90.91 103.93 93.01 107.13"/><polygon id="_Trazado_126" data-name="&lt;Trazado&gt;" class="cls-43" points="93.16 107.09 93.2 107.07 91.11 103.87 91.07 103.89 93.16 107.09"/><polygon id="_Trazado_127" data-name="&lt;Trazado&gt;" class="cls-43" points="93.32 107.06 93.36 107.03 91.26 103.83 91.22 103.86 93.32 107.06"/><polygon id="_Trazado_128" data-name="&lt;Trazado&gt;" class="cls-43" points="93.47 107.02 93.51 106.99 91.42 103.8 91.38 103.82 93.47 107.02"/><polygon id="_Trazado_129" data-name="&lt;Trazado&gt;" class="cls-43" points="93.63 106.98 93.67 106.96 91.57 103.76 91.53 103.79 93.63 106.98"/><polygon id="_Trazado_130" data-name="&lt;Trazado&gt;" class="cls-43" points="93.78 106.95 93.82 106.92 91.73 103.72 91.68 103.75 93.78 106.95"/><polygon id="_Trazado_131" data-name="&lt;Trazado&gt;" class="cls-43" points="93.94 106.91 93.98 106.89 91.88 103.69 91.84 103.71 93.94 106.91"/><polygon id="_Trazado_132" data-name="&lt;Trazado&gt;" class="cls-43" points="94.09 106.87 94.13 106.85 92.04 103.65 91.99 103.68 94.09 106.87"/><polygon id="_Trazado_133" data-name="&lt;Trazado&gt;" class="cls-43" points="94.24 106.84 94.29 106.81 92.19 103.62 92.15 103.64 94.24 106.84"/><polygon id="_Trazado_134" data-name="&lt;Trazado&gt;" class="cls-43" points="94.4 106.8 94.44 106.78 92.34 103.58 92.3 103.6 94.4 106.8"/><polygon id="_Trazado_135" data-name="&lt;Trazado&gt;" class="cls-43" points="94.55 106.77 94.59 106.74 92.5 103.54 92.46 103.57 94.55 106.77"/><polygon id="_Trazado_136" data-name="&lt;Trazado&gt;" class="cls-43" points="94.71 106.73 94.75 106.7 92.65 103.51 92.61 103.53 94.71 106.73"/><polygon id="_Trazado_137" data-name="&lt;Trazado&gt;" class="cls-43" points="94.86 106.69 94.9 106.67 92.81 103.47 92.77 103.5 94.86 106.69"/><polygon id="_Trazado_138" data-name="&lt;Trazado&gt;" class="cls-43" points="95.02 106.66 95.06 106.63 92.96 103.44 92.92 103.46 95.02 106.66"/><polygon id="_Trazado_139" data-name="&lt;Trazado&gt;" class="cls-43" points="95.17 106.62 95.21 106.59 93.12 103.4 93.07 103.42 95.17 106.62"/><polygon id="_Trazado_140" data-name="&lt;Trazado&gt;" class="cls-43" points="95.33 106.58 95.37 106.56 93.27 103.36 93.23 103.39 95.33 106.58"/><polygon id="_Trazado_141" data-name="&lt;Trazado&gt;" class="cls-43" points="95.48 106.55 95.52 106.52 93.43 103.33 93.38 103.35 95.48 106.55"/><polygon id="_Trazado_142" data-name="&lt;Trazado&gt;" class="cls-43" points="95.63 106.51 95.68 106.49 93.58 103.29 93.54 103.31 95.63 106.51"/><polygon id="_Trazado_143" data-name="&lt;Trazado&gt;" class="cls-43" points="95.79 106.47 95.83 106.45 93.73 103.25 93.69 103.28 95.79 106.47"/><polygon id="_Trazado_144" data-name="&lt;Trazado&gt;" class="cls-43" points="95.94 106.44 95.98 106.41 93.89 103.22 93.85 103.24 95.94 106.44"/><polygon id="_Trazado_145" data-name="&lt;Trazado&gt;" class="cls-43" points="96.1 106.4 96.14 106.38 94.04 103.18 94 103.2 96.1 106.4"/><polygon id="_Trazado_146" data-name="&lt;Trazado&gt;" class="cls-43" points="96.25 106.37 96.3 106.34 94.2 103.14 94.16 103.17 96.25 106.37"/><polygon id="_Trazado_147" data-name="&lt;Trazado&gt;" class="cls-43" points="96.41 106.33 96.45 106.31 94.35 103.11 94.31 103.13 96.41 106.33"/><polygon id="_Trazado_148" data-name="&lt;Trazado&gt;" class="cls-43" points="96.56 106.29 96.6 106.27 94.51 103.07 94.46 103.1 96.56 106.29"/><polygon id="_Trazado_149" data-name="&lt;Trazado&gt;" class="cls-43" points="96.56 106.29 96.6 106.27 94.51 103.07 94.46 103.1 96.56 106.29"/><polygon id="_Trazado_150" data-name="&lt;Trazado&gt;" class="cls-43" points="92.55 107.23 92.6 107.2 90.5 104.01 90.45 104.04 92.55 107.23"/><polygon id="_Trazado_151" data-name="&lt;Trazado&gt;" class="cls-43" points="92.7 107.2 92.74 107.17 90.65 103.98 90.6 104 92.7 107.2"/><polygon id="_Trazado_152" data-name="&lt;Trazado&gt;" class="cls-43" points="92.85 107.16 92.9 107.14 90.8 103.94 90.76 103.97 92.85 107.16"/><polygon id="_Trazado_153" data-name="&lt;Trazado&gt;" class="cls-43" points="93.01 107.13 93.05 107.1 90.95 103.91 90.91 103.93 93.01 107.13"/><polygon id="_Trazado_154" data-name="&lt;Trazado&gt;" class="cls-43" points="93.16 107.09 93.2 107.07 91.11 103.87 91.07 103.89 93.16 107.09"/><polygon id="_Trazado_155" data-name="&lt;Trazado&gt;" class="cls-43" points="93.32 107.06 93.36 107.03 91.26 103.83 91.22 103.86 93.32 107.06"/><polygon id="_Trazado_156" data-name="&lt;Trazado&gt;" class="cls-43" points="93.47 107.02 93.51 106.99 91.42 103.8 91.38 103.82 93.47 107.02"/><polygon id="_Trazado_157" data-name="&lt;Trazado&gt;" class="cls-43" points="93.63 106.98 93.67 106.96 91.57 103.76 91.53 103.79 93.63 106.98"/><polygon id="_Trazado_158" data-name="&lt;Trazado&gt;" class="cls-43" points="93.78 106.95 93.82 106.92 91.73 103.72 91.68 103.75 93.78 106.95"/><polygon id="_Trazado_159" data-name="&lt;Trazado&gt;" class="cls-43" points="93.94 106.91 93.98 106.89 91.88 103.69 91.84 103.71 93.94 106.91"/><polygon id="_Trazado_160" data-name="&lt;Trazado&gt;" class="cls-43" points="94.09 106.87 94.13 106.85 92.04 103.65 91.99 103.68 94.09 106.87"/><polygon id="_Trazado_161" data-name="&lt;Trazado&gt;" class="cls-43" points="94.24 106.84 94.29 106.81 92.19 103.62 92.15 103.64 94.24 106.84"/><polygon id="_Trazado_162" data-name="&lt;Trazado&gt;" class="cls-43" points="94.4 106.8 94.44 106.78 92.34 103.58 92.3 103.6 94.4 106.8"/><polygon id="_Trazado_163" data-name="&lt;Trazado&gt;" class="cls-43" points="94.55 106.77 94.59 106.74 92.5 103.54 92.46 103.57 94.55 106.77"/><polygon id="_Trazado_164" data-name="&lt;Trazado&gt;" class="cls-43" points="94.71 106.73 94.75 106.7 92.65 103.51 92.61 103.53 94.71 106.73"/><polygon id="_Trazado_165" data-name="&lt;Trazado&gt;" class="cls-43" points="94.86 106.69 94.9 106.67 92.81 103.47 92.77 103.5 94.86 106.69"/><polygon id="_Trazado_166" data-name="&lt;Trazado&gt;" class="cls-43" points="95.02 106.66 95.06 106.63 92.96 103.44 92.92 103.46 95.02 106.66"/><polygon id="_Trazado_167" data-name="&lt;Trazado&gt;" class="cls-43" points="95.33 106.58 95.37 106.56 93.27 103.36 93.23 103.39 95.33 106.58"/><polygon id="_Trazado_168" data-name="&lt;Trazado&gt;" class="cls-43" points="95.48 106.55 95.52 106.52 93.43 103.33 93.38 103.35 95.48 106.55"/><polygon id="_Trazado_169" data-name="&lt;Trazado&gt;" class="cls-43" points="95.63 106.51 95.68 106.49 93.58 103.29 93.54 103.31 95.63 106.51"/><polygon id="_Trazado_170" data-name="&lt;Trazado&gt;" class="cls-43" points="95.79 106.47 95.83 106.45 93.73 103.25 93.69 103.28 95.79 106.47"/><polygon id="_Trazado_171" data-name="&lt;Trazado&gt;" class="cls-43" points="95.94 106.44 95.98 106.41 93.89 103.22 93.85 103.24 95.94 106.44"/><polygon id="_Trazado_172" data-name="&lt;Trazado&gt;" class="cls-43" points="96.1 106.4 96.14 106.38 94.04 103.18 94 103.2 96.1 106.4"/><polygon id="_Trazado_173" data-name="&lt;Trazado&gt;" class="cls-43" points="96.25 106.37 96.3 106.34 94.2 103.14 94.16 103.17 96.25 106.37"/><polygon id="_Trazado_174" data-name="&lt;Trazado&gt;" class="cls-43" points="96.41 106.33 96.45 106.31 94.35 103.11 94.31 103.13 96.41 106.33"/><polygon id="_Trazado_175" data-name="&lt;Trazado&gt;" class="cls-43" points="96.56 106.29 96.6 106.27 94.51 103.07 94.46 103.1 96.56 106.29"/><polygon id="_Trazado_176" data-name="&lt;Trazado&gt;" class="cls-43" points="96.56 106.29 96.6 106.27 94.51 103.07 94.46 103.1 96.56 106.29"/></g></g></g><g id="_Grupo_19" data-name="&lt;Grupo&gt;"><path id="_Trazado_compuesto_" data-name="&lt;Trazado compuesto&gt;" class="cls-35" d="M101.32,100.53a1.83,1.83,0,0,1-.34,0c-.27,0-.69,0-1.18,0-1.76,0-3.24.05-3.49-.21a.1.1,0,0,1,0-.09c0-.29,1-1.15,1.16-1.26h0a9.92,9.92,0,0,1,2.21-1.84,14.07,14.07,0,0,1,2.65-.48l1.82-.2h.09l0,.07s-1.38,2.36-1.85,3.4h0a1,1,0,0,1-.26.31A1.51,1.51,0,0,1,101.32,100.53Zm1-3.76a14.83,14.83,0,0,0-2.64.47,9.71,9.71,0,0,0-2.18,1.83h0c-.45.37-1.12,1-1.13,1.2v0c.26.26,2.18.21,3.44.18.49,0,.91,0,1.18,0l.33,0a1.34,1.34,0,0,0,.67-.24,1,1,0,0,0,.24-.27h0c.43-.94,1.58-2.93,1.82-3.33Z"/><g id="_Recortar_grupo_3" data-name="&lt;Recortar grupo&gt;"><g class="cls-44"><path id="_Trazado_177" data-name="&lt;Trazado&gt;" class="cls-37" d="M102.26,100h0c.48-1.06,1.86-3.4,1.86-3.4a32.4,32.4,0,0,0-4.47.66A11.87,11.87,0,0,0,97.46,99s-1.31,1.1-1.12,1.29c.36.37,3.6.16,4.64.18s1.28-.57,1.28-.57"/><rect id="_Trazado_178" data-name="&lt;Trazado&gt;" class="cls-38" x="100.33" y="92.76" width="0.65" height="10.97" transform="translate(-34.85 60.55) rotate(-28.76)"/><rect id="_Trazado_179" data-name="&lt;Trazado&gt;" class="cls-38" x="99.08" y="93.52" width="0.19" height="10.97" transform="translate(-35.4 59.93) rotate(-28.76)"/><path id="_Trazado_180" data-name="&lt;Trazado&gt;" class="cls-1" d="M102.26,100h0c.48-1.06,1.86-3.4,1.86-3.4a32.4,32.4,0,0,0-4.47.66A11.87,11.87,0,0,0,97.46,99s-1.31,1.1-1.12,1.29c.36.37,3.6.16,4.64.18s1.28-.57,1.28-.57"/></g></g></g><path id="_Trazado_181" data-name="&lt;Trazado&gt;" class="cls-45" d="M103.87,105.19a1.73,1.73,0,0,0-1.15-1.16,1.56,1.56,0,0,0-.57,0,2.55,2.55,0,0,0-1.93,2,3.05,3.05,0,0,0,0,1.8,1.77,1.77,0,0,0,.16.34l3.58-2.41A2.19,2.19,0,0,0,103.87,105.19Z"/><path id="_Trazado_182" data-name="&lt;Trazado&gt;" class="cls-46" d="M102,108.61a1.44,1.44,0,0,1-.51,0,1.54,1.54,0,0,1-1-1,2.68,2.68,0,0,1,0-1.59,2.24,2.24,0,0,1,1.7-1.76,1.44,1.44,0,0,1,.51,0,1.53,1.53,0,0,1,1,1,2.65,2.65,0,0,1,0,1.58A2.24,2.24,0,0,1,102,108.61Z"/><path id="_Trazado_183" data-name="&lt;Trazado&gt;" class="cls-46" d="M102,108.61a1.44,1.44,0,0,1-.51,0,1.54,1.54,0,0,1-1-1,2.68,2.68,0,0,1,0-1.59,2.24,2.24,0,0,1,1.7-1.76,1.44,1.44,0,0,1,.51,0,1.53,1.53,0,0,1,1,1,2.65,2.65,0,0,1,0,1.58A2.24,2.24,0,0,1,102,108.61Z"/><path id="_Trazado_184" data-name="&lt;Trazado&gt;" class="cls-47" d="M102,108.61a1.44,1.44,0,0,1-.51,0,1.54,1.54,0,0,1-1-1,2.68,2.68,0,0,1,0-1.59,2.24,2.24,0,0,1,1.7-1.76,1.44,1.44,0,0,1,.51,0,1.53,1.53,0,0,1,1,1,2.65,2.65,0,0,1,0,1.58A2.24,2.24,0,0,1,102,108.61Z"/><path id="_Trazado_185" data-name="&lt;Trazado&gt;" class="cls-32" d="M100.46,106.17a2.26,2.26,0,0,1,1.71-1.77,1.47,1.47,0,0,1,.51,0,1.56,1.56,0,0,1,1,1c0,.13.07.26.1.4a2.21,2.21,0,0,0-.13-.59,1.53,1.53,0,0,0-1-1,1.44,1.44,0,0,0-.51,0,2.24,2.24,0,0,0-1.7,1.76,2.84,2.84,0,0,0-.07,1.19A2.8,2.8,0,0,1,100.46,106.17Z"/><path id="_Trazado_186" data-name="&lt;Trazado&gt;" class="cls-48" d="M103.13,106.7c-.23.85-.9,1.42-1.48,1.26s-.88-1-.65-1.84.9-1.42,1.48-1.26S103.36,105.84,103.13,106.7Z"/><path id="_Trazado_187" data-name="&lt;Trazado&gt;" class="cls-49" d="M101.87,107.67a.32.32,0,0,1-.14,0,.66.66,0,0,1-.37-.42,1.77,1.77,0,0,1,0-1,1.35,1.35,0,0,1,.9-1.07.32.32,0,0,1,.14,0,.66.66,0,0,1,.37.42,1.77,1.77,0,0,1,0,1A1.35,1.35,0,0,1,101.87,107.67Z"/><path id="_Trazado_188" data-name="&lt;Trazado&gt;" class="cls-50" d="M102.63,106.48a.77.77,0,0,0-.24-1.2A5.91,5.91,0,0,1,102.63,106.48Z"/><g id="_Grupo_20" data-name="&lt;Grupo&gt;"><path id="_Trazado_189" data-name="&lt;Trazado&gt;" class="cls-45" d="M111.92,100a.76.76,0,0,0-.52-.46h-.25a1.09,1.09,0,0,0-.76.91,1.29,1.29,0,0,0,.07.76.67.67,0,0,0,.06.12,8.39,8.39,0,0,0,1.12-1,2.36,2.36,0,0,0,.28-.37Z"/><path id="_Trazado_190" data-name="&lt;Trazado&gt;" class="cls-47" d="M111.22,101.45a.41.41,0,0,1-.22,0,.65.65,0,0,1-.46-.4,1.11,1.11,0,0,1-.06-.68,1,1,0,0,1,.68-.8h.21a.65.65,0,0,1,.46.41,1.07,1.07,0,0,1,.06.67A1,1,0,0,1,111.22,101.45Z"/><path id="_Trazado_191" data-name="&lt;Trazado&gt;" class="cls-32" d="M110.49,100.44a1,1,0,0,1,.67-.8.81.81,0,0,1,.22,0,.65.65,0,0,1,.46.41.66.66,0,0,1,.07.25.84.84,0,0,0-.08-.32.65.65,0,0,0-.46-.41h-.21a1,1,0,0,0-.68.8,1.25,1.25,0,0,0,0,.43A1.45,1.45,0,0,1,110.49,100.44Z"/><path id="_Trazado_192" data-name="&lt;Trazado&gt;" class="cls-48" d="M111.65,100.6c-.07.37-.34.63-.6.58s-.4-.39-.32-.76.34-.63.59-.58S111.72,100.23,111.65,100.6Z"/><path id="_Trazado_193" data-name="&lt;Trazado&gt;" class="cls-49" d="M111.14,101.05h-.06c-.09,0-.14-.12-.17-.17a.8.8,0,0,1,0-.44.56.56,0,0,1,.35-.48h.06a.24.24,0,0,1,.17.17.77.77,0,0,1,0,.43A.58.58,0,0,1,111.14,101.05Z"/><path id="_Trazado_194" data-name="&lt;Trazado&gt;" class="cls-51" d="M111.05,100.65c-.08-.14-.11-.2,0-.32a.32.32,0,0,0-.1.32.5.5,0,0,0,.21.36S111.19,100.87,111.05,100.65Z"/><path id="_Trazado_195" data-name="&lt;Trazado&gt;" class="cls-52" d="M111.43,100.53a.33.33,0,0,0,.06-.22.33.33,0,0,0-.2-.29A2.64,2.64,0,0,1,111.43,100.53Z"/></g><path id="_Trazado_196" data-name="&lt;Trazado&gt;" class="cls-53" d="M109.47,101a3.79,3.79,0,0,1-1.18,1.24c-.82.48-1.47,1.12-2.27,1.65l-.39.28,3.88-2.57a2.19,2.19,0,0,1,0-.7A.28.28,0,0,0,109.47,101Z"/><path id="_Trazado_197" data-name="&lt;Trazado&gt;" class="cls-39" d="M111.49,98.3l-10.6,5.64,0,.17s2.68-1.19,3.29,1l1.43-.94.39-.28c.8-.53,1.45-1.17,2.27-1.65a3.79,3.79,0,0,0,1.18-1.24.28.28,0,0,1,.09-.1A4.23,4.23,0,0,1,111.49,98.3Z"/><path id="_Trazado_198" data-name="&lt;Trazado&gt;" class="cls-34" d="M100.81,103.75a2.81,2.81,0,0,1,.84-2c.86-.68,9-4.72,9-4.72s.5-.36.68,0a.87.87,0,0,1,0,.84c-.1.32-1,.85-1,.85Z"/><path id="_Trazado_199" data-name="&lt;Trazado&gt;" class="cls-39" d="M92,106.73c-.28-.36,3.63,1.48,8.5-2a3.09,3.09,0,0,0-.48,3.31s-2.75,1.88-5,.88S93.36,108.43,92,106.73Z"/><path id="_Trazado_200" data-name="&lt;Trazado&gt;" class="cls-53" d="M100.53,104.74c-.3.21-.59.4-.87.58a3.62,3.62,0,0,0-.23,2.4,4.84,4.84,0,0,0,.23.57c.25-.14.39-.24.39-.24A3.09,3.09,0,0,1,100.53,104.74Z"/><g id="_Grupo_21" data-name="&lt;Grupo&gt;"><path id="_Trazado_201" data-name="&lt;Trazado&gt;" class="cls-54" d="M103.48,100.51a23.15,23.15,0,0,1,.89,3.91s-.16.76.73.11l2-1.26,1.34-.88s.34-2.71-.48-4.1Z"/><path id="_Trazado_202" data-name="&lt;Trazado&gt;" class="cls-54" d="M108,98.26l2.49-1.21a2.68,2.68,0,0,1,.15,2.36c-.5,1.46-.5,1.78-.94,2.12s-1.17.81-1.17.81a12.69,12.69,0,0,0,0-2.16A4.51,4.51,0,0,0,108,98.26Z"/></g><g id="_Grupo_22" data-name="&lt;Grupo&gt;"><path id="_Trazado_203" data-name="&lt;Trazado&gt;" class="cls-33" d="M104.93,100c0,.24,0,.42-.26.45l-1.36.16c-.26,0-.43-.12-.38-.37l.06-.36a.66.66,0,0,1,.54-.51l.92-.14c.25,0,.4.14.43.39Z"/><path id="_Trazado_204" data-name="&lt;Trazado&gt;" class="cls-39" d="M104.65,100.27l-1.36.16a.32.32,0,0,1-.37-.18.31.31,0,0,0,.39.34l1.36-.16c.25,0,.29-.21.26-.45l0-.16C104.94,100.07,104.9,100.24,104.65,100.27Z"/><path id="_Trazado_205" data-name="&lt;Trazado&gt;" class="cls-34" d="M104.45,99.21l-.92.14a.66.66,0,0,0-.54.51l-.06.36a.3.3,0,0,0,0,.19v0L103,100a.66.66,0,0,1,.54-.5l.92-.14c.25,0,.4.14.43.39l0-.16C104.85,99.35,104.7,99.17,104.45,99.21Z"/></g><g id="_Grupo_23" data-name="&lt;Grupo&gt;"><g id="_Grupo_24" data-name="&lt;Grupo&gt;"><path id="_Trazado_206" data-name="&lt;Trazado&gt;" class="cls-35" d="M110.24,98.27a.16.16,0,1,1-.22,0A.15.15,0,0,1,110.24,98.27Z"/><path id="_Trazado_207" data-name="&lt;Trazado&gt;" class="cls-48" d="M110.38,98.21a.06.06,0,0,1,0,.07l-.49.25s-.05,0-.07,0h0a.07.07,0,0,1,0-.07l.48-.25a.06.06,0,0,1,.07,0Z"/><path id="_Trazado_208" data-name="&lt;Trazado&gt;" class="cls-55" d="M109.89,98.45s0,0,0,0a0,0,0,0,1,0,0,0,0,0,0,1,0,0Z"/></g><g id="_Grupo_25" data-name="&lt;Grupo&gt;"><path id="_Trazado_209" data-name="&lt;Trazado&gt;" class="cls-35" d="M107.48,99.69a.15.15,0,0,1,0,.22.16.16,0,0,1-.22,0,.16.16,0,0,1,.05-.22A.15.15,0,0,1,107.48,99.69Z"/><path id="_Trazado_210" data-name="&lt;Trazado&gt;" class="cls-48" d="M107.62,99.63a.06.06,0,0,1,0,.07l-.49.25s0,0-.07,0h0a.07.07,0,0,1,0-.07l.48-.25a.07.07,0,0,1,.08,0Z"/><path id="_Trazado_211" data-name="&lt;Trazado&gt;" class="cls-55" d="M107.13,99.87s0,0,0,0a0,0,0,0,1,0,0,0,0,0,0,1,0,0Z"/></g></g><path id="_Trazado_212" data-name="&lt;Trazado&gt;" class="cls-53" d="M98.3,107.67c.33-1.17.09-.59-1-.28s-1.69,0-1.79.2c-.3.69,0,.88.87.93S98,108.79,98.3,107.67Z"/><path id="_Trazado_213" data-name="&lt;Trazado&gt;" class="cls-22" d="M97.74,107.91a.35.35,0,1,1-.69.08.35.35,0,0,1,.69-.08Z"/><g id="_Grupo_26" data-name="&lt;Grupo&gt;"><path id="_Trazado_214" data-name="&lt;Trazado&gt;" class="cls-56" d="M111.89,97.65q0-.14,0-.24c-.17,0-.26.19-.21.32l.11.28a.32.32,0,0,0,.28.16A2.23,2.23,0,0,1,111.89,97.65Z"/><path id="_Trazado_215" data-name="&lt;Trazado&gt;" class="cls-38" d="M111.89,97.65v-.06c-.1,0-.16.08-.12.17l.08.15a.19.19,0,0,0,.14.1A2.66,2.66,0,0,1,111.89,97.65Z"/></g></g><path class="cls-7" d="M135.36,102.49a2.83,2.83,0,0,1-1.13,1.41L116,103.1c-1.93,0-1.8-.51-1.8-.51a1,1,0,0,0,.06-.74,4.34,4.34,0,0,1,0-.84,1.24,1.24,0,0,1,.47-1.07s.22-.16.22-.17c.82-.8,4.73-1,4.73-1h0A16.6,16.6,0,0,1,124.86,97,12.82,12.82,0,0,1,132,98.42a5.71,5.71,0,0,0,2.34.89.92.92,0,0,1,.57.27.36.36,0,0,1,.08.23.14.14,0,0,1,.06,0,.72.72,0,0,1,.19.59,1,1,0,0,1,0,.17s0,.09,0,.14A2.43,2.43,0,0,1,135.36,102.49Z"/><path class="cls-57" d="M115.45,99.72a19.74,19.74,0,0,1,3.19-.74c.16,0,.33,0,.5,0a4.66,4.66,0,0,0,1.63-.79c-.64.28-1.09.51-1.16.55h0s-3.91.2-4.73,1h0A1.15,1.15,0,0,0,115.45,99.72Z"/><path class="cls-58" d="M135,99.86a.14.14,0,0,0-.06,0,.36.36,0,0,0-.08-.23.92.92,0,0,0-.57-.27,5.71,5.71,0,0,1-2.34-.89A12.82,12.82,0,0,0,124.86,97a13,13,0,0,0-4.09,1.22,4.56,4.56,0,0,1-1.63.74c-.17,0-.34,0-.5,0a19.74,19.74,0,0,0-3.19.74,1.15,1.15,0,0,1-.58,0l-.22.17a1.24,1.24,0,0,0-.47,1.07,4.34,4.34,0,0,0,0,.84,1,1,0,0,1-.06.74s0,.11.16.23a.86.86,0,0,0,0-.47,4,4,0,0,1,0-.83,1.24,1.24,0,0,1,.47-1.07l.22-.17c.82-.81,4.73-1,4.73-1h0c.2-.11,3.26-2,5.27-2.06a13.47,13.47,0,0,1,7.11,1.72,5.64,5.64,0,0,0,2.34.89.92.92,0,0,1,.57.27.36.36,0,0,1,.08.23l.06.05a.73.73,0,0,1,.11.15v-.07A.72.72,0,0,0,135,99.86Z"/><path class="cls-59" d="M135.08,101a2.2,2.2,0,0,1-.88,2.7s-.88-.06-1.51-.08a1.74,1.74,0,0,0-1.12-2.08C130,100.89,135.08,101,135.08,101Z"/><path class="cls-60" d="M132.72,103.52l0,.11c.63,0,1.51.08,1.51.08a2.6,2.6,0,0,0,.88-1.06.55.55,0,0,0-.25.1A2.15,2.15,0,0,1,132.72,103.52Z"/><path class="cls-57" d="M117.11,100.76c.33-.21-1.53-.14-1.53-.14-.47.26-.41.27-.55.32a1.16,1.16,0,0,1-.54.1,4.77,4.77,0,0,0,.07.88c.1.5-.14.6,0,.73.34.41,1.27.26,1.27.26A2.22,2.22,0,0,1,117.11,100.76Z"/><path class="cls-57" d="M118.22,100.89a2.13,2.13,0,0,1,1.33,2.06l9.17.4s-.24-1.7,2.19-2.09Z"/><path class="cls-57" d="M128.92,102.05c-.89,1-2.29.88-3.44,1-1.72.13-3.44-.06-5.15,0a5.14,5.14,0,0,0-.78,0h0l9.17.4a2.68,2.68,0,0,1,.92-1.71A1.32,1.32,0,0,0,128.92,102.05Z"/><path class="cls-7" d="M124.76,103.05c-1.48,0-3-.09-4.43-.07a5.14,5.14,0,0,0-.78,0h0l9.17.4s0,0,0-.13Z"/><path class="cls-58" d="M118.28,100.65a1.84,1.84,0,0,1,1-1.08c.7-.3,12-.16,12-.16l1.48,0h.65s.95.12-1.11,1a3.44,3.44,0,0,1-.75.31C128.14,101.16,118.28,100.65,118.28,100.65Z"/><path class="cls-57" d="M134.2,103.71a2.68,2.68,0,0,0,.63-.63,2.81,2.81,0,0,1-1.67.57Z"/><path class="cls-7" d="M134.83,102.75a2.15,2.15,0,0,1-2.11.77l0,.11.47,0a2.81,2.81,0,0,0,1.67-.57,1.91,1.91,0,0,0,.25-.43A.55.55,0,0,0,134.83,102.75Z"/><path class="cls-57" d="M135.08,101s-5.06-.12-3.51.54a1.75,1.75,0,0,1,1.15,2,2.15,2.15,0,0,0,2.11-.77.55.55,0,0,1,.25-.1A2.13,2.13,0,0,0,135.08,101Z"/><path class="cls-61" d="M116,100.36c.18-.2-1.32-.08-1.69-.06a1.12,1.12,0,0,0-.17.68,7.62,7.62,0,0,0,.88,0A3.61,3.61,0,0,0,116,100.36Z"/><path class="cls-35" d="M116.37,100.31c.23-.28-1.45-.13-1.87-.12h-.08a1.13,1.13,0,0,0-.24.81.87.87,0,0,1,0,.11,6,6,0,0,0,.94,0A4.26,4.26,0,0,0,116.37,100.31Z"/><path class="cls-61" d="M115.31,100.62a.39.39,0,0,0-.09-.37l-.87,0a1.12,1.12,0,0,0-.17.68H115A.7.7,0,0,0,115.31,100.62Z"/><path class="cls-40" d="M115.22,100.25a.39.39,0,0,1,.09.37.7.7,0,0,1-.34.36h.09a3.61,3.61,0,0,0,1-.61C116.15,100.24,115.69,100.24,115.22,100.25Z"/><path class="cls-32" d="M119.2,102.81h0a1.53,1.53,0,0,0-3.06-.13h0v.06h0v0a1.53,1.53,0,0,1,3,.14v0h0v-.06Z"/><path class="cls-57" d="M119.4,102.81h0v0h0a1.73,1.73,0,0,0-3.46-.15h0v0h0a2.18,2.18,0,0,0,0,.44l3.34.15A1.7,1.7,0,0,0,119.4,102.81Z"/><path class="cls-62" d="M116.14,102.68h0a1.53,1.53,0,0,1,3.06.13h0a1.53,1.53,0,0,1-3.06-.13Z"/><path class="cls-48" d="M116.65,102.66a1,1,0,0,0,1,1.07,1,1,0,0,0,1.06-1,1,1,0,0,0-2-.09Z"/><path class="cls-49" d="M117.64,103.46a.76.76,0,1,0-.72-.79A.76.76,0,0,0,117.64,103.46Z"/><path class="cls-63" d="M117.88,102.48c.15-.32.06-.46-.1-.51a.72.72,0,0,1,.23,1.35C117.84,103.21,117.64,103,117.88,102.48Z"/><path class="cls-64" d="M117.25,103.27a.75.75,0,0,1-.28-.39.73.73,0,0,1,.21-.73A5,5,0,0,0,117.25,103.27Z"/><path class="cls-65" d="M118,103.13a.11.11,0,0,1-.14-.08.11.11,0,0,1,.07-.14.12.12,0,0,1,.15.08A.12.12,0,0,1,118,103.13Z"/><path class="cls-57" d="M132.51,103.38h0v0h0a1.73,1.73,0,0,0-3.46-.15h0v0h0a2.18,2.18,0,0,0,0,.44l3.34.15A1.7,1.7,0,0,0,132.51,103.38Z"/><path class="cls-62" d="M129.25,103.25h0a1.53,1.53,0,0,1,3.06.13h0a1.53,1.53,0,0,1-3.06-.13Z"/><path class="cls-32" d="M132.31,103.38h0a1.53,1.53,0,0,0-3.06-.13h0v.06h0v0a1.53,1.53,0,0,1,3.05.15v0h0v-.06Z"/><path class="cls-48" d="M129.76,103.23a1,1,0,0,0,1,1.07,1,1,0,1,0-1-1.07Z"/><path class="cls-49" d="M130.75,104a.75.75,0,1,0-.72-.78A.75.75,0,0,0,130.75,104Z"/><path class="cls-66" d="M131,103.05c.15-.32.06-.46-.1-.51a.72.72,0,0,1,.23,1.35C131,103.78,130.75,103.55,131,103.05Z"/><path class="cls-67" d="M130.36,103.84a.71.71,0,0,1-.07-1.12A5,5,0,0,0,130.36,103.84Z"/><path class="cls-65" d="M131.12,103.7a.11.11,0,0,1-.14-.08.11.11,0,0,1,.07-.14.12.12,0,0,1,.15.08A.12.12,0,0,1,131.12,103.7Z"/><path class="cls-1" d="M119.43,99.32h1.22l4.59,0h.9c1.17,0,4,0,4.56,0a3,3,0,0,0,.79-.14,5.86,5.86,0,0,0-2.09-1.31,9.72,9.72,0,0,0-3.1-.54h-.64a13.65,13.65,0,0,0-2.94.35,9.44,9.44,0,0,0-2.66,1.21A6.34,6.34,0,0,0,119.43,99.32Z"/><path class="cls-68" d="M119.4,99.28a4,4,0,0,1,.63-.48,9,9,0,0,1,2.68-1.22,13.19,13.19,0,0,1,3-.36h.9a9.47,9.47,0,0,1,2.86.54,5.9,5.9,0,0,1,2.11,1.32l.05.05-.07,0a2.58,2.58,0,0,1-.8.15c-.52.06-3.37,0-4.57,0h-.54l-6.31,0Z"/><path class="cls-1" d="M120.06,98.84a9.44,9.44,0,0,1,2.66-1.21,13.65,13.65,0,0,1,2.94-.35h.64a9.72,9.72,0,0,1,3.1.54,5.86,5.86,0,0,1,2.09,1.31,3,3,0,0,1-.79.14c-.52.06-3.39,0-4.56,0h-.9l-4.59,0h-1.22A6.34,6.34,0,0,1,120.06,98.84Z"/><path class="cls-1" d="M120.06,98.84a9.44,9.44,0,0,1,2.66-1.21,13.65,13.65,0,0,1,2.94-.35h.64a9.72,9.72,0,0,1,3.1.54,5.86,5.86,0,0,1,2.09,1.31,3,3,0,0,1-.79.14c-.52.06-3.39,0-4.56,0h-.9l-4.59,0h-1.22A6.34,6.34,0,0,1,120.06,98.84Z"/><g class="cls-69"><path class="cls-70" d="M120.06,98.84a9.44,9.44,0,0,1,2.66-1.21,13.65,13.65,0,0,1,2.94-.35h.64a9.72,9.72,0,0,1,3.1.54,5.86,5.86,0,0,1,2.09,1.31,3,3,0,0,1-.79.14c-.52.06-3.39,0-4.56,0h-.9l-4.59,0h-1.22A6.34,6.34,0,0,1,120.06,98.84Z"/><rect class="cls-71" x="119.9" y="98.49" width="4.29" height="0.19" transform="translate(-16.03 173.07) rotate(-67.28)"/><rect class="cls-71" x="121.26" y="98.04" width="4.29" height="0.87" transform="translate(-15.2 174.07) rotate(-67.2)"/><polygon class="cls-71" points="126.78 100.55 126.84 100.6 128.5 96.65 128.44 96.6 126.78 100.55"/><rect class="cls-71" x="127.16" y="98.46" width="4.29" height="0.6" transform="translate(-11.81 179.74) rotate(-67.22)"/></g><path class="cls-35" d="M126,99.29l.13-2-.55,0-.46,2S125.77,99.28,126,99.29Z"/><path class="cls-56" d="M135.22,100.82a.32.32,0,0,0,0-.06c0-.05,0-.1,0-.14a1,1,0,0,0,0-.17.83.83,0,0,0-.16-.57H133.2s-.38,0,.41.39c.21.11.58.46.81.49A7.33,7.33,0,0,0,135.22,100.82Z"/><path class="cls-72" d="M135.23,100.45a.94.94,0,0,0,0-.36h-1.32c-.28,0,.67.44,1,.52a2.37,2.37,0,0,0,.37.05v0A1,1,0,0,0,135.23,100.45Z"/><path class="cls-73" d="M125.47,99.38l-5.94,0s.14,3.52,1.62,3.55l4,.09S125.27,100.45,125.47,99.38Z"/><path class="cls-73" d="M125.38,103.07l3,.06s.34.05.68-.68a3,3,0,0,1,.85-1.14,2.36,2.36,0,0,0,.79-1.29c0-.55,0-.62,0-.62h-5A25.73,25.73,0,0,0,125.38,103.07Z"/><path class="cls-35" d="M129.34,100a.29.29,0,0,0,.58,0,.28.28,0,0,0-.26-.31A.31.31,0,0,0,129.34,100Z"/><path class="cls-48" d="M129.08,100a.09.09,0,0,0,.09.09l1,0a.1.1,0,0,0,.1-.09h0a.1.1,0,0,0-.09-.1l-1,0a.09.09,0,0,0-.09.1Z"/><path class="cls-55" d="M130.07,100s0,0,0,.06a.06.06,0,0,0,.06,0,.06.06,0,0,0,0-.06A0,0,0,0,0,130.07,100Z"/><path class="cls-35" d="M124.24,99.92a.28.28,0,0,0,.26.31.29.29,0,0,0,.32-.26.3.3,0,0,0-.27-.32A.29.29,0,0,0,124.24,99.92Z"/><path class="cls-48" d="M124,99.93a.1.1,0,0,0,.1.1h1s.09,0,.09-.09h0a.1.1,0,0,0-.09-.1l-1,0a.09.09,0,0,0-.1.1Z"/><path class="cls-55" d="M125,99.93a.06.06,0,0,0,.05.06.06.06,0,0,0,0-.11A.06.06,0,0,0,125,99.93Z"/><path class="cls-7" d="M120.17,99.37h.44a.28.28,0,0,0,.27-.28h0a.28.28,0,0,0-.28-.27h-.44a.27.27,0,0,0-.26.28h0A.28.28,0,0,0,120.17,99.37Z"/><path class="cls-7" d="M120.18,99.3h.43a.27.27,0,0,0,.26-.22h0a.28.28,0,0,1-.27.28h-.44a.28.28,0,0,1-.27-.27v0A.27.27,0,0,0,120.18,99.3Z"/><path class="cls-7" d="M120.59,98.94h-.43a.27.27,0,0,0-.26.2V99.1a.27.27,0,0,1,.26-.28h.44a.28.28,0,0,1,.28.27.24.24,0,0,1,0,.08A.27.27,0,0,0,120.59,98.94Z"/><path id="_Trazado_216" data-name="&lt;Trazado&gt;" class="cls-74" d="M151.78,102.83c-4.9-1.1-.53-2.4-.53-2.4a17.27,17.27,0,0,0-9.94.73,21.19,21.19,0,0,1-4.79,1.56h-1.3c-4.16-1.08-.07-2.29-.07-2.29a17.26,17.26,0,0,0-9.94.73,21.19,21.19,0,0,1-4.79,1.56h-1.3c-4.16-1.08-.07-2.29-.07-2.29a17.26,17.26,0,0,0-9.94.73,21.35,21.35,0,0,1-4.79,1.56H103c-4.17-1.08-.08-2.29-.08-2.29a17.27,17.27,0,0,0-9.94.73,21.15,21.15,0,0,1-4.78,1.56H86.91c-4.16-1.08-.07-2.29-.07-2.29a17.27,17.27,0,0,0-9.94.73,21.19,21.19,0,0,1-4.79,1.56h0a6.53,6.53,0,0,1-.84.11h.84V118.4h78.6V102.83Z"/><path id="_Trazado_217" data-name="&lt;Trazado&gt;" class="cls-75" d="M149.74,106c-5-1.1-.54-2.4-.54-2.4a17.55,17.55,0,0,0-10,.74,21.45,21.45,0,0,1-4.83,1.55H133c-4.2-1.07-.08-2.29-.08-2.29a17.56,17.56,0,0,0-10,.74,21.45,21.45,0,0,1-4.83,1.55H116.8c-4.2-1.07-.07-2.29-.07-2.29a17.59,17.59,0,0,0-10,.74,21.29,21.29,0,0,1-4.83,1.55h-1.31c-4.2-1.07-.07-2.29-.07-2.29a17.59,17.59,0,0,0-10,.74,21.29,21.29,0,0,1-4.83,1.55H84.32c-4.2-1.07-.07-2.29-.07-2.29a17.59,17.59,0,0,0-10,.74,21.14,21.14,0,0,1-4.83,1.55h0a6.76,6.76,0,0,1-.85.11h.85v15.58h79.26V106Z"/><g id="_Grupo_27" data-name="&lt;Grupo&gt;" class="cls-76"><g id="_Grupo_28" data-name="&lt;Grupo&gt;"><path id="_Trazado_218" data-name="&lt;Trazado&gt;" class="cls-77" d="M79.46,39.56c-.23.61-.39.87-.62.79s-.15-.46.06-1A17.92,17.92,0,0,1,80.07,37,18.14,18.14,0,0,1,79.46,39.56Z"/><path id="_Trazado_219" data-name="&lt;Trazado&gt;" class="cls-77" d="M76.33,47.58c-.23.62-.39.87-.62.79s-.15-.46.06-1A17.92,17.92,0,0,1,76.94,45,18.14,18.14,0,0,1,76.33,47.58Z"/><path id="_Trazado_220" data-name="&lt;Trazado&gt;" class="cls-77" d="M73.2,55.6c-.22.62-.39.88-.62.79s-.14-.46.07-1a16.75,16.75,0,0,1,1.16-2.31A18.14,18.14,0,0,1,73.2,55.6Z"/><path id="_Trazado_221" data-name="&lt;Trazado&gt;" class="cls-77" d="M70.07,63.63c-.22.61-.39.87-.62.78s-.14-.46.07-1a18.82,18.82,0,0,1,1.16-2.31A18.15,18.15,0,0,1,70.07,63.63Z"/><path id="_Trazado_222" data-name="&lt;Trazado&gt;" class="cls-77" d="M66.94,71.65c-.22.61-.39.87-.62.79s-.14-.46.07-1a18.82,18.82,0,0,1,1.16-2.31A18.15,18.15,0,0,1,66.94,71.65Z"/><path id="_Trazado_223" data-name="&lt;Trazado&gt;" class="cls-77" d="M63.81,79.67c-.22.61-.39.87-.62.79s-.14-.46.07-1a18.39,18.39,0,0,1,1.16-2.3A18.14,18.14,0,0,1,63.81,79.67Z"/><path id="_Trazado_224" data-name="&lt;Trazado&gt;" class="cls-77" d="M60.69,87.69c-.23.62-.4.87-.62.79s-.15-.46.06-1a18.39,18.39,0,0,1,1.16-2.3A19.12,19.12,0,0,1,60.69,87.69Z"/><path id="_Trazado_225" data-name="&lt;Trazado&gt;" class="cls-77" d="M57.56,95.71c-.23.62-.4.87-.62.79s-.15-.46.06-1a17.92,17.92,0,0,1,1.17-2.3A18.14,18.14,0,0,1,57.56,95.71Z"/></g><g id="_Grupo_29" data-name="&lt;Grupo&gt;"><path id="_Trazado_226" data-name="&lt;Trazado&gt;" class="cls-77" d="M86,36.47c-.23.62-.39.87-.62.79s-.15-.46.06-1a17.92,17.92,0,0,1,1.17-2.3A18.14,18.14,0,0,1,86,36.47Z"/><path id="_Trazado_227" data-name="&lt;Trazado&gt;" class="cls-77" d="M82.82,44.49c-.23.62-.39.88-.62.79s-.15-.46.06-1A17.59,17.59,0,0,1,83.43,42,18.14,18.14,0,0,1,82.82,44.49Z"/><path id="_Trazado_228" data-name="&lt;Trazado&gt;" class="cls-77" d="M79.69,52.52c-.23.61-.39.87-.62.78s-.15-.46.06-1A18.33,18.33,0,0,1,80.3,50,18.15,18.15,0,0,1,79.69,52.52Z"/><path id="_Trazado_229" data-name="&lt;Trazado&gt;" class="cls-77" d="M76.56,60.54c-.23.61-.39.87-.62.79s-.14-.46.07-1A17.41,17.41,0,0,1,77.17,58,18.15,18.15,0,0,1,76.56,60.54Z"/><path id="_Trazado_230" data-name="&lt;Trazado&gt;" class="cls-77" d="M73.43,68.56c-.22.61-.39.87-.62.79s-.14-.46.07-1A18.82,18.82,0,0,1,74,66,18.15,18.15,0,0,1,73.43,68.56Z"/><path id="_Trazado_231" data-name="&lt;Trazado&gt;" class="cls-77" d="M70.3,76.58c-.22.62-.39.87-.62.79s-.14-.46.07-1A18.39,18.39,0,0,1,70.91,74,18.14,18.14,0,0,1,70.3,76.58Z"/><path id="_Trazado_232" data-name="&lt;Trazado&gt;" class="cls-77" d="M67.17,84.6c-.22.62-.39.87-.62.79s-.14-.46.07-1a18.39,18.39,0,0,1,1.16-2.3A18.14,18.14,0,0,1,67.17,84.6Z"/><path id="_Trazado_233" data-name="&lt;Trazado&gt;" class="cls-77" d="M64.05,92.62c-.23.62-.4.88-.63.79s-.14-.46.07-1a18.82,18.82,0,0,1,1.16-2.31A19.12,19.12,0,0,1,64.05,92.62Z"/></g><g id="_Grupo_30" data-name="&lt;Grupo&gt;"><path id="_Trazado_234" data-name="&lt;Trazado&gt;" class="cls-77" d="M92.44,41.07c-.23.61-.4.87-.62.78s-.15-.45.06-1a18.33,18.33,0,0,1,1.17-2.31A18.15,18.15,0,0,1,92.44,41.07Z"/><path id="_Trazado_235" data-name="&lt;Trazado&gt;" class="cls-77" d="M89.31,49.09c-.23.61-.39.87-.62.79s-.15-.46.06-1a18.33,18.33,0,0,1,1.17-2.31A18.15,18.15,0,0,1,89.31,49.09Z"/><path id="_Trazado_236" data-name="&lt;Trazado&gt;" class="cls-77" d="M86.18,57.11c-.23.61-.39.87-.62.79s-.15-.46.06-1a17.92,17.92,0,0,1,1.17-2.3A18.14,18.14,0,0,1,86.18,57.11Z"/><path id="_Trazado_237" data-name="&lt;Trazado&gt;" class="cls-77" d="M83.05,65.13c-.23.62-.39.87-.62.79s-.15-.46.06-1a17.92,17.92,0,0,1,1.17-2.3A18.14,18.14,0,0,1,83.05,65.13Z"/><path id="_Trazado_238" data-name="&lt;Trazado&gt;" class="cls-77" d="M79.92,73.15c-.23.62-.39.88-.62.79s-.14-.46.06-1a17.92,17.92,0,0,1,1.17-2.3A18.14,18.14,0,0,1,79.92,73.15Z"/><path id="_Trazado_239" data-name="&lt;Trazado&gt;" class="cls-77" d="M76.79,81.17c-.22.62-.39.88-.62.79s-.14-.46.07-1a18.82,18.82,0,0,1,1.16-2.31A18.14,18.14,0,0,1,76.79,81.17Z"/><path id="_Trazado_240" data-name="&lt;Trazado&gt;" class="cls-77" d="M73.66,89.2c-.22.61-.39.87-.62.79s-.14-.46.07-1a18.82,18.82,0,0,1,1.16-2.31A18.15,18.15,0,0,1,73.66,89.2Z"/><path id="_Trazado_241" data-name="&lt;Trazado&gt;" class="cls-77" d="M70.53,97.22c-.22.61-.39.87-.62.79s-.14-.46.07-1a18.82,18.82,0,0,1,1.16-2.31A18.15,18.15,0,0,1,70.53,97.22Z"/></g><g id="_Grupo_31" data-name="&lt;Grupo&gt;"><path id="_Trazado_242" data-name="&lt;Trazado&gt;" class="cls-77" d="M98.93,38c-.23.61-.4.87-.62.79s-.15-.46.06-1a18.33,18.33,0,0,1,1.17-2.31A18.15,18.15,0,0,1,98.93,38Z"/><path id="_Trazado_243" data-name="&lt;Trazado&gt;" class="cls-77" d="M95.8,46c-.23.61-.4.87-.62.79s-.15-.46.06-1a17.92,17.92,0,0,1,1.17-2.3A18.14,18.14,0,0,1,95.8,46Z"/><path id="_Trazado_244" data-name="&lt;Trazado&gt;" class="cls-77" d="M92.67,54c-.23.62-.4.87-.62.79s-.15-.46.06-1a17.92,17.92,0,0,1,1.17-2.3A18.14,18.14,0,0,1,92.67,54Z"/><path id="_Trazado_245" data-name="&lt;Trazado&gt;" class="cls-77" d="M89.54,62c-.23.62-.39.88-.62.79s-.15-.46.06-1a17.92,17.92,0,0,1,1.17-2.3A18.14,18.14,0,0,1,89.54,62Z"/><path id="_Trazado_246" data-name="&lt;Trazado&gt;" class="cls-77" d="M86.41,70.07c-.23.61-.39.87-.62.78s-.15-.46.06-1A18.33,18.33,0,0,1,87,67.52,18.15,18.15,0,0,1,86.41,70.07Z"/><path id="_Trazado_247" data-name="&lt;Trazado&gt;" class="cls-77" d="M83.28,78.09c-.23.61-.39.87-.62.79s-.14-.46.06-1a18.33,18.33,0,0,1,1.17-2.31A18.15,18.15,0,0,1,83.28,78.09Z"/><path id="_Trazado_248" data-name="&lt;Trazado&gt;" class="cls-77" d="M80.15,86.11c-.22.61-.39.87-.62.79s-.14-.46.07-1a18.82,18.82,0,0,1,1.16-2.31A18.15,18.15,0,0,1,80.15,86.11Z"/><path id="_Trazado_249" data-name="&lt;Trazado&gt;" class="cls-77" d="M77,94.13c-.22.62-.39.87-.62.79s-.14-.46.07-1a18.39,18.39,0,0,1,1.16-2.3A18.14,18.14,0,0,1,77,94.13Z"/></g><g id="_Grupo_32" data-name="&lt;Grupo&gt;"><path id="_Trazado_250" data-name="&lt;Trazado&gt;" class="cls-77" d="M105.42,42.57c-.23.62-.4.87-.62.79s-.15-.46.06-1A18.39,18.39,0,0,1,106,40,17.56,17.56,0,0,1,105.42,42.57Z"/><path id="_Trazado_251" data-name="&lt;Trazado&gt;" class="cls-77" d="M102.29,50.59c-.23.62-.4.88-.62.79s-.15-.46.06-1a18.33,18.33,0,0,1,1.17-2.31A18.14,18.14,0,0,1,102.29,50.59Z"/><path id="_Trazado_252" data-name="&lt;Trazado&gt;" class="cls-77" d="M99.16,58.62c-.23.61-.4.87-.62.78s-.15-.45.06-1a18.33,18.33,0,0,1,1.17-2.31A18.15,18.15,0,0,1,99.16,58.62Z"/><path id="_Trazado_253" data-name="&lt;Trazado&gt;" class="cls-77" d="M96,66.64c-.23.61-.4.87-.62.79s-.15-.46.06-1a18.33,18.33,0,0,1,1.17-2.31A18.15,18.15,0,0,1,96,66.64Z"/><path id="_Trazado_254" data-name="&lt;Trazado&gt;" class="cls-77" d="M92.9,74.66c-.23.61-.39.87-.62.79s-.15-.46.06-1a17.92,17.92,0,0,1,1.17-2.3A18.14,18.14,0,0,1,92.9,74.66Z"/><path id="_Trazado_255" data-name="&lt;Trazado&gt;" class="cls-77" d="M89.77,82.68c-.23.62-.39.87-.62.79s-.15-.46.06-1a17.92,17.92,0,0,1,1.17-2.3A18.14,18.14,0,0,1,89.77,82.68Z"/><path id="_Trazado_256" data-name="&lt;Trazado&gt;" class="cls-77" d="M86.64,90.7c-.23.62-.39.87-.62.79s-.14-.46.06-1a17.92,17.92,0,0,1,1.17-2.3A18.14,18.14,0,0,1,86.64,90.7Z"/><path id="_Trazado_257" data-name="&lt;Trazado&gt;" class="cls-77" d="M83.51,98.72c-.22.62-.39.88-.62.79s-.14-.46.07-1a17.41,17.41,0,0,1,1.16-2.31A18.14,18.14,0,0,1,83.51,98.72Z"/></g><g id="_Grupo_33" data-name="&lt;Grupo&gt;"><path id="_Trazado_258" data-name="&lt;Trazado&gt;" class="cls-77" d="M111.9,39.48c-.22.62-.39.88-.62.79s-.14-.46.07-1a18.82,18.82,0,0,1,1.16-2.31A18.14,18.14,0,0,1,111.9,39.48Z"/><path id="_Trazado_259" data-name="&lt;Trazado&gt;" class="cls-77" d="M108.78,47.51c-.23.61-.4.87-.63.78s-.14-.45.07-1A18.82,18.82,0,0,1,109.38,45,19.12,19.12,0,0,1,108.78,47.51Z"/><path id="_Trazado_260" data-name="&lt;Trazado&gt;" class="cls-77" d="M105.65,55.53c-.23.61-.4.87-.62.79s-.15-.46.06-1A18.33,18.33,0,0,1,106.26,53,18.15,18.15,0,0,1,105.65,55.53Z"/><path id="_Trazado_261" data-name="&lt;Trazado&gt;" class="cls-77" d="M102.52,63.55c-.23.61-.4.87-.62.79s-.15-.46.06-1a17.92,17.92,0,0,1,1.17-2.3A18.14,18.14,0,0,1,102.52,63.55Z"/><path id="_Trazado_262" data-name="&lt;Trazado&gt;" class="cls-77" d="M99.39,71.57c-.23.62-.4.87-.62.79s-.15-.46.06-1A17.92,17.92,0,0,1,100,69,18.14,18.14,0,0,1,99.39,71.57Z"/><path id="_Trazado_263" data-name="&lt;Trazado&gt;" class="cls-77" d="M96.26,79.59c-.23.62-.39.88-.62.79s-.15-.46.06-1a17.59,17.59,0,0,1,1.17-2.31A18.14,18.14,0,0,1,96.26,79.59Z"/><path id="_Trazado_264" data-name="&lt;Trazado&gt;" class="cls-77" d="M93.13,87.61c-.23.62-.39.88-.62.79s-.15-.46.06-1a18.33,18.33,0,0,1,1.17-2.31A18.14,18.14,0,0,1,93.13,87.61Z"/><path id="_Trazado_265" data-name="&lt;Trazado&gt;" class="cls-77" d="M90,95.64c-.23.61-.39.87-.62.79s-.15-.46.06-1a18.33,18.33,0,0,1,1.17-2.31A18.15,18.15,0,0,1,90,95.64Z"/></g><g id="_Grupo_34" data-name="&lt;Grupo&gt;"><path id="_Trazado_266" data-name="&lt;Trazado&gt;" class="cls-77" d="M118.39,44.08c-.22.61-.39.87-.62.79s-.14-.46.07-1A18.82,18.82,0,0,1,119,41.53,18.15,18.15,0,0,1,118.39,44.08Z"/><path id="_Trazado_267" data-name="&lt;Trazado&gt;" class="cls-77" d="M115.26,52.1c-.22.61-.39.87-.62.79s-.14-.46.07-1a18.39,18.39,0,0,1,1.16-2.3A18.14,18.14,0,0,1,115.26,52.1Z"/><path id="_Trazado_268" data-name="&lt;Trazado&gt;" class="cls-77" d="M112.14,60.12c-.23.62-.4.87-.62.79s-.15-.46.06-1a18.39,18.39,0,0,1,1.16-2.3A19.12,19.12,0,0,1,112.14,60.12Z"/><path id="_Trazado_269" data-name="&lt;Trazado&gt;" class="cls-77" d="M109,68.14c-.23.62-.4.88-.62.79s-.15-.46.06-1a17.92,17.92,0,0,1,1.17-2.3A18.14,18.14,0,0,1,109,68.14Z"/><path id="_Trazado_270" data-name="&lt;Trazado&gt;" class="cls-77" d="M105.88,76.17c-.23.61-.4.87-.62.78s-.15-.46.06-1a18.33,18.33,0,0,1,1.17-2.31A18.15,18.15,0,0,1,105.88,76.17Z"/><path id="_Trazado_271" data-name="&lt;Trazado&gt;" class="cls-77" d="M102.75,84.19c-.23.61-.4.87-.62.79s-.15-.46.06-1a18.33,18.33,0,0,1,1.17-2.31A18.15,18.15,0,0,1,102.75,84.19Z"/><path id="_Trazado_272" data-name="&lt;Trazado&gt;" class="cls-77" d="M99.62,92.21c-.23.61-.39.87-.62.79s-.15-.46.06-1a18.33,18.33,0,0,1,1.17-2.31A18.15,18.15,0,0,1,99.62,92.21Z"/><path id="_Trazado_273" data-name="&lt;Trazado&gt;" class="cls-77" d="M96.49,100.23c-.23.62-.39.87-.62.79s-.15-.46.06-1a17.92,17.92,0,0,1,1.17-2.3A18.14,18.14,0,0,1,96.49,100.23Z"/></g><g id="_Grupo_35" data-name="&lt;Grupo&gt;"><path id="_Trazado_274" data-name="&lt;Trazado&gt;" class="cls-77" d="M124.88,41c-.22.61-.39.87-.62.79s-.14-.46.07-1a18.39,18.39,0,0,1,1.16-2.3A18.14,18.14,0,0,1,124.88,41Z"/><path id="_Trazado_275" data-name="&lt;Trazado&gt;" class="cls-77" d="M121.75,49c-.22.62-.39.87-.62.79s-.14-.46.07-1a18.39,18.39,0,0,1,1.16-2.3A18.14,18.14,0,0,1,121.75,49Z"/><path id="_Trazado_276" data-name="&lt;Trazado&gt;" class="cls-77" d="M118.62,57c-.22.62-.39.88-.62.79s-.14-.46.07-1a18.82,18.82,0,0,1,1.16-2.31A18.14,18.14,0,0,1,118.62,57Z"/><path id="_Trazado_277" data-name="&lt;Trazado&gt;" class="cls-77" d="M115.5,65.06c-.23.61-.4.87-.63.78s-.14-.45.07-1a18.82,18.82,0,0,1,1.16-2.31A19.12,19.12,0,0,1,115.5,65.06Z"/><path id="_Trazado_278" data-name="&lt;Trazado&gt;" class="cls-77" d="M112.37,73.08c-.23.61-.4.87-.62.79s-.15-.46.06-1A18.33,18.33,0,0,1,113,70.53,18.15,18.15,0,0,1,112.37,73.08Z"/><path id="_Trazado_279" data-name="&lt;Trazado&gt;" class="cls-77" d="M109.24,81.1c-.23.61-.4.87-.62.79s-.15-.46.06-1a17.92,17.92,0,0,1,1.17-2.3A18.14,18.14,0,0,1,109.24,81.1Z"/><path id="_Trazado_280" data-name="&lt;Trazado&gt;" class="cls-77" d="M106.11,89.12c-.23.62-.4.87-.62.79s-.15-.46.06-1a17.92,17.92,0,0,1,1.17-2.3A18.14,18.14,0,0,1,106.11,89.12Z"/><path id="_Trazado_281" data-name="&lt;Trazado&gt;" class="cls-77" d="M103,97.14c-.23.62-.39.88-.62.79s-.15-.46.06-1a17.92,17.92,0,0,1,1.17-2.3A18.14,18.14,0,0,1,103,97.14Z"/></g><g id="_Grupo_36" data-name="&lt;Grupo&gt;"><path id="_Trazado_282" data-name="&lt;Trazado&gt;" class="cls-77" d="M131.37,45.58c-.23.62-.39.88-.62.79s-.14-.46.06-1A18.33,18.33,0,0,1,132,43,18.14,18.14,0,0,1,131.37,45.58Z"/><path id="_Trazado_283" data-name="&lt;Trazado&gt;" class="cls-77" d="M128.24,53.61c-.22.61-.39.87-.62.78s-.14-.45.07-1a18.82,18.82,0,0,1,1.16-2.31A18.15,18.15,0,0,1,128.24,53.61Z"/><path id="_Trazado_284" data-name="&lt;Trazado&gt;" class="cls-77" d="M125.11,61.63c-.22.61-.39.87-.62.79s-.14-.46.07-1a18.82,18.82,0,0,1,1.16-2.31A18.15,18.15,0,0,1,125.11,61.63Z"/><path id="_Trazado_285" data-name="&lt;Trazado&gt;" class="cls-77" d="M122,69.65c-.22.61-.39.87-.62.79s-.14-.46.07-1a18.39,18.39,0,0,1,1.16-2.3A18.14,18.14,0,0,1,122,69.65Z"/><path id="_Trazado_286" data-name="&lt;Trazado&gt;" class="cls-77" d="M118.86,77.67c-.23.62-.4.87-.63.79s-.14-.46.07-1a18.39,18.39,0,0,1,1.16-2.3A19.12,19.12,0,0,1,118.86,77.67Z"/><path id="_Trazado_287" data-name="&lt;Trazado&gt;" class="cls-77" d="M115.73,85.69c-.23.62-.4.88-.62.79s-.15-.46.06-1a18,18,0,0,1,1.16-2.31A17.56,17.56,0,0,1,115.73,85.69Z"/><path id="_Trazado_288" data-name="&lt;Trazado&gt;" class="cls-77" d="M112.6,93.72c-.23.61-.4.87-.62.78s-.15-.46.06-1a18.33,18.33,0,0,1,1.17-2.31A18.15,18.15,0,0,1,112.6,93.72Z"/><path id="_Trazado_289" data-name="&lt;Trazado&gt;" class="cls-77" d="M109.47,101.74c-.23.61-.4.87-.62.79s-.15-.46.06-1a18.33,18.33,0,0,1,1.17-2.31A18.15,18.15,0,0,1,109.47,101.74Z"/></g><g id="_Grupo_37" data-name="&lt;Grupo&gt;"><path id="_Trazado_290" data-name="&lt;Trazado&gt;" class="cls-77" d="M137.86,42.5c-.23.61-.39.87-.62.78s-.15-.45.06-1A18.33,18.33,0,0,1,138.47,40,18.15,18.15,0,0,1,137.86,42.5Z"/><path id="_Trazado_291" data-name="&lt;Trazado&gt;" class="cls-77" d="M134.73,50.52c-.23.61-.39.87-.62.79s-.15-.46.06-1A18.33,18.33,0,0,1,135.34,48,18.15,18.15,0,0,1,134.73,50.52Z"/><path id="_Trazado_292" data-name="&lt;Trazado&gt;" class="cls-77" d="M131.6,58.54c-.22.61-.39.87-.62.79s-.14-.46.07-1a17,17,0,0,1,1.16-2.3A18.14,18.14,0,0,1,131.6,58.54Z"/><path id="_Trazado_293" data-name="&lt;Trazado&gt;" class="cls-77" d="M128.47,66.56c-.22.62-.39.87-.62.79s-.14-.46.07-1a18.39,18.39,0,0,1,1.16-2.3A18.14,18.14,0,0,1,128.47,66.56Z"/><path id="_Trazado_294" data-name="&lt;Trazado&gt;" class="cls-77" d="M125.34,74.58c-.22.62-.39.88-.62.79s-.14-.46.07-1A18.39,18.39,0,0,1,126,72,18.14,18.14,0,0,1,125.34,74.58Z"/><path id="_Trazado_295" data-name="&lt;Trazado&gt;" class="cls-77" d="M122.21,82.61c-.22.61-.39.87-.62.78s-.14-.46.07-1a18.82,18.82,0,0,1,1.16-2.31A18.15,18.15,0,0,1,122.21,82.61Z"/><path id="_Trazado_296" data-name="&lt;Trazado&gt;" class="cls-77" d="M119.09,90.63c-.23.61-.4.87-.62.79s-.15-.46.06-1a18.82,18.82,0,0,1,1.16-2.31A17.57,17.57,0,0,1,119.09,90.63Z"/><path id="_Trazado_297" data-name="&lt;Trazado&gt;" class="cls-77" d="M116,98.65c-.23.61-.4.87-.62.79s-.15-.46.06-1a18.33,18.33,0,0,1,1.17-2.31A18.15,18.15,0,0,1,116,98.65Z"/></g><g id="_Grupo_38" data-name="&lt;Grupo&gt;"><path id="_Trazado_298" data-name="&lt;Trazado&gt;" class="cls-77" d="M144.35,47.09c-.23.61-.39.87-.62.79s-.15-.46.06-1a17.92,17.92,0,0,1,1.17-2.3A18.14,18.14,0,0,1,144.35,47.09Z"/><path id="_Trazado_299" data-name="&lt;Trazado&gt;" class="cls-77" d="M141.22,55.11c-.23.62-.39.87-.62.79s-.15-.46.06-1a17.92,17.92,0,0,1,1.17-2.3A18.14,18.14,0,0,1,141.22,55.11Z"/><path id="_Trazado_300" data-name="&lt;Trazado&gt;" class="cls-77" d="M138.09,63.13c-.23.62-.39.88-.62.79s-.14-.46.06-1a18.33,18.33,0,0,1,1.17-2.31A18.14,18.14,0,0,1,138.09,63.13Z"/><path id="_Trazado_301" data-name="&lt;Trazado&gt;" class="cls-77" d="M135,71.16c-.22.61-.39.87-.62.78s-.14-.45.07-1a17.41,17.41,0,0,1,1.16-2.31A18.15,18.15,0,0,1,135,71.16Z"/><path id="_Trazado_302" data-name="&lt;Trazado&gt;" class="cls-77" d="M131.83,79.18c-.22.61-.39.87-.62.79s-.14-.46.07-1a18.82,18.82,0,0,1,1.16-2.31A18.15,18.15,0,0,1,131.83,79.18Z"/><path id="_Trazado_303" data-name="&lt;Trazado&gt;" class="cls-77" d="M128.7,87.2c-.22.61-.39.87-.62.79s-.14-.46.07-1a18.39,18.39,0,0,1,1.16-2.3A18.14,18.14,0,0,1,128.7,87.2Z"/><path id="_Trazado_304" data-name="&lt;Trazado&gt;" class="cls-77" d="M125.57,95.22c-.22.62-.39.87-.62.79s-.14-.46.07-1a18.39,18.39,0,0,1,1.16-2.3A18.14,18.14,0,0,1,125.57,95.22Z"/><path id="_Trazado_305" data-name="&lt;Trazado&gt;" class="cls-77" d="M122.45,103.24c-.23.62-.4.88-.62.79s-.15-.46.06-1a18.39,18.39,0,0,1,1.16-2.3A17.56,17.56,0,0,1,122.45,103.24Z"/></g><g id="_Grupo_39" data-name="&lt;Grupo&gt;"><path id="_Trazado_306" data-name="&lt;Trazado&gt;" class="cls-77" d="M147.71,52c-.23.62-.39.88-.62.79s-.15-.46.06-1a18.33,18.33,0,0,1,1.17-2.31A18.14,18.14,0,0,1,147.71,52Z"/><path id="_Trazado_307" data-name="&lt;Trazado&gt;" class="cls-77" d="M144.58,60.05c-.23.61-.39.87-.62.78s-.15-.45.06-1a18.33,18.33,0,0,1,1.17-2.31A18.15,18.15,0,0,1,144.58,60.05Z"/><path id="_Trazado_308" data-name="&lt;Trazado&gt;" class="cls-77" d="M141.45,68.07c-.23.61-.39.87-.62.79s-.15-.46.06-1a18.33,18.33,0,0,1,1.17-2.31A18.15,18.15,0,0,1,141.45,68.07Z"/><path id="_Trazado_309" data-name="&lt;Trazado&gt;" class="cls-77" d="M138.32,76.09c-.22.61-.39.87-.62.79s-.14-.46.07-1a17,17,0,0,1,1.16-2.3A18.14,18.14,0,0,1,138.32,76.09Z"/><path id="_Trazado_310" data-name="&lt;Trazado&gt;" class="cls-77" d="M135.19,84.11c-.22.62-.39.87-.62.79s-.14-.46.07-1a18.39,18.39,0,0,1,1.16-2.3A18.14,18.14,0,0,1,135.19,84.11Z"/><path id="_Trazado_311" data-name="&lt;Trazado&gt;" class="cls-77" d="M132.06,92.13c-.22.62-.39.87-.62.79s-.14-.46.07-1a18.39,18.39,0,0,1,1.16-2.3A18.14,18.14,0,0,1,132.06,92.13Z"/><path id="_Trazado_312" data-name="&lt;Trazado&gt;" class="cls-77" d="M128.93,100.16c-.22.61-.39.87-.62.78s-.14-.46.07-1a18.82,18.82,0,0,1,1.16-2.31A18.15,18.15,0,0,1,128.93,100.16Z"/></g><g id="_Grupo_40" data-name="&lt;Grupo&gt;"><path id="_Trazado_313" data-name="&lt;Trazado&gt;" class="cls-77" d="M147.94,72.66c-.23.62-.39.87-.62.79s-.15-.46.06-1a17.92,17.92,0,0,1,1.17-2.3A18.14,18.14,0,0,1,147.94,72.66Z"/><path id="_Trazado_314" data-name="&lt;Trazado&gt;" class="cls-77" d="M144.81,80.68c-.23.62-.39.88-.62.79s-.15-.46.06-1a17.92,17.92,0,0,1,1.17-2.3A18.14,18.14,0,0,1,144.81,80.68Z"/><path id="_Trazado_315" data-name="&lt;Trazado&gt;" class="cls-77" d="M141.68,88.71c-.22.61-.39.87-.62.78s-.14-.46.07-1a17.41,17.41,0,0,1,1.16-2.31A18.15,18.15,0,0,1,141.68,88.71Z"/><path id="_Trazado_316" data-name="&lt;Trazado&gt;" class="cls-77" d="M138.55,96.73c-.22.61-.39.87-.62.79s-.14-.46.07-1a18.82,18.82,0,0,1,1.16-2.31A18.15,18.15,0,0,1,138.55,96.73Z"/><path id="_Trazado_317" data-name="&lt;Trazado&gt;" class="cls-77" d="M135.42,104.75c-.22.61-.39.87-.62.79s-.14-.46.07-1A18.82,18.82,0,0,1,136,102.2,18.15,18.15,0,0,1,135.42,104.75Z"/></g><g id="_Grupo_41" data-name="&lt;Grupo&gt;"><path id="_Trazado_318" data-name="&lt;Trazado&gt;" class="cls-77" d="M148.17,85.62c-.23.61-.39.87-.62.79s-.15-.46.06-1a18.33,18.33,0,0,1,1.17-2.31A18.15,18.15,0,0,1,148.17,85.62Z"/><path id="_Trazado_319" data-name="&lt;Trazado&gt;" class="cls-77" d="M145,93.64c-.23.61-.39.87-.62.79s-.14-.46.07-1a17,17,0,0,1,1.16-2.3A18.14,18.14,0,0,1,145,93.64Z"/><path id="_Trazado_320" data-name="&lt;Trazado&gt;" class="cls-77" d="M141.91,101.66c-.22.62-.39.87-.62.79s-.14-.46.07-1a18.39,18.39,0,0,1,1.16-2.3A18.14,18.14,0,0,1,141.91,101.66Z"/></g><g id="_Grupo_42" data-name="&lt;Grupo&gt;"><path id="_Trazado_321" data-name="&lt;Trazado&gt;" class="cls-77" d="M148.4,106.26c-.22.61-.39.87-.62.78s-.14-.46.06-1a18.33,18.33,0,0,1,1.17-2.31A18.15,18.15,0,0,1,148.4,106.26Z"/></g></g></g></g></g></g></svg>