<svg xmlns="http://www.w3.org/2000/svg" width="50" height="50" viewBox="0 0 50 50">
  <g id="equfami_purple" transform="translate(-886 -283)">
    <rect id="Rectángulo_609" data-name="Rectángulo 609" width="50" height="50" rx="10" transform="translate(886 283)" fill="#7b1fa2"/>
    <g id="Equfami" transform="translate(29.373 -345.781)">
      <path id="Trazado_2005" data-name="Trazado 2005" d="M607.17,224.309c-4.033,4.913-1.889,10.366.807,12.081,2.154,1.371,4.412,2.2,9.208.809.032,1.489.076,2.982.079,4.475a.8.8,0,0,1-.327.581,12.767,12.767,0,0,1-16.483-18.705,17.3,17.3,0,0,1,3.885-4.017" transform="translate(268.536 418.628)" fill="#ffe300"/>
      <path id="Trazado_2006" data-name="Trazado 2006" d="M599.928,219.445l11.433-4.029-2.285,11.752" transform="translate(268.654 418.364)" fill="#ffe300"/>
      <g id="Grupo_1" data-name="Grupo 1" transform="translate(879.521 635.898)">
        <path id="Trazado_2007" data-name="Trazado 2007" d="M610.208,223.494s.165-.847.953-4.473c.518-2.378,3.132-1.532,4.415-1.163,11.124,3.192,9.754,19.5,9.754,19.5l-.04,18.153-3.55.011c-2.443.008-4.059-.882-4.068-3.719l-.032-10.127s.415-10.759-1.8-14.37C613.324,223.194,610.208,223.494,610.208,223.494Z" transform="translate(-610.208 -217.406)" fill="#ffe300"/>
      </g>
      <g id="Grupo_2" data-name="Grupo 2" transform="translate(884.126 664.829)">
        <path id="Trazado_2008" data-name="Trazado 2008" d="M627.763,244.594v1.763c0,1.493-.662,2.714-2.381,2.714H614.536v-2.089c0-1.439.476-2.388,1.984-2.388Z" transform="translate(-614.536 -244.594)" fill="#ffe300"/>
      </g>
    </g>
  </g>
</svg>
