<svg xmlns="http://www.w3.org/2000/svg" xmlns:xlink="http://www.w3.org/1999/xlink" width="233" height="40.527" viewBox="0 0 233 40.527">
  <defs>
    <linearGradient id="linear-gradient" x1="0.5" y1="0.007" x2="0.5" y2="0.984" gradientUnits="objectBoundingBox">
      <stop offset="0" stop-color="#f0d869"/>
      <stop offset="0.078" stop-color="#f6df73"/>
      <stop offset="0.205" stop-color="#fce77f"/>
      <stop offset="0.34" stop-color="#ffea83"/>
      <stop offset="0.604" stop-color="#fff2b2"/>
      <stop offset="0.759" stop-color="#ffdf35"/>
      <stop offset="0.888" stop-color="#feed9a"/>
      <stop offset="1" stop-color="#fff"/>
    </linearGradient>
  </defs>
  <g id="edufami_logo" transform="translate(-405 -10)">
    <g id="Grupo_1840" data-name="Grupo 1840" transform="translate(405 10.258)">
      <g id="Grupo_1839" data-name="Grupo 1839">
        <path id="Trazado_2040" data-name="Trazado 2040" d="M473,169.866c.278,4.224,3.168,5.836,8.281,5.836,5.059,0,7.894-1.056,9.505-3.724,1.391.723,2.836,1.945,2.836,3.724,0,3.946-5.392,6.169-13.4,6.169-11.729,0-16.453-4.169-16.453-14.341s4.5-14.563,15.675-14.563c12.118,0,15.452,5,15.452,13.007a28.668,28.668,0,0,1-.389,3.892Zm-.056-5.226h14.063c-.389-4.335-2.612-5.28-6.726-5.28S473.5,160.36,472.949,164.64Z" transform="translate(-463.777 -141.684)" fill="#fff"/>
        <path id="Trazado_2041" data-name="Trazado 2041" d="M524.172,182.708a25.453,25.453,0,0,1-3.836.222c-4.391,0-5.336-2.112-5.336-3.557-2.168,2.112-5.337,3.946-10.728,3.946s-11.839-3.113-11.839-14.063c0-11.006,5.947-14.4,11.673-14.4,6.169,0,9.894,4.225,10.894,5.392V148.19c0-2.557,1.056-4.392,4.5-4.392h4.669ZM501.6,169.589c0,7,3.111,8,6.725,8s6.393-2.334,6.614-7.171v-1.834c0-4.169-2.946-7.281-6.614-7.281S501.6,162.586,501.6,169.589Z" transform="translate(-459.252 -143.132)" fill="#fff"/>
        <path id="Trazado_2042" data-name="Trazado 2042" d="M530.836,167.073c0,3.836,1.389,6.337,4.724,6.337,4.559,0,8.171-5.058,8.171-6.115V153.4H552.9v27.792H549.29c-3.557,0-5.558-.61-5.558-4.224v-1.556c-3.058,3.724-6.337,6.281-11.729,6.281-4.724,0-10.339-2.668-10.339-12.672V153.4h3.668c3.557,0,5.5,1.391,5.5,5Z" transform="translate(-454.635 -141.616)" fill="#fff"/>
        <path id="Trazado_2043" data-name="Trazado 2043" d="M571.474,148.948a5.706,5.706,0,0,1-2.334,4.669s-.445-3.446-3.835-3.446-5.837,1.39-5.837,6.5v2.5h11.284v6.614H559.468V182.8h-9V156.729c0-8.726,4.28-13.506,12.95-13.506C568.64,143.223,571.474,146.113,571.474,148.948Z" transform="translate(-450.087 -143.223)" fill="#fff"/>
        <path id="Trazado_2044" data-name="Trazado 2044" d="M601.2,181.2c-4.28.167-8.561,0-8.561-3.946-1.555,2.334-5.336,4.558-10.727,4.558-7,0-12.4-4-12.4-14.063,0-11.062,5.614-14.4,12.4-14.4,6.559,0,9.56,3.447,10.783,6.171-.888-4.724,1.669-6.226,4.225-6.171l4.28.056Zm-22.512-13.061c0,6.169,2.113,7.837,6.726,7.837,5.67,0,6.5-4.446,6.5-7.782v-.556c0-4.446-1.834-7.059-6.5-7.059C580.8,160.578,578.691,162.523,578.691,168.138Z" transform="translate(-447.078 -141.624)" fill="#fff"/>
        <path id="Trazado_2045" data-name="Trazado 2045" d="M639.789,166.871c0-3.779-2.168-5.558-4.67-5.558-3.335,0-5.614,2.946-6.725,6.058v13.9h-9.172v-14.4c0-3.779-1.946-5.558-4.613-5.558-3.447,0-5.837,3.057-6.782,6.058v13.9h-9.172V153.475h4c3.892,0,5.17,1.278,5.17,4.17v1.945c1.779-2.723,5.447-6.671,10.894-6.671,5.06,0,7.727,2.946,8.727,6.448.778-1.223,4.892-6.448,11.784-6.448,5.615,0,9.728,3.668,9.728,11.34v17.009h-3.835c-3.891,0-5.336-1.612-5.336-5.558Z" transform="translate(-442.477 -141.692)" fill="#fff"/>
      </g>
    </g>
    <g id="Grupo_1845" data-name="Grupo 1845" transform="translate(611.368 10)">
      <g id="Grupo_1841" data-name="Grupo 1841" transform="translate(9.093 32.525)">
        <path id="Trazado_2046" data-name="Trazado 2046" d="M659.743,171.089l-4.944,7.969-4.945-7.969A14.332,14.332,0,0,0,659.743,171.089Z" transform="translate(-649.853 -171.089)" fill="#fff"/>
      </g>
      <g id="Grupo_1843" data-name="Grupo 1843">
        <g id="Grupo_1842" data-name="Grupo 1842">
          <path id="Trazado_2047" data-name="Trazado 2047" d="M661.479,175.016c3.6-5.4-7.876-5.5-10.413-3.58-1.332,1.005-2.142,1.759-.412,2.736,2.543,1.437,7.008.339,9.211-1.312.975-.732,2.276-1.83,2.486-3.109.817-4.989-7.8-4.252-10.4-3.76-.981.185-3.293.9-3.676,2.161-.544,1.792,3.811,1.607,5.225,1.519,5.143-.323,10.581-4.245,13.315-8.757,4.919-8.122-.768-17.357-9.459-17.886-5.2-.316-9.621,2.09-13,6.054-5.683,6.675-.269,15.553,7.51,16.079,5.5.371,13.271-4.521,10.648-11.206-1.565-3.993-6.158-3.891-8.98-1.5-1.173.992-3.051,2.572-2.531,4.342-.094-.318,2.1-1.413,1.979-1.838-.62-2.112,1.626-2.493,3.185-2.367a4.822,4.822,0,0,1,4.368,3.2c2.211,5.636-2.48,8.061-7.375,7.48-8.29-.983-13.838-13.692-4.065-17.512,6.563-2.566,15.214-.041,17.106,7.52a11.318,11.318,0,0,1-7.369,13.893,13.706,13.706,0,0,1-5.645.617c-.232-.021-3.892-.39-3.161-1.219l-1.951,1.8c2.763-1.351,12.577-2.248,12.318,3.011-.06,1.218.292.351-.772.844a10.176,10.176,0,0,1-3.818.579c-.542,0-5.344-.353-4.135-1.862l-1.951,1.8c2.56-1.3,13.265-1.114,9.781,4.118.478-.719,1.484-1.1,1.979-1.838Z" transform="translate(-642 -143)" fill="url(#linear-gradient)"/>
        </g>
      </g>
      <g id="Grupo_1844" data-name="Grupo 1844" transform="translate(11.021 35.65)">
        <path id="Trazado_2048" data-name="Trazado 2048" d="M652.314,174.352l2.1,3.39,2.1-3.39a13.015,13.015,0,0,1-2.1.263A12.725,12.725,0,0,1,652.314,174.352Z" transform="translate(-651.392 -173.699)" fill="#403d3c"/>
        <path id="Trazado_2049" data-name="Trazado 2049" d="M654.544,178.665l-3.026-4.876,1.008.212a12.531,12.531,0,0,0,2.015.254A12.738,12.738,0,0,0,656.56,174l1.01-.213Zm-1.208-3.613L654.544,177l1.208-1.945a9.441,9.441,0,0,1-1.205.1A8.843,8.843,0,0,1,653.336,175.052Z" transform="translate(-651.518 -173.788)" fill="#403d3c"/>
      </g>
    </g>
  </g>
</svg>
