<svg id="Capa_1" data-name="Capa 1" xmlns="http://www.w3.org/2000/svg" viewBox="0 0 150 150"><defs><style>.cls-1{opacity:0.81;}.cls-2{fill:#606060;}.cls-3,.cls-9{fill:#fff;}.cls-12,.cls-3,.cls-5{stroke:#fff;stroke-miterlimit:10;}.cls-4{fill:#00fcdd;}.cls-12,.cls-5{fill:none;}.cls-5{stroke-linecap:round;stroke-width:8px;}.cls-6{fill:#f9f9f9;}.cls-7{opacity:0.8;}.cls-8{fill:#089b2b;}.cls-10{fill:#ff40ff;}.cls-11{fill:#ff8b2c;}.cls-13{fill:#0043ff;}.cls-14{fill:#ffda00;}</style></defs><title>Mesa de trabajo 1</title><g class="cls-1"><circle class="cls-2" cx="41.06" cy="106.23" r="24.69"/><path class="cls-3" d="M39,123.9v-4a11.48,11.48,0,0,1-6-1.74l1-2.65a10.52,10.52,0,0,0,5.69,1.7c2.8,0,4.7-1.62,4.7-3.87s-1.54-3.52-4.47-4.7c-4-1.58-6.51-3.4-6.51-6.84,0-3.28,2.33-5.77,6-6.36v-4H41.7v3.83a10.49,10.49,0,0,1,5.14,1.39l-1,2.6a9.6,9.6,0,0,0-5-1.34c-3,0-4.19,1.82-4.19,3.4,0,2,1.47,3.08,4.9,4.5,4.07,1.66,6.13,3.71,6.13,7.23,0,3.12-2.18,6.05-6.25,6.72v4.11Z"/></g><g class="cls-1"><circle class="cls-4" cx="111.38" cy="99.65" r="24.69"/><line class="cls-5" x1="111.93" y1="87.03" x2="111.93" y2="114.46"/><line class="cls-5" x1="125.65" y1="100.75" x2="98.22" y2="100.75"/></g><path class="cls-6" d="M78.23,76.69v10.1h0V76.67Z"/><path class="cls-6" d="M80.49,86.85h-2v0h2Z"/><g class="cls-7"><circle class="cls-8" cx="30.09" cy="67.83" r="24.69"/></g><path class="cls-9" d="M31.52,83.05V73.61l2.84-3.53L34,69.66s-2.31,2.85-2.67,2.79-.47-1.73-.12-2.92a13.85,13.85,0,0,1,1.49-3.68c.46-.44-.38-.84-.38-.84a6.14,6.14,0,0,0-1,1.71c-.5,1.16-1,3.09-1.09,3.21s-.34.59-.52-.07A10.79,10.79,0,0,1,29.62,65c.52-1.75-1,.15-1,.15a19.51,19.51,0,0,0,0,4.4c.32,1.11-.44.17-.89-.45s-1.93-3.38-2.15-3.41-.74.52-.74.52,2.32,3.51,2.74,4.08.7.87.45,1.37-2.89-2-3.56-2.58S24,70,24,70a42,42,0,0,1,3.7,2.8A10.16,10.16,0,0,1,28.53,74c.37.64,0,9,0,9Z"/><path class="cls-9" d="M27.41,84c-.3-.08-1-1.09-.93-1.08l.83.24s-.3-.76-.19-.74.84.53,1,.59.82-.54.95-.48a6.49,6.49,0,0,0,1.43.39c.25,0,1.14-1.14,1.57-1,.19.07.14.54.23.77s.24.31.5.19a1.63,1.63,0,0,1,.84-.16c.18,0,.85.43.48.37s-.79-.31-1,.29a3,3,0,0,0-.17.61Z"/><path class="cls-9" d="M26.53,67c.79.83,1.68-1.13,2.27-1.13s.75.39,1.29.57,1-.72,1.48-.57.3.94.69,1.14.65.29.65.93.43.48.65.65c.62.47-1,1.84.77,2.25,1.12.26.31,2.74,4.16,2s3.62-3,3.36-3.43-.89-1-.74-1.66,1.7-.62,2.27-1.54a2.66,2.66,0,0,0-.69-3.6c-1.58-1.39-2.67-.74-3.21-1.29s1.05-1,.64-1.93c-.33-.71-.79-.27-1.09-.86s.2-1-.64-1.36-1-.74-1-1.14a5.43,5.43,0,0,0-2.67-3.21c-1.63-.64-3.57-1.21-4.84-.59s-.89,1.17-1.31,1c-1.18-.56-1.52.25-2.06.45s-1.42-.92-3.84.42-1.38,2.39-2.08,3c-.28.23-1.08-.47-1.43.2-.27.5.49,1.26,0,1.43s-1.22.07-1.14.74c.05.39.64,1,0,1.34s-2.64,1.49-2.87,2.62c-.15.75-.69,1.88,1.78,4.3s-1.38,2.81.55,5,3.53,2.65,5,1.72,3.47-1.8,3.24-2.66-1.14-1.14-.69-1.53,1-.43.89-1.29c-.05-.35-.74-1.08-.84-1.43S25.54,65.93,26.53,67Z"/><path class="cls-9" d="M78,42.05a3,3,0,0,0,2,0c-.25.52-.89,1.89-1.14,2.42A4.13,4.13,0,0,1,78,42.05Z"/><g class="cls-7"><circle class="cls-10" cx="116.42" cy="60.6" r="24.69"/></g><circle class="cls-9" cx="111.18" cy="58.03" r="8.2"/><circle class="cls-9" cx="122.72" cy="58.04" r="8.2"/><rect class="cls-9" x="108.73" y="55.56" width="16.44" height="16.44" transform="translate(-10.85 101.38) rotate(-45)"/><g class="cls-1"><circle class="cls-2" cx="91.53" cy="32.72" r="24.69"/><path class="cls-9" d="M101.18,18.14c-.37.78-.71,1.54-1.08,2.29s-.41.83.13,1.61c.34.5.69,1,1,1.48a.52.52,0,0,0,.38.17c.73-.05,1.46-.08,2.17-.2a2.56,2.56,0,0,0,1.54-.77,13.39,13.39,0,0,1,1.08-1,4.18,4.18,0,0,1,.16,1.88,4.87,4.87,0,0,1-3.93,4.23,5,5,0,0,1-2.58-.17.63.63,0,0,0-.38,0c-.08,0-.14.13-.21.19L94.4,32.94l10,9.94-2.78,2.74-9.9-9.91c-.5.5-.94.93-1.38,1.38l-2.67,2.67a.36.36,0,0,0-.12.46,4.92,4.92,0,0,1-3.77,6.46h-.29c.42-.9.81-1.78,1.24-2.64a.75.75,0,0,0-.07-.94c-.44-.56-.83-1.16-1.23-1.75a.41.41,0,0,0-.45-.21c-.71.07-1.42.12-2.13.17-.35,0-.65.08-.73.49a2,2,0,0,1-.17.36.78.78,0,0,1-1.22.38.46.46,0,0,0-.26-.11c-.43,0-.45-.23-.46-.58A4.89,4.89,0,0,1,82.06,37a4.84,4.84,0,0,1,2.44.19.45.45,0,0,0,.38,0c1.37-1.34,2.72-2.69,4.06-4l-5.7-5.7-3.15,3.2L76.42,27l2-2c1.74-1.74,3.46-3.5,5.23-5.21a3.14,3.14,0,0,1,1.17-.53c1.45-.5,2.91-1,4.43-1.47l-.37,1.15c-.41,1.21-.83,2.42-1.21,3.65A2.32,2.32,0,0,1,87,23.64l-1,.93,5.73,5.71c.34-.33.71-.69,1.07-1.06,1.37-1.37,2.74-2.75,4.12-4.11a.45.45,0,0,0,.13-.55A4.91,4.91,0,0,1,101,18.14,1.59,1.59,0,0,1,101.18,18.14Z"/></g><g class="cls-1"><circle class="cls-11" cx="50.94" cy="34.91" r="24.69"/><path class="cls-9" d="M57.1,46.57c0,.46.3.53.72.52,1.15,0,2.31,0,3.46,0,.85,0,.87,0,.7,1H41.5c-.86,0-.86,0-.71-1h4.13c.31,0,.66.1.74-.39,0-.07.27-.12.42-.14a19.13,19.13,0,0,0,2.15-.27,2,2,0,0,0,1.53-2,8,8,0,0,1,.84-4.09,1.38,1.38,0,0,0,.12-.68q0-4.71,0-9.42a1.17,1.17,0,0,0-.16-.72A3.1,3.1,0,0,1,49.81,27c0-.51-.18-.68-.68-.76a5.79,5.79,0,0,0-2.73.52,37.94,37.94,0,0,1-4.7,1.44A5,5,0,0,1,37.49,27a1.31,1.31,0,0,1-.38-1.56,1.23,1.23,0,0,1,1.24-.84,3.73,3.73,0,0,1,.82,0c.63.15.82.49.57,1.09a.77.77,0,0,0,.46,1.09,3.19,3.19,0,0,0,2.62,0c1.56-.54,3.11-1.13,4.67-1.7a1,1,0,0,1,.18-.07c.73-.1,1.62,0,2.16-.36s.7-1.26,1.07-1.9c.21-.37.35-.65-.1-1s-.2-.77,0-1.06a.65.65,0,0,1,1,0c.32.31.46.77.09,1.07s-.29.65-.07,1,.55,1.1.86,1.63c.08.15.28.34.43.34A12.92,12.92,0,0,1,58,26.05a15,15,0,0,0,2.65.89,5,5,0,0,0,2-.15c.45-.11.62-.52.45-1-.24-.72,0-1.07.79-1.15,1.41-.15,2.24.64,1.82,1.8a2.13,2.13,0,0,1-.82.92,5.72,5.72,0,0,1-5.29.57l-4-1.4a4.86,4.86,0,0,0-.93-.23c-1.25-.19-1.52,0-1.67,1.21a2.76,2.76,0,0,1-.74,1.92c-.11.1-.11.36-.11.55v9.74a1.38,1.38,0,0,0,.12.68,6.35,6.35,0,0,1,.8,3.7,2.29,2.29,0,0,0,2.29,2.4C55.86,46.53,56.46,46.54,57.1,46.57Z"/><path class="cls-9" d="M58,39.69H69.46C66.7,42,61.16,42,58,39.69Z"/><path class="cls-9" d="M33.32,39.69H44.73C42,41.82,36.33,42.12,33.32,39.69Z"/><polyline class="cls-12" points="33.32 39.69 39.03 27.95 44.73 39.69"/><line class="cls-12" x1="39.03" y1="27.95" x2="39.03" y2="39.69"/><polyline class="cls-12" points="58.02 39.69 63.73 27.95 69.43 39.69"/><line class="cls-12" x1="63.73" y1="27.95" x2="63.73" y2="39.69"/></g><g class="cls-1"><circle class="cls-13" cx="77.27" cy="119.4" r="24.69"/><path class="cls-9" d="M90.82,122.06a.7.7,0,0,1,.06.19v5.8a.75.75,0,0,1-.8.79,19.49,19.49,0,0,0-4.57.54,16.94,16.94,0,0,0-4.68,1.8,13.26,13.26,0,0,0-3.65,3,.75.75,0,0,1-1.21,0,13.43,13.43,0,0,0-4-3.23,18.55,18.55,0,0,0-5.66-1.86,20.37,20.37,0,0,0-3.22-.26.75.75,0,0,1-.79-.8v-5.6a1.08,1.08,0,0,1,0-.19l1.44-1.43a1.52,1.52,0,0,1,0,.21v6.14c0,.14,0,.18.18.19,1,.09,1.91.15,2.85.3a18.28,18.28,0,0,1,4,1.1,16.09,16.09,0,0,1,4.43,2.57l.63.54V121.48a2,2,0,0,1,0-.24l.36-.34,1.06-1.08a.71.71,0,0,1,0,.2v11.85l.17-.15a1.5,1.5,0,0,0,.13-.11A15.87,15.87,0,0,1,81.74,129a21.53,21.53,0,0,1,2.44-.88,20.53,20.53,0,0,1,5-.79c.16,0,.15-.1.15-.21V121a1,1,0,0,1,.08-.29h.05l.14.18Z"/><path class="cls-9" d="M77.28,119.82l-1.06,1.08-.36.34a1.13,1.13,0,0,1,0-.18v-1.58c0-1.4,0-2.81,0-4.21a.64.64,0,0,0-.19-.47,14,14,0,0,0-4.2-3.12,18,18,0,0,0-4.79-1.53L66.1,110l-1.62-1.61a1.43,1.43,0,0,1,.29,0,21.09,21.09,0,0,1,5.86,1.31,16,16,0,0,1,6,3.93c.18-.19.35-.38.53-.56a15.59,15.59,0,0,1,4.2-2.85,19.11,19.11,0,0,1,4.88-1.54c.8-.14,1.6-.2,2.41-.3a1.36,1.36,0,0,1,.17,0l-1.18,1.2c-.14.13-.27.27-.4.41l-.17,0a18.61,18.61,0,0,0-5.59,1.77,13.39,13.39,0,0,0-4,3.08.41.41,0,0,0-.11.28v4.39A1.09,1.09,0,0,1,77.28,119.82Z"/><path class="cls-9" d="M61.21,118.21a1.52,1.52,0,0,1,0,.21v9.93a1.49,1.49,0,0,0,1.56,1.57,22,22,0,0,1,3.89.35,1,1,0,0,1,.15.07l-.91.91c-.37,0-.73-.08-1.1-.1-.66-.05-1.32-.09-2-.1a2.62,2.62,0,0,1-2.57-1.74,2.36,2.36,0,0,1-.15-.79c0-1.36,0-2.73,0-4.09,0-2.34,0-4.67,0-7a2.48,2.48,0,0,1,0-.27Z"/><path class="cls-9" d="M64.48,108.4,66.1,110s0,0-.08,0c-.4-.05-.81-.11-1.22-.15l-1-.07v10.73a1.25,1.25,0,0,1,0,.19l-.57-.58-.87-.86a1.25,1.25,0,0,1,0-.19v-9.93a.77.77,0,0,1,.84-.85c.37,0,.75,0,1.12,0A1,1,0,0,1,64.48,108.4Z"/><path class="cls-9" d="M87.2,110c.13-.14.26-.28.4-.41l1.18-1.2a.83.83,0,0,1,.21-.06h1.08a.76.76,0,0,1,.81.83v9.94a1.22,1.22,0,0,1-.06.26l-.72.74-.59.61h-.05a1.29,1.29,0,0,1-.08-.31V110c0-.07,0-.13,0-.21l-1.37.11Z"/><path class="cls-9" d="M86.39,130.31c.19-.05.37-.1.55-.13a23.36,23.36,0,0,1,3.45-.26,1.5,1.5,0,0,0,1.52-1.55v-5a1.2,1.2,0,0,1,0-.2l1.06,1a1.52,1.52,0,0,1,0,.21v3.94A2.62,2.62,0,0,1,90.36,131a21.17,21.17,0,0,0-3,.2l-.09,0Z"/><path class="cls-9" d="M86.39,130.31l.91.91-.83.17a14.48,14.48,0,0,0-4,1.36,10.57,10.57,0,0,0-2.05,1.39.55.55,0,0,1-.93-.26.54.54,0,0,1,.2-.58,11.63,11.63,0,0,1,3.06-1.93,16,16,0,0,1,3.53-1.06Z"/><path class="cls-9" d="M65.93,131.25l.91-.91c.11,0,.23,0,.34,0a16.45,16.45,0,0,1,3.67,1.21,11.4,11.4,0,0,1,2.66,1.74.56.56,0,0,1,.08.8.55.55,0,0,1-.8.06,11.42,11.42,0,0,0-4.6-2.4c-.72-.2-1.46-.33-2.19-.48Z"/><path class="cls-9" d="M61.21,118.21l-1.06-1.06a1.13,1.13,0,0,1,0-.18v-6.13a.56.56,0,0,1,.56-.58.54.54,0,0,1,.56.56v7.26A.5.5,0,0,1,61.21,118.21Z"/><path class="cls-9" d="M91.94,118.25a1.1,1.1,0,0,1,0-.16v-7.24a.57.57,0,0,1,.22-.49.55.55,0,0,1,.17,0l.7.69a1.62,1.62,0,0,1,0,.2V117a1.52,1.52,0,0,1,0,.21Z"/><path class="cls-9" d="M91.94,118.25,93,117.19a.9.9,0,0,1,0,.16v6.71a.9.9,0,0,1,0,.16l-1.06-1a1.81,1.81,0,0,1,0-.23v-4.47A1.66,1.66,0,0,1,91.94,118.25Z"/><path class="cls-9" d="M62.3,119.3l.87.86.57.58v.08l-1.44,1.43a.61.61,0,0,1,0-.11V119.4A.29.29,0,0,1,62.3,119.3Z"/><path class="cls-9" d="M89.51,120.71l.59-.61.72-.74s.06.1.06.14v2.42s0,.09-.06.14l-1.17-1.17Z"/><path class="cls-9" d="M93,111l-.7-.69a.51.51,0,0,1,.72.42A.82.82,0,0,1,93,111Z"/><path class="cls-9" d="M87.49,113.92c.41,0,.66.17.7.46a.57.57,0,0,1-.5.65c-.9.16-1.82.29-2.71.51a14.56,14.56,0,0,0-5.53,2.63.56.56,0,0,1-.72,0,.55.55,0,0,1-.17-.68.84.84,0,0,1,.25-.28,15.28,15.28,0,0,1,3-1.8,19.35,19.35,0,0,1,2.89-1A21.15,21.15,0,0,1,87.49,113.92Z"/><path class="cls-9" d="M87.87,119.09a1.25,1.25,0,0,1-.25.09,18.46,18.46,0,0,0-4.84,1.31,16,16,0,0,0-3.34,1.84.55.55,0,0,1-.74,0,.53.53,0,0,1-.14-.65,1.15,1.15,0,0,1,.33-.33,17.29,17.29,0,0,1,3.81-2,19.48,19.48,0,0,1,4.1-1.13.75.75,0,0,1,.15,0Z"/><path class="cls-9" d="M79.08,126.65a.6.6,0,0,1-.54-.41.54.54,0,0,1,.22-.65c.46-.31.91-.62,1.38-.9a18.16,18.16,0,0,1,3.6-1.61c.41-.13.82-.25,1.24-.36a.54.54,0,0,1,.69.42.56.56,0,0,1-.42.66,18,18,0,0,0-4.8,2c-.35.21-.67.45-1,.67A4,4,0,0,1,79.08,126.65Z"/><path class="cls-9" d="M87.87,119.09l-.92-.92a7.53,7.53,0,0,1,.8-.09.51.51,0,0,1,.43.41.57.57,0,0,1-.24.6Z"/><path class="cls-9" d="M65.66,113.89c.65.11,1.31.2,2,.34s1.12.25,1.68.42a15.9,15.9,0,0,1,4.34,2q.46.31.9.66a.55.55,0,0,1,.09.78.56.56,0,0,1-.78.09,15.09,15.09,0,0,0-4.45-2.35,19.1,19.1,0,0,0-3.73-.81.6.6,0,0,1-.56-.35.54.54,0,0,1,.1-.59A.64.64,0,0,1,65.66,113.89Z"/><path class="cls-9" d="M65.32,122.32c.13,0,.25-.11.37-.09.55.07,1.1.15,1.65.26a18.81,18.81,0,0,1,5.38,2c.62.34,1.2.74,1.79,1.14a.55.55,0,0,1,.07.88.57.57,0,0,1-.73,0,16.05,16.05,0,0,0-2.36-1.42,18.83,18.83,0,0,0-4.91-1.6.76.76,0,0,1-.16-.06Z"/><path class="cls-9" d="M66.38,118.18c.31,0,.63.08,1,.15a20.06,20.06,0,0,1,4.39,1.47,15.26,15.26,0,0,1,2.78,1.64.58.58,0,0,1,.16.8.56.56,0,0,1-.82.1,16.61,16.61,0,0,0-4.35-2.24,17,17,0,0,0-3.83-.91,2,2,0,0,1-.23-.07Z"/><path class="cls-9" d="M66.38,118.18l-.95.94a.49.49,0,0,1-.35-.55.51.51,0,0,1,.46-.49A6,6,0,0,1,66.38,118.18Z"/><path class="cls-9" d="M65.32,122.32l1.1,1.1-.34,0-.57-.09a.54.54,0,0,1-.19-1Z"/></g><g class="cls-1"><circle class="cls-14" cx="73.98" cy="74.41" r="24.69"/></g><path class="cls-9" d="M76.59,62.16V60.55c0-.69.25-.95.94-.95h3.71c.66,0,.93.28.93.94q0,3,0,6.09a.55.55,0,0,0,.21.44l5.42,4.58.22.19a.74.74,0,0,1,.19.83.72.72,0,0,1-.69.48H86.12c-.57,0-1.14,0-1.71,0-.24,0-.32,0-.32.31q0,7,0,13.94a2.3,2.3,0,0,1,0,.37.77.77,0,0,1-.83.62l-6.46.12-13.41.24c-.61,0-.9-.27-.9-.9,0-4.79,0-9.58,0-14.37,0-.26-.06-.34-.33-.33-1,0-1.95,0-2.92,0a.78.78,0,0,1-.53-1.44l14-11.87a.8.8,0,0,1,1.17,0C74.76,60.62,75.65,61.36,76.59,62.16Z"/><path class="cls-14" d="M70,82.2c0-1.53,0-3,0-4.58,0-.21.05-.27.27-.27q3,0,6.06,0c.22,0,.26.07.26.28q0,4.52,0,9c0,.24-.06.31-.3.32q-3,0-6,.07c-.23,0-.26-.08-.25-.28Z"/></svg>