<svg id="Capa_1" data-name="Capa 1" xmlns="http://www.w3.org/2000/svg" xmlns:xlink="http://www.w3.org/1999/xlink" viewBox="0 0 150 150"><defs><style>.cls-1,.cls-9{fill:none;}.cls-2{fill:#737c70;}.cls-3{fill:#bbc67e;}.cls-4{clip-path:url(#clip-path);}.cls-5{fill:#97a83a;}.cls-6{fill:#73831f;}.cls-7{fill:#e06e43;}.cls-8{fill:#e99867;}.cls-9{stroke:#320f00;stroke-linecap:round;stroke-linejoin:round;stroke-width:0.25px;}.cls-10{fill:#25211e;}.cls-11{fill:#312d2b;}.cls-12{fill:#320f00;}.cls-13{fill:#433f3d;}.cls-14{fill:#86e8bf;}.cls-15{clip-path:url(#clip-path-2);}.cls-16{fill:#20aa70;}.cls-17{fill:#3bd997;}.cls-18{fill:#aa5333;}.cls-19{fill:#b46838;}.cls-20{fill:#25150c;}.cls-21{fill:#311c11;}.cls-22{fill:#4d2c18;}.cls-23{fill:#fff;}.cls-24{fill:#7b1fa2;}</style><clipPath id="clip-path"><path id="Layer0_12_1_STROKES" data-name="Layer0 12 1 STROKES" class="cls-1" d="M149.58,52.6a29.7,29.7,0,0,1-9.07,21.84,30.88,30.88,0,0,1-43.7,0,29.75,29.75,0,0,1-9-21.84,29.81,29.81,0,0,1,9-21.86,30.9,30.9,0,0,1,43.7,0A29.77,29.77,0,0,1,149.58,52.6Z"/></clipPath><clipPath id="clip-path-2"><path id="Layer0_3_1_STROKES" data-name="Layer0 3 1 STROKES" class="cls-1" d="M66.42,52a29.76,29.76,0,0,1-9.05,21.84,29.76,29.76,0,0,1-21.84,9,29.81,29.81,0,0,1-21.86-9A29.75,29.75,0,0,1,4.63,52a29.78,29.78,0,0,1,9-21.86,29.81,29.81,0,0,1,21.86-9,29.76,29.76,0,0,1,21.84,9.05A29.79,29.79,0,0,1,66.42,52Z"/></clipPath></defs><title>Mesa de trabajo 5</title><path id="Layer0_1_1_STROKES" data-name="Layer0 1 1 STROKES" class="cls-2" d="M148,58.71a28.18,28.18,0,0,1-8.59,20.7,29.25,29.25,0,0,1-41.41,0,28.21,28.21,0,0,1-8.58-20.7A28.27,28.27,0,0,1,98,38a29.3,29.3,0,0,1,41.41,0A28.24,28.24,0,0,1,148,58.71Z"/><path id="Layer0_12_1_STROKES-2" data-name="Layer0 12 1 STROKES" class="cls-3" d="M149.58,52.6a29.7,29.7,0,0,1-9.07,21.84,30.88,30.88,0,0,1-43.7,0,29.75,29.75,0,0,1-9-21.84,29.81,29.81,0,0,1,9-21.86,30.9,30.9,0,0,1,43.7,0A29.77,29.77,0,0,1,149.58,52.6Z"/><g class="cls-4"><g id="Layer0_10_FILL" data-name="Layer0 10 FILL"><path class="cls-5" d="M101.32,85.74l.05-.18c1.4-4.57,2.51-7.46,3.28-8.58s1.3-1.9,1.8-2.51l0,0h.07c1.07.13,2.29.24,3.63.34s2.47.18,3.53.23h.06l0,0a5.23,5.23,0,0,0,1.46,1,7.76,7.76,0,0,0,3.52,1h.29a8.37,8.37,0,0,0,3.59-1,4.36,4.36,0,0,0,1.37-1l0-.05h.06c1,0,2-.11,2.92-.18,1.55-.13,2.86-.28,3.89-.46H131l0,0,.08.08A25.07,25.07,0,0,1,133.09,77c.77,1.12,1.88,4,3.28,8.56l0,.18Z"/><path class="cls-6" d="M122.73,71.16a3,3,0,0,1,1.2.91,2.8,2.8,0,0,1,.65,1.79,1.79,1.79,0,0,1-.43,1.15c1,0,2-.1,2.93-.18q2.34-.18,3.9-.45a8.76,8.76,0,0,0-3.33-1.84,27.91,27.91,0,0,0-4.92-1.38m-7.71,0a27.77,27.77,0,0,0-4.93,1.38,8.54,8.54,0,0,0-3.4,1.9.86.86,0,0,1-.13.14c1.07.12,2.28.24,3.63.34s2.47.18,3.53.23a1.94,1.94,0,0,1-.56-1.3,2.77,2.77,0,0,1,.68-1.79A3,3,0,0,1,115,71.14Z"/><path class="cls-7" d="M114.88,64.81c0,.91.09,2.86.14,5.87v.46c0,.4,0,.83,0,1.29,0-.46,0-.89,0-1.29a3,3,0,0,0-1.18.9,2.77,2.77,0,0,0-.68,1.79,1.94,1.94,0,0,0,.56,1.3,5.36,5.36,0,0,0,1.5,1.06,7.65,7.65,0,0,0,3.88,1,8.52,8.52,0,0,0,3.65-1.05,4.21,4.21,0,0,0,1.4-1.09,1.79,1.79,0,0,0,.43-1.15,2.8,2.8,0,0,0-.65-1.79,3,3,0,0,0-1.2-.91c0,.38,0,.77,0,1.18,0-.41,0-.8,0-1.18v-.48c0-2.72,0-4.68,0-5.87h-7.8m5.24,11.27a.4.4,0,0,1-.12.34,3.23,3.23,0,0,1-2.54,0,.68.68,0,0,1-.06-.34c0-.49.45-.71,1.36-.66S120.12,75.69,120.12,76.08Z"/><path class="cls-8" d="M120.37,76.53a.52.52,0,0,0,.15-.44c0-.51-.59-.8-1.76-.88s-1.77.23-1.77.85a.74.74,0,0,0,.09.44,2.58,2.58,0,0,0,1.68.36A2.65,2.65,0,0,0,120.37,76.53Z"/></g><path id="Layer0_10_1_STROKES" data-name="Layer0 10 1 STROKES" class="cls-9" d="M115,71.14a27.77,27.77,0,0,0-4.93,1.38,8.54,8.54,0,0,0-3.4,1.9l-.12.15m7.15.56a1.94,1.94,0,0,1-.56-1.3,2.77,2.77,0,0,1,.68-1.79,3,3,0,0,1,1.18-.9v-.46c0-3-.1-5-.14-5.87h7.8c0,1.19,0,3.15,0,5.87v.48a27.91,27.91,0,0,1,4.92,1.38A8.81,8.81,0,0,1,131,74.39l.06.06A24.92,24.92,0,0,1,133,77.08c.77,1.12,1.85,4,3.26,8.52H101.5c1.41-4.58,2.49-7.43,3.27-8.55a24.82,24.82,0,0,1,1.8-2.48M115,71.14c0,.4,0,.83,0,1.29M124.15,75a1.82,1.82,0,0,0,.43-1.16,2.8,2.8,0,0,0-.65-1.79,3,3,0,0,0-1.2-.91c0,.38,0,.77,0,1.18m-9,2.79a5.36,5.36,0,0,0,1.5,1.06,7.65,7.65,0,0,0,3.88,1,8.52,8.52,0,0,0,3.65-1.05,4.19,4.19,0,0,0,1.4-1.08m5.65,2.26,1.09,8.32m-22.95-8.34-1.09,8.34"/></g><g id="Layer0_14_FILL" data-name="Layer0 14 FILL"><path class="cls-8" d="M116.38,38.62a14.07,14.07,0,0,1-2.09,2.51,15.49,15.49,0,0,1-5.9,3.16,8.57,8.57,0,0,0,.53-1.82c-.66.58-1.3,1.12-1.93,1.64A33.81,33.81,0,0,1,102.93,47c.15,1.15.29,2.27.41,3.38v.07l.18,1.77c0,.12,0,.23,0,.34q.17,2.48.18,4.65c0,1.22,0,2.37-.07,3.44,0,.43-.06.83-.09,1.21q-.18,2.26,5.49,5.19a21.09,21.09,0,0,0,20.14,0q5.64-2.92,5.49-5.19c0-.29,0-1,0-2.18,0-.68,0-1.51,0-2.47v-.93c0-1.86.06-3.21.09-4,0-.45,0-.75,0-.91s0-.62.07-.9c.1-.91.23-2,.39-3.29a33.94,33.94,0,0,1-8.42-1.7Q119.88,43.09,116.38,38.62Z"/><path class="cls-7" d="M114.29,41.13a14.07,14.07,0,0,0,2.09-2.51q3.5,4.47,10.47,6.78a33.94,33.94,0,0,0,8.42,1.7c.06-.46.13-.94.2-1.45a25.3,25.3,0,0,1-3.58-.68,44.52,44.52,0,0,1-6.51-2.27c-4.6-2-7.57-4.41-8.91-7.17q-.43,1.71-3.4,4.38A22.36,22.36,0,0,1,110,42.27c.24-.33.48-.7.73-1.11a12.71,12.71,0,0,0,1.56-3.34A35.64,35.64,0,0,1,107.83,42a25.89,25.89,0,0,1-5.08,3.51l.18,1.45A33.81,33.81,0,0,0,107,44.11c.63-.52,1.27-1.06,1.93-1.64a8.57,8.57,0,0,1-.53,1.82,15.49,15.49,0,0,0,5.9-3.16m25.44,9.6-.07-.09a3.4,3.4,0,0,0-.31-.25,2.8,2.8,0,0,0-1.23-.52,3.49,3.49,0,0,0-.88-.1,4.57,4.57,0,0,0-2.36.62c0,.28,0,.59-.07.9s0,.46,0,.91a2.23,2.23,0,0,1,1-.41l.25,0a4.43,4.43,0,0,1,.66,0,1.87,1.87,0,0,1,1.63,1,1.74,1.74,0,0,1,.14,1.09,1.74,1.74,0,0,0-.14-1.09,1.87,1.87,0,0,0-1.63-1,9.66,9.66,0,0,1-.11,1.88,9.66,9.66,0,0,0,.11-1.88,4.43,4.43,0,0,0-.66,0l-.25,0a2.23,2.23,0,0,0-1,.41c0,.83-.06,2.18-.09,4v.93h.43a6.51,6.51,0,0,0,1.63-.21,6.1,6.1,0,0,0,1.54-.63A3.63,3.63,0,0,0,140.53,53a3.51,3.51,0,0,0-.53-2,1.44,1.44,0,0,0-.27-.34m-36.19,1.79c0-.11,0-.22,0-.34a2.57,2.57,0,0,0-1-.39l-.27,0a4.23,4.23,0,0,0-.66,0,9.66,9.66,0,0,0,.11,1.88,9.66,9.66,0,0,1-.11-1.88,1.9,1.9,0,0,0-1.63,1,1.68,1.68,0,0,0-.14,1.09,1.68,1.68,0,0,1,.14-1.09,1.9,1.9,0,0,1,1.63-1,4.23,4.23,0,0,1,.66,0l.27,0a2.57,2.57,0,0,1,1,.39l-.18-1.77v-.07a4.5,4.5,0,0,0-2.27-.57,3.43,3.43,0,0,0-2,.55,3.19,3.19,0,0,0-.43.32.18.18,0,0,1-.07.09,2.24,2.24,0,0,0-.27.34,3.59,3.59,0,0,0-.52,2A3.64,3.64,0,0,0,100,56.33l.66.32a6.77,6.77,0,0,0,2.52.52h.54Q103.7,55,103.54,52.52Z"/><path class="cls-10" d="M116.15,30c-.23.28-.47.59-.7.93a15.23,15.23,0,0,0-1.52,2.38l-.75-1c-.6,1.07-1.43,2.46-2.47,4.15A19.08,19.08,0,0,1,107,40.34c-2,1.66-3.57,2.5-4.72,2.5-.68-.38-1.85-1.18-3.52-2.39a11.33,11.33,0,0,1-1-.77c.07.58.18,1.29.34,2.14.09.52.17,1,.23,1.4a10.71,10.71,0,0,0,.34,1.38,10.71,10.71,0,0,1-.34-1.38c0,.14-.06.28-.1.43A5.62,5.62,0,0,1,96.4,47.1h.13a4.71,4.71,0,0,0,2.41-.86,1.14,1.14,0,0,1,.32-.18l.45-.37-.45.37a2.84,2.84,0,0,0-.39,1.17,9.94,9.94,0,0,0-.07,1.48,5.75,5.75,0,0,0,.07.82,3,3,0,0,0,.2.79,3.43,3.43,0,0,1,2-.55,4.5,4.5,0,0,1,2.27.57c-.12-1.11-.26-2.23-.41-3.38l-.18-1.45c-.27.12-.54.23-.8.32.26-.09.53-.2.8-.32A25.89,25.89,0,0,0,107.83,42a35.64,35.64,0,0,0,4.44-4.18,5.75,5.75,0,0,0,.21-1.49,5.75,5.75,0,0,1-.21,1.49,12.71,12.71,0,0,1-1.56,3.34c-.25.41-.49.78-.73,1.11a22.36,22.36,0,0,0,3.09-2.36q3-2.67,3.4-4.38a6.55,6.55,0,0,1-.66-1.79,6.55,6.55,0,0,0,.66,1.79c1.34,2.76,4.31,5.14,8.91,7.17A44.52,44.52,0,0,0,131.89,45a25.3,25.3,0,0,0,3.58.68,12.71,12.71,0,0,0,1.59.07,12.71,12.71,0,0,1-1.59-.07c-.07.51-.14,1-.2,1.45-.16,1.28-.29,2.38-.39,3.29a4.57,4.57,0,0,1,2.36-.62,3.49,3.49,0,0,1,.88.1,8.68,8.68,0,0,0,.66-5.42,10.66,10.66,0,0,0-1.13-1.07,10.66,10.66,0,0,1,1.13,1.07,19.64,19.64,0,0,1,1.38,1.61,8.75,8.75,0,0,1,1.5,2.24,10.61,10.61,0,0,0-1.11-5.44,11.52,11.52,0,0,0-.7-1,8.11,8.11,0,0,0-1.93-1.66,8.11,8.11,0,0,1,1.93,1.66,11.25,11.25,0,0,0,2.88-.41,1.26,1.26,0,0,1,.25-.07,6.46,6.46,0,0,1-1.34-.7,21.77,21.77,0,0,1-2-1.52,19.21,19.21,0,0,1-1.56-1.5,19.21,19.21,0,0,0,1.56,1.5,21.77,21.77,0,0,0,2,1.52,20.11,20.11,0,0,1-2-5l-.32-.11a9.57,9.57,0,0,1-3.24-2.2c0,.41-.08.89-.13,1.45-.19,1.7-.29,3-.32,4a6.78,6.78,0,0,0-.84-.61c-.51-.32-1.42-.81-2.72-1.48.11.39.27,1.07.47,2a7,7,0,0,0,.89,2.47c-1-.15-2-.32-2.81-.49a53.06,53.06,0,0,1-7.44-2.27,20.07,20.07,0,0,1-2.93-1.27,3.2,3.2,0,0,1-1.15-1.27c-.34-.83-.66-1.6-1-2.31a32.13,32.13,0,0,0-2-3.56m20.63,6c.08.13.17.28.28.43a4.75,4.75,0,0,0,.36.5,4.75,4.75,0,0,1-.36-.5c-.11-.15-.2-.3-.28-.43m-1.65,21.18h-.43c0,1,0,1.79,0,2.47a15.88,15.88,0,0,0,1.16-1.36c.38-.49.7-.92.95-1.32a6.51,6.51,0,0,1-1.63.21m-34.47-.52a5.34,5.34,0,0,0,.91,2,5.11,5.11,0,0,0,2.08,2c0-1.07.07-2.22.07-3.44h-.54A6.77,6.77,0,0,1,100.66,56.65Z"/><path class="cls-11" d="M102.21,43l0,0a39.37,39.37,0,0,1-3.53-2.39,12,12,0,0,1-1-.77l0,0v0c0-.42-.07-.75-.07-1,0-5.73,1.7-10.38,5-13.84A13.22,13.22,0,0,1,108,21.66a9.46,9.46,0,0,1,3-.52,8,8,0,0,1,3.56.84,20.89,20.89,0,0,1,9.21-2.25H124a15.66,15.66,0,0,1,8.76,2.63c2.6,1.69,4.24,3.63,4.88,5.79.46,1.46,1.19,4,2.18,7.39a.24.24,0,0,1,0,.12l0,.14-.45-.16a9.53,9.53,0,0,1-3.09-2c0,.34-.07.73-.11,1.17-.18,1.69-.29,3-.32,3.93V39l-.22-.18a8.09,8.09,0,0,0-.82-.6c-.47-.29-1.29-.74-2.44-1.33.11.41.24,1,.4,1.76a7,7,0,0,0,.86,2.42l.16.25-.29,0c-1-.16-2-.32-2.82-.5a53.25,53.25,0,0,1-7.46-2.27,19,19,0,0,1-2.95-1.29,3.32,3.32,0,0,1-1.2-1.32c-.34-.83-.67-1.61-1-2.32a32.87,32.87,0,0,0-1.86-3.38c-.19.24-.39.5-.58.77a16.37,16.37,0,0,0-1.51,2.37l-.1.19-.13-.17-.63-.85c-.58,1-1.38,2.37-2.37,4a19.13,19.13,0,0,1-3.77,4c-2,1.7-3.61,2.52-4.8,2.52Z"/></g><path id="Layer0_14_1_STROKES" data-name="Layer0 14 1 STROKES" class="cls-9" d="M97.77,39.7a9.25,9.25,0,0,1-.08-1q0-8.58,5-13.75a12.9,12.9,0,0,1,5.38-3.15,8.18,8.18,0,0,1,6.5.34,20.81,20.81,0,0,1,9.21-2.27,15.47,15.47,0,0,1,8.84,2.61q3.88,2.52,4.83,5.72c.46,1.46,1.18,3.93,2.18,7.39a.06.06,0,0,1,0,0,19.84,19.84,0,0,0,2,5,6.46,6.46,0,0,0,1.34.7,1.26,1.26,0,0,0-.25.07,11.25,11.25,0,0,1-2.88.41,11.52,11.52,0,0,1,.7,1,10.61,10.61,0,0,1,1.11,5.44,8.75,8.75,0,0,0-1.5-2.24,19.64,19.64,0,0,0-1.38-1.61,8.68,8.68,0,0,1-.66,5.42,2.8,2.8,0,0,1,1.23.52,3.4,3.4,0,0,1,.31.25l.07.09a1.44,1.44,0,0,1,.27.34,3.51,3.51,0,0,1,.53,2,3.63,3.63,0,0,1-2.23,3.31,6.1,6.1,0,0,1-1.54.63c-.25.4-.57.83-.95,1.32a15.88,15.88,0,0,1-1.16,1.36c0,1.16,0,1.89,0,2.18q.15,2.26-5.49,5.19a21.09,21.09,0,0,1-20.14,0q-5.67-2.92-5.49-5.19c0-.38.06-.78.09-1.21a5.11,5.11,0,0,1-2.08-2,5.34,5.34,0,0,1-.91-2l-.66-.32A3.64,3.64,0,0,1,97.78,53a3.59,3.59,0,0,1,.52-2,2.24,2.24,0,0,1,.27-.34.18.18,0,0,0,.07-.09,3.19,3.19,0,0,1,.43-.32,3,3,0,0,1-.2-.79,5.75,5.75,0,0,1-.07-.82,9.94,9.94,0,0,1,.07-1.48,2.84,2.84,0,0,1,.39-1.17,1.14,1.14,0,0,0-.32.18,4.71,4.71,0,0,1-2.41.86H96.4a5.62,5.62,0,0,0,1.83-3.45c0-.15.07-.29.1-.43-.06-.41-.14-.88-.23-1.4C97.94,41,97.83,40.26,97.77,39.7Zm37.51,7.4c.06-.46.12-.94.19-1.45a25.3,25.3,0,0,1-3.58-.68,44.52,44.52,0,0,1-6.51-2.27c-4.6-2-7.57-4.41-8.91-7.17q-.43,1.71-3.4,4.38A22.36,22.36,0,0,1,110,42.27c.24-.33.48-.7.73-1.11a12.71,12.71,0,0,0,1.56-3.34A35.64,35.64,0,0,1,107.83,42a25.89,25.89,0,0,1-5.08,3.51c.06.49.13,1,.19,1.45.15,1.15.28,2.27.4,3.38v.07l.18,1.77c0,.12,0,.23,0,.34q.17,2.48.18,4.65c0,1.22,0,2.37-.07,3.44m8.83-24.28a5.75,5.75,0,0,1-.21,1.49m3.54-4.08a6.55,6.55,0,0,0,.66,1.79m-13,16.65a2.57,2.57,0,0,0-1-.39l-.27,0a4.23,4.23,0,0,0-.66,0,9.66,9.66,0,0,0,.11,1.88m-3-9.1a10.71,10.71,0,0,1-.34-1.38m.93,2.84.45-.37m1.86,6.13a1.9,1.9,0,0,0-1.63,1,1.68,1.68,0,0,0-.14,1.09m3.54-3.56a4.5,4.5,0,0,0-2.27-.57,3.43,3.43,0,0,0-2,.55m1.59,6.33a6.77,6.77,0,0,0,2.52.52h.54M102,45.83c.26-.09.53-.2.8-.32m35.35-7.87a19.21,19.21,0,0,0,1.56,1.5,21.77,21.77,0,0,0,2,1.52M136.78,36c.08.13.17.28.28.43a4.75,4.75,0,0,0,.36.5m.23,6.46a10.66,10.66,0,0,1,1.13,1.07m-3.31,1.2a12.71,12.71,0,0,0,1.59.07m-2.18,4.67a4.57,4.57,0,0,1,2.36-.62,3.49,3.49,0,0,1,.88.1m-3.24.52c0,.28,0,.59-.07.9s0,.46,0,.91a2.23,2.23,0,0,1,1-.41l.25,0a4.43,4.43,0,0,1,.66,0,1.87,1.87,0,0,1,1.63,1,1.74,1.74,0,0,1,.14,1.09m-1.77-2.08a9.66,9.66,0,0,1-.11,1.88m-1.35-6.6c-.17,1.28-.3,2.38-.4,3.29M136.76,57a6.51,6.51,0,0,1-1.63.21h-.43c0,1,0,1.79,0,2.47m.14-7.44c0,.83-.06,2.18-.09,4v.93m3.22-17a8.11,8.11,0,0,1,1.93,1.66"/><g id="Layer0_14_MEMBER_0_FILL" data-name="Layer0 14 MEMBER 0 FILL"><path class="cls-12" d="M126.24,46.08a.46.46,0,0,0,.14.38,2.74,2.74,0,0,0,1.47.25,4.65,4.65,0,0,0,2.22-.34.67.67,0,0,0,.23-.59q0-.81-2-.54c-1.35.18-2,.46-2,.84m-15.37-.84c-1.35-.18-2,0-2,.54a.66.66,0,0,0,.22.59,4.61,4.61,0,0,0,2.23.34,2.66,2.66,0,0,0,1.45-.25.46.46,0,0,0,.13-.38Q112.88,45.51,110.87,45.24Z"/><path class="cls-10" d="M118.67,59a2.5,2.5,0,0,0-2.29-1.25,1.92,1.92,0,0,0-2.25,1.57,2,2,0,0,1-2,1.72,7.62,7.62,0,0,1-1.9-.27,3.51,3.51,0,0,0,1.36,2.38,5.66,5.66,0,0,0,3.76,1.34,2.78,2.78,0,0,0,2.29-1.13,6.56,6.56,0,0,0,1-1.91,8.21,8.21,0,0,0,1.07,1.91A2.81,2.81,0,0,0,122,64.47a5.63,5.63,0,0,0,3.74-1.34,3.39,3.39,0,0,0,1.38-2.38,7.81,7.81,0,0,1-1.9.27,2,2,0,0,1-2-1.72,2,2,0,0,0-2.27-1.57A2.46,2.46,0,0,0,118.67,59Z"/></g><path id="Layer0_14_MEMBER_0_1_STROKES" data-name="Layer0 14 MEMBER 0 1 STROKES" class="cls-9" d="M118.53,51.52a10.61,10.61,0,0,1-.36,3.79c-.17.39-.34.78-.52,1.15,0,.28.59.47,1.79.59m-3.06.68a1.92,1.92,0,0,0-2.25,1.57,2,2,0,0,1-2,1.72,7.62,7.62,0,0,1-1.9-.27,3.51,3.51,0,0,0,1.36,2.38,5.66,5.66,0,0,0,3.76,1.34,2.78,2.78,0,0,0,2.29-1.13,6.56,6.56,0,0,0,1-1.91,8.21,8.21,0,0,0,1.07,1.91A2.81,2.81,0,0,0,122,64.47a5.63,5.63,0,0,0,3.74-1.34,3.39,3.39,0,0,0,1.38-2.38,7.81,7.81,0,0,1-1.9.27,2,2,0,0,1-2-1.72,2,2,0,0,0-2.27-1.57A2.46,2.46,0,0,0,118.67,59,2.5,2.5,0,0,0,116.38,57.73Z"/><g id="Layer0_14_MEMBER_1_FILL" data-name="Layer0 14 MEMBER 1 FILL"><path class="cls-13" d="M106.4,26.67a.9.9,0,0,0,.27-.59c0-.52-.26-.71-.77-.57s-.77.39-.77.79c0,0,0,.13.09.34a.63.63,0,0,0,.61.32.79.79,0,0,0,.57-.29m2.54-.43a1.88,1.88,0,0,0,.43-.84c0-.64-.34-.9-1-.8s-1,.59-1,1.5c0,0,0,.15,0,.41a.59.59,0,0,0,.64.38,1.3,1.3,0,0,0,1-.65m23.85.59a.72.72,0,0,0,.16-.46q0-.63-.81-.81c-.56-.11-.84.09-.84.61l.16.43a.88.88,0,0,0,.81.45.62.62,0,0,0,.52-.22m-8.09-2.52c-.59-.24-.89,0-.89.61l.09.45a1,1,0,0,0,1,.46.59.59,0,0,0,.68-.66c0-.33-.29-.62-.86-.86m-1.43,1.09a.77.77,0,0,0,.11-.39q0-.53-.9-1.2c-.61-.47-.91-.3-.91.5a1.58,1.58,0,0,0,.25.72,1.06,1.06,0,0,0,.93.66.59.59,0,0,0,.52-.29m-1.75,1a.64.64,0,0,0,.14-.39,2.67,2.67,0,0,0-.43-.88,6.13,6.13,0,0,0-.91-1.22c-.91-.9-1.36-.44-1.36,1.38a1.22,1.22,0,0,0,.27.79,2,2,0,0,0,1.66.59A.72.72,0,0,0,121.52,26.35Z"/></g><path d="M113.5,48.73a5.93,5.93,0,0,0-.84-.06,3.74,3.74,0,0,0-.82.08,4.12,4.12,0,0,0-1.52.64,2.23,2.23,0,0,1,.65-.57,2.74,2.74,0,0,1,.82-.32A2.71,2.71,0,0,1,113.5,48.73Z"/><circle cx="112.07" cy="49.39" r="0.62"/><path d="M125.5,48.82a2.66,2.66,0,0,1,2.53.08,2.38,2.38,0,0,1,.65.57,4,4,0,0,0-1.52-.64,3.68,3.68,0,0,0-.82-.08A6.07,6.07,0,0,0,125.5,48.82Z"/><circle cx="126.93" cy="49.47" r="0.62"/><path id="Layer0_1_1_STROKES-2" data-name="Layer0 1 1 STROKES" class="cls-2" d="M64.81,58.71a28.18,28.18,0,0,1-8.59,20.7A28.19,28.19,0,0,1,35.52,88,28.28,28.28,0,0,1,14.8,79.41a28.24,28.24,0,0,1-8.57-20.7A28.28,28.28,0,0,1,14.8,38a28.3,28.3,0,0,1,20.72-8.57A28.21,28.21,0,0,1,56.22,38,28.22,28.22,0,0,1,64.81,58.71Z"/><path id="Layer0_3_1_STROKES-2" data-name="Layer0 3 1 STROKES" class="cls-14" d="M66.42,52a29.76,29.76,0,0,1-9.05,21.84,29.76,29.76,0,0,1-21.84,9,29.81,29.81,0,0,1-21.86-9A29.75,29.75,0,0,1,4.63,52a29.78,29.78,0,0,1,9-21.86,29.81,29.81,0,0,1,21.86-9,29.76,29.76,0,0,1,21.84,9.05A29.79,29.79,0,0,1,66.42,52Z"/><g class="cls-15"><g id="Layer0_4_FILL" data-name="Layer0 4 FILL"><path class="cls-16" d="M41.54,75.19c-.72.7-1.41,1.32-2.06,1.86,2.36-.16,5.63-.59,9.82-1.27-.11-.19-.2-.39-.3-.59a3.85,3.85,0,0,0-1.54-2c-.48-.21-1.49-.56-3-1.06a38.2,38.2,0,0,1-2.91,3m-18.2,0q-.25.52-.48,1,2.58.36,6.48.63c1.27.1,2.45.17,3.54.23-.65-.56-1.34-1.19-2.08-1.88a38,38,0,0,1-2.91-3c-1.52.5-2.53.86-3,1.07A3.85,3.85,0,0,0,23.34,75.15Z"/><path class="cls-17" d="M18.94,83.7l.1-.2c1.09-2.12,2.34-4.61,3.7-7.39l0-.09h.1c1.71.25,3.89.46,6.47.64l3.54.23h0l0,0a19.74,19.74,0,0,0,3.24,2.24A19.72,19.72,0,0,0,39.39,77l0,0h0c2.34-.17,5.64-.59,9.81-1.27l.1,0,0,.09c1.41,2.91,2.72,5.53,3.88,7.78l.1.2Z"/><path class="cls-18" d="M32.7,70.89l-3.38.88c-.89.21-1.37.33-1.43.36a38,38,0,0,0,2.91,3c.74.69,1.43,1.32,2.08,1.88a19.26,19.26,0,0,0,3.33,2.29,18.66,18.66,0,0,0,3.27-2.27c.65-.54,1.34-1.16,2.06-1.86a38.2,38.2,0,0,0,2.91-3c-.06,0-.48-.17-1.25-.41a28.61,28.61,0,0,0-3.56-.84c0,.88,0,1.52,0,1.93,0-.41,0-1,0-1.93,0-.68,0-1.5.07-2.47,0-1.33.07-2.46.09-3.4H32.7v5.83M35,77.51c-.08-.34.32-.48,1.18-.43s1.28.14,1.31.34a1.06,1.06,0,0,1-.29.7,1,1,0,0,1-.71.48,1.5,1.5,0,0,1-1.08-.3A1.34,1.34,0,0,1,35,77.51Z"/><path class="cls-19" d="M36.14,76.93c-1-.05-1.5.12-1.41.52a1.71,1.71,0,0,0,.49.94,1.83,1.83,0,0,0,1.29.35,1.16,1.16,0,0,0,.84-.57,1.28,1.28,0,0,0,.35-.83C37.66,77.11,37.14,77,36.14,76.93Z"/></g><path id="Layer0_4_1_STROKES" data-name="Layer0 4 1 STROKES" class="cls-9" d="M27.89,72.13c-1.52.5-2.53.86-3,1.07a3.85,3.85,0,0,0-1.54,2q-.25.52-.48,1m10,.86c-.65-.56-1.34-1.19-2.08-1.88a38,38,0,0,1-2.91-3c.06,0,.54-.15,1.43-.36l3.38-.88V65.06h7.1c0,.94,0,2.07-.09,3.4,0,1-.06,1.79-.07,2.47a28.61,28.61,0,0,1,3.56.84c.77.24,1.19.38,1.25.41,1.52.5,2.53.85,3,1.06a3.85,3.85,0,0,1,1.54,2c.1.2.19.4.3.59q2.13,4.41,3.88,7.78h-34c1.11-2.14,2.34-4.61,3.7-7.39m9.84-5.28V72m6.78,5c.65-.54,1.34-1.16,2.06-1.86a38.2,38.2,0,0,0,2.91-3m-4.81-1.25c0,.88,0,1.52,0,1.93m7.92,5.08a11.55,11.55,0,0,0,.59,1.52,6.69,6.69,0,0,1,.52,2.29s-.06.4-.18,1.15a6.42,6.42,0,0,1-.16.66M25.17,78a9.65,9.65,0,0,0-.61,2.09,9.79,9.79,0,0,0-.2,1.74c0,.12,0,.42.09.91,0,.33.09.6.13.79M32.88,77a19.26,19.26,0,0,0,3.33,2.29,18.66,18.66,0,0,0,3.27-2.27"/></g><g id="Layer0_17_FILL" data-name="Layer0 17 FILL"><path class="cls-19" d="M36.38,70.74a5.59,5.59,0,0,1-2.54-.66,38.25,38.25,0,0,1-6.34-3.73L27,66a19,19,0,0,1-4-3.7,4.22,4.22,0,0,1-.75-1.43c-.12-.4-.23-.81-.32-1.2l0-.18c-.3-1.17-.57-2.35-.8-3.52l-.18-1c-.07-.4-.13-.8-.2-1.2L20.62,53c0-.08-.14-1.27-.23-2.16v-.1l.13-.06a1.16,1.16,0,0,1,.51-.06,3.17,3.17,0,0,1,1,.28,3.14,3.14,0,0,0,.92.24A1,1,0,0,0,24,50.42a6.57,6.57,0,0,1,.23-1.4c.06-.1.18-.22.72-.4.36-.09.39-.26.39-.38a.84.84,0,0,1,.11-.76.82.82,0,0,1,.72-.4,1.13,1.13,0,0,1,.66.27c.26.2.38.22.43.22a4.36,4.36,0,0,0,.95-.15h0c.13,0,.29,0,.69.37s.53.31.58.31c.43,0,.63-.23.63-.73a1.84,1.84,0,0,0-.11-.57,1.81,1.81,0,0,1-.14-.63.65.65,0,0,1,.73-.7,1.93,1.93,0,0,0,.76-.07,3,3,0,0,0,.5-.81c.11-.23.38-.35.78-.35a.87.87,0,0,1,.67.23,1.52,1.52,0,0,0,.67.46.51.51,0,0,0,.22,0,2.67,2.67,0,0,0,.5-.06l.65-.13h0a1.51,1.51,0,0,1,1.34.88,1.3,1.3,0,0,0,1.08.72c.42,0,.71-.31.89-1s.62-1.17,1.16-1.17a2,2,0,0,1,.92.31,1.86,1.86,0,0,0,1,.28,3.12,3.12,0,0,0,.88-.2,3.24,3.24,0,0,1,1-.21.38.38,0,0,1,.29.13,1.52,1.52,0,0,1,.21,1.1,2.36,2.36,0,0,0,.33,1.51,9.15,9.15,0,0,0,1.39.07H46l0,.11a3.49,3.49,0,0,1,0,1.12c0,.36.2.54.6.57h0a2,2,0,0,0,.64-.17h0c.4,0,.71.26,1,.77a5.81,5.81,0,0,0,.37.69,2.22,2.22,0,0,0,.83.61c.11,0,.31.17.76.79a1.07,1.07,0,0,0,.81.49h.13v.14l-.09,1c-.07.73-.14,1.41-.2,2-.16,1.45-.3,2.64-.43,3.52V59c-.13.9-.23,1.5-.32,1.84a4.8,4.8,0,0,1-.73,1.42,14.62,14.62,0,0,1-1.12,1.29,25,25,0,0,1-2.4,2.09l-.5.39a38,38,0,0,1-6.62,4.07A4.78,4.78,0,0,1,36.38,70.74Z"/><path class="cls-18" d="M32.38,43.27a.52.52,0,0,1-.5-.23.34.34,0,0,0-.31-.25,1.48,1.48,0,0,0-.55.14c-.24.1-.36.22-.36.34a3.12,3.12,0,0,0,.09.79c-.06.11-.51.23-1.34.36l-.22.75a.89.89,0,0,1-.91.75.79.79,0,0,1-.66-.41c-.2-.27-.35-.41-.48-.41s-.48.22-.86.66a1.55,1.55,0,0,1-1,.64,2,2,0,0,1-.43-.09,1.33,1.33,0,0,0-.5-.12H24c-.05,0-.07.11-.07.27a3.08,3.08,0,0,0,.14.66c0,.47-.26.69-.77.66s-.8.11-.8.41c0,.06,0,.37.07.93s-.19.77-.52.77a3.47,3.47,0,0,0-.43,0,1.33,1.33,0,0,0-.48,0,3.94,3.94,0,0,0-.41.29.85.85,0,0,1-.29.18c0,.18,0,.34,0,.5l.05,0a1.37,1.37,0,0,1,.45,0,3.16,3.16,0,0,1,1,.27,3.56,3.56,0,0,0,1,.25,1.1,1.1,0,0,0,1.2-.87,6.08,6.08,0,0,1,.23-1.38c.05-.09.26-.19.64-.32s.49-.26.47-.52a.81.81,0,0,1,.09-.68.72.72,0,0,1,.61-.34,1,1,0,0,1,.57.25,1,1,0,0,0,.52.25,4.13,4.13,0,0,0,1-.16,1.49,1.49,0,0,1,.59.34,1.34,1.34,0,0,0,.66.34c.51,0,.77-.28.77-.86a1.87,1.87,0,0,0-.12-.61,1.62,1.62,0,0,1-.13-.59c0-.38.19-.57.59-.57s.8,0,.86-.11a3.24,3.24,0,0,0,.52-.84q.13-.27.66-.27a.71.71,0,0,1,.56.18,1.81,1.81,0,0,0,.73.5,1.62,1.62,0,0,0,.79,0l.66-.14a1.36,1.36,0,0,1,1.2.82,1.46,1.46,0,0,0,1.2.79c.49,0,.83-.36,1-1.07s.55-1.06,1-1.06a2,2,0,0,1,.86.29,1.94,1.94,0,0,0,1,.3,3.19,3.19,0,0,0,.93-.21,3.21,3.21,0,0,1,1-.2c.28,0,.4.36.37,1.09a2.37,2.37,0,0,0,.38,1.63,8.24,8.24,0,0,0,1.47.09,3.09,3.09,0,0,1,0,1.07.68.68,0,0,0,.73.72,1.58,1.58,0,0,0,.7-.18c.32,0,.6.22.84.7a4.4,4.4,0,0,0,.38.71,2.17,2.17,0,0,0,.89.65,2.41,2.41,0,0,1,.7.75,1.22,1.22,0,0,0,.91.55c.05-.51.1-1.05.16-1.61L51,50.66c-.3-.14-.45-.31-.45-.52a1.84,1.84,0,0,1,.11-.37,1.69,1.69,0,0,0,.1-.58c0-.31-.17-.45-.5-.44s-.5-.09-.5-.36a1.88,1.88,0,0,0,.13-.57c0-.4-.13-.61-.38-.61q-.78.75-1,.75c-.35,0-.52-.13-.52-.39A.71.71,0,0,1,48,47.3a.78.78,0,0,0,.11-.41.8.8,0,0,0-.22-.54.68.68,0,0,0-.55-.29l-.79.27c-.35,0-.51-.36-.48-1.07s-.16-1.11-.61-1.15c-.65-.07-1-.36-.91-.89s-.19-.75-.72-.75a.8.8,0,0,0-.64.3c-.18.19-.32.29-.41.29a.6.6,0,0,1-.47-.22.52.52,0,0,0-.43-.23.79.79,0,0,0-.8.43.75.75,0,0,1-.79.43.59.59,0,0,1-.48-.23A.59.59,0,0,0,39.3,43a.85.85,0,0,0-.95.66c-.11.43-.43.64-1,.64-.35,0-.58-.26-.7-.77a1,1,0,0,0-1.07-.8c-.53.14-.81.21-.86.21a.42.42,0,0,1-.41-.32.47.47,0,0,0-.5-.34.86.86,0,0,0-.72.5.82.82,0,0,1-.73.5M51.75,55.15H52q.91.09,1.11.72a3.35,3.35,0,0,1,.07,1.21,3.35,3.35,0,0,0-.07-1.21q-.2-.63-1.11-.72c0,.39,0,.73,0,1s0,.28,0,.43c0-.15,0-.29,0-.43s0-.63,0-1h-.25a2.42,2.42,0,0,0-1.07.23c-.15,1.45-.3,2.62-.43,3.51a.2.2,0,0,1,0,.11,1.38,1.38,0,0,0,1,.46,4.48,4.48,0,0,0,2.73-1,3.18,3.18,0,0,0,1.45-2.52A4,4,0,0,0,55,54a2.3,2.3,0,0,0-2.2-1.27,3.16,3.16,0,0,0-1.92.65c-.07.74-.14,1.42-.21,2.05a2.42,2.42,0,0,1,1.07-.23M20.84,53.7a3.1,3.1,0,0,0-1.52-.39,2.32,2.32,0,0,0-2.2,1.27,4.12,4.12,0,0,0-.45,2,3.16,3.16,0,0,0,1.45,2.52,5.53,5.53,0,0,0,1.77.91,4.4,4.4,0,0,0,.95.11A1.59,1.59,0,0,0,22,59.43c-.3-1.17-.57-2.34-.79-3.51a2.64,2.64,0,0,0-.84-.14l-.28,0c0,.37,0,.71,0,1s0,.28.05.43c0-.15,0-.29-.05-.43s0-.62,0-1a1.08,1.08,0,0,0-1.08.7,3.06,3.06,0,0,0-.07,1.2,3.06,3.06,0,0,1,.07-1.2,1.08,1.08,0,0,1,1.08-.7l.28,0a2.64,2.64,0,0,1,.84.14c-.07-.34-.13-.68-.19-1S20.91,54.1,20.84,53.7Z"/><path class="cls-20" d="M25.85,42.72c-.57,0-.91.34-1,1s-.33,1-.72,1a.48.48,0,0,1-.45-.31.53.53,0,0,0-.5-.34.74.74,0,0,0-.57.34.73.73,0,0,1-.59.31,5.88,5.88,0,0,0-.91,0,.42.42,0,0,0-.38.47V46c-.08.44-.28.66-.62.66a.83.83,0,0,1-.31-.09.87.87,0,0,0-.32-.09c-.38,0-.61.31-.7.93s-.34.91-.73.91a3.78,3.78,0,0,1-1.52-1,13.32,13.32,0,0,0-1.11-1c-.29,0-.41.31-.38.93s-.25.91-.87.91-1.18-.68-1.47-2q-.13-.6-1.11-.93c-.62-.23-.93-.49-.93-.8a7.09,7.09,0,0,0,.18-1.06c0-.46-.17-.72-.52-.8s-.55-.48-.59-1.22a.62.62,0,0,0-.54-.66,4.74,4.74,0,0,0-1.12.07A1.74,1.74,0,0,1,7,40.68v0a2.54,2.54,0,0,0,.47,1.13c.33.51.43.91.32,1.18s-.18.52-.25.7a2.6,2.6,0,0,0-.07.8,1.37,1.37,0,0,0,.7,1c.43.29.64.53.64.72a1.53,1.53,0,0,1-.2.55,1.38,1.38,0,0,0-.21.47c0,.16.13.3.39.44a.66.66,0,0,1,.36.56,3.74,3.74,0,0,1-.14.71c0,.16.18.31.53.43A.65.65,0,0,1,10,50a1.14,1.14,0,0,1-.47.8c-.32.28-.48.47-.48.56s.15.23.43.46.44.41.46.54,0,.34,0,.61a.69.69,0,0,0,.32.5,1.66,1.66,0,0,1,.47.59l.34.64c.18.3.61.37,1.27.2a.67.67,0,0,1,.71.61v1c0,.09.17.24.52.46a.83.83,0,0,1,.43.79c0,.35.1.51.41.48a.61.61,0,0,1,.7.45c.24.72.54,1.14.88,1.25a.52.52,0,0,0,.21,0,1,1,0,0,1,.77.41,1,1,0,0,0,.66.48,1.84,1.84,0,0,1,.81.25,7.92,7.92,0,0,1,.68.58l.5.5a1.28,1.28,0,0,1,.3.87c0,.52.09.81.34.86a2.53,2.53,0,0,0,.79-.07c.3,0,.54.2.73.61s.38.61.61.61a2.3,2.3,0,0,0,.75-.2,1.13,1.13,0,0,1,.79.43,1.22,1.22,0,0,0,.86.41,6,6,0,0,0,.89-.16,1,1,0,0,1,.79.34,1.07,1.07,0,0,0,.86.34l.21,0c-.17-.12-.34-.24-.5-.37a18.79,18.79,0,0,1-4-3.67,4.23,4.23,0,0,1-.73-1.38c-.12-.41-.22-.81-.32-1.2,0-.07,0-.13,0-.19a1.59,1.59,0,0,1-1.18.66,4.4,4.4,0,0,1-.95-.11,5.53,5.53,0,0,1-1.77-.91,3.16,3.16,0,0,1-1.45-2.52,4.12,4.12,0,0,1,.45-2,2.32,2.32,0,0,1,2.2-1.27,3.1,3.1,0,0,1,1.52.39L20.75,53s-.08-.74-.23-2.16c0-.16,0-.32,0-.5a.49.49,0,0,1-.18,0,1.84,1.84,0,0,1-.34,0l-.32-.23.32.23a1.84,1.84,0,0,0,.34,0,.49.49,0,0,0,.18,0,.85.85,0,0,0,.29-.18,3.94,3.94,0,0,1,.41-.29,1.33,1.33,0,0,1,.48,0,3.47,3.47,0,0,1,.43,0c.33,0,.5-.26.52-.77s-.07-.87-.07-.93c0-.3.27-.44.8-.41s.77-.19.77-.66a3.08,3.08,0,0,1-.14-.66c0-.16,0-.25.07-.27h.29a1.33,1.33,0,0,1,.5.12,2,2,0,0,0,.43.09,1.55,1.55,0,0,0,1-.64c.38-.44.67-.66.86-.66s.28.14.48.41a.79.79,0,0,0,.66.41.89.89,0,0,0,.91-.75l.22-.75c.83-.13,1.28-.25,1.34-.36a3.12,3.12,0,0,1-.09-.79c0-.12.12-.24.36-.34a1.48,1.48,0,0,1,.55-.14.34.34,0,0,1,.31.25.52.52,0,0,0,.5.23.82.82,0,0,0,.73-.5.86.86,0,0,1,.72-.5.47.47,0,0,1,.5.34.42.42,0,0,0,.41.32s.33-.07.86-.21a1,1,0,0,1,1.07.8c.12.51.35.77.7.77.55,0,.87-.21,1-.64A.85.85,0,0,1,39.3,43a.59.59,0,0,1,.54.25.59.59,0,0,0,.48.23.75.75,0,0,0,.79-.43.79.79,0,0,1,.8-.43.52.52,0,0,1,.43.23.6.6,0,0,0,.47.22c.09,0,.23-.1.41-.29a.8.8,0,0,1,.64-.3q.8,0,.72.75c0,.53.26.82.91.89.45,0,.66.43.61,1.15s.13,1.07.48,1.07l.79-.27a.68.68,0,0,1,.55.29.8.8,0,0,1,.22.54.78.78,0,0,1-.11.41.71.71,0,0,0-.11.27c0,.26.17.39.52.39q.24,0,1-.75c.25,0,.38.21.38.61a1.88,1.88,0,0,1-.13.57c0,.27.16.39.5.36s.5.13.5.44a1.69,1.69,0,0,1-.1.58,1.84,1.84,0,0,0-.11.37c0,.21.15.38.45.52l.19.07c.14.07.31.14.52.22-.21-.08-.38-.15-.52-.22-.06.56-.11,1.1-.16,1.61q0,.51-.09,1a3.16,3.16,0,0,1,1.92-.65A2.3,2.3,0,0,1,55,54a4,4,0,0,1,.46,2A3.18,3.18,0,0,1,54,58.44a4.48,4.48,0,0,1-2.73,1,1.38,1.38,0,0,1-1-.46,13.67,13.67,0,0,1-.32,1.82,4.27,4.27,0,0,1-.7,1.38,14.34,14.34,0,0,1-1.11,1.27,24.48,24.48,0,0,1-2.38,2.09,1.33,1.33,0,0,0,.61.22.76.76,0,0,0,.59-.34,3,3,0,0,1,.39-.47,1.31,1.31,0,0,1,.54-.21l.48,0a1,1,0,0,0,.86-.46.9.9,0,0,1,.91-.36,1,1,0,0,0,.77-.43,1.21,1.21,0,0,1,1-.5.68.68,0,0,1,.5.18.55.55,0,0,0,.45.18c.39,0,.58-.24.55-.72l-.1-.59c0-.21.13-.34.37-.39a.62.62,0,0,0,.54-.52,1.13,1.13,0,0,1,.18-.48.6.6,0,0,1,.52-.36c.44,0,.75-.32.91-1a1.13,1.13,0,0,1,1.16-1,1.63,1.63,0,0,1,.52.18,1.69,1.69,0,0,0,.5.16c.48,0,.76-.45.84-1.36a.91.91,0,0,1,.32-.72.65.65,0,0,0,.29-.46,3.85,3.85,0,0,1-.14-.79,3.83,3.83,0,0,0,.14-.77.47.47,0,0,0-.27-.39c-.2-.12-.3-.25-.3-.38s.13-.28.39-.41a1.15,1.15,0,0,1,.52-.21c.18,0,.33.12.45.37a.54.54,0,0,0,.5.36c.17,0,.28-.16.34-.48a2.93,2.93,0,0,1,.16-.61l.75-.61c.23-.2.34-.37.34-.52a1,1,0,0,0-.2-.55,1.11,1.11,0,0,1-.23-.34.75.75,0,0,1,.27-.47l.34-.34a1.48,1.48,0,0,0,0-.43c0-.19,0-.3,0-.34,0-.24.24-.52.7-.84s.59-1.24.32-2.75a4,4,0,0,1,0-.68,1,1,0,0,1,.45-.84.81.81,0,0,0,.43-.68A.51.51,0,0,0,64,43a.57.57,0,0,1-.34-.36,1.39,1.39,0,0,1-1.09.5A7.72,7.72,0,0,0,61.41,43a1.2,1.2,0,0,0-.46.1c-.24.09-.36.22-.36.4a1.29,1.29,0,0,0,.23.5,1.27,1.27,0,0,1,.23.52.76.76,0,0,1-.39.73,2.07,2.07,0,0,0-.82.7,2.86,2.86,0,0,1-.09,1.27.82.82,0,0,1-.79.57,1.07,1.07,0,0,1-1-.73c-.21-.5-.46-.74-.77-.74a.93.93,0,0,0-.5.09q-.18.1-.18.54a.78.78,0,0,0,.41.7.81.81,0,0,1,.41.73,1.78,1.78,0,0,1-.09.7c-.64,0-1,.26-1,.86s-.28.91-.79.91A1.89,1.89,0,0,1,54,50.07a2,2,0,0,1-.57-1.27,1.62,1.62,0,0,0-.88-1.23c-.58-.36-.86-.58-.86-.68a1.65,1.65,0,0,1,.09-.4,1.8,1.8,0,0,0,.09-.41c0-.46-.34-.67-1-.64s-1-.1-1-.38a.7.7,0,0,1,.36-.55c.24-.18.36-.35.36-.52s-.16-.47-.49-.5a.79.79,0,0,1-.71-.7c-.13-.57-.22-.91-.25-1a.9.9,0,0,0-.86-.54c-.15,0-.32.12-.5.38a.75.75,0,0,1-.65.36,1,1,0,0,1-.64-.13l-.09-.14q-.44-.81-1-.81c-.8.12-1.28.18-1.43.18-.44,0-.6-.37-.5-1.11s0-1.12-.36-1.12a1.78,1.78,0,0,0-.79.37c-.37.24-.55.44-.55.59a1.46,1.46,0,0,0,.09.38,1.26,1.26,0,0,1,.09.37.77.77,0,0,1-.18.52.91.91,0,0,1-.7.27c-.17,0-.3-.17-.41-.5a.67.67,0,0,0-.7-.52c-.34,0-.58.2-.73.61a.86.86,0,0,1-.84.59c-.26,0-.4-.26-.43-.77a.75.75,0,0,0-.82-.79,2.09,2.09,0,0,0-1.17.49,2.11,2.11,0,0,1-1.21.5,2.8,2.8,0,0,1-1.11-.27,2.71,2.71,0,0,0-1.06-.27,3.45,3.45,0,0,0-1.61.27,5.2,5.2,0,0,0-.89.7,1.4,1.4,0,0,1-.79.41q-.59,0-.93.93a1.24,1.24,0,0,1-1.18.93.76.76,0,0,1-.7-.45A.77.77,0,0,0,25.85,42.72Z"/><path class="cls-21" d="M55.47,51a2,2,0,0,1-1.54-.82,2.23,2.23,0,0,1-.59-1.36,1.51,1.51,0,0,0-.83-1.11c-.85-.54-.92-.68-.92-.8a1.56,1.56,0,0,1,.1-.44,1.62,1.62,0,0,0,.08-.37c0-.22-.08-.5-.74-.5h-.31c-.64,0-1-.17-1-.52a.82.82,0,0,1,.42-.66c.2-.15.31-.29.31-.41s-.11-.34-.38-.36a.92.92,0,0,1-.82-.81c-.14-.57-.22-.91-.25-1a.77.77,0,0,0-.73-.45c-.06,0-.18,0-.39.33a.89.89,0,0,1-.76.42H47a1.18,1.18,0,0,1-.58-.16l0,0,0,0a1,1,0,0,1-.1-.15q-.39-.75-.9-.75c-.8.12-1.27.18-1.43.18a.59.59,0,0,1-.48-.2,1.28,1.28,0,0,1-.15-1.06c.07-.62,0-.83-.09-.9a.17.17,0,0,0-.14-.06,1.5,1.5,0,0,0-.72.34c-.46.31-.48.45-.48.48a1.35,1.35,0,0,0,.08.34,1.19,1.19,0,0,1,.1.41.86.86,0,0,1-.22.61,1,1,0,0,1-.8.31c-.23,0-.42-.19-.54-.59a.54.54,0,0,0-.57-.43c-.28,0-.47.18-.6.53a1,1,0,0,1-1,.68c-.34,0-.53-.31-.56-.9s-.26-.67-.69-.67a2,2,0,0,0-1.09.47,2.25,2.25,0,0,1-1.29.53,3,3,0,0,1-1.16-.28,2.47,2.47,0,0,0-1-.26A3.4,3.4,0,0,0,31,40.8a5.48,5.48,0,0,0-.86.68,1.55,1.55,0,0,1-.87.45q-.51,0-.81.84a1.38,1.38,0,0,1-1.31,1,.9.9,0,0,1-.82-.53c-.16-.27-.33-.4-.52-.4-.5,0-.78.29-.86.9-.1.76-.39,1.14-.86,1.14a.64.64,0,0,1-.58-.39.38.38,0,0,0-.37-.27.62.62,0,0,0-.46.29.87.87,0,0,1-.7.37,6.48,6.48,0,0,0-.87,0,.3.3,0,0,0-.29.34V46c-.11.66-.47.8-.75.8a1,1,0,0,1-.37-.11.79.79,0,0,0-.26-.07c-.11,0-.45,0-.57.81s-.54,1-.86,1-.53-.1-1.6-1c-.75-.68-1-.89-1.06-.94a.14.14,0,0,0-.1,0s-.14.23-.12.73a1,1,0,0,1-.21.78,1,1,0,0,1-.79.27c-.76,0-1.3-.71-1.6-2.12-.08-.35-.43-.63-1-.83s-1-.56-1-.93a7,7,0,0,0,.18-1.06c0-.51-.23-.62-.41-.66-.42-.09-.65-.54-.7-1.35,0-.43-.26-.51-.42-.53H9a7.4,7.4,0,0,0-.93.08H7.76a1.68,1.68,0,0,1-.84-.19l-.08,0v-.09A2.08,2.08,0,0,1,7.21,40a2.16,2.16,0,0,0,.3-.58,2.08,2.08,0,0,0-.09-.44,2.18,2.18,0,0,1-.12-.58.82.82,0,0,1,.21-.41.69.69,0,0,0,.13-.43,5.94,5.94,0,0,1-.13-.93.76.76,0,0,1,.36-.69.38.38,0,0,0,.2-.33,1,1,0,0,0-.18-.48,1.27,1.27,0,0,1-.25-.75c0-.18.1-.4.57-.47.29,0,.46-.14.53-.31A3.75,3.75,0,0,1,9,32.88a.71.71,0,0,1,.64-.41.52.52,0,0,0,.51-.28c.07-.28.12-.49.15-.59v0l0,0c.32-.35.55-.59.69-.73a1,1,0,0,0,.3-.6c0-.05,0-.17-.27-.49a1.13,1.13,0,0,1-.35-.65,1.06,1.06,0,0,1,.62-.93c.31-.19.47-.38.47-.59a4.13,4.13,0,0,1,.08-1.19c0-.16.2-.28.51-.39a2.54,2.54,0,0,0,.47-.19c.05,0,.15-.14.28-.69a1.86,1.86,0,0,1,.58-1c.16-.1.26-.36.28-.76s.19-.63.95-.63a1.12,1.12,0,0,1,.68.26,1,1,0,0,0,.58.22h.08c.12,0,.17,0,.19-.15s.14-.44.23-.68a1.56,1.56,0,0,1,.36-.53,1.16,1.16,0,0,1,.67-.19,1.37,1.37,0,0,0,.52-.07s.07-.13.36-.8.54-.84.89-.85a.88.88,0,0,0,.79-.41,1.75,1.75,0,0,1,.84-.81c.09,0,.27-.16.56-.75a1.2,1.2,0,0,1,1.08-.69c.18,0,.39.13.66.41s.4.32.41.32a4.58,4.58,0,0,0,.63-.2h0a.54.54,0,0,1,.52.34c.07.18.17.2.24.2.36,0,.61-.25.76-.77s.5-1,.94-1c.1,0,.39,0,.53-.6.08-.35.35-.76,1.17-.76a1.41,1.41,0,0,1,.75.22,1.24,1.24,0,0,0,.55.19,1.52,1.52,0,0,0,.59-.21,1.52,1.52,0,0,1,.63-.27c.14,0,.29.1.51.34a.7.7,0,0,0,.44.23,1.84,1.84,0,0,0,.49-.17,2,2,0,0,1,.72-.2,1,1,0,0,1,.52.14.87.87,0,0,0,.29.07,1.07,1.07,0,0,0,.65-.25,1.18,1.18,0,0,1,.69-.3c.11,0,.31.05.87.41l.18.14a1.42,1.42,0,0,0,.74.23,2.23,2.23,0,0,0,.94-.28,2,2,0,0,1,.88-.34s.09,0,.6.24a1.63,1.63,0,0,0,.6.19.77.77,0,0,0,.54-.25.82.82,0,0,1,.59-.36.69.69,0,0,1,.53.25.38.38,0,0,0,.24.14.76.76,0,0,0,.66-.41,1,1,0,0,1,1-.55,1,1,0,0,1,.68.24,3.06,3.06,0,0,0,.61.48,8.11,8.11,0,0,0,.82.15c.54.09.66.41.66.65a1,1,0,0,1-.1.33.9.9,0,0,0-.08.35.28.28,0,0,0,.17.23.53.53,0,0,0,.3.12,4.24,4.24,0,0,1,.54-.22h.05c.27,0,.42.32.52.56a.54.54,0,0,0,.57.39,4.65,4.65,0,0,0,.74-.15h0a1,1,0,0,1,1,1c.06.36.29.54.73.54l.28,0h.13c.31,0,.68.15.72.91s.37.75.64.75a.85.85,0,0,0,.31-.06,1.15,1.15,0,0,1,.39-.07c.32,0,.57.25.74.77a5.09,5.09,0,0,1,.19.79.66.66,0,0,0,.29.14c.25.06.39.17.41.34a4.72,4.72,0,0,1,0,1.08c0,.25,0,.3.06.31h.09a2.9,2.9,0,0,0,.59-.08A5.58,5.58,0,0,1,57,23.65a.6.6,0,0,1,.65.65c0,.29.19.43.53.44s.63.16.74.79.23.88.26.91a2.9,2.9,0,0,0,.39.17,1.23,1.23,0,0,1,.57.53,2.5,2.5,0,0,1,.08,1.06c0,.08,0,.2,0,.24l.45.31s.08.1.19.49a2.21,2.21,0,0,1,.12.49,1.23,1.23,0,0,1-.07.38.84.84,0,0,0-.07.32c0,.12,0,.48.8.62s1,.58,1,.94a.87.87,0,0,0,.3.89.87.87,0,0,1,.54.77c0,.05,0,.1-.52,1.05a1,1,0,0,0,.31.32,1,1,0,0,1,.35,1.27s-.06.13-.05.37a.6.6,0,0,0,.3.44c.26.16.38.33.38.5a1.56,1.56,0,0,1-.24.6,1.4,1.4,0,0,0-.24.55.46.46,0,0,0,.23.43.7.7,0,0,1,.34.62,1.11,1.11,0,0,1-.25.6.86.86,0,0,0-.23.55,1,1,0,0,0,.17.44,1.23,1.23,0,0,1,.17.47.66.66,0,0,1-.21.41.44.44,0,0,0-.17.32v.14l0,0a1.54,1.54,0,0,1-1.2.54,8.4,8.4,0,0,0-1.15-.18,1.34,1.34,0,0,0-.41.08c-.24.09-.27.21-.27.28a1.08,1.08,0,0,0,.2.43,1.29,1.29,0,0,1,.25.59.88.88,0,0,1-.46.85A2,2,0,0,0,60,46a3,3,0,0,1-.1,1.29,1,1,0,0,1-.92.66,1.21,1.21,0,0,1-1.1-.81c-.19-.44-.41-.67-.65-.67a.83.83,0,0,0-.41.06c-.06,0-.13.13-.13.44a.66.66,0,0,0,.34.59.92.92,0,0,1,.48.84,1.86,1.86,0,0,1-.11.76l0,.08h-.17a.67.67,0,0,0-.77.73C56.38,50.8,55.88,51,55.47,51Z"/></g><path id="Layer0_17_1_STROKES" data-name="Layer0 17 1 STROKES" class="cls-9" d="M7,40.69A1.77,1.77,0,0,1,7.33,40a1.9,1.9,0,0,0,.31-.65,2.28,2.28,0,0,0-.09-.48,2.2,2.2,0,0,1-.11-.54A.7.7,0,0,1,7.62,38a.87.87,0,0,0,.16-.52,8.22,8.22,0,0,1-.14-.93.62.62,0,0,1,.3-.57.53.53,0,0,0,.27-.45A1.23,1.23,0,0,0,8,35a1.1,1.1,0,0,1-.23-.68c0-.18.15-.29.45-.34a.73.73,0,0,0,.64-.38A3.18,3.18,0,0,1,9.12,33a.56.56,0,0,1,.52-.34.64.64,0,0,0,.63-.36l.16-.62.68-.72a1.11,1.11,0,0,0,.34-.7,1.15,1.15,0,0,0-.29-.57,1,1,0,0,1-.32-.57.93.93,0,0,1,.54-.81c.37-.22.55-.45.55-.71A5.14,5.14,0,0,1,12,26.4c0-.11.17-.21.43-.3a2.08,2.08,0,0,0,.52-.23c.11-.07.21-.32.32-.74a1.59,1.59,0,0,1,.52-.89,1.07,1.07,0,0,0,.34-.86c0-.33.29-.5.81-.5a1,1,0,0,1,.59.23,1.26,1.26,0,0,0,.66.26c.24,0,.38-.07.42-.26a4.26,4.26,0,0,1,.23-.65,1.6,1.6,0,0,1,.3-.49,1.1,1.1,0,0,1,.59-.16,1.41,1.41,0,0,0,.59-.09,5.06,5.06,0,0,0,.41-.86c.23-.5.49-.75.77-.77a1,1,0,0,0,.91-.47,1.53,1.53,0,0,1,.77-.75c.18-.06.39-.34.64-.82a1,1,0,0,1,.95-.61q.19,0,.57.36c.25.24.42.36.49.36a3.5,3.5,0,0,0,.68-.2.42.42,0,0,1,.39.27.39.39,0,0,0,.36.27c.43,0,.72-.28.89-.86s.44-.89.81-.9.56-.25.66-.71.45-.66,1-.66a1.26,1.26,0,0,1,.68.21,1.42,1.42,0,0,0,.62.2,1.53,1.53,0,0,0,.65-.22,1.93,1.93,0,0,1,.57-.25c.09,0,.23.1.41.29a.86.86,0,0,0,.54.27,2.09,2.09,0,0,0,.55-.18,1.87,1.87,0,0,1,.66-.18.88.88,0,0,1,.45.11.9.9,0,0,0,.36.09,1.22,1.22,0,0,0,.73-.27,1,1,0,0,1,.61-.27,2,2,0,0,1,.79.4l.18.12a1.56,1.56,0,0,0,.82.25,2.3,2.3,0,0,0,1-.29,2.07,2.07,0,0,1,.82-.32,3.4,3.4,0,0,1,.54.23,2,2,0,0,0,.66.2.9.9,0,0,0,.63-.29.71.71,0,0,1,.5-.32.57.57,0,0,1,.43.2.52.52,0,0,0,.34.18.88.88,0,0,0,.77-.47.9.9,0,0,1,.84-.48.84.84,0,0,1,.59.21,3.3,3.3,0,0,0,.64.49,7.75,7.75,0,0,0,.86.16c.36.06.54.24.54.52a1.26,1.26,0,0,1-.09.28,1.22,1.22,0,0,0-.09.4.45.45,0,0,0,.23.35.67.67,0,0,0,.38.13,5.72,5.72,0,0,0,.59-.23q.21,0,.39.48a.68.68,0,0,0,.7.48,7.31,7.31,0,0,0,.77-.16c.5,0,.8.28.89.84s.46.72,1.15.63c.44-.06.68.2.71.77s.27.89.77.89a1.15,1.15,0,0,0,.36-.07.86.86,0,0,1,.34-.07c.26,0,.46.23.61.68a4,4,0,0,1,.18.77.57.57,0,0,0,.39.25c.2.05.3.12.32.23a4.53,4.53,0,0,1,0,1,.58.58,0,0,0,.11.43c.06.06.33.05.8,0A4.91,4.91,0,0,1,57,23.79c.33,0,.5.17.52.52s.25.55.66.57.53.24.61.68a2.45,2.45,0,0,0,.29,1,2.69,2.69,0,0,0,.43.21,1,1,0,0,1,.5.45,2.24,2.24,0,0,1,.07,1q0,.27.09.36l.43.29a1.55,1.55,0,0,1,.16.44,2.09,2.09,0,0,1,.11.45,1.28,1.28,0,0,1-.06.34,1.08,1.08,0,0,0-.07.36q0,.59.9.75c.61.09.89.36.84.79a1,1,0,0,0,.37,1,.76.76,0,0,1,.47.66,7.27,7.27,0,0,1-.52,1c0,.11.12.26.36.46a.85.85,0,0,1,.39.62.8.8,0,0,1-.07.46.79.79,0,0,0,0,.47.64.64,0,0,0,.35.53c.21.14.32.27.31.39a1.81,1.81,0,0,1-.22.54,1.48,1.48,0,0,0-.25.61.61.61,0,0,0,.29.55.57.57,0,0,1,.27.5,1,1,0,0,1-.22.52.94.94,0,0,0-.25.63,1.12,1.12,0,0,0,.18.5,1.23,1.23,0,0,1,.16.41.58.58,0,0,1-.18.32.57.57,0,0,0-.21.41s0,.06,0,.09A.53.53,0,0,0,64,43a.51.51,0,0,1,.32.45.81.81,0,0,1-.43.68,1,1,0,0,0-.45.84,4,4,0,0,0,0,.68c.27,1.51.17,2.42-.3,2.75s-.72.6-.72.84c0,0,0,.15,0,.34a1.48,1.48,0,0,1,0,.43l-.34.34a.75.75,0,0,0-.27.47,1.11,1.11,0,0,0,.23.34,1,1,0,0,1,.2.55c0,.15-.11.32-.34.52l-.75.61a2.93,2.93,0,0,0-.16.61c-.06.32-.17.48-.34.48a.54.54,0,0,1-.5-.36c-.12-.25-.27-.37-.45-.37a1.15,1.15,0,0,0-.52.21c-.26.13-.39.27-.39.41s.1.26.3.38a.47.47,0,0,1,.27.39,3.83,3.83,0,0,1-.14.77,3.85,3.85,0,0,0,.14.79.65.65,0,0,1-.29.46.91.91,0,0,0-.32.72c-.08.91-.36,1.36-.84,1.36a1.69,1.69,0,0,1-.5-.16,1.63,1.63,0,0,0-.52-.18,1.13,1.13,0,0,0-1.16,1c-.16.65-.47,1-.91,1a.6.6,0,0,0-.52.36,1.13,1.13,0,0,0-.18.48.62.62,0,0,1-.54.52c-.24,0-.37.18-.37.39l.1.59c0,.48-.16.72-.55.72a.55.55,0,0,1-.45-.18.68.68,0,0,0-.5-.18,1.21,1.21,0,0,0-1,.5,1,1,0,0,1-.77.43.9.9,0,0,0-.91.36,1,1,0,0,1-.86.46l-.48,0a1.31,1.31,0,0,0-.54.21,3,3,0,0,0-.39.47.76.76,0,0,1-.59.34,1.33,1.33,0,0,1-.61-.22l-.5.38A37.22,37.22,0,0,1,38.64,70a4.82,4.82,0,0,1-4.74,0,37.62,37.62,0,0,1-6.32-3.72l-.21,0a1.07,1.07,0,0,1-.86-.34,1,1,0,0,0-.79-.34,6,6,0,0,1-.89.16,1.22,1.22,0,0,1-.86-.41,1.13,1.13,0,0,0-.79-.43,2.3,2.3,0,0,1-.75.2c-.23,0-.43-.2-.61-.61s-.43-.61-.73-.61a2.53,2.53,0,0,1-.79.07c-.25-.05-.36-.34-.34-.86a1.28,1.28,0,0,0-.3-.87l-.5-.5a7.92,7.92,0,0,0-.68-.58,1.84,1.84,0,0,0-.81-.25,1,1,0,0,1-.66-.48,1,1,0,0,0-.77-.41A.76.76,0,0,1,16,60c-.34-.12-.64-.54-.88-1.26a.61.61,0,0,0-.7-.45c-.31,0-.44-.13-.41-.48a.83.83,0,0,0-.43-.79c-.35-.22-.52-.37-.52-.46v-1a.67.67,0,0,0-.71-.61c-.66.17-1.09.1-1.27-.2l-.34-.64a1.66,1.66,0,0,0-.47-.59A.69.69,0,0,1,10,53c0-.27,0-.47,0-.61s-.17-.32-.46-.54-.43-.38-.43-.46.16-.28.48-.56A1.14,1.14,0,0,0,10,50a.65.65,0,0,0-.49-.65c-.35-.12-.53-.27-.53-.43a3.74,3.74,0,0,0,.14-.71.66.66,0,0,0-.36-.56c-.26-.14-.39-.28-.39-.44a1.38,1.38,0,0,1,.21-.47,1.53,1.53,0,0,0,.2-.55c0-.19-.21-.43-.64-.72a1.33,1.33,0,0,1-.69-.94,2.08,2.08,0,0,1,.07-.8c.07-.18.15-.42.25-.7a1.45,1.45,0,0,0-.32-1.18A2.5,2.5,0,0,1,7,40.73Zm13.49,9.67a.85.85,0,0,0,.29-.18,3.94,3.94,0,0,1,.41-.29,1.33,1.33,0,0,1,.48,0,3.47,3.47,0,0,1,.43,0c.33,0,.5-.26.52-.77s-.07-.87-.07-.93c0-.3.27-.44.8-.41s.77-.19.77-.66a3.08,3.08,0,0,1-.14-.66c0-.16,0-.25.07-.27h.29a1.33,1.33,0,0,1,.5.12,2,2,0,0,0,.43.09,1.55,1.55,0,0,0,1-.64c.38-.44.67-.66.86-.66s.28.14.48.41a.79.79,0,0,0,.66.41.89.89,0,0,0,.91-.75l.22-.75c.83-.13,1.28-.25,1.34-.36a3.12,3.12,0,0,1-.09-.79c0-.12.12-.24.36-.34a1.48,1.48,0,0,1,.55-.14.34.34,0,0,1,.31.25.52.52,0,0,0,.5.23.82.82,0,0,0,.73-.5.86.86,0,0,1,.72-.5.47.47,0,0,1,.5.34.42.42,0,0,0,.41.32s.33-.07.86-.21a1,1,0,0,1,1.07.8c.12.51.35.77.7.77.55,0,.87-.21,1-.64A.85.85,0,0,1,39.3,43a.59.59,0,0,1,.54.25.59.59,0,0,0,.48.23.75.75,0,0,0,.79-.43.79.79,0,0,1,.8-.43.52.52,0,0,1,.43.23.6.6,0,0,0,.47.22c.09,0,.23-.1.41-.29a.8.8,0,0,1,.64-.3q.8,0,.72.75c0,.53.26.82.91.89.45,0,.66.43.61,1.15s.13,1.07.48,1.07l.79-.27a.68.68,0,0,1,.55.29.8.8,0,0,1,.22.54.78.78,0,0,1-.11.41.71.71,0,0,0-.11.27c0,.26.17.39.52.39q.24,0,1-.75c.25,0,.38.21.38.61a1.88,1.88,0,0,1-.13.57c0,.27.16.39.5.36s.5.13.5.44a1.69,1.69,0,0,1-.1.58,1.84,1.84,0,0,0-.11.37c0,.21.15.38.45.52l.19.08.52.21m-.52-.21c-.06.55-.1,1.09-.15,1.6m-30.51-2c0,.18,0,.34.05.5.15,1.42.22,2.14.22,2.16,0,.23.07.46.1.69.06.39.13.79.19,1.19s.12.68.19,1c.22,1.17.49,2.34.79,3.51,0,.06,0,.12,0,.19.1.39.2.79.32,1.2a4.23,4.23,0,0,0,.73,1.38,18.79,18.79,0,0,0,4,3.67c.16.13.33.25.5.37M19.64,50.16l.32.23a1.84,1.84,0,0,0,.34,0,.49.49,0,0,0,.18,0m.37,3.35a3.07,3.07,0,0,0-1.53-.4,2.32,2.32,0,0,0-2.2,1.27,4.12,4.12,0,0,0-.45,2,3.16,3.16,0,0,0,1.45,2.52,5.53,5.53,0,0,0,1.77.91,4.4,4.4,0,0,0,.95.11A1.59,1.59,0,0,0,22,59.43m-.79-3.51a2.64,2.64,0,0,0-.84-.14l-.28,0c0,.37,0,.71,0,1s0,.28.05.43m0-1.42a1.08,1.08,0,0,0-1.08.7,3.06,3.06,0,0,0-.07,1.2m31.72-2.33a2.42,2.42,0,0,1,1.07-.23H52a1.11,1.11,0,0,1,1.1.71,3.35,3.35,0,0,1,.07,1.21m-2.29-3.75a3.16,3.16,0,0,1,1.92-.65A2.3,2.3,0,0,1,55,54a4,4,0,0,1,.46,2A3.18,3.18,0,0,1,54,58.44a4.48,4.48,0,0,1-2.73,1,1.38,1.38,0,0,1-1-.46,13.67,13.67,0,0,1-.32,1.82,4.27,4.27,0,0,1-.7,1.38,14.34,14.34,0,0,1-1.11,1.27,24.48,24.48,0,0,1-2.38,2.09M51,52.34c0,.34-.07.67-.1,1-.07.74-.14,1.42-.21,2.05-.15,1.45-.29,2.62-.42,3.52a.31.31,0,0,1,0,.1M52,55.16c0,.39,0,.72,0,1s0,.28,0,.43"/><path class="cls-12" d="M29.32,50.07a5.93,5.93,0,0,0-1.4-.14,2.21,2.21,0,0,0-1.41.3c-.36.21-.48.35-.36.43s.27.06.5,0a2.15,2.15,0,0,1,1.17-.13,2,2,0,0,1,1.18.36.87.87,0,0,0,.53.25.41.41,0,0,0,.38-.48c0-.27-.24-.45-.59-.54m15.9-.14a6,6,0,0,0-1.41.14.69.69,0,0,0-.59.54.42.42,0,0,0,.39.48.87.87,0,0,0,.52-.25,2,2,0,0,1,1.18-.36,2.19,2.19,0,0,1,1.18.13.52.52,0,0,0,.5,0c.12-.08,0-.22-.37-.43a2.2,2.2,0,0,0-1.4-.3"/><path id="Layer0_17_MEMBER_0_1_STROKES" data-name="Layer0 17 MEMBER 0 1 STROKES" class="cls-9" d="M35.74,56.69a2.82,2.82,0,0,1-.43,1.66,3.06,3.06,0,0,0-.48,1.06c0,.38.31.67.93.86a4,4,0,0,0,1.36.25"/><g id="Layer0_17_MEMBER_1_FILL" data-name="Layer0 17 MEMBER 1 FILL"><path class="cls-22" d="M60.39,35.81c.42,0,.63-.23.63-.68s-.2-.74-.61-.75-.61.25-.61.75.2.68.59.68m-.48-1.64c.47,0,.7-.21.7-.63s-.31-.61-1-.79-.95,0-.95.61a.7.7,0,0,0,.2.45,1.32,1.32,0,0,0,1,.36M11.18,37.51a.58.58,0,0,0,.23-.46c0-.42-.24-.68-.73-.79s-.75.14-.75.7a.65.65,0,0,0,.73.73.8.8,0,0,0,.52-.18m1.13-1.41a.71.71,0,0,0,.14-.38.83.83,0,0,0-.73-.89c-.49-.1-.74.13-.74.7,0,0,0,.17.09.46a.71.71,0,0,0,.72.41.57.57,0,0,0,.52-.3m1.77-5.92.12.46a.75.75,0,0,0,.72.45.58.58,0,0,0,.52-.27.64.64,0,0,0,.14-.39.85.85,0,0,0-.75-.95c-.5-.11-.75.13-.75.7m3.38-3.29a.64.64,0,0,0,.18-.45c0-.42-.22-.65-.68-.68s-.7.17-.7.66t.09.36a.62.62,0,0,0,.59.34.64.64,0,0,0,.52-.23m35.92-.72c.44,0,.66-.29.66-.86s-.21-.93-.64-.93-.65.31-.65.93a1.62,1.62,0,0,0,0,.45.57.57,0,0,0,.59.41m-2.54-3s0,.14,0,.39a.66.66,0,0,0,.68.36c.72,0,1.09-.33,1.09-1a1,1,0,0,0-.91-1c-.61-.13-.91.28-.91,1.25m-6.78-4.1c.42,0,.64-.3.64-.89s-.22-.84-.64-.84-.66.3-.66.89.22.84.66.84m-1.77-.41q.66,0,.66-.84c0-.58-.21-.85-.63-.84s-.66.3-.66.86c0,0,0,.16,0,.43a.56.56,0,0,0,.59.39m-1.61-.14A.83.83,0,0,0,41,18c0-.69-.44-1-1.33-.84s-1.34.44-1.34.91a3.09,3.09,0,0,0,.07.34.65.65,0,0,0,.65.32,4.39,4.39,0,0,1,.91.18,1,1,0,0,0,.77-.32M26.62,20.52c.55,0,.82-.22.82-.66s-.27-.62-.82-.7-.81.14-.81.68.27.68.81.68m-1.54.71c.42,0,.64-.27.64-.8s-.22-.79-.64-.79-.66.26-.66.79c0,0,0,.15,0,.41a.57.57,0,0,0,.61.39m-.84-.41q-.43-1.41-.9-1.41a1.13,1.13,0,0,0-1.07.57,1.38,1.38,0,0,0-.18.7.87.87,0,0,0,.13.55,1.3,1.3,0,0,0,.93.24,2,2,0,0,0,.82-.11A.54.54,0,0,0,24.24,20.82Z"/></g><path class="cls-23" d="M32,62.32s1.29,4.24,4.41,4.34,4.41-4.07,4.41-4.07a27.17,27.17,0,0,1-4.41.67A12.21,12.21,0,0,1,32,62.32Z"/><path d="M30.49,52.8a4.92,4.92,0,0,0-.84-.07,3.68,3.68,0,0,0-.82.08,4,4,0,0,0-1.52.64,2.23,2.23,0,0,1,.65-.57,2.4,2.4,0,0,1,.82-.31A2.64,2.64,0,0,1,30.49,52.8Z"/><circle cx="29.06" cy="53.45" r="0.62"/><path d="M43.18,52.88a2.61,2.61,0,0,1,1.7-.23,2.68,2.68,0,0,1,.83.31,2.42,2.42,0,0,1,.65.58,4,4,0,0,0-1.52-.64,3.26,3.26,0,0,0-.82-.08A4.75,4.75,0,0,0,43.18,52.88Z"/><circle cx="44.61" cy="53.54" r="0.62"/><path class="cls-24" d="M92.22,59.46a40,40,0,0,1-.41,5.76c0,.33-.19.49-.42.49-1.65,0-4.14-.06-7.44-.2s-5.77-.21-7.4-.21q-2.07,0-6.2.15c-2.75.1-4.81.15-6.16.15-.51,0-.76-.26-.76-.79a27.21,27.21,0,0,1,.38-5.54.68.68,0,0,1,.75-.6q2.19,0,6.6.19t6.59.18c1.56,0,3.87,0,6.94-.11s5.36-.11,6.89-.11A.56.56,0,0,1,92.22,59.46Zm.08,11.45q0,.5-.42,5.58-.1.42-.45.42l-.38,0q-7.58-.37-14.5-.38-2.07,0-6.2.19c-2.75.13-4.81.19-6.16.19q-.72,0-.72-.57a28,28,0,0,1,.34-5.54.62.62,0,0,1,.68-.52q2.22,0,6.65.15c3,.1,5.16.15,6.61.15s3.89,0,7-.12,5.43-.11,7-.11Q92.3,70.31,92.3,70.91Z"/></svg>