<svg id="Capa_1" data-name="Capa 1" xmlns="http://www.w3.org/2000/svg" viewBox="0 0 150 150"><defs><style>.cls-1{opacity:0.53;}.cls-2{fill:#0043ff;}.cls-3{fill:#616161;}.cls-4{fill:#606060;}</style></defs><title>Mesa de trabajo 4</title><g class="cls-1"><path class="cls-2" d="M17.93,90.3c6.08-.56,11.66-1,16.5-1,14,0,22.28,3.42,22.28,16.7,0,14.39-10.17,16.5-19.48,16.5-1.74,0-7.45-.06-9.06-.18v10.8H17.93Zm10.24,24.51c15.51.81,18-.31,18-8.5s-4.34-9.75-18-8.69Z"/><path class="cls-2" d="M81.47,126.91H64.72l-1.8,6.21H52.49l12.78-42.2C67.51,89,79,87.69,80.85,93.15l13.65,40H83.58Zm-14.58-7.76H79.05l-6.27-18.61Z"/><path class="cls-2" d="M110.64,125.05h20.23c4.53,0,4.65,1.74,4.65,6.2v1.87H96.86v-8l24.51-26.87h-24V95.88c0-4.47.74-6.21,5.21-6.21H134.9v8.45Z"/></g><path class="cls-3" d="M70.28,65.53a12.27,12.27,0,0,1,1.81-2.87c3-2.72,6.09-5.4,9.29-7.91,8.87-7,13.52-16.41,15.72-27.12.82-4,.55-8.19.68-12.29,0-1.66,0-3.28,1.09-4.67h1.9a15.9,15.9,0,0,1,3.45,11c1.3.21,2.63.09,3.54.66a3.37,3.37,0,0,1,1.2,3.84c-.28,1.22-.75,2.4-1.13,3.6,3,.91,3.87,4,1.46,7.66,1.43,2.51,0,4.44-1.11,6.41,2.26,2.17,0,7.25-3.42,8.75a20.59,20.59,0,0,0,2.58-3.19,18,18,0,0,0,1.06-3.77l-.51-.28-2.68,1.12c.93-2.54,3.31-4.23,3.25-7.08-.91-.16-2,1.32-2.55-.49.54-.64,1.15-1.29,1.66-2a5.21,5.21,0,0,0,1.15-2,11.17,11.17,0,0,0-.34-2.83c-.76.26-1.53.48-2.27.77-.29.12-.5.5-.77.53a1.63,1.63,0,0,1-1.2-.25,1.24,1.24,0,0,1,0-1.17c.73-1.28,1.59-2.48,2.36-3.74a5.52,5.52,0,0,0,.59-1.47c.31-1.13.71-2.54-.49-3.17s-1.73.86-2.31,1.61a38.37,38.37,0,0,0-2.13,3.47c-1.45-.35-1-1.08-.64-1.91a15,15,0,0,0-.33-14c-.3-.57-1-.94-1.51-1.41a7.16,7.16,0,0,0-1.08,2,12,12,0,0,0-.09,3c.59,11.24-1.7,21.75-8.06,31.19-2.61,3.87-6.16,6.78-9.89,9.52-2.77,2-5.47,4.15-8.15,6.29a22.4,22.4,0,0,0-2.12,2.23Z"/><path class="cls-4" d="M70.25,65.5c-.46,1.9,1.53,2.42,1.84,4-1.35-1.34-2.76-2.63-4-4-1.94-2.16-3.66-4.53-5.73-6.56a9.07,9.07,0,0,0-12.51-.7,7.12,7.12,0,0,0-2.68,5.21c-.1,2.74-.22,5.47-3.08,7.13,1.38-.08,2.75-.2,4.13-.21,3.5,0,5.92,1.51,6.57,5a42.23,42.23,0,0,1,.49,9.27c-.17,4.61.17,9.09,2,13.35a17.59,17.59,0,0,0,8,8.48c2.09,1.13,4.25,2.15,6.28,3.38s3.81,2.62,5.8,4l-.67-2.33.19-.08c.62,1.52,1.23,3,1.87,4.55,2.16,5.07,4.47,10.08,8,14.32a24.22,24.22,0,0,0,5,4.33c1.72,1.15,2.68.53,3-1.51,0-.3.28-.72.51-.78a1.33,1.33,0,0,1,.94.32c.37.27.63.85,1,.94a8,8,0,0,0,3.43.34c1.29-.32,1.14-1.71,1.09-2.83,0-.46,0-.92,0-1.26A25.09,25.09,0,0,0,105.7,132c1.78.64,2.07.31,2.89-2.17,1.16.43,2.31.9,3.49,1.27a2.92,2.92,0,0,0,3.47-1.24c.91-1.27,1-2.67-.14-3.75a26.87,26.87,0,0,0-4.84-3.76c-4.74-2.67-9.68-5-14.39-7.71-4.54-2.62-8.5-5.94-10.77-10.87A15,15,0,0,1,84,95.25a2.55,2.55,0,0,0-1.11-2.8,5.14,5.14,0,0,1-1.44-1.56c4.86,3.76,10.1,6.55,16.22,7.38a11.88,11.88,0,0,0,2.86-.34l.07-.44-4.08-2.16c4.4.27,8.7,2.24,12.87.35-.31-.9-.75-1.56-.64-2.1s.86-.74,1.38-1c2.28-.92,4.58-1.78,6.87-2.65l0-.72-6.6-2,0-.31c2-.11,3.94-.1,5.88-.37a15.74,15.74,0,0,0,4.19-1.22,2,2,0,0,0,.85-1.78c-.1-.42-1.1-.87-1.71-.9-1.39-.07-2.79.12-4.28,0,2-1.31,4.14-2.48,6-4a38.62,38.62,0,0,0,5.87-5.48c.88-1,1.11-2.75,1.3-4.2.15-1.11-.69-1.6-1.88-1.52-1.57.09-3.14,0-5.1,0,.92-.61,1.62-1.09,2.34-1.54a31.61,31.61,0,0,0,9.88-9.48,12.28,12.28,0,0,0,1.63-3.73,2.73,2.73,0,0,0-.79-2.2c-.34-.32-1.39-.07-2,.17a25.55,25.55,0,0,1-4.06,1.45,31.84,31.84,0,0,0,2.82-3.87,33.24,33.24,0,0,0,3.2-7.14,11.1,11.1,0,0,0-.48-5.41c-.57-2.1-2.53-2.4-4-.77a30,30,0,0,1-2,2.47,7.25,7.25,0,0,1,0-1.68c.93-3.63,2.27-7.22,1.77-11a64.94,64.94,0,0,0-1.58-7.24,9.94,9.94,0,0,0-1.27-2,16.57,16.57,0,0,0-1.42,3.12c-.59,2.84-1,5.73-1.51,8.57a46,46,0,0,1-11,21.51c-6.92,7.94-15.72,13-25.48,16.65a72.34,72.34,0,0,0-11.08,5.75,8.44,8.44,0,0,0-4.4,6.09l-.38-.12c.31-1,.36-2.22,1-3,1.47-1.77,3-3.75,4.89-4.87,4.74-2.75,9.67-5.19,14.62-7.54,14.19-6.73,24.4-17.12,29.64-32,1-3,1.31-6.19,2-9.27a14.71,14.71,0,0,1,1.26-3.57c.38-.71,1.26-1.69,1.82-1.62a2.91,2.91,0,0,1,1.91,1.71A27.13,27.13,0,0,1,130.48,23a22.21,22.21,0,0,1-.94,10,8.43,8.43,0,0,0-.24,1.1c.45-.23.71-.35,1-.49,2-1.15,3.77-.69,4.71,1.42a12.24,12.24,0,0,1-.07,10c-.45,1.06-1,2.08-1.48,3.07a10.72,10.72,0,0,1,2.72,1.31c1.64,1.47,1.57,3.35.79,5.26a26.4,26.4,0,0,1-6.28,8.67c-.64.62-1.29,1.21-1.94,1.82,2.9,3.2,3.09,6.25.27,9.66-1.83,2.22-4.06,4.11-6.22,6.26.95,1.24,1.76,2.89.56,4.53a16.42,16.42,0,0,1-2.95,2.51c-.32.27-.85.59-.85.89a3.11,3.11,0,0,1-1.86,2.75c-.9.54-1.87,1-2.82,1.43-1.37.66-3.1.65-3.45,2.86-.12.76-1.8,1.53-2.89,1.8a15.41,15.41,0,0,1-4.08.13,3.5,3.5,0,0,0-2.58.68,5.48,5.48,0,0,1-5.32.69c-3.4-1.23-6.69-2.8-10-4.26A19.94,19.94,0,0,1,84.58,94c-.24,5.46,1.35,10,5.13,13.41a68.47,68.47,0,0,0,9.55,7c3.76,2.36,7.82,4.22,11.6,6.55a25,25,0,0,1,5.11,4.42c1.46,1.61,1.41,3,.31,4.62a3.71,3.71,0,0,1-4.24,1.72l-2.59-.6c-1.35,2.48-1.69,2.57-6,1.7-1.69,3.27-3.65,3.8-7.28,2-2.3,1.95-3.32,2.23-5.65.28a32.16,32.16,0,0,1-6.16-6.71,50.88,50.88,0,0,1-5-9.85,12.82,12.82,0,0,0-6.19-6.87c-2.6-1.42-5.24-2.76-7.93-4-7.74-3.52-11.23-9.81-11.66-18-.16-3,.26-6,.29-9a22.84,22.84,0,0,0-.4-5c-.61-2.88-2.31-4.19-5.26-4.33-1.31-.07-2.63,0-4.31,0,.49.64.73,1,1,1.34a13.35,13.35,0,0,1,3.47,7.83c0,.44-.27,1.22-.58,1.31-.88.27-.95-.44-1-1.14-.33-4.73-3.14-7.94-6.73-10.6a1.76,1.76,0,0,0-1.61,0,7.13,7.13,0,0,0-1.76,1.79,5,5,0,0,1-5.59,2c-1.78-.44-3.48-1.18-5.36-1.83,5.29-3,6.72-3.35,12.63-3.33-1.23-.59-2.5-1.1-3.66-1.8-2-1.21-3.62-.73-5.43.58-3.32,2.4-6.41.82-9.52-1.37l8-2.77-3.1-2.94c-3.48,1.8-6.77.94-9.31-2.62a35.74,35.74,0,0,1,3.76-.38,35.59,35.59,0,0,1,3.88.37l-1.39-2.26c-3.91.92-6.57-.61-7.41-5.92a8.87,8.87,0,0,1,7.55,5.17,21.48,21.48,0,0,0,10.1,9.95c.46.22.95.39,1.55.64A42,42,0,0,1,32.9,59c.16-2.16,1.91-3.53,3.36-5,.14,2.57.41,5,.36,7.51,0,.8-.81,1.62-1.37,2.35a10.88,10.88,0,0,1-1.59,1.42l6.22,2.8c-1.7-3.93-.08-7,2-10.09,1.83,3.68,3.25,7.32.41,11.14-.16.21,0,.62,0,.94.34,0,.74.09,1-.06a5.3,5.3,0,0,0,3.08-5.27A9,9,0,0,1,48,58.43,9.73,9.73,0,0,1,62.6,57.31C65,59.6,66.81,62.44,68.9,65c.35.43.56,1.34,1.38.51Z"/><path class="cls-4" d="M19.38,48.26c-3.38-3.29-.66-7-.87-10.5a12.65,12.65,0,0,1,3.64,5.12C23,45.54,20.8,46.6,19.38,48.26Z"/><path class="cls-4" d="M25.37,45.68c.62,2.75.9,5.13.12,7.49-.37,1.12-1.15,2.45-2.35,2C22.46,55,22,53.37,21.9,52.33A4.39,4.39,0,0,1,22.72,50C23.48,48.64,24.35,47.34,25.37,45.68Z"/><path class="cls-4" d="M28.73,52.72c2,4.63,3.34,8.18.25,9.62C27.36,59.22,26.89,56.09,28.73,52.72Z"/><path class="cls-4" d="M50.58,64.32a11.77,11.77,0,0,1,1.55-1.86,1.49,1.49,0,0,1,1.38-.06,1.73,1.73,0,0,1,.72,1.24c0,.19-.67.55-1.08.66a21.57,21.57,0,0,1-2.27.41Z"/></svg>