<svg xmlns="http://www.w3.org/2000/svg" xmlns:xlink="http://www.w3.org/1999/xlink" viewBox="0 0 150 150"><defs><style>.cls-1,.cls-13{fill:none;}.cls-2{isolation:isolate;}.cls-3{fill:#f2f5fc;}.cls-4{fill:#e0ebf7;opacity:0.8;}.cls-4,.cls-5{mix-blend-mode:multiply;}.cls-5{fill:#cee2f3;opacity:0.4;}.cls-6{fill:#737c70;}.cls-7{fill:#fcca7e;}.cls-8{clip-path:url(#clip-path);}.cls-9{fill:#fa8122;}.cls-10{fill:#faa422;}.cls-11{fill:#aa5333;}.cls-12{fill:#aa6133;}.cls-13{stroke:#320f00;stroke-linecap:round;stroke-linejoin:round;stroke-width:0.25px;}.cls-14{fill:#b46838;}.cls-15{fill:#5b3923;}.cls-16{fill:#320f00;}.cls-17{fill:#694026;}.cls-18{fill:#99e3ef;}.cls-19{clip-path:url(#clip-path-2);}.cls-20{fill:#27a6bb;}.cls-21{fill:#fc9376;}.cls-22{fill:#fcbb92;}.cls-23{fill:#44cce2;}.cls-24{fill:#bbc67e;}.cls-25{clip-path:url(#clip-path-3);}.cls-26{fill:#97a83a;}.cls-27{fill:#73831f;}.cls-28{fill:#e06e43;}.cls-29{fill:#e99867;}.cls-30{fill:#25211e;}.cls-31{fill:#312d2b;}.cls-32{fill:#433f3d;}.cls-33{fill:#ffa2a2;}.cls-34{clip-path:url(#clip-path-4);}.cls-35{fill:#e75252;}.cls-36{fill:#f77;}.cls-37{fill:#ff7f02;}.cls-38{fill:#ffa902;}.cls-39{fill:#fff;}.cls-40{fill:#ffd348;}.cls-41{fill:#86e8bf;}.cls-42{clip-path:url(#clip-path-5);}.cls-43{fill:#20aa70;}.cls-44{fill:#3bd997;}.cls-45{fill:#25150c;}.cls-46{fill:#311c11;}.cls-47{fill:#4d2c18;}.cls-48{fill:#e2bff3;}.cls-49{clip-path:url(#clip-path-6);}.cls-50{fill:#b77cd4;}.cls-51{fill:#d8a8f0;}.cls-52{fill:#442919;}.cls-53{fill:#543222;}</style><clipPath id="clip-path"><path id="Layer0_11_1_STROKES" data-name="Layer0 11 1 STROKES" class="cls-1" d="M98.31,40.65A18.2,18.2,0,0,1,92.76,54,18.92,18.92,0,0,1,66,54a18.19,18.19,0,0,1-5.54-13.38A18.93,18.93,0,0,1,79.37,21.7a18.24,18.24,0,0,1,13.39,5.55A18.26,18.26,0,0,1,98.31,40.65Z"/></clipPath><clipPath id="clip-path-2"><path id="Layer0_1_1_STROKES" data-name="Layer0 1 1 STROKES" class="cls-1" d="M48,51.4A18.2,18.2,0,0,1,42.4,64.78,18.21,18.21,0,0,1,29,70.34a18.25,18.25,0,0,1-13.4-5.56A18.23,18.23,0,0,1,10.07,51.4,18.29,18.29,0,0,1,15.61,38,18.28,18.28,0,0,1,29,32.45,18.24,18.24,0,0,1,42.4,38,18.26,18.26,0,0,1,48,51.4Z"/></clipPath><clipPath id="clip-path-3"><path id="Layer0_12_1_STROKES" data-name="Layer0 12 1 STROKES" class="cls-1" d="M144.6,53.65A18.94,18.94,0,0,1,112.25,67a18.23,18.23,0,0,1-5.54-13.38A18.94,18.94,0,0,1,139,40.25,18.27,18.27,0,0,1,144.6,53.65Z"/></clipPath><clipPath id="clip-path-4"><path id="Layer0_2_1_STROKES" data-name="Layer0 2 1 STROKES" class="cls-1" d="M54.46,102.51A18.25,18.25,0,0,1,48.9,115.9a18.24,18.24,0,0,1-13.39,5.54,18.31,18.31,0,0,1-13.4-5.54,19,19,0,0,1,0-26.79,18.27,18.27,0,0,1,13.4-5.54A18.2,18.2,0,0,1,48.9,89.11,18.27,18.27,0,0,1,54.46,102.51Z"/></clipPath><clipPath id="clip-path-5"><path id="Layer0_3_1_STROKES" data-name="Layer0 3 1 STROKES" class="cls-1" d="M98.31,117.51a18.93,18.93,0,0,1-18.93,18.93A18.94,18.94,0,0,1,66,104.11a19,19,0,0,1,26.78,0A18.26,18.26,0,0,1,98.31,117.51Z"/></clipPath><clipPath id="clip-path-6"><path id="Layer0_5_1_STROKES" data-name="Layer0 5 1 STROKES" class="cls-1" d="M143.59,101.51a18.94,18.94,0,0,1-32.33,13.39,18.94,18.94,0,0,1,26.79-26.79A18.25,18.25,0,0,1,143.59,101.51Z"/></clipPath></defs><title>Mesa de trabajo 4</title><g class="cls-2"><g id="Capa_1" data-name="Capa 1"><path class="cls-3" d="M145,56a21.83,21.83,0,0,0,2.11-8.3c.28-7-2.52-13.29-6.63-18.74-8.05-9.82-21-13.38-33.24-11.85a61.75,61.75,0,0,0-25.3,9.3c-6.44,4.14-13.15,11.6-21,13S45.65,34.52,38.31,32.9c-6.83-1.5-14.12-2-21-.41C5.5,35.28-1.41,44.83.64,57c.73,4.29,6,7.33,5.07,9.52-12.95,29.13,12.36,41,40.68,49.32,60.13,17.65,85.52,6.26,96.81-5.06,5.26-5.28,7.29-13.47,6.7-20.74-.53-6.72-3.42-13.26-9.63-16.46a9.74,9.74,0,0,1-2.6-1.6C133.74,68,143.41,59.48,145,56Z"/><path class="cls-4" d="M133.13,62.57a20.2,20.2,0,0,0,2.24-7.34c.64-6.69-1.85-12.38-5.29-17.9-7-9.42-18.66-13.25-30-12.34a52,52,0,0,0-22.58,7.56C71.45,36.12,65,42.76,57.77,43.74s-13.83-5.2-20.49-7c-6.2-1.68-12.85-2.47-19.21-1.25C7.12,37.6.39,46.16,1.79,57.51c.49,4,5.23,7,4.25,9C-7,93,15.71,105,41.32,113.9c54.39,18.81,77.14,9.31,87.94-.71,5.34-5,7.67-13.43,7.09-20.53a16.59,16.59,0,0,0-4.5-10.43c-2.91-2.88-8.39-5.08-6.28-9.92C127.23,68.48,131.26,66.24,133.13,62.57Z"/><path class="cls-5" d="M122.08,66.88a16.47,16.47,0,0,0,2.26-6,21.51,21.51,0,0,0-4.13-15.5c-6-8.26-16.37-12-26.6-11.6a53.19,53.19,0,0,0-21.52,5.54c-5.59,2.81-11.64,8.2-18.19,8.76s-12.29-4.93-18.24-6.71a41.14,41.14,0,0,0-17.28-1.78C8.43,40.93,2.07,48,2.93,57.63c.31,3.41,4.48,6.16,3.53,7.82-12.69,22,7.37,33,30.16,41.51,48.39,18,70.12,10.83,80.21,2.73,8.69-7,10.26-22.87.19-29.49C110.67,76,119.73,70.83,122.08,66.88Z"/><path id="Layer0_1_1_STROKES-2" data-name="Layer0 1 1 STROKES" class="cls-6" d="M47,55.14A17.27,17.27,0,0,1,41.7,67.83,17.27,17.27,0,0,1,29,73.1a17.32,17.32,0,0,1-12.7-5.27,18,18,0,0,1,0-25.39A17.34,17.34,0,0,1,29,37.19,17.29,17.29,0,0,1,41.7,42.44,17.34,17.34,0,0,1,47,55.14Z"/><path id="Layer0_1_1_STROKES-3" data-name="Layer0 1 1 STROKES" class="cls-6" d="M97.32,44.39a18,18,0,0,1-17.95,18,18,18,0,0,1-18-18,17.92,17.92,0,0,1,18-17.95,17.94,17.94,0,0,1,17.95,18Z"/><path id="Layer0_1_1_STROKES-4" data-name="Layer0 1 1 STROKES" class="cls-6" d="M143.61,57.39A18,18,0,0,1,113,70.08a18,18,0,0,1,0-25.39,18,18,0,0,1,30.66,12.7Z"/><path id="Layer0_1_1_STROKES-5" data-name="Layer0 1 1 STROKES" class="cls-6" d="M53.47,106.65a17.27,17.27,0,0,1-5.27,12.69,17.27,17.27,0,0,1-12.69,5.27,17.32,17.32,0,0,1-12.7-5.27,18,18,0,0,1,0-25.39,17.34,17.34,0,0,1,12.7-5.25,18,18,0,0,1,18,18Z"/><path id="Layer0_1_1_STROKES-6" data-name="Layer0 1 1 STROKES" class="cls-6" d="M97.32,121.65a18,18,0,0,1-17.95,18A18,18,0,0,1,66.67,109a18,18,0,0,1,25.39,0A17.33,17.33,0,0,1,97.32,121.65Z"/><path id="Layer0_1_1_STROKES-7" data-name="Layer0 1 1 STROKES" class="cls-6" d="M142.61,105.65A18,18,0,0,1,112,118.34,18,18,0,0,1,137.34,93,17.34,17.34,0,0,1,142.61,105.65Z"/><path id="Layer0_11_1_STROKES-2" data-name="Layer0 11 1 STROKES" class="cls-7" d="M98.31,40.65A18.2,18.2,0,0,1,92.76,54,18.92,18.92,0,0,1,66,54a18.19,18.19,0,0,1-5.54-13.38A18.93,18.93,0,0,1,79.37,21.7a18.24,18.24,0,0,1,13.39,5.55A18.26,18.26,0,0,1,98.31,40.65Z"/><g class="cls-8"><g id="Layer0_8_FILL" data-name="Layer0 8 FILL"><path class="cls-9" d="M82.48,53.68a1.31,1.31,0,0,1-.6,1c.86-.05,1.75-.13,2.67-.27s1.46-.19,2-.25L86.44,54a5.24,5.24,0,0,0-2.09-1.17,17.2,17.2,0,0,0-3-.84,1.86,1.86,0,0,1,1.14,1.65m-11,.35c-.1.12-.22.25-.33.4l2.86.14,2,.08a1.32,1.32,0,0,1-.54-1,1.7,1.7,0,0,1,.42-1.1,1.81,1.81,0,0,1,.72-.56,17.28,17.28,0,0,0-3,.85A5.24,5.24,0,0,0,71.51,54Z"/><path class="cls-10" d="M68.21,61l0-.1a25,25,0,0,1,2-5.27c.31-.47.6-.88.85-1.21l0,0h0l2.86.14,2,.08,0,0a4.73,4.73,0,0,0,.7.45,4.86,4.86,0,0,0,2.16.58h.18a5.1,5.1,0,0,0,2.2-.63,2.92,2.92,0,0,0,.52-.34h0c.85-.05,1.75-.14,2.66-.27s1.46-.19,2-.25h0l0,0a16.63,16.63,0,0,1,1.06,1.47,24.94,24.94,0,0,1,2,5.25l0,.1Z"/><path class="cls-11" d="M76,54.65a4.39,4.39,0,0,0,.73.46,4.72,4.72,0,0,0,2.37.59,5.33,5.33,0,0,0,2.24-.64,3.25,3.25,0,0,0,.53-.35,1.31,1.31,0,0,0,.6-1A1.86,1.86,0,0,0,81.34,52c0,.23,0,.47,0,.72,0-.25,0-.49,0-.72v-.3q0-2.49,0-3.6H76.53c0,.56,0,1.76.08,3.6V52c0,.25,0,.52,0,.79,0-.27,0-.54,0-.79a1.81,1.81,0,0,0-.72.56,1.7,1.7,0,0,0-.42,1.1,1.32,1.32,0,0,0,.54,1m2,.52A.26.26,0,0,1,78,55c0-.19.4-.31,1.2-.34s1.18,0,1.18.29-.51.43-1.53.43A1.18,1.18,0,0,1,78,55.17Z"/><path class="cls-12" d="M77.73,55a.26.26,0,0,0,.1.23,1.34,1.34,0,0,0,.91.22c1.22,0,1.83-.17,1.83-.52s-.47-.4-1.41-.34S77.73,54.74,77.73,55Z"/></g><path id="Layer0_8_1_STROKES" data-name="Layer0 8 1 STROKES" class="cls-13" d="M76.61,52a17.28,17.28,0,0,0-3,.85A5.24,5.24,0,0,0,71.51,54c-.1.12-.22.25-.33.41m4.84.21a1.3,1.3,0,0,1-.55-1,1.7,1.7,0,0,1,.42-1.1,1.81,1.81,0,0,1,.72-.56v-.28c0-1.84,0-3-.08-3.6h4.78q0,1.11,0,3.6V52a17.2,17.2,0,0,1,3,.84A5.24,5.24,0,0,1,86.44,54l.13.15c.3.37.65.85,1.05,1.46a24.78,24.78,0,0,1,2,5.23H68.33a24.71,24.71,0,0,1,2-5.24,13.87,13.87,0,0,1,.85-1.2m4.84.21a3.9,3.9,0,0,0,.72.46,4.72,4.72,0,0,0,2.37.59,5.33,5.33,0,0,0,2.24-.64,4.07,4.07,0,0,0,.53-.34,1.34,1.34,0,0,0,.6-1A1.86,1.86,0,0,0,81.34,52c0,.23,0,.47,0,.72M76.61,52c0,.25,0,.52,0,.79m9,3,.67,5.1M72.27,55.77l-.66,5.11"/></g><g id="Layer0_9_FILL" data-name="Layer0 9 FILL"><path class="cls-11" d="M90.08,39.91a1,1,0,0,1,1,1.19,1,1,0,0,0-1-1.19,1.33,1.33,0,0,1,.11.5.86.86,0,0,1-.32.7.86.86,0,0,0,.32-.7,1.33,1.33,0,0,0-.11-.5l-.17,0a1.9,1.9,0,0,0-.54.07,1.53,1.53,0,0,0-.55.24l-.09.07c0,.52,0,1.07.07,1.64s0,1.09,0,1.57a4.52,4.52,0,0,0,2.4-.67A2.82,2.82,0,0,0,92,42a4.91,4.91,0,0,0,.28-.5,2.55,2.55,0,0,0,.14-.84,2.39,2.39,0,0,0-.14-.82,1.92,1.92,0,0,0-.18-.35,2.43,2.43,0,0,0-.14-.2,1.73,1.73,0,0,0-1.43-.59,3.35,3.35,0,0,0-1.8.5l-.12.07c0,.32,0,.65.08,1l.09-.07a1.53,1.53,0,0,1,.55-.24,1.9,1.9,0,0,1,.54-.07l.17,0m-20.89-.67-.06,0a3.29,3.29,0,0,0-1.79-.5,2,2,0,0,0-.6.08,1.51,1.51,0,0,0-.83.51,1.3,1.3,0,0,0-.15.2,1.89,1.89,0,0,0-.17.35,2.39,2.39,0,0,0-.14.82,2.55,2.55,0,0,0,.14.84,3.4,3.4,0,0,0,.26.5,3.16,3.16,0,0,0,.91.81,4.46,4.46,0,0,0,2.36.67c0-.48-.06-1-.06-1.57s.06-1.13.09-1.67l-.06,0a1.61,1.61,0,0,0-.55-.24,1.93,1.93,0,0,0-.55-.07l-.16,0a1.16,1.16,0,0,0-.11.5.86.86,0,0,0,.32.7.86.86,0,0,1-.32-.7,1.16,1.16,0,0,1,.11-.5,1,1,0,0,0-1,1.19,1,1,0,0,1,1-1.19l.16,0a1.93,1.93,0,0,1,.55.07,1.61,1.61,0,0,1,.55.24l.06,0C69.16,39.89,69.17,39.55,69.19,39.24Z"/><path class="cls-14" d="M69.93,31.08A7.93,7.93,0,0,0,69.49,33a4.52,4.52,0,0,1-.22.85l0,.13c.07.91.1,1.65.1,2.22,0,.21,0,.41,0,.63,0,.77-.09,1.59-.14,2.46,0,.31,0,.65,0,1,0,.54-.06,1.09-.09,1.67s0,1.09.06,1.57a5.83,5.83,0,0,0,.51,1.86,6.87,6.87,0,0,0,1.19,1.71A8.92,8.92,0,0,0,73,48.68c.23,0,4.24,2.55,6,2.55s5.77-2.61,6-2.57A10.68,10.68,0,0,0,87.13,47a4.68,4.68,0,0,0,1.2-1.73,8.18,8.18,0,0,0,.42-1.8c0-.48,0-1,0-1.57s0-1.12-.07-1.64c0-.35-.06-.68-.08-1-.07-1.5,0-3.29.07-5.4A5.44,5.44,0,0,1,88.5,33c-.13-.62,0-1.25-.18-1.59l-1-1.55-1.62-.32c-1-.11-2.83-.06-5.19-.11a43.28,43.28,0,0,0-5.68.21c-1.55.19-3.23.55-4.46.79A2.57,2.57,0,0,1,70,31.52M76.83,46a1.65,1.65,0,0,0-.66,1.53,2.34,2.34,0,0,0,.57,1.58,2.93,2.93,0,0,0,2.11.7h.22a3,3,0,0,0,2.18-.7,2.16,2.16,0,0,0,.45-.79,2.56,2.56,0,0,0,.12-.79A1.65,1.65,0,0,0,81.16,46,4.65,4.65,0,0,0,79,45.6,4.7,4.7,0,0,0,76.83,46Z"/><path class="cls-15" d="M86.68,27.51q-2.19-2.88-7.41-3t-7.76,2.49a7.44,7.44,0,0,0-2.14,3.21,5,5,0,0,0-.22,2l.09,1.71,0-.13a4.52,4.52,0,0,0,.22-.85A4.49,4.49,0,0,1,70,31.52c.37-.49.6-.8.68-.94,1.22-.24,2.61-.46,4.16-.64a43.28,43.28,0,0,1,5.68-.21c2.36.05,4,.13,5.09.24l1.33.18,1,1.44A4.49,4.49,0,0,1,88.5,33a5.44,5.44,0,0,0,.22.85v-.5a7.86,7.86,0,0,0-.44-3.06,11,11,0,0,0-1.61-2.8"/></g><path id="Layer0_9_1_STROKES" data-name="Layer0 9 1 STROKES" class="cls-13" d="M69.24,33.93l-.09-1.71a5,5,0,0,1,.22-2,7.44,7.44,0,0,1,2.14-3.21q2.56-2.55,7.76-2.49t7.41,3a11,11,0,0,1,1.61,2.8,7.86,7.86,0,0,1,.44,3.06v.5c-.11,2.11-.14,3.9-.07,5.4l.12-.07a3.35,3.35,0,0,1,1.8-.5,1.73,1.73,0,0,1,1.43.59,2.43,2.43,0,0,1,.14.2,1.92,1.92,0,0,1,.18.35,2.39,2.39,0,0,1,.14.82,2.55,2.55,0,0,1-.14.84A4.91,4.91,0,0,1,92,42a2.82,2.82,0,0,1-.89.81,4.52,4.52,0,0,1-2.4.67,8.41,8.41,0,0,1-.42,1.81A4.82,4.82,0,0,1,87.14,47a11,11,0,0,1-2.23,1.65l-1.07.59c-.68.37-1.84,1-3.49,1.79l-.08,0a3.16,3.16,0,0,1-2.69,0c-1.69-.85-2.88-1.45-3.57-1.82l-1-.57a9.12,9.12,0,0,1-2.15-1.63,7,7,0,0,1-1.18-1.7,5.72,5.72,0,0,1-.52-1.87,4.46,4.46,0,0,1-2.36-.67,3.16,3.16,0,0,1-.91-.81,3.4,3.4,0,0,1-.26-.5,2.55,2.55,0,0,1-.14-.84,2.39,2.39,0,0,1,.14-.82,1.89,1.89,0,0,1,.17-.35,1.3,1.3,0,0,1,.15-.2,1.51,1.51,0,0,1,.83-.51,2,2,0,0,1,.6-.08,3.29,3.29,0,0,1,1.79.5l.06,0c0-.87.09-1.69.14-2.46,0-.22,0-.42,0-.63C69.34,35.58,69.31,34.84,69.24,33.93Zm-.09,6.31-.06,0a1.61,1.61,0,0,0-.55-.24,1.93,1.93,0,0,0-.55-.07l-.16,0a1.16,1.16,0,0,0-.11.5.86.86,0,0,0,.32.7m-.21-1.2a1,1,0,0,0-1,1.19m2.39-1.86c0,.31,0,.65,0,1,0,.54-.06,1.09-.09,1.67s0,1.09.06,1.57m19.61-3.21.09-.07a1.53,1.53,0,0,1,.55-.24,1.9,1.9,0,0,1,.54-.07l.17,0a1,1,0,0,1,1,1.19m-1-1.19a1.33,1.33,0,0,1,.11.5.86.86,0,0,1-.32.7m-1.22-1.84c0,.32,0,.65.08,1,0,.52,0,1.07.07,1.64s0,1.09,0,1.57"/><g id="Layer0_9_MEMBER_0_FILL" data-name="Layer0 9 MEMBER 0 FILL"><path class="cls-16" d="M84,37.08a9.57,9.57,0,0,0,1.62-.15c.7-.12,1-.26,1-.43,0-.34-.52-.48-1.55-.4s-1.57.24-1.57.54a.41.41,0,0,0,.06.23.42.42,0,0,0,.4.21m-9.5-.21a.41.41,0,0,0,.06-.23c0-.3-.52-.48-1.57-.54s-1.55.06-1.55.4c0,.17.35.31,1,.43a9.59,9.59,0,0,0,1.63.15A.4.4,0,0,0,74.51,36.87Z"/></g><path id="Layer0_9_MEMBER_0_1_STROKES" data-name="Layer0 9 MEMBER 0 1 STROKES" class="cls-13" d="M78.5,40.61A8.82,8.82,0,0,0,77,43.07c0,.2.26.42.77.66A2.44,2.44,0,0,0,79,44"/><g id="Layer0_9_MEMBER_1_FILL" data-name="Layer0 9 MEMBER 1 FILL"><path class="cls-17" d="M75.12,27.14a.23.23,0,0,0,.25.17c.18,0,.27-.11.27-.35s-.09-.37-.25-.36-.27.13-.27.36v.18m-.84.1a.23.23,0,0,0,.23.13.4.4,0,0,0,.32-.2.48.48,0,0,0,.13-.29c0-.3-.12-.37-.35-.22s-.36.3-.36.44a1.2,1.2,0,0,0,0,.14m-1.41.18a.45.45,0,0,0,.38.14.85.85,0,0,0,.68-.37.89.89,0,0,0,.24-.5c0-.43-.23-.5-.67-.21s-.67.56-.67.79l0,.15M85,27.1l0,.2a.38.38,0,0,0,.34.18c.21,0,.32-.09.32-.28s-.12-.24-.35-.32-.36,0-.36.22M84,26.59c-.24-.15-.36-.07-.36.23a.53.53,0,0,0,.1.27.4.4,0,0,0,.34.24.24.24,0,0,0,.27-.27c0-.17-.12-.33-.35-.47m-1.44.46a.58.58,0,0,0,.52.32.31.31,0,0,0,.35-.34.7.7,0,0,0-.12-.36.67.67,0,0,0-.57-.28.28.28,0,0,0-.31.32A.66.66,0,0,0,82.51,27.05Z"/></g><path id="Layer0_1_1_STROKES-8" data-name="Layer0 1 1 STROKES" class="cls-18" d="M48,51.4A18.2,18.2,0,0,1,42.4,64.78,18.21,18.21,0,0,1,29,70.34a18.25,18.25,0,0,1-13.4-5.56A18.23,18.23,0,0,1,10.07,51.4,18.29,18.29,0,0,1,15.61,38,18.28,18.28,0,0,1,29,32.45,18.24,18.24,0,0,1,42.4,38,18.26,18.26,0,0,1,48,51.4Z"/><g class="cls-19"><g id="Layer0_0_FILL" data-name="Layer0 0 FILL"><path class="cls-20" d="M30.83,65.81l-.14.07a25,25,0,0,0,5.12-.64l.39-.11-.28-.34a5.24,5.24,0,0,0-2.09-1.17,17.2,17.2,0,0,0-3-.84A1.86,1.86,0,0,1,32,64.43c0,.52-.38,1-1.13,1.38m-10.19-.62c1,.21,1.93.35,2.67.44s1.73.15,2.84.19c-.8-.42-1.2-.89-1.2-1.4a1.7,1.7,0,0,1,.42-1.1,1.81,1.81,0,0,1,.72-.56,17.62,17.62,0,0,0-3,.85A5.18,5.18,0,0,0,21,64.78Z"/><path class="cls-21" d="M26.15,65.82l.07,0a4.72,4.72,0,0,0,2.37.59,5.16,5.16,0,0,0,2.1-.57l.14-.07c.75-.4,1.13-.86,1.13-1.38a1.86,1.86,0,0,0-1.14-1.65c0,.23,0,.47,0,.72,0-.25,0-.49,0-.72v-.3q0-2.49,0-3.6H26c0,.56,0,1.76.08,3.6v.28c0,.25,0,.52,0,.79,0-.27,0-.54,0-.79a1.81,1.81,0,0,0-.72.56,1.7,1.7,0,0,0-.42,1.1c0,.51.4,1,1.2,1.4m1.62.11q0-.25.66-.21c.43,0,.65.12.65.27a.2.2,0,0,1,0,.14,1,1,0,0,1-.5.09C28,66.22,27.77,66.13,27.77,65.93Z"/><path class="cls-22" d="M28.43,65.66c-.56,0-.83,0-.83.26s.32.37,1,.37a1.11,1.11,0,0,0,.63-.12.24.24,0,0,0,.06-.18C29.26,65.8,29,65.69,28.43,65.66Z"/><path class="cls-23" d="M17.69,71.71l0-.1a24.47,24.47,0,0,1,2-5.27q.47-.7.84-1.2l0,0h.05c1,.21,1.93.35,2.66.43s1.73.16,2.83.2h0l.06,0a4.86,4.86,0,0,0,2.16.58h.18a4.83,4.83,0,0,0,2.06-.56h0a24.27,24.27,0,0,0,5.1-.63l.38-.11.06,0,0,0c.27.35.58.78.91,1.29a24.94,24.94,0,0,1,2,5.25l0,.1Z"/></g><path id="Layer0_0_1_STROKES" data-name="Layer0 0 1 STROKES" class="cls-13" d="M26.15,65.83Q25,65.19,25,64.42a1.7,1.7,0,0,1,.42-1.1,1.81,1.81,0,0,1,.72-.56,17.62,17.62,0,0,0-3,.85A5.18,5.18,0,0,0,21,64.78c-.11.12-.22.26-.35.42-.24.32-.52.72-.83,1.19a24.71,24.71,0,0,0-2,5.24h3.28l.66-5.11m4.34-3.76c0,.25,0,.52,0,.79m0,2.28.07,0a4.72,4.72,0,0,0,2.37.59,5.16,5.16,0,0,0,2.1-.57l.14-.07c.75-.4,1.13-.86,1.13-1.38a1.86,1.86,0,0,0-1.14-1.65c0,.23,0,.47,0,.72m0-.72v-.3q0-2.49,0-3.6H26c0,.56,0,1.76.08,3.6v.28m4.73,0a17.2,17.2,0,0,1,3,.84,5.24,5.24,0,0,1,2.09,1.17l.28.34c.27.34.56.76.9,1.27a24.78,24.78,0,0,1,2,5.23h-18m14.06-5.1.67,5.1"/></g><path id="Layer0_12_1_STROKES-2" data-name="Layer0 12 1 STROKES" class="cls-24" d="M144.6,53.65A18.94,18.94,0,0,1,112.25,67a18.23,18.23,0,0,1-5.54-13.38A18.94,18.94,0,0,1,139,40.25,18.27,18.27,0,0,1,144.6,53.65Z"/><g class="cls-25"><g id="Layer0_10_FILL" data-name="Layer0 10 FILL"><path class="cls-26" d="M115,74l0-.1a24.47,24.47,0,0,1,2-5.27c.43-.65.8-1.16,1.1-1.53l0,0h0l2.22.21,2.16.14h0l0,0a3.14,3.14,0,0,0,.89.64,4.86,4.86,0,0,0,2.16.58h.18a5.14,5.14,0,0,0,2.2-.63,2.56,2.56,0,0,0,.84-.64l0,0h0c.62,0,1.22-.07,1.79-.12.95-.07,1.75-.16,2.38-.27h0l0,0,.05,0a16.46,16.46,0,0,1,1.19,1.62,24.94,24.94,0,0,1,2,5.25l0,.1Z"/><path class="cls-27" d="M128.14,65a1.81,1.81,0,0,1,.73.55,1.75,1.75,0,0,1,.41,1.1,1.11,1.11,0,0,1-.27.71l1.8-.11c.95-.08,1.75-.17,2.39-.28a5.45,5.45,0,0,0-2-1.13,17.2,17.2,0,0,0-3-.84m-4.73,0a17.62,17.62,0,0,0-3,.85A5.18,5.18,0,0,0,118.31,67l-.08.08q1,.12,2.22.21c.8.06,1.52.11,2.17.14a1.18,1.18,0,0,1-.35-.79,1.7,1.7,0,0,1,.42-1.1A1.81,1.81,0,0,1,123.41,65Z"/><path class="cls-28" d="M123.33,61.13c0,.56,0,1.76.08,3.6V65c0,.25,0,.52,0,.79,0-.27,0-.54,0-.79a1.81,1.81,0,0,0-.72.56,1.7,1.7,0,0,0-.42,1.1,1.18,1.18,0,0,0,.35.79,3.2,3.2,0,0,0,.92.65,4.72,4.72,0,0,0,2.37.59,5.33,5.33,0,0,0,2.24-.64,2.71,2.71,0,0,0,.86-.67,1.11,1.11,0,0,0,.27-.71,1.75,1.75,0,0,0-.41-1.1,1.81,1.81,0,0,0-.73-.55c0,.23,0,.47,0,.72,0-.25,0-.49,0-.72v-.3q0-2.49,0-3.6h-4.78M126.54,68a.29.29,0,0,1-.07.21,1.33,1.33,0,0,1-.77.15,1.25,1.25,0,0,1-.79-.16.37.37,0,0,1,0-.21c0-.3.28-.43.83-.4S126.54,67.8,126.54,68Z"/><path class="cls-29" d="M126.69,68.32a.34.34,0,0,0,.09-.27q0-.47-1.08-.54c-.72,0-1.08.14-1.08.52a.41.41,0,0,0,.06.27,1.52,1.52,0,0,0,1,.22A1.65,1.65,0,0,0,126.69,68.32Z"/></g><path id="Layer0_10_1_STROKES" data-name="Layer0 10 1 STROKES" class="cls-13" d="M123.41,65a17.62,17.62,0,0,0-3,.85A5.18,5.18,0,0,0,118.31,67l-.08.09m4.39.34a1.18,1.18,0,0,1-.35-.79,1.7,1.7,0,0,1,.42-1.1,1.81,1.81,0,0,1,.72-.56v-.28c0-1.84-.06-3-.08-3.6h4.78q0,1.11,0,3.6V65a17.2,17.2,0,0,1,3,.84,5.35,5.35,0,0,1,2,1.14l0,0a15.9,15.9,0,0,1,1.18,1.61,24.78,24.78,0,0,1,2,5.23H115.13a24.15,24.15,0,0,1,2-5.24,15.89,15.89,0,0,1,1.1-1.52M123.41,65c0,.25,0,.52,0,.79M129,67.4a1.15,1.15,0,0,0,.27-.72,1.75,1.75,0,0,0-.41-1.1,1.81,1.81,0,0,0-.73-.55c0,.23,0,.47,0,.72m-5.53,1.71a3.2,3.2,0,0,0,.92.65,4.72,4.72,0,0,0,2.37.59,5.33,5.33,0,0,0,2.24-.64,2.84,2.84,0,0,0,.86-.66m3.46,1.38.67,5.1m-14.07-5.11-.66,5.11"/></g><g id="Layer0_14_FILL" data-name="Layer0 14 FILL"><path class="cls-29" d="M124.24,45.08A8.48,8.48,0,0,1,123,46.62a9.47,9.47,0,0,1-3.62,1.93,5.39,5.39,0,0,0,.32-1.11c-.4.35-.8.69-1.18,1A19.22,19.22,0,0,1,116,50.19c.1.71.18,1.4.25,2.08v0c0,.36.08.72.11,1.08a1.25,1.25,0,0,0,0,.21c.06,1,.1,2,.11,2.85s0,1.45,0,2.11c0,.26,0,.51-.06.74q-.11,1.39,3.36,3.18a12.93,12.93,0,0,0,12.35,0q3.47-1.78,3.36-3.18c0-.18,0-.62,0-1.34,0-.41,0-.92,0-1.51v-.57c0-1.14,0-2,.05-2.47,0-.28,0-.47,0-.56a4.92,4.92,0,0,1,0-.56c.06-.56.14-1.23.23-2a20.85,20.85,0,0,1-5.15-1A13.12,13.12,0,0,1,124.24,45.08Z"/><path class="cls-28" d="M123,46.62a8.48,8.48,0,0,0,1.27-1.54,13.12,13.12,0,0,0,6.43,4.16,20.85,20.85,0,0,0,5.15,1c0-.28.09-.58.13-.89a17,17,0,0,1-2.2-.42,26.63,26.63,0,0,1-4-1.39c-2.81-1.24-4.64-2.7-5.46-4.39a6.53,6.53,0,0,1-2.09,2.68,13.34,13.34,0,0,1-1.89,1.45c.15-.21.3-.43.45-.68a8,8,0,0,0,1-2A21.43,21.43,0,0,1,119,47.15a15.27,15.27,0,0,1-3.11,2.15c0,.3.08.6.11.89a19.22,19.22,0,0,0,2.49-1.75c.38-.31.78-.65,1.18-1a5.39,5.39,0,0,1-.32,1.11A9.47,9.47,0,0,0,123,46.62m15.59,5.88,0,0-.19-.16a1.94,1.94,0,0,0-.76-.32,2.92,2.92,0,0,0-.54,0,2.76,2.76,0,0,0-1.44.37,4.92,4.92,0,0,0,0,.56c0,.09,0,.28,0,.56a1.31,1.31,0,0,1,.64-.25l.15,0a2.54,2.54,0,0,1,.41,0,1.16,1.16,0,0,1,1,.61,1,1,0,0,1,.08.67,1,1,0,0,0-.08-.67,1.16,1.16,0,0,0-1-.61,6,6,0,0,1-.07,1.15,6,6,0,0,0,.07-1.15,2.54,2.54,0,0,0-.41,0l-.15,0a1.31,1.31,0,0,0-.64.25c0,.51,0,1.33-.05,2.47v.57h.26a3.81,3.81,0,0,0,1-.13,4.19,4.19,0,0,0,.95-.38,2.25,2.25,0,0,0,1.36-2,2.19,2.19,0,0,0-.32-1.2,1.57,1.57,0,0,0-.17-.21m-22.18,1.1a1.25,1.25,0,0,1,0-.21,1.39,1.39,0,0,0-.62-.23l-.17,0a2.41,2.41,0,0,0-.4,0,5.2,5.2,0,0,0,.07,1.15,5.2,5.2,0,0,1-.07-1.15,1.17,1.17,0,0,0-1,.61,1.05,1.05,0,0,0-.09.67,1.05,1.05,0,0,1,.09-.67,1.17,1.17,0,0,1,1-.61,2.41,2.41,0,0,1,.4,0l.17,0a1.39,1.39,0,0,1,.62.23c0-.36-.07-.72-.11-1.08v0a2.69,2.69,0,0,0-1.39-.35,2.07,2.07,0,0,0-1.22.33,2.34,2.34,0,0,0-.27.2l0,0a1.46,1.46,0,0,0-.16.21,2.11,2.11,0,0,0-.32,1.2,2.23,2.23,0,0,0,1.36,2l.4.19a4.09,4.09,0,0,0,1.54.32h.34C116.48,55.56,116.44,54.61,116.38,53.6Z"/><path class="cls-30" d="M124.11,39.77c-.15.18-.29.37-.44.57a10.61,10.61,0,0,0-.93,1.46l-.46-.63c-.36.66-.87,1.51-1.51,2.55a11.49,11.49,0,0,1-2.29,2.42,5.36,5.36,0,0,1-2.9,1.52,24.39,24.39,0,0,1-2.15-1.46,6,6,0,0,1-.6-.47c0,.35.12.79.21,1.31.06.32.1.61.14.86a6.21,6.21,0,0,0,.21.85,6.21,6.21,0,0,1-.21-.85l-.06.26A3.45,3.45,0,0,1,112,50.28h.08a2.84,2.84,0,0,0,1.47-.53,1,1,0,0,1,.2-.11l.28-.22-.28.22a1.8,1.8,0,0,0-.24.72,8.19,8.19,0,0,0,0,.9c0,.13,0,.3,0,.51a1.53,1.53,0,0,0,.13.48,2.07,2.07,0,0,1,1.22-.33,2.69,2.69,0,0,1,1.39.35c-.07-.68-.15-1.37-.25-2.08,0-.29-.07-.59-.11-.89-.17.08-.33.14-.49.2.16-.06.32-.12.49-.2A15.27,15.27,0,0,0,119,47.15a21.43,21.43,0,0,0,2.73-2.56,3.8,3.8,0,0,0,.12-.91,3.8,3.8,0,0,1-.12.91,8,8,0,0,1-1,2c-.15.25-.3.47-.45.68a13.34,13.34,0,0,0,1.89-1.45,6.53,6.53,0,0,0,2.09-2.68,4,4,0,0,1-.4-1.1,4,4,0,0,0,.4,1.1c.82,1.69,2.65,3.15,5.46,4.39a26.63,26.63,0,0,0,4,1.39,17,17,0,0,0,2.2.42,6.56,6.56,0,0,0,1,0,6.56,6.56,0,0,1-1,0c0,.31-.09.61-.13.89-.09.78-.17,1.45-.23,2a2.76,2.76,0,0,1,1.44-.37,2.92,2.92,0,0,1,.54,0,5.25,5.25,0,0,0,.41-3.32,5,5,0,0,0-.7-.65,5,5,0,0,1,.7.65c.26.27.54.6.85,1a5.26,5.26,0,0,1,.91,1.37,6.42,6.42,0,0,0-.68-3.33c-.13-.21-.27-.42-.43-.63a4.78,4.78,0,0,0-1.18-1,4.78,4.78,0,0,1,1.18,1,6.82,6.82,0,0,0,1.77-.25l.15,0a4.1,4.1,0,0,1-.82-.43,11.7,11.7,0,0,1-1.21-.93,12.51,12.51,0,0,1-1-.92,12.51,12.51,0,0,0,1,.92,11.7,11.7,0,0,0,1.21.93,11.83,11.83,0,0,1-1.22-3.09l-.2-.07a5.87,5.87,0,0,1-2-1.34c0,.25,0,.54-.08.89-.11,1-.18,1.85-.19,2.41a5.07,5.07,0,0,0-.52-.37c-.31-.2-.87-.5-1.67-.9.07.23.17.65.3,1.25a4.16,4.16,0,0,0,.54,1.51c-.62-.09-1.19-.19-1.73-.3a32.84,32.84,0,0,1-4.56-1.39,13.53,13.53,0,0,1-1.79-.78,2.13,2.13,0,0,1-.71-.78c-.2-.51-.4-1-.6-1.42a19.69,19.69,0,0,0-1.2-2.18m12.64,3.7.17.26.22.31-.22-.31-.17-.26m-1,13h-.26c0,.59,0,1.1,0,1.51.22-.23.46-.51.71-.83s.42-.56.58-.81a3.81,3.81,0,0,1-1,.13m-21.13-.32a3.94,3.94,0,0,0,1.84,2.43c0-.66,0-1.36,0-2.11h-.34A4.09,4.09,0,0,1,114.61,56.13Z"/><path class="cls-31" d="M115.56,47.75h0c-.41-.24-1.14-.73-2.16-1.47q-.33-.24-.6-.48l0,0v0a5.4,5.4,0,0,1,0-.62,11.73,11.73,0,0,1,3.09-8.48,8.08,8.08,0,0,1,3.33-2,5.47,5.47,0,0,1,1.83-.32,5,5,0,0,1,2.19.51,12.72,12.72,0,0,1,5.64-1.38h.1a9.64,9.64,0,0,1,5.37,1.61,6.69,6.69,0,0,1,3,3.55c.28.9.73,2.42,1.34,4.53v.08l0,.08-.28-.1A5.76,5.76,0,0,1,136.39,42c0,.21,0,.45-.07.71-.11,1-.17,1.85-.19,2.42v.17L136,45.2a3.76,3.76,0,0,0-.5-.37q-.44-.27-1.5-.81c.07.24.15.6.25,1.07a4,4,0,0,0,.53,1.49l.1.15-.19,0c-.61-.09-1.19-.19-1.72-.3a33.2,33.2,0,0,1-4.58-1.4,11.48,11.48,0,0,1-1.8-.78,2.06,2.06,0,0,1-.74-.81c-.21-.51-.41-1-.6-1.42a20.29,20.29,0,0,0-1.14-2.08l-.36.48a9.11,9.11,0,0,0-.92,1.45l-.06.12-.08-.11-.39-.52c-.36.64-.85,1.45-1.45,2.43a11.46,11.46,0,0,1-2.31,2.44,5.32,5.32,0,0,1-3,1.55Z"/></g><path id="Layer0_14_1_STROKES" data-name="Layer0 14 1 STROKES" class="cls-13" d="M112.84,45.74a5.81,5.81,0,0,1,0-.62,11.57,11.57,0,0,1,3.07-8.42,7.87,7.87,0,0,1,3.3-1.93,5,5,0,0,1,4,.2,12.7,12.7,0,0,1,5.64-1.39,9.53,9.53,0,0,1,5.42,1.6,6.56,6.56,0,0,1,3,3.51c.28.89.72,2.4,1.34,4.53v0a12.23,12.23,0,0,0,1.22,3.09,4.1,4.1,0,0,0,.82.43l-.15,0a6.82,6.82,0,0,1-1.77.25c.16.21.3.42.43.63a6.42,6.42,0,0,1,.68,3.33,5.26,5.26,0,0,0-.91-1.37c-.31-.39-.59-.72-.85-1a5.25,5.25,0,0,1-.41,3.32,1.94,1.94,0,0,1,.76.32l.19.16,0,0a1.57,1.57,0,0,1,.17.21,2.19,2.19,0,0,1,.32,1.2,2.25,2.25,0,0,1-1.36,2,4.19,4.19,0,0,1-.95.38c-.16.25-.35.51-.58.81s-.49.6-.71.83c0,.72,0,1.16,0,1.34q.1,1.39-3.36,3.18a12.93,12.93,0,0,1-12.35,0q-3.47-1.78-3.36-3.18c0-.23,0-.48.06-.74a3.94,3.94,0,0,1-1.84-2.43l-.4-.19a2.23,2.23,0,0,1-1.36-2,2.11,2.11,0,0,1,.32-1.2,1.46,1.46,0,0,1,.16-.21l0,0a2.34,2.34,0,0,1,.27-.2,1.53,1.53,0,0,1-.13-.48c0-.21,0-.38,0-.51a8.19,8.19,0,0,1,0-.9,1.8,1.8,0,0,1,.24-.72,1,1,0,0,0-.2.11,2.84,2.84,0,0,1-1.47.53H112a3.45,3.45,0,0,0,1.12-2.12l.06-.26c0-.25-.08-.54-.14-.86C113,46.52,112.88,46.08,112.84,45.74Zm23,4.54c0-.28.08-.58.12-.89a17,17,0,0,1-2.2-.42,26.63,26.63,0,0,1-4-1.39c-2.81-1.24-4.64-2.7-5.46-4.39a6.53,6.53,0,0,1-2.09,2.68,13.34,13.34,0,0,1-1.89,1.45c.15-.21.3-.43.45-.68a8,8,0,0,0,1-2A21.43,21.43,0,0,1,119,47.15a15.27,15.27,0,0,1-3.11,2.15l.12.89c.09.71.17,1.4.24,2.08v0c0,.36.08.72.11,1.08a1.25,1.25,0,0,0,0,.21c.06,1,.1,2,.11,2.85s0,1.45,0,2.11m5.4-14.88a3.8,3.8,0,0,1-.12.91m2.17-2.5a4,4,0,0,0,.4,1.1m-7.94,10.2a1.39,1.39,0,0,0-.62-.23l-.17,0a2.41,2.41,0,0,0-.4,0,5.2,5.2,0,0,0,.07,1.15m-1.85-5.57a6.21,6.21,0,0,1-.21-.85m.57,1.74.28-.22m1.14,3.75a1.17,1.17,0,0,0-1,.61,1.05,1.05,0,0,0-.09.67m2.17-2.18a2.69,2.69,0,0,0-1.39-.35,2.07,2.07,0,0,0-1.22.33m1,3.88a4.09,4.09,0,0,0,1.54.32h.34m-1.09-7c.16-.06.32-.12.49-.2m21.67-4.82a12.51,12.51,0,0,0,1,.92,11.7,11.7,0,0,0,1.21.93m-3-2.86.17.26.22.31m.14,4a5,5,0,0,1,.7.65m-2,.74a6.56,6.56,0,0,0,1,0m-1.33,2.86a2.76,2.76,0,0,1,1.44-.37,2.92,2.92,0,0,1,.54,0m-2,.32a4.92,4.92,0,0,0,0,.56c0,.09,0,.28,0,.56a1.31,1.31,0,0,1,.64-.25l.15,0a2.54,2.54,0,0,1,.41,0,1.16,1.16,0,0,1,1,.61,1,1,0,0,1,.08.67m-1.08-1.28a6,6,0,0,1-.07,1.15m-.83-4q-.15,1.17-.24,2m1.15,4a3.81,3.81,0,0,1-1,.13h-.26c0,.59,0,1.1,0,1.51m.08-4.55c0,.51,0,1.33-.05,2.47v.57m2-10.41a4.78,4.78,0,0,1,1.18,1"/><g id="Layer0_14_MEMBER_0_FILL" data-name="Layer0 14 MEMBER 0 FILL"><path class="cls-16" d="M130.29,49.65a.33.33,0,0,0,.08.24,1.78,1.78,0,0,0,.91.15,2.85,2.85,0,0,0,1.36-.21.41.41,0,0,0,.14-.36c0-.33-.42-.44-1.25-.33s-1.24.28-1.24.51m-9.42-.51c-.83-.11-1.24,0-1.24.33a.41.41,0,0,0,.14.36,2.79,2.79,0,0,0,1.36.21,1.69,1.69,0,0,0,.89-.15.29.29,0,0,0,.08-.24Q122.1,49.31,120.87,49.14Z"/><path class="cls-30" d="M125.65,57.56a1.52,1.52,0,0,0-1.41-.76,1.16,1.16,0,0,0-1.37,1,1.23,1.23,0,0,1-1.24,1.05,4.74,4.74,0,0,1-1.17-.16,2.2,2.2,0,0,0,.84,1.46,3.5,3.5,0,0,0,2.3.82,1.72,1.72,0,0,0,1.41-.7,4.06,4.06,0,0,0,.61-1.17,5.06,5.06,0,0,0,.65,1.17,1.75,1.75,0,0,0,1.42.7,3.46,3.46,0,0,0,2.29-.82,2.1,2.1,0,0,0,.85-1.46,4.73,4.73,0,0,1-1.16.16,1.23,1.23,0,0,1-1.24-1.05,1.19,1.19,0,0,0-1.39-1A1.5,1.5,0,0,0,125.65,57.56Z"/></g><path id="Layer0_14_MEMBER_0_1_STROKES" data-name="Layer0 14 MEMBER 0 1 STROKES" class="cls-13" d="M125.56,53a6.29,6.29,0,0,1-.22,2.32c-.1.24-.21.48-.32.71s.37.29,1.1.36m-1.88.42a1.16,1.16,0,0,0-1.37,1,1.23,1.23,0,0,1-1.24,1.05,4.74,4.74,0,0,1-1.17-.16,2.2,2.2,0,0,0,.84,1.46,3.5,3.5,0,0,0,2.3.82,1.72,1.72,0,0,0,1.41-.7,4.06,4.06,0,0,0,.61-1.17,5.06,5.06,0,0,0,.65,1.17,1.75,1.75,0,0,0,1.42.7,3.46,3.46,0,0,0,2.29-.82,2.1,2.1,0,0,0,.85-1.46,4.73,4.73,0,0,1-1.16.16,1.23,1.23,0,0,1-1.24-1.05,1.19,1.19,0,0,0-1.39-1,1.5,1.5,0,0,0-1.39.76A1.52,1.52,0,0,0,124.24,56.8Z"/><g id="Layer0_14_MEMBER_1_FILL" data-name="Layer0 14 MEMBER 1 FILL"><path class="cls-32" d="M118.13,37.75a.53.53,0,0,0,.16-.36c0-.31-.15-.43-.47-.35s-.47.24-.47.49l.06.21a.38.38,0,0,0,.37.19.48.48,0,0,0,.35-.18m1.56-.26A1.18,1.18,0,0,0,120,37c0-.39-.21-.56-.63-.49s-.64.36-.64.92c0,0,0,.09,0,.25a.38.38,0,0,0,.39.23c.19,0,.38-.13.59-.4m14.62.36a.48.48,0,0,0,.1-.28c0-.26-.17-.42-.51-.5s-.51.06-.51.38l.1.26a.54.54,0,0,0,.5.28.4.4,0,0,0,.32-.14m-5-1.54c-.37-.15-.55,0-.55.37l.06.28a.61.61,0,0,0,.6.28.36.36,0,0,0,.41-.4c0-.21-.17-.38-.52-.53m-.88.67a.49.49,0,0,0,.07-.24c0-.21-.19-.46-.56-.74s-.55-.18-.55.31a1,1,0,0,0,.15.44.66.66,0,0,0,.57.41.35.35,0,0,0,.32-.18m-1.07.58a.43.43,0,0,0,.08-.24,1.6,1.6,0,0,0-.26-.54,4.06,4.06,0,0,0-.56-.75c-.55-.55-.83-.26-.83.85a.69.69,0,0,0,.17.48,1.2,1.2,0,0,0,1,.37A.45.45,0,0,0,127.4,37.56Z"/></g><path id="Layer0_2_1_STROKES-2" data-name="Layer0 2 1 STROKES" class="cls-33" d="M54.46,102.51A18.25,18.25,0,0,1,48.9,115.9a18.24,18.24,0,0,1-13.39,5.54,18.31,18.31,0,0,1-13.4-5.54,19,19,0,0,1,0-26.79,18.27,18.27,0,0,1,13.4-5.54A18.2,18.2,0,0,1,48.9,89.11,18.27,18.27,0,0,1,54.46,102.51Z"/><g class="cls-34"><g id="Layer0_15_FILL" data-name="Layer0 15 FILL"><path class="cls-35" d="M39.17,116.76c-.45.43-.88.81-1.28,1.14,1.45-.11,3.46-.36,6-.78l-.17-.36a2.39,2.39,0,0,0-1-1.2c-.29-.13-.91-.34-1.84-.65-.38.45-1,1.07-1.78,1.85m-11.17,0-.3.61c1.06.16,2.39.3,4,.41l2.15.12q-.59-.5-1.26-1.14a23.6,23.6,0,0,1-1.8-1.85q-1.38.45-1.83.66A2.35,2.35,0,0,0,28,116.73Z"/><path class="cls-21" d="M32.58,116.73q.68.64,1.26,1.14a11.3,11.3,0,0,0,2.06,1.42,11.63,11.63,0,0,0,2-1.39c.4-.33.83-.71,1.28-1.14.81-.78,1.4-1.4,1.78-1.85,0,0-.29-.11-.77-.26a19.7,19.7,0,0,0-2.2-.5c0,.54,0,.93,0,1.18,0-.25,0-.64,0-1.18s0-.93.06-1.52c0-.81.05-1.51.06-2.08H33.74v3.57l-2.07.53-.89.23a23.6,23.6,0,0,0,1.8,1.85m2.54,1.45c0-.21.21-.3.72-.28s.8.1.81.22a.58.58,0,0,1-.17.43.56.56,0,0,1-.43.29,1,1,0,0,1-.68-.18A1,1,0,0,1,35.12,118.18Z"/><path class="cls-22" d="M35.84,117.83c-.59,0-.87.09-.83.32a1.11,1.11,0,0,0,.29.56,1.2,1.2,0,0,0,.78.2c.16,0,.32-.11.49-.33a.68.68,0,0,0,.19-.49C36.74,118,36.44,117.86,35.84,117.83Z"/><path class="cls-36" d="M25.3,122l.06-.12c.68-1.31,1.44-2.84,2.26-4.54l0-.06h.06c1.06.16,2.4.29,4,.4.78.06,1.5.1,2.16.13h0l0,0a11.12,11.12,0,0,0,2,1.39,11.44,11.44,0,0,0,1.93-1.36l0,0h0c1.45-.11,3.47-.37,6-.78H44l0,0c.87,1.79,1.67,3.39,2.38,4.77l.06.12Z"/></g><path id="Layer0_15_1_STROKES" data-name="Layer0 15 1 STROKES" class="cls-13" d="M30.79,114.88a19.26,19.26,0,0,0-1.84.66,2.35,2.35,0,0,0-.95,1.19l-.29.62m6.14.53c-.4-.34-.82-.72-1.27-1.15a21.44,21.44,0,0,1-1.79-1.85l.88-.23c.55-.13,1.24-.31,2.07-.53v-3.57H38.1c0,.57,0,1.27-.06,2.08,0,.59,0,1.1,0,1.52a19.41,19.41,0,0,1,2.19.5l.77.26c.93.31,1.55.52,1.84.65a2.39,2.39,0,0,1,1,1.2c.06.12.12.24.17.36.87,1.8,1.67,3.39,2.38,4.77H25.44q1-2,2.27-4.54m6-3.23v.68m7.21.11c-.38.45-1,1.07-1.78,1.85-.45.43-.88.81-1.28,1.14m.1-3.75c0,.54,0,.93,0,1.18m4.85,3.11a8.35,8.35,0,0,0,.36.93,4.06,4.06,0,0,1,.32,1.41s0,.24-.11.71c0,.14-.06.27-.1.4M29.13,118.5a6,6,0,0,0-.38,1.28,6.51,6.51,0,0,0-.12,1.07c0,.07,0,.26.06.55a3.32,3.32,0,0,0,.08.49m9.12-4a11.63,11.63,0,0,1-2,1.39,10.83,10.83,0,0,1-2-1.41"/></g><g id="Layer0_16_FILL" data-name="Layer0 16 FILL"><path class="cls-21" d="M24.25,103.71a2.64,2.64,0,0,0-.33,1.3,2.32,2.32,0,0,0,.89,1.84,3,3,0,0,0,.83.5.25.25,0,0,1,0-.08.62.62,0,0,1,.18-.44.6.6,0,0,1,.86,0,.62.62,0,0,1,.18.44,1.21,1.21,0,0,1,0,.18l.27-.13.13,0c-.25-.92-.46-1.84-.63-2.77a1.24,1.24,0,0,0-.69-.2l-.17,0a1.88,1.88,0,0,0,.1.82,1.88,1.88,0,0,1-.1-.82,1.84,1.84,0,0,0-.51.18.84.84,0,0,0-.52.76.79.79,0,0,0,.05.25.79.79,0,0,1-.05-.25.84.84,0,0,1,.52-.76,1.84,1.84,0,0,1,.51-.18l.17,0a1.24,1.24,0,0,1,.69.2l-.18-1.1a2.39,2.39,0,0,0-.5-.26,1.84,1.84,0,0,0-.25-.09,1.9,1.9,0,0,0-.4,0,1.17,1.17,0,0,0-1,.71M29,96.2a7.53,7.53,0,0,0,.82-.18,13.5,13.5,0,0,1,1.43-.35,16.78,16.78,0,0,1,2.29-.11,10.35,10.35,0,0,1,8,3.91A20.63,20.63,0,0,1,45,105.22s0,0,0,0a61.94,61.94,0,0,0-3.53-7.72Q38.68,92.63,35,92.63a9.21,9.21,0,0,0-3.66.85,8.13,8.13,0,0,0-3,2,8.15,8.15,0,0,1-1,4.45,20,20,0,0,1-1.07,2.12c0,.14,0,.28,0,.42s0,.11,0,.15a11.21,11.21,0,0,0,1.37-2A12,12,0,0,0,29,96.2Z"/><path class="cls-22" d="M29.84,96a7.53,7.53,0,0,1-.82.18,12,12,0,0,1-1.31,4.48,11.21,11.21,0,0,1-1.37,2l.09.74.18,1.1c.17.93.38,1.85.63,2.77.06.23.12.46.19.7a2.47,2.47,0,0,0,.45.81,11.5,11.5,0,0,0,2.43,2.16,24.78,24.78,0,0,0,4.19,2.39,3.07,3.07,0,0,0,2.9,0A23.67,23.67,0,0,0,41.45,111a16.85,16.85,0,0,0,1.76-1.45,8.55,8.55,0,0,0,.68-.75,2.38,2.38,0,0,0,.43-.81,25.67,25.67,0,0,0,.68-2.75,20.63,20.63,0,0,0-3.48-5.75,10.35,10.35,0,0,0-8-3.91,16.78,16.78,0,0,0-2.29.11A13.5,13.5,0,0,0,29.84,96Z"/><path class="cls-37" d="M27,94.59q-.28-.27-1.23-1c-.3.08-.3.39,0,1a12.8,12.8,0,0,0,.84,1.15,7.05,7.05,0,0,1,.61.93,1.45,1.45,0,0,1,.06,1.13l-.42,1.33a10.07,10.07,0,0,1-1,1.87c-.11.17-.52.26-1.22.26a3.68,3.68,0,0,1-2.41-.79,4,4,0,0,1-1.17-1.64,11.19,11.19,0,0,0-.4,2.93,6.36,6.36,0,0,0,3.07,5.85,8.27,8.27,0,0,0,4.16,1.24,2.47,2.47,0,0,1-.45-.81c-.07-.24-.13-.47-.19-.7l-.13,0-.27.13a1,1,0,0,1-.17.25.6.6,0,0,1-1-.35,3,3,0,0,1-.83-.5,2.32,2.32,0,0,1-.89-1.84,2.64,2.64,0,0,1,.33-1.3,1.17,1.17,0,0,1,1-.71,1.9,1.9,0,0,1,.4,0,1.84,1.84,0,0,1,.25.09,2.39,2.39,0,0,1,.5.26l-.09-.74s0-.09,0-.15,0-.28,0-.42a4.11,4.11,0,0,1-.24.39,4.11,4.11,0,0,0,.24-.39A20,20,0,0,0,27.35,100a8.15,8.15,0,0,0,1-4.45l-.22.26.22-.26a8.13,8.13,0,0,1,3-2A9.21,9.21,0,0,1,35,92.63q3.72,0,6.52,4.84A61.94,61.94,0,0,1,45,105.19l.15.42-.15-.42s0,0,0,0a25.67,25.67,0,0,1-.68,2.75,2.38,2.38,0,0,1-.43.81,8.55,8.55,0,0,1-.68.75,6,6,0,0,0,.88,1.59A5.65,5.65,0,0,0,47,113.2a4.12,4.12,0,0,1-.45-1.79,6.16,6.16,0,0,1,.56-2.27,26.35,26.35,0,0,0,1.1-4.63l.18-1.22a6.77,6.77,0,0,1-3.24-1.75,13.24,13.24,0,0,1-2.95-4.06,13.69,13.69,0,0,0-2.29-3.54,8.59,8.59,0,0,0-2.28-1.55,6.72,6.72,0,0,0-2.77-.67,10.07,10.07,0,0,0-5.07,1.53,5.55,5.55,0,0,0-1.91,1.62C27.72,95.11,27.4,95,27,94.59Z"/><path class="cls-38" d="M46.46,90a8.94,8.94,0,0,0-8.18-5.09q-5.52-.12-8.33,1.92a24.35,24.35,0,0,0-4.16,3.64c-.89,1.07-1.24,1.93-1,2.59a9.65,9.65,0,0,0-2.38,2.79,12.3,12.3,0,0,0-1.34,3,4,4,0,0,0,1.17,1.64,3.68,3.68,0,0,0,2.41.79c.7,0,1.11-.09,1.22-.26a10.07,10.07,0,0,0,1-1.87l.42-1.33a1.45,1.45,0,0,0-.06-1.13,7.05,7.05,0,0,0-.61-.93,12.8,12.8,0,0,1-.84-1.15c-.3-.56-.3-.87,0-1q.95.75,1.23,1c.45.43.77.52.94.28a5.55,5.55,0,0,1,1.91-1.62,10.07,10.07,0,0,1,5.07-1.53,6.72,6.72,0,0,1,2.77.67,8.59,8.59,0,0,1,2.28,1.55,13.69,13.69,0,0,1,2.29,3.54,13.24,13.24,0,0,0,2.95,4.06,6.77,6.77,0,0,0,3.24,1.75c.25-1.74.43-3.47.54-5.18C49.06,96,48.23,93.27,46.46,90Z"/><path class="cls-39" d="M25.64,107.35a.6.6,0,0,0,1,.35,1,1,0,0,0,.17-.25,1.21,1.21,0,0,0,0-.18.62.62,0,0,0-.18-.44.6.6,0,0,0-.86,0,.62.62,0,0,0-.18.44A.25.25,0,0,0,25.64,107.35Z"/></g><path id="Layer0_16_1_STROKES" data-name="Layer0 16 1 STROKES" class="cls-13" d="M21.06,98.77a11.78,11.78,0,0,1,1.33-3A9.65,9.65,0,0,1,24.77,93c-.22-.66.13-1.52,1-2.59A24.35,24.35,0,0,1,30,86.79q2.81-2,8.33-1.92A8.94,8.94,0,0,1,46.46,90c1.77,3.31,2.6,6,2.48,8.15-.11,1.71-.29,3.44-.54,5.18l-.18,1.22a26.35,26.35,0,0,1-1.1,4.63,6.16,6.16,0,0,0-.56,2.27A4.12,4.12,0,0,0,47,113.2a5.65,5.65,0,0,1-2.92-2.08,6,6,0,0,1-.88-1.59A16.85,16.85,0,0,1,41.45,111a23.67,23.67,0,0,1-4.05,2.37,3.07,3.07,0,0,1-2.9,0,24.78,24.78,0,0,1-4.19-2.39,11.5,11.5,0,0,1-2.43-2.16,8.27,8.27,0,0,1-4.16-1.24,6.36,6.36,0,0,1-3.07-5.85A10.67,10.67,0,0,1,21.06,98.77Zm24,6.46v0a61.94,61.94,0,0,0-3.53-7.72Q38.68,92.63,35,92.63a9.21,9.21,0,0,0-3.66.85,8.13,8.13,0,0,0-3,2,8.15,8.15,0,0,1-1,4.45,20,20,0,0,1-1.07,2.12c0,.14,0,.28,0,.42a1,1,0,0,1,0,.16l.09.73.18,1.1c.17.93.38,1.85.63,2.77.06.23.12.46.19.7a2.47,2.47,0,0,0,.45.81m.22-13,.22-.26m-1.89,7.88a2.6,2.6,0,0,0-.49-.26l-.26-.09a1.9,1.9,0,0,0-.4,0,1.17,1.17,0,0,0-1,.71,2.64,2.64,0,0,0-.33,1.3,2.32,2.32,0,0,0,.89,1.84,3,3,0,0,0,.83.5.25.25,0,0,1,0-.08.62.62,0,0,1,.18-.44.6.6,0,0,1,.86,0,.62.62,0,0,1,.18.44,1.21,1.21,0,0,1,0,.18l.27-.13.13,0m-1-5.18a4.11,4.11,0,0,1-.24.39m-1.27,3a.79.79,0,0,1-.05-.25.84.84,0,0,1,.52-.76,1.84,1.84,0,0,1,.51-.18l.17,0a1.24,1.24,0,0,1,.69.2m.23,3a1,1,0,0,1-.17.25.6.6,0,0,1-1-.35m.11-3a1.88,1.88,0,0,0,.1.82m19.17,0,.15.43m-.16-.39a26.15,26.15,0,0,1-.69,2.74,2.38,2.38,0,0,1-.43.81,8.55,8.55,0,0,1-.68.75"/><g id="Layer0_16_MEMBER_0_FILL" data-name="Layer0 16 MEMBER 0 FILL"><path class="cls-16" d="M42.64,101.54a.28.28,0,0,0,0-.13c0-.15-.16-.31-.47-.47a2.48,2.48,0,0,0-1-.28.9.9,0,0,0-.82.18.6.6,0,0,0-.25.41.39.39,0,0,0,0,.14.21.21,0,0,0,.17.09.3.3,0,0,0,.25-.19.48.48,0,0,1,.46-.2,1.79,1.79,0,0,1,.92.28,1.36,1.36,0,0,0,.43.28.2.2,0,0,0,.19-.11m-13,.11a1.36,1.36,0,0,0,.43-.28,1.79,1.79,0,0,1,.92-.28.48.48,0,0,1,.46.2.3.3,0,0,0,.25.19.22.22,0,0,0,.17-.09.39.39,0,0,0,.05-.14.6.6,0,0,0-.25-.41.9.9,0,0,0-.82-.18,2.48,2.48,0,0,0-1,.28c-.31.16-.47.32-.47.47a.28.28,0,0,0,0,.13A.2.2,0,0,0,29.6,101.65Z"/></g><path id="Layer0_16_MEMBER_0_1_STROKES" data-name="Layer0 16 MEMBER 0 1 STROKES" class="cls-13" d="M35.39,105a1.8,1.8,0,0,1-.35.78,2.68,2.68,0,0,1-.28.35c0,.1.08.22.25.37a1.14,1.14,0,0,0,.38.25"/><g id="Layer0_16_MEMBER_1_FILL" data-name="Layer0 16 MEMBER 1 FILL"><path class="cls-40" d="M48,99.87c.21,0,.32-.12.32-.36s-.11-.39-.33-.4-.34.08-.34.3a.5.5,0,0,0,.06.24.29.29,0,0,0,.29.22m-.05-3.56A.61.61,0,0,0,48,96c0-.25-.12-.35-.35-.3a.43.43,0,0,0-.36.45,1.29,1.29,0,0,0,0,.17.31.31,0,0,0,.29.15.34.34,0,0,0,.3-.17m-.67-1.5a.83.83,0,0,0,.21-.46c0-.4-.19-.53-.57-.41a.77.77,0,0,0-.59.79s0,.08,0,.21.18.2.37.2a.71.71,0,0,0,.56-.33M24.42,96c.19,0,.29-.12.29-.35s-.14-.31-.43-.46-.45-.06-.45.27l.13.28a.52.52,0,0,0,.46.26m4.64-5.74c.21,0,.32-.1.32-.29s-.14-.38-.42-.43-.41,0-.41.29a.41.41,0,0,0,.12.25.51.51,0,0,0,.39.18m-1.5,1.44a.24.24,0,0,0,.07-.18c0-.2-.13-.36-.39-.47s-.4,0-.4.29l.07.24a.39.39,0,0,0,.4.25.28.28,0,0,0,.25-.13m-.22,1a1,1,0,0,0-.57-.89c-.39-.23-.59-.09-.59.43l.11.5a.67.67,0,0,0,.64.49.37.37,0,0,0,.37-.2A1.11,1.11,0,0,0,27.34,92.67Z"/></g><path id="Layer0_3_1_STROKES-2" data-name="Layer0 3 1 STROKES" class="cls-41" d="M98.31,117.51a18.93,18.93,0,0,1-18.93,18.93A18.94,18.94,0,0,1,66,104.11a19,19,0,0,1,26.78,0A18.26,18.26,0,0,1,98.31,117.51Z"/><g class="cls-42"><g id="Layer0_4_FILL" data-name="Layer0 4 FILL"><path class="cls-43" d="M83.06,131.76c-.44.43-.87.81-1.26,1.14q2.16-.15,6-.78c-.07-.12-.13-.24-.19-.36a2.38,2.38,0,0,0-.94-1.2c-.3-.13-.91-.34-1.85-.65a22.44,22.44,0,0,1-1.78,1.85m-11.16,0c-.1.21-.2.42-.29.63,1,.15,2.38.28,4,.39l2.17.14c-.4-.35-.82-.73-1.28-1.16a22.53,22.53,0,0,1-1.78-1.85c-.93.31-1.55.53-1.85.66A2.35,2.35,0,0,0,71.9,131.73Z"/><path class="cls-44" d="M69.21,137l.06-.12c.67-1.3,1.43-2.83,2.26-4.53l0,0h.06c1,.15,2.38.28,4,.39l2.17.14h0l0,0a13,13,0,0,0,2,1.38,11.91,11.91,0,0,0,1.95-1.36l0,0h0c1.44-.11,3.46-.37,6-.78h.06l0,.05c.86,1.79,1.66,3.39,2.38,4.77l.06.12Z"/><path class="cls-11" d="M77.64,129.12l-2.07.54-.88.22a22.53,22.53,0,0,0,1.78,1.85c.46.43.88.81,1.28,1.16a12.72,12.72,0,0,0,2,1.4,11.68,11.68,0,0,0,2-1.39c.39-.33.82-.71,1.26-1.14a22.44,22.44,0,0,0,1.78-1.85l-.76-.25a17.05,17.05,0,0,0-2.19-.51c0,.53,0,.93,0,1.18,0-.25,0-.65,0-1.18s0-.93,0-1.52c0-.81,0-1.51,0-2.08H77.64v3.57M79,133.18c0-.21.19-.29.72-.27s.79.09.81.21a.65.65,0,0,1-.18.43c-.15.2-.29.29-.43.29a.94.94,0,0,1-.67-.18A.86.86,0,0,1,79,133.18Z"/><path class="cls-14" d="M79.75,132.83c-.63,0-.92.07-.86.31a1,1,0,0,0,.29.58,1.16,1.16,0,0,0,.8.21.71.71,0,0,0,.51-.34.82.82,0,0,0,.21-.52C80.68,132.93,80.36,132.85,79.75,132.83Z"/></g><path id="Layer0_4_1_STROKES" data-name="Layer0 4 1 STROKES" class="cls-13" d="M74.69,129.88c-.93.31-1.55.53-1.85.66a2.35,2.35,0,0,0-.94,1.19c-.1.21-.2.42-.29.63m6.14.53c-.4-.35-.82-.73-1.28-1.16a22.53,22.53,0,0,1-1.78-1.85l.88-.22,2.07-.54v-3.57H82c0,.57,0,1.27,0,2.08,0,.59,0,1.1,0,1.52a17.05,17.05,0,0,1,2.19.51l.76.25c.94.31,1.55.52,1.85.65a2.38,2.38,0,0,1,.94,1.2c.06.12.12.24.19.36q1.31,2.7,2.37,4.77H69.34c.68-1.32,1.43-2.83,2.27-4.53m6-3.24v.68m4.16,3.1c.39-.33.82-.71,1.26-1.14a22.44,22.44,0,0,0,1.78-1.85m-3-.76c0,.53,0,.93,0,1.18m4.85,3.11a8.35,8.35,0,0,0,.36.93,4.3,4.3,0,0,1,.32,1.41s0,.24-.11.71a3.89,3.89,0,0,1-.1.4M73,133.5a5.48,5.48,0,0,0-.38,1.28,6.73,6.73,0,0,0-.13,1.07c0,.07,0,.26.06.55s.06.37.08.49m5.09-4a12.72,12.72,0,0,0,2,1.4,11.68,11.68,0,0,0,2-1.39"/></g><g id="Layer0_17_FILL" data-name="Layer0 17 FILL"><path class="cls-14" d="M79.89,129a3.42,3.42,0,0,1-1.55-.41,22.68,22.68,0,0,1-3.89-2.28l-.31-.23a11.62,11.62,0,0,1-2.45-2.27,2.84,2.84,0,0,1-.46-.87c-.07-.25-.13-.5-.19-.74l0-.11c-.18-.72-.35-1.44-.49-2.16,0-.21-.07-.42-.11-.63l-.12-.73-.06-.42c0-.05-.08-.78-.14-1.33v0l.08,0a.64.64,0,0,1,.31,0,2.12,2.12,0,0,1,.63.17,2,2,0,0,0,.57.15.59.59,0,0,0,.65-.47,4.52,4.52,0,0,1,.14-.85c0-.07.11-.14.45-.25s.23-.16.23-.23a.53.53,0,0,1,.07-.47.52.52,0,0,1,.44-.25.66.66,0,0,1,.4.17.56.56,0,0,0,.27.14,2.32,2.32,0,0,0,.58-.1h0c.08,0,.18,0,.42.23s.32.19.35.19c.27,0,.39-.14.39-.45a1.11,1.11,0,0,0-.06-.34,1.08,1.08,0,0,1-.09-.39.4.4,0,0,1,.45-.43c.38,0,.45,0,.46-.05a1.66,1.66,0,0,0,.31-.49q.1-.21.48-.21a.51.51,0,0,1,.41.14,1,1,0,0,0,.41.28.31.31,0,0,0,.13,0,1.31,1.31,0,0,0,.31,0l.4-.08h0a.93.93,0,0,1,.82.54.77.77,0,0,0,.66.44c.26,0,.44-.19.55-.59s.38-.71.7-.71a1.19,1.19,0,0,1,.57.19,1.18,1.18,0,0,0,.59.17,1.9,1.9,0,0,0,.54-.12,1.86,1.86,0,0,1,.62-.13.24.24,0,0,1,.18.07.91.91,0,0,1,.13.68,1.42,1.42,0,0,0,.2.92,5.5,5.5,0,0,0,.86.05h.06l0,.06a2.14,2.14,0,0,1,0,.69c0,.22.12.33.37.35h0a1,1,0,0,0,.38-.11h0c.24,0,.44.16.59.47a3.1,3.1,0,0,0,.23.42,1.27,1.27,0,0,0,.51.38c.07,0,.19.11.47.49a.61.61,0,0,0,.49.29h.08v.08l-.06.62c0,.45-.08.86-.12,1.25-.1.89-.19,1.62-.27,2.16a.08.08,0,0,1,0,.07,7.92,7.92,0,0,1-.2,1.12,2.54,2.54,0,0,1-.44.87,9,9,0,0,1-.69.79,14.62,14.62,0,0,1-1.47,1.29l-.3.23a23,23,0,0,1-4.06,2.5A3,3,0,0,1,79.89,129Z"/><path class="cls-11" d="M77.45,112.19a.32.32,0,0,1-.31-.14c0-.1-.11-.15-.19-.15a.79.79,0,0,0-.34.08c-.15.06-.22.13-.22.21a2.21,2.21,0,0,0,0,.48c0,.07-.31.14-.82.23l-.13.46a.55.55,0,0,1-.56.45.46.46,0,0,1-.4-.25c-.12-.16-.22-.25-.3-.25s-.29.14-.52.41a1,1,0,0,1-.63.39,1.07,1.07,0,0,1-.26-.06.84.84,0,0,0-.31-.07h-.18s0,.07,0,.17a2.06,2.06,0,0,0,.08.4c0,.29-.16.42-.47.4s-.49.07-.49.25,0,.23,0,.57-.11.48-.32.48l-.26,0a.75.75,0,0,0-.29,0l-.25.18a1,1,0,0,1-.18.11q0,.17,0,.3h0a.78.78,0,0,1,.28,0,2,2,0,0,1,.6.17,2.1,2.1,0,0,0,.6.15.66.66,0,0,0,.73-.53,4.22,4.22,0,0,1,.14-.84c0-.06.16-.12.39-.2s.3-.16.29-.32a.52.52,0,0,1,.06-.42.44.44,0,0,1,.37-.2.58.58,0,0,1,.35.15.66.66,0,0,0,.32.15,2.45,2.45,0,0,0,.6-.1.88.88,0,0,1,.36.21.88.88,0,0,0,.4.21c.32,0,.48-.17.48-.53a1.4,1.4,0,0,0-.07-.37A.94.94,0,0,1,76,114c0-.23.12-.35.37-.35s.49,0,.52-.07a1.6,1.6,0,0,0,.32-.51c.06-.12.19-.17.41-.17A.45.45,0,0,1,78,113a1.15,1.15,0,0,0,.45.31,1,1,0,0,0,.48,0l.41-.08a.85.85,0,0,1,.73.5.9.9,0,0,0,.74.49q.45,0,.63-.66c.13-.43.34-.65.62-.65a1.14,1.14,0,0,1,.53.18,1.21,1.21,0,0,0,.63.18,2.06,2.06,0,0,0,.57-.12,1.76,1.76,0,0,1,.59-.13c.17,0,.25.22.23.67a1.42,1.42,0,0,0,.23,1,5,5,0,0,0,.91,0,2.74,2.74,0,0,1,0,.66.41.41,0,0,0,.44.44,1.06,1.06,0,0,0,.43-.11c.2,0,.37.14.52.43a3.43,3.43,0,0,0,.23.43,1.47,1.47,0,0,0,.55.41c.09,0,.23.19.43.45a.73.73,0,0,0,.55.34c0-.32.07-.64.1-1l-.11,0c-.19-.08-.28-.19-.28-.32a1.48,1.48,0,0,1,.07-.22,1.13,1.13,0,0,0,.06-.36c0-.19-.1-.28-.31-.27s-.3,0-.3-.22a1.35,1.35,0,0,0,.08-.35c0-.25-.08-.37-.24-.37-.31.3-.52.46-.62.46S87,115,87,114.83a.44.44,0,0,1,.07-.17.52.52,0,0,0,.07-.25.49.49,0,0,0-.14-.33.43.43,0,0,0-.34-.18l-.48.16c-.22,0-.31-.21-.29-.65s-.1-.68-.38-.71-.58-.22-.56-.54-.12-.46-.44-.46a.48.48,0,0,0-.39.18c-.11.12-.19.18-.25.18a.35.35,0,0,1-.29-.14.35.35,0,0,0-.27-.14.47.47,0,0,0-.48.27.47.47,0,0,1-.49.26.33.33,0,0,1-.29-.14.38.38,0,0,0-.34-.15.53.53,0,0,0-.58.4q-.09.39-.6.39c-.21,0-.35-.15-.43-.47a.59.59,0,0,0-.65-.49l-.53.13a.26.26,0,0,1-.25-.2.3.3,0,0,0-.3-.2.52.52,0,0,0-.45.3.49.49,0,0,1-.44.31m11.87,7.28h.15a.7.7,0,0,1,.68.45,1.78,1.78,0,0,1,0,.73,1.78,1.78,0,0,0,0-.73.7.7,0,0,0-.68-.45q0,.36,0,.63l0,.26,0-.26q0-.27,0-.63h-.15a1.59,1.59,0,0,0-.66.14c-.09.89-.18,1.61-.26,2.16v.06a.84.84,0,0,0,.64.28,2.79,2.79,0,0,0,1.67-.62,2,2,0,0,0,.89-1.55,2.6,2.6,0,0,0-.28-1.21A1.43,1.43,0,0,0,90,118a1.91,1.91,0,0,0-1.18.4c-.05.45-.09.87-.13,1.25a1.59,1.59,0,0,1,.66-.14m-18.95-.89a1.89,1.89,0,0,0-.93-.23,1.41,1.41,0,0,0-1.35.77,2.6,2.6,0,0,0-.28,1.21,2,2,0,0,0,.89,1.55,3.5,3.5,0,0,0,1.09.55,2.3,2.3,0,0,0,.58.07,1,1,0,0,0,.72-.4q-.27-1.08-.48-2.16a1.82,1.82,0,0,0-.52-.08h-.16c0,.24,0,.44,0,.62l0,.26,0-.26c0-.18,0-.38,0-.62a.67.67,0,0,0-.67.44,1.78,1.78,0,0,0,0,.73,1.78,1.78,0,0,1,0-.73.67.67,0,0,1,.67-.44h.16a1.82,1.82,0,0,1,.52.08c0-.2-.08-.41-.11-.62S70.41,118.83,70.37,118.58Z"/><path class="cls-45" d="M73.44,111.85c-.35,0-.55.21-.61.63s-.2.63-.44.63a.31.31,0,0,1-.28-.2.33.33,0,0,0-.31-.21.48.48,0,0,0-.35.21.45.45,0,0,1-.36.2h-.55a.26.26,0,0,0-.24.29v.47c0,.27-.17.41-.37.41a.49.49,0,0,1-.2-.06.44.44,0,0,0-.19,0c-.24,0-.38.19-.43.57s-.21.55-.45.55a2.25,2.25,0,0,1-.93-.58c-.44-.4-.66-.6-.68-.6q-.27,0-.24.57c0,.37-.15.56-.53.56s-.72-.42-.9-1.24c-.06-.24-.28-.43-.68-.57s-.57-.3-.57-.49a4.85,4.85,0,0,0,.11-.65c0-.28-.11-.44-.32-.49s-.33-.29-.36-.75a.38.38,0,0,0-.33-.4,2.72,2.72,0,0,0-.69,0,1.05,1.05,0,0,1-.66-.1v0a1.57,1.57,0,0,0,.29.7c.2.31.26.55.19.72a3,3,0,0,1-.15.43,1.69,1.69,0,0,0,0,.49.82.82,0,0,0,.43.58c.26.18.39.32.39.44a.81.81,0,0,1-.13.34.85.85,0,0,0-.12.29c0,.09.08.18.24.26a.43.43,0,0,1,.22.35,1.9,1.9,0,0,1-.09.43c0,.11.11.19.32.27a.4.4,0,0,1,.31.4.74.74,0,0,1-.29.49c-.2.17-.29.29-.29.34s.08.14.26.28.27.25.28.34a3.56,3.56,0,0,1,0,.37.45.45,0,0,0,.2.31.86.86,0,0,1,.29.36l.21.39q.16.27.78.12a.41.41,0,0,1,.43.38v.61c0,.06.1.15.32.28a.5.5,0,0,1,.26.48c0,.22.07.31.25.3a.37.37,0,0,1,.43.27c.15.45.33.7.54.77a.31.31,0,0,0,.13,0,.58.58,0,0,1,.47.25.68.68,0,0,0,.4.29,1.35,1.35,0,0,1,.5.15,5.33,5.33,0,0,1,.42.36,4.15,4.15,0,0,1,.31.31.75.75,0,0,1,.18.53c0,.32.06.5.21.53a1.64,1.64,0,0,0,.48-.05c.19,0,.34.13.45.38s.23.37.37.37a1.47,1.47,0,0,0,.46-.12.72.72,0,0,1,.49.26.73.73,0,0,0,.53.25,4.49,4.49,0,0,0,.54-.09.68.68,0,0,1,.49.2.64.64,0,0,0,.52.21h.13l-.31-.22a11.69,11.69,0,0,1-2.43-2.26,2.44,2.44,0,0,1-.44-.84c-.08-.25-.14-.5-.2-.74l0-.11a1,1,0,0,1-.72.4,2.3,2.3,0,0,1-.58-.07,3.5,3.5,0,0,1-1.09-.55,2,2,0,0,1-.89-1.55,2.6,2.6,0,0,1,.28-1.21,1.41,1.41,0,0,1,1.35-.77,1.89,1.89,0,0,1,.93.23c0-.13,0-.27-.06-.42s0-.45-.13-1.32q0-.14,0-.3l-.11,0a.78.78,0,0,1-.21,0l-.2-.14.2.14a.78.78,0,0,0,.21,0l.11,0a1,1,0,0,0,.18-.11l.25-.18a.75.75,0,0,1,.29,0l.26,0c.21,0,.32-.16.32-.48s0-.53,0-.57.17-.26.49-.25.47-.11.47-.4a2.06,2.06,0,0,1-.08-.4c0-.1,0-.16,0-.17h.18a.84.84,0,0,1,.31.07,1.07,1.07,0,0,0,.26.06,1,1,0,0,0,.63-.39c.23-.27.4-.41.52-.41s.18.09.3.25a.46.46,0,0,0,.4.25.55.55,0,0,0,.56-.45l.13-.46c.51-.09.79-.16.82-.23a2.21,2.21,0,0,1,0-.48c0-.08.07-.15.22-.21a.79.79,0,0,1,.34-.08c.08,0,.14,0,.19.15a.32.32,0,0,0,.31.14.49.49,0,0,0,.44-.31.52.52,0,0,1,.45-.3.3.3,0,0,1,.3.2.26.26,0,0,0,.25.2l.53-.13a.59.59,0,0,1,.65.49c.08.32.22.47.43.47s.54-.13.6-.39a.53.53,0,0,1,.58-.4.38.38,0,0,1,.34.15.33.33,0,0,0,.29.14.47.47,0,0,0,.49-.26.47.47,0,0,1,.48-.27.35.35,0,0,1,.27.14.35.35,0,0,0,.29.14c.06,0,.14-.06.25-.18a.48.48,0,0,1,.39-.18c.32,0,.47.15.44.46s.16.51.56.54.4.27.38.71.07.65.29.65l.48-.16a.43.43,0,0,1,.34.18.49.49,0,0,1,.14.33.52.52,0,0,1-.07.25.44.44,0,0,0-.07.17c0,.16.1.24.32.24s.31-.16.62-.46c.16,0,.24.12.24.37a1.35,1.35,0,0,1-.08.35c0,.17.1.24.3.22s.31.08.31.27a1.13,1.13,0,0,1-.06.36,1.48,1.48,0,0,0-.07.22c0,.13.09.24.28.32l.11,0,.32.14-.32-.14c0,.35-.06.67-.1,1s0,.41,0,.61A1.91,1.91,0,0,1,90,118a1.43,1.43,0,0,1,1.35.77,2.6,2.6,0,0,1,.28,1.21,2,2,0,0,1-.89,1.55,2.79,2.79,0,0,1-1.67.62.84.84,0,0,1-.64-.28,7.92,7.92,0,0,1-.2,1.12,2.39,2.39,0,0,1-.43.84,6.52,6.52,0,0,1-.68.78,13.28,13.28,0,0,1-1.46,1.28A.89.89,0,0,0,86,126a.46.46,0,0,0,.36-.21,2.22,2.22,0,0,1,.24-.29.7.7,0,0,1,.33-.12h.29a.61.61,0,0,0,.53-.28.56.56,0,0,1,.56-.22.6.6,0,0,0,.47-.27.73.73,0,0,1,.58-.3.45.45,0,0,1,.31.11.36.36,0,0,0,.28.11c.24,0,.35-.15.33-.44l-.06-.36c0-.13.08-.21.23-.24a.4.4,0,0,0,.33-.32.65.65,0,0,1,.11-.29.37.37,0,0,1,.32-.23c.27,0,.45-.19.56-.59a.69.69,0,0,1,.71-.6,1.16,1.16,0,0,1,.32.11.89.89,0,0,0,.3.1c.3,0,.47-.28.52-.84a.55.55,0,0,1,.19-.44.38.38,0,0,0,.18-.28,2.52,2.52,0,0,1-.08-.49,2.64,2.64,0,0,0,.08-.47.26.26,0,0,0-.17-.23q-.18-.12-.18-.24c0-.08.08-.17.24-.25a.81.81,0,0,1,.32-.13c.11,0,.2.08.28.23a.32.32,0,0,0,.3.22c.11,0,.17-.1.21-.29a1.77,1.77,0,0,1,.1-.38l.46-.37a.49.49,0,0,0,.21-.32.6.6,0,0,0-.13-.34.93.93,0,0,1-.14-.21.47.47,0,0,1,.17-.29l.21-.21a.87.87,0,0,0,0-.26c0-.11,0-.18,0-.21s.14-.32.43-.51.36-.76.19-1.68a2.42,2.42,0,0,1,0-.42.6.6,0,0,1,.28-.52.51.51,0,0,0,.27-.41.33.33,0,0,0-.2-.28.34.34,0,0,1-.21-.22.85.85,0,0,1-.66.3,6.28,6.28,0,0,0-.71-.11.74.74,0,0,0-.28.06c-.15,0-.22.14-.22.25a.7.7,0,0,0,.14.3A.83.83,0,0,1,95,113a.47.47,0,0,1-.24.45,1.2,1.2,0,0,0-.5.43,1.64,1.64,0,0,1-.06.78.5.5,0,0,1-.48.34.65.65,0,0,1-.6-.44c-.13-.31-.29-.46-.47-.46a.53.53,0,0,0-.31.06c-.07,0-.11.15-.11.33a.47.47,0,0,0,.25.43.48.48,0,0,1,.25.45,1.05,1.05,0,0,1-.06.43c-.39,0-.59.15-.61.52s-.17.56-.48.56a1.17,1.17,0,0,1-.88-.47,1.28,1.28,0,0,1-.35-.78,1,1,0,0,0-.54-.75c-.35-.22-.53-.36-.53-.42a1,1,0,0,1,.06-.25.81.81,0,0,0,0-.25c0-.28-.2-.41-.61-.39s-.62-.06-.62-.23a.42.42,0,0,1,.22-.34.44.44,0,0,0,.22-.32q0-.27-.3-.3a.49.49,0,0,1-.44-.43c-.08-.36-.13-.56-.15-.63a.56.56,0,0,0-.53-.33c-.09,0-.19.08-.3.23a.48.48,0,0,1-.41.23.55.55,0,0,1-.38-.09l-.06-.08c-.18-.33-.38-.5-.63-.5-.49.07-.78.11-.87.11-.27,0-.37-.23-.31-.68s0-.68-.22-.68a1.1,1.1,0,0,0-.49.22q-.33.22-.33.36a.81.81,0,0,0,.06.24.91.91,0,0,1,0,.22.48.48,0,0,1-.11.32.56.56,0,0,1-.43.17c-.1,0-.19-.11-.25-.31a.42.42,0,0,0-.43-.32c-.21,0-.35.13-.45.38a.52.52,0,0,1-.51.36c-.16,0-.25-.16-.26-.47a.47.47,0,0,0-.51-.49,1.32,1.32,0,0,0-.72.3,1.27,1.27,0,0,1-.74.31,1.74,1.74,0,0,1-.68-.17,1.62,1.62,0,0,0-.65-.16,2.19,2.19,0,0,0-1,.16A3.29,3.29,0,0,0,76,111a.82.82,0,0,1-.49.25c-.24,0-.43.19-.56.57a.76.76,0,0,1-.73.57.48.48,0,0,1-.43-.27Q73.66,111.85,73.44,111.85Z"/><path class="cls-46" d="M91.6,116.91a1.21,1.21,0,0,1-.94-.5,1.3,1.3,0,0,1-.37-.83.91.91,0,0,0-.51-.68c-.52-.33-.56-.42-.56-.49a1.11,1.11,0,0,1,.06-.27,1.31,1.31,0,0,0,0-.23c0-.13,0-.31-.45-.31h-.19c-.4,0-.6-.11-.6-.32a.52.52,0,0,1,.26-.41c.12-.09.19-.17.19-.25s-.07-.21-.23-.22a.57.57,0,0,1-.51-.5c-.08-.34-.13-.55-.15-.62a.47.47,0,0,0-.45-.27s-.11,0-.23.2a.56.56,0,0,1-.48.26h-.07a.78.78,0,0,1-.35-.1h0v0a.35.35,0,0,1-.06-.09c-.16-.3-.35-.46-.56-.46a7.21,7.21,0,0,1-.87.11.36.36,0,0,1-.29-.12.82.82,0,0,1-.1-.65c0-.38,0-.51,0-.55a.1.1,0,0,0-.09,0,1,1,0,0,0-.44.21c-.28.19-.3.28-.3.29a1,1,0,0,0,0,.21.59.59,0,0,1,.06.25.55.55,0,0,1-.13.38.66.66,0,0,1-.49.19q-.21,0-.33-.36a.34.34,0,0,0-.35-.27c-.17,0-.29.11-.37.33a.61.61,0,0,1-.59.41c-.21,0-.33-.18-.35-.55a.38.38,0,0,0-.42-.41,1.24,1.24,0,0,0-.67.29,1.33,1.33,0,0,1-.79.32,1.87,1.87,0,0,1-.71-.17,1.53,1.53,0,0,0-.62-.16,2,2,0,0,0-.95.16,2.69,2.69,0,0,0-.52.42,1,1,0,0,1-.54.27c-.21,0-.37.17-.5.51a.83.83,0,0,1-.8.63.56.56,0,0,1-.5-.32c-.1-.17-.2-.25-.32-.25-.31,0-.48.17-.53.55s-.24.7-.52.7A.39.39,0,0,1,72,113a.23.23,0,0,0-.23-.16.39.39,0,0,0-.28.17.54.54,0,0,1-.43.23h-.53a.19.19,0,0,0-.18.21v.47c-.06.41-.28.49-.45.49a.6.6,0,0,1-.23-.06l-.16,0c-.07,0-.28,0-.35.5s-.33.62-.53.62-.33-.06-1-.6L67,114.2l-.06,0a.69.69,0,0,0-.07.46.59.59,0,0,1-.14.47.62.62,0,0,1-.48.17c-.47,0-.8-.44-1-1.3q-.08-.32-.63-.51c-.42-.16-.62-.34-.62-.57a4.37,4.37,0,0,0,.11-.65c0-.31-.15-.38-.26-.41s-.39-.32-.42-.82c0-.27-.16-.31-.27-.33h-.09l-.57,0-.2,0a1,1,0,0,1-.51-.12l-.05,0v-.06a1.53,1.53,0,0,1,.23-.44,1.06,1.06,0,0,0,.18-.35,1,1,0,0,0-.06-.27,1.82,1.82,0,0,1-.07-.36c0-.06,0-.13.13-.25a.45.45,0,0,0,.08-.26,4.43,4.43,0,0,1-.08-.57.45.45,0,0,1,.22-.42.25.25,0,0,0,.12-.21.69.69,0,0,0-.11-.29.77.77,0,0,1-.15-.46c0-.11.06-.25.35-.29s.28-.08.32-.19a2.7,2.7,0,0,1,.16-.41.44.44,0,0,1,.39-.25.31.31,0,0,0,.32-.17c0-.17.07-.3.09-.37h0v0l.42-.45a.58.58,0,0,0,.18-.37s0-.1-.16-.3a.68.68,0,0,1-.21-.39.66.66,0,0,1,.37-.58c.2-.11.29-.23.29-.35a2.84,2.84,0,0,1,.05-.74c0-.09.13-.17.32-.23l.29-.12a1,1,0,0,0,.17-.42,1,1,0,0,1,.35-.59c.1-.06.16-.22.17-.47s.12-.38.59-.38a.69.69,0,0,1,.41.15.6.6,0,0,0,.36.14h0c.07,0,.1,0,.11-.09s.08-.26.14-.41a1,1,0,0,1,.22-.33.67.67,0,0,1,.41-.11c.26,0,.32,0,.32,0l.22-.49c.16-.34.33-.51.55-.52a.53.53,0,0,0,.48-.25,1.07,1.07,0,0,1,.52-.5s.16-.1.34-.46a.73.73,0,0,1,.66-.42c.11,0,.24.08.41.25s.24.2.25.2a2.33,2.33,0,0,0,.38-.12h0a.33.33,0,0,1,.32.21c0,.1.11.12.15.12.22,0,.37-.16.46-.47s.31-.61.58-.62c.06,0,.24,0,.33-.37,0-.21.21-.46.72-.46a.92.92,0,0,1,.46.13.67.67,0,0,0,.33.12.83.83,0,0,0,.36-.13,1,1,0,0,1,.39-.16c.08,0,.18.06.31.2a.44.44,0,0,0,.27.14.9.9,0,0,0,.3-.1,1.21,1.21,0,0,1,.44-.12.63.63,0,0,1,.32.08.45.45,0,0,0,.18,0,.64.64,0,0,0,.39-.15.7.7,0,0,1,.43-.19c.07,0,.19,0,.53.25l.11.09a.89.89,0,0,0,.46.13,1.21,1.21,0,0,0,.57-.17,1.39,1.39,0,0,1,.54-.2s.06,0,.37.15a1.08,1.08,0,0,0,.37.11.49.49,0,0,0,.33-.15.48.48,0,0,1,.36-.22.43.43,0,0,1,.33.15.23.23,0,0,0,.14.08.47.47,0,0,0,.41-.25.62.62,0,0,1,.58-.33.6.6,0,0,1,.42.15,2.13,2.13,0,0,0,.37.29l.5.09c.34.06.41.25.41.4a.85.85,0,0,1-.06.2.52.52,0,0,0,0,.22s0,.09.1.14a.4.4,0,0,0,.19.07l.33-.14h0c.16,0,.26.2.31.34a.35.35,0,0,0,.36.24,4,4,0,0,0,.45-.09h0a.59.59,0,0,1,.63.58c0,.23.18.33.45.33h.25c.19,0,.42.1.44.56s.23.46.39.46a.69.69,0,0,0,.2,0,.68.68,0,0,1,.23,0c.2,0,.35.16.46.47a2.35,2.35,0,0,1,.11.49.4.4,0,0,0,.18.09c.15,0,.24.1.25.2a2.56,2.56,0,0,1,0,.66c0,.16,0,.19,0,.19h0l.36-.05a3.6,3.6,0,0,1,.69-.16.37.37,0,0,1,.4.4c0,.18.11.26.32.27s.39.1.46.49.14.54.16.55a.93.93,0,0,0,.23.11.69.69,0,0,1,.35.32,1.47,1.47,0,0,1,0,.65s0,.13,0,.15l.28.19s0,.06.11.3a1.48,1.48,0,0,1,.08.3.8.8,0,0,1,0,.23,1,1,0,0,0,0,.2c0,.07,0,.29.49.38s.61.35.58.57,0,.46.19.55a.52.52,0,0,1,.33.47s0,.07-.32.64c0,0,0,.09.19.2a.63.63,0,0,1,.27.44.53.53,0,0,1-.06.34.56.56,0,0,0,0,.23.39.39,0,0,0,.19.27c.16.1.23.2.23.3a1,1,0,0,1-.15.38.87.87,0,0,0-.14.33.27.27,0,0,0,.14.26.43.43,0,0,1,.21.38.67.67,0,0,1-.16.37.52.52,0,0,0-.13.34.49.49,0,0,0,.1.26.79.79,0,0,1,.1.3.45.45,0,0,1-.13.25.27.27,0,0,0-.1.19v.09l0,0a1,1,0,0,1-.73.34,4.83,4.83,0,0,0-.71-.12.61.61,0,0,0-.25.06c-.15,0-.17.12-.17.17a.74.74,0,0,0,.13.26.8.8,0,0,1,.15.36.55.55,0,0,1-.28.52,1.08,1.08,0,0,0-.45.38,1.75,1.75,0,0,1-.07.78.6.6,0,0,1-.56.41.74.74,0,0,1-.68-.5c-.11-.27-.25-.41-.39-.41s-.25,0-.26,0-.08.08-.08.27a.4.4,0,0,0,.21.36.56.56,0,0,1,.29.52,1.2,1.2,0,0,1-.06.46l0,0h-.1a.41.41,0,0,0-.47.45C92.15,116.8,91.85,116.91,91.6,116.91Z"/></g><path id="Layer0_17_1_STROKES" data-name="Layer0 17 1 STROKES" class="cls-13" d="M61.88,110.61a1.1,1.1,0,0,1,.21-.41,1.2,1.2,0,0,0,.19-.4,1.13,1.13,0,0,0-.06-.29,1.43,1.43,0,0,1-.06-.34s0-.1.11-.19a.59.59,0,0,0,.09-.32c0-.31-.08-.5-.08-.57a.38.38,0,0,1,.18-.35.33.33,0,0,0,.17-.28.67.67,0,0,0-.13-.33.73.73,0,0,1-.14-.42c0-.11.1-.18.28-.21s.34-.1.39-.23a4,4,0,0,1,.15-.41.35.35,0,0,1,.32-.21.39.39,0,0,0,.39-.22c0-.18.08-.31.1-.37.19-.22.33-.36.42-.45a.69.69,0,0,0,.21-.43.7.7,0,0,0-.19-.35.65.65,0,0,1-.19-.34.57.57,0,0,1,.33-.5c.23-.13.34-.28.34-.43a3.32,3.32,0,0,1,0-.71c0-.07.11-.13.26-.18a1.57,1.57,0,0,0,.32-.14.94.94,0,0,0,.2-.46.94.94,0,0,1,.32-.54.66.66,0,0,0,.21-.53c0-.21.17-.31.5-.31a.61.61,0,0,1,.36.14.74.74,0,0,0,.4.16c.14,0,.23,0,.26-.16a3.24,3.24,0,0,1,.14-.4.8.8,0,0,1,.18-.29.63.63,0,0,1,.37-.1,1,1,0,0,0,.36-.06,3.28,3.28,0,0,0,.25-.53c.14-.3.29-.46.47-.47a.63.63,0,0,0,.56-.29,1,1,0,0,1,.47-.46c.11,0,.24-.2.39-.5a.63.63,0,0,1,.58-.37c.09,0,.2.07.35.22s.26.22.31.22l.41-.12a.26.26,0,0,1,.24.16.23.23,0,0,0,.22.17c.26,0,.44-.18.54-.53s.27-.55.5-.56.34-.15.41-.43.27-.4.64-.4a.76.76,0,0,1,.41.13.86.86,0,0,0,.38.12,1,1,0,0,0,.4-.14,1.18,1.18,0,0,1,.35-.15c.05,0,.14.06.25.18a.53.53,0,0,0,.33.17,1.46,1.46,0,0,0,.34-.11,1.06,1.06,0,0,1,.4-.12.61.61,0,0,1,.28.07.49.49,0,0,0,.22.06.72.72,0,0,0,.44-.17.64.64,0,0,1,.38-.16,1.32,1.32,0,0,1,.49.24l.11.08a.94.94,0,0,0,.5.15,1.38,1.38,0,0,0,.61-.18,1.28,1.28,0,0,1,.5-.2,1.8,1.8,0,0,1,.33.14,1.07,1.07,0,0,0,.41.13.54.54,0,0,0,.39-.18c.11-.13.21-.2.3-.2a.35.35,0,0,1,.27.13.31.31,0,0,0,.2.11.55.55,0,0,0,.48-.29.54.54,0,0,1,.51-.3.53.53,0,0,1,.36.13,2.44,2.44,0,0,0,.39.31l.53.09c.22,0,.33.15.33.32a.5.5,0,0,1,0,.17.69.69,0,0,0-.06.25.29.29,0,0,0,.14.21.46.46,0,0,0,.24.08l.36-.14c.08,0,.16.1.24.29a.41.41,0,0,0,.43.3l.47-.1a.52.52,0,0,1,.54.51c0,.32.28.45.71.39.27,0,.41.12.43.47s.17.55.47.55a.93.93,0,0,0,.23,0,.53.53,0,0,1,.2,0c.16,0,.29.14.38.42a3,3,0,0,1,.11.47c0,.07.11.12.24.16s.18.07.19.13a2.53,2.53,0,0,1,0,.64.4.4,0,0,0,.07.27s.2,0,.49,0a3.22,3.22,0,0,1,.67-.15c.2,0,.31.1.32.32a.35.35,0,0,0,.4.34c.2,0,.33.15.38.42a1.48,1.48,0,0,0,.18.6,1.06,1.06,0,0,0,.26.13.66.66,0,0,1,.31.27,1.45,1.45,0,0,1,0,.61c0,.12,0,.19,0,.23l.27.18a.81.81,0,0,1,.09.26,1.43,1.43,0,0,1,.07.28.63.63,0,0,1,0,.21.64.64,0,0,0,0,.22c0,.24.19.39.56.46s.54.22.51.49a.61.61,0,0,0,.22.62.46.46,0,0,1,.3.4,5.54,5.54,0,0,1-.32.63c0,.06.07.16.22.28a.51.51,0,0,1,.23.38.43.43,0,0,1,0,.28.6.6,0,0,0,0,.29.44.44,0,0,0,.21.33c.13.08.2.16.2.23a1.21,1.21,0,0,1-.14.34.92.92,0,0,0-.15.37.38.38,0,0,0,.18.34.33.33,0,0,1,.16.3.56.56,0,0,1-.14.32.6.6,0,0,0-.15.39.77.77,0,0,0,.11.31.7.7,0,0,1,.1.25.38.38,0,0,1-.11.19.38.38,0,0,0-.13.25s0,0,0,.06a.33.33,0,0,0,.2.22.33.33,0,0,1,.2.28.51.51,0,0,1-.27.41.6.6,0,0,0-.28.52,2.42,2.42,0,0,0,0,.42c.17.92.1,1.48-.19,1.68s-.43.36-.43.51,0,.1,0,.21a.87.87,0,0,1,0,.26l-.21.21a.47.47,0,0,0-.17.29.93.93,0,0,0,.14.21.6.6,0,0,1,.13.34.49.49,0,0,1-.21.32l-.46.37a1.77,1.77,0,0,0-.1.38c0,.19-.1.29-.21.29a.32.32,0,0,1-.3-.22c-.08-.15-.17-.23-.28-.23a.81.81,0,0,0-.32.13c-.16.08-.24.17-.24.25s.06.16.18.24a.26.26,0,0,1,.17.23,2.64,2.64,0,0,1-.08.47,2.52,2.52,0,0,0,.08.49.38.38,0,0,1-.18.28.55.55,0,0,0-.19.44c0,.56-.22.84-.52.84a.89.89,0,0,1-.3-.1,1.16,1.16,0,0,0-.32-.11.69.69,0,0,0-.71.6c-.11.4-.29.59-.56.59a.37.37,0,0,0-.32.23.65.65,0,0,0-.11.29.4.4,0,0,1-.33.32c-.15,0-.23.11-.23.24l.06.36c0,.29-.09.44-.33.44a.36.36,0,0,1-.28-.11.45.45,0,0,0-.31-.11.73.73,0,0,0-.58.3.6.6,0,0,1-.47.27.56.56,0,0,0-.56.22.61.61,0,0,1-.53.28h-.29a.7.7,0,0,0-.33.12,2.22,2.22,0,0,0-.24.29A.46.46,0,0,1,86,126a.89.89,0,0,1-.38-.14l-.3.24a23.72,23.72,0,0,1-4,2.49,2.94,2.94,0,0,1-2.9,0,23.25,23.25,0,0,1-3.88-2.28h-.13a.64.64,0,0,1-.52-.21.68.68,0,0,0-.49-.2,4.49,4.49,0,0,1-.54.09.73.73,0,0,1-.53-.25.72.72,0,0,0-.49-.26,1.47,1.47,0,0,1-.46.12c-.14,0-.26-.12-.37-.37s-.26-.38-.45-.38a1.64,1.64,0,0,1-.48.05c-.15,0-.22-.21-.21-.53a.75.75,0,0,0-.18-.53,4.15,4.15,0,0,0-.31-.31,5.33,5.33,0,0,0-.42-.36,1.35,1.35,0,0,0-.5-.15.68.68,0,0,1-.4-.29.58.58,0,0,0-.47-.25l-.13,0q-.32-.11-.54-.78a.37.37,0,0,0-.43-.27c-.18,0-.27-.08-.25-.3a.5.5,0,0,0-.26-.48c-.22-.13-.32-.22-.32-.28v-.61a.41.41,0,0,0-.43-.38q-.61.15-.78-.12l-.21-.39a.86.86,0,0,0-.29-.36.45.45,0,0,1-.2-.31,3.56,3.56,0,0,0,0-.37c0-.09-.1-.2-.28-.34s-.26-.23-.26-.28.09-.17.29-.34a.74.74,0,0,0,.29-.49.4.4,0,0,0-.31-.4c-.21-.08-.32-.16-.32-.27a1.9,1.9,0,0,0,.09-.43.43.43,0,0,0-.22-.35c-.16-.08-.24-.17-.24-.26a.85.85,0,0,1,.12-.29A.81.81,0,0,0,63,114c0-.12-.13-.26-.39-.44a.78.78,0,0,1-.42-.58,1.12,1.12,0,0,1,0-.48l.15-.43a.92.92,0,0,0-.19-.73,1.5,1.5,0,0,1-.3-.7Zm8.27,5.93a1,1,0,0,0,.18-.11l.25-.18a.75.75,0,0,1,.29,0l.26,0c.21,0,.32-.16.32-.48s0-.53,0-.57.17-.26.49-.25.47-.11.47-.4a2.06,2.06,0,0,1-.08-.4c0-.1,0-.16,0-.17h.18a.84.84,0,0,1,.31.07,1.07,1.07,0,0,0,.26.06,1,1,0,0,0,.63-.39c.23-.27.4-.41.52-.41s.18.09.3.25a.46.46,0,0,0,.4.25.55.55,0,0,0,.56-.45l.13-.46c.51-.09.79-.16.82-.23a2.21,2.21,0,0,1,0-.48c0-.08.07-.15.22-.21a.79.79,0,0,1,.34-.08c.08,0,.14,0,.19.15a.32.32,0,0,0,.31.14.49.49,0,0,0,.44-.31.52.52,0,0,1,.45-.3.3.3,0,0,1,.3.2.26.26,0,0,0,.25.2l.53-.13a.59.59,0,0,1,.65.49c.08.32.22.47.43.47s.54-.13.6-.39a.53.53,0,0,1,.58-.4.38.38,0,0,1,.34.15.33.33,0,0,0,.29.14.47.47,0,0,0,.49-.26.47.47,0,0,1,.48-.27.35.35,0,0,1,.27.14.35.35,0,0,0,.29.14c.06,0,.14-.06.25-.18a.48.48,0,0,1,.39-.18c.32,0,.47.15.44.46s.16.51.56.54.4.27.38.71.07.65.29.65l.48-.16a.43.43,0,0,1,.34.18.49.49,0,0,1,.14.33.52.52,0,0,1-.07.25.44.44,0,0,0-.07.17c0,.16.1.24.32.24s.31-.16.62-.46c.16,0,.24.12.24.37a1.35,1.35,0,0,1-.08.35c0,.17.1.24.3.22s.31.08.31.27a1.13,1.13,0,0,1-.06.36,1.48,1.48,0,0,0-.07.22c0,.13.09.24.28.32l.11,0,.32.13m-.32-.13c0,.34-.06.66-.09,1m-18.7-1.21q0,.17,0,.3c.09.87.13,1.31.13,1.32s0,.29.07.43.07.48.12.73.07.42.11.62q.21,1.08.48,2.16l0,.11c.06.24.12.49.2.74a2.44,2.44,0,0,0,.44.84,11.69,11.69,0,0,0,2.43,2.26l.31.22m-4.87-9.86.2.14a.78.78,0,0,0,.21,0l.11,0m.23,2a2,2,0,0,0-.94-.24,1.41,1.41,0,0,0-1.35.77,2.6,2.6,0,0,0-.28,1.21,2,2,0,0,0,.89,1.55,3.5,3.5,0,0,0,1.09.55,2.3,2.3,0,0,0,.58.07,1,1,0,0,0,.72-.4m-.48-2.16a1.82,1.82,0,0,0-.52-.08h-.16c0,.24,0,.44,0,.62l0,.26m0-.88a.67.67,0,0,0-.67.44,1.78,1.78,0,0,0,0,.73m19.44-1.43a1.59,1.59,0,0,1,.66-.14h.16a.68.68,0,0,1,.67.44,1.78,1.78,0,0,1,0,.73m-1.4-2.29A1.91,1.91,0,0,1,90,118a1.43,1.43,0,0,1,1.35.77,2.6,2.6,0,0,1,.28,1.21,2,2,0,0,1-.89,1.55,2.79,2.79,0,0,1-1.67.62.84.84,0,0,1-.64-.28,7.92,7.92,0,0,1-.2,1.12,2.39,2.39,0,0,1-.43.84,6.52,6.52,0,0,1-.68.78,13.28,13.28,0,0,1-1.46,1.28m3.22-8.1-.06.61c-.05.45-.09.87-.13,1.25-.09.89-.18,1.61-.25,2.16a.13.13,0,0,0,0,.06m1.08-2.35c0,.24,0,.44,0,.62l0,.26"/><path class="cls-16" d="M75.57,116.36a3.38,3.38,0,0,0-.86-.09,1.36,1.36,0,0,0-.86.19c-.23.12-.3.21-.23.26s.17,0,.31,0a1.34,1.34,0,0,1,.72-.08,1.27,1.27,0,0,1,.72.22.51.51,0,0,0,.32.15.25.25,0,0,0,.24-.29.42.42,0,0,0-.36-.33m9.74-.09a3.38,3.38,0,0,0-.86.09.42.42,0,0,0-.36.33.25.25,0,0,0,.24.29.51.51,0,0,0,.32-.15,1.27,1.27,0,0,1,.72-.22,1.34,1.34,0,0,1,.72.08c.14.07.24.08.31,0s0-.14-.23-.26a1.35,1.35,0,0,0-.86-.19"/><path id="Layer0_17_MEMBER_0_1_STROKES" data-name="Layer0 17 MEMBER 0 1 STROKES" class="cls-13" d="M79.5,120.42a1.72,1.72,0,0,1-.26,1,1.76,1.76,0,0,0-.29.66c0,.23.19.4.57.52a2.26,2.26,0,0,0,.83.16"/><g id="Layer0_17_MEMBER_1_FILL" data-name="Layer0 17 MEMBER 1 FILL"><path class="cls-47" d="M94.61,107.61c.26,0,.39-.13.39-.41s-.12-.45-.37-.46-.38.15-.38.46.12.41.36.41m-.29-1c.29,0,.43-.13.43-.39s-.19-.37-.58-.48-.59,0-.59.37a.43.43,0,0,0,.13.28.79.79,0,0,0,.61.22m-29.87,2a.37.37,0,0,0,.14-.28c0-.26-.15-.42-.45-.49s-.46.09-.46.43a.4.4,0,0,0,.45.45.52.52,0,0,0,.32-.11m.69-.86a.45.45,0,0,0,.09-.24.5.5,0,0,0-.45-.54c-.3-.07-.46.08-.46.43l.06.28a.44.44,0,0,0,.44.25.35.35,0,0,0,.32-.18m1.09-3.63.07.28a.46.46,0,0,0,.44.27.35.35,0,0,0,.32-.16.4.4,0,0,0,.09-.24.52.52,0,0,0-.46-.58c-.31-.07-.46.08-.46.43m2.07-2a.41.41,0,0,0,.11-.28c0-.26-.14-.39-.42-.41s-.43.1-.43.4c0,0,0,.08.06.22a.37.37,0,0,0,.36.21.42.42,0,0,0,.32-.14m22-.44c.27,0,.4-.18.4-.53s-.13-.57-.39-.57-.4.19-.4.57a.94.94,0,0,0,0,.28.34.34,0,0,0,.36.25M88.76,99.9s0,.09,0,.24a.41.41,0,0,0,.42.22q.66,0,.66-.6a.59.59,0,0,0-.55-.62c-.37-.09-.56.17-.56.76M84.6,97.38q.39,0,.39-.54t-.39-.51c-.26,0-.4.18-.4.54s.14.51.4.51m-1.08-.25c.27,0,.4-.17.4-.51s-.13-.52-.39-.51-.4.18-.4.52t0,.27a.33.33,0,0,0,.36.23m-1-.08a.51.51,0,0,0,.17-.36c0-.43-.27-.6-.82-.52s-.82.27-.82.56a1.77,1.77,0,0,0,0,.21.41.41,0,0,0,.4.19,2.54,2.54,0,0,1,.56.12.6.6,0,0,0,.47-.2m-8.61,1.2c.33,0,.5-.14.5-.41s-.17-.38-.5-.43-.51.09-.51.42.17.42.51.42m-1,.43c.26,0,.39-.16.39-.49s-.13-.49-.39-.49-.4.17-.4.49c0,0,0,.09,0,.25a.37.37,0,0,0,.38.24m-.51-.25c-.18-.58-.37-.86-.56-.86a.68.68,0,0,0-.65.34.82.82,0,0,0-.12.43.51.51,0,0,0,.09.34.78.78,0,0,0,.57.15,1.17,1.17,0,0,0,.5-.07A.35.35,0,0,0,72.46,98.43Z"/></g><path id="Layer0_5_1_STROKES-2" data-name="Layer0 5 1 STROKES" class="cls-48" d="M143.59,101.51a18.94,18.94,0,0,1-32.33,13.39,18.94,18.94,0,0,1,26.79-26.79A18.25,18.25,0,0,1,143.59,101.51Z"/><g class="cls-49"><g id="Layer0_6_FILL" data-name="Layer0 6 FILL"><path class="cls-50" d="M128.32,115.76c-.45.43-.87.81-1.27,1.14,1.45-.1,3.45-.36,6-.78l-.18-.36a2.38,2.38,0,0,0-.94-1.2c-.3-.13-.92-.34-1.85-.65a24.28,24.28,0,0,1-1.78,1.85m-11.16,0c-.11.21-.2.42-.3.63,1.06.15,2.39.28,4,.39l2.17.14c-.4-.35-.83-.73-1.28-1.16a20.93,20.93,0,0,1-1.78-1.85c-.94.31-1.55.53-1.85.66A2.35,2.35,0,0,0,117.16,115.73Z"/><path class="cls-51" d="M114.46,121l.06-.12c.67-1.3,1.44-2.83,2.27-4.53l0,0h.06c1.05.15,2.38.28,4,.39.77.06,1.5.1,2.16.14h0l0,0a12.09,12.09,0,0,0,2,1.38,12.35,12.35,0,0,0,2-1.36l0,0h0c1.43-.11,3.45-.37,6-.78h.06l0,0c.86,1.79,1.66,3.39,2.37,4.77l.07.12Z"/><path class="cls-28" d="M122.9,113.12l-2.07.54c-.55.13-.84.2-.88.22a20.93,20.93,0,0,0,1.78,1.85c.45.43.88.81,1.28,1.16a12.72,12.72,0,0,0,2,1.4,11.66,11.66,0,0,0,2-1.39c.4-.33.82-.71,1.27-1.14a24.28,24.28,0,0,0,1.78-1.85l-.77-.25a16.81,16.81,0,0,0-2.18-.51c0,.53,0,.93,0,1.18,0-.25,0-.65,0-1.18s0-.93,0-1.52c0-.81,0-1.51.06-2.08H122.9v3.57m1.39,4.06c-.05-.21.19-.29.72-.27s.79.09.81.21a.77.77,0,0,1-.18.43.59.59,0,0,1-.44.29.93.93,0,0,1-.66-.18A.8.8,0,0,1,124.29,117.18Z"/><path class="cls-29" d="M125,116.83c-.62,0-.9.07-.85.31a1,1,0,0,0,.3.57,1.1,1.1,0,0,0,.78.22c.16,0,.33-.12.51-.35a.77.77,0,0,0,.21-.5C125.93,116.94,125.61,116.85,125,116.83Z"/></g><path id="Layer0_6_1_STROKES" data-name="Layer0 6 1 STROKES" class="cls-13" d="M120,113.88c-.94.31-1.55.53-1.85.66a2.35,2.35,0,0,0-.94,1.19c-.11.21-.2.42-.3.63m6.15.53c-.4-.35-.83-.73-1.28-1.16a20.93,20.93,0,0,1-1.78-1.85s.33-.09.88-.22l2.07-.54v-3.57h4.35c0,.57,0,1.27-.06,2.08,0,.59,0,1.1,0,1.52a16.81,16.81,0,0,1,2.18.51l.77.25c.93.31,1.55.52,1.85.65a2.38,2.38,0,0,1,.94,1.2l.18.36c.87,1.8,1.67,3.39,2.38,4.77H114.6c.67-1.32,1.43-2.83,2.26-4.53m6-3.24v.68m4.15,3.1c.4-.33.82-.71,1.27-1.14a24.28,24.28,0,0,0,1.78-1.85m-2.95-.76c0,.53,0,.93,0,1.18m4.85,3.11a8.35,8.35,0,0,0,.36.93,4.06,4.06,0,0,1,.32,1.41s0,.24-.11.71a4,4,0,0,1-.09.4m-14.17-3.39a5.52,5.52,0,0,0-.37,1.28,5.73,5.73,0,0,0-.13,1.07c0,.07,0,.26.06.55a3.32,3.32,0,0,0,.08.49m5.09-4a12.72,12.72,0,0,0,2,1.4,11.66,11.66,0,0,0,2-1.39"/></g><g id="Layer0_18_FILL" data-name="Layer0 18 FILL"><path class="cls-30" d="M123.13,96c.11-.31.22-.61.32-.92a9.22,9.22,0,0,0,.32-1.25c-1.1.8-2,1.41-2.58,1.82a39.82,39.82,0,0,1-5.63,3.1,3.92,3.92,0,0,1-1.16-.52,4.94,4.94,0,0,1-1.11-.83l-.15-1.25c-.13-1.15-.2-2-.2-2.52,0-.32,0-.6,0-.85a6.17,6.17,0,0,0-.88,1.74,28.45,28.45,0,0,0-.72,3.39,22.78,22.78,0,0,0-.07,3.76,22.48,22.48,0,0,0,1.81,6.68,12,12,0,0,0,3.21,4.92,7.07,7.07,0,0,0,1.74,1.12,26.37,26.37,0,0,1-.55-2.7c0-.16,0-.31,0-.45a14.08,14.08,0,0,1-.17-2,14.08,14.08,0,0,0,.17,2c0,.14,0,.29,0,.45l.18-.45.48-1.22.29-.79-.07-.06a9,9,0,0,1-1.52-1.57,2.42,2.42,0,0,1-.44-.86q-.11-.56-.21-1.08l-.29.16a1.24,1.24,0,0,1-.39,0,2.7,2.7,0,0,1-1.61-.62,2.43,2.43,0,0,1-1-1.38,2.33,2.33,0,0,1-.06-.53,1.77,1.77,0,0,1,.37-1.23,1.32,1.32,0,0,1,1-.39,2.54,2.54,0,0,1,1,.21,1.49,1.49,0,0,1,.3.18v0q-.07-.5-.15-.93c0-.24-.08-.47-.11-.69a7.25,7.25,0,0,1-1.45.4,7.25,7.25,0,0,0,1.45-.4,15.43,15.43,0,0,0,2.43-1.23c.43-.25.87-.54,1.33-.86a14.89,14.89,0,0,0,3.49-2.94,14.89,14.89,0,0,1-3.49,2.94c-.46.32-.9.61-1.33.86l.1,0a10.63,10.63,0,0,0,2.11-.45,19.87,19.87,0,0,0,3-1A20.44,20.44,0,0,0,125,96.65l1.11-.68.51-1.24L126.15,96c-.1.22-.2.48-.32.76a12.86,12.86,0,0,1-1,1.75A11.44,11.44,0,0,0,127.47,97a15.47,15.47,0,0,0,2-1.6,4.42,4.42,0,0,0,.57-.62,4.42,4.42,0,0,1-.57.62,7.5,7.5,0,0,0,1.95,3.27,8.74,8.74,0,0,0,2.54,2,5.53,5.53,0,0,0,1,.34,5.53,5.53,0,0,1-1-.34c0,.2,0,.4,0,.59,0,.36,0,.7-.07,1a1.64,1.64,0,0,1,.46-.29,2.53,2.53,0,0,1,1-.21c.93,0,1.39.54,1.39,1.62a2.31,2.31,0,0,1-1,1.91,2.73,2.73,0,0,1-1.61.62,1.24,1.24,0,0,1-.39,0,.5.5,0,0,1-.14-.08,6.93,6.93,0,0,1-.18,1,2.76,2.76,0,0,1-.43.86,7.6,7.6,0,0,1-.56.66l-.1.12c.27.35.64.9,1.12,1.65,0-.52,0-1.13,0-1.8,0,.67,0,1.28,0,1.8s-.06,1.19-.07,1.62c-.06.75-.14,1.5-.24,2.26a18,18,0,0,0,3.73-6.45,23.25,23.25,0,0,0,1.45-6.56,19.31,19.31,0,0,0-.34-4.5,6.36,6.36,0,0,1-1.6,2.12l-.13,0a4.29,4.29,0,0,1-1.26.29l-.38,0c-.31-.24-.68-.55-1.09-.91A15.26,15.26,0,0,1,131,95.45V93.27l-.71.43c-.85.51-1.82,1-2.9,1.58,0-.33.06-.91.07-1.75l-.66.41C125.52,94.74,124.28,95.44,123.13,96Z"/><path class="cls-31" d="M134.88,99h-.41l0,0c-.31-.25-.68-.55-1.1-.92A15.84,15.84,0,0,1,131,95.5V93.42l-.58.35c-.85.51-1.83,1-2.91,1.59l-.14.07,0-.16q0-.47.06-1.59l-.52.33c-1.32.8-2.57,1.51-3.72,2.1l-.19.1.07-.2c.11-.3.22-.61.32-.92a8.6,8.6,0,0,0,.28-1c-1,.74-1.83,1.31-2.42,1.7a38.39,38.39,0,0,1-5.64,3.1h0a3.84,3.84,0,0,1-1.19-.53,5.11,5.11,0,0,1-1.13-.84l0,0v0c0-.33-.1-.75-.15-1.25-.13-1.15-.2-2-.2-2.53,0-.32,0-.6,0-.85v0a25.18,25.18,0,0,1,3.78-4c1.93-1.73,4.76-2.61,8.41-2.61l1.35,0q1,0,2.07.18h0l.64.35,1,.6A3.78,3.78,0,0,1,130,87a9.28,9.28,0,0,0-.7-1.37l-.12-.2.22.08a7,7,0,0,1,2.33,1.7h0v0c.12.29.25.65.37,1l.15.6a5,5,0,0,1,.75.33,6.93,6.93,0,0,1,1.4.84,13.39,13.39,0,0,1,1.12.87c.3.44.56.87.8,1.3a13.85,13.85,0,0,1,1.41,3.42c.06.27.13.54.18.81v.06a6.51,6.51,0,0,1-1.62,2.15h0l-.14,0A4.51,4.51,0,0,1,134.88,99Z"/><path class="cls-29" d="M115.57,102.12v0c.06.33.13.68.2,1l.12.7c.1.56.21,1.17.32,1.81q.11.52.21,1.08a2.42,2.42,0,0,0,.44.86,9,9,0,0,0,1.52,1.57l.07.06c.26.22.54.45.85.68a24.09,24.09,0,0,0,4.18,2.56,2.91,2.91,0,0,0,2.91,0,23.71,23.71,0,0,0,4-2.54,19.15,19.15,0,0,0,1.77-1.54l0,0,.1-.12a7.6,7.6,0,0,0,.56-.66,2.76,2.76,0,0,0,.43-.86,6.93,6.93,0,0,0,.18-1c.08-.62.16-1.47.25-2.56,0-.3.06-.63.08-1s.05-.66.07-1a13.11,13.11,0,0,1-1.67-.72,7.74,7.74,0,0,1-3.44-3l-.09.1a3.39,3.39,0,0,1-.76.61,17.52,17.52,0,0,1-4.28,1.5c.06-.12.12-.25.18-.4l.36-.82c-.49.19-1,.37-1.57.56a31.69,31.69,0,0,1-5.13,1.19,6.2,6.2,0,0,1-.74.45,6.46,6.46,0,0,1-1.33.51Q115.5,101.63,115.57,102.12Z"/><path class="cls-28" d="M120,98.84a10.63,10.63,0,0,1-2.11.45l-.1,0a15.43,15.43,0,0,1-2.43,1.23c0,.22.07.45.11.69a6.46,6.46,0,0,0,1.33-.51,6.2,6.2,0,0,0,.74-.45A31.69,31.69,0,0,0,122.62,99c.56-.19,1.08-.37,1.57-.56l-.36.82c-.06.15-.12.28-.18.4a17.52,17.52,0,0,0,4.28-1.5,3.39,3.39,0,0,0,.76-.61l.09-.1a7.74,7.74,0,0,0,3.44,3,13.11,13.11,0,0,0,1.67.72c0-.19,0-.39,0-.59a8.74,8.74,0,0,1-2.54-2,7.5,7.5,0,0,1-1.95-3.27,15.47,15.47,0,0,1-2,1.6,11.44,11.44,0,0,1-2.61,1.46,12.86,12.86,0,0,0,1-1.75c.12-.28.22-.54.32-.76l-1.11.68A20.44,20.44,0,0,1,123,97.81a19.87,19.87,0,0,1-3,1m13.87,3.41c0,.34,0,.67-.08,1a1.36,1.36,0,0,1,.62-.32,2.77,2.77,0,0,1,.42,0h0q.69,0,.69.84,0-.83-.69-.84a4.26,4.26,0,0,1-.1.66,1.15,1.15,0,0,1-.11.41,1.15,1.15,0,0,0,.11-.41,4.26,4.26,0,0,0,.1-.66h0a2.77,2.77,0,0,0-.42,0,1.36,1.36,0,0,0-.62.32c-.09,1.09-.17,1.94-.25,2.56a.5.5,0,0,0,.14.08,1.24,1.24,0,0,0,.39,0,2.73,2.73,0,0,0,1.61-.62,2.31,2.31,0,0,0,1-1.91c0-1.08-.46-1.62-1.39-1.62a2.53,2.53,0,0,0-1,.21,1.64,1.64,0,0,0-.46.29m-18,.94c-.07-.37-.14-.72-.2-1a1.49,1.49,0,0,0-.3-.18,2.54,2.54,0,0,0-1-.21,1.32,1.32,0,0,0-1,.39,1.77,1.77,0,0,0-.37,1.23,2.33,2.33,0,0,0,.06.53,2.43,2.43,0,0,0,1,1.38,2.7,2.7,0,0,0,1.61.62,1.24,1.24,0,0,0,.39,0l.29-.16c-.11-.64-.22-1.25-.32-1.81l-.12-.7a1.11,1.11,0,0,0-.59-.27,1.86,1.86,0,0,0-.42,0h0a5.59,5.59,0,0,0,.09.66,1.27,1.27,0,0,0,.12.41,1.27,1.27,0,0,1-.12-.41,5.59,5.59,0,0,1-.09-.66c-.47,0-.7.29-.7.84,0-.55.23-.83.7-.84h0a1.86,1.86,0,0,1,.42,0A1.11,1.11,0,0,1,115.77,103.19Z"/></g><path id="Layer0_18_1_STROKES" data-name="Layer0 18 1 STROKES" class="cls-13" d="M130.29,87.54a12.36,12.36,0,0,0-1.18-.73l-.63-.35c-.71-.09-1.39-.15-2-.18q-6.48-.34-9.71,2.55a24.76,24.76,0,0,0-3.75,4m24.9,3.61-.18-.81A16.82,16.82,0,0,0,135.5,91a13.21,13.21,0,0,0-1.11-.86,6.6,6.6,0,0,0-1.39-.84,5.37,5.37,0,0,0-.78-.33c-.05-.22-.11-.44-.16-.64-.12-.4-.24-.75-.36-1a7.16,7.16,0,0,0-2.31-1.69,10.1,10.1,0,0,1,.71,1.39l.19.6a1.47,1.47,0,0,1,.28.24M117.74,99.27l.1,0a10.63,10.63,0,0,0,2.11-.45,19.87,19.87,0,0,0,3-1A20.44,20.44,0,0,0,125,96.65l1.11-.68.51-1.24m-8.92,4.54c.43-.25.87-.54,1.33-.86a14.89,14.89,0,0,0,3.49-2.94m-7.14,5.72c0,.29.1.61.16.94h0c.06.33.12.68.19,1s.08.46.12.71q.15.84.33,1.8c.06.35.13.71.2,1.08a2.42,2.42,0,0,0,.44.86,9,9,0,0,0,1.52,1.57l.08.07c.25.21.53.44.84.67a24.09,24.09,0,0,0,4.18,2.56,2.91,2.91,0,0,0,2.91,0,23.71,23.71,0,0,0,4-2.54,19.15,19.15,0,0,0,1.77-1.54l0,0,.11-.12c.21-.23.39-.45.55-.66a2.76,2.76,0,0,0,.43-.86,6.93,6.93,0,0,0,.18-1c.08-.62.17-1.47.26-2.56,0-.3.05-.63.07-1s.05-.66.08-1m-18.48,0c0-.24-.08-.47-.11-.69a7.25,7.25,0,0,1-1.45.4m1.72,1.24a1.92,1.92,0,0,0-.31-.18,2.54,2.54,0,0,0-1-.21,1.32,1.32,0,0,0-1,.39,1.77,1.77,0,0,0-.37,1.23,2.33,2.33,0,0,0,.06.53,2.43,2.43,0,0,0,1,1.38,2.7,2.7,0,0,0,1.61.62,1.24,1.24,0,0,0,.39,0l.3-.16m-.45-2.51a1.11,1.11,0,0,0-.59-.27,1.86,1.86,0,0,0-.42,0h0a5.59,5.59,0,0,0,.09.66,1.27,1.27,0,0,0,.12.41m.36-3.44a15.43,15.43,0,0,0,2.43-1.23M113,92.83a5.82,5.82,0,0,0-.89,1.73,28.45,28.45,0,0,0-.72,3.39,22.78,22.78,0,0,0-.07,3.76,22.48,22.48,0,0,0,1.81,6.68,12,12,0,0,0,3.21,4.92,7.07,7.07,0,0,0,1.74,1.12,26.37,26.37,0,0,1-.55-2.7c0-.16,0-.31,0-.45a14.08,14.08,0,0,1-.17-2m1.18,0c-.1.24-.2.51-.3.78l-.48,1.22-.18.45m-2.76-8.86c-.47,0-.7.29-.7.84m23.83-7.27a19.31,19.31,0,0,1,.34,4.5,23.25,23.25,0,0,1-1.45,6.56A18,18,0,0,1,133,114c.1-.76.18-1.51.24-2.26,0-.43,0-1,.07-1.62-.48-.75-.85-1.3-1.12-1.65M126.15,96c-.1.22-.2.48-.32.76a12.86,12.86,0,0,1-1,1.75A11.44,11.44,0,0,0,127.47,97a16.5,16.5,0,0,0,2-1.59,4.89,4.89,0,0,0,.56-.63m3.93,5.84c0,.2,0,.41,0,.6m-.08,1a1.64,1.64,0,0,1,.46-.29,2.53,2.53,0,0,1,1-.21c.93,0,1.39.54,1.39,1.62a2.31,2.31,0,0,1-1,1.91,2.73,2.73,0,0,1-1.61.62,1.24,1.24,0,0,1-.39,0,.5.5,0,0,1-.14-.08m2-2.07q0-.83-.69-.84a4.26,4.26,0,0,1-.1.66,1.15,1.15,0,0,1-.11.41m-.85-.72a1.18,1.18,0,0,1,.61-.31,2.72,2.72,0,0,1,.42,0h0m-5.36-7.44a7.4,7.4,0,0,0,1.94,3.26,8.77,8.77,0,0,0,2.55,2,5.22,5.22,0,0,0,1,.35m-1.53,7.28c0,.67,0,1.28,0,1.8"/><g id="Layer0_18_MEMBER_0_FILL" data-name="Layer0 18 MEMBER 0 FILL"><path class="cls-16" d="M119.69,99.94c-.57-.06-.85,0-.85.25s.09.27.28.27a2.05,2.05,0,0,1,.89.11.48.48,0,0,0,.27.09.23.23,0,0,0,.23-.14.33.33,0,0,0,0-.13c0-.24-.29-.38-.86-.45m10.46,0c-.57.07-.86.21-.86.45a.22.22,0,0,0,0,.13.22.22,0,0,0,.22.14.49.49,0,0,0,.28-.09,2.05,2.05,0,0,1,.89-.11c.19,0,.28-.09.28-.27s-.28-.31-.85-.25"/></g><path id="Layer0_18_MEMBER_0_1_STROKES" data-name="Layer0 18 MEMBER 0 1 STROKES" class="cls-13" d="M124.54,103.87a6.19,6.19,0,0,1-.25.85,1.6,1.6,0,0,0-.13.52c0,.15.11.27.34.37a1,1,0,0,0,.43.13"/><g id="Layer0_18_MEMBER_1_FILL" data-name="Layer0 18 MEMBER 1 FILL"><path class="cls-32" d="M133.77,91.36a.7.7,0,0,0,.12-.4c0-.42-.26-.69-.79-.83s-.79,0-.79.55l.15.49a.82.82,0,0,0,.74.47.62.62,0,0,0,.57-.28m-7.68-1.66a1.13,1.13,0,0,0,.13-.56c0-.57-.24-.83-.71-.76s-.71.39-.71,1c0,0,0,.12.08.33a.62.62,0,0,0,.59.32.66.66,0,0,0,.62-.33m-3.47-.09A1.07,1.07,0,0,0,123,89c0-.53-.28-.72-.83-.56s-.84.45-.84.92t.09.33a.55.55,0,0,0,.55.32,1,1,0,0,0,.7-.42m-2.09,0a1.27,1.27,0,0,0,.21-.72c0-.78-.31-1-.93-.79a1.28,1.28,0,0,0-.93,1.21.71.71,0,0,0,.11.39.74.74,0,0,0,.7.33A1,1,0,0,0,120.53,89.61Z"/></g><path class="cls-39" d="M76.3,46.45s.79,2.6,2.7,2.66,2.7-2.49,2.7-2.49A17.64,17.64,0,0,1,79,47,7.53,7.53,0,0,1,76.3,46.45Z"/><path d="M75.4,38.45a4.18,4.18,0,0,0-1,0,3.17,3.17,0,0,0-.94.35,1.28,1.28,0,0,1,.38-.39,1.51,1.51,0,0,1,.51-.2A1.45,1.45,0,0,1,75.4,38.45Z"/><circle cx="74.52" cy="38.85" r="0.38"/><path d="M83.18,38.5a1.43,1.43,0,0,1,1-.19,1.35,1.35,0,0,1,.51.21,1.18,1.18,0,0,1,.39.38,3.73,3.73,0,0,0-.94-.35A4.23,4.23,0,0,0,83.18,38.5Z"/><circle cx="84.05" cy="38.9" r="0.38"/><path d="M122.48,51.28a3.72,3.72,0,0,0-1,.06,3.34,3.34,0,0,0-.94.34,1.15,1.15,0,0,1,.38-.38,1.46,1.46,0,0,1,.52-.21A1.43,1.43,0,0,1,122.48,51.28Z"/><circle cx="121.61" cy="51.68" r="0.38"/><path d="M129.84,51.33a1.47,1.47,0,0,1,1-.19,2,2,0,0,1,.52.21,1.25,1.25,0,0,1,.38.38,3.34,3.34,0,0,0-.94-.34A3.72,3.72,0,0,0,129.84,51.33Z"/><circle cx="130.71" cy="51.73" r="0.38"/><path class="cls-39" d="M33.36,108.7s.79,2.6,2.7,2.66,2.7-2.49,2.7-2.49a17.64,17.64,0,0,1-2.7.41A7.53,7.53,0,0,1,33.36,108.7Z"/><path d="M32.19,102.42a4.73,4.73,0,0,0-1,.06,3.27,3.27,0,0,0-.94.35,1.28,1.28,0,0,1,.38-.39,1.6,1.6,0,0,1,.51-.2A1.49,1.49,0,0,1,32.19,102.42Z"/><circle cx="31.31" cy="102.83" r="0.38"/><path d="M40,102.48a1.43,1.43,0,0,1,1.05-.19,1.46,1.46,0,0,1,.52.21,1.15,1.15,0,0,1,.38.38,3.38,3.38,0,0,0-.94-.35A4.18,4.18,0,0,0,40,102.48Z"/><circle cx="40.84" cy="102.88" r="0.38"/><path class="cls-39" d="M77.22,123.87s.79,2.6,2.71,2.66,2.7-2.5,2.7-2.5a16.53,16.53,0,0,1-2.7.41A7.39,7.39,0,0,1,77.22,123.87Z"/><path d="M76.28,118a3.67,3.67,0,0,0-1,.06,3.29,3.29,0,0,0-1,.34,1.18,1.18,0,0,1,.39-.38,1.35,1.35,0,0,1,.51-.21A1.43,1.43,0,0,1,76.28,118Z"/><circle cx="75.41" cy="118.43" r="0.38"/><path d="M84.06,118.08a1.5,1.5,0,0,1,1.06-.19,1.77,1.77,0,0,1,.51.21,1.25,1.25,0,0,1,.38.38,3.14,3.14,0,0,0-.94-.34A3.72,3.72,0,0,0,84.06,118.08Z"/><circle cx="84.94" cy="118.48" r="0.38"/><path class="cls-39" d="M122.31,107.62s.79,2.6,2.7,2.66,2.7-2.5,2.7-2.5a16.3,16.3,0,0,1-2.7.41A7.38,7.38,0,0,1,122.31,107.62Z"/><path d="M121.28,101.36a3.67,3.67,0,0,0-1,.06,3.05,3.05,0,0,0-1,.35,1.32,1.32,0,0,1,.39-.39,1.77,1.77,0,0,1,.51-.21A1.53,1.53,0,0,1,121.28,101.36Z"/><circle cx="120.41" cy="101.77" r="0.38"/><path d="M129.06,101.41a1.52,1.52,0,0,1,1.57,0,1.28,1.28,0,0,1,.38.39,3.17,3.17,0,0,0-.94-.35A4.73,4.73,0,0,0,129.06,101.41Z"/><circle cx="129.94" cy="101.82" r="0.38"/><path class="cls-52" d="M31.88,59.41c-.18,2.42.93,4.84.51,7.22a.87.87,0,0,0,.44-1,5.9,5.9,0,0,1-1.25,4.45,4.58,4.58,0,0,0,2-2.08,2,2,0,0,1-.21,1.14,4.45,4.45,0,0,0,1.49-2.81,5.9,5.9,0,0,1-.79,3,4.89,4.89,0,0,0,1.82-3.06c.16-1.2.26-2.87-.66-3.66.38-.12.22-.29,0-.77a4,4,0,0,0-.57-.9c-.76-1-1.44-2.22-2.2-3.27C32.31,58.3,31.88,59.41,31.88,59.41Z"/><path class="cls-53" d="M32.86,61a10.32,10.32,0,0,1,.57,3.86,3.47,3.47,0,0,0,.36-1.16,10.4,10.4,0,0,1-.37,3.33,4.75,4.75,0,0,0,.39-3.91,4.39,4.39,0,0,1-.27-.94,5.43,5.43,0,0,1,.4.93,1.84,1.84,0,0,0-.15-.87,6.53,6.53,0,0,1,.71,4,4.4,4.4,0,0,0-.12-3.15c-.37-1-.94-1.95-1.37-2.93.07,1,.81,1.9.73,2.9A6.21,6.21,0,0,0,32.82,61"/><path class="cls-21" d="M20.6,44.55l2.68-1.18c1-.43,1.7-.78,2.2-1.06a12.9,12.9,0,0,1-.24,1.28c1.4-.32,2.84-.68,4.33-1.08,1.17-.31,2-.54,2.39-.68a8.55,8.55,0,0,1-.28,1l-.18.49a24.07,24.07,0,0,0,3.83-.88c.42.5,1,1.16,1.66,2l.08.1c-.1-.3-.21-.64-.32-1-.32-1-.54-1.83-.66-2.35a28,28,0,0,1-2.77.57c0-.11.11-.39.25-.82l.21-.59q-4.56,1-6.7,1.45c.16-.37.35-.82.6-1.34-.75.36-2,.82-3.62,1.41a18.94,18.94,0,0,1-3.67,1.05l-1.3,2.7c0,.21,0,.44,0,.68s0,.63,0,1c.22-.35.46-.75.72-1.21l.85-1.46m-5.21,6a2.39,2.39,0,0,0-.14.82,2.55,2.55,0,0,0,.14.84,3.4,3.4,0,0,0,.26.5,3,3,0,0,0,.88.81,4.26,4.26,0,0,0,2.31.67c0-.48-.06-1-.06-1.57s.06-1.13.08-1.67l-.05,0a1.65,1.65,0,0,0-.54-.24,1.88,1.88,0,0,0-.53-.07l-.17,0a1.33,1.33,0,0,0-.11.5.89.89,0,0,0,.32.7.89.89,0,0,1-.32-.7,1.33,1.33,0,0,1,.11-.5c-.67.05-1,.45-1,1.19,0-.74.33-1.14,1-1.19l.17,0a1.88,1.88,0,0,1,.53.07,1.65,1.65,0,0,1,.54.24l.05,0c0-.35,0-.69,0-1a.1.1,0,0,0,0,0,3.28,3.28,0,0,0-1.75-.49,2.17,2.17,0,0,0-.59.07,1.56,1.56,0,0,0-.82.51,2.43,2.43,0,0,0-.14.2,1.87,1.87,0,0,0-.16.35M38,50a.26.26,0,0,0-.11.07c0,.32,0,.65.07,1a.27.27,0,0,1,.08-.07,1.65,1.65,0,0,1,.54-.24,1.83,1.83,0,0,1,.53-.07l.17,0c.66.05,1,.45,1,1.19,0-.74-.34-1.14-1-1.19a1.33,1.33,0,0,1,.11.5.89.89,0,0,1-.32.7.89.89,0,0,0,.32-.7,1.33,1.33,0,0,0-.11-.5l-.17,0a1.83,1.83,0,0,0-.53.07,1.65,1.65,0,0,0-.54.24A.27.27,0,0,0,38,51c0,.52,0,1.07.07,1.64s0,1.09-.06,1.57a4.37,4.37,0,0,0,2.35-.67,3.06,3.06,0,0,0,.89-.81c.09-.16.17-.33.25-.5a2.55,2.55,0,0,0,.14-.84,2.39,2.39,0,0,0-.14-.82,1.89,1.89,0,0,0-.17-.35,1.21,1.21,0,0,0-.14-.2,1.68,1.68,0,0,0-1.4-.58A3.28,3.28,0,0,0,38,50Z"/><path class="cls-22" d="M23,39.48c-1.13.5-1.74,4.78-2.4,5.07L19.75,46c-.26.46-.5.86-.72,1.21v.31c0,.77-.08,1.59-.13,2.46,0,.31,0,.65,0,1,0,.54-.05,1.09-.08,1.67s0,1.09.06,1.57a7.77,7.77,0,0,0,.3,1.65A4.59,4.59,0,0,0,20.57,58a16.82,16.82,0,0,0,3,2c.68.37,1.84,1,3.49,1.82a3,3,0,0,0,2.63,0l.08,0c1.61-.83,2.74-1.42,3.41-1.79a16.61,16.61,0,0,0,3-2,4.67,4.67,0,0,0,1.43-2.14A8.39,8.39,0,0,0,38,54.23c0-.48.06-1,.06-1.57S38,51.54,38,51c0-.35-.06-.68-.07-1-.07-1.4-.11-2.65-.14-3.76a12.84,12.84,0,0,1-.7-1.76s-.33-4-.36-4c-.69-.83-1.24-1.5-1.66-2a24.07,24.07,0,0,1-3.83.88c.05-.13,1.1,0,1.17-.2s-.78-1-.71-1.26c-.42.14-2.27.27-3.44.58-1.49.4-1.88.86-3.28,1.18.09-.37.16-.79.24-1.28C24.7,38.7,24,39.05,23,39.48Z"/><path id="Layer0_7_1_STROKES" data-name="Layer0 7 1 STROKES" class="cls-13" d="M39.77,49.46a1.68,1.68,0,0,1,1.4.58,1.21,1.21,0,0,1,.14.2,1.89,1.89,0,0,1,.17.35,2.39,2.39,0,0,1,.14.82,2.55,2.55,0,0,1-.14.84c-.08.17-.16.34-.25.5a3.06,3.06,0,0,1-.89.81,4.37,4.37,0,0,1-2.35.67,8.39,8.39,0,0,1-.31,1.65A4.67,4.67,0,0,1,36.25,58a16.61,16.61,0,0,1-3,2c-.67.37-1.8,1-3.41,1.79l-.08,0a3,3,0,0,1-2.63,0C25.44,61,24.28,60.37,23.6,60a16.82,16.82,0,0,1-3-2,4.59,4.59,0,0,1-1.43-2.14,7.77,7.77,0,0,1-.3-1.65,4.26,4.26,0,0,1-2.31-.67,3,3,0,0,1-.88-.81,3.4,3.4,0,0,1-.26-.5,2.55,2.55,0,0,1-.14-.84,2.39,2.39,0,0,1,.14-.82,1.87,1.87,0,0,1,.16-.35,2.43,2.43,0,0,1,.14-.2,1.56,1.56,0,0,1,.82-.51M18.86,51l-.05,0a1.65,1.65,0,0,0-.54-.24,1.88,1.88,0,0,0-.53-.07l-.17,0a1.33,1.33,0,0,0-.11.5.89.89,0,0,0,.32.7m-.21-1.2c-.67.05-1,.45-1,1.19M18.9,50a.1.1,0,0,0,0,0,3.28,3.28,0,0,0-1.75-.49,2.17,2.17,0,0,0-.59.07M19,47.22c0,.1,0,.2,0,.31,0,.77-.08,1.59-.13,2.46,0,.31,0,.65,0,1,0,.54-.05,1.09-.08,1.67s0,1.09.06,1.57M37.91,50A.26.26,0,0,1,38,50a3.28,3.28,0,0,1,1.75-.49M38,51a.27.27,0,0,1,.08-.07,1.65,1.65,0,0,1,.54-.24,1.83,1.83,0,0,1,.53-.07l.17,0c.66.05,1,.45,1,1.19M37.91,50c0,.32,0,.65.07,1,0,.52,0,1.07.07,1.64s0,1.09-.06,1.57m1.31-3.57a1.33,1.33,0,0,1,.11.5.89.89,0,0,1-.32.7M37.91,50"/><path class="cls-16" d="M35.13,48.34a.51.51,0,0,0,.09-.25c0-.28-.2-.5-.59-.66a2.62,2.62,0,0,0-1-.19,1.32,1.32,0,0,0-1,.32.57.57,0,0,0-.24.57c.07.19.16.28.29.26a1.74,1.74,0,0,0,.38-.14,1.21,1.21,0,0,1,.35-.09,1.7,1.7,0,0,1,.48,0,1,1,0,0,1,.52.21.62.62,0,0,0,.36.19.42.42,0,0,0,.35-.19m-12.57.29a.65.65,0,0,0,.37-.2,1,1,0,0,1,.51-.21,1.78,1.78,0,0,1,.49,0,1,1,0,0,1,.36.1,3,3,0,0,0,.36.14c.13,0,.23-.07.29-.27s0-.37-.22-.57a1.38,1.38,0,0,0-1-.32,2.59,2.59,0,0,0-1,.2c-.4.15-.6.37-.6.65a.42.42,0,0,0,.1.25A.4.4,0,0,0,22.56,48.63Z"/><path id="Layer0_7_MEMBER_0_1_STROKES" data-name="Layer0 7 MEMBER 0 1 STROKES" class="cls-13" d="M28.38,51.91a8.34,8.34,0,0,1-.61,1.4.63.63,0,0,0-.14.28c0,.14.15.33.43.58a1.16,1.16,0,0,0,.78.38"/><path class="cls-52" d="M28.78,38.66c0,2.73-4,2.7-5.71,4.81a23.74,23.74,0,0,0-4.28,6.62c-.29-.87-1.56-.56-1.56-.56s.13-4.29.63-4.58c-.73-.78-.16-3.29.28-4.27a10.65,10.65,0,0,1,6.15-6,5.78,5.78,0,0,1,4.05-.17,24.89,24.89,0,0,1,.25,4.14"/><path class="cls-52" d="M28.55,38.24c.11,2.72,4.36,4.2,6.17,6.23s1.62,3.61,3.42,5.43a2.12,2.12,0,0,1,1.61-.59s.39-4.24-.13-4.5c.71-.82.77-2.41-.47-4.7a10.24,10.24,0,0,0-6.36-5.36c-1.15-.41-3.36-.85-4.45-.29a14.54,14.54,0,0,0,.08,3.16"/><path class="cls-52" d="M28.18,38.86A20.42,20.42,0,0,0,21.5,49.28a38.1,38.1,0,0,0-1.3,13.36c.07,1.18.4,2,.06,3.06-.13.43-.44,1.13-.54,1.57a5.81,5.81,0,0,0,.54,2.35,4.62,4.62,0,0,1-.89-2.46c.08-.56.29-1.1.38-1.66a7.68,7.68,0,0,0,.06-1.44,47.39,47.39,0,0,1,0-7.9,4.17,4.17,0,0,0-.41,2c0,1.26-.05,2.51-.07,3.77a33.21,33.21,0,0,1,.18-7.53c.14-.79.34-1.57.48-2.36.21-1.26.07-3.77.26-5,.5-3.35,2.29-5.2,4.55-7.13a5.34,5.34,0,0,1,2.88-1.4c.23,0,.55.11.51.39"/><path class="cls-53" d="M27.31,37.08a6,6,0,0,0-3.26,1.75c-.4.52-.62,1.16-1,1.7s-.7.73-1,1.16a4.91,4.91,0,0,0-.57,1.93c-.25,1.63-.5,3.26-.74,4.89a23.71,23.71,0,0,0,1-3.59,10.74,10.74,0,0,1,.42-1.67,7.82,7.82,0,0,1,.62-1.18l1.46-2.45a2.69,2.69,0,0,1-.63,2c-.43.59-1,1.09-1.36,1.7a4.33,4.33,0,0,0,1.9-2.27c.31-.84.44-1.89,1.23-2.32l-.11.52A4.8,4.8,0,0,1,27.5,37.1"/><path class="cls-53" d="M28.94,37.42a5,5,0,0,0,2.38,3.32,13.47,13.47,0,0,1,2.48,1.35c-.89-1.33-3.4-1.78-3.85-3.32.23.18,1.94,1.27,2.17,1.45-.13-.3-1.2-2.33-1.33-2.62a38.82,38.82,0,0,1,3.88,3.91c.54.72.34,1.21.86,1.94s1.95,1.9,1.91,2.88a16.7,16.7,0,0,0-7.65-9.71c.24.94.94,1.54,1.11,2.26a11.93,11.93,0,0,1-2.07-1.56"/><path class="cls-15" d="M26.45,55.71A2,2,0,0,0,25,56.93a7.17,7.17,0,0,0-.38,1,1.68,1.68,0,0,1-.51.73,2.69,2.69,0,0,1-1,.45,4.86,4.86,0,0,1-.71.17l1,.57c.69.37,1.88,1,3.58,1.82a3.14,3.14,0,0,0,2.68,0l.08,0c1.65-.82,2.82-1.42,3.49-1.79l1.07-.58a5.44,5.44,0,0,1-.64-.16,2.86,2.86,0,0,1-1-.45,1.91,1.91,0,0,1-.52-.73,5.42,5.42,0,0,0-.37-1,2,2,0,0,0-1.48-1.22,10.43,10.43,0,0,0-2-.17,9.73,9.73,0,0,0-2,.17"/><line class="cls-39" x1="14.96" y1="51.93" x2="15.54" y2="51.53"/><path d="M15.34,52.58l.58-.4c.79-.54,0-1.84-.76-1.29l-.58.39c-.79.55,0,1.85.76,1.3Z"/><path class="cls-22" d="M25.64,58.1a1.63,1.63,0,0,1,.67-1.53,4.67,4.67,0,0,1,2.17-.35,4.63,4.63,0,0,1,2.15.35,1.65,1.65,0,0,1,.67,1.53,2.34,2.34,0,0,1-.13.79,2.29,2.29,0,0,1-.44.79,3.05,3.05,0,0,1-2.19.7h-.22a3,3,0,0,1-2.11-.7A2.34,2.34,0,0,1,25.64,58.1Z"/><path class="cls-39" d="M25.77,57s.79,2.59,2.7,2.66,2.7-2.5,2.7-2.5a16.3,16.3,0,0,1-2.7.41A7.32,7.32,0,0,1,25.77,57Z"/><path d="M24.78,49.36a3.67,3.67,0,0,0-1,.06,3.05,3.05,0,0,0-1,.35,1.32,1.32,0,0,1,.39-.39,1.77,1.77,0,0,1,.51-.21A1.53,1.53,0,0,1,24.78,49.36Z"/><circle cx="23.91" cy="49.77" r="0.38"/><path d="M32.56,49.41a1.52,1.52,0,0,1,1.57,0,1.28,1.28,0,0,1,.38.39,3.17,3.17,0,0,0-.94-.35A4.73,4.73,0,0,0,32.56,49.41Z"/><circle cx="33.44" cy="49.82" r="0.38"/></g></g></svg>