<svg xmlns="http://www.w3.org/2000/svg" xmlns:xlink="http://www.w3.org/1999/xlink" viewBox="0 0 150 150"><defs><style>.cls-1{isolation:isolate;}.cls-2{fill:#f2f5fc;}.cls-3{fill:#e0ebf7;opacity:0.8;}.cls-3,.cls-4{mix-blend-mode:multiply;}.cls-4{fill:#cee2f3;opacity:0.4;}.cls-5{fill:#a8998f;}.cls-6{fill:#282828;}.cls-7{fill:#824919;}.cls-7,.cls-9{stroke:#5e3313;}.cls-16,.cls-17,.cls-39,.cls-7,.cls-9{stroke-miterlimit:10;}.cls-16,.cls-17,.cls-7,.cls-8,.cls-9{stroke-width:0.25px;}.cls-17,.cls-39,.cls-8,.cls-9{fill:none;}.cls-8{stroke:#000;stroke-linecap:round;stroke-linejoin:round;}.cls-10{fill:#fff;}.cls-11{fill:#f39490;}.cls-12{fill:#b22f25;}.cls-13{fill:#cc473e;}.cls-14{fill:#f6a89c;}.cls-15{fill:#ec7c4c;}.cls-16{fill:#4c3321;}.cls-16,.cls-17{stroke:#422e1f;}.cls-18{fill:#382a26;}.cls-19{fill:url(#Безымянный_градиент_16);}.cls-20{opacity:0.39;mix-blend-mode:color-dodge;fill:url(#Безымянный_градиент_25);}.cls-21{fill:url(#Безымянный_градиент_55);}.cls-22{fill:url(#Безымянный_градиент_55-2);}.cls-23{fill:url(#Безымянный_градиент_55-3);}.cls-24{fill:url(#Безымянный_градиент_61);}.cls-25{fill:#edb954;}.cls-26{fill:url(#Безымянный_градиент_16-2);}.cls-27{fill:url(#Безымянный_градиент_16-3);}.cls-28{fill:url(#Безымянный_градиент_55-4);}.cls-29{fill:url(#Безымянный_градиент_61-2);}.cls-30{fill:#ebaeae;}.cls-31{fill:red;}.cls-32{font-size:5px;font-family:Andor-PersonalUse, Andor;}.cls-33{letter-spacing:-0.01em;}.cls-34{font-size:22.24px;fill:#7b1fa2;font-family:BerlinSansFB-Reg, Berlin Sans FB;}.cls-35{letter-spacing:-0.02em;}.cls-36{letter-spacing:-0.08em;}.cls-37{letter-spacing:-0.08em;}.cls-38{letter-spacing:0em;}.cls-39{stroke:#f9bd00;stroke-width:0.5px;}.cls-40{fill:#f9bd00;}</style><linearGradient id="Безымянный_градиент_16" x1="119.33" y1="89.87" x2="119.33" y2="80.16" gradientUnits="userSpaceOnUse"><stop offset="0" stop-color="#e9a87c"/><stop offset="1" stop-color="#d14048"/></linearGradient><linearGradient id="Безымянный_градиент_25" x1="119.33" y1="82.58" x2="119.33" y2="80.57" gradientUnits="userSpaceOnUse"><stop offset="0"/><stop offset="1" stop-color="#f5dec1"/></linearGradient><linearGradient id="Безымянный_градиент_55" x1="-1631.31" y1="83.95" x2="-1632.58" y2="83.95" gradientTransform="matrix(-1, 0, 0, 1, -1509.95, 0)" gradientUnits="userSpaceOnUse"><stop offset="0" stop-color="#df6342"/><stop offset="1" stop-color="#8e0011"/></linearGradient><linearGradient id="Безымянный_градиент_55-2" x1="-821.54" y1="83.95" x2="-822.81" y2="83.95" gradientTransform="translate(938.82)" xlink:href="#Безымянный_градиент_55"/><linearGradient id="Безымянный_градиент_55-3" x1="-1630.6" y1="86.55" x2="-1632.6" y2="86.55" xlink:href="#Безымянный_градиент_55"/><linearGradient id="Безымянный_градиент_61" x1="-1631.99" y1="86.56" x2="-1630.12" y2="86.56" gradientTransform="matrix(-1, 0, 0, 1, -1509.95, 0)" gradientUnits="userSpaceOnUse"><stop offset="0" stop-color="#e9a87c"/><stop offset="1" stop-color="#d45c2c"/></linearGradient><linearGradient id="Безымянный_градиент_16-2" x1="-228.3" y1="711.61" x2="-228.3" y2="709.14" gradientTransform="translate(421.39 -629.51) scale(1.33 1)" xlink:href="#Безымянный_градиент_16"/><linearGradient id="Безымянный_градиент_16-3" x1="-1200.3" y1="-465.34" x2="-1200.3" y2="-467.82" gradientTransform="matrix(0, -1.33, -1, 0, -345.89, -1515.69)" xlink:href="#Безымянный_градиент_16"/><linearGradient id="Безымянный_градиент_55-4" x1="117.75" y1="86.55" x2="115.74" y2="86.55" gradientTransform="matrix(1, 0, 0, 1, 0, 0)" xlink:href="#Безымянный_градиент_55"/><linearGradient id="Безымянный_градиент_61-2" x1="116.35" y1="86.56" x2="118.22" y2="86.56" gradientTransform="matrix(1, 0, 0, 1, 0, 0)" xlink:href="#Безымянный_градиент_61"/></defs><title>Mesa de trabajo 5</title><g class="cls-1"><g id="Capa_1" data-name="Capa 1"><path class="cls-2" d="M145,59a21.83,21.83,0,0,0,2.11-8.3c.28-7-2.52-13.29-6.63-18.74-8.05-9.82-21-13.38-33.24-11.85a61.75,61.75,0,0,0-25.3,9.3c-6.44,4.14-13.15,11.6-21,13S45.65,37.52,38.31,35.9c-6.83-1.5-14.12-2-21-.41C5.5,38.28-1.41,47.83.64,60c.73,4.29,6,7.33,5.07,9.52-12.95,29.13,12.36,41,40.68,49.32,60.13,17.65,85.52,6.26,96.81-5.06,5.26-5.28,7.29-13.47,6.7-20.74-.53-6.72-3.42-13.26-9.63-16.46a9.74,9.74,0,0,1-2.6-1.6C133.74,71,143.41,62.48,145,59Z"/><path class="cls-3" d="M133.13,65.57a20.2,20.2,0,0,0,2.24-7.34c.64-6.69-1.85-12.38-5.29-17.9-7-9.42-18.66-13.25-30-12.34a52,52,0,0,0-22.58,7.56C71.45,39.12,65,45.76,57.77,46.74s-13.83-5.2-20.49-7c-6.2-1.68-12.85-2.47-19.21-1.25C7.12,40.6.39,49.16,1.79,60.51c.49,4,5.23,7,4.25,9C-7,96,15.71,108,41.32,116.9c54.39,18.81,77.14,9.31,87.94-.71,5.34-5,7.67-13.43,7.09-20.53a16.59,16.59,0,0,0-4.5-10.43c-2.91-2.88-8.39-5.08-6.28-9.92C127.23,71.48,131.26,69.24,133.13,65.57Z"/><path class="cls-4" d="M122.08,69.88a16.47,16.47,0,0,0,2.26-6,21.51,21.51,0,0,0-4.13-15.5c-6-8.26-16.37-12-26.6-11.6a53.19,53.19,0,0,0-21.52,5.54c-5.59,2.81-11.64,8.2-18.19,8.76s-12.29-4.93-18.24-6.71a41.14,41.14,0,0,0-17.28-1.78C8.43,43.93,2.07,51,2.93,60.63c.31,3.41,4.48,6.16,3.53,7.82-12.69,22,7.37,33,30.16,41.51,48.39,18,70.12,10.83,80.21,2.73,8.69-7,10.26-22.87.19-29.49C110.67,79,119.73,73.83,122.08,69.88Z"/><ellipse class="cls-5" cx="31.44" cy="136.82" rx="20.53" ry="3.86"/><path class="cls-6" d="M29.28,25.33s-3.32-1-4,5.28-.84,2.53-1.73,5,1.37,4,1.63,4.8-.79,2.1-.79,2.52a3.08,3.08,0,0,0,.84,3c1.32,1.44,12,.78,12.68.3a3.24,3.24,0,0,0,.94-4c-.89-2-.89-1.62-.42-2A4.08,4.08,0,0,0,40.22,36c-.53-2.54-1.11-.38-2.21-7.59S28.8,25,29.28,25.33Z"/><path class="cls-7" d="M24.11,34.42a2.23,2.23,0,0,0,.38,1.8c.43.72,1.43.53,1.46.35s0-2.43-.31-2.53S24.35,33.62,24.11,34.42Z"/><path class="cls-7" d="M38.72,34.42a2.26,2.26,0,0,1-.37,1.8c-.44.72-1.44.53-1.47.35s0-2.43.31-2.53S38.48,33.62,38.72,34.42Z"/><path class="cls-7" d="M22.93,59a1,1,0,0,0-.1.55,35.64,35.64,0,0,1-.1,4.26c-.12.9-.28,1.8-.45,2.7s-.34,1.81-.55,2.71c-.25,1.06-.52,2.11-.8,3.16-.83,3-1.7,6-2.49,9A6.64,6.64,0,0,0,18.66,85a10.54,10.54,0,0,1,.57,3.3,4,4,0,0,1-.36,1.4.75.75,0,0,1-.5.4l-.2,0a1.13,1.13,0,0,1,0-1,2,2,0,0,0-.29-1.9l.05-.45c0,.43-.32.72-.46,1.1a4.13,4.13,0,0,0,.17,3.25,1.21,1.21,0,0,1,.14,1l-.35-.1a1.41,1.41,0,0,1-1-.75c-.21-.31-.37-.65-.58-1a4.7,4.7,0,0,1-.79-3A12.32,12.32,0,0,1,16,83.83a7.56,7.56,0,0,0,.44-2.1c.18-1.62.1-3.24.19-4.87a52.19,52.19,0,0,1,.51-5.71,23.18,23.18,0,0,1,1-4.2,7.3,7.3,0,0,0,.41-2.66c0-1.79-.06-3.57.07-5.36s.1-3.31.11-5a19.79,19.79,0,0,1,.42-4.61,4,4,0,0,1,2.44-3.07c.44-.17.92-.23,1.35-.4.66-.28,1.34-.46,2-.69a6.25,6.25,0,0,0,2.85-1.71l.63-.79A4,4,0,0,0,29,40.79a4.71,4.71,0,0,1,.1-1.45l4.76,0a3.4,3.4,0,0,1,.1,1.1,4.54,4.54,0,0,0,.45,2.08l.81,1.1a7.91,7.91,0,0,0,3.1,1.63c1,.32,2,.63,3,1a4,4,0,0,1,2.45,3.15,25.5,25.5,0,0,1,.42,5.16c0,2.4.08,4.81.15,7.21,0,.51.07,1,0,1.51a10.85,10.85,0,0,0,.7,4.61,19.06,19.06,0,0,1,.72,3.25,49.34,49.34,0,0,1,.54,7c0,.23.06.47.05.7a15.07,15.07,0,0,0,1,6.47,5.94,5.94,0,0,1,.43,2.2,5.43,5.43,0,0,1-.79,2.79c-.13.22-.3.45-.42.67a2.06,2.06,0,0,1-1.37,1.14h-.15a1,1,0,0,1,0-.81,4.7,4.7,0,0,0,.36-.9,3.59,3.59,0,0,0-.45-3.1l-.1-.5a1,1,0,0,1-.13.71,2,2,0,0,0,0,1.8.58.58,0,0,1-.14.79h-.2a.54.54,0,0,1-.45-.34,3.54,3.54,0,0,1-.35-1.2,10,10,0,0,1,.45-3.26,8.63,8.63,0,0,0,.46-2.9,10.24,10.24,0,0,0-.43-2.15c-.92-3.16-1.72-6.35-2.59-9.53-.41-1.5-.71-3-1-4.55a21.73,21.73,0,0,1-.49-4.82c0-.61,0-1.23,0-1.85A1,1,0,0,0,40,59"/><path class="cls-8" d="M26.69,136.94v.85"/><path class="cls-8" d="M37.21,136.84a.9.9,0,0,0,.16.5"/><path class="cls-7" d="M22.78,50.76A2.64,2.64,0,0,1,22.4,53a4.89,4.89,0,0,0-.61,3.79,3.29,3.29,0,0,0,1.71,2.44c.64.29.44.82.51,1.23.24,1.29.4,2.59.52,3.9a16.14,16.14,0,0,1,.1,3.61,5.23,5.23,0,0,1-.79,1.65,34.58,34.58,0,0,0-2.42,5.11,23.15,23.15,0,0,0-.8,3.41,30.05,30.05,0,0,0-.43,5.36,35.3,35.3,0,0,0,.25,4.36c.18,1.37.4,2.75.71,4.1s.83,2.92,1.27,4.37c.64,2.08,1.23,4.17,1.8,6.26a2.71,2.71,0,0,1,0,1.1c-.14,1.11-.32,2.22-.57,3.31a17.35,17.35,0,0,0-.31,3.06,26.19,26.19,0,0,0,.2,4.85,41.88,41.88,0,0,0,1,5q.75,2.93,1.6,5.82a27.21,27.21,0,0,1,.88,3.56,6.22,6.22,0,0,1-.54,4.15,8.75,8.75,0,0,1-1.3,1.6c-.3.34-.67.61-.94,1s-.5.49-.35.84a1.44,1.44,0,0,0,1,.9c.33.07.67.1,1,.15a11.14,11.14,0,0,1,1.41.1c.27.08.48-.09.66-.32a1,1,0,0,1,0-.68v.75l1.1.13a1.25,1.25,0,0,0,1.3-1.08,6.37,6.37,0,0,0-.12-1.85c-.16-.82-.28-1.63-.39-2.46a7.61,7.61,0,0,0-.08-1.65,5.69,5.69,0,0,1-.4-1.86,37.71,37.71,0,0,1,.37-6.71,44.87,44.87,0,0,0,.5-4.91c.05-1.17.18-2.33.12-3.51s0-2.07-.08-3.11-.11-1.87-.21-2.8-.18-2.07-.23-3.1a31,31,0,0,1,.13-3.86c.08-1.08.27-2.14.39-3.21.09-.83.09-1.68.21-2.5.24-1.7.28-3.41.37-5.12.08-1.53,0-3.07.12-4.61a22.16,22.16,0,0,1,.1-2.7c.08-.48.05-.49.59-.4,0,.61.1,1.23.11,1.85,0,2,0,4,.11,6.06,0,.77.07,1.54.11,2.31,0,1,.19,1.94.28,2.91s.12,1.67.21,2.5c.15,1.4.34,2.8.49,4.21a25.59,25.59,0,0,1,0,3.61,6.94,6.94,0,0,1-.1,1.2,17.6,17.6,0,0,0-.27,2.41c-.18,2-.12,3.94-.11,5.91,0,.73.11,1.46.11,2.2,0,.4.07.8.09,1.2.05.71.13,1.41.21,2.11.13,1,.28,2.07.4,3.1.06.51,0,1,.1,1.51a14.41,14.41,0,0,1,0,4.2,11.63,11.63,0,0,0-.37,2.56,2.36,2.36,0,0,1,0,.65c-.21,1.08-.41,2.17-.54,3.26-.11.89.39,1.68,1.15,1.68a2.17,2.17,0,0,0,1.25-.18v-.8c0,1,.06,1.08,1.05.95h.1a3.16,3.16,0,0,0,1.95-.13c.79-.18,1.37-.93.66-1.67-.45-.47-.9-.94-1.36-1.4a5,5,0,0,1-1.54-3.31,12.89,12.89,0,0,1,.68-4.56q.73-2.34,1.36-4.71c.42-1.6.81-3.2,1.15-4.81a26.17,26.17,0,0,0,.49-3.41,28.85,28.85,0,0,0,0-4.16,39.64,39.64,0,0,0-.57-4.06,7.47,7.47,0,0,1-.07-3.7c.62-2,1.16-4.05,1.77-6.06.46-1.55.94-3.08,1.26-4.66.22-1.08.4-2.17.53-3.26A28.53,28.53,0,0,0,42.66,85a34.26,34.26,0,0,0-.17-5.26,30.26,30.26,0,0,0-.8-4.31,27.27,27.27,0,0,0-2.78-6A5.1,5.1,0,0,1,38.24,66c.11-.81.16-1.63.24-2.45s.16-1.47.27-2.21a9.63,9.63,0,0,0,.2-1.4c0-.37.07-.57.46-.72a2.36,2.36,0,0,0,1.07-1,4.82,4.82,0,0,0-.08-5.35,2.54,2.54,0,0,1-.28-2.07"/><path class="cls-9" d="M33.21,58a4.93,4.93,0,0,0,3.2,1.67,5.68,5.68,0,0,0,2.36-.17s.1,0,.15.05"/><path class="cls-9" d="M29.6,58.08a5.17,5.17,0,0,1-3.15,1.57,6,6,0,0,1-2.16-.12,2,2,0,0,0-.35,0"/><path class="cls-9" d="M28.6,46.75c-.72-.13-1.44-.28-2.16-.39a17.7,17.7,0,0,0-3-.26c-.13,0-.26,0-.35-.1"/><path class="cls-9" d="M39.82,46a3,3,0,0,1-1.3.13,25.13,25.13,0,0,0-2.61.32"/><path class="cls-9" d="M29.15,41.34l.35,3"/><path class="cls-9" d="M34.61,102.27a5.74,5.74,0,0,0,.3,2.4"/><path class="cls-9" d="M28.3,102.37a5,5,0,0,1-.3,2.2"/><path class="cls-9" d="M32.3,60.38a8.68,8.68,0,0,0-2.1.1"/><path class="cls-9" d="M29.2,80.92A3.93,3.93,0,0,0,30.71,82a1.16,1.16,0,0,1,.39.26"/><path class="cls-9" d="M38.89,56.77a.54.54,0,0,0-.7-.69c-.15,0-.34.09-.4.29"/><path class="cls-9" d="M24.41,56.77a.54.54,0,0,1,.7-.69c.16,0,.35.09.4.29"/><path class="cls-9" d="M33.31,81.33l-1.51,1"/><path class="cls-9" d="M24.34,102.67c.43.29.52.83.85,1.2"/><path class="cls-9" d="M38.52,102.67c-.44.29-.52.83-.85,1.2"/><path class="cls-9" d="M33.21,58a4.93,4.93,0,0,0,3.2,1.67,5.68,5.68,0,0,0,2.36-.17s.1,0,.15.05"/><path class="cls-9" d="M29.6,58.08a5.17,5.17,0,0,1-3.15,1.57,6,6,0,0,1-2.16-.12,2,2,0,0,0-.35,0"/><path class="cls-9" d="M28.6,46.75c-.72-.13-1.44-.28-2.16-.39a17.7,17.7,0,0,0-3-.26c-.13,0-.26,0-.35-.1"/><path class="cls-9" d="M39.82,46a3,3,0,0,1-1.3.13,25.13,25.13,0,0,0-2.61.32"/><path class="cls-9" d="M29.15,41.34l.35,3"/><path class="cls-9" d="M34.61,102.27a5.74,5.74,0,0,0,.3,2.4"/><path class="cls-9" d="M28.3,102.37a5,5,0,0,1-.3,2.2"/><path class="cls-9" d="M32.3,60.38a8.68,8.68,0,0,0-2.1.1"/><path class="cls-9" d="M29.2,80.92A3.93,3.93,0,0,0,30.71,82a1.16,1.16,0,0,1,.39.26"/><path class="cls-9" d="M38.89,56.77a.54.54,0,0,0-.7-.69c-.15,0-.34.09-.4.29"/><path class="cls-9" d="M24.41,56.77a.54.54,0,0,1,.7-.69c.16,0,.35.09.4.29"/><path class="cls-9" d="M33.31,81.33l-1.51,1"/><path class="cls-9" d="M24.34,102.67c.43.29.52.83.85,1.2"/><path class="cls-9" d="M38.52,102.67c-.44.29-.52.83-.85,1.2"/><path class="cls-9" d="M33.76,41.34c-.14.22.05.5-.15.7"/><path class="cls-9" d="M33.76,41.34c-.14.22.05.5-.15.7"/><path class="cls-7" d="M25.51,36.59c.39,1.55.75,2.77,3.5,4.6,1.65,1.1,3,1.2,4.63,0,1.15-.87,3.27-2.4,3.66-4.6.47-2.67.85-7-2.33-9.2a7.48,7.48,0,0,0-7.71,0c-1.12.76-2.52,2.75-2.22,6.48A17.28,17.28,0,0,0,25.51,36.59Z"/><path class="cls-6" d="M29,26.07s-2.89-.81-3.94,3.47.74,6.4.74,6.4-.53-2.85,0-3.55,2.39-2.25,2.74-2.78,1.9-2.6,3.94-2.07,1.62,3.44,1.76,3.94.14,1.79.84,1.79,1.62-.6,1.83-.18a2.67,2.67,0,0,1,.28,2.46c-.42,1.48,1.68-2.77,1.26-4.18s-.91-4.36-4.18-6.08A4.19,4.19,0,0,0,29,26.07Z"/><path class="cls-10" d="M29,37.43s.72,2.36,2.45,2.42,2.46-2.27,2.46-2.27a14.85,14.85,0,0,1-2.46.37A6.75,6.75,0,0,1,29,37.43Z"/><path class="cls-11" d="M27.23,77.35l0,0A.05.05,0,0,0,27.23,77.35Z"/><path class="cls-11" d="M35.66,77c.56-.57.77-1.15.39-1.42a.61.61,0,0,0-.73.06,1.87,1.87,0,0,0-1.24.49c-.39.46-.92.34-1.43-.27a1.63,1.63,0,0,0-1.22-.55,1.61,1.61,0,0,0-1.21.55c-.51.61-1.09.77-1.43.27s-1.25-.49-1.25-.49a.59.59,0,0,0-.72-.06c-.38.27-.17.85.39,1.42a.69.69,0,0,1,0,.35l.17-.29s0,.26.13.3,0-.19,0-.19l.41-.5s-.78-.09-.76-.52.36-.18.36-.18a1.4,1.4,0,0,1,.8.15c.34.2.63.66.83.63s.71-.3.75.19.1.59.25.7.61.52.44.84A1.41,1.41,0,0,0,30.71,80,3.45,3.45,0,0,1,31,81.89h.89A3.45,3.45,0,0,1,32.16,80a1.4,1.4,0,0,0,.1-1.52c-.16-.32.3-.74.45-.84s.21-.21.25-.7.55-.22.75-.19.47-.46.83-.63a1.54,1.54,0,0,1,.68-.14s.46-.26.48.17-.76.52-.76.52l.36.46s-.1.22,0,.18.1-.24.1-.24l.15.28C35.53,77.22,35.66,77,35.66,77Z"/><path class="cls-12" d="M35.92,75.6s-.28-.21-.68.12a1.32,1.32,0,0,0-.62.09,2.24,2.24,0,0,0-.72.55c-.07.13-.39.18-.5.15a6.75,6.75,0,0,0-1.92-.25h-.13a6.75,6.75,0,0,0-1.92.25c-.11,0-.43,0-.5-.15a2.24,2.24,0,0,0-.72-.55,1.32,1.32,0,0,0-.62-.09c-.4-.33-.68-.12-.68-.12-.52.51.07,1.12.26,1.25a.35.35,0,0,1,.1.39c.05,0,.15-.27.15-.27a.63.63,0,0,0,.08.29.42.42,0,0,1,0-.22l.31-.34h0a.88.88,0,0,1-.31-.06.6.6,0,0,1-.39-.7.2.2,0,0,1,.36-.07c.18.16.17.06.56.11s.48.18.79.51.61.09.73.1a4.05,4.05,0,0,1,.85-.1c.44,0,.51.45.54.81a1.2,1.2,0,0,0,.26.64c.17.13.11.44.1.56s-.14.66-.14.73a.6.6,0,0,1,0,.3c0,.1-.49-.11-.49-.11a4.94,4.94,0,0,0,.38,1.17,3.48,3.48,0,0,1,.07,1.27h.57a3.48,3.48,0,0,1,.07-1.27,4.94,4.94,0,0,0,.38-1.17s-.45.21-.49.11a.6.6,0,0,1,0-.3c0-.07-.13-.62-.14-.73s-.07-.43.1-.56a1.2,1.2,0,0,0,.26-.64c0-.36.1-.77.54-.81a4.05,4.05,0,0,1,.85.1c.12,0,.42.24.73-.1a1.24,1.24,0,0,1,.8-.48c.39-.09.37,0,.55-.14a.2.2,0,0,1,.36.07.54.54,0,0,1-.39.7.88.88,0,0,1-.31.06h0l.31.34a.33.33,0,0,1,0,.22.63.63,0,0,0,.08-.29s.1.25.15.27a.35.35,0,0,1,.1-.39C35.85,76.72,36.44,76.11,35.92,75.6Z"/><path class="cls-13" d="M27.33,77l0-.09.07,0,.05-.13h.12l0,0,.1-.05s-.9-.29-.51-.87a.21.21,0,0,1,.26-.06c.1,0,.14.18.23.16a1.42,1.42,0,0,1,1.2.44,1.24,1.24,0,0,0-1.17-.59.27.27,0,0,1-.22-.1.42.42,0,0,0-.69.18c-.14.43.28.83.42,1S27.34,76.94,27.33,77Z"/><path class="cls-13" d="M35.53,77l0-.09-.07,0,0-.13h-.13l0,0-.1-.05s.89-.3.5-.88a.19.19,0,0,0-.24-.06c-.1,0-.18.17-.28.16a1.44,1.44,0,0,0-1.23.51,1.21,1.21,0,0,1,1.16-.66s.2,0,.28-.1a.4.4,0,0,1,.67.18c.14.44-.25.82-.39,1S35.52,76.94,35.53,77Z"/><path class="cls-14" d="M32.42,75.91c0,.14-.44.25-1,.25s-1-.11-1-.25.44-.33,1-.33S32.42,75.77,32.42,75.91Z"/><path class="cls-14" d="M30.09,76.68a1.32,1.32,0,0,0,.24,1c.38.42.36.42.35.69s-.28.79.05,1,.4,0,.38-.1a5.23,5.23,0,0,1,.09-1.06c.05-.09-.17-.31-.19-.34a2.55,2.55,0,0,1-.22-.85C30.81,76.69,30.09,76.5,30.09,76.68Z"/><path class="cls-14" d="M32.74,76.68a1.27,1.27,0,0,1-.24,1c-.37.42-.35.42-.35.69s.28.79,0,1-.39,0-.37-.1a5.23,5.23,0,0,0-.09-1.06c-.05-.09.16-.31.18-.34A2.55,2.55,0,0,0,32,77C32,76.69,32.75,76.5,32.74,76.68Z"/><path class="cls-15" d="M29,77.09c0-.11-.18-.26-.18-.26-.26-.4-.81-.17-.81-.17a.7.7,0,0,0-.52.27c-.11.18.11.37.11.37,0,.29.46.23.64.31s.74-.33.74-.33a2.11,2.11,0,0,1,.88-.43.34.34,0,0,0,0-.1A3.14,3.14,0,0,0,29,77.09Z"/><path class="cls-15" d="M33.83,77.09c0-.11.19-.26.19-.26.26-.4.8-.17.8-.17a.7.7,0,0,1,.52.27c.11.18-.11.37-.11.37,0,.29-.46.23-.64.31s-.73-.33-.73-.33a2.13,2.13,0,0,0-.89-.43.3.3,0,0,1,.05-.1A3.17,3.17,0,0,1,33.83,77.09Z"/><path class="cls-13" d="M31.53,78.72s-.05,0-.12,0-.11,0-.11,0,.05,0,.11,0S31.53,78.7,31.53,78.72Z"/><path class="cls-13" d="M31.56,78.91s-.07,0-.14,0-.14,0-.14,0,.06,0,.14,0S31.56,78.89,31.56,78.91Z"/><path class="cls-13" d="M31.59,79.1s-.08.05-.18.05-.17,0-.17-.05.08-.06.17-.06S31.59,79.07,31.59,79.1Z"/><path class="cls-13" d="M31.61,79.28s-.09.06-.2.06-.2,0-.2-.06.09-.06.2-.06S31.61,79.25,31.61,79.28Z"/><path class="cls-13" d="M31.59,79.47s-.08,0-.18,0-.17,0-.17,0,.08,0,.17,0S31.59,79.44,31.59,79.47Z"/><path class="cls-13" d="M30.81,79.59a2.57,2.57,0,0,0,1.21,0Z"/><path class="cls-13" d="M30.81,79.77a2.57,2.57,0,0,0,1.21,0Z"/><path class="cls-13" d="M30.86,80A2.3,2.3,0,0,0,32,80Z"/><path class="cls-13" d="M30.92,80.13a2.08,2.08,0,0,0,1,0Z"/><path class="cls-13" d="M31,80.3a1.37,1.37,0,0,0,.74,0Z"/><path class="cls-13" d="M31.08,80.48a1.19,1.19,0,0,0,.66,0Z"/><path class="cls-13" d="M31.15,80.65a.77.77,0,0,0,.53,0Z"/><path class="cls-13" d="M31.18,80.83a.67.67,0,0,0,.47,0Z"/><path class="cls-13" d="M31.18,81a.74.74,0,0,0,.47,0Z"/><path class="cls-13" d="M31.18,81.17a.67.67,0,0,0,.47,0Z"/><path class="cls-13" d="M31.18,81.35a.67.67,0,0,0,.47,0Z"/><path class="cls-13" d="M31.18,81.52a.71.71,0,0,0,.46,0Z"/><path class="cls-13" d="M31.18,81.7a.74.74,0,0,0,.47,0Z"/><ellipse class="cls-13" cx="31.43" cy="77.09" rx="0.39" ry="0.73"/><ellipse class="cls-5" cx="119.93" cy="136.97" rx="20.1" ry="3.78"/><path class="cls-16" d="M111.26,31.8a2.38,2.38,0,0,0,.4,1.91c.46.76,1.51.56,1.54.36s0-2.56-.32-2.66S111.52,31,111.26,31.8Z"/><path class="cls-16" d="M126.54,31.8a2.38,2.38,0,0,1-.4,1.91c-.46.76-1.51.56-1.55.36s0-2.56.33-2.66S126.28,31,126.54,31.8Z"/><path class="cls-17" d="M116.53,46.29c-2.2-.29-4.4-.63-6.62-.8"/><path class="cls-17" d="M128,45.49c-.89.06-1.77.18-2.64.3s-1.58.17-2.37.28l-1.61.22"/><path class="cls-17" d="M127.62,57.92a3.55,3.55,0,0,1-1.79,1,7.6,7.6,0,0,1-2.59.37,1.47,1.47,0,0,0-.36,0"/><path class="cls-17" d="M110.22,58a5.91,5.91,0,0,0,3.13,1.26,10.39,10.39,0,0,0,1.57.08"/><path class="cls-16" d="M128.87,53.45c0,.51.13,1,.14,1.52a13.61,13.61,0,0,1-.68,4.11,14,14,0,0,0-.58,3.58c0,.12,0,.24,0,.36-.14,2.45,0,4.92-.09,7.37a25.57,25.57,0,0,0,.22,5.1c0,.24,1,8.18,1,8.41a60.45,60.45,0,0,1,.15,6.17c0,1.59-.2,3.16-.39,4.73-.11.92-.25,1.83-.42,2.74-.13.74-.22,1.49-.36,2.23-.2,1-.36,2.06-.55,3.08a12.44,12.44,0,0,0-.18,2.11c0,1,0,2.06,0,3.08a16.39,16.39,0,0,0,.52,3,14.42,14.42,0,0,1,.28,4.29,29.18,29.18,0,0,1-.86,4.79c-.7,2.91-1.68,5.73-2.43,8.62-.23.92-.45,1.85-.67,2.78a1.74,1.74,0,0,0,.17,1.3c.14.23.27.47,0,.71-.13.11-.06.24,0,.41A7,7,0,0,0,126,136a6.12,6.12,0,0,0,1.16.86c.25.13.24.52,0,.75a.43.43,0,0,1-.71,0c-.05,0-.06-.12-.14-.13l.26.31a.67.67,0,0,1-.66.26c-.45-.1-.81.24-1.21.22a3.81,3.81,0,0,0-1.57.18c-.27.09-.55-.13-.8-.26l-.14-.35c.16.32.12.45-.18.48a2.09,2.09,0,0,1-1.38-.27.78.78,0,0,1-.32-.93,5.68,5.68,0,0,0,.13-1.79,22.66,22.66,0,0,1,.21-4.87c.17-1.46.22-2.92.32-4.39.08-1.24,0-2.5,0-3.75a5.76,5.76,0,0,0-.11-1.25,19.7,19.7,0,0,1-.46-3.67,23.45,23.45,0,0,1,.21-4.43,25.56,25.56,0,0,0,.35-2.77,6,6,0,0,0-.07-1.88,14.58,14.58,0,0,1-.52-4.69,8.6,8.6,0,0,0-.14-2.1c-.17-1.13-.27-2.27-.4-3.4s-.21-2.35-.31-3.53c-.12-1.43-.19-2.86-.28-4.29-.07-1-.1-2-.15-3a.7.7,0,0,0-.08-.23H119a2.54,2.54,0,0,0-.18,1.12c0,1.91-.12,3.82-.26,5.72-.09,1.29-.22,2.57-.38,3.85s-.41,2.83-.58,4.24a9.83,9.83,0,0,0,0,1.8,14.64,14.64,0,0,1-.14,2.19c-.08,1.29-.6,2.52-.48,3.84.08.89.24,1.76.38,2.64s.2,1.52.25,2.28a20.32,20.32,0,0,1,0,3.4c-.1,1.06-.25,2.11-.4,3.17a9.75,9.75,0,0,0-.13,1.52c0,1-.17,2-.08,3,.15,1.77.1,3.55.34,5.32a33.68,33.68,0,0,1,.1,4.38,7.55,7.55,0,0,0,.17,1.57c.14.58-.2,1-.89,1.2a2.42,2.42,0,0,1-.71,0,1.69,1.69,0,0,0-1,.11c-.22.11-.48-.09-.7-.14a3,3,0,0,0-.59,0c-.38,0-.8.13-1.12-.21l.09-.18c-.28.31-.66.2-1,.16a3.11,3.11,0,0,1-.89-.37c-.4-.17-.3-.64.17-.95a8.89,8.89,0,0,0,2.73-2.73c.11-.18.19-.35,0-.54s-.11-.47,0-.66a1.65,1.65,0,0,0,.21-1.08,15.92,15.92,0,0,0-.53-2.37c-.63-2.47-1.41-4.89-2.1-7.33-.4-1.42-.78-2.84-1-4.29-.17-.94-.26-1.88-.37-2.82a11.12,11.12,0,0,1,.16-3.31c.16-.93.35-1.86.58-2.77a11.46,11.46,0,0,0,.07-2.55,16,16,0,0,0,0-2.59c-.24-1.77-.57-3.53-.88-5.28s-.55-3.33-.75-5c-.14-1.31-.22-2.62-.27-3.93-.07-2,.09-3.91.18-5.86,0-.21,1-7.72,1-8a23.55,23.55,0,0,0,.27-3.66c0-1-.08-2-.08-2.95,0-1.6,0-3.19,0-4.79,0-.16.05-.34-.08-.49L109,53.54c-.11-.14-.11.92-.13,1.38a11,11,0,0,0,.41,3.13,26.1,26.1,0,0,1,.81,3.71,5,5,0,0,1-.1,1.9v.07a27.05,27.05,0,0,0-.76,2.77,9.51,9.51,0,0,0-.36,3.27,12.14,12.14,0,0,1-.13,3c-.17,1-.39,2-.63,3a38.28,38.28,0,0,0-.92,4.38,8.06,8.06,0,0,0,.37,3.09,8,8,0,0,1,.55,2.77c-.08.85,0,1.7-.18,2.55a.86.86,0,0,1-.4.67l-1.7.76a1.1,1.1,0,0,1-1-.46,6,6,0,0,1-1.35-2.45,1.92,1.92,0,0,1-.06-.89,29.62,29.62,0,0,1,.86-4.39.4.4,0,0,0,0-.35.86.86,0,0,1,0-1,.92.92,0,0,0,.12-.76,2.25,2.25,0,0,1-.07-.68c0-.48-.06-1-.09-1.43-.11-1.64-.18-3.28-.27-4.92a12.9,12.9,0,0,1,.08-1.52,16,16,0,0,1,.32-2.28c.16-.79.4-1.57.53-2.37.22-1.45.23-2.92.31-4.38.06-.95.09-1.91.09-2.86a5.83,5.83,0,0,0-.11-1.61,22.85,22.85,0,0,1-.85-4.7,10.94,10.94,0,0,1,.54-4.7,4.45,4.45,0,0,1,2.66-2.72c1-.36,2-.55,2.9-.87A15.73,15.73,0,0,0,114,42.85a2,2,0,0,0,1.07-1.43c.08-.73.19-1.46.26-2.19s.13-1.64.19-2.46l6.75-.09c0,.7.09,1.4.17,2.1a23,23,0,0,0,.47,3,1.83,1.83,0,0,0,.88,1,13.94,13.94,0,0,0,4.65,2.17,11.85,11.85,0,0,1,2.55.88,4.45,4.45,0,0,1,2.23,3,12.47,12.47,0,0,1,.26,5,26.64,26.64,0,0,1-.83,4.16,1.42,1.42,0,0,0-.05.54,10.71,10.71,0,0,1,0,1.39c0,2,.14,4,.28,5.94a21,21,0,0,0,.57,2.82,19.66,19.66,0,0,1,.42,5c0,.82-.05,1.65-.1,2.46s-.13,1.64-.18,2.46c0,.52-.07,1-.09,1.57a.33.33,0,0,0,.08.31.78.78,0,0,1,0,1,.62.62,0,0,0,0,.5,29.69,29.69,0,0,1,.82,4.2,5.71,5.71,0,0,1,.08.71l-.09,0a6.72,6.72,0,0,1-1.22,2.54,1.18,1.18,0,0,1-1.06.54l-1.79-.71c-.33-.15-.37-.47-.45-.76a11.71,11.71,0,0,1-.13-2.51,5.53,5.53,0,0,1,.31-2,9.54,9.54,0,0,0,.63-3.26c0-.49-.09-1-.14-1.47l0-.14c-.13-.14,0-.32-.08-.49-.25-.93-.45-1.88-.68-2.82s-.48-2-.65-3A12.44,12.44,0,0,1,129,70.3a10.79,10.79,0,0,0-.06-2.54,35.56,35.56,0,0,0-1-4"/><path class="cls-17" d="M122.21,37.89c-.23,1.28-.58,2.53-.9,3.8a.76.76,0,0,1-.09.18"/><path class="cls-17" d="M117.87,46.47c.31.21.38.59.62.86.52.59,1,.55,1.44-.23"/><path class="cls-17" d="M125.2,107.28a3.51,3.51,0,0,1-1.47.73,1.61,1.61,0,0,1-.58,0"/><path class="cls-17" d="M124.31,56.31c.12.24.27.45.58.4s.37-.15.36-.4"/><path class="cls-17" d="M112.59,56.31c.3.56.51.57.94,0"/><path class="cls-17" d="M118.5,71.87c.26.54.53.57.94.09"/><path class="cls-16" d="M115.55,137.87l0,.35"/><path class="cls-16" d="M112.88,34.11c.39,1.58.76,2.81,3.55,4.67,1.68,1.12,3.09,1.22,4.7,0,1.18-.88,3.33-2.43,3.72-4.67.48-2.71.87-7.08-2.37-9.35a7.61,7.61,0,0,0-7.83,0c-1.14.78-2.55,2.8-2.25,6.58A16.64,16.64,0,0,0,112.88,34.11Z"/><path class="cls-18" d="M113.67,30c.5-.81.82-2.95,2.2-2.8,2,.21,1.28.08,2.89-1.14,1.18-.88,1.42.8,3.67,1.11,1.06.15,2.73,5,2.74,3.9,0-2.28-.51-4.76-2.69-6.28a7.61,7.61,0,0,0-7.83,0c-1.14.78-2.6,2.8-2.25,6.58C112.43,31.67,113.12,30.85,113.67,30Z"/><path class="cls-10" d="M115.76,35s.88,2.36,3,2.41,3-2.27,3-2.27a23,23,0,0,1-3,.38A10.25,10.25,0,0,1,115.76,35Z"/><path class="cls-16" d="M105.57,87.56a2.57,2.57,0,0,1,.23.76,2.92,2.92,0,0,0,.92,1.64A9.4,9.4,0,0,1,108,91.4a.29.29,0,0,0,.14-.35,4.29,4.29,0,0,0-.88-2,1.37,1.37,0,0,1-.22-1,7.73,7.73,0,0,0-.42-2"/><path class="cls-16" d="M107.63,91.05a.13.13,0,0,1-.17,0A4.69,4.69,0,0,1,105.87,90c-.3-.38-.74-.64-.91-1.18a5.44,5.44,0,0,0-.68-1.66"/><path class="cls-16" d="M133.48,87.21a6.3,6.3,0,0,1-1.35,2.71,5.57,5.57,0,0,1-2.36,1.37,1.11,1.11,0,0,1,.08-.82,7.14,7.14,0,0,1,.71-1.44,1.14,1.14,0,0,0,.22-.66,9.3,9.3,0,0,1,.46-2.46"/><path class="cls-16" d="M130.21,91.05c.09-.42.46-.63.73-.88a3,3,0,0,0,1.12-2,.78.78,0,0,1,.3-.67"/><path class="cls-17" d="M116.17,38.42a55.38,55.38,0,0,0,1.3,6.4"/><path class="cls-17" d="M112.59,107.37a3.18,3.18,0,0,0,1.88.77,3.64,3.64,0,0,0,1.08-.32"/><path class="cls-17" d="M119,85.42,119,87"/><path class="cls-19" d="M119.23,80.16A1.75,1.75,0,0,0,118,82.89c.64,1.16.26,3.52.26,4.12s-.15.63-.15,1a4.92,4.92,0,0,0,.72,1.78c.16.13.4,0,.4,0a.42.42,0,0,0,.41,0,5.1,5.1,0,0,0,.72-1.78c0-.39-.25-.54-.25-1.14s-.25-2.56.51-3.78A1.87,1.87,0,0,0,119.23,80.16Z"/><path class="cls-20" d="M118.14,81.4c-.52,1.6,2.57,1.53,2.44,0C120.52,80.79,118.64,79.87,118.14,81.4Z"/><path class="cls-21" d="M121.62,80.26c1.88.45.55,4.19.55,6.23s-1,1.05-.73-.68,1.37-4.57-.08-5"/><path class="cls-22" d="M117,80.26c-1.88.45-.54,4.19-.54,6.23s1,1.05.73-.68-1.37-4.57.08-5"/><path class="cls-23" d="M120.65,85.31a1.51,1.51,0,0,1,1.52-.21c.88.37.39,2.24-.13,2.76a1.21,1.21,0,0,1-1.32.11Z"/><path class="cls-24" d="M120.92,85.15c1.47-.43,1.4,2.43.32,2.82C119.91,88.45,119.84,85.46,120.92,85.15Z"/><polygon class="cls-25" points="118.95 89.92 118.95 82.16 118.33 81.76 118.58 81.38 119.2 81.98 119.99 81.38 119.99 81.86 119.45 82.3 119.35 89.92 118.95 89.92"/><ellipse class="cls-26" cx="117.72" cy="80.87" rx="1.04" ry="1.24" transform="translate(-23.77 100.32) rotate(-42.31)"/><ellipse class="cls-27" cx="120.69" cy="80.87" rx="1.24" ry="1.04" transform="translate(-20.35 115.68) rotate(-47.69)"/><path class="cls-28" d="M117.75,85.31a1.52,1.52,0,0,0-1.53-.21c-.87.37-.38,2.24.13,2.76a1.21,1.21,0,0,0,1.32.11Z"/><path class="cls-29" d="M117.47,85.15c-1.47-.43-1.39,2.43-.32,2.82C118.49,88.45,118.56,85.46,117.47,85.15Z"/><path class="cls-30" d="M36.74,29.53a1.25,1.25,0,0,0-1.25-1.43,1.47,1.47,0,0,0-.49.09,1.6,1.6,0,0,0-1.59-1.53,1.54,1.54,0,0,0-1,.35,1.64,1.64,0,0,0-2.76.3,1.44,1.44,0,0,0-.88-.27A1.49,1.49,0,0,0,27.36,29a1,1,0,0,0-.45.14l-.13.1a1.61,1.61,0,0,0,.67,3.05,1.52,1.52,0,0,0,.9-.27,1.49,1.49,0,0,0,1.28.63,1.7,1.7,0,0,0,1.26-.5,1.59,1.59,0,0,0,1.08.4,1.81,1.81,0,0,0,1-.26,2,2,0,0,0,.65.35h0A1.75,1.75,0,0,0,35,32.43c.12-.09.24-.18.35-.28a1.46,1.46,0,0,0,.35-.5,1.15,1.15,0,0,0,.64.18A1.17,1.17,0,0,0,36.74,29.53Z"/><path class="cls-30" d="M123.75,27.3a1.23,1.23,0,0,0-1.25-1.42A1.3,1.3,0,0,0,122,26a1.6,1.6,0,0,0-1.58-1.54,1.63,1.63,0,0,0-1,.35,1.64,1.64,0,0,0-2.76.3,1.42,1.42,0,0,0-.88-.27,1.49,1.49,0,0,0-1.43,1.92,1.3,1.3,0,0,0-.45.14l-.13.1a1.61,1.61,0,0,0,.67,3.05,1.48,1.48,0,0,0,.9-.27,1.51,1.51,0,0,0,1.28.64,1.69,1.69,0,0,0,1.27-.51,1.55,1.55,0,0,0,1.08.4,1.78,1.78,0,0,0,1-.26,1.75,1.75,0,0,0,.66.35h0A1.75,1.75,0,0,0,122,30.2l.36-.27a1.75,1.75,0,0,0,.34-.51,1.1,1.1,0,0,0,.64.19A1.18,1.18,0,0,0,123.75,27.3Z"/><path class="cls-31" d="M35.2,50.44a1.7,1.7,0,0,0-.73,2.12,6.55,6.55,0,0,0,2.88,3.18c.1,0,3.5-1.32,3.5-3.81,0-1.23-.91-1.66-1.91-1.53a6.79,6.79,0,0,0-1.38.73,6.37,6.37,0,0,0-1.1-.63A1.56,1.56,0,0,0,35.2,50.44Z"/><path class="cls-31" d="M122.87,50.44a1.69,1.69,0,0,0-.73,2.12A6.5,6.5,0,0,0,125,55.74c.09,0,3.5-1.32,3.5-3.81,0-1.23-.92-1.66-1.92-1.53a6.46,6.46,0,0,0-1.37.73,6.1,6.1,0,0,0-1.11-.63A1.53,1.53,0,0,0,122.87,50.44Z"/><text class="cls-32" transform="translate(63.57 35.59)">Identidad<tspan x="-1.7" y="6">de géne</tspan><tspan class="cls-33" x="18.84" y="6">r</tspan><tspan x="20.9" y="6">o</tspan></text><text class="cls-34" transform="translate(59.33 21.33)">¿...?</text><text class="cls-32" transform="translate(60.93 54.09)">Orien<tspan class="cls-35" x="12.83" y="0">t</tspan><tspan x="14.83" y="0">ación</tspan><tspan x="6.01" y="6">s</tspan><tspan class="cls-36" x="8.97" y="6">e</tspan><tspan x="11.54" y="6">xual</tspan></text><text class="cls-32" transform="translate(68.88 80.26)">S<tspan class="cls-37" x="3.39" y="0">ex</tspan><tspan class="cls-38" x="8.92" y="0">o</tspan></text><ellipse class="cls-39" cx="31.33" cy="29.75" rx="7.83" ry="4.58"/><ellipse class="cls-39" cx="37.33" cy="52.92" rx="5.5" ry="4.58"/><ellipse class="cls-39" cx="125.05" cy="52.93" rx="5.5" ry="4.58"/><ellipse class="cls-39" cx="118.58" cy="27.86" rx="7.83" ry="4.58"/><ellipse class="cls-39" cx="31.42" cy="77.67" rx="6.75" ry="5.33"/><ellipse class="cls-39" cx="118.92" cy="84.33" rx="6.75" ry="6"/><path class="cls-39" d="M39.17,29.75s12.85-3,21,3.39"/><polygon class="cls-40" points="58.9 33.25 60.09 33.07 59.91 31.89 60.49 32.31 60.67 33.5 59.48 33.68 58.9 33.25"/><line class="cls-39" x1="42.83" y1="52.92" x2="58.76" y2="52.92"/><polygon class="cls-40" points="57.77 53.76 58.61 52.92 57.77 52.07 58.49 52.07 59.33 52.92 58.49 53.76 57.77 53.76"/><line class="cls-39" x1="38.17" y1="78.67" x2="66.26" y2="78.67"/><polygon class="cls-40" points="65.27 79.51 66.11 78.67 65.27 77.82 65.99 77.82 66.83 78.67 65.99 79.51 65.27 79.51"/><path class="cls-39" d="M111,28.92s-13.54-3-22.16,3.4"/><polygon class="cls-40" points="89.22 31.07 89.02 32.25 90.2 32.46 89.61 32.88 88.43 32.67 88.63 31.49 89.22 31.07"/><line class="cls-39" x1="119.55" y1="52.92" x2="91.24" y2="52.92"/><polygon class="cls-40" points="92.23 52.07 91.39 52.92 92.23 53.77 91.51 53.77 90.67 52.92 91.51 52.07 92.23 52.07"/><path class="cls-39" d="M112.59,82.23c-10-5-25.7-3.9-28.86-3.62"/><polygon class="cls-40" points="84.67 77.7 83.88 78.61 84.79 79.4 84.08 79.45 83.17 78.67 83.95 77.76 84.67 77.7"/></g></g></svg>