<svg xmlns="http://www.w3.org/2000/svg" viewBox="0 0 150 150"><defs><style>.cls-1{isolation:isolate;}.cls-2{fill:#d6f2d1;opacity:0.4;mix-blend-mode:multiply;}.cls-3{fill:#eaeab7;}.cls-4{fill:#78c157;}.cls-5{fill:#f16533;}.cls-6{fill:#ce4f29;}.cls-7{fill:#954e21;}.cls-8{fill:#f37b58;}.cls-9{fill:#8fc96d;}.cls-10{fill:#a9602f;}.cls-11{fill:#783a18;}.cls-12{fill:#7b3c19;}.cls-13{fill:#f7a084;}.cls-14{fill:#2e76bb;}.cls-15{fill:#171115;}.cls-16{fill:#292528;}.cls-17{fill:#4a91cd;}.cls-18{fill:#949798;}.cls-19{fill:#464949;}.cls-20{fill:#6b6c6d;}.cls-21{opacity:0.11;}.cls-22{fill:#393d3d;}.cls-23{fill:#7ff4d5;}.cls-24{opacity:0.33;}.cls-25{opacity:0.12;}.cls-26{fill:#8fc5b8;}.cls-27{fill:#563428;}.cls-28{fill:#472a22;}.cls-29{fill:#ed8a74;}.cls-30{fill:#ed8b74;}.cls-31{fill:#857069;}.cls-32{fill:#683f33;}.cls-33{fill:#8a736a;}.cls-34{fill:#7d6862;}.cls-35{fill:#8f7972;}.cls-36{fill:#d4cac6;}.cls-37{fill:#7c6258;}.cls-38{fill:#7c6459;}.cls-39{fill:#594039;}.cls-40{fill:#f7d2c8;}.cls-41{fill:#8e7771;}.cls-42{fill:#7b6057;}.cls-43{fill:#948079;}.cls-44{fill:#83695f;}.cls-45{fill:#f4b6a7;}.cls-46{fill:#765d54;}.cls-47{fill:#907a73;}.cls-48{fill:#462014;}.cls-49{fill:#4a2518;}.cls-50{fill:#42271d;}.cls-51{fill:#7f483a;}.cls-52{fill:#814a3b;}.cls-53{fill:#c07c66;}.cls-54{fill:#a05f4d;}.cls-55{fill:#be715c;}.cls-56{fill:#bb7a64;}.cls-57{fill:#8e5a48;}.cls-58{fill:#b6755f;}.cls-59{fill:#7b493b;}.cls-60{fill:#c27d67;}.cls-61{fill:#854;}.cls-62{fill:#bc7964;}.cls-63{fill:#8e5946;}.cls-64{fill:#c37d65;}.cls-65{fill:#db8d74;}.cls-66{fill:#c66d58;}.cls-67{fill:#f88b72;}.cls-68{fill:#f89279;}.cls-69{fill:#462a21;}.cls-70{fill:#af715c;}.cls-71{fill:#925d4d;}.cls-72{fill:#c27c66;}.cls-73{fill:#7c4d3f;}.cls-74{fill:#c6806a;}.cls-75{fill:#31150d;}.cls-76{fill:#bb735d;}.cls-77{fill:#865443;}.cls-78{fill:#825244;}.cls-79{fill:#8b5748;}.cls-80{fill:#f7967c;}.cls-81{fill:#fff;}.cls-82{fill:none;stroke:#320f00;stroke-linecap:round;stroke-linejoin:round;stroke-width:0.25px;}</style></defs><title>Mesa de trabajo 1</title><g class="cls-1"><g id="Capa_1" data-name="Capa 1"><path class="cls-2" d="M145,57a21.83,21.83,0,0,0,2.11-8.3c.28-7-2.52-13.29-6.63-18.74-8.05-9.82-21-13.38-33.24-11.85a61.75,61.75,0,0,0-25.3,9.3c-6.44,4.14-13.15,11.6-21,13S45.65,35.52,38.31,33.9c-6.83-1.5-14.12-2-21-.41C5.5,36.28-1.41,45.83.64,58c.73,4.29,6,7.33,5.07,9.52-12.95,29.13,12.36,41,40.68,49.32,60.13,17.65,85.52,6.26,96.81-5.06,5.26-5.28,7.29-13.47,6.7-20.74-.53-6.72-3.42-13.26-9.63-16.46a9.74,9.74,0,0,1-2.6-1.6C133.74,69,143.41,60.48,145,57Z"/><path class="cls-2" d="M133.13,63.57a20.2,20.2,0,0,0,2.24-7.34c.64-6.69-1.85-12.38-5.29-17.9-7-9.42-18.66-13.25-30-12.34a52,52,0,0,0-22.58,7.56C71.45,37.12,65,43.76,57.77,44.74s-13.83-5.2-20.49-7c-6.2-1.68-12.85-2.47-19.21-1.25C7.12,38.6.39,47.16,1.79,58.51c.49,4,5.23,7,4.25,9C-7,94,15.71,106,41.32,114.9c54.39,18.81,77.14,9.31,87.94-.71,5.34-5,7.67-13.43,7.09-20.53a16.59,16.59,0,0,0-4.5-10.43c-2.91-2.88-8.39-5.08-6.28-9.92C127.23,69.48,131.26,67.24,133.13,63.57Z"/><path class="cls-2" d="M122.08,67.88a16.47,16.47,0,0,0,2.26-6,21.51,21.51,0,0,0-4.13-15.5c-6-8.26-16.37-12-26.6-11.6a53.19,53.19,0,0,0-21.52,5.54c-5.59,2.81-11.64,8.2-18.19,8.76s-12.29-4.93-18.24-6.71a41.14,41.14,0,0,0-17.28-1.78C8.43,41.93,2.07,49,2.93,58.63c.31,3.41,4.48,6.16,3.53,7.82-12.69,22,7.37,33,30.16,41.51,48.39,18,70.12,10.83,80.21,2.73,8.69-7,10.26-22.87.19-29.49C110.67,77,119.73,71.83,122.08,67.88Z"/><circle class="cls-3" cx="75.5" cy="44.5" r="4.5"/><circle class="cls-3" cx="57" cy="52" r="3"/><circle class="cls-3" cx="66" cy="49" r="4"/><path class="cls-4" d="M101,127.39c.09,1.19-2.21,1.58-3,1.47s-2.32-.69-2.52-1.7.73-1.5,1.38-.51c-.66-1.7,1.24-3.3,1.55-1.17,0,.11,0,.11,0,0,.2-.51.55-2.16,1.36-2.15,1.13,0,.55,1.76.12,2.26,1.87-1.32,3.75.31,1,1.42C100.94,127.12,101,127.29,101,127.39Z"/><path class="cls-5" d="M101.83,132.13a14,14,0,0,1-.5,2.89c-.39,1.29-1.1,2.43-2.4,2.43-1.75,0-2.57-2.93-2.85-4.26a9,9,0,0,1-.35-3c.4-2.16,2.46-2.46,4.21-2.27h0C102.64,128.19,102.06,129.78,101.83,132.13Z"/><path class="cls-6" d="M101.83,132.13a14,14,0,0,1-.5,2.89,1.73,1.73,0,0,1-1.26.54c-1.35-.08-.42-1.49-.28-2.23a.91.91,0,0,0,0-.63c-.05-.11-.32-.22-.32-.29,0-.23,1-.4,1.17-.51a8.68,8.68,0,0,1,0-1.46c-.34-.13-.73-.05-1.06-.16.24-.67,1.23-.11,1.21-1.11,0-.63-.39-.91-.77-1.29h0C102.64,128.19,102.06,129.78,101.83,132.13Z"/><path class="cls-4" d="M117.1,128.34a4.78,4.78,0,0,1-2.77-1.47c-.7-1.33.5-1.57,1.51-.82-1.73-1.67.06-3.84.82-1.55a1.8,1.8,0,0,1,.9-2.08,1.63,1.63,0,0,1,.36,1.78c.91-1.17,1.74.22.44,1.25,1.38-.94,1.38.55.17,1.24a1.56,1.56,0,0,1,1.92,0c-.73,1.21-2.14,1.78-3.2,2.58Z"/><path class="cls-4" d="M106.19,128.34c-2.31.22-2-2.7-.17-1.54-.46-.84-1-2-.14-2.84a2.55,2.55,0,0,1,.92,1.22c0-1.16-.07-2.32.8-3.18,1.13.44,1,2.18.74,3.14,1.49-1.25,2.32-.29.75.75a4.27,4.27,0,0,1,1.48-.1,2,2,0,0,1-1,1.08c.33-.09.56.13.9.26-.62,1.05-2.12,1.64-3.19,2.12Z"/><path class="cls-5" d="M120.22,132.13c-.14,1.56-.52,5-2.64,5.31h-.26c-1.75,0-2.57-2.93-2.85-4.26a9,9,0,0,1-.35-3c.35-1.91,2-2.37,3.6-2.31a4.62,4.62,0,0,1,.65,0C121,128.19,120.44,129.78,120.22,132.13Z"/><path class="cls-6" d="M120.22,132.13c-.14,1.56-.52,5-2.64,5.31a2.19,2.19,0,0,0,.16-.3c.15-.38,0-.86.16-1.17.06-.14.28-.23.32-.34s-.06-.28,0-.46a2,2,0,0,1,.54-.79,7.41,7.41,0,0,1,.06-1.56c0-.22-.16-.47-.16-.66s.18-.39.15-.66c-.36-.07-.75,0-1.11-.12a2.07,2.07,0,0,1,1-.35c.06-.21,0-.36,0-.55s.16-.51.16-.51c-.06-.37-.42-.23-.81-.32.17-.18.48-.18.7-.3-.12-.45,0-.73-.36-1.06a5.32,5.32,0,0,0-.68-.45,4.62,4.62,0,0,1,.65,0C121,128.19,120.44,129.78,120.22,132.13Z"/><path class="cls-5" d="M110.52,132.13c-.16,1.62-.56,5.31-2.9,5.32a1.21,1.21,0,0,1-.43-.06c-1.46-.42-2.17-3-2.43-4.2a9,9,0,0,1-.35-3c.38-2.09,2.33-2.44,4-2.29l.23,0C111.33,128.19,110.74,129.78,110.52,132.13Z"/><path class="cls-6" d="M110.52,132.13c-.16,1.62-.56,5.31-2.9,5.32a1.21,1.21,0,0,1-.43-.06,6.6,6.6,0,0,0,.7-.67,6,6,0,0,0,.87-2.06c.15-.68.5-1.68,0-2.24-.12,0-.21-.09-.32-.11a.8.8,0,0,1,.58-.21c0-.27.11-.49.1-.75-.57-.08-1.1,0-1.67-.07a1.91,1.91,0,0,1,1.12-.54c.4-.1.28,0,.45-.31a1.17,1.17,0,0,0,.1-.55,2.6,2.6,0,0,1-.86-.32c.2-.33.72-.14.88-.39s-.16-.55-.28-.71-.42-.41-.45-.6l.23,0C111.33,128.19,110.74,129.78,110.52,132.13Z"/><path class="cls-7" d="M125.05,138.51c-9.47,1.52-23.7,1.05-34.12.89-10.16-.15-20.46-.45-30.69-.44-4.77,0-9.52.08-14.23.27-7.74.3-24.06,1-27.4-1.83h0c-2.53-2.14,3.46-2.93,8.83-3,3.73-.06,7.16.22,7.23.62-.21-1.23,1.76-2,4.63-2.32a48.42,48.42,0,0,1,7.28-.24,53.07,53.07,0,0,1,8.41.89,5.61,5.61,0,0,1,1.57-.72c3.72-1.17,11-1,15.18.05a11.62,11.62,0,0,1,1.68.52c1.06-.2,2.34-.37,3.73-.5a56.41,56.41,0,0,1,13.94.25,13.39,13.39,0,0,1,2.09.55,45.77,45.77,0,0,1,13.41-.27,8.09,8.09,0,0,1,3.82,1.22,1,1,0,0,1,.28.38c-.24-.62,5.11-.56,10.24-.07C128.14,135.41,134.94,136.93,125.05,138.51Z"/><path class="cls-8" d="M96.9,129.81l.12,0,.1,0,.23-.1.1,0a.38.38,0,0,0,.13-.09.33.33,0,0,0,0-.46.51.51,0,0,0-.69.06,1.24,1.24,0,0,0-.18.22.38.38,0,0,0-.06.13.15.15,0,0,0,0,.09c0,.08,0,.09,0,.06a.21.21,0,0,0,.26.2Z"/><path class="cls-8" d="M96.69,130.72l0,.05a.12.12,0,0,0,.15.16l.06,0a.14.14,0,0,0,0-.21.13.13,0,0,0-.21,0Z"/><path class="cls-8" d="M105.37,129.58c-.09,0-.1,0,0,0a.23.23,0,0,0,.18,0l.17-.09.4-.17a.35.35,0,0,0,.25-.33.34.34,0,0,0-.34-.34,1,1,0,0,0-.7.39.71.71,0,0,0-.13.34.27.27,0,0,0,0,.12c0,.05.05.06,0,0a.15.15,0,0,0,.14.07Z"/><path class="cls-8" d="M105.5,130.07a.24.24,0,0,0-.31.16.26.26,0,0,0,.19.31.24.24,0,0,0,.26-.11.23.23,0,0,0-.08-.31l-.09,0,0,0,.08.07,0,.12h0l0,.12-.07.07h0a.2.2,0,0,0,.15-.2.22.22,0,0,0-.15-.2Z"/><path class="cls-8" d="M114.83,129.82a2.36,2.36,0,0,0,.59-.26c.26-.1.63-.09.77-.37a.33.33,0,0,0,0-.42c-.48-.48-1.62.35-1.45,1a.12.12,0,0,0,.14.07Z"/><path class="cls-8" d="M114.79,130.43a.11.11,0,0,1,0,0v-.06a.66.66,0,0,0,0,.14.21.21,0,0,0,.06.1.21.21,0,0,0,.36-.11.49.49,0,0,0,0-.12.22.22,0,0,0-.22-.22.21.21,0,0,0-.21.22Z"/><path class="cls-9" d="M107.42,123.25a.48.48,0,0,0-.29.23.56.56,0,0,0,0,.49.47.47,0,0,0,.43.33.45.45,0,0,0,.45-.45c0-.29-.19-.66-.54-.6Z"/><path class="cls-9" d="M106,125.37a.39.39,0,0,0,0,.24l0,.12a.34.34,0,0,0,.08.09.27.27,0,0,0,.27.07.24.24,0,0,0,.12-.07.21.21,0,0,0,.07-.12.33.33,0,0,0,0-.24.31.31,0,0,0,0-.12s0,0,0,0l0,.06h0a.35.35,0,0,0-.08-.13.28.28,0,0,0-.2-.08.29.29,0,0,0-.28.21Z"/><path class="cls-9" d="M97.38,125.05c-.37.25-.24,1,.11,1.2s.55-.09.45-.35a2.81,2.81,0,0,1-.19-.39,1.39,1.39,0,0,0-.17-.44.16.16,0,0,0-.2,0Z"/><path class="cls-9" d="M96.07,127.12a.5.5,0,0,0,.06.24.33.33,0,0,0,.21.19.21.21,0,0,0,.26-.26.21.21,0,0,0-.07-.12l0,0s0,0,0,0l0,0s0,0,0,0v0c0,.06,0,0,0,0a.23.23,0,0,0-.23-.22.22.22,0,0,0-.22.22Z"/><path class="cls-9" d="M115.49,124.25a.83.83,0,0,0,.16.89c.13.13.4,0,.33-.19a2.29,2.29,0,0,1-.22-.62c0-.14-.2-.21-.27-.08Z"/><path class="cls-9" d="M114.74,126.46v0l0-.16a.4.4,0,0,0,.18.39c.17.13.4.23.59.06a.24.24,0,0,0,.06-.23.46.46,0,0,0-.36-.28c-.08,0,0,0,0,0l-.11,0a.31.31,0,0,0-.19,0l.15,0h0a.19.19,0,0,0-.26.27Z"/><path class="cls-10" d="M95.73,134.92c.36,0,0,0-.07-.06a1.06,1.06,0,0,0-.5,0,1.54,1.54,0,0,0-.58.23,1.92,1.92,0,0,0-.8,1.56,1.16,1.16,0,0,0,2,.81,6.31,6.31,0,0,0,.52-.62,1.86,1.86,0,0,0,.31-.55,1.62,1.62,0,0,0,0-.62c.06.42,0-.07,0-.15V136l0-.06a1,1,0,0,0-1.38-1.06l0,0,.48-.13c-.11,0-.49,0-.24,0h-.07a.6.6,0,0,0-.29.08,1.48,1.48,0,0,0-.59.49,6.08,6.08,0,0,0-.47.66l2.14.58c0-.05,0-.56,0-.59s-.08.24-.08.24.2-.27.23-.31l-.44.33.13,0C96.74,136.13,96.48,135,95.73,134.92Z"/><path class="cls-10" d="M96,135.13l-.07.1c-.61.85.55,1.82,1.36,1.36a1.41,1.41,0,0,0,.37-.27c.51-.55.2-1.74-.68-1.64a2.28,2.28,0,0,0-.69.19l1.46.6,0-.11A1,1,0,0,0,96,135.13Z"/><path class="cls-10" d="M101.06,132.78a1.66,1.66,0,0,0-1.54.45,1.13,1.13,0,0,0,.49,1.87,2.7,2.7,0,0,0,.75,0,1.32,1.32,0,0,0,1.2-.91l.09-.23a1.21,1.21,0,0,0-.7-1.44,1.23,1.23,0,0,0-1.53.5l1.38-.56a1.23,1.23,0,0,0-1.38.56l-.13.22.74-.57a2.34,2.34,0,0,0-.5.25c-.42.25.22-.09-.19.09l1.68,1c0-.13,0-.12,0,0s.11-.14.11-.14A.74.74,0,0,0,101.06,132.78Z"/><path class="cls-10" d="M102.47,133.51c-.39-.16-.62,0-.88.31-.57.61.18,1.7.93,1.2a1.54,1.54,0,0,0,.55-.61c.49-1-1-1.85-1.48-.87a1.51,1.51,0,0,0-.22.82l1.31-.54c0,.05.06,0,0,0l-.12.47.06-.08A.41.41,0,0,0,102.47,133.51Z"/><path class="cls-10" d="M107.42,135.73c-.08.25-.06.21.06-.11a.1.1,0,0,1,0,.08c-.11.09,0,0,.17-.24,0,.08,0,.06.12-.07l-2.15-1.26c-.15.75-.06,2,.85,2.2s1.52-.81,1.64-1.51a1.3,1.3,0,0,0-2.15-1.25,1.83,1.83,0,0,0-.7,1.65,1.56,1.56,0,0,0,1,1.22A.84.84,0,0,0,107.42,135.73Z"/><path class="cls-10" d="M107.56,132.1a1.38,1.38,0,0,0-1.36.38,1.05,1.05,0,0,0,.74,1.78c.54,0,1.16-.18,1.29-.8l-.41.54.05,0a.87.87,0,0,0,0-1.48l-.05,0,.41.54c-.13-.62-.75-.78-1.29-.81l.74,1.79c.11-.09.19-.2.3-.29A1,1,0,0,0,107.56,132.1Z"/><path class="cls-10" d="M112.6,132.38a1.37,1.37,0,0,0-1.2,0,1.64,1.64,0,0,0-.81,1c-.24.75.73,1.6,1.41,1.09.52-.4,1.12-.71,1.15-1.43a.86.86,0,0,0-.61-.81c-.65-.16-1,.22-1.51.58l1.41,1.08a.29.29,0,0,1,.1-.25c-.09.12-.09.14,0,.07a.69.69,0,0,1,.13-.11c.12-.2.16-.23.11-.1C113.28,133.31,113.07,132.53,112.6,132.38Z"/><path class="cls-10" d="M112,134.46a2.27,2.27,0,0,0-1.2.36c-.92.49,0,2,.8,1.37.33-.25.72-.46.83-.88a.51.51,0,0,0-.23-.55,1.79,1.79,0,0,0-1.21,0l.42,1.53a2.33,2.33,0,0,0,1.2-.75C112.91,135,112.45,134.5,112,134.46Z"/><path class="cls-10" d="M110.07,136.1a1.65,1.65,0,0,0-.52.53l.39-.3a1.23,1.23,0,0,0-.49.32l1.28,1a2,2,0,0,0,.24-.53,2.17,2.17,0,0,0,.07-.42.85.85,0,0,0-.12-.43q-.24-.3-.06-.09a.73.73,0,0,0-1-.26l-.11,0a.81.81,0,0,0-.31.3,2.19,2.19,0,0,0-.23,1,.82.82,0,0,0,1.63,0,1.22,1.22,0,0,0,0-.33.79.79,0,0,0-.2-.33c.1.15.13.14.08,0a.49.49,0,0,1-.08-.21A.38.38,0,0,0,110.07,136.1Z"/><path class="cls-10" d="M117.17,134.88c-.12.19-.11.18,0,0-.4.18-.47.25-.21.19a4.7,4.7,0,0,0,.51-.12l-1-1.76a4.67,4.67,0,0,0-.61.78,1,1,0,0,0,.16,1.23h0l-.24-.41v0a.87.87,0,0,0,.84.64h0l-.47-.13h0a1,1,0,0,0,1.24-.16,4.58,4.58,0,0,0,.66-.73,1.07,1.07,0,0,0-1.2-1.55,1.61,1.61,0,0,0-1.15,1,1.24,1.24,0,0,0,.29,1.23A.65.65,0,0,0,117.17,134.88Z"/><path class="cls-10" d="M121.53,136.07c-.08,0-.06,0,.08.09l.48-1.82a1.31,1.31,0,0,0-.5.18,1,1,0,0,0,0,1.75,1.48,1.48,0,0,0,.5.17,1.09,1.09,0,1,0,.29-2.14,1.11,1.11,0,0,0-1.24,1.09A.78.78,0,0,0,121.53,136.07Z"/><path class="cls-11" d="M125.05,138.51c-9.47,1.52-23.7,1.05-34.12.89-10.16-.15-20.46-.45-30.69-.44-4.77,0-9.52.08-14.23.27-7.74.3-24.06,1-27.4-1.83a57.27,57.27,0,0,0,7.32.74,32.58,32.58,0,0,0,7.75-.55c.57-.08,1.06-.13,1.5-.18a16.43,16.43,0,0,1,3.12,0c.87.06,1.83.16,3.38.18,2,0,3-.36,4.85-.43a32.68,32.68,0,0,1,4.46.21c3.72.23,5.93-.11,9.67-.12,6.58,0,10.67,1.49,18.17.92,2.81-.21,4.19-1.12,6.46-1.27a62.86,62.86,0,0,1,6.47.57,81.27,81.27,0,0,0,9.62,0l.94,0,.72,0c1.21,0,2.43-.07,3.66-.06,4.69,0,8.67.74,13.31,0,3.71-.59,3.18-1.66.91-2.6C128.14,135.41,134.94,136.93,125.05,138.51Z"/><path class="cls-12" d="M52.59,100.7c.29,2.41-.4,5.42-.71,7.83-.49,3.8-1,7.76-1.71,11.53-.71,4-1.51,9-6.76,5.84-.15-5.19-1.25-10.41-1.25-15.77a21.67,21.67,0,0,0-1.7,6.59c-.21,2.41-.15,7.89-3.17,8.84-6.4,2-3.64-15-3.62-17.34a51,51,0,0,1,1.2-10.68Z"/><path class="cls-13" d="M25.65,97.56a9,9,0,0,1,1.63,4.07c.13,3.08-4,2.66-5.43,1C20.07,100.47,22,98,23,95.86Z"/><path class="cls-13" d="M64.84,86.16c1.54-1.82,2.63-5.52,5.58-5.34,1.77.11,2.71,2,3,3.64.64,3.54-4.38,4.78-6.89,3.27Z"/><path class="cls-14" d="M33,99.32c.66,6,13.66,6.3,17.45,4.3C55.5,101,52.89,94,52.17,89.53a17.93,17.93,0,0,0-3.2-8c-1-1.36-1.61-2.3-3.27-2.63a22.29,22.29,0,0,0-7.42.17c-3.29.53-3.55,1.94-3.71,5-.14,2.49-.41,5-.7,7.45S32.71,96.91,33,99.32Z"/><path class="cls-13" d="M40.39,75.75c1.75-1.28,3.39,0,3.39,2.28,0,1.17.2,2.31.09,3.48s-.14,3.25-1.76,2.09a7.8,7.8,0,0,1-2-3,5.43,5.43,0,0,1-.37-3C39.8,76.62,39.77,76.21,40.39,75.75Z"/><path class="cls-14" d="M44.42,79c2.4-.43,2.87.32,4.8,1.84a17.67,17.67,0,0,0,5.06,3C57.47,85,63.71,87,66.14,83.42c.84.85,1,3.62,1.07,4.8-1.76.55-3.15,1.8-5,2.14a10.77,10.77,0,0,1-5.49-.53,14.63,14.63,0,0,1-4.83-2.71c-1.16-1-3.4-2.92-3.91-4.37Z"/><path class="cls-14" d="M35.84,80.16c-1.07-.29-3.48,2.3-4.4,3.08C28.83,85.45,25.79,88,24.15,91c-.95,1.8-2.86,4.17-1.83,6.14.71,1.36,2.77,1.7,4.27,1.73-.33-3.72.95-5.25,3.23-8.07,2.07-2.56,4.65-5.61,7.48-7.12Z"/><path d="M44.52,119.59c-1.66,0-2,.17-2.36,2.5-.55,3.41-1.43,8-1.23,11.4s6,3.57,8.76,4.13c2.4.48,9,.38,6.13-3.94-1.59-2.39-5.43-2-6.64-4.78s2.24-5.41,1.33-7.88c-.7-1.89-3.44-1.31-5-1.38Z"/><path class="cls-15" d="M34.33,119.35c-1.66-.06-2,.17-2.35,2.5-.56,3.4-1.43,8-1.23,11.39s6,3.58,8.76,4.14c2.4.48,9,.37,6.12-3.95-1.58-2.38-5.42-2-6.63-4.77s2.24-5.41,1.32-7.89c-.69-1.88-3.43-1.31-5-1.37Z"/><path class="cls-16" d="M46.33,134.76c.47.38.27,1.24.06,1.71a3,3,0,0,1-1.69,1.37,7.1,7.1,0,0,1-2.46.37,15.48,15.48,0,0,1-2.64-.16,17.64,17.64,0,0,1-9.35-4.11c-.63-.56.31-1.49.93-.92a16.28,16.28,0,0,0,8,3.65,16,16,0,0,0,2.18.23,11.07,11.07,0,0,0,2.23,0,4.78,4.78,0,0,0,1.79-.62,1.61,1.61,0,0,0,.55-.58c.15-.29.11-.62.26-.89,0-.05.08,0,.12,0Z"/><path class="cls-16" d="M56.84,135.3c.32.36.11,1-.09,1.35a2.82,2.82,0,0,1-1,1,5.6,5.6,0,0,1-3.28.53,59.68,59.68,0,0,1-6.35-1.2c-.7-.13-.53-1.27.16-1.23a14.51,14.51,0,0,1,2.51.51,32.54,32.54,0,0,0,3.27.63,7.59,7.59,0,0,0,2.93-.06,2,2,0,0,0,.94-.53c.29-.31.35-.81.7-1a.17.17,0,0,1,.22,0Z"/><path class="cls-17" d="M43.9,77.71a7.52,7.52,0,0,1-1,3.1l.34,3.78,1.22-2-.5-1.23h1.71S44.78,78.44,43.9,77.71Z"/><path class="cls-17" d="M43.2,84.59l-3.43-1.73.76-1-1.88.21a3.6,3.6,0,0,1,1-3.61,4.7,4.7,0,0,0,2.46,2.32s-.86,1.46,1,3.24S43.2,84.59,43.2,84.59Z"/><path class="cls-17" d="M42.83,83.56c.06-.06.12-.13.2-.11h0c.08,0,.13.07.18.13s0,.12-.09.08S43,83.6,43,83.54l0,0h0s-.05,0-.07.05-.14,0-.09-.09Z"/><path class="cls-17" d="M44.14,103.75c-.07-.82-.19-1.63-.23-2.45s0-1.67,0-2.5c0-1.68,0-3.35,0-5a45.54,45.54,0,0,0-1-9.81c-.12-.51.66-.73.78-.22a46.14,46.14,0,0,1,1,9.73c0,1.73,0,3.46,0,5.19,0,.83-.06,1.66-.08,2.49s-.21,1.73-.27,2.6a.08.08,0,1,1-.15,0Z"/><path class="cls-17" d="M40.6,87.11a10.18,10.18,0,0,1-2.27.18l-1.21,0A2.76,2.76,0,0,1,36,87.13a.15.15,0,0,1,0-.25,1.94,1.94,0,0,1,1-.07l1.21.09a14.67,14.67,0,0,0,2.39,0,.11.11,0,0,1,0,.21Z"/><path class="cls-12" d="M69.46,127.7c-.47-2-.21-4.35-.23-6.41q0-7.92-.07-15.83,0-15.72,0-31.43a10.9,10.9,0,0,1,.21-2.67.75.75,0,0,1,1.44.4,2.37,2.37,0,0,1-.13.34l.1-.35v0a.69.69,0,0,1-1.38,0v0l.1.35a2.37,2.37,0,0,1-.13-.34l1.44-.4A16,16,0,0,1,71,75.27V87q0,7.89,0,15.78c0,5.28,0,10.55-.06,15.83C70.9,121.45,71.47,125.4,69.46,127.7Z"/><path class="cls-13" d="M67.86,84.21l.06,0-.28.49c0-.63.85-1,1.32-1.27.24-.16.49-.3.74-.44a1.14,1.14,0,0,1,.59-.21c.27,0,.31,0,.15,0a.73.73,0,0,1,.25,0,.74.74,0,0,1,.52.91c-.21.64-.84.88-1.41,1.13s-1.49.74-2,.23l.4.17h-.08a.55.55,0,0,1-.27-1Z"/><path class="cls-18" d="M79.74,134.81a6.65,6.65,0,0,1,.18-2,8.84,8.84,0,0,0,.11-2.18,4.41,4.41,0,0,0-2-3.39A9.15,9.15,0,0,0,74,125.9a34,34,0,0,0-4.4-.19.6.6,0,0,1,0-1.2c3.1,0,6.75-.05,9.36,1.89a5.61,5.61,0,0,1,1.57,1.72,5.83,5.83,0,0,1,.66,2.42A9.33,9.33,0,0,1,81,133a3.11,3.11,0,0,1-1,1.93c-.1.08-.21,0-.22-.13Z"/><path class="cls-18" d="M60.24,135.54a2.13,2.13,0,0,1-.54-1.22,12,12,0,0,1-.22-1.58,9,9,0,0,1,.19-3.19,6.73,6.73,0,0,1,3-3.94A10.3,10.3,0,0,1,67,124.39c.73-.07,1.46-.1,2.18-.12a7.65,7.65,0,0,1,1.07,0,1.21,1.21,0,0,1,.73.27c-.24-.2,0,0,.08,0a1,1,0,0,1,.19.16.37.37,0,0,1,0,.51,2.47,2.47,0,0,1-1.87.62c-.69,0-1.39.06-2.08.12a9.88,9.88,0,0,0-3.72.91,5.22,5.22,0,0,0-2.5,3.19,8.83,8.83,0,0,0-.2,2.81,13.28,13.28,0,0,1,0,1.41,1.78,1.78,0,0,1-.44,1.24.17.17,0,0,1-.23,0Z"/><path class="cls-18" d="M74.81,135.4a3.5,3.5,0,0,1-.68-1.89,27.3,27.3,0,0,1-.28-2.84,20.83,20.83,0,0,1,.08-2.85,10.47,10.47,0,0,1,.41-2.3.72.72,0,0,1,1.39.39,30.24,30.24,0,0,0-.64,4.65,23.21,23.21,0,0,0-.1,2.64c0,.7.11,1.4.06,2.1,0,.11-.15.2-.24.1Z"/><path class="cls-18" d="M69.77,135.38c-.67-.38-.73-1.33-.84-2a14.54,14.54,0,0,1-.12-2.72,49.48,49.48,0,0,0,.09-5.31.7.7,0,1,1,1.39,0,28.94,28.94,0,0,1-.2,5.18c-.07.86-.13,1.72-.12,2.58,0,.41,0,.8,0,1.21a1.89,1.89,0,0,1-.11,1,.09.09,0,0,1-.13,0Z"/><path class="cls-18" d="M63.86,135.38s0-.1,0-.15l0,0a.25.25,0,0,1-.08-.14,1.19,1.19,0,0,1,0-.53,10.46,10.46,0,0,0,.12-1.11,17,17,0,0,0,0-2.67c-.08-1.66-.33-3.32-.36-5a.72.72,0,0,1,1.43,0c0,1.74.18,3.47.19,5.22a16.12,16.12,0,0,1-.2,2.68,5.32,5.32,0,0,1-.35,1.09,1.16,1.16,0,0,1-.32.46.45.45,0,0,1-.22.08c.1,0,0,.1-.08.15s-.27,0-.23-.14Z"/><path class="cls-18" d="M71.3,118.75a9.64,9.64,0,0,1,.14,1.87,17.65,17.65,0,0,1,.08,2.18,3.15,3.15,0,0,1-.66,1.9,2.3,2.3,0,0,1-2.18.53.64.64,0,0,1-.47-.61,47.14,47.14,0,0,0,0-5.7.67.67,0,0,1,.83-.64,9.93,9.93,0,0,0,1.89.07.7.7,0,0,1,.67.87c-.33,1.69-.48,3.4-.71,5.11a.73.73,0,0,1-.69.52.72.72,0,0,1-.71-.71,27.11,27.11,0,0,1-.37-4.49l.21.5,0,0,1.12-.14h0l.08-.55a.73.73,0,0,0,.05.12c.28.53-.34,1.31-.91.9-.39-.29-.72-.7-.45-1.21a.74.74,0,0,1,1.13-.14c.34.27.23.73.23,1.11a11.33,11.33,0,0,0,.07,1.3c.09.88.24,1.74.31,2.62l-1.4-.19a45.23,45.23,0,0,1,.75-5.09l.67.87a16.77,16.77,0,0,1-2.24-.18l.83-.63a41.08,41.08,0,0,1,0,5.87L69,124a1.5,1.5,0,0,0,.73,0,.5.5,0,0,0,.35-.26,3.31,3.31,0,0,0,.32-1.55c0-.65,0-1.31.06-2a1.92,1.92,0,0,1,.6-1.58.15.15,0,0,1,.23.09Z"/><ellipse class="cls-3" cx="110.06" cy="31" rx="33.06" ry="20"/><rect class="cls-19" x="117.5" y="27.92" width="14.87" height="0.25" transform="translate(61.89 139.5) rotate(-73.16)"/><rect class="cls-19" x="129.39" y="20.53" width="0.25" height="15.04" transform="translate(-2.12 43.33) rotate(-18.84)"/><rect class="cls-19" x="126.96" y="20.94" width="0.25" height="14.23"/><rect class="cls-19" x="95.13" y="20.62" width="0.25" height="14.87" transform="translate(-4.04 28.8) rotate(-16.84)"/><rect class="cls-19" x="83.16" y="27.92" width="15.04" height="0.25" transform="matrix(0.32, -0.95, 0.95, 0.32, 34.84, 104.81)"/><rect class="cls-19" x="92.97" y="20.94" width="0.25" height="14.23"/><path class="cls-20" d="M87.38,34.91c0,1.94,2.44,3.51,5.45,3.51s5.44-1.57,5.44-3.51Z"/><path class="cls-19" d="M92.51,20.47a.59.59,0,0,1,1.18,0,.59.59,0,0,1-1.18,0Zm.25,0a.34.34,0,0,0,.34.34.34.34,0,0,0,.34-.34.34.34,0,0,0-.34-.34A.35.35,0,0,0,92.76,20.47Z"/><path class="cls-19" d="M130.61,18.56c0-.14-.15-.3-.29-.28a.27.27,0,0,0-.2.16c0,.08-.05.17-.08.25a.7.7,0,0,1-.35.37l0,0c-1,.18-4.16.63-9.45-.8a31.37,31.37,0,0,0-9.34-1.21V18.3l.16.88c.29-.51,6.34-.36,9.35.33a25.18,25.18,0,0,0,9.35.4,2.45,2.45,0,0,0,.5-.2l.14-.12A1.11,1.11,0,0,0,130.61,18.56Z"/><path class="cls-20" d="M132.8,34.91c0,1.94-2.43,3.51-5.44,3.51s-5.45-1.57-5.45-3.51Z"/><path class="cls-21" d="M87.39,35.1a1.15,1.15,0,0,1,0-.19H98.27a2.55,2.55,0,0,1-.94,2Z"/><path class="cls-21" d="M121.92,35.1a1.15,1.15,0,0,1,0-.19H132.8a2.58,2.58,0,0,1-.93,2Z"/><path class="cls-19" d="M127.08,21.06a.59.59,0,0,1-.59-.59.6.6,0,1,1,.59.59Zm0-.93a.34.34,0,0,0-.33.34.34.34,0,1,0,.67,0A.34.34,0,0,0,127.08,20.13Z"/><path class="cls-19" d="M89.57,18.56c0-.14.15-.3.3-.28a.26.26,0,0,1,.19.16,2.5,2.5,0,0,1,.09.25.69.69,0,0,0,.34.37l0,0c1,.18,4.16.63,9.44-.8a29.5,29.5,0,0,1,9.29-1.14l.07,1.09-.17.95c-.3-.51-6.35-.36-9.35.33a25.18,25.18,0,0,1-9.35.4,2.25,2.25,0,0,1-.5-.2l-.14-.12A1.11,1.11,0,0,1,89.57,18.56Z"/><path class="cls-22" d="M110.14,44.69h0a1.88,1.88,0,0,1-1.79-2s.66-26.07.91-26.07h1.65c.25,0,1.05,26.06,1.05,26.06A1.88,1.88,0,0,1,110.14,44.69Z"/><path class="cls-19" d="M122.1,46.48H98.15v0c0-1.46,3.37-2.65,5.33-2.65h13.63c2,0,5,1.19,5,2.65Z"/><circle class="cls-22" cx="110.12" cy="15.51" r="1.31"/><path class="cls-22" d="M110.83,13.79a.71.71,0,1,1-1.41,0c0-.46.48-1.79.7-1.79S110.83,13.33,110.83,13.79Z"/><path class="cls-23" d="M110.57,15.51a.47.47,0,1,1-.46-.46A.46.46,0,0,1,110.57,15.51Z"/><path class="cls-23" d="M110.43,13.65a.34.34,0,0,1-.31.36.33.33,0,0,1-.3-.36,2,2,0,0,1,.3-.73A2.76,2.76,0,0,1,110.43,13.65Z"/><polygon class="cls-24" points="108.49 43.81 113.16 46.31 118.17 46.4 112.51 43.81 108.49 43.81"/><path class="cls-25" d="M111,17.07l.13,2a6.37,6.37,0,0,1,1.16-.22l-.95-1.8Z"/><path class="cls-25" d="M109.17,17.11l-.13,2a6.58,6.58,0,0,0-1.16-.22l1-1.8Z"/><path class="cls-24" d="M122.1,46.4H98.15v0a.65.65,0,0,1,.08-.31l0-.08H122a.69.69,0,0,1,.12.42Z"/><polygon class="cls-26" points="111.75 37.26 108.49 37.24 108.52 36.45 111.73 36.45 111.75 37.26"/><polygon class="cls-26" points="111.72 36.2 108.53 36.2 108.54 35.8 111.72 35.8 111.72 36.2"/><path class="cls-24" d="M108.76,43.81h2.89a2.09,2.09,0,0,0,.23-.63c0-.26-3.39-7.14-3.39-7.14l-.09,3.68s-.16,2.92-.06,3.33S108.4,43.81,108.76,43.81Z"/><path class="cls-22" d="M122.54,47.59H97.2c-.26,0-.46-.29-.46-.63v0c0-.34.2-.63.46-.63h25.34c.25,0,.46.29.46.63v0C123,47.3,122.79,47.59,122.54,47.59Z"/><path class="cls-27" d="M22.69,55l.07.21a2,2,0,0,1,.24.63c.08.13.07.3.18.42l.22.54c.11.17.11.38.23.55s.14.21.2.31a.72.72,0,0,1,.42.81c0,.19.16.35.22.53l.05.13a1.41,1.41,0,0,1,.22.42l.29.6a3.3,3.3,0,0,0,.23.41h0a.92.92,0,0,1,.19.35c.06.09.06.2.15.27a23.57,23.57,0,0,1,1,3.2,4.46,4.46,0,0,0,.59,1.36,12.2,12.2,0,0,1,1,2.31,1.75,1.75,0,0,1,.17.43.6.6,0,0,0,.06.11A5.83,5.83,0,0,1,28.63,70a.71.71,0,0,0,.18.57l.31,1.28a7.38,7.38,0,0,0,.4.91l.17.41c.11.12.1.3.23.41l0,.12a1.66,1.66,0,0,0,.34.46l.92,1.14c.12.1.18.29.37.32a9.67,9.67,0,0,0,2.24,1.31l.27.11a3,3,0,0,0,1.37.39.88.88,0,0,1,.48.07l.11,0c.22,0,.43.08.65.1a11.67,11.67,0,0,0,3-.11c.38-.06-.28.19,0,0,6.68-.78,9-4,9.34-4.38a7.54,7.54,0,0,0,1.68-3.88,3.48,3.48,0,0,0,.07-.64l0-.26c0-.31,0-.62,0-.93l0-.31a4.54,4.54,0,0,0-.19-1.27c-.19-.75-.27-1.54-.5-2.29a18.86,18.86,0,0,0-1.21-2.95,6.9,6.9,0,0,0-.58-1.11c-.05-.07-.09-.2-.21-.15s-.11.16-.11.26c0,.26.12.5.1.76a1.58,1.58,0,0,0,0,.38A3.5,3.5,0,0,1,48.17,62,4.38,4.38,0,0,1,48,63.34a2.6,2.6,0,0,1-.17.56.84.84,0,0,1-.66.58L46,64.74l-.29.06a2.63,2.63,0,0,1-1,0,.48.48,0,0,0-.17,0,2.48,2.48,0,0,1-.9,0h-.53a.55.55,0,0,0-.38.26,3.39,3.39,0,0,1-2.51,1.57,1.23,1.23,0,0,1-.71,0,.25.25,0,0,0-.12,0,.22.22,0,0,0-.09.07c-.14.21,0,.41,0,.61s0,.43-.32.47a7.33,7.33,0,0,0-1.9.41c-.24.1-.38,0-.45-.26s-.06-.74-.34-1l-.12,0a2.86,2.86,0,0,0-1,.46,10.42,10.42,0,0,0-2.14,1.41c-.07.07-.12.17-.23.19a.65.65,0,0,1-.56,0,5,5,0,0,1-1.33-.55l-.08-.06-.2-.12-.08,0a1.28,1.28,0,0,1-.22-.17,2.37,2.37,0,0,1-.28-.27.28.28,0,0,0-.1-.09.44.44,0,0,1-.2-.18,2.7,2.7,0,0,1-.28-.31c-.1-.15-.24-.27-.34-.43a1.09,1.09,0,0,1-.27-.4.64.64,0,0,0-.08-.14,1.13,1.13,0,0,1-.3-.53.76.76,0,0,0-.06-.16,2.12,2.12,0,0,1-.36-.83,22.34,22.34,0,0,1-.55-4.38,24.87,24.87,0,0,1,.15-4.48,1.08,1.08,0,0,0,0-.18,1,1,0,0,1,0-.52l0-.1a2,2,0,0,1,.12-.48,7.6,7.6,0,0,1,.9-2.39c.48-.72.66-.8,1.52-.63a1.1,1.1,0,0,0,.36,0,1.06,1.06,0,0,1,.53,0,.29.29,0,0,0,.1,0l.3,0a1,1,0,0,1,.42.07,5.81,5.81,0,0,0,2.42-.09,2.64,2.64,0,0,1,1-.22,4.49,4.49,0,0,0,2-.93c.09-.08.15-.19.26-.25a.24.24,0,0,0,.08-.06,1.33,1.33,0,0,1,.39-.28c.39-.27.62-.71,1-.94,0-.18-.07-.19-.2-.18a.42.42,0,0,0,.32-.14A12.87,12.87,0,0,0,41,45.86a6,6,0,0,0,.43-1.09.76.76,0,0,1,0-.47c0-.18-2.4-1.19-3.44-.79a12.36,12.36,0,0,0-3,1.81c-1.4,1-2.68,2.24-4.17,3.16a7.78,7.78,0,0,1-4.12,1.3,14.59,14.59,0,0,1-3.17-.44c-.36-.08-.73-.11-1.09-.21a.36.36,0,0,0-.48.27,5.4,5.4,0,0,0-.08,2.65c.05.41.17.82.25,1.23S22.43,54.44,22.69,55Z"/><path class="cls-28" d="M41.43,44.87c-.36.66-.6,1.38-1,2a21,21,0,0,1-1.19,1.77c-.07.1-.19.09-.3.14.09.08.25,0,.28.14a3.88,3.88,0,0,0,.81.42,12.65,12.65,0,0,1,2.73,2.43c.71.77,1.33,1.6,2,2.42a1.37,1.37,0,0,1,.23.25.16.16,0,0,0,.06.08,1,1,0,0,1,.24.39c.07.21.27.34.37.53a1.52,1.52,0,0,1,.3.37l.06.07a1,1,0,0,1,.25.4.53.53,0,0,0,.08.17,1.32,1.32,0,0,1,.27.42,1.42,1.42,0,0,0,.08.18,1.23,1.23,0,0,1,.28.43,1.87,1.87,0,0,0,.42.65c.08,0,.15.07.23,0a.31.31,0,0,0,0-.25A15.61,15.61,0,0,0,47.22,56l-.4-1.68a2.46,2.46,0,0,1-.14-.55c0-.07-.43-1.17-.57-1.7a8.22,8.22,0,0,0-.24-.81,1.81,1.81,0,0,1-.14-.45,2.39,2.39,0,0,0-.22-.52L45,48.87c-.14-.24-.22-.52-.38-.76l0-.06a4.19,4.19,0,0,1-.34-.62h0c-.13-.11-.14-.29-.23-.42a7.85,7.85,0,0,0-.49-.78,3,3,0,0,0-.31-.39,3.17,3.17,0,0,0-1.36-1,2.47,2.47,0,0,0-.29-.06S41.44,44.83,41.43,44.87Z"/><path class="cls-29" d="M48.19,60.49c.08-.34-.17-.66-.06-1a22.12,22.12,0,0,1,1.72,3.7,15.07,15.07,0,0,1,.89,3.75c0,.1,0,.19.06.29a.9.9,0,0,0,0-.54,20.19,20.19,0,0,0-.44-2,.49.49,0,0,1,.1-.5,2.83,2.83,0,0,0,.56-1c0-.13.07-.28.13-.41h0a3.71,3.71,0,0,0,.1-.48A5.19,5.19,0,0,0,51,59.83a2.56,2.56,0,0,0-1.43-1.62,1.41,1.41,0,0,0-1.34.07c-.31.19-.37.08-.44-.22a7,7,0,0,0-.39-1.55,4.87,4.87,0,0,0,.17,1,10.23,10.23,0,0,1,.22,1.57A7,7,0,0,0,48,60.19.38.38,0,0,0,48.19,60.49Z"/><path class="cls-13" d="M28.32,68.12a10.32,10.32,0,0,0-1.08-2.45c-.22-.4-.4-.82-.62-1.23,0,.14.09.26,0,.41a2.1,2.1,0,0,0-1.52.05,1.77,1.77,0,0,0-1,1.44,3.39,3.39,0,0,0,.42,2.26c.16-.19.2,0,.26.09a3.23,3.23,0,0,0,2.71.62,2.28,2.28,0,0,0,.84-.45.24.24,0,0,0,.12-.31h0C28.36,68.43,28.42,68.24,28.32,68.12Z"/><path class="cls-30" d="M28.48,68.55a1.77,1.77,0,0,1-1.64.74,3,3,0,0,1-2.27-1c-.08.12,0,.21,0,.3A3.86,3.86,0,0,0,27.69,71a2.11,2.11,0,0,0,1.16-.38,11.77,11.77,0,0,0-.26-1.85C28.56,68.72,28.57,68.62,28.48,68.55Z"/><path class="cls-31" d="M23.84,57.71a3.32,3.32,0,0,1,.38,1c.14.1.13.32.29.41a1.9,1.9,0,0,1-.11-.76c.07-.31-.19-.52-.49-.63A0,0,0,0,0,23.84,57.71Z"/><path class="cls-32" d="M47.86,59a.57.57,0,0,0,0-.46,17.73,17.73,0,0,1-.47-2c-.07-.15,0-.34-.17-.47l.41,2a.53.53,0,0,0,.06.32c-.06,0,0-.14-.1-.17l-.15,0C47.39,58.52,47.64,58.76,47.86,59Z"/><path class="cls-33" d="M50.84,67.52a1.79,1.79,0,0,0,0,.92A1.79,1.79,0,0,0,50.84,67.52Z"/><path class="cls-34" d="M44.2,47.43a.9.9,0,0,0,.34.62A1.31,1.31,0,0,0,44.2,47.43Z"/><path class="cls-35" d="M23.07,55.91c-.05-.23-.06-.47-.27-.63,0,.24.17.41.21.63Q23,56,23.07,55.91Z"/><path class="cls-36" d="M50.86,68.7a1.17,1.17,0,0,0-.06.64A.72.72,0,0,0,50.86,68.7Z"/><path class="cls-37" d="M34.09,40.65l0,.08c.17-.07.4,0,.48-.25Z"/><path class="cls-38" d="M24.22,47.27v.08c.08.12.14.27.3.32C24.44,47.52,24.4,47.34,24.22,47.27Z"/><path class="cls-39" d="M44,47c0,.17,0,.36.23.42A.58.58,0,0,0,44,47Z"/><path class="cls-40" d="M51.26,62.21a.63.63,0,0,0-.1.48A.45.45,0,0,0,51.26,62.21Z"/><path class="cls-41" d="M24.81,46.93c.05.11.12.14.14,0s-.07-.2-.18-.24S24.88,46.84,24.81,46.93Z"/><path class="cls-42" d="M24.78,59.62c0-.16,0-.34-.22-.41A.72.72,0,0,0,24.78,59.62Z"/><path class="cls-43" d="M41.43,44.87l.08,0c-.09-.14,0-.3,0-.44C41.32,44.54,41.4,44.71,41.43,44.87Z"/><path class="cls-44" d="M25.47,61l.07,0c0-.12-.05-.27-.22-.31C25.32,60.76,25.42,60.85,25.47,61Z"/><path class="cls-45" d="M51.15,62.69a.45.45,0,0,0-.13.41A.47.47,0,0,0,51.15,62.69Z"/><path class="cls-46" d="M23.72,57.43v.08l0,.14a.07.07,0,0,1,0,.06h.06l.07,0A.42.42,0,0,0,23.72,57.43Z"/><path class="cls-47" d="M27.58,44.41a.25.25,0,0,0,.27-.19A.32.32,0,0,0,27.58,44.41Z"/><path class="cls-13" d="M39.09,65.73a.45.45,0,0,0,.42.06,13.8,13.8,0,0,0,3.35-1.31.72.72,0,0,0,.27-.25.79.79,0,0,0-.39-.87,8.74,8.74,0,0,1-2.16,1.08.4.4,0,0,1-.53-.19A12.8,12.8,0,0,1,38.54,61a.38.38,0,0,1,0-.21s0-.07,0-.11.09.11.12.18A5.47,5.47,0,0,0,40,63.12c.42.37.51.37.85-.1a6,6,0,0,1,.48-.85,1.11,1.11,0,0,0,.1-1,3.26,3.26,0,0,0-.51-.54,2.12,2.12,0,0,0-.6-1,15.16,15.16,0,0,1-1.62-2.82,1.27,1.27,0,0,1-.08-.51c0-.2-.15-.35-.17-.55l-.18-.83c-.07-.27,0-.38.31-.38.64,0,1.27-.08,1.9,0a1.31,1.31,0,0,1,.59,0h.16a1.42,1.42,0,0,1,.5.08,5.86,5.86,0,0,1,2.37,1,3.54,3.54,0,0,1,.5.53c0,.35.27.52.47.74s.2,0,.26-.1a2.25,2.25,0,0,1,.37-.49,4.64,4.64,0,0,0-.46.61.38.38,0,0,0-.06.38c.35.79.63,1.61,1,2.4.19,0,.13-.13.13-.22.05.1.09.21.22.26a2.86,2.86,0,0,1,1.66,1.69.13.13,0,0,0,.13.08c.16-.22-.11-.46,0-.69l-.06-.34L47.86,59c-.08-.32-.34-.55-.42-.88l-.39-.66c-.12-.12-.18-.28-.29-.41l-.07-.19a2.92,2.92,0,0,1-.29-.4l-.07-.19c-.1-.13-.19-.27-.29-.41h0c-.11-.13-.19-.28-.3-.4s-.3-.36-.37-.59a1.93,1.93,0,0,1-.3-.39h0c-.09-.06-.12-.18-.2-.26a29.34,29.34,0,0,0-2.11-2.61,14.88,14.88,0,0,0-2-1.9A3.45,3.45,0,0,0,39.24,49c-.31,0-.42.27-.6.44s-.33.33-.49.49a2.72,2.72,0,0,1-.38.31h0c-.07.08-.19.11-.26.2a6.06,6.06,0,0,1-2,1,4.23,4.23,0,0,0-1,.22,7.31,7.31,0,0,1-2.19.09H32a.82.82,0,0,0-.35,0,.78.78,0,0,1-.34,0v0l-.56-.09a1.58,1.58,0,0,1-.72-.11.92.92,0,0,0-1,.38,5.13,5.13,0,0,0-1,2.27,1.21,1.21,0,0,0-.11.57c-.06.16-.06.33-.11.49h0c0,.17-.05.34-.1.5-.05.61-.1,1.21-.14,1.82a24.65,24.65,0,0,0,.05,4,18.07,18.07,0,0,0,.36,2.73c0,.2.1.4.15.6s.24.56.39.84l0,.12a3.81,3.81,0,0,0,.33.55l.05.13c.12.11.17.28.29.4s.23.3.35.44c.13,0,.12-.1.12-.21q0-.7.06-1.41a2.66,2.66,0,0,1,.38-.86,2.78,2.78,0,0,0,.22-.73.63.63,0,0,0-.15-.48,4.17,4.17,0,0,1-.59-.93,1.69,1.69,0,0,0-.76-.76,4.26,4.26,0,0,1-.5-.32l.48.31c.07,0,.15.12.23,0a.25.25,0,0,0,0-.25,5.29,5.29,0,0,0-.27-.76.59.59,0,0,1-.06-.56,5.45,5.45,0,0,1,2.14-2.89,11.52,11.52,0,0,1,1.48-1,1.24,1.24,0,0,1,.42-.28c.19,0,.33-.27.57-.17a.71.71,0,0,1,.29.39A3.53,3.53,0,0,0,34,57c.25.43.41.91.66,1.35a11.4,11.4,0,0,1,.94,2.8c0,.23,0,.47.12.68a.77.77,0,0,1,.15.73.43.43,0,0,0,0,.16.71.71,0,0,0,.34.51c.67.49-1,1.51-.71,2.31,0,0,.37,1.69.42,1.7.25,0,2.61-.57,2.85-.62"/><path class="cls-13" d="M33.11,69a16.69,16.69,0,0,1,3.13-1.91c.2-.11.19-.3.15-.48s-.13-.63-.18-.94c-.21-.33-.45-.65-.67-1a.48.48,0,0,0-.48-.18,1.5,1.5,0,0,0-.34.11,4.75,4.75,0,0,1-2.23.48A1.11,1.11,0,0,1,32,65a.41.41,0,0,0-.16,0c-.44.13-.54.55-.62.88a2.28,2.28,0,0,0,.33,2c.17.25.22.58.51.79a4.45,4.45,0,0,0,.58.36c-.12,0-.24-.09-.31,0a.58.58,0,0,0,.63.06C33,69.08,33.05,69.05,33.11,69Z"/><path class="cls-13" d="M42.7,63.4c.3.19.33.52.4.82a2.13,2.13,0,0,0-.12.61c0,.14.06.2.2.17a1.23,1.23,0,0,0,.54,0c.31,0,.61,0,.92,0h.14c.33,0,.66,0,1,0l.28-.06a2.85,2.85,0,0,1,.75-.19.47.47,0,0,0,.36-.31,2.16,2.16,0,0,0-.1-2c-.18-.35-.23-.76-.64-1a3.56,3.56,0,0,0-.41-.17A.64.64,0,0,1,45.6,61c-.19-.08-.27.09-.39.17a.78.78,0,0,1-.51.29,9,9,0,0,1-1.53.37,1.88,1.88,0,0,0-.6,1.34A.26.26,0,0,0,42.7,63.4Z"/><path class="cls-13" d="M43.18,65c-.09,0-.17-.07-.11-.21a.85.85,0,0,0,0-.57,12.35,12.35,0,0,1-1.35.7,17.41,17.41,0,0,1-2.24.77.65.65,0,0,1-.39,0c-.1.13,0,.28,0,.42s.07.27.09.42.15.25.32.27h.07a2.07,2.07,0,0,0,.7.05,3.37,3.37,0,0,0,2.61-1.65A.57.57,0,0,1,43.18,65Z"/><path class="cls-27" d="M36.32,67.08a3.12,3.12,0,0,1,.31,1.12c.07.29.19.37.47.28s.71-.24,1.08-.32.61-.06.91-.12c.52-.09.51-.09.41-.6,0-.19-.2-.38-.06-.59a2.44,2.44,0,0,0-.94-.5c-.19.29-.19.29-.43,0a.29.29,0,0,0-.22,0,10.18,10.18,0,0,0-1.25.5C36.49,66.88,36.37,66.94,36.32,67.08Z"/><path class="cls-13" d="M45.57,61c0,.24.09.33.33.38a1.19,1.19,0,0,1,1,.93c.09.36.29.68.36,1.08s-.18.79-.26,1.19c0,.1-.16.08-.25.11s-.49,0-.69.22c.33-.07.65-.12,1-.2.81-.19,1-.45,1.11-1.3a1.2,1.2,0,0,1-.31-.73,1.08,1.08,0,0,0-.29-.66c-.23-.24-.26-.6-.56-.84a3.07,3.07,0,0,0-1.1-.62A.37.37,0,0,0,45.57,61Z"/><path class="cls-13" d="M32.28,69.09h.36c0-.27-.3-.21-.44-.34a3.26,3.26,0,0,1-1-2,1.81,1.81,0,0,1,.22-1.22,1.43,1.43,0,0,1,.39-.46.37.37,0,0,0-.35-.19c-.35,0-.49.25-.65.55a4.16,4.16,0,0,0-.23,2.06.41.41,0,0,0,.09.28.88.88,0,0,1,.21.68A3.32,3.32,0,0,0,32.28,69.09Z"/><path class="cls-13" d="M45.84,60.58c0,.2.21.14.34.18.44.15.68.57,1.07.8.06,0,0,.11,0,.13s-.13.07,0,.11c.54.3.52.88.68,1.36,0,.15.08.29.28.27a3.32,3.32,0,0,0,.17-1.33c-.17,0-.17,0-.14.2.13-.61-.4-1-.72-1.42A2.69,2.69,0,0,0,46,59.94.51.51,0,0,0,45.84,60.58Z"/><path class="cls-13" d="M30.88,68.48a.45.45,0,0,0-.07-.64.56.56,0,0,1-.15-.46,10.43,10.43,0,0,1,0-1.37c0-.22.25-.4.28-.65s.32-.29.52-.39a1,1,0,0,0-.68-.43c-.27,0-.27.22-.39.38A3,3,0,0,0,30,66.2a3.56,3.56,0,0,0,.08,1.3.61.61,0,0,1,0,.33c0,.17.21.2.32.31a.81.81,0,0,1,.24.17h0a.65.65,0,0,1,.26.17Z"/><path class="cls-13" d="M30.06,67.83c.14,0,.2-.19.15-.26-.21-.27,0-.61-.16-.89s.08-.45.07-.7c0-.48.36-.84.43-1.3,0-.16.26.16.23-.11,0-.1,0-.16-.08-.23s-.2-.24-.34-.31a.13.13,0,0,0-.13.06c0,.07-.19.06-.07.18s.08.16,0,.2c-.21.16-.2.44-.33.6-.43.55-.23,1.18-.33,1.76,0,.16.15.31,0,.44,0,.16.19.22.29.32s.11.12.18.17Z"/><path class="cls-13" d="M46,60c.06.16.22.17.35.23a2.51,2.51,0,0,1,1.35,1.29s0,.06,0,.06c.35.18.37.51.38.84.17,0-.1-.31.18-.27a3.4,3.4,0,0,0,0-1.27c-.27.18,0,.4-.08.62.06-.47-.35-.7-.55-1a1.74,1.74,0,0,0-1-.72.46.46,0,0,1-.35-.36.15.15,0,0,0-.14-.12c-.08.15.12.32,0,.47s-.14,0-.18.06A.17.17,0,0,0,46,60Z"/><path class="cls-13" d="M38.51,66.37a4.1,4.1,0,0,0,.93.48l.07,0c-.3-.13-.22-.44-.3-.68-.19-.47-.31-.55-.69-.46-.12,0-.23.07-.25.22a.72.72,0,0,0,.11.35A.27.27,0,0,0,38.51,66.37Z"/><ellipse class="cls-27" cx="38.24" cy="68.95" rx="2.07" ry="0.02" transform="translate(-13.84 9.75) rotate(-12.33)"/><path class="cls-48" d="M22.42,53.69,22,51.84h0l.4,1.84Z"/><ellipse class="cls-49" cx="26.17" cy="62.32" rx="0.02" ry="1.03" transform="matrix(0.98, -0.21, 0.21, 0.98, -12.7, 7.03)"/><path class="cls-50" d="M34.45,51.61a3.21,3.21,0,0,0,1-.22A1.43,1.43,0,0,0,34.45,51.61Z"/><path class="cls-51" d="M44.64,65a1.91,1.91,0,0,0-.92,0A1.52,1.52,0,0,0,44.64,65Z"/><path class="cls-52" d="M45.77,65a3,3,0,0,0-1,0A1.76,1.76,0,0,0,45.77,65Z"/><path class="cls-53" d="M28.44,65.63a1.86,1.86,0,0,0-.39-.84A1.71,1.71,0,0,0,28.44,65.63Z"/><path class="cls-54" d="M40.28,66.87a3.3,3.3,0,0,0-.7-.05A.75.75,0,0,0,40.28,66.87Z"/><path class="cls-55" d="M36,77.56a.67.67,0,0,0,.63.08A1.24,1.24,0,0,0,36,77.56Z"/><path class="cls-56" d="M28.81,66.3c-.09-.19-.13-.42-.33-.55A.76.76,0,0,0,28.81,66.3Z"/><path class="cls-57" d="M30.72,51.52a.78.78,0,0,0,.56.09A.65.65,0,0,0,30.72,51.52Z"/><path class="cls-58" d="M37.77,50.2a.47.47,0,0,0,.38-.31A.65.65,0,0,0,37.77,50.2Z"/><path class="cls-59" d="M35.54,77.45a.6.6,0,0,0,.5.1C35.9,77.4,35.72,77.44,35.54,77.45Z"/><path class="cls-60" d="M27.74,55.12a.58.58,0,0,0,.11-.49A.54.54,0,0,0,27.74,55.12Z"/><path class="cls-61" d="M27.63,55.61a.6.6,0,0,0,.1-.5A.56.56,0,0,0,27.63,55.61Z"/><path class="cls-62" d="M29.15,66.83c-.06-.16-.11-.33-.29-.4A.59.59,0,0,0,29.15,66.83Z"/><path class="cls-63" d="M31.61,51.69H32c-.11-.14-.25-.09-.39-.06S31.55,51.69,31.61,51.69Z"/><path class="cls-64" d="M37.51,50.41a.26.26,0,0,0,.26-.2A.27.27,0,0,0,37.51,50.41Z"/><path class="cls-30" d="M28.32,68.12c0,.15,0,.33.16.43A.65.65,0,0,0,28.32,68.12Z"/><path class="cls-65" d="M31.61,51.69s0,0,0-.06a.44.44,0,0,0-.3,0A.26.26,0,0,0,31.61,51.69Z"/><path class="cls-66" d="M33.11,69c-.11,0-.2,0-.2.17A.2.2,0,0,0,33.11,69Z"/><path class="cls-67" d="M30.88,68.48a.21.21,0,0,0-.26-.17A.39.39,0,0,0,30.88,68.48Z"/><path class="cls-67" d="M30.62,68.31c0-.13-.11-.19-.24-.17A.35.35,0,0,0,30.62,68.31Z"/><path class="cls-68" d="M30,67.76c0-.1,0-.2-.18-.17C29.82,67.68,29.86,67.75,30,67.76Z"/><path class="cls-69" d="M46.54,53.62c0-.09,0-.2-.12-.25l-.11.08c.33.47.25,1.07.53,1.57Z"/><path class="cls-70" d="M46.4,56.47c0,.17.09.34.29.4A.62.62,0,0,0,46.4,56.47Z"/><path class="cls-71" d="M45.06,54.5a.52.52,0,0,0,.3.39A.57.57,0,0,0,45.06,54.5Z"/><path class="cls-72" d="M45.73,55.48c.06.16.11.33.3.4A.58.58,0,0,0,45.73,55.48Z"/><path class="cls-73" d="M46,55.87a.59.59,0,0,0,.29.41C46.28,56.12,46.23,55.94,46,55.87Z"/><path class="cls-58" d="M46.76,57.06c.07.16.11.34.29.41C47,57.31,46.94,57.14,46.76,57.06Z"/><path class="cls-74" d="M44.85,54.24a.25.25,0,0,0,.2.26A.29.29,0,0,0,44.85,54.24Z"/><path class="cls-75" d="M47.59,58.18l.08.26a.87.87,0,0,0,0-.41Z"/><path class="cls-30" d="M27,68c.13,0,.34-.12.53-.21s.22-.17.1-.37a4.3,4.3,0,0,0-.87-1.16A1.39,1.39,0,0,0,25.14,66c-.07,0-.2,0-.17.16s.1.11.16.14a2.41,2.41,0,0,1,1.45,1.55C26.65,68,26.74,68,27,68Z"/><path class="cls-30" d="M24.42,68.06l-.17-.77h0l.17.77Z"/><path class="cls-13" d="M46.12,59.71a8.09,8.09,0,0,0-.78-2.09.85.85,0,0,1,.2-1.08,1.44,1.44,0,0,0,.32-.52,2.12,2.12,0,0,0-.57.69c-.14.23-.24.2-.36,0s-.1-.24-.24-.3.2-.23,0-.29c-.43,0-.85-.07-1.28-.06a14,14,0,0,0-2.5.39,3.29,3.29,0,0,1-2.12-.15.29.29,0,0,0-.24,0c-.15.42.19.72.33,1a10.07,10.07,0,0,0,1.37,2.29,3.29,3.29,0,0,0,.52.66.28.28,0,0,1,0,.08C41.91,62.4,45.37,63.28,46.12,59.71Z"/><path class="cls-13" d="M30.8,65.45a10.4,10.4,0,0,1-1.4-2.38,1,1,0,0,0-1.19-.65,1.72,1.72,0,0,1-.74-.1,2.77,2.77,0,0,1,1.11,0c.32.06.37-.07.26-.34s-.15-.29-.1-.47-.38,0-.23-.28c.35-.39.59-.86.93-1.27a19.82,19.82,0,0,1,2.32-2.08,4,4,0,0,0,1.51-2.15c0-.09.1-.18.2-.21.53.19.55.74.76,1.13a12.34,12.34,0,0,1,1.12,3.1,4.84,4.84,0,0,1,.23,1,.19.19,0,0,0,.05.11C36.66,63.51,34.8,67.51,30.8,65.45Z"/><path class="cls-28" d="M29.74,60.13c.91-.54,1.9-.93,2.86-1.4.13-.09.3-.1.41-.23a5,5,0,0,0,.82-.71.91.91,0,0,0,.2-.88l-.37-.59a4.24,4.24,0,0,1-.31-.4c-.06-.14-.15-.12-.26-.05l-.38.21c-.12.12-.28.18-.41.29a10.18,10.18,0,0,0-2.45,1.88,4.34,4.34,0,0,0-1.17,1.86c0,.08,0,.16-.05.25s-.06.36.08.53c.24-.11.35-.4.62-.47A3.81,3.81,0,0,1,29.74,60.13Z"/><path class="cls-28" d="M38.66,56.35a2.76,2.76,0,0,0,2,.21,17.36,17.36,0,0,1,3.05-.42c.21,0,.41,0,.61.07s.26.11.29-.1a4.76,4.76,0,0,0-3-1.56c-.16-.06-.34,0-.49-.1h-.14c-.18-.08-.38,0-.56-.08-.71-.05-1.41,0-2.11,0-.26,0-.36.09-.29.36s.15.64.22,1S38.47,56.19,38.66,56.35Z"/><path class="cls-13" d="M42.7,63.4l-.06-.2a1.34,1.34,0,0,0-.53-.47l-.25-.09a.35.35,0,0,0-.11,0,1.12,1.12,0,0,0-1,.31c-.29.43-.37.43-.72.13a5.18,5.18,0,0,1-1.33-2.27c0-.09.05-.32-.2-.25s-.22.23-.14.39c.25.52.38,1.07.61,1.6s.66,1.21,1,1.82a.41.41,0,0,0,.54.23,14.31,14.31,0,0,0,1.7-.74c.11,0,.2-.15.33-.16S42.73,63.54,42.7,63.4Z"/><path class="cls-13" d="M36,62.66l-.13.79a.29.29,0,0,0,.17.36,2.92,2.92,0,0,1,1.1,1.33c0,.07.07.15.16.18a.43.43,0,0,0,.47-.15A2.43,2.43,0,0,0,37.19,64a10.61,10.61,0,0,0-1.08-1A.88.88,0,0,1,36,62.66Z"/><path class="cls-13" d="M42.35,61.81l-1-.6a.81.81,0,0,1,0,.71,2.8,2.8,0,0,1-.5.85s-.09.1,0,.15a2.41,2.41,0,0,1,1.09-.24c.2-.1.47-.18.24-.5-.06-.08,0,0,.06-.06S42.41,62,42.35,61.81Z"/><path class="cls-76" d="M38.66,56.35a3.7,3.7,0,0,0-.35-.61c0,.22.17.36.19.57Z"/><path class="cls-77" d="M40.49,54.38c.17.15.37.07.56.08C40.88,54.33,40.68,54.38,40.49,54.38Z"/><path class="cls-78" d="M33.35,55.92a.53.53,0,0,0,.31.4A.6.6,0,0,0,33.35,55.92Z"/><path class="cls-61" d="M32.3,56.37c.16-.07.33-.11.41-.29A.67.67,0,0,0,32.3,56.37Z"/><path class="cls-79" d="M41.19,54.45c.14.14.31.11.49.1A.66.66,0,0,0,41.19,54.45Z"/><path class="cls-13" d="M36.86,65.43v-.07c-.19-.31-.45-.56-.65-.87a.82.82,0,0,0-.69-.41l-.4.36s0,.06,0,.1c.42,0,.55.38.69.62a2,2,0,0,0,.38.43Z"/><path class="cls-13" d="M32.43,65.18a.6.6,0,0,0-.49-.09A.61.61,0,0,0,32.43,65.18Z"/><path class="cls-13" d="M35.08,64.54l0-.1c-.13,0-.26.07-.3.23Z"/><path class="cls-13" d="M42.35,61.81c-.1.09-.15.25-.31.24s-.12,0-.08.06c.29.26,0,.4-.1.57h0c.08,0,.17,0,.24.1s.32.34.54.42A3.3,3.3,0,0,1,43.13,62h0a3.44,3.44,0,0,1-.56-.09Z"/><path class="cls-13" d="M35.51,64.08a2.31,2.31,0,0,1,1.12,1.24c0,.1.14.05.22,0l.36-.08a2.49,2.49,0,0,0-1.15-1.54.41.41,0,0,1-.24-.29Z"/><path class="cls-80" d="M42.1,62.78c0-.15-.14-.12-.24-.1A.21.21,0,0,0,42.1,62.78Z"/><path class="cls-13" d="M42.58,61.85a.62.62,0,0,0,.56.09A.92.92,0,0,0,42.58,61.85Z"/><path class="cls-81" d="M45.34,68.7s-.4,5-3.79,5.81-5.82-3.41-5.82-3.41a31.93,31.93,0,0,0,5-.32A13.66,13.66,0,0,0,45.34,68.7Z"/><path d="M40.37,57.77a3.1,3.1,0,0,1,1.82-.65,2.89,2.89,0,0,1,1,.15,2.74,2.74,0,0,1,.86.46,4.53,4.53,0,0,0-1.83-.36,4.22,4.22,0,0,0-.92.12A6.21,6.21,0,0,0,40.37,57.77Z"/><circle cx="42.1" cy="58.15" r="0.7"/><path d="M33.78,60a5.76,5.76,0,0,0-.94.15,4.57,4.57,0,0,0-.88.3,4.33,4.33,0,0,0-1.47,1.13,2.58,2.58,0,0,1,.56-.79,2.67,2.67,0,0,1,.81-.56A3.1,3.1,0,0,1,33.78,60Z"/><circle cx="32.4" cy="61.07" r="0.7"/><path class="cls-12" d="M43.32,40.68c1.74-.36,8.51-.24,7.53,3.27S46.13,49.51,43.19,51A107.5,107.5,0,0,1,31.86,56c-3,1.16-5.88,3-9.17,3.06-1.52,0-4.26-.08-4.86-1.87-.52-1.58,1.1-4,2-5.19,3.65-4.85,10-7.38,15.58-9.08C38,42.1,40.63,41.24,43.32,40.68Z"/><path class="cls-7" d="M22.8,48c.19.5.35,1.11.53,1.72.58,2,1.34,4,3.83,3.41A38.89,38.89,0,0,0,37,48.73c1.28-.76,3.85-2,4.47-3.34s-.34-2.18-1.37-2.79c-.32-.2-.65-.37-.93-.56a30.38,30.38,0,0,1-3.6-3c-1.94-1.73-4.81-4.18-6.83-1.17-.91,1.36-1,1.64-2.75,1.81-1.13.12-2.53-.06-3.46.64C20.11,42.11,22,45.85,22.8,48Z"/><path d="M23.33,49.69c.58,2,1.34,4,3.83,3.41A38.89,38.89,0,0,0,37,48.73c1.28-.76,3.85-2,4.47-3.34s-.34-2.18-1.37-2.79c-2.37.88-3.85,3.26-6.12,4.31S29,49.34,26.4,49.62C25.82,49.69,24.15,49.57,23.33,49.69Z"/><path id="Layer0_14_MEMBER_0_1_STROKES" data-name="Layer0 14 MEMBER 0 1 STROKES" class="cls-82" d="M39.83,65c1.06-.86,1.5-1.42,1.33-1.68-.41-.24-.81-.49-1.21-.76a12,12,0,0,1-2.71-3.35"/></g></g></svg>