<svg xmlns="http://www.w3.org/2000/svg" xmlns:xlink="http://www.w3.org/1999/xlink" viewBox="0 0 150 150"><defs><style>.cls-1,.cls-38,.cls-52,.cls-64{fill:none;}.cls-2{isolation:isolate;}.cls-3{fill:#cceade;}.cls-4{fill:#7b1fa2;}.cls-5{fill:#f4dcdc;}.cls-6{fill:#f4e9ae;}.cls-7{fill:#d6f2d1;opacity:0.4;}.cls-20,.cls-21,.cls-7{mix-blend-mode:multiply;}.cls-8{fill:#e8a679;}.cls-9{fill:#4c4848;}.cls-10{fill:#849da0;}.cls-11{fill:#607a7c;}.cls-12{fill:#b3c3c4;}.cls-13{fill:url(#linear-gradient);}.cls-14{fill:#dda885;}.cls-15{fill:url(#linear-gradient-2);}.cls-16{clip-path:url(#clip-path);}.cls-17{fill:#242226;}.cls-18{fill:#aa7b5c;}.cls-19{fill:#9b6c4c;}.cls-20{fill:#c18e85;}.cls-20,.cls-21{opacity:0.29;}.cls-21{fill:#f4beae;}.cls-22{fill:#464749;}.cls-23{fill:#fff;}.cls-24{fill:#333035;}.cls-25{fill:#efcd3f;}.cls-26{fill:#6d5243;}.cls-27{fill:#fff6d2;}.cls-28{clip-path:url(#clip-path-2);}.cls-29{fill:#f4c592;}.cls-30{fill:#ffdaae;}.cls-31{fill:#d8a188;}.cls-32{fill:#bf6b6b;}.cls-33{fill:#2c3644;}.cls-34{fill:#dd8383;}.cls-35{fill:#394251;}.cls-36{fill:#ed6969;}.cls-37{fill:#d85050;}.cls-38{stroke:#e0c863;}.cls-38,.cls-52,.cls-64{stroke-linecap:round;stroke-linejoin:round;}.cls-39{fill:#281700;}.cls-40{fill:#c1875f;}.cls-41{fill:#c6946b;}.cls-42{fill:#af7d58;}.cls-43{fill:#3f2301;}.cls-44{fill:#8264bc;}.cls-45{fill:#ffb243;}.cls-46{fill:#f4e6d0;}.cls-47{fill:#442919;}.cls-48{fill:#543222;}.cls-49{fill:#fc9376;}.cls-50{fill:#fcbb92;}.cls-51{fill:#320f00;}.cls-52,.cls-64{stroke:#320f00;}.cls-52{stroke-width:0.15px;}.cls-53{fill:#5b3923;}.cls-54{fill:#e06e43;}.cls-55{fill:#848080;}.cls-56{fill:#e5bda8;}.cls-57{fill:#93684c;}.cls-58{fill:#684d3e;}.cls-59{fill:#c4a78a;}.cls-60{fill:#82573f;}.cls-61{fill:#e99867;}.cls-62{fill:#25211e;}.cls-63{fill:#312d2b;}.cls-64{stroke-width:0.25px;}.cls-65{fill:#433f3d;}.cls-66{fill:#aa5333;}.cls-67{fill:#b46838;}.cls-68{fill:#7b3c19;}.cls-69{fill:#954e21;}.cls-70{fill:#75797a;}.cls-71{fill:#718451;}.cls-72{fill:#c9d1ba;}.cls-73{font-size:7.79px;font-family:BerlinSansFB-Reg, Berlin Sans FB;}</style><linearGradient id="linear-gradient" x1="-685.91" y1="112.12" x2="-678.54" y2="91.17" gradientTransform="matrix(-0.58, -0.82, 0.82, -0.58, -438.34, -440.47)" gradientUnits="userSpaceOnUse"><stop offset="0" stop-color="#ffc8aa"/><stop offset="0.97" stop-color="#ffa46a"/></linearGradient><linearGradient id="linear-gradient-2" x1="-418.62" y1="-335.56" x2="-411.25" y2="-356.51" gradientTransform="matrix(0.49, -0.87, -0.87, -0.49, -81.48, -467.41)" xlink:href="#linear-gradient"/><clipPath id="clip-path"><path class="cls-1" d="M96.11,52.18c-1.34-1.26-3.7-2.14-5.35-2.92-.52-.24-1-.5-1.56-.75a20.05,20.05,0,0,0,2.1-8.95c0-9.94-7.21-22.16-16.69-23.78-1.11-.19-8.58,0-9.75,0-11.1,0-13.77,12.69-13.77,23.79a20,20,0,0,0,3.23,10.93c-.32.37-.61.77-.85,1-1.24,1.31-2.57,2.49-3.74,3.87-.85,1-2.11,2-2.44,3.32-.83,3.2,2.63,3.83,5.15,3.83,3.56,0,6.71-1.63,7.35-5.48,0-.25.08-.54.11-.86A20.1,20.1,0,0,0,85.19,54c1.89,1.46,3.93,2.79,5.72,4.33,1.53,1.32,3.12,3,5,3.73s2-1.49,2.13-3C98.23,56.47,98.13,54.07,96.11,52.18Z"/></clipPath><clipPath id="clip-path-2"><path class="cls-1" d="M96.11,50c-1.34-1.26-3.7-2.15-5.35-2.92l-1.56-.76a20,20,0,0,0,2.1-8.94c0-9.94-7.21-22.16-16.69-23.78-1.11-.19-8.58,0-9.75,0-11.1,0-13.77,12.68-13.77,23.79a20,20,0,0,0,3.23,10.93c-.32.37-.61.77-.85,1-1.24,1.31-2.57,2.49-3.74,3.86-.85,1-2.11,2-2.44,3.33-.83,3.2,2.63,3.83,5.15,3.83,3.56,0,6.71-1.63,7.35-5.48,0-.25.08-.55.11-.86A20.12,20.12,0,0,0,85.19,51.8c1.89,1.47,3.93,2.8,5.72,4.33,1.53,1.32,3.12,3,5,3.74s2-1.5,2.13-3C98.23,54.28,98.13,51.89,96.11,50Z"/></clipPath></defs><title>Mesa de trabajo 2</title><g class="cls-2"><g id="Capa_1" data-name="Capa 1"><path class="cls-3" d="M104.41,40.68a18.52,18.52,0,0,1-2.47-2,10.25,10.25,0,0,1-3.06-5.25,8.19,8.19,0,0,1,.08-3,7.57,7.57,0,0,0-1.23-5.82,2.77,2.77,0,0,1-.54-1,1.78,1.78,0,0,1,.76-2A3.94,3.94,0,0,1,99.89,21a9.07,9.07,0,0,1,3.74.69,25.17,25.17,0,0,1,6.16,3.44,56.85,56.85,0,0,1,6.63,5.67c.63.61,1.22,1.24,1.87,1.9.07-.3.13-.54.2-.78a2.38,2.38,0,0,1,.39-.8,1,1,0,0,1,.59-.43c.31,0,.34-.19.32-.46a6.45,6.45,0,0,0-1.59-3.6,9,9,0,0,0-1.49-1.41,3.55,3.55,0,0,1-.47-.4,1,1,0,0,1-.23-.95.84.84,0,0,1,1.41-.41,8.65,8.65,0,0,1,2.12,2.62,16.86,16.86,0,0,1,1.66,4.37,1,1,0,0,0,.13-.47,13.5,13.5,0,0,1,2.06-5.06,7,7,0,0,1,1.33-1.45.85.85,0,0,1,1.18,0,1,1,0,0,1,.1,1.27,2.57,2.57,0,0,1-.59.55,7,7,0,0,0-2.71,4.26,5.88,5.88,0,0,0-.1.94c0,.1,0,.16.14.19a1.17,1.17,0,0,1,.8.67,4.78,4.78,0,0,1,.46,1.35l.83-.83a61.56,61.56,0,0,1,8-7A23.3,23.3,0,0,1,139,21.55a9.56,9.56,0,0,1,2.69-.56,4.22,4.22,0,0,1,2.45.58,1.81,1.81,0,0,1,.51,2.74,7.54,7.54,0,0,0-1.55,5c0,.75.22,1.46.3,2.2a7.33,7.33,0,0,1-.89,4.15,14.05,14.05,0,0,1-4.24,4.67l-.52.38a15.08,15.08,0,0,1,1.49.79,10.72,10.72,0,0,1,3,2.67,5,5,0,0,1,1,2.78,11.6,11.6,0,0,1-3.72,9.37A11.34,11.34,0,0,1,135,58.83a4.4,4.4,0,0,1-4-.69,20.41,20.41,0,0,1-4.2-4.1q-1.5-1.9-2.8-3.95a5.45,5.45,0,0,0-.78-1c-.09-.08-.18-.18-.32-.14s-.11.19-.13.31,0,.42-.1.63A1.28,1.28,0,0,1,121.5,51a3,3,0,0,1-.84,0,1.37,1.37,0,0,1-1.22-1.31c0-.17,0-.33,0-.5s-.16-.34-.38-.16a4.22,4.22,0,0,0-.84,1c-.7,1.1-1.44,2.17-2.23,3.22a22.94,22.94,0,0,1-4.42,4.6,5.29,5.29,0,0,1-2.36,1.1,4.79,4.79,0,0,1-2.43-.29,11.24,11.24,0,0,1-6.26-5.09,12.67,12.67,0,0,1-1.6-5.75,6.3,6.3,0,0,1,2.61-5.33,13.42,13.42,0,0,1,2.69-1.7C104.25,40.79,104.35,40.77,104.41,40.68Z"/><path class="cls-4" d="M37,75.18a6.6,6.6,0,0,1-.91-.75A3.72,3.72,0,0,1,35,72.51a2.91,2.91,0,0,1,0-1.1,2.79,2.79,0,0,0-.45-2.14,1,1,0,0,1-.2-.35.65.65,0,0,1,.28-.73,1.36,1.36,0,0,1,.71-.23,3.38,3.38,0,0,1,1.37.26A9,9,0,0,1,39,69.48a20.06,20.06,0,0,1,2.43,2.08l.69.69a1.63,1.63,0,0,1,.07-.28,1,1,0,0,1,.14-.3.37.37,0,0,1,.22-.15c.11,0,.12-.07.12-.17A2.38,2.38,0,0,0,42.07,70a3,3,0,0,0-.54-.52.8.8,0,0,1-.17-.15.35.35,0,0,1-.09-.35.31.31,0,0,1,.52-.15,3.43,3.43,0,0,1,.78,1,6.21,6.21,0,0,1,.6,1.61.3.3,0,0,0,0-.17A4.82,4.82,0,0,1,44,69.4a2.2,2.2,0,0,1,.48-.53.31.31,0,0,1,.44,0,.35.35,0,0,1,0,.46.67.67,0,0,1-.21.2,2.61,2.61,0,0,0-1,1.57,1.87,1.87,0,0,0,0,.34s0,.06.05.07a.45.45,0,0,1,.29.25,1.58,1.58,0,0,1,.17.49c.11-.11.21-.2.3-.3a22.62,22.62,0,0,1,3-2.58,8.8,8.8,0,0,1,2.24-1.2,3.35,3.35,0,0,1,1-.2,1.6,1.6,0,0,1,.9.21.67.67,0,0,1,.19,1A2.76,2.76,0,0,0,51.2,71a7.17,7.17,0,0,0,.11.81A2.69,2.69,0,0,1,51,73.33,5.08,5.08,0,0,1,49.43,75l-.19.14c.19.09.37.19.54.29a4,4,0,0,1,1.11,1,1.92,1.92,0,0,1,.37,1,4.28,4.28,0,0,1-1.36,3.44,4.18,4.18,0,0,1-1.66.92,1.59,1.59,0,0,1-1.47-.25,7.35,7.35,0,0,1-1.54-1.51,16.35,16.35,0,0,1-1-1.44,1.48,1.48,0,0,0-.29-.37s-.06-.07-.11-.05,0,.07,0,.11a1.85,1.85,0,0,1,0,.23.46.46,0,0,1-.43.41,1.5,1.5,0,0,1-.3,0,.5.5,0,0,1-.45-.48c0-.06,0-.12,0-.18s-.06-.13-.14-.06a1.43,1.43,0,0,0-.31.38c-.25.4-.53.8-.82,1.18a8.11,8.11,0,0,1-1.62,1.69,2,2,0,0,1-.86.4,1.68,1.68,0,0,1-.89-.11,4.09,4.09,0,0,1-2.3-1.86A4.74,4.74,0,0,1,35,77.81a2.3,2.3,0,0,1,1-2,4.62,4.62,0,0,1,1-.63A.2.2,0,0,0,37,75.18Z"/><path class="cls-5" d="M57.34,38.68a18.43,18.43,0,0,1-2.46-2,10.34,10.34,0,0,1-3.07-5.25,8.41,8.41,0,0,1,.09-3,7.57,7.57,0,0,0-1.23-5.82,3,3,0,0,1-.55-1,1.81,1.81,0,0,1,.76-2A4,4,0,0,1,52.82,19a9,9,0,0,1,3.74.69,25.24,25.24,0,0,1,6.17,3.44,56.85,56.85,0,0,1,6.63,5.67c.62.61,1.22,1.24,1.86,1.9.08-.3.14-.54.2-.78a2.59,2.59,0,0,1,.39-.8,1,1,0,0,1,.6-.43c.31,0,.34-.19.32-.46a6.52,6.52,0,0,0-1.59-3.6,9.11,9.11,0,0,0-1.5-1.41,3.47,3.47,0,0,1-.46-.4.93.93,0,0,1-.23-.95.84.84,0,0,1,1.41-.41,9,9,0,0,1,2.12,2.62,16.51,16.51,0,0,1,1.65,4.37.93.93,0,0,0,.13-.47,13.67,13.67,0,0,1,2.06-5.06,7.33,7.33,0,0,1,1.33-1.45.85.85,0,0,1,1.18,0,1,1,0,0,1,.11,1.27,2.8,2.8,0,0,1-.59.55,7,7,0,0,0-2.72,4.26,5.87,5.87,0,0,0-.09.94c0,.1,0,.16.14.19a1.19,1.19,0,0,1,.8.67,4.77,4.77,0,0,1,.45,1.35l.84-.83a60.28,60.28,0,0,1,8-7,23.3,23.3,0,0,1,6.12-3.28A9.49,9.49,0,0,1,94.6,19a4.26,4.26,0,0,1,2.46.58,1.82,1.82,0,0,1,.51,2.74,7.43,7.43,0,0,0-1.55,5c0,.75.22,1.46.29,2.2a7.25,7.25,0,0,1-.89,4.15,14,14,0,0,1-4.24,4.67l-.51.38a13.88,13.88,0,0,1,1.48.79,10.72,10.72,0,0,1,3,2.67,4.89,4.89,0,0,1,1,2.78,11.56,11.56,0,0,1-3.71,9.37,11.31,11.31,0,0,1-4.53,2.52,4.41,4.41,0,0,1-4-.69A20.36,20.36,0,0,1,79.74,52a44.83,44.83,0,0,1-2.8-3.95,5.5,5.5,0,0,0-.79-1c-.08-.08-.18-.18-.31-.14s-.12.19-.13.31-.06.42-.1.63A1.29,1.29,0,0,1,74.43,49a2.89,2.89,0,0,1-.83,0,1.37,1.37,0,0,1-1.22-1.31c0-.17,0-.33,0-.5s-.17-.34-.39-.16a4.42,4.42,0,0,0-.83,1c-.7,1.1-1.45,2.17-2.23,3.22a22.94,22.94,0,0,1-4.42,4.6A5.33,5.33,0,0,1,62.09,57a4.81,4.81,0,0,1-2.43-.29,11.24,11.24,0,0,1-6.26-5.09,12.92,12.92,0,0,1-1.6-5.75,6.32,6.32,0,0,1,2.61-5.33,13.71,13.71,0,0,1,2.69-1.7C57.18,38.79,57.28,38.77,57.34,38.68Z"/><path class="cls-6" d="M9.71,42.63a18.52,18.52,0,0,1-2.47-2,10.25,10.25,0,0,1-3.06-5.25,8.19,8.19,0,0,1,.08-3A7.57,7.57,0,0,0,3,26.53a3,3,0,0,1-.55-1,1.8,1.8,0,0,1,.77-2A3.9,3.9,0,0,1,5.18,23a8.85,8.85,0,0,1,3.74.69,25.24,25.24,0,0,1,6.17,3.44,56.85,56.85,0,0,1,6.63,5.67c.62.61,1.22,1.24,1.86,1.9.08-.3.14-.54.21-.78a2.36,2.36,0,0,1,.38-.8,1,1,0,0,1,.6-.43c.31,0,.34-.19.32-.46a6.49,6.49,0,0,0-1.59-3.6A9.11,9.11,0,0,0,22,27.18a3.47,3.47,0,0,1-.46-.4.93.93,0,0,1-.23-1,.84.84,0,0,1,1.41-.41A8.83,8.83,0,0,1,24.84,28a16.51,16.51,0,0,1,1.65,4.37.93.93,0,0,0,.13-.47,13.67,13.67,0,0,1,2.06-5.06A7.33,7.33,0,0,1,30,25.43a.86.86,0,0,1,1.19,0,1,1,0,0,1,.1,1.27,2.8,2.8,0,0,1-.59.55A6.87,6.87,0,0,0,28,31.48a4.92,4.92,0,0,0-.1.94c0,.1,0,.16.14.19a1.19,1.19,0,0,1,.8.67,4.78,4.78,0,0,1,.46,1.35l.83-.83a60.92,60.92,0,0,1,8-7,23.3,23.3,0,0,1,6.12-3.28A9.49,9.49,0,0,1,47,22.94a4.26,4.26,0,0,1,2.46.58,1.82,1.82,0,0,1,.51,2.74,7.48,7.48,0,0,0-1.55,5c0,.75.22,1.46.29,2.2a7.2,7.2,0,0,1-.89,4.14,13.89,13.89,0,0,1-4.24,4.68l-.51.38a13.88,13.88,0,0,1,1.48.79,10.72,10.72,0,0,1,3,2.67,5,5,0,0,1,1,2.78,11.6,11.6,0,0,1-3.72,9.37,11.31,11.31,0,0,1-4.53,2.52,4.41,4.41,0,0,1-4-.69A20.15,20.15,0,0,1,32.1,56,45.3,45.3,0,0,1,29.3,52a5.1,5.1,0,0,0-.79-1c-.08-.08-.18-.18-.31-.14s-.12.19-.13.31-.05.42-.1.63a1.27,1.27,0,0,1-1.18,1.11A2.57,2.57,0,0,1,26,53a1.37,1.37,0,0,1-1.22-1.31c0-.17,0-.33,0-.5s-.17-.34-.39-.16a4.42,4.42,0,0,0-.83,1c-.7,1.1-1.45,2.17-2.23,3.22a22.94,22.94,0,0,1-4.42,4.6,5.33,5.33,0,0,1-2.37,1.1A4.92,4.92,0,0,1,12,60.65a11.24,11.24,0,0,1-6.26-5.09,12.92,12.92,0,0,1-1.6-5.75,6.32,6.32,0,0,1,2.61-5.33,13.71,13.71,0,0,1,2.69-1.7A.54.54,0,0,0,9.71,42.63Z"/><path class="cls-6" d="M104.26,111.26a18.43,18.43,0,0,1-2.46-2A10.34,10.34,0,0,1,98.73,104a8.41,8.41,0,0,1,.09-3,7.58,7.58,0,0,0-1.23-5.82,3,3,0,0,1-.55-1,1.81,1.81,0,0,1,.76-2,4,4,0,0,1,1.94-.62,9,9,0,0,1,3.74.69,25.24,25.24,0,0,1,6.17,3.44,57.83,57.83,0,0,1,6.63,5.67c.62.61,1.22,1.24,1.86,1.9.08-.3.14-.54.2-.78a2.59,2.59,0,0,1,.39-.8,1,1,0,0,1,.6-.42c.31-.05.34-.2.32-.47a6.55,6.55,0,0,0-1.59-3.6,9.11,9.11,0,0,0-1.5-1.41,3.47,3.47,0,0,1-.46-.4.93.93,0,0,1-.23-1,.84.84,0,0,1,1.41-.41,9,9,0,0,1,2.12,2.62,16.51,16.51,0,0,1,1.65,4.37.93.93,0,0,0,.13-.47,13.67,13.67,0,0,1,2.06-5.06,7.33,7.33,0,0,1,1.33-1.45.84.84,0,0,1,1.18,0,1,1,0,0,1,.11,1.27,2.75,2.75,0,0,1-.59.54,7,7,0,0,0-2.72,4.26,5.87,5.87,0,0,0-.09.94c0,.1,0,.17.14.19a1.19,1.19,0,0,1,.8.67,4.77,4.77,0,0,1,.45,1.35l.84-.83a60.28,60.28,0,0,1,8-7,23.3,23.3,0,0,1,6.12-3.28,9.85,9.85,0,0,1,2.68-.56,4.26,4.26,0,0,1,2.46.58,1.82,1.82,0,0,1,.51,2.74,7.45,7.45,0,0,0-1.55,5c0,.75.22,1.46.29,2.2a7.25,7.25,0,0,1-.89,4.15,13.85,13.85,0,0,1-4.24,4.67l-.51.38a16,16,0,0,1,1.48.79,10.72,10.72,0,0,1,3,2.67,4.89,4.89,0,0,1,1,2.78,11.56,11.56,0,0,1-3.71,9.37,11.2,11.2,0,0,1-4.53,2.52,4.41,4.41,0,0,1-4-.68,21,21,0,0,1-4.2-4.11,46.91,46.91,0,0,1-2.79-4,5.12,5.12,0,0,0-.79-1c-.08-.09-.18-.19-.31-.15s-.12.19-.14.31-.05.42-.09.63a1.29,1.29,0,0,1-1.18,1.12,2.89,2.89,0,0,1-.83,0,1.35,1.35,0,0,1-1.22-1.31l-.06-.5c0-.28-.16-.34-.38-.16a4.42,4.42,0,0,0-.83,1c-.7,1.1-1.45,2.18-2.23,3.22a22.94,22.94,0,0,1-4.42,4.6,5.22,5.22,0,0,1-2.37,1.1,4.8,4.8,0,0,1-2.43-.29,11.24,11.24,0,0,1-6.26-5.09,12.85,12.85,0,0,1-1.6-5.75,6.32,6.32,0,0,1,2.61-5.33,13.71,13.71,0,0,1,2.69-1.7C104.1,111.37,104.2,111.35,104.26,111.26Z"/><path class="cls-3" d="M58.68,111.8a19.23,19.23,0,0,1-2.46-2,10.34,10.34,0,0,1-3.07-5.25,8.41,8.41,0,0,1,.09-3A7.57,7.57,0,0,0,52,95.7a3,3,0,0,1-.55-1,1.81,1.81,0,0,1,.76-2,4,4,0,0,1,1.94-.62,8.85,8.85,0,0,1,3.74.69,25.24,25.24,0,0,1,6.17,3.44,56.85,56.85,0,0,1,6.63,5.67c.62.61,1.22,1.24,1.86,1.9.08-.3.14-.54.2-.78a2.59,2.59,0,0,1,.39-.8,1,1,0,0,1,.6-.43c.31,0,.34-.19.32-.46a6.49,6.49,0,0,0-1.59-3.6A9.11,9.11,0,0,0,71,96.35a3.47,3.47,0,0,1-.46-.4.93.93,0,0,1-.23-1,.84.84,0,0,1,1.41-.41,8.83,8.83,0,0,1,2.12,2.62,16.51,16.51,0,0,1,1.65,4.37.93.93,0,0,0,.13-.47,13.67,13.67,0,0,1,2.06-5.06A7.33,7.33,0,0,1,79,94.6a.85.85,0,0,1,1.18,0,1,1,0,0,1,.11,1.27,2.8,2.8,0,0,1-.59.55A6.93,6.93,0,0,0,77,100.65a5.87,5.87,0,0,0-.09.94c0,.1,0,.16.14.19a1.19,1.19,0,0,1,.8.67,4.77,4.77,0,0,1,.45,1.35l.84-.83a60.28,60.28,0,0,1,8-7,23.3,23.3,0,0,1,6.12-3.28,9.49,9.49,0,0,1,2.68-.56,4.26,4.26,0,0,1,2.46.58,1.82,1.82,0,0,1,.51,2.74,7.43,7.43,0,0,0-1.55,5c0,.75.22,1.46.29,2.2a7.2,7.2,0,0,1-.89,4.14,13.89,13.89,0,0,1-4.24,4.68l-.51.38a13.88,13.88,0,0,1,1.48.79,10.72,10.72,0,0,1,3,2.67,4.89,4.89,0,0,1,1,2.78,11.56,11.56,0,0,1-3.71,9.37A11.44,11.44,0,0,1,89.28,130a4.41,4.41,0,0,1-4-.69,20.45,20.45,0,0,1-4.2-4.11,45.19,45.19,0,0,1-2.79-3.94,5.5,5.5,0,0,0-.79-1c-.08-.08-.18-.18-.31-.14s-.12.19-.13.31-.06.42-.1.63a1.27,1.27,0,0,1-1.18,1.11,2.32,2.32,0,0,1-.83,0,1.34,1.34,0,0,1-1.22-1.3l-.06-.5c0-.28-.16-.34-.38-.16a4.42,4.42,0,0,0-.83,1c-.7,1.1-1.45,2.17-2.23,3.22A22.94,22.94,0,0,1,65.8,129a5.33,5.33,0,0,1-2.37,1.1,4.92,4.92,0,0,1-2.43-.29,11.24,11.24,0,0,1-6.26-5.09,12.92,12.92,0,0,1-1.6-5.75,6.32,6.32,0,0,1,2.61-5.33,14.24,14.24,0,0,1,2.69-1.71A.43.43,0,0,0,58.68,111.8Z"/><path class="cls-5" d="M10.47,114.35a18.43,18.43,0,0,1-2.46-2,10.34,10.34,0,0,1-3.07-5.25,8.41,8.41,0,0,1,.09-3A7.57,7.57,0,0,0,3.8,98.25a3,3,0,0,1-.55-1,1.81,1.81,0,0,1,.76-2A4,4,0,0,1,6,94.68a9,9,0,0,1,3.74.69,25.24,25.24,0,0,1,6.17,3.44,57.83,57.83,0,0,1,6.63,5.67c.62.61,1.22,1.24,1.86,1.9.08-.3.14-.54.2-.78a2.59,2.59,0,0,1,.39-.8,1,1,0,0,1,.6-.42c.31,0,.34-.2.32-.47a6.52,6.52,0,0,0-1.59-3.6,9.11,9.11,0,0,0-1.5-1.41,3.47,3.47,0,0,1-.46-.4.93.93,0,0,1-.23-1,.84.84,0,0,1,1.41-.41,9,9,0,0,1,2.12,2.62,16.51,16.51,0,0,1,1.65,4.37.93.93,0,0,0,.13-.47,13.67,13.67,0,0,1,2.06-5.06,7.33,7.33,0,0,1,1.33-1.45.84.84,0,0,1,1.18,0,1,1,0,0,1,.11,1.27,3,3,0,0,1-.59.54,7,7,0,0,0-2.72,4.26,5.87,5.87,0,0,0-.09.94c0,.1,0,.16.14.19a1.19,1.19,0,0,1,.8.67,4.77,4.77,0,0,1,.45,1.35l.84-.83a60.28,60.28,0,0,1,8-7,23.3,23.3,0,0,1,6.12-3.28,9.85,9.85,0,0,1,2.68-.56,4.26,4.26,0,0,1,2.46.58A1.82,1.82,0,0,1,50.7,98a7.45,7.45,0,0,0-1.55,5c0,.75.22,1.46.29,2.2a7.25,7.25,0,0,1-.89,4.15A14,14,0,0,1,44.31,114l-.51.38a16,16,0,0,1,1.48.79,10.72,10.72,0,0,1,3,2.67,4.89,4.89,0,0,1,1,2.78A11.56,11.56,0,0,1,45.6,130a11.31,11.31,0,0,1-4.53,2.52,4.41,4.41,0,0,1-4-.68,21,21,0,0,1-4.2-4.11,46.91,46.91,0,0,1-2.79-3.95,5.12,5.12,0,0,0-.79-1c-.08-.09-.18-.19-.31-.15s-.12.19-.14.31,0,.42-.09.63a1.29,1.29,0,0,1-1.18,1.12,2.89,2.89,0,0,1-.83,0,1.35,1.35,0,0,1-1.22-1.31l-.06-.5c0-.28-.16-.34-.38-.16a4.42,4.42,0,0,0-.83,1c-.7,1.1-1.45,2.18-2.23,3.22a22.94,22.94,0,0,1-4.42,4.6,5.22,5.22,0,0,1-2.37,1.1,4.8,4.8,0,0,1-2.43-.29,11.24,11.24,0,0,1-6.26-5.09,12.89,12.89,0,0,1-1.6-5.75,6.32,6.32,0,0,1,2.61-5.33,13.71,13.71,0,0,1,2.69-1.7C10.31,114.46,10.41,114.44,10.47,114.35Z"/><path class="cls-7" d="M146,57a21.83,21.83,0,0,0,2.11-8.3c.28-7-2.52-13.29-6.63-18.74-8.05-9.82-21-13.38-33.24-11.85a61.75,61.75,0,0,0-25.3,9.3c-6.44,4.14-13.15,11.6-21,13S46.65,35.52,39.31,33.9c-6.83-1.5-14.12-2-21-.41C6.5,36.28-.41,45.83,1.64,58c.73,4.29,6,7.33,5.07,9.52-12.95,29.13,12.36,41,40.68,49.32,60.13,17.65,85.52,6.26,96.81-5.06,5.26-5.28,7.29-13.47,6.7-20.74-.53-6.72-3.42-13.26-9.63-16.46a9.74,9.74,0,0,1-2.6-1.6C134.74,69,144.41,60.48,146,57Z"/><path class="cls-8" d="M26.38,32.64a9.65,9.65,0,0,0-.4,2.44,2.81,2.81,0,0,0,.4,1.7c-1.29.51-2.82.78-3.57-.3,1.62-.86,1-2.8,1.22-4.24A3.26,3.26,0,0,1,26.38,32.64Z"/><path class="cls-9" d="M20.41,36.61a17.85,17.85,0,0,0-2.32.72c-.19.2.46,2.52.63,3.59.3,1.92.92,3.79,1.2,5.72.21,1.48.41,3,.69,4.43.16.84.28,1.71.36,2.55,0,.25,0,.52.17.68a1,1,0,0,0,.57.17,23.2,23.2,0,0,0,2.5.08c1,0,2,0,3,0,.64,0,1.28,0,1.93-.07,0-.84,0-1.7,0-2.55,0-2.21.49-4.36.61-6.56.11-1.83.14-3.64.43-5.46a25.52,25.52,0,0,0,.39-2.58c0-.36-.71-.34-1.08-.48a6.77,6.77,0,0,0-1.86-.21,26.75,26.75,0,0,0-4.45-.39c-.59,0-1.17.08-1.75.14A9.5,9.5,0,0,0,20.41,36.61Z"/><path class="cls-10" d="M20.77,42.27c.82,0,1.63,0,2.45,0A24,24,0,0,1,27.7,42c.86.12.89.16.9,1,0,1.88-.28,4.08.33,5.9a16.89,16.89,0,0,1,1,2,13.42,13.42,0,0,1,.2,3.47,73.71,73.71,0,0,1-10,.13c.11-1-.39-2.08-.2-3.16.14-.8.88-1.28,1.26-2.07.53-1.14.25-1.75.11-3C21.18,45.42,20.78,43.37,20.77,42.27Z"/><path class="cls-11" d="M19.66,36.88a1.94,1.94,0,0,1,1.64-.54c.3.16.56,1.37.67,1.67.28.73.57,1.46.78,2.22s.86,2.32.59,3c-.16.39-.89.42-1.31.37A22.28,22.28,0,0,0,19.66,36.88Z"/><path class="cls-12" d="M23.11,42.74a.44.44,0,0,1-.44.44.44.44,0,0,1-.43-.44.43.43,0,0,1,.43-.43A.44.44,0,0,1,23.11,42.74Z"/><path class="cls-11" d="M29.48,36.73a1.88,1.88,0,0,0-1.67-.24c-.26.21-.3,1.43-.35,1.73-.14.76-.29,1.51-.36,2.28s-.42,2.4,0,3c.22.34.92.25,1.32.13A21.71,21.71,0,0,1,29.48,36.73Z"/><path class="cls-12" d="M27.2,43a.42.42,0,1,0,.34-.5A.43.43,0,0,0,27.2,43Z"/><path class="cls-11" d="M22.88,44.84c1.51,0,3,0,4.53,0,0,.83,0,1.66.05,2.49,0,.34.16,1-.11,1.29s-1.41,0-1.69,0H24.07c-.45,0-.89-.12-1.32-.08A10.26,10.26,0,0,1,22.88,44.84Z"/><path class="cls-10" d="M20,54.1c0,1.1-.3,2.32-.38,3.43,0,.6,0,1.23,0,1.83a3.9,3.9,0,0,0,0,1.13c.23.39,1.26.4,1.62.46,1.46.25,2.94.34,4.41.52a25.83,25.83,0,0,0,2.92.13,5.18,5.18,0,0,0,2.12-.12c.42-.24.34-.23.39-.72a29.7,29.7,0,0,0-.74-6.92c-.22-.79-.48,1.11-.63.34-1.81-.07-3.62-.09-5.44-.14-.7,0-1.71.22-2.34-.2"/><path class="cls-11" d="M19.92,53.32h8.67c.46,0,1.26.17,1.58-.15a3.31,3.31,0,0,1,.14,1.24,63.94,63.94,0,0,1-8.19.29,8,8,0,0,1-1.9,0C19.6,54.52,19.88,54.45,19.92,53.32Z"/><path class="cls-13" d="M48.4,53.51a3.51,3.51,0,0,1,.33.34c.77.87,1,2.36,2.2,2.77.17-.36-.6-1-.56-1.57.51.47,1,.89,1.45,1.4a12.49,12.49,0,0,0,.93.85c.14.12.34,0,.24-.17a9.14,9.14,0,0,0-1.51-1.84c.72.54,1.8,2.26,2.68,2.27a.89.89,0,0,0-.19-.79c.12.06.44.42.56.15.21-.45-.83-1.45-1.11-1.85.36.24.74.86,1.19.9.19-.46-.27-.78-.59-1.07a12.61,12.61,0,0,0-2.51-1.85,6.17,6.17,0,0,0-2.36-.86A1.16,1.16,0,0,1,49,52,13.47,13.47,0,0,1,48.4,53.51Z"/><path class="cls-14" d="M53.89,56.73a1.73,1.73,0,0,0-.26-.28c-.09-.1-.18-.19-.26-.29s-.32-.4-.49-.58l-.5-.58c-.16-.19-.35-.37-.53-.55a2.69,2.69,0,0,1,.66.41,7.14,7.14,0,0,1,.54.56,3.76,3.76,0,0,1,.25.31c.07.11.15.21.21.32s.14.21.21.32A1.31,1.31,0,0,1,53.89,56.73Z"/><path class="cls-14" d="M53.46,55.17a2.26,2.26,0,0,1-.31-.23l-.28-.26a2.17,2.17,0,0,1-.24-.29,3.74,3.74,0,0,1-.25-.29.82.82,0,0,1,.36.15,1.93,1.93,0,0,1,.3.26,2.42,2.42,0,0,1,.25.31A1.14,1.14,0,0,1,53.46,55.17Z"/><path class="cls-15" d="M8.66,59.3a4.22,4.22,0,0,0-.29.37c-.67,1-.74,2.46-1.89,3-.21-.34.49-1.08.39-1.62-.46.52-.86,1-1.3,1.54a10.65,10.65,0,0,1-.83.95c-.13.13-.34,0-.26-.14a9.32,9.32,0,0,1,1.31-2C5.13,62,4.24,63.84,3.36,64a.91.91,0,0,1,.11-.81c-.11.07-.39.46-.54.21-.26-.43.67-1.53.91-2-.34.28-.65.93-1.09,1-.25-.44.18-.8.47-1.12a12.79,12.79,0,0,1,2.3-2.11,6.12,6.12,0,0,1,2.26-1.11,1.63,1.63,0,0,0,.17-.2A12.68,12.68,0,0,0,8.66,59.3Z"/><path class="cls-14" d="M3.55,63.09a3,3,0,0,1,.22-.31A3.55,3.55,0,0,0,4,62.47c.16-.22.28-.43.43-.63l.43-.63c.14-.21.31-.4.47-.6a2.49,2.49,0,0,0-.61.47,6.87,6.87,0,0,0-.48.62c-.07.11-.15.22-.21.33a2.91,2.91,0,0,0-.18.35,3.59,3.59,0,0,0-.17.34A1.26,1.26,0,0,0,3.55,63.09Z"/><path class="cls-14" d="M3.81,61.5a3.57,3.57,0,0,0,.28-.27l.25-.29a2.82,2.82,0,0,0,.21-.31c.07-.1.14-.2.21-.32a1.14,1.14,0,0,0-.34.19,2.52,2.52,0,0,0-.27.3,1.85,1.85,0,0,0-.21.33A1.08,1.08,0,0,0,3.81,61.5Z"/><path class="cls-9" d="M30.49,37.15a8.31,8.31,0,0,0,2.45,2l4.37,3.17c2.51,1.81,4.93,3.78,7.39,5.67,1.3,1,2.53,2.17,3.75,3.27.35.31.86.89,1.33,1a5.52,5.52,0,0,1-.68,1.51,6.48,6.48,0,0,1-1.68-.67c-1.33-.69-2.62-1.42-3.91-2.19a88.63,88.63,0,0,1-10-6.48c-.85-.68-2.81-1.33-3.56-2.11-.15-.15.09.2,0,0a7.88,7.88,0,0,1,.09-4"/><path class="cls-9" d="M18.06,37.29a8.22,8.22,0,0,1-1.32,2.79c-.85,1.52-1.7,3.05-2.56,4.57-1.46,2.62-2.78,5.34-4.17,8-.73,1.42-1.33,3-2,4.41a3.59,3.59,0,0,1-.76,1.4,4.89,4.89,0,0,0,1.21,1,6.61,6.61,0,0,0,1.2-1.27q1.32-1.73,2.54-3.52a85.66,85.66,0,0,0,6.15-9.8A26.8,26.8,0,0,0,19.83,42a1.64,1.64,0,0,0,.09-.58,5.85,5.85,0,0,0-1-3.25"/><path class="cls-1" d="M59,57.66c-.84-.56-2.24-7.6-4-7.58,3.67-4-4.57-6-4.57-11.92A22.55,22.55,0,1,0,13.05,55.09c-3,1.29-6.13,5.46-5.4,8.61.55,2.4,6.45,1.89,8.15.75,1.4-.94,3.65-6.11,4.29-8.09A19.9,19.9,0,0,0,27.93,58,19.14,19.14,0,0,0,39.77,54.1c.38,3.21,8,6.1,10.81,6.67,1.73,0,2.6,2.68,2.49.11C53,58.81,60.74,58.8,59,57.66Z"/><g class="cls-16"><path class="cls-17" d="M80.75,25.48c1.33.32,1.65,3,.79,4.05a2.63,2.63,0,0,1,.93,2c0,1.34-.74.92-1.33,1.65a3.94,3.94,0,0,1,.37,2.43c-.21.81-.57.73-1.1,1s-.29-.07-.61.83c-.25.73-.6,1.4-1.29,1.47s-.67-.71-1-.77-.56.49-1,.8c-1,.8-2,.45-2.76-.71-1,.46-1.81,1.18-3,1.28A2.51,2.51,0,0,1,68,38.18c-1.5,0-3.19,0-4-2,.12-.13.22-.42.33-.52A2.37,2.37,0,0,1,62,34c-.14-.47-.23-1.12.15-1.4-.81-.55-1.44-2.84,0-2.48-.51-.27-.38-.91-.36-1.48.13,0,.3-.05.44,0a3.11,3.11,0,0,1-.65-2.35,5.2,5.2,0,0,1,2.76-2.71c.37-.15.77-.06,1.11-.2.67-.27,1.28-1.09,2-1.38a7.84,7.84,0,0,1,6.07.12c1.06.47,2.1,1.1,3.17,1.51s2.36-.19,3.13.51"/><path class="cls-18" d="M75.1,29.36c.94,0,1.07.45,1,1.26s-.55,1-1.39,1A6.39,6.39,0,0,1,75,29.78"/><path class="cls-19" d="M70,34.55a7.15,7.15,0,0,1,.32,1.83A2.13,2.13,0,0,1,70,37.66c1,.38,2.23.58,2.82-.22-1.28-.65-.82-2.12-1-3.19A2.62,2.62,0,0,0,70,34.55Z"/><path class="cls-18" d="M72,21.31c-1.38-.15-2.78-.51-3.9.44A4.79,4.79,0,0,0,66.45,25c-.35,3.16-.42,6.46,1.48,8.31,1.08,1.06,3,2.54,5,.85s4.12-7.32,3.77-9.53C76.33,22.2,74.8,21.58,72,21.31Z"/><path class="cls-20" d="M70.28,28.49a10.91,10.91,0,0,0-.72,2.13.58.58,0,0,0,.65.67,8,8,0,0,0,.23-1.61c0-.29.12-1.07-.07-1.32C70.37,28.36,70.33,28.36,70.28,28.49Z"/><path class="cls-21" d="M74.37,30.26a1.11,1.11,0,0,1-1.24.9,1.07,1.07,0,0,1-1-1.14,1.12,1.12,0,0,1,1.25-.9A1.06,1.06,0,0,1,74.37,30.26Z"/><path class="cls-21" d="M68.72,29.66a1.1,1.1,0,0,1-1.24.9,1,1,0,0,1-1-1.13,1.11,1.11,0,0,1,1.24-.9A1,1,0,0,1,68.72,29.66Z"/><path class="cls-22" d="M69.91,27.82a1.19,1.19,0,0,0-.46-.38,2,2,0,0,0-.54-.19,1.69,1.69,0,0,0-.55,0,.81.81,0,0,0-.49.29.63.63,0,0,1,.42-.49A1.21,1.21,0,0,1,69,27a1.31,1.31,0,0,1,.6.27A.81.81,0,0,1,69.91,27.82Z"/><path class="cls-22" d="M73.47,28.17a1.19,1.19,0,0,0-.41-.37,1.7,1.7,0,0,0-.49-.18.93.93,0,0,0-1,.28.64.64,0,0,1,.37-.49,1.08,1.08,0,0,1,.64-.06,1.22,1.22,0,0,1,.57.28A.74.74,0,0,1,73.47,28.17Z"/><path class="cls-23" d="M69.23,32.2a5.28,5.28,0,0,1,2.35-.41C71.52,33.18,69.87,33,69.23,32.2Z"/><path class="cls-24" d="M71,16.87c-1.62-.49-3.31-1-3.32,1.59-1.11.07-1.88-.27-2.61.66a1.79,1.79,0,0,0-.11,2.38c-.78.38-1.78.92-1.48,2.14.34,1.41,1.72.9,2.71,1-.35,1.73,1.33,1.81,2.18,1.06a1,1,0,0,0,1.92,0c.24,1.46,1.46,1.18,2.23.35.42,1.67,1.31,1.64,2.19.35.62,2.3,3.57,1,3.21-1.2,2-.46,3.38-.67,2.25-3.36-.05-.13-.65-.46-.77-.65s.06-.74-.17-1.07c-.42-.63-.8-1.16-1.48-.79-.1-1.41-1.68-3.53-3-2.78,0,.22,0,.46,0,.69-.56-.89-1.83-1.42-2.41-.2C71.85,16.5,71.36,16.35,71,16.87Z"/><path class="cls-25" d="M67,37.93a3.41,3.41,0,0,0-1,.3c-.22.1.21,2.58.36,3.52.27,1.71.82,3.36,1.06,5.08.19,1.31.37,2.62.61,3.92.14.74.25,1.52.32,2.26,0,.22,0,.46.15.6a.85.85,0,0,0,.51.15c.72.08,1.49.07,2.21.08h2.64c.58,0,1.14,0,1.71-.06,0-.74,0-1.5,0-2.25,0-2,.43-3.87.54-5.82.1-1.62.12-3.23.38-4.84a23.46,23.46,0,0,0,.38-2.35c0-.32-.38-.39-.71-.51-.65-.24-1.24,0-1.93,0a23.94,23.94,0,0,0-4-.34c-.52,0-1,.06-1.55.12C68.46,37.76,67.12,37.88,67,37.93Z"/><path class="cls-19" d="M66.76,38c3.71-1.14,5-1.21,9.34,0-.32,1.72-3.55,1.94-4.91,2A5.43,5.43,0,0,1,66.76,38Z"/><path class="cls-19" d="M90.1,55.41c.08.12.16.23.23.35.55.87.53,2.21,1.52,2.74.21-.29-.37-1-.26-1.45.38.48.72.91,1.07,1.43.18.26.48.63.69.88s.3.06.23-.11a7.75,7.75,0,0,0-1-1.83c.55.58,1.24,2.23,2,2.37a.77.77,0,0,0-.05-.72c.1.07.33.43.47.22.25-.37-.51-1.39-.7-1.79.28.27.52.86.9,1,.25-.37-.11-.72-.35-1a11.36,11.36,0,0,0-1.93-2,5.42,5.42,0,0,0-1.94-1.09,1.15,1.15,0,0,1-.14-.19A13.47,13.47,0,0,1,90.1,55.41Z"/><path class="cls-26" d="M94.43,59a1.81,1.81,0,0,0-.19-.29l-.19-.29c-.12-.2-.22-.39-.34-.58l-.35-.58c-.12-.19-.25-.37-.39-.55a2.22,2.22,0,0,1,.52.45,5.23,5.23,0,0,1,.39.57l.18.3c0,.11.09.21.14.32a2.88,2.88,0,0,1,.13.31A1,1,0,0,1,94.43,59Z"/><path class="cls-26" d="M94.28,57.6a2.83,2.83,0,0,1-.24-.25l-.21-.27-.17-.28-.17-.3a1,1,0,0,1,.3.19A1.93,1.93,0,0,1,94,57a1.69,1.69,0,0,1,.17.29A1.22,1.22,0,0,1,94.28,57.6Z"/><path class="cls-19" d="M55,56.71l-.29.29c-.7.76-.94,2.08-2,2.41-.14-.32.55-.88.53-1.37-.46.4-.87.76-1.32,1.2a8.54,8.54,0,0,1-.84.74c-.13.1-.3,0-.21-.16a8.35,8.35,0,0,1,1.38-1.6c-.65.47-1.64,2-2.42,2a.79.79,0,0,1,.18-.7c-.11.05-.4.36-.5.13-.18-.42.76-1.27,1-1.62-.33.2-.68.74-1.07.77-.17-.42.25-.69.54-.93a10.72,10.72,0,0,1,2.26-1.59,5.39,5.39,0,0,1,2.11-.71c.07-.05.12-.11.18-.16A11.71,11.71,0,0,0,55,56.71Z"/><path class="cls-26" d="M50.08,59.45a2.83,2.83,0,0,1,.24-.25l.24-.25c.16-.17.29-.34.45-.5s.31-.34.45-.51.31-.31.48-.47a2.09,2.09,0,0,0-.59.35c-.18.16-.33.31-.49.48l-.23.27-.2.28-.19.29A1.29,1.29,0,0,0,50.08,59.45Z"/><path class="cls-26" d="M50.5,58.08c.09-.07.19-.13.28-.21l.25-.22c.08-.08.15-.17.22-.25l.23-.25a.77.77,0,0,0-.33.12,3,3,0,0,0-.27.23,2.53,2.53,0,0,0-.22.26A1.07,1.07,0,0,0,50.5,58.08Z"/><path class="cls-19" d="M76.81,38.51a7.37,7.37,0,0,0,1.85,2.13L82,44.05c1.93,1.94,3.75,4,5.63,6,1,1.06,1.89,2.26,2.8,3.4.26.32.62.9,1,1a4.47,4.47,0,0,1-.81,1.22,5.9,5.9,0,0,1-1.37-.83c-1.06-.79-2.09-1.62-3.1-2.48a77.5,77.5,0,0,1-7.81-7.12,23.54,23.54,0,0,1-2-2.25,1.52,1.52,0,0,1-.23-.48,5.43,5.43,0,0,1,.07-3.12"/><path class="cls-19" d="M65.93,38.23c-.48.82-1.09,1.87-1.58,2.53l-2.78,3.72C60,46.61,58.51,48.85,57,51c-.81,1.15-1.51,2.43-2.24,3.64-.2.35-.47.95-.83,1.14a4.29,4.29,0,0,0,.94,1.06,5.86,5.86,0,0,0,1.2-1c.92-.91,1.79-1.84,2.65-2.8a77.1,77.1,0,0,0,6.54-7.89,23.15,23.15,0,0,0,1.6-2.43,1.41,1.41,0,0,0,.16-.49,5.28,5.28,0,0,0-.49-3"/><path class="cls-25" d="M68.31,53.42a8.17,8.17,0,0,1-.69,2.28,20.5,20.5,0,0,0-.75,2.84,25.22,25.22,0,0,0-.2,3.55c0,.19.41.31.5.48.35.65,2.15.55,2.86.57,2.77.08,5.47-.58,8.22-.74.37-2.62-.94-5.82-2.25-8-.34-.57-.45-1.06-1.09-1.26-1.07-.35-3,0-4.1,0A10.55,10.55,0,0,0,68.31,53.42Z"/><path class="cls-27" d="M72.11,43.07a.85.85,0,1,1-.85-.85A.85.85,0,0,1,72.11,43.07Z"/><path class="cls-27" d="M70.48,46.19a.45.45,0,0,1-.46.46.46.46,0,0,1-.47-.46.47.47,0,0,1,.47-.47A.46.46,0,0,1,70.48,46.19Z"/><path class="cls-27" d="M73.27,46a.24.24,0,0,1-.24.23.24.24,0,0,1,0-.47A.24.24,0,0,1,73.27,46Z"/><path class="cls-27" d="M74.28,43a.19.19,0,0,1-.19.19A.18.18,0,0,1,73.9,43a.19.19,0,0,1,.19-.19A.2.2,0,0,1,74.28,43Z"/><circle class="cls-27" cx="74.09" cy="41.13" r="0.19"/><circle class="cls-27" cx="68.17" cy="41.21" r="0.56"/><path class="cls-27" d="M67.61,43.82a.29.29,0,1,1-.29-.28A.29.29,0,0,1,67.61,43.82Z"/><circle class="cls-27" cx="74.46" cy="45.16" r="0.57"/><path class="cls-27" d="M71.26,49.67a.39.39,0,1,1-.39-.38A.39.39,0,0,1,71.26,49.67Z"/><path class="cls-27" d="M69.55,48a.41.41,0,1,1-.82,0,.41.41,0,1,1,.82,0Z"/><path class="cls-27" d="M73.71,48.83a.46.46,0,1,1-.91,0,.46.46,0,0,1,.91,0Z"/><circle class="cls-27" cx="71.54" cy="53.82" r="0.73"/><circle class="cls-27" cx="70.68" cy="57.56" r="0.51"/><circle class="cls-27" cx="68.53" cy="56.86" r="0.36"/><circle class="cls-27" cx="73.67" cy="56.16" r="0.42"/><circle class="cls-27" cx="74.25" cy="51.59" r="0.36"/><path class="cls-27" d="M72.8,51.36a.13.13,0,1,1-.26,0,.13.13,0,0,1,.26,0Z"/><circle class="cls-27" cx="69.86" cy="51.53" r="0.63"/><path class="cls-27" d="M73.47,60.84a.67.67,0,1,1-.67-.66A.67.67,0,0,1,73.47,60.84Z"/><circle class="cls-27" cx="76.32" cy="59.37" r="0.35"/><path class="cls-27" d="M75.32,54.91a.36.36,0,0,1-.71,0,.36.36,0,1,1,.71,0Z"/><path class="cls-27" d="M73.71,58.23a.46.46,0,1,1-.91,0,.46.46,0,0,1,.91,0Z"/><path class="cls-27" d="M70.81,59.65a.63.63,0,0,1-.63.63.63.63,0,1,1,0-1.25A.63.63,0,0,1,70.81,59.65Z"/><circle class="cls-27" cx="68.5" cy="61.18" r="0.33"/><circle class="cls-27" cx="70.29" cy="62.47" r="0.39"/><path class="cls-27" d="M72.27,41.07a.42.42,0,1,1-.42-.42A.42.42,0,0,1,72.27,41.07Z"/><path class="cls-25" d="M75.18,31.18a1.24,1.24,0,0,1,.2-.1c-.09.78-.26,3.36.91,2.34.69-.6-.62-1.82-.27-2.5.17,1,1.48,2.41.09,2.92S74.8,32,75.18,31.18Z"/></g><g class="cls-28"><path class="cls-17" d="M80.75,23.3c1.33.31,1.65,3,.79,4a2.64,2.64,0,0,1,.93,2c0,1.35-.74.92-1.33,1.65a4,4,0,0,1,.37,2.44c-.21.81-.57.73-1.1,1s-.29-.07-.61.83c-.25.73-.6,1.39-1.29,1.46s-.67-.7-1-.76-.56.49-1,.8c-1,.8-2,.45-2.76-.71-1,.46-1.81,1.18-3,1.28A2.51,2.51,0,0,1,68,36c-1.5,0-3.19,0-4-2,.12-.12.22-.41.33-.51A2.36,2.36,0,0,1,62,31.85c-.14-.47-.23-1.11.15-1.39-.81-.55-1.44-2.84,0-2.49-.51-.27-.38-.9-.36-1.48.13,0,.3,0,.44,0a3.09,3.09,0,0,1-.65-2.35,5.28,5.28,0,0,1,2.76-2.71c.37-.15.77-.06,1.11-.2.67-.27,1.28-1.08,2-1.38a7.84,7.84,0,0,1,6.07.13c1.06.47,2.1,1.1,3.17,1.51S79,21.3,79.76,22"/><path class="cls-18" d="M75.1,27.18c.94,0,1.07.45,1,1.25s-.55,1-1.39,1A6.39,6.39,0,0,1,75,27.59"/><path class="cls-19" d="M70,32.36a7.3,7.3,0,0,1,.32,1.84A2.13,2.13,0,0,1,70,35.48c1,.38,2.23.58,2.82-.23-1.28-.65-.82-2.11-1-3.19A2.73,2.73,0,0,0,70,32.36Z"/><path class="cls-18" d="M72,19.12c-1.38-.14-2.78-.5-3.9.45a4.75,4.75,0,0,0-1.65,3.25C66.1,26,66,29.27,67.93,31.13c1.08,1.05,3,2.54,5,.85s4.12-7.33,3.77-9.54C76.33,20,74.8,19.4,72,19.12Z"/><path class="cls-20" d="M70.28,26.31a10.83,10.83,0,0,0-.72,2.12.58.58,0,0,0,.65.68,8,8,0,0,0,.23-1.61c0-.29.12-1.07-.07-1.32C70.37,26.18,70.33,26.18,70.28,26.31Z"/><path class="cls-21" d="M74.37,28.07a1.1,1.1,0,0,1-1.24.9,1.05,1.05,0,0,1-1-1.13,1.12,1.12,0,0,1,1.25-.9A1,1,0,0,1,74.37,28.07Z"/><path class="cls-21" d="M68.72,27.48a1.11,1.11,0,0,1-1.24.9,1.05,1.05,0,0,1-1-1.13,1.1,1.1,0,0,1,1.24-.9A1,1,0,0,1,68.72,27.48Z"/><path class="cls-22" d="M69.91,25.63a1.19,1.19,0,0,0-.46-.38,2,2,0,0,0-.54-.18,1.45,1.45,0,0,0-.55,0,.73.73,0,0,0-.49.29.65.65,0,0,1,.42-.5A1.31,1.31,0,0,1,69,24.8a1.44,1.44,0,0,1,.6.28A.79.79,0,0,1,69.91,25.63Z"/><path class="cls-22" d="M73.47,26a1.19,1.19,0,0,0-.41-.37,1.45,1.45,0,0,0-.49-.18.89.89,0,0,0-1,.28.64.64,0,0,1,.37-.49,1.08,1.08,0,0,1,.64-.06,1.21,1.21,0,0,1,.57.27A.76.76,0,0,1,73.47,26Z"/><path class="cls-23" d="M69.23,30a5.42,5.42,0,0,1,2.35-.4C71.52,31,69.87,30.8,69.23,30Z"/><path class="cls-24" d="M71,14.68c-1.62-.48-3.31-1-3.32,1.59-1.11.08-1.88-.27-2.61.67a1.79,1.79,0,0,0-.11,2.38c-.78.38-1.78.91-1.48,2.14.34,1.4,1.72.9,2.71,1-.35,1.73,1.33,1.81,2.18,1.06a1,1,0,0,0,1.92,0c.24,1.46,1.46,1.19,2.23.35.42,1.68,1.31,1.64,2.19.36.62,2.3,3.57,1,3.21-1.21,2-.45,3.38-.66,2.25-3.35-.05-.13-.65-.47-.77-.65s.06-.74-.17-1.08c-.42-.63-.8-1.15-1.48-.78-.1-1.42-1.68-3.54-3-2.79,0,.23,0,.47,0,.7-.56-.89-1.83-1.43-2.41-.2C71.85,14.31,71.36,14.17,71,14.68Z"/><path class="cls-25" d="M67,35.74a3.6,3.6,0,0,0-1,.31c-.22.1.21,2.57.36,3.52.27,1.71.82,3.36,1.06,5.07.19,1.32.37,2.62.61,3.93.14.74.25,1.51.32,2.26,0,.22,0,.46.15.6a.92.92,0,0,0,.51.15,20.4,20.4,0,0,0,2.21.07h2.64c.58,0,1.14,0,1.71-.06,0-.75,0-1.51,0-2.26,0-2,.43-3.86.54-5.81.1-1.62.12-3.23.38-4.85a23.27,23.27,0,0,0,.38-2.34c0-.32-.38-.4-.71-.52-.65-.24-1.24,0-1.93,0a24,24,0,0,0-4-.35c-.52,0-1,.07-1.55.13C68.46,35.58,67.12,35.7,67,35.74Z"/><path class="cls-19" d="M66.76,35.81c3.71-1.13,5-1.2,9.34,0-.32,1.72-3.55,1.94-4.91,2A5.41,5.41,0,0,1,66.76,35.81Z"/><path class="cls-19" d="M90.1,53.23l.23.34c.55.88.53,2.21,1.52,2.75.21-.29-.37-1-.26-1.45.38.48.72.91,1.07,1.43.18.26.48.63.69.87s.3.06.23-.11a8,8,0,0,0-1-1.83c.55.58,1.24,2.24,2,2.38a.77.77,0,0,0-.05-.72c.1.07.33.43.47.22.25-.38-.51-1.39-.7-1.79.28.27.52.86.9,1,.25-.38-.11-.72-.35-1a11.31,11.31,0,0,0-1.93-2,5.42,5.42,0,0,0-1.94-1.09A1.15,1.15,0,0,1,90.8,52,13.47,13.47,0,0,1,90.1,53.23Z"/><path class="cls-26" d="M94.43,56.84a1.73,1.73,0,0,0-.19-.28l-.19-.29c-.12-.2-.22-.39-.34-.58l-.35-.58c-.12-.19-.25-.37-.39-.56a2,2,0,0,1,.52.46,5.12,5.12,0,0,1,.39.56l.18.31a2.92,2.92,0,0,0,.14.31c0,.11.09.21.13.32A.91.91,0,0,1,94.43,56.84Z"/><path class="cls-26" d="M94.28,55.42a2.83,2.83,0,0,1-.24-.25l-.21-.27-.17-.28c0-.1-.11-.19-.17-.3a.8.8,0,0,1,.3.19,1.86,1.86,0,0,1,.22.27,2.28,2.28,0,0,1,.17.3A1.13,1.13,0,0,1,94.28,55.42Z"/><path class="cls-19" d="M55,54.53a4,4,0,0,0-.29.29c-.7.76-.94,2.07-2,2.41-.14-.32.55-.89.53-1.38-.46.4-.87.77-1.32,1.21a10,10,0,0,1-.84.73c-.13.11-.3,0-.21-.15A7.79,7.79,0,0,1,52.25,56c-.65.47-1.64,2-2.42,2A.77.77,0,0,1,50,57.3c-.11.05-.4.36-.5.12-.18-.41.76-1.27,1-1.62-.33.21-.68.75-1.07.77-.17-.41.25-.68.54-.93a11.51,11.51,0,0,1,2.26-1.59,5.54,5.54,0,0,1,2.11-.7c.07-.05.12-.11.18-.16A13.18,13.18,0,0,0,55,54.53Z"/><path class="cls-26" d="M50.08,57.26a2.72,2.72,0,0,1,.24-.24l.24-.25c.16-.17.29-.34.45-.51l.45-.5c.15-.16.31-.31.48-.47a2.09,2.09,0,0,0-.59.35,5.55,5.55,0,0,0-.49.48,3,3,0,0,0-.23.27c-.07.1-.14.18-.2.28l-.19.28A1.82,1.82,0,0,0,50.08,57.26Z"/><path class="cls-26" d="M50.5,55.89a2.43,2.43,0,0,0,.28-.2l.25-.22c.08-.08.15-.17.22-.25l.23-.26a1,1,0,0,0-.33.13,3,3,0,0,0-.27.23,1.78,1.78,0,0,0-.22.26A1.14,1.14,0,0,0,50.5,55.89Z"/><path class="cls-19" d="M76.81,36.33a7.51,7.51,0,0,0,1.85,2.13q1.68,1.71,3.37,3.4c1.93,2,3.75,4,5.63,6,1,1.07,1.89,2.27,2.8,3.41.26.32.62.9,1,1a4.63,4.63,0,0,1-.81,1.22,5.9,5.9,0,0,1-1.37-.83c-1.06-.8-2.09-1.62-3.1-2.48a77.5,77.5,0,0,1-7.81-7.12,24.82,24.82,0,0,1-2-2.25,1.57,1.57,0,0,1-.23-.49,5.4,5.4,0,0,1,.07-3.11"/><path class="cls-19" d="M65.93,36.05c-.48.82-1.09,1.87-1.58,2.53L61.57,42.3C60,44.43,58.51,46.66,57,48.85c-.81,1.15-1.51,2.42-2.24,3.64-.2.35-.47.95-.83,1.13a4.12,4.12,0,0,0,.94,1.06,5.5,5.5,0,0,0,1.2-1c.92-.91,1.79-1.84,2.65-2.8A78.2,78.2,0,0,0,65.24,43a25.44,25.44,0,0,0,1.6-2.43A1.41,1.41,0,0,0,67,40.1a5.26,5.26,0,0,0-.49-3"/><path class="cls-25" d="M68.31,51.24a8.17,8.17,0,0,1-.69,2.28,20.14,20.14,0,0,0-.75,2.84,25,25,0,0,0-.2,3.54c0,.2.41.32.5.49.35.64,2.15.54,2.86.56,2.77.09,5.47-.58,8.22-.73.37-2.62-.94-5.82-2.25-8.06-.34-.57-.45-1-1.09-1.26-1.07-.34-3,0-4.1,0A10,10,0,0,0,68.31,51.24Z"/><path class="cls-27" d="M72.11,40.89a.85.85,0,1,1-.85-.85A.85.85,0,0,1,72.11,40.89Z"/><path class="cls-27" d="M70.48,44a.46.46,0,0,1-.46.46.47.47,0,1,1,0-.93A.46.46,0,0,1,70.48,44Z"/><path class="cls-27" d="M73.27,43.77A.24.24,0,0,1,73,44a.23.23,0,0,1-.23-.24.23.23,0,0,1,.23-.23A.23.23,0,0,1,73.27,43.77Z"/><path class="cls-27" d="M74.28,40.84a.2.2,0,0,1-.19.19.19.19,0,0,1-.19-.19.18.18,0,0,1,.19-.19A.19.19,0,0,1,74.28,40.84Z"/><circle class="cls-27" cx="74.09" cy="38.95" r="0.19"/><circle class="cls-27" cx="68.17" cy="39.03" r="0.56"/><path class="cls-27" d="M67.61,41.64a.29.29,0,1,1-.29-.29A.29.29,0,0,1,67.61,41.64Z"/><circle class="cls-27" cx="74.46" cy="42.97" r="0.57"/><path class="cls-27" d="M71.26,47.49a.39.39,0,1,1-.39-.39A.4.4,0,0,1,71.26,47.49Z"/><path class="cls-27" d="M69.55,45.78a.41.41,0,1,1-.41-.41A.41.41,0,0,1,69.55,45.78Z"/><path class="cls-27" d="M73.71,46.65a.46.46,0,0,1-.91,0,.46.46,0,1,1,.91,0Z"/><circle class="cls-27" cx="71.54" cy="51.64" r="0.73"/><circle class="cls-27" cx="70.68" cy="55.38" r="0.51"/><circle class="cls-27" cx="68.53" cy="54.68" r="0.36"/><circle class="cls-27" cx="73.67" cy="53.97" r="0.42"/><circle class="cls-27" cx="74.25" cy="49.4" r="0.36"/><path class="cls-27" d="M72.8,49.18a.13.13,0,1,1-.13-.13A.13.13,0,0,1,72.8,49.18Z"/><circle class="cls-27" cx="69.86" cy="49.35" r="0.63"/><path class="cls-27" d="M73.47,58.66A.67.67,0,1,1,72.8,58,.67.67,0,0,1,73.47,58.66Z"/><circle class="cls-27" cx="76.32" cy="57.19" r="0.35"/><path class="cls-27" d="M75.32,52.73a.36.36,0,0,1-.71,0,.36.36,0,1,1,.71,0Z"/><path class="cls-27" d="M73.71,56.05a.46.46,0,0,1-.91,0,.46.46,0,1,1,.91,0Z"/><path class="cls-27" d="M70.81,57.47a.63.63,0,0,1-.63.63.63.63,0,1,1,0-1.26A.63.63,0,0,1,70.81,57.47Z"/><circle class="cls-27" cx="68.5" cy="58.99" r="0.33"/><circle class="cls-27" cx="70.29" cy="60.29" r="0.39"/><path class="cls-27" d="M72.27,38.89a.42.42,0,1,1-.42-.42A.42.42,0,0,1,72.27,38.89Z"/><path class="cls-25" d="M75.18,29a.54.54,0,0,1,.2-.1c-.09.78-.26,3.36.91,2.34.69-.6-.62-1.82-.27-2.51.17,1,1.48,2.42.09,2.93S74.8,29.81,75.18,29Z"/></g><path class="cls-29" d="M29.75,109.57a7,7,0,0,0-.33,1.85,2.13,2.13,0,0,0,.33,1.3c-1,.39-2.26.59-2.86-.23,1.29-.66.82-2.14,1-3.23A2.72,2.72,0,0,1,29.75,109.57Z"/><path class="cls-30" d="M27.69,96.16c1.4-.14,2.82-.51,3.95.45a4.76,4.76,0,0,1,1.67,3.3c.36,3.19.43,6.53-1.49,8.41-1.09,1.06-3.08,2.57-5.09.86s-4.16-7.42-3.81-9.66C23.31,97.07,24.86,96.44,27.69,96.16Z"/><path class="cls-31" d="M29.44,103.43a11.46,11.46,0,0,1,.73,2.16.59.59,0,0,1-.66.68,9,9,0,0,1-.24-1.63c0-.29-.12-1.08.08-1.34C29.35,103.3,29.38,103.3,29.44,103.43Z"/><path class="cls-32" d="M29.57,107.29h.06a1.46,1.46,0,0,0,1.09-.39.09.09,0,0,0-.14-.1,1.3,1.3,0,0,1-.95.33,2.83,2.83,0,0,1-1.81-.56.08.08,0,0,0-.12,0,.07.07,0,0,0,0,.11A2.91,2.91,0,0,0,29.57,107.29Z"/><path class="cls-21" d="M25.3,105.22a1.1,1.1,0,0,0,1.25.91,1.05,1.05,0,0,0,1-1.14,1.11,1.11,0,0,0-1.26-.91A1,1,0,0,0,25.3,105.22Z"/><path class="cls-21" d="M31,104.62a1.1,1.1,0,0,0,1.25.91,1.05,1.05,0,0,0,1-1.14,1.11,1.11,0,0,0-1.26-.91A1,1,0,0,0,31,104.62Z"/><path class="cls-22" d="M29.82,102.75a1.16,1.16,0,0,1,.45-.38,1.89,1.89,0,0,1,.55-.19,1.56,1.56,0,0,1,.57,0,.81.81,0,0,1,.49.29.66.66,0,0,0-.43-.5,1.32,1.32,0,0,0-.68,0,1.48,1.48,0,0,0-.61.28A.78.78,0,0,0,29.82,102.75Z"/><path class="cls-22" d="M26.21,103.11a1.19,1.19,0,0,1,.41-.37,1.61,1.61,0,0,1,.5-.19.92.92,0,0,1,1,.29.61.61,0,0,0-.38-.49,1,1,0,0,0-.64-.07,1.33,1.33,0,0,0-.57.28A.74.74,0,0,0,26.21,103.11Z"/><path class="cls-33" d="M33.38,96.85a2.29,2.29,0,0,1,3.46-.43c1.27,1,1,3.25,0,4.32-.69.74-2.86,1.25-3.31-.18a3.06,3.06,0,0,1,.06-1.47A4.2,4.2,0,0,0,33.38,96.85Z"/><path class="cls-34" d="M34.32,99a3.37,3.37,0,0,0-.54-3.07,4.2,4.2,0,0,0-1.07.89c-.15.25.06.46.27.77l.89,1.3c.52.79-.55,1.76-.67,2.65a2.51,2.51,0,0,1,1.31.25,9.45,9.45,0,0,0,0-1.68A5.88,5.88,0,0,1,34.32,99Z"/><path class="cls-35" d="M31.09,97.42a11.22,11.22,0,0,1,.81,3.71,32.66,32.66,0,0,1-6.56.17,3.06,3.06,0,0,0-.64-1.59c-.16,2.65-.25,5.93,1.52,8.05-1.34-1.49-3.11-1.74-4.11-3.66-1.15-2.22-1.86-6.51,0-8.52a7.68,7.68,0,0,1,7.6-1.68,6.39,6.39,0,0,1,4.21,4.59,12.38,12.38,0,0,1,0,4.62,8.27,8.27,0,0,1-.91,3.24,15.41,15.41,0,0,0-.06-3.84c-.23-1-.76-1.84-1-2.74"/><path class="cls-33" d="M21.89,96.85a2.28,2.28,0,0,0-3.45-.43c-1.27,1-1,3.25,0,4.32.69.74,2.86,1.25,3.3-.18a2.94,2.94,0,0,0-.05-1.47A4.29,4.29,0,0,1,21.89,96.85Z"/><path class="cls-34" d="M21,99a3.4,3.4,0,0,1,.53-3.07,4.08,4.08,0,0,1,1.08.89c.14.25-.06.46-.27.77s-.61.87-.89,1.3c-.53.79.54,1.76.66,2.65a2.49,2.49,0,0,0-1.3.25,9.45,9.45,0,0,1,0-1.68A5.88,5.88,0,0,0,21,99Z"/><path class="cls-36" d="M24.34,112.53a3.67,3.67,0,0,0-1,.31c-.23.1.2,2.57.35,3.52.28,1.71.82,3.36,1.07,5.07.19,1.32.37,2.62.61,3.93.14.74.25,1.51.32,2.26,0,.22,0,.46.15.6a1,1,0,0,0,.51.15,20.4,20.4,0,0,0,2.21.07h2.64c.57,0,1.14,0,1.71-.06,0-.75,0-1.51,0-2.26,0-2,.44-3.86.55-5.81a46.58,46.58,0,0,1,.38-4.85,23.27,23.27,0,0,0,.38-2.34c0-.32-.38-.4-.71-.52a20.81,20.81,0,0,0-3.07-.42,12.59,12.59,0,0,0-2.81,0c-.52,0-1,.07-1.55.13C25.82,112.37,24.49,112.49,24.34,112.53Z"/><path class="cls-29" d="M26.44,112.22c3.72-1.14-.78-1.21,3.54,0-.57,1.11.26,0-1,.3C27.38,112.91,27.41,113.56,26.44,112.22Z"/><path class="cls-30" d="M47.46,130a3.53,3.53,0,0,1,.24.34c.55.88.53,2.21,1.52,2.75.2-.29-.38-1-.26-1.45.38.48.71.91,1.07,1.43.18.26.47.63.68.87s.3.06.24-.11A8,8,0,0,0,49.89,132c.56.58,1.25,2.24,2,2.38a.8.8,0,0,0,0-.72c.1.07.32.43.46.22.26-.38-.51-1.39-.7-1.79.29.27.53.86.91,1,.24-.38-.12-.72-.36-1a11.25,11.25,0,0,0-1.92-2,5.38,5.38,0,0,0-2-1.09l-.14-.19A11.46,11.46,0,0,1,47.46,130Z"/><path class="cls-14" d="M51.79,133.63a2.68,2.68,0,0,0-.18-.28l-.19-.29c-.13-.2-.22-.39-.35-.58l-.34-.58c-.12-.19-.26-.37-.39-.56a2.23,2.23,0,0,1,.52.46c.14.18.26.37.39.56a3.07,3.07,0,0,1,.17.31c0,.11.1.21.14.31l.14.32A1.15,1.15,0,0,1,51.79,133.63Z"/><path class="cls-14" d="M51.64,132.21a2.83,2.83,0,0,1-.24-.25l-.2-.27-.17-.28a2.91,2.91,0,0,1-.17-.3.7.7,0,0,1,.29.19,1.86,1.86,0,0,1,.22.27,1.52,1.52,0,0,1,.17.3A.9.9,0,0,1,51.64,132.21Z"/><path class="cls-30" d="M12.38,131.32a2.76,2.76,0,0,0-.3.29c-.7.76-.93,2.07-2,2.41-.15-.32.55-.89.52-1.38-.46.4-.87.77-1.31,1.21-.23.22-.59.53-.84.73s-.31,0-.21-.15a7.79,7.79,0,0,1,1.38-1.6c-.66.47-1.65,2-2.43,1.95a.78.78,0,0,1,.19-.69c-.11,0-.4.36-.5.12-.18-.41.76-1.27,1-1.62-.33.21-.68.75-1.07.77-.17-.41.25-.68.54-.93a11.57,11.57,0,0,1,2.27-1.59,5.54,5.54,0,0,1,2.11-.7,1.33,1.33,0,0,0,.17-.16C12.06,130.43,12.2,130.88,12.38,131.32Z"/><path class="cls-14" d="M7.45,134.05a1.81,1.81,0,0,1,.24-.24l.23-.25c.17-.17.29-.34.45-.51l.45-.5c.15-.16.32-.31.49-.47a2.29,2.29,0,0,0-.6.35,5.55,5.55,0,0,0-.49.48,2.88,2.88,0,0,0-.22.27c-.07.1-.14.18-.2.28s-.13.19-.19.28A1,1,0,0,0,7.45,134.05Z"/><path class="cls-14" d="M7.86,132.68a1.87,1.87,0,0,0,.29-.2l.25-.22.22-.25a3,3,0,0,0,.22-.26,1,1,0,0,0-.32.13,1.55,1.55,0,0,0-.27.23,1.32,1.32,0,0,0-.22.26A1.17,1.17,0,0,0,7.86,132.68Z"/><path class="cls-30" d="M34.18,113.12c.31.82,4.42,5.47,5.55,6.6,1.93,2,7.19,7.23,8.1,8.37.26.32.62.9,1,1a4.93,4.93,0,0,1-.82,1.22,5.84,5.84,0,0,1-1.36-.83c-1.06-.8-2.09-1.62-3.11-2.48a79.72,79.72,0,0,1-7.81-7.12,26.45,26.45,0,0,1-2-2.25,1.8,1.8,0,0,1-.22-.49,5.32,5.32,0,0,1,.07-3.11"/><path class="cls-30" d="M23.3,112.84c-.49.82-1.1,1.87-1.59,2.53-.92,1.24-8.88,12.69-9.6,13.91-.21.35-.47.95-.84,1.13a4.36,4.36,0,0,0,1,1.06,5.74,5.74,0,0,0,1.2-1,132.86,132.86,0,0,0,9.18-10.69,23.76,23.76,0,0,0,1.61-2.43,1.46,1.46,0,0,0,.15-.49,5.1,5.1,0,0,0-.49-3"/><path class="cls-37" d="M25.52,128a8.17,8.17,0,0,1-.69,2.28,20.14,20.14,0,0,0-.75,2.84,25,25,0,0,0-.2,3.54c0,.2.41.32.5.49.35.64,2.15.54,2.86.56,2.77.09,5.47-.58,8.22-.73.37-2.62-1-5.82-2.25-8.06-.34-.57-.45-1-1.09-1.26-1.07-.34-3,0-4.1,0A10,10,0,0,0,25.52,128Z"/><path class="cls-37" d="M26.44,112.22c.74-1.08,2.74-.59,2.62.72C28.11,113,26.89,113.67,26.44,112.22Z"/><path class="cls-37" d="M28.91,112.92c-.09-.72.65-2,1.34-1S29.55,113.12,28.91,112.92Z"/><path class="cls-37" d="M34.17,112.92c1.45,2.14,11.44,12.18,11.56,12.59.18.59-1.58,1.1-2.17,1.53s-9.44-7.44-10.09-8.36S33,116.13,33,115C33,114.44,33.09,113,34.17,112.92Z"/><path class="cls-37" d="M23.19,112.92c-1.45,2.14-9.91,13.31-10,13.73-.18.58,1.58,1.37,2.17,1.79s7.91-8.84,8.55-9.76.49-2.55.5-3.67C24.39,114.44,24.27,113,23.19,112.92Z"/><path class="cls-38" d="M29,113.08a1.6,1.6,0,0,0-1.78-.32c-.72.49.13,1,.73.81s1.09-.72,1.86-.76c.54,0,1.25,0,1.07.69-.22.3-.61.2-1,0a9.47,9.47,0,0,1-1.23-.63"/><path class="cls-39" d="M125.18,95.93a7.47,7.47,0,0,1,3,1.75,2.28,2.28,0,0,1,.59,2.53c-.19.85-.73,1.89-.51,2.78.36,1.41,2.11,2.08,3.09,2.94,2.14,1.86,1.29,3.28.08,5.52a3.19,3.19,0,0,0,.6,4.17c1.05,1.18,2.05,1.81,1.59,3.55-.35,1.29-1,1.5.25,2.52s2.2,1.8,1.26,3.34c-1.11,1.82-3.65,3-5.59,3.65-5.62,1.85-11.74.16-17.16-1.55-1.26-.4-3.43-.73-4.34-1.8-1.25-1.46-1.12-4.09-.29-5.62s1-1.51,0-3a7.89,7.89,0,0,1-1.7-5.55,2.78,2.78,0,0,1,.91-2.06c.62-.52,1-.44,1.27-1.19.44-1.45-.43-3.34-.32-4.87s1-2.56,2.08-3.67c.33-.32.4-.21.57-.55.48-1-.18-2.5.24-3.58.57-1.45,1.67-1.73,3.11-1.9,3.22-.39,7.3-.54,10.09,1.38C124.61,95.21,125.47,95.71,125.18,95.93Z"/><path class="cls-40" d="M115.59,103.68a7.65,7.65,0,0,1,.35,1.95,2.12,2.12,0,0,1-.35,1.37c1.12.41,2.45.62,3.1-.24-1.4-.69-.89-2.25-1.06-3.4A3,3,0,0,0,115.59,103.68Z"/><path class="cls-41" d="M117.82,89.56c-1.52-.16-3.06-.55-4.29.47a4.94,4.94,0,0,0-1.81,3.47c-.39,3.36-.47,6.88,1.62,8.86,1.18,1.13,3.34,2.71,5.52.91s4.52-7.82,4.14-10.17C122.57,90.51,120.89,89.85,117.82,89.56Z"/><path class="cls-42" d="M115.92,97.22a11.55,11.55,0,0,0-.79,2.27.62.62,0,0,0,.71.71,8.22,8.22,0,0,0,.26-1.71c0-.31.13-1.14-.08-1.41C116,97.08,116,97.08,115.92,97.22Z"/><path class="cls-21" d="M120.42,99.1a1.21,1.21,0,0,1-1.37,1A1.13,1.13,0,0,1,118,98.85a1.22,1.22,0,0,1,1.37-1A1.13,1.13,0,0,1,120.42,99.1Z"/><path class="cls-21" d="M114.21,98.47a1.21,1.21,0,0,1-1.37,1,1.13,1.13,0,0,1-1.08-1.21,1.21,1.21,0,0,1,1.36-1A1.14,1.14,0,0,1,114.21,98.47Z"/><path class="cls-41" d="M121.23,98.15c1,0,1.17.48,1.06,1.34s-.41,1.1-1.34,1a6.67,6.67,0,0,1,.2-1.94"/><path class="cls-43" d="M117.27,91.35c0,1,.15,1.48,1.19,1.72.85.2,2.86.41,2.66,1.58-.09.57-.72,1.09-.19,1.69.26.3.7.25,1,.51a1.78,1.78,0,0,1,.47,1.22c-.11.85-1.37.78-1.91,1.38-.9,1,.12,1.91.47,2.87.41,1.15-.87,1-1.53,1.67-1,1,.53,1.83,1.32,2.25,1.34.72.56,2.45-.31,3.34-.6.6-2.4,1.48-3.23.7.27,1,3.7,1.18,4.54.94,1.5-.42,3.55-1.16,4-2.65a2.76,2.76,0,0,0-.13-2.25c-.27-.39-.9-.68-.76-1.26.19-.81,1.75-1.34,2.39-1.72a2.15,2.15,0,0,0,1.28-1.7,1.6,1.6,0,0,0-.54-1.4c-.53-.43-.81-.37-.47-1.13.67-1.47,2.77-2.64,1.29-4.29a3.83,3.83,0,0,0-1.31-.92c-.18-.08-.68-.17-.81-.32s-.07-.28-.11-.45c-.18-.71-.19-1.57-.32-2.31a4.55,4.55,0,0,0-3.71-3.94,4.63,4.63,0,0,0-1.44,0c-.25,0-.36.14-.62.09s-.62-.37-.92-.46a8.82,8.82,0,0,0-2-.3c-1.65-.08-4.85.8-4.59,2.86-1.3,0-2.16.06-2.75,1.26a4.64,4.64,0,0,0-.52,2.18c0,.85.7,1.79.4,2.62s-1.32,1.51-1.43,2.51a2.7,2.7,0,0,0,.39,1.9,3.4,3.4,0,0,1,.71,1.64c0,.86-.56,1.59-.77,2.41a2.26,2.26,0,0,0-.11,1c.08.24.34.34.36.64,0,.7-1,1.13-1.19,1.8a2.9,2.9,0,0,0,.62,2.92c.46.4,1.79,1.06,2.3.62-.68,0-1.55-.2-1.62-.91-.1-1,1.78-1.58,2.31-2.28.79-1,.53-1.76-.26-2.67-.92-1.08.22-1.25,1-2.09,1.71-1.72-1.33-2.52-1.15-4.12.1-.84,1-1.29,1-2.17s-.66-2.09.09-2.93a2.54,2.54,0,0,1,1.88-.83c.4.09.33.42.92.3C116.17,92.66,116.61,91.76,117.27,91.35Z"/><path class="cls-44" d="M113.05,107.59a3.14,3.14,0,0,0-1,.32c-.23.11.21,2.76.36,3.77.27,1.83.81,3.6,1.06,5.44.19,1.4.37,2.8.61,4.2.14.8.25,1.63.32,2.43a1,1,0,0,0,.15.64.91.91,0,0,0,.51.16c.72.08,1.49.07,2.21.08h2.64c.58,0,1.14,0,1.71-.06,0-.8,0-1.62,0-2.42,0-2.1.44-4.14.55-6.23.09-1.73.12-3.46.38-5.18.12-.81.34-1.7.38-2.52,0-.34-.38-.42-.71-.55-.65-.26-1.24.06-1.93,0a23,23,0,0,0-3.95-.37c-.52,0-1,.08-1.55.14C114.53,107.41,113.19,107.54,113.05,107.59Z"/><path class="cls-40" d="M112.83,107.66c3.71-1.21,5-1.29,9.34,0-.32,1.84-3.55,2.08-4.91,2.09A5.24,5.24,0,0,1,112.83,107.66Z"/><path class="cls-40" d="M136.17,126.31l.23.37c.55.94.53,2.37,1.52,2.94.2-.31-.37-1-.26-1.55.38.51.71,1,1.07,1.53.18.28.47.68.68.94s.3.06.24-.12a8.6,8.6,0,0,0-1.05-2c.55.62,1.24,2.39,2,2.54a.91.91,0,0,0-.05-.77c.1.08.32.46.47.24.25-.4-.51-1.49-.7-1.92.28.29.52.92.9,1,.24-.4-.11-.77-.36-1.09a12.17,12.17,0,0,0-1.92-2.13A5.45,5.45,0,0,0,137,125.2c-.06-.06-.1-.14-.15-.2A12.56,12.56,0,0,1,136.17,126.31Z"/><path class="cls-26" d="M140.5,130.18a3,3,0,0,0-.19-.3l-.19-.31c-.12-.22-.22-.42-.34-.62l-.35-.63c-.12-.2-.25-.39-.39-.59a2.18,2.18,0,0,1,.52.49,5.58,5.58,0,0,1,.39.6c.06.11.12.22.17.33l.15.34.13.33A1.61,1.61,0,0,1,140.5,130.18Z"/><path class="cls-26" d="M140.35,128.66a3.08,3.08,0,0,1-.24-.27c-.08-.1-.14-.19-.21-.29a2.91,2.91,0,0,1-.17-.3l-.17-.32a.83.83,0,0,1,.3.2,1.66,1.66,0,0,1,.22.3,2,2,0,0,1,.17.32A1.26,1.26,0,0,1,140.35,128.66Z"/><path class="cls-40" d="M101.08,127.7c-.1.11-.2.21-.29.32-.7.81-.94,2.22-2,2.58-.15-.35.55-.95.53-1.47-.46.42-.87.81-1.32,1.29a10.34,10.34,0,0,1-.84.78c-.13.11-.3,0-.21-.16a8.47,8.47,0,0,1,1.38-1.72c-.65.5-1.64,2.11-2.43,2.1a.94.94,0,0,1,.19-.75c-.11.05-.4.38-.5.13-.18-.44.76-1.35,1-1.73-.32.22-.67.8-1.07.83-.16-.45.25-.74.55-1a11.3,11.3,0,0,1,2.26-1.71,5.3,5.3,0,0,1,2.11-.75c.07,0,.12-.12.18-.17A13.22,13.22,0,0,0,101.08,127.7Z"/><path class="cls-26" d="M96.15,130.63a3,3,0,0,1,.24-.26l.24-.27c.16-.18.29-.36.45-.54l.45-.54c.15-.17.31-.33.48-.5a2.16,2.16,0,0,0-.59.37c-.18.17-.33.34-.5.52l-.22.29-.2.3c-.07.1-.13.2-.19.3A1.44,1.44,0,0,0,96.15,130.63Z"/><path class="cls-26" d="M96.57,129.17a2.69,2.69,0,0,0,.28-.22l.25-.24c.08-.08.15-.18.22-.26l.23-.28a.81.81,0,0,0-.33.14,3.08,3.08,0,0,0-.27.24,1.93,1.93,0,0,0-.22.28A1.07,1.07,0,0,0,96.57,129.17Z"/><path class="cls-40" d="M122.88,108.21a7.87,7.87,0,0,0,1.85,2.29l3.36,3.64c1.93,2.08,3.76,4.31,5.63,6.46,1,1.14,1.9,2.42,2.81,3.64.26.35.62,1,1,1.12a4.88,4.88,0,0,1-.82,1.31,5.79,5.79,0,0,1-1.36-.89c-1.06-.85-2.09-1.74-3.1-2.66a80.22,80.22,0,0,1-7.81-7.62,25.58,25.58,0,0,1-2-2.42,1.57,1.57,0,0,1-.23-.51,6.21,6.21,0,0,1,.07-3.34"/><path class="cls-40" d="M112,107.91c-.49.88-1.09,2-1.58,2.71-.93,1.33-1.85,2.66-2.78,4-1.59,2.28-3.07,4.68-4.59,7-.81,1.24-1.52,2.6-2.24,3.9-.2.37-.47,1-.83,1.22a4.42,4.42,0,0,0,.94,1.13,5.62,5.62,0,0,0,1.2-1.05c.91-1,1.79-2,2.65-3a82.75,82.75,0,0,0,6.54-8.45,26.66,26.66,0,0,0,1.6-2.6,1.46,1.46,0,0,0,.15-.53,5.88,5.88,0,0,0-.48-3.19"/><path class="cls-45" d="M114.38,124.18a9.61,9.61,0,0,1-.69,2.44,23,23,0,0,0-.75,3,28.71,28.71,0,0,0-.2,3.79c0,.21.41.34.5.52.35.69,2.15.58,2.86.61,2.77.09,5.46-.63,8.22-.79.37-2.8-.95-6.24-2.25-8.63-.34-.61-.45-1.13-1.1-1.35-1.06-.36-3,0-4.09,0A9.46,9.46,0,0,0,114.38,124.18Z"/><path class="cls-44" d="M111.71,107.81c0,.48-.61,1-.9,1.32a14.57,14.57,0,0,0-1.59,2.51,12,12,0,0,1-1.13,1.76c-.09.13-.38.4-.38.58,0,.35.68,1,.9,1.26a9.81,9.81,0,0,0,1.25,1.07c.25.2.52.4.78.57A12.61,12.61,0,0,0,112.4,114a3.34,3.34,0,0,1,.42-.82c.23-.19.72-.07,1-.27.8-.55.6-1.59.33-2.37s-.61-1.93-1.43-2.32"/><path class="cls-44" d="M122.79,107.94c.1.47.73.87,1.06,1.19a14.87,14.87,0,0,1,1.93,2.26,11,11,0,0,0,1.36,1.6c.11.11.43.34.46.51.06.35-.53,1.09-.72,1.38a9.78,9.78,0,0,1-1.09,1.23c-.22.23-.46.46-.69.67a12.48,12.48,0,0,1-2.15-2.64c-.12-.16-.36-.65-.53-.75s-.72,0-1-.13c-.86-.43-.81-1.49-.65-2.3s.33-2,1.09-2.5"/><path class="cls-46" d="M115.05,107.33a.34.34,0,0,1-.23-.1.32.32,0,0,1-.09-.23.35.35,0,0,1,0-.13.27.27,0,0,1,.06-.1.34.34,0,0,1,.46,0,.3.3,0,0,1,.07.1.35.35,0,0,1,0,.13.34.34,0,0,1-.33.33Z"/><path class="cls-46" d="M116.79,111.58a.34.34,0,0,1-.32-.33h0a.32.32,0,0,1,.33-.32h0a.32.32,0,0,1,.32.32h0a.33.33,0,0,1-.32.33h0Zm.35-.33a.31.31,0,0,1,.25-.38h0a.31.31,0,0,1,.38.25h0a.32.32,0,0,1-.25.38h-.07A.33.33,0,0,1,117.14,111.25Zm-1.09.22h0a.34.34,0,0,1-.22-.41h0a.33.33,0,0,1,.41-.21h0a.32.32,0,0,1,.21.4h0a.32.32,0,0,1-.3.23h-.1Zm1.74-.35a.33.33,0,0,1,.16-.43h0a.33.33,0,0,1,.43.16h0a.32.32,0,0,1-.16.43h0a.31.31,0,0,1-.13,0h0A.32.32,0,0,1,117.79,111.12Zm-2.44-.06h0a.33.33,0,0,1,0-.46h0a.33.33,0,0,1,.47,0h0a.34.34,0,0,1,0,.46h0a.35.35,0,0,1-.23.09h0A.32.32,0,0,1,115.35,111.06Zm3-.22a.33.33,0,0,1,0-.46h0a.32.32,0,0,1,.46,0h0a.32.32,0,0,1,0,.46h0a.31.31,0,0,1-.22.09h0A.33.33,0,0,1,118.39,110.84Zm-3.47-.44h0a.34.34,0,0,1,.18-.43h0a.32.32,0,0,1,.42.18h0a.32.32,0,0,1-.17.42h0a.31.31,0,0,1-.13,0h0A.35.35,0,0,1,114.92,110.4Zm4,0a.31.31,0,0,1-.1-.44h0a.31.31,0,0,1,.44-.11h0a.34.34,0,0,1,.11.45h0a.32.32,0,0,1-.28.15h0A.28.28,0,0,1,118.87,110.37Zm-4.15-.67a.32.32,0,0,1,.26-.38h0a.32.32,0,0,1,.37.26h0a.33.33,0,0,1-.25.38H115A.32.32,0,0,1,114.72,109.7Zm4.5.11a.32.32,0,0,1-.19-.42h0a.33.33,0,0,1,.42-.19h0a.31.31,0,0,1,.18.42h0a.32.32,0,0,1-.3.21h0Zm-4.58-.81a.31.31,0,0,1,.3-.34h0a.32.32,0,0,1,.34.3h0a.33.33,0,0,1-.3.35h0A.33.33,0,0,1,114.64,109Zm4.81.19a.34.34,0,0,1-.25-.39h0a.32.32,0,0,1,.39-.25h0a.34.34,0,0,1,.25.39h0a.33.33,0,0,1-.32.25h-.07Zm-4.51-.55a.32.32,0,0,1-.32-.33h0A.33.33,0,0,1,115,108h0a.34.34,0,0,1,.31.34h0a.32.32,0,0,1-.32.31h0Zm4.65-.1a.35.35,0,0,1-.31-.35h0a.33.33,0,0,1,.35-.3h0a.31.31,0,0,1,.3.35h0a.33.33,0,0,1-.32.31h0ZM115,108a.33.33,0,0,1-.3-.35h0a.32.32,0,0,1,.35-.29h0a.33.33,0,0,1,.3.35h0a.33.33,0,0,1-.33.29h0Zm4.32-.4a.33.33,0,0,1,.3-.35h0a.32.32,0,0,1,.35.29h0a.33.33,0,0,1-.3.35h0A.32.32,0,0,1,119.28,107.58Z"/><path class="cls-46" d="M119.48,107.22a.34.34,0,0,1-.23-.1.32.32,0,0,1-.09-.23.5.5,0,0,1,0-.12.41.41,0,0,1,.07-.11l0,0,.06,0,.06,0h.12l.07,0,0,0,0,0a.41.41,0,0,1,.07.11.25.25,0,0,1,0,.12.27.27,0,0,1,0,.13.36.36,0,0,1-.07.1.3.3,0,0,1-.1.07A.31.31,0,0,1,119.48,107.22Z"/><path class="cls-47" d="M26.92,33.85c-.15,1.72.75,3.44.41,5.14a.59.59,0,0,0,.35-.72,3.85,3.85,0,0,1-1,3.17A3.47,3.47,0,0,0,28.27,40a1.28,1.28,0,0,1-.16.81,3.15,3.15,0,0,0,1.2-2,3.89,3.89,0,0,1-.64,2.15,3.36,3.36,0,0,0,1.46-2.18c.14-.86.21-2-.53-2.61.31-.08.18-.2,0-.54a3,3,0,0,0-.46-.65c-.62-.74-1.16-1.58-1.78-2.32C27.26,33.05,26.92,33.85,26.92,33.85Z"/><path class="cls-48" d="M27.71,35a6.67,6.67,0,0,1,.46,2.75,2.29,2.29,0,0,0,.29-.83,6.87,6.87,0,0,1-.3,2.38,3.08,3.08,0,0,0,.32-2.79,2.39,2.39,0,0,1-.22-.67,3.35,3.35,0,0,1,.32.66,1.17,1.17,0,0,0-.12-.61A4.19,4.19,0,0,1,29,38.71a2.81,2.81,0,0,0-.1-2.25c-.3-.72-.75-1.39-1.1-2.09.06.71.65,1.36.59,2.07A4.19,4.19,0,0,0,27.67,35"/><path class="cls-49" d="M20.79,25.57l1.44-.63c.51-.23.91-.42,1.18-.57,0,.26-.09.49-.13.69.75-.17,1.52-.37,2.32-.58.63-.17,1.06-.29,1.28-.37,0,.17-.09.34-.15.52a1.42,1.42,0,0,1-.1.26,11.4,11.4,0,0,0,2.06-.47l.89,1.07,0,.05L29.45,25q-.25-.86-.36-1.26a13.68,13.68,0,0,1-1.48.3l.13-.44.12-.31c-1.63.37-2.83.63-3.6.77l.32-.71c-.4.19-1,.44-1.93.75a11.64,11.64,0,0,1-2,.57L20,26.12c0,.12,0,.24,0,.37s0,.34,0,.51l.38-.64.46-.79M18,28.81a1.23,1.23,0,0,0-.07.44,1.33,1.33,0,0,0,.07.45c0,.09.09.18.14.27a1.64,1.64,0,0,0,.47.43,2.27,2.27,0,0,0,1.24.36q0-.37,0-.84c0-.31,0-.61.05-.9l0,0a.74.74,0,0,0-.29-.12.92.92,0,0,0-.29,0h-.09a.65.65,0,0,0-.06.26.45.45,0,0,0,.18.38.45.45,0,0,1-.18-.38.65.65,0,0,1,.06-.26c-.35,0-.53.24-.53.64,0-.4.18-.61.53-.64h.09a.92.92,0,0,1,.29,0,.74.74,0,0,1,.29.12l0,0c0-.18,0-.36,0-.53l0,0a1.74,1.74,0,0,0-.94-.27,1.46,1.46,0,0,0-.31,0,.78.78,0,0,0-.44.28l-.08.1-.09.19m12.14-.34-.06,0c0,.18,0,.36,0,.54l0,0a.74.74,0,0,1,.29-.12.92.92,0,0,1,.29,0h.09c.35,0,.53.24.53.64,0-.4-.18-.61-.53-.64a.65.65,0,0,1,.06.26.45.45,0,0,1-.18.38.45.45,0,0,0,.18-.38.65.65,0,0,0-.06-.26h-.09a.92.92,0,0,0-.29,0,.74.74,0,0,0-.29.12l0,0c0,.28,0,.58,0,.88s0,.59,0,.84a2.31,2.31,0,0,0,1.26-.36,1.64,1.64,0,0,0,.47-.43c0-.09.1-.18.14-.27a1.33,1.33,0,0,0,.07-.45,1.23,1.23,0,0,0-.07-.44l-.09-.19-.08-.1a.91.91,0,0,0-.75-.32A1.74,1.74,0,0,0,30.13,28.47Z"/><path class="cls-50" d="M22.08,22.85c-.61.27-.94,2.57-1.29,2.72l-.46.79L20,27v.17c0,.41-.05.85-.07,1.32,0,.17,0,.35,0,.53s0,.59-.05.9,0,.59,0,.84a4.27,4.27,0,0,0,.17.89,2.48,2.48,0,0,0,.76,1.15,9.79,9.79,0,0,0,1.63,1.06c.36.2,1,.52,1.87,1a1.59,1.59,0,0,0,1.41,0h0q1.29-.66,1.83-1a9.38,9.38,0,0,0,1.63-1.06A2.5,2.5,0,0,0,30,31.65a4.27,4.27,0,0,0,.17-.89q0-.37,0-.84c0-.3,0-.6,0-.88s0-.36,0-.54c0-.75-.06-1.42-.07-2a5.68,5.68,0,0,1-.38-.95s-.18-2.12-.19-2.14c-.37-.44-.66-.8-.89-1.06a13.41,13.41,0,0,1-2.06.47c0-.07.59,0,.63-.11s-.42-.51-.38-.68c-.23.08-1.21.15-1.84.32-.8.21-1,.46-1.76.63,0-.2.09-.42.12-.69Q22.85,22.51,22.08,22.85Z"/><path id="Layer0_7_1_STROKES" data-name="Layer0 7 1 STROKES" class="cls-1" d="M31.07,28.2a.91.91,0,0,1,.75.32l.08.1.09.19a1.23,1.23,0,0,1,.07.44,1.33,1.33,0,0,1-.07.45c0,.09-.09.18-.14.27a1.64,1.64,0,0,1-.47.43,2.31,2.31,0,0,1-1.26.36,4.27,4.27,0,0,1-.17.89,2.5,2.5,0,0,1-.77,1.15,9.38,9.38,0,0,1-1.63,1.06q-.54.3-1.83,1h0a1.59,1.59,0,0,1-1.41,0c-.88-.45-1.51-.77-1.87-1a9.79,9.79,0,0,1-1.63-1.06A2.48,2.48,0,0,1,20,31.65a4.27,4.27,0,0,1-.17-.89,2.27,2.27,0,0,1-1.24-.36,1.64,1.64,0,0,1-.47-.43c-.05-.09-.1-.18-.14-.27a1.33,1.33,0,0,1-.07-.45,1.23,1.23,0,0,1,.07-.44l.09-.19.08-.1a.78.78,0,0,1,.44-.28m1.26.78,0,0a.74.74,0,0,0-.29-.12.92.92,0,0,0-.29,0h-.09a.65.65,0,0,0-.06.26.45.45,0,0,0,.18.38m-.12-.64c-.35,0-.53.24-.53.64m1.25-1,0,0a1.74,1.74,0,0,0-.94-.27,1.46,1.46,0,0,0-.31,0M20,27v.17c0,.41-.05.85-.07,1.32,0,.17,0,.35,0,.53s0,.59-.05.9,0,.59,0,.84M30.07,28.5l.06,0a1.74,1.74,0,0,1,.94-.27m-1,.84,0,0a.74.74,0,0,1,.29-.12.92.92,0,0,1,.29,0h.09c.35,0,.53.24.53.64m-1.28-1c0,.18,0,.36,0,.54s0,.58,0,.88,0,.59,0,.84m.7-1.91a.65.65,0,0,1,.06.26.45.45,0,0,1-.18.38m-.63-1"/><path class="cls-51" d="M28.58,27.6a.2.2,0,0,0,.05-.13c0-.15-.1-.27-.32-.35a1.41,1.41,0,0,0-.54-.11.65.65,0,0,0-.52.18c-.12.1-.16.2-.13.3s.09.15.16.14l.2-.07a.41.41,0,0,1,.18,0,1,1,0,0,1,.26,0,.57.57,0,0,1,.28.11.35.35,0,0,0,.19.11.23.23,0,0,0,.19-.11m-6.74.16a.37.37,0,0,0,.2-.11.54.54,0,0,1,.27-.11.94.94,0,0,1,.26,0,.49.49,0,0,1,.2.05l.19.07c.07,0,.12,0,.16-.14a.29.29,0,0,0-.12-.3.73.73,0,0,0-.54-.18,1.41,1.41,0,0,0-.54.11c-.21.08-.32.2-.32.35a.22.22,0,0,0,.06.13A.21.21,0,0,0,21.84,27.76Z"/><path id="Layer0_7_MEMBER_0_1_STROKES" data-name="Layer0 7 MEMBER 0 1 STROKES" class="cls-52" d="M25,29.52a4.79,4.79,0,0,1-.32.75.36.36,0,0,0-.08.15c0,.07.08.18.23.31a.61.61,0,0,0,.42.2"/><path class="cls-47" d="M25.17,22.41c0,1.46-2.13,1.45-3.06,2.58a12.94,12.94,0,0,0-2.29,3.56c-.16-.47-.84-.31-.84-.31s.07-2.3.34-2.45c-.4-.42-.09-1.77.15-2.3a5.72,5.72,0,0,1,3.3-3.24,3.07,3.07,0,0,1,2.17-.09,12.67,12.67,0,0,1,.13,2.22"/><path class="cls-47" d="M25.05,22.19c.06,1.46,2.34,2.25,3.31,3.34s.87,1.94,1.84,2.91a1.14,1.14,0,0,1,.86-.32s.21-2.27-.07-2.41c.38-.44.41-1.29-.25-2.52a5.48,5.48,0,0,0-3.41-2.87,3.73,3.73,0,0,0-2.39-.16,8,8,0,0,0,0,1.69"/><path class="cls-47" d="M24.85,22.52a11,11,0,0,0-3.58,5.59,20.7,20.7,0,0,0-.7,7.16,4,4,0,0,1,0,1.65c-.07.23-.23.6-.29.84A3.46,3.46,0,0,0,20.6,39a2.54,2.54,0,0,1-.47-1.32c0-.3.15-.59.2-.89a4.07,4.07,0,0,0,0-.78,26,26,0,0,1,0-4.23,2.18,2.18,0,0,0-.22,1.09c0,.68,0,1.35,0,2a17.5,17.5,0,0,1,.1-4c.07-.43.18-.84.25-1.27.11-.67,0-2,.14-2.7A5.87,5.87,0,0,1,23,23.09a2.79,2.79,0,0,1,1.54-.75c.12,0,.3.05.27.2"/><path class="cls-48" d="M24.39,21.57a3.18,3.18,0,0,0-1.75.93c-.22.28-.33.63-.54.91s-.38.4-.52.63a2.43,2.43,0,0,0-.31,1l-.4,2.62a12.79,12.79,0,0,0,.56-1.92,5.26,5.26,0,0,1,.22-.89,3.92,3.92,0,0,1,.34-.64l.78-1.31A1.46,1.46,0,0,1,22.43,24c-.23.31-.52.58-.73.91a2.31,2.31,0,0,0,1-1.22c.17-.45.23-1,.66-1.25l-.06.29a2.58,2.58,0,0,1,1.17-1.16"/><path class="cls-48" d="M25.26,21.75a2.72,2.72,0,0,0,1.28,1.78,7.1,7.1,0,0,1,1.33.72c-.48-.71-1.83-.95-2.07-1.78.13.1,1,.68,1.17.78-.07-.16-.65-1.25-.72-1.41a20.71,20.71,0,0,1,2.08,2.1c.3.38.19.65.46,1s1.05,1,1,1.55a8.93,8.93,0,0,0-4.1-5.21c.13.5.5.82.59,1.21a6.36,6.36,0,0,1-1.11-.84"/><path class="cls-53" d="M23.92,31.55a1.14,1.14,0,0,0-.77.66,3.18,3.18,0,0,0-.2.55.9.9,0,0,1-.28.38,1.51,1.51,0,0,1-.51.25l-.38.09.56.3c.36.2,1,.53,1.91,1a1.72,1.72,0,0,0,1.44,0h0l1.87-1,.57-.31-.34-.08a1.48,1.48,0,0,1-.52-.25,1,1,0,0,1-.28-.38,3.34,3.34,0,0,0-.19-.55,1.14,1.14,0,0,0-.8-.66A7.16,7.16,0,0,0,25,31.47a6.83,6.83,0,0,0-1.06.08"/><line class="cls-23" x1="17.76" y1="29.53" x2="18.07" y2="29.32"/><path d="M18,30l.31-.21c.52-.36,0-1.23-.51-.86l-.31.21c-.53.36,0,1.23.51.86Z"/><path class="cls-50" d="M23.49,32.84a.86.86,0,0,1,.36-.82A2.42,2.42,0,0,1,25,31.83a2.42,2.42,0,0,1,1.16.19.86.86,0,0,1,.36.82,1.42,1.42,0,0,1-.07.42,1.22,1.22,0,0,1-.24.43,1.61,1.61,0,0,1-1.17.37h-.12a1.56,1.56,0,0,1-1.13-.37A1.24,1.24,0,0,1,23.49,32.84Z"/><path class="cls-23" d="M23.56,32.23S24,33.62,25,33.66s1.45-1.34,1.45-1.34a9,9,0,0,1-1.45.22A4,4,0,0,1,23.56,32.23Z"/><path d="M23,28.15c-.2,0-.37.05-.53.09a4.26,4.26,0,0,0-.51.13A.66.66,0,0,1,23,28.15Z"/><circle cx="22.56" cy="28.37" r="0.2"/><path d="M27.2,28.18a.66.66,0,0,1,1.05.22,3.28,3.28,0,0,0-.52-.13A5.26,5.26,0,0,0,27.2,28.18Z"/><circle cx="27.67" cy="28.4" r="0.2"/><g id="Layer0_10_FILL" data-name="Layer0 10 FILL"><path class="cls-54" d="M117.65,33.75c0,.22,0,.68,0,1.4v.11a.77.77,0,0,0-.26.22.7.7,0,0,0-.15.43.51.51,0,0,0,.12.31,1.7,1.7,0,0,0,1.18.48,1.81,1.81,0,0,0,.8-.25,1,1,0,0,0,.31-.26.49.49,0,0,0,.09-.28.78.78,0,0,0-.14-.43.66.66,0,0,0-.27-.21,2.53,2.53,0,0,1,0,.28,2.53,2.53,0,0,0,0-.28v-.12c0-.65,0-1.11,0-1.4h-1.7"/></g><path class="cls-55" d="M113.59,36.36a3.62,3.62,0,0,0-1,.36c-.23.12.2,3.06.35,4.18.27,2,.82,4,1.07,6,.19,1.56.36,3.11.61,4.66.14.88.25,1.8.32,2.69,0,.25,0,.54.15.71a.78.78,0,0,0,.51.18,18.07,18.07,0,0,0,2.21.08h2.64c.57,0,1.14,0,1.71-.07,0-.89,0-1.79,0-2.68,0-2.32.43-4.59.55-6.9.09-1.92.12-3.84.38-5.75.12-.9.33-1.88.38-2.78,0-.38-.38-.47-.71-.62-.66-.28-1.24.07-1.94,0a21,21,0,0,0-3.94-.41c-.52,0-1,.09-1.56.15C115.07,36.17,113.74,36.31,113.59,36.36Z"/><path class="cls-56" d="M113.37,36.37c3.71-1.13,5-1.2,9.35,0-.33,1.72-3.55,1.94-4.92,2A5.42,5.42,0,0,1,113.37,36.37Z"/><path class="cls-56" d="M136.71,53.79a3.53,3.53,0,0,1,.24.34c.54.88.53,2.22,1.52,2.75.2-.29-.38-1-.26-1.45.38.48.71.91,1.07,1.43a9.28,9.28,0,0,0,.68.87c.11.13.3.06.24-.1a8.22,8.22,0,0,0-1.06-1.84c.55.58,1.25,2.24,2,2.38a.8.8,0,0,0,0-.72c.09.07.32.43.46.22.26-.37-.51-1.39-.7-1.79.29.27.53.86.91,1,.24-.37-.12-.72-.36-1a11.31,11.31,0,0,0-1.92-2,5.38,5.38,0,0,0-1.95-1.09l-.14-.19A11.46,11.46,0,0,1,136.71,53.79Z"/><path class="cls-14" d="M141,57.4a2.68,2.68,0,0,0-.18-.28l-.19-.29c-.13-.2-.22-.39-.35-.58l-.35-.58c-.11-.19-.25-.37-.38-.56a2.22,2.22,0,0,1,.51.46c.15.18.27.37.4.56a3.07,3.07,0,0,1,.17.31c.05.11.1.21.14.31s.09.21.13.32A1,1,0,0,1,141,57.4Z"/><path class="cls-14" d="M140.89,56a2.83,2.83,0,0,1-.24-.25l-.2-.27-.17-.28-.18-.3a.85.85,0,0,1,.3.19,1.86,1.86,0,0,1,.22.27,2.28,2.28,0,0,1,.17.3A1,1,0,0,1,140.89,56Z"/><path class="cls-56" d="M101.63,55.09c-.11.1-.21.19-.3.29-.7.76-.93,2.07-2,2.41-.15-.32.55-.89.52-1.37-.46.4-.87.76-1.32,1.2-.22.22-.58.53-.83.73s-.31,0-.21-.15a8.06,8.06,0,0,1,1.37-1.6c-.65.47-1.64,2-2.42,1.95a.75.75,0,0,1,.19-.69c-.11,0-.4.36-.5.12-.18-.41.76-1.26,1-1.62-.33.21-.68.75-1.07.77-.17-.41.25-.68.54-.93a11.81,11.81,0,0,1,2.26-1.59,5.64,5.64,0,0,1,2.12-.7l.17-.16C101.31,54.2,101.45,54.65,101.63,55.09Z"/><path class="cls-14" d="M96.7,57.82a2.61,2.61,0,0,1,.23-.24,2.77,2.77,0,0,0,.24-.25c.16-.17.29-.34.45-.51l.45-.5c.15-.16.32-.31.49-.47a2.29,2.29,0,0,0-.6.35,5.55,5.55,0,0,0-.49.48l-.23.27a2.83,2.83,0,0,1-.2.28l-.18.28A1,1,0,0,0,96.7,57.82Z"/><path class="cls-14" d="M97.11,56.45a1.42,1.42,0,0,0,.28-.2l.26-.22.22-.25a3,3,0,0,0,.22-.26,1,1,0,0,0-.32.13,1.55,1.55,0,0,0-.27.23,1.86,1.86,0,0,0-.23.26A1.51,1.51,0,0,0,97.11,56.45Z"/><path class="cls-56" d="M123.43,36.89A7.63,7.63,0,0,0,125.27,39c1.12,1.14,2.25,2.27,3.37,3.4,1.93,1.95,3.76,4,5.63,6,1,1.06,1.9,2.26,2.81,3.4.26.32.62.9,1,1a4.63,4.63,0,0,1-.81,1.22,5.84,5.84,0,0,1-1.36-.83c-1.07-.8-2.09-1.62-3.11-2.48A78.59,78.59,0,0,1,125,43.69a26.45,26.45,0,0,1-2-2.25,1.54,1.54,0,0,1-.22-.49,5.32,5.32,0,0,1,.07-3.11"/><path class="cls-56" d="M112.55,36.61c-.49.82-1.1,1.87-1.59,2.53l-2.77,3.72c-1.59,2.13-3.07,4.36-4.6,6.55-.8,1.15-1.51,2.42-2.23,3.64-.21.35-.48,1-.84,1.13a4.4,4.4,0,0,0,1,1.07,6.14,6.14,0,0,0,1.2-1c.91-.91,1.79-1.84,2.64-2.8a76.88,76.88,0,0,0,6.54-7.89,24.33,24.33,0,0,0,1.61-2.43,1.4,1.4,0,0,0,.15-.49,5.18,5.18,0,0,0-.49-3"/><path class="cls-57" d="M116.59,41.09a25.84,25.84,0,0,0,.42,3c.1.93.21,1.85.28,2.78.14,1.81.35,3.59.35,5.42,0,.55,0,1.1,0,1.65a4.38,4.38,0,0,0,.09,1.09c-.22.17-.58.12-.86.14-.87.07-1.74.1-2.62.1a7.82,7.82,0,0,1-1.87-.05c-.35-.1-.27-.18-.31-.54a30.82,30.82,0,0,1-.42-4.08V41.3a17,17,0,0,1,.19-2.95c.08-.42.11-1.52.62-1.59s1.59.79,1.93,1.1a8.9,8.9,0,0,1,1.63,1.55,3.24,3.24,0,0,1,.41,1A3.57,3.57,0,0,0,116.59,41.09Z"/><path class="cls-58" d="M115.82,41.62a13.12,13.12,0,0,0,.41,2.61,22.38,22.38,0,0,1,.27,2.31c.06,1.26.13,2.53.13,3.79s0,2.28,0,3.42c0,.53.12,1,.16,1.51a2.6,2.6,0,0,0,.74,0c.47-.1.36-.24.39-.75.06-1.29-.59-7.34-.69-9-.06-1-.12-2.13-.24-3.17,0-.32.08-1-.11-1.24S116.16,40.84,115.82,41.62Z"/><path class="cls-59" d="M114.84,33.72c.33-.42,1.26,0,.59.48.17,0,.61-.07.71.11s0,.44-.19.53c.29,0,1.21,0,.72.57.26,0,.8,0,.85.35s-.31.45-.27.71c.14,0,.53-.07.63.05s0,.3,0,.41.27.09.29.27-.37.45-.52.5a.69.69,0,0,1,.1,1c-.12.21-.19,0-.21.27s.32.53.35.79a1,1,0,0,1-.19.61,1.31,1.31,0,0,0-.22.54c-.07.3-.2.65-.53.25-.2.21-.35.58-.67.67s-.17,0-.43-.14,0-.13-.44-.09c-.24,0-.33.17-.52,0s0-.67-.12-.93-.74-.15-1-.32c-.53-.29-.24-.58-.26-1-.5-.17-.63-.46-.12-.79-.3-.29-.67-.2-.77-.64,0-.21.16-.53.12-.68-.11-.44-.72-.6-.79-1.15s.3-.5.77-.52c0-.1-.23-1.49.34-.84-.08-.66.31-.48.54-.09.2-.18.22-.89.5-1s.48.24.65.32C114.74,33.79,114.8,33.72,114.84,33.72Z"/><path class="cls-58" d="M112.58,49.54c1,.29,2.09.54,3.11.87a5.7,5.7,0,0,1-.22.81,21.63,21.63,0,0,1-3-.84A5.74,5.74,0,0,1,112.58,49.54Z"/><path class="cls-60" d="M112.41,37.08a27.05,27.05,0,0,0-2.91,3.05c-1,1.3-4.5,6.48-5.55,7.81-.72.9-3.5,5.2-3.16,5.42s1.49.89,1.78,1.1c.5-.51,1.1-.89,1.62-1.38s7.74-8.39,8.09-8.85a2,2,0,0,0,.46-.66,11.12,11.12,0,0,0,.08-3.86C112.76,38.93,112.61,38.19,112.41,37.08Z"/><path class="cls-59" d="M101.11,53.12a.87.87,0,0,0-.83-.4.52.52,0,0,0,.18.56c-.18,0-.6-.14-.68,0s.22.42.39.4c-.35.37-.5.55.2.53,0,.21-.26.62-.05.83s.48,0,.58-.07c.31.59.51.88.94.36.25.22,1.23.52,1.14-.11a.42.42,0,1,0,0-.82c0-.19.11-.47,0-.63a1,1,0,0,0-.93-.18c.11-.47-.66-.77-.56-.32C101.54,53,101.24,53,101.11,53.12Z"/><path class="cls-57" d="M120.4,41.09a25.84,25.84,0,0,1-.42,3c-.1.93-.21,1.85-.28,2.78-.14,1.81-.35,3.59-.35,5.42,0,.55,0,1.1,0,1.65a4.38,4.38,0,0,1-.09,1.09c.22.17.58.12.86.14.87.07,1.74.1,2.62.1a7.72,7.72,0,0,0,1.86-.05c.35-.1.27-.18.32-.54a32.6,32.6,0,0,0,.42-4.08V41.3a17,17,0,0,0-.2-2.95c-.07-.42-.1-1.52-.61-1.59s-1.59.79-1.93,1.1a8.9,8.9,0,0,0-1.63,1.55,3.24,3.24,0,0,0-.41,1A3.57,3.57,0,0,1,120.4,41.09Z"/><path class="cls-58" d="M121.17,41.62a13.12,13.12,0,0,1-.41,2.61,19.93,19.93,0,0,0-.27,2.31c-.06,1.26-.13,2.53-.13,3.79v3.42c0,.53-.12,1-.16,1.51a2.6,2.6,0,0,1-.74,0c-.47-.1-.37-.24-.39-.75-.06-1.29.59-7.34.69-9,.06-1,.12-2.13.24-3.17,0-.32-.08-1,.11-1.24S120.83,40.84,121.17,41.62Z"/><path class="cls-59" d="M122.14,33.72c-.32-.42-1.25,0-.58.48-.17,0-.61-.07-.71.11s.05.44.19.53c-.29,0-1.21,0-.72.57-.26,0-.8,0-.85.35s.3.45.27.71c-.14,0-.54-.07-.63.05s0,.3,0,.41-.27.09-.28.27.37.45.52.5a.69.69,0,0,0-.1,1c.12.21.19,0,.21.27s-.32.53-.35.79a1,1,0,0,0,.19.61,1.31,1.31,0,0,1,.22.54c.07.3.2.65.53.25.2.21.35.58.67.67s.17,0,.43-.14,0-.13.44-.09c.24,0,.33.17.52,0s0-.67.12-.93.74-.15,1-.32c.53-.29.24-.58.26-1,.49-.17.63-.46.12-.79.3-.29.67-.2.77-.64,0-.21-.16-.53-.13-.68.12-.44.73-.6.8-1.15s-.3-.5-.78-.52c0-.1.24-1.49-.33-.84.08-.66-.31-.48-.54-.09-.2-.18-.22-.89-.5-1s-.48.24-.66.32C122.25,33.79,122.19,33.72,122.14,33.72Z"/><path class="cls-58" d="M124.41,49.54c-1,.29-2.09.54-3.11.87a4.63,4.63,0,0,0,.22.81,21.63,21.63,0,0,0,3-.84A5.74,5.74,0,0,0,124.41,49.54Z"/><path class="cls-60" d="M124.8,36.93A27.9,27.9,0,0,1,128,39.72c1.08,1.22,5,6.08,6.19,7.31.79.84,3.92,4.89,3.6,5.15s-1.41,1-1.68,1.24c-.54-.46-1.17-.8-1.73-1.24s-8.42-7.71-8.81-8.13a2.11,2.11,0,0,1-.51-.63,11.26,11.26,0,0,1-.41-3.84C124.61,38.8,124.7,38.05,124.8,36.93Z"/><path class="cls-59" d="M137.41,52a.87.87,0,0,1,.8-.47.53.53,0,0,1-.13.57c.17,0,.58-.18.68,0s-.18.44-.36.43c.38.34.54.51-.16.54,0,.22.32.6.13.83a.49.49,0,0,1-.59,0c-.25.61-.44.92-.91.43-.23.24-1.18.63-1.14,0a.41.41,0,1,1-.11-.81c0-.19-.14-.46,0-.64s.68-.31.91-.25c-.15-.46.59-.82.53-.37C137,51.87,137.27,51.82,137.41,52Z"/><g id="Layer0_14_FILL" data-name="Layer0 14 FILL"><path class="cls-61" d="M118,24.7a4,4,0,0,1-.63.76,4.65,4.65,0,0,1-1.78,1,2.66,2.66,0,0,0,.16-.55c-.2.17-.39.34-.58.49a10.71,10.71,0,0,1-1.23.87q.07.51.12,1v0l.06.53a.31.31,0,0,0,0,.1c0,.5,0,1,0,1.41s0,.71,0,1q0,.2,0,.36c0,.46.52,1,1.66,1.57a6.39,6.39,0,0,0,6.08,0c1.14-.59,1.69-1.11,1.66-1.57,0-.09,0-.31,0-.66s0-.45,0-.74V30c0-.57,0-1,0-1.22a1.87,1.87,0,0,1,0-.28,2.45,2.45,0,0,1,0-.27q0-.42.12-1a10.25,10.25,0,0,1-2.54-.52A6.45,6.45,0,0,1,118,24.7Z"/><path class="cls-54" d="M117.4,25.46a4,4,0,0,0,.63-.76,6.45,6.45,0,0,0,3.17,2.05,10.25,10.25,0,0,0,2.54.52l.06-.44a6.76,6.76,0,0,1-1.08-.21,13.12,13.12,0,0,1-2-.68,5.12,5.12,0,0,1-2.69-2.17,3.21,3.21,0,0,1-1,1.33,6.79,6.79,0,0,1-.93.71,3.35,3.35,0,0,0,.22-.34,3.83,3.83,0,0,0,.47-1,10.28,10.28,0,0,1-1.34,1.26,8.76,8.76,0,0,1-1.53,1.06c0,.14,0,.29,0,.44a10.71,10.71,0,0,0,1.23-.87c.19-.15.38-.32.58-.49a2.66,2.66,0,0,1-.16.55,4.65,4.65,0,0,0,1.78-1m7.69,2.9,0,0-.09-.07a.83.83,0,0,0-.37-.16,1.12,1.12,0,0,0-.27,0,1.42,1.42,0,0,0-.71.19,2.45,2.45,0,0,0,0,.27,1.87,1.87,0,0,0,0,.28.75.75,0,0,1,.32-.13h.27a.54.54,0,0,1,.54.63.54.54,0,0,0-.54-.63,3.17,3.17,0,0,1,0,.57,3.17,3.17,0,0,0,0-.57h-.27a.75.75,0,0,0-.32.13c0,.25,0,.65,0,1.22v.28h.13a2.12,2.12,0,0,0,.49-.06,2.29,2.29,0,0,0,.46-.2,1.08,1.08,0,0,0,.67-1,1.15,1.15,0,0,0-.15-.59l-.08-.1m-10.93.54a.31.31,0,0,1,0-.1.91.91,0,0,0-.31-.12h-.28a3.17,3.17,0,0,0,0,.57,3.17,3.17,0,0,1,0-.57.56.56,0,0,0-.49.3.48.48,0,0,0,0,.33.48.48,0,0,1,0-.33.56.56,0,0,1,.49-.3h.28a.91.91,0,0,1,.31.12l-.06-.53v0a1.3,1.3,0,0,0-.68-.18,1,1,0,0,0-.6.17l-.13.09,0,0a.81.81,0,0,0-.09.1,1.15,1.15,0,0,0-.15.59,1.08,1.08,0,0,0,.67,1l.2.1a2,2,0,0,0,.76.16h.16C114.21,29.87,114.19,29.4,114.16,28.9Z"/><path class="cls-62" d="M118,22.09l-.21.28a5.48,5.48,0,0,0-.46.72l-.22-.31c-.19.33-.43.74-.75,1.25a5.75,5.75,0,0,1-1.13,1.2,2.61,2.61,0,0,1-1.43.75c-.2-.12-.55-.36-1.06-.72l-.29-.23c0,.17,0,.38.1.64s0,.3.07.43.07.29.1.41c0-.12-.07-.26-.1-.41l0,.13a1.73,1.73,0,0,1-.55,1h0a1.47,1.47,0,0,0,.73-.26.24.24,0,0,1,.09-.06l.14-.11-.14.11a1,1,0,0,0-.12.36,3.87,3.87,0,0,0,0,.44c0,.07,0,.15,0,.25a.63.63,0,0,0,.07.24,1,1,0,0,1,.6-.17,1.3,1.3,0,0,1,.68.18q0-.51-.12-1c0-.15,0-.3,0-.44l-.24.09.24-.09a8.76,8.76,0,0,0,1.53-1.06,10.28,10.28,0,0,0,1.34-1.26,1.94,1.94,0,0,0,.06-.46,1.94,1.94,0,0,1-.06.46,3.83,3.83,0,0,1-.47,1,3.35,3.35,0,0,1-.22.34,6.79,6.79,0,0,0,.93-.71,3.21,3.21,0,0,0,1-1.33,2.06,2.06,0,0,1-.2-.54,2.06,2.06,0,0,0,.2.54,5.12,5.12,0,0,0,2.69,2.17,13.12,13.12,0,0,0,2,.68,6.76,6.76,0,0,0,1.08.21,4,4,0,0,0,.48,0,4,4,0,0,1-.48,0l-.06.44q-.08.57-.12,1a1.42,1.42,0,0,1,.71-.19,1.12,1.12,0,0,1,.27,0,2.64,2.64,0,0,0,.2-1.64l-.34-.32.34.32c.13.14.26.3.42.49a2.77,2.77,0,0,1,.45.68,3.11,3.11,0,0,0-.34-1.64,2.11,2.11,0,0,0-.21-.31,2.14,2.14,0,0,0-.58-.5,2.14,2.14,0,0,1,.58.5,3.44,3.44,0,0,0,.87-.13l.07,0a2.25,2.25,0,0,1-.4-.21,7,7,0,0,1-.6-.46c-.18-.16-.34-.31-.47-.45.13.14.29.29.47.45a7,7,0,0,0,.6.46,5.69,5.69,0,0,1-.6-1.52l-.1,0a2.91,2.91,0,0,1-1-.67c0,.13,0,.27,0,.44,0,.51-.09.91-.09,1.19a2,2,0,0,0-.26-.18c-.15-.1-.43-.25-.82-.45,0,.12.08.33.14.62a2,2,0,0,0,.27.74c-.3,0-.59-.09-.85-.15a16.07,16.07,0,0,1-2.24-.68,5.53,5.53,0,0,1-.89-.38,1.1,1.1,0,0,1-.35-.39l-.29-.7a9.27,9.27,0,0,0-.6-1.07m6.23,1.82.09.13.11.15-.11-.15-.09-.13m-.49,6.4h-.13c0,.29,0,.54,0,.74a3.89,3.89,0,0,0,.35-.41l.29-.39a2.12,2.12,0,0,1-.49.06m-10.41-.16a1.53,1.53,0,0,0,.27.61,1.55,1.55,0,0,0,.63.59c0-.33,0-.67,0-1h-.16A2,2,0,0,1,113.29,30.15Z"/><path class="cls-63" d="M113.75,26h0a9.8,9.8,0,0,1-1.07-.72c-.11-.08-.21-.15-.3-.23h0v0a1.85,1.85,0,0,1,0-.3,5.77,5.77,0,0,1,1.52-4.18,4,4,0,0,1,1.64-1,2.93,2.93,0,0,1,.9-.15,2.44,2.44,0,0,1,1.08.25,6.33,6.33,0,0,1,2.78-.68h0a4.78,4.78,0,0,1,2.64.79,3.27,3.27,0,0,1,1.48,1.75c.14.44.36,1.2.66,2.24v.07l-.14,0a2.91,2.91,0,0,1-.93-.62c0,.11,0,.22,0,.35,0,.52-.08.92-.09,1.19v.09l-.06-.06a2,2,0,0,0-.25-.18c-.14-.09-.39-.22-.73-.4,0,.12.07.3.11.53a2.07,2.07,0,0,0,.27.73l0,.08h-.08c-.31-.05-.6-.1-.86-.16a16.58,16.58,0,0,1-2.25-.68,6.92,6.92,0,0,1-.89-.39.93.93,0,0,1-.36-.4c-.1-.25-.2-.49-.3-.7a9.78,9.78,0,0,0-.56-1l-.18.23a5.41,5.41,0,0,0-.45.72l0,.06,0-.06-.19-.25q-.27.47-.72,1.2a6,6,0,0,1-1.13,1.2,2.63,2.63,0,0,1-1.46.76Z"/></g><g id="Layer0_14_MEMBER_0_FILL" data-name="Layer0 14 MEMBER 0 FILL"><path class="cls-51" d="M121,27a.12.12,0,0,0,0,.11.86.86,0,0,0,.45.08,1.42,1.42,0,0,0,.67-.1.23.23,0,0,0,.07-.18c0-.17-.21-.22-.62-.17s-.61.14-.61.26m-4.64-.26c-.41-.05-.61,0-.61.17a.2.2,0,0,0,.07.18,1.36,1.36,0,0,0,.67.1.82.82,0,0,0,.44-.08.16.16,0,0,0,0-.11C117,26.84,116.77,26.76,116.37,26.7Z"/><path class="cls-62" d="M118.72,30.85c-.09-.21-.32-.34-.69-.37a.58.58,0,0,0-.68.47.6.6,0,0,1-.61.52,2.51,2.51,0,0,1-.57-.08,1,1,0,0,0,.41.72,1.71,1.71,0,0,0,1.14.4.83.83,0,0,0,.69-.34,1.88,1.88,0,0,0,.3-.58,2.48,2.48,0,0,0,.32.58.84.84,0,0,0,.7.34,1.7,1.7,0,0,0,1.13-.4,1,1,0,0,0,.42-.72,2.67,2.67,0,0,1-.58.08.61.61,0,0,1-.61-.52.58.58,0,0,0-.68-.47A.77.77,0,0,0,118.72,30.85Z"/></g><path id="Layer0_14_MEMBER_0_1_STROKES" data-name="Layer0 14 MEMBER 0 1 STROKES" class="cls-64" d="M118.68,28.6a3.22,3.22,0,0,1-.11,1.15c0,.11-.1.23-.16.34s.19.15.55.18"/><g id="Layer0_14_MEMBER_1_FILL" data-name="Layer0 14 MEMBER 1 FILL"><path class="cls-65" d="M115,21.1a.29.29,0,0,0,.08-.18c0-.16-.08-.21-.23-.17s-.24.11-.24.24l0,.1a.21.21,0,0,0,.19.09.22.22,0,0,0,.17-.08m.77-.13a.66.66,0,0,0,.13-.26c0-.19-.11-.27-.31-.24s-.32.18-.32.45c0,0,0,0,0,.13s.09.11.19.11.18-.06.29-.19m7.2.17A.21.21,0,0,0,123,21c0-.13-.08-.21-.25-.25s-.25,0-.25.19l0,.13a.25.25,0,0,0,.24.13.19.19,0,0,0,.16-.07m-2.45-.76c-.17-.07-.26,0-.26.19l0,.14a.29.29,0,0,0,.29.13c.14,0,.21-.06.21-.2s-.09-.18-.27-.26m-.43.33a.19.19,0,0,0,0-.11c0-.11-.09-.23-.28-.37s-.27-.09-.27.15a.4.4,0,0,0,.08.22.3.3,0,0,0,.28.2.16.16,0,0,0,.15-.09m-.52.29a.28.28,0,0,0,0-.12,1.11,1.11,0,0,0-.13-.26,1.69,1.69,0,0,0-.28-.37c-.27-.27-.41-.13-.41.41a.36.36,0,0,0,.08.24.62.62,0,0,0,.5.18A.26.26,0,0,0,119.59,21Z"/></g><path d="M117.16,27.76c-.19,0-.34,0-.48.09a4.44,4.44,0,0,0-.48.11A.59.59,0,0,1,117.16,27.76Z"/><circle cx="116.73" cy="27.96" r="0.19"/><path d="M120.79,27.78a.6.6,0,0,1,1,.2c-.2,0-.32-.09-.48-.1S121,27.83,120.79,27.78Z"/><circle cx="121.22" cy="27.98" r="0.19"/><g id="Layer0_8_FILL" data-name="Layer0 8 FILL"><path class="cls-66" d="M72.47,108a1.75,1.75,0,0,0,.39.25,2.62,2.62,0,0,0,1.3.32,2.73,2.73,0,0,0,1.23-.35,1.62,1.62,0,0,0,.29-.19.73.73,0,0,0,.32-.56,1,1,0,0,0-.62-.91c0,.13,0,.26,0,.4,0-.14,0-.27,0-.4v-.16c0-.91,0-1.57,0-2H72.75c0,.31,0,1,0,2v.15c0,.14,0,.29,0,.44,0-.15,0-.3,0-.44a1.14,1.14,0,0,0-.39.31.91.91,0,0,0-.23.6.72.72,0,0,0,.3.54"/></g><g id="Layer0_9_FILL" data-name="Layer0 9 FILL"><path class="cls-66" d="M80.17,99.91a.57.57,0,0,1,.56.65.57.57,0,0,0-.56-.65.66.66,0,0,1,.06.27.48.48,0,0,1-.18.39.48.48,0,0,0,.18-.39.66.66,0,0,0-.06-.27h-.1a.92.92,0,0,0-.29,0,.79.79,0,0,0-.31.13l0,0c0,.29,0,.59,0,.9s0,.6,0,.86a2.46,2.46,0,0,0,1.31-.36,1.63,1.63,0,0,0,.49-.44l.15-.28a1.39,1.39,0,0,0,.08-.46,1.33,1.33,0,0,0-.08-.45.69.69,0,0,0-.1-.19l-.07-.11a1,1,0,0,0-.79-.33,1.89,1.89,0,0,0-1,.28l-.07,0c0,.17,0,.36.05.54l0,0a.79.79,0,0,1,.31-.13.92.92,0,0,1,.29,0h.1m-11.44-.37,0,0a1.89,1.89,0,0,0-1-.28,1.14,1.14,0,0,0-.33.05.84.84,0,0,0-.46.28.76.76,0,0,0-.08.11.66.66,0,0,0-.09.19,1.33,1.33,0,0,0-.08.45,1.39,1.39,0,0,0,.08.46c0,.09.09.18.14.28a1.68,1.68,0,0,0,.5.44,2.41,2.41,0,0,0,1.29.36c0-.26,0-.54,0-.86s0-.62,0-.91l0,0a.79.79,0,0,0-.31-.13,1,1,0,0,0-.3,0H68a.66.66,0,0,0-.06.27.48.48,0,0,0,.18.39.48.48,0,0,1-.18-.39.66.66,0,0,1,.06-.27.57.57,0,0,0-.56.65.57.57,0,0,1,.56-.65h.09a1,1,0,0,1,.3,0,.79.79,0,0,1,.31.13l0,0C68.71,99.9,68.72,99.71,68.73,99.54Z"/><path class="cls-67" d="M69.13,95.07a5.14,5.14,0,0,0-.23,1,3.44,3.44,0,0,1-.13.47v.06c0,.5,0,.91,0,1.22v.34c0,.43-.06.87-.08,1.35,0,.17,0,.36,0,.55s0,.6,0,.91,0,.6,0,.86a3.08,3.08,0,0,0,.28,1,4.18,4.18,0,0,0,.65.94,5.17,5.17,0,0,0,1.18.89c.13,0,2.32,1.4,3.26,1.4s3.16-1.43,3.27-1.41a5.53,5.53,0,0,0,1.22-.91,2.54,2.54,0,0,0,.66-.94,4.79,4.79,0,0,0,.23-1c0-.26,0-.54,0-.86s0-.61,0-.9,0-.37-.05-.54c0-.82,0-1.8,0-3a2.18,2.18,0,0,1-.12-.46c-.07-.34,0-.69-.1-.87l-.54-.85-.88-.17c-.57-.07-1.55,0-2.84-.07a23.59,23.59,0,0,0-3.11.12c-.85.1-1.77.3-2.44.43a1.57,1.57,0,0,1-.21.59m3.73,7.9a.88.88,0,0,0-.36.83,1.27,1.27,0,0,0,.31.87,1.63,1.63,0,0,0,1.16.38h.12a1.61,1.61,0,0,0,1.19-.38,1.18,1.18,0,0,0,.25-.43,1.56,1.56,0,0,0,.07-.44.89.89,0,0,0-.37-.83A2.49,2.49,0,0,0,74.1,103,2.54,2.54,0,0,0,72.91,103.22Z"/><path class="cls-53" d="M78.3,93.12a4.85,4.85,0,0,0-4-1.61A5.71,5.71,0,0,0,70,92.87a4,4,0,0,0-1.17,1.76,2.63,2.63,0,0,0-.12,1.07l.05.93v-.06a3.44,3.44,0,0,0,.13-.47,2.25,2.25,0,0,1,.28-.78,6.15,6.15,0,0,0,.37-.52c.67-.13,1.43-.25,2.28-.35a23.81,23.81,0,0,1,3.11-.11c1.29,0,2.21.07,2.78.13l.73.1.57.79a2.48,2.48,0,0,1,.28.78,2.18,2.18,0,0,0,.12.46v-.27a4.34,4.34,0,0,0-.25-1.67,5.75,5.75,0,0,0-.88-1.54"/></g><path id="Layer0_9_1_STROKES" data-name="Layer0 9 1 STROKES" class="cls-64" d="M68.71,100.09l0,0a.79.79,0,0,0-.31-.13,1,1,0,0,0-.3,0H68a.66.66,0,0,0-.06.27.48.48,0,0,0,.18.39M68,99.91a.57.57,0,0,0-.56.65m12-.46,0,0a.79.79,0,0,1,.31-.13.92.92,0,0,1,.29,0h.1a.57.57,0,0,1,.56.65m-.56-.65a.66.66,0,0,1,.06.27.48.48,0,0,1-.18.39"/><path class="cls-51" d="M76,98.61a8.47,8.47,0,0,0,1.19-.09c.51-.06.77-.14.77-.23s-.38-.27-1.14-.22-1.15.13-1.15.29a.18.18,0,0,0,0,.13.33.33,0,0,0,.29.12m-3.34-.12a.19.19,0,0,0,0-.13c0-.16-.41-.26-1.23-.29s-1.21,0-1.21.22.27.17.81.23a9.83,9.83,0,0,0,1.27.09A.36.36,0,0,0,72.61,98.49Z"/><path id="Layer0_9_MEMBER_0_1_STROKES" data-name="Layer0 9 MEMBER 0 1 STROKES" class="cls-64" d="M73.82,100.29a4.88,4.88,0,0,0-.8,1.35q0,.17.42.36a1.22,1.22,0,0,0,.68.15"/><path class="cls-23" d="M72.62,103.49s.43,1.42,1.48,1.46,1.48-1.37,1.48-1.37a9.46,9.46,0,0,1-1.48.22A3.93,3.93,0,0,1,72.62,103.49Z"/><path d="M72.13,99.11c-.21,0-.38,0-.54.08a5.31,5.31,0,0,0-.53.14A.68.68,0,0,1,72.13,99.11Z"/><circle cx="71.65" cy="99.33" r="0.21"/><path d="M76.39,99.14a.67.67,0,0,1,1.06.22,5.19,5.19,0,0,0-.52-.14C76.76,99.18,76.59,99.18,76.39,99.14Z"/><circle cx="76.87" cy="99.36" r="0.21"/><path class="cls-68" d="M80.13,93c.88.16,4,1.54,2.89,3s-3.29,1.68-5,1.83a54.5,54.5,0,0,1-6.26.12c-1.65,0-3.35.28-4.89-.35-.72-.29-2-.86-1.91-1.82s1.29-1.68,1.92-2c2.65-1.56,6.1-1.52,9.06-1.23C77.36,92.6,78.76,92.71,80.13,93Z"/><path class="cls-69" d="M69.11,92.4c0,.27-.06.59-.09.91-.11,1-.16,2.15,1.13,2.34a19.76,19.76,0,0,0,5.43-.15c.75-.1,2.19-.17,2.74-.69s.27-1.09-.1-1.58c-.11-.15-.23-.3-.32-.44a14.09,14.09,0,0,1-1.1-2.11c-.58-1.18-1.45-2.89-3-1.87-.69.46-.8.57-1.64.32a3.39,3.39,0,0,0-1.74-.38C69,89.14,69.14,91.26,69.11,92.4Z"/><path d="M69,93.31c-.11,1-.16,2.15,1.13,2.34a19.76,19.76,0,0,0,5.43-.15c.75-.1,2.19-.17,2.74-.69s.27-1.09-.1-1.58c-1.27,0-2.43.78-3.7.84a12.74,12.74,0,0,1-4-.2C70.19,93.79,69.43,93.41,69,93.31Z"/><path class="cls-67" d="M94.49,127.32a4.25,4.25,0,0,1,.25.39c.59,1,.57,2.5,1.64,3.09.22-.32-.41-1.1-.28-1.63.41.54.77,1,1.15,1.62a11.44,11.44,0,0,0,.74,1c.11.15.32.07.25-.12a9,9,0,0,0-1.13-2.07c.59.66,1.34,2.53,2.17,2.68a.93.93,0,0,0-.06-.81c.11.08.35.48.5.25.28-.42-.55-1.57-.75-2,.3.3.56,1,1,1.09.26-.43-.12-.82-.38-1.15a12.66,12.66,0,0,0-2.07-2.25,6.05,6.05,0,0,0-2.1-1.23,1.59,1.59,0,0,1-.15-.21A13.21,13.21,0,0,1,94.49,127.32Z"/><path class="cls-51" d="M99.15,131.4a2.14,2.14,0,0,0-.2-.32c-.07-.11-.14-.22-.2-.33s-.24-.44-.37-.66-.26-.44-.38-.65-.27-.41-.42-.63a2.3,2.3,0,0,1,.56.52,7.14,7.14,0,0,1,.43.64l.18.34c0,.13.11.24.15.36l.15.35A1.26,1.26,0,0,1,99.15,131.4Z"/><path class="cls-51" d="M99,129.79a3.45,3.45,0,0,1-.26-.28c-.08-.11-.15-.2-.22-.31s-.13-.21-.18-.31-.13-.21-.19-.34a1,1,0,0,1,.32.21,3.24,3.24,0,0,1,.24.31,1.59,1.59,0,0,1,.18.34A1.52,1.52,0,0,1,99,129.79Z"/><path class="cls-67" d="M56.71,128.79l-.32.33c-.75.85-1,2.34-2.16,2.72-.16-.37.59-1,.57-1.56-.5.46-.94.86-1.42,1.37a11.67,11.67,0,0,1-.9.82c-.14.12-.33,0-.23-.17a9.52,9.52,0,0,1,1.48-1.81c-.7.53-1.76,2.22-2.61,2.21a1,1,0,0,1,.2-.79c-.11.06-.43.41-.53.14-.2-.46.82-1.43,1.1-1.83-.36.24-.73.84-1.16.88-.17-.47.28-.78.59-1a11.83,11.83,0,0,1,2.44-1.8,5.78,5.78,0,0,1,2.27-.8c.07,0,.13-.12.19-.17A13.29,13.29,0,0,0,56.71,128.79Z"/><path class="cls-51" d="M51.4,131.88a1.73,1.73,0,0,1,.26-.28l.25-.28c.18-.2.31-.39.48-.57l.49-.57a6.5,6.5,0,0,1,.52-.53,2.39,2.39,0,0,0-.64.39c-.19.17-.35.35-.53.54l-.24.31-.22.31c-.07.11-.13.22-.2.32A1.49,1.49,0,0,0,51.4,131.88Z"/><path class="cls-51" d="M51.85,130.33a3.4,3.4,0,0,0,.3-.23l.27-.25.24-.28a3.7,3.7,0,0,0,.24-.29,1,1,0,0,0-.35.14A2.35,2.35,0,0,0,52,130,1.14,1.14,0,0,0,51.85,130.33Z"/><path class="cls-67" d="M94.88,125.14c-1-1.29-1.95-2.64-3-3.84-2-2.27-4-4.62-6.06-6.82q-1.81-1.91-3.63-3.84a8.51,8.51,0,0,1-2-2.4c-.5-.61-.41-.45-.76-.59a1.34,1.34,0,0,0-.27-.07c-4.33-1.25-5.82-1.18-9.54,0h0a3.61,3.61,0,0,0-1.12.34.13.13,0,0,0,0,.07c-.51.92-1.14,2.06-1.66,2.79l-3,4.2c-1.71,2.4-3.3,4.93-4.94,7.39-.87,1.3-1.63,2.74-2.41,4.11-.22.39-.51,1.07-.9,1.29a4.81,4.81,0,0,0,1,1.19,6,6,0,0,0,1.29-1.1q1.47-1.55,2.85-3.16a85.59,85.59,0,0,0,7-8.91c.46-.71,1-1.46,1.45-2.22.29,1.35.64,2.69.83,4.05s.39,3,.66,4.44c.14.83.26,1.71.34,2.55,0,.24,0,.52.16.68a.94.94,0,0,0,.55.17,21,21,0,0,0,2.38.08h2.84c.62,0,1.23,0,1.84-.07,0-.85,0-1.7,0-2.55,0-2.21.46-4.37.58-6.56.07-1.14.1-2.26.19-3.39a1.33,1.33,0,0,0,.19.4,24.78,24.78,0,0,0,2.14,2.54,86.35,86.35,0,0,0,8.41,8q1.63,1.46,3.34,2.8a6.38,6.38,0,0,0,1.47.93,5.14,5.14,0,0,0,.88-1.38C95.55,126.15,95.16,125.5,94.88,125.14Z"/><path class="cls-70" d="M70.86,125.07a10,10,0,0,1-.74,2.58,23.8,23.8,0,0,0-.81,3.2,29.18,29.18,0,0,0-.22,4c0,.23.45.36.54.55.38.73,2.32.62,3.08.64,3,.1,5.89-.65,8.86-.83.39-3-1.06-8.58-2.46-11.1-.37-.65-.46.82-1.15.58-1.15-.38-3.18,0-4.41,0A10.36,10.36,0,0,0,70.86,125.07Z"/><path class="cls-71" d="M79.9,107.83a17,17,0,0,0-4.38-1.08c-.77.16-1.26,1-3.32.13-.38-.16-2.09.36-3.73,1a8.83,8.83,0,0,0-2.08,2.34c-.26.46-.37.66-.07,1.1a4.45,4.45,0,0,0,1.55,1.56c.37.2.81.28,1,.64a4.65,4.65,0,0,1,.4,1.66,25.39,25.39,0,0,1,.15,2.76c0,1.81-.39,4-.06,5.72.1.55,1,1,1.38,1.42s1.34.22,1.83.24a32.32,32.32,0,0,0,4.51-.12l1.05-.09a3.92,3.92,0,0,0,1.28-.16c.41-.2,1.24-.58,1.25-1,0-1.48-.21-2.66-.36-5-.08-1.28,0-2.47,0-3.75,0-.46-.14-1.15.15-1.47s.62-.45.88-.71a7.59,7.59,0,0,0,.75-.75,4.46,4.46,0,0,0,.45-.8,1.44,1.44,0,0,0-.33-1.73A8.35,8.35,0,0,0,79.9,107.83Z"/><path class="cls-1" d="M77,121.88c1.13-.19,2.32-.43,3.46-.73,0-.37-.07-.77-.1-1.22a41.08,41.08,0,0,1-10,.47l-1.1-.09c0,.52-.06,1-.06,1.55.61.06,1.23.1,1.83.15A24.59,24.59,0,0,0,77,121.88Z"/><path class="cls-1" d="M71.2,125.32a4.88,4.88,0,0,0,1.14,0Z"/><path class="cls-1" d="M76.26,124.29a20.05,20.05,0,0,0,4.41-.79c0-.43,0-.85-.08-1.3-.3.06-.6.12-.93.17a27.12,27.12,0,0,1-4.22.47,38.13,38.13,0,0,1-5.45-.15l-.72-.1a6.73,6.73,0,0,0,.11,1.11.91.91,0,0,0,.16.35A32,32,0,0,0,76.26,124.29Z"/><path class="cls-1" d="M76.26,119.4a20,20,0,0,0,4-.69c0-.48,0-.94,0-1.4l-.61.11a27.12,27.12,0,0,1-4.22.47,36.73,36.73,0,0,1-5.45-.16l-.56-.07c0,.1,0,.21,0,.32,0,.37,0,.76,0,1.15A32,32,0,0,0,76.26,119.4Z"/><path class="cls-1" d="M76.26,114.59a20.34,20.34,0,0,0,4.1-.7.75.75,0,0,1,.07-.12c.24-.26.62-.45.88-.71a7.59,7.59,0,0,0,.75-.75,2.91,2.91,0,0,0,.25-.39l0,0a8.94,8.94,0,0,1-2.12.7,34.29,34.29,0,0,1-10,.62,10.37,10.37,0,0,1-2.24-.33c.37.19.79.28,1,.63a2.45,2.45,0,0,1,.26.72A31.17,31.17,0,0,0,76.26,114.59Z"/><path class="cls-1" d="M75.64,112.26A20,20,0,0,0,81.17,111a12.34,12.34,0,0,0,1.43-.54,2.5,2.5,0,0,0-.42-.69,5.6,5.6,0,0,0-.49-.57,12.41,12.41,0,0,1-2.85.8,24.16,24.16,0,0,1-4,.47,32.55,32.55,0,0,1-5.13-.16c-1-.15-2.07-.3-3.1-.42-.08.11-.17.24-.24.36-.21.39-.33.59-.18.91A22.31,22.31,0,0,0,75.64,112.26Z"/><path class="cls-1" d="M79.37,125l-.87.13A2.61,2.61,0,0,0,79.37,125Z"/><path class="cls-1" d="M70.77,109.64a21.35,21.35,0,0,0,5.59-.12,31.07,31.07,0,0,0,4.4-1.09l-.45-.27c-.78-.67-4.52-1.47-4.79-1.41a8.6,8.6,0,0,1-2.09.33,4.94,4.94,0,0,1-1.23-.2c-4.65.7-4.84,2.08-5,2.33h.07A23.14,23.14,0,0,0,70.77,109.64Z"/><path class="cls-1" d="M74.9,125.38h0Z"/><path class="cls-1" d="M77,116.93c1.06-.18,2.17-.4,3.25-.68v-1.11a41.2,41.2,0,0,1-9.86.45,10.4,10.4,0,0,1-1.1-.09c.05.47.08,1,.1,1.42l1.67.13A24.09,24.09,0,0,0,77,116.93Z"/><path class="cls-72" d="M74.86,110.48a24.16,24.16,0,0,0,4-.47,12.41,12.41,0,0,0,2.85-.8,5.12,5.12,0,0,0-.93-.78,31.07,31.07,0,0,1-4.4,1.09,21.35,21.35,0,0,1-5.59.12,23.14,23.14,0,0,1-3.53-.42h-.07c-.18.23-.37.45-.54.69,1,.12,2.08.27,3.1.42A32.55,32.55,0,0,0,74.86,110.48Z"/><path class="cls-72" d="M80.14,112.64a8.94,8.94,0,0,0,2.12-.7l0,0,.2-.41a1.3,1.3,0,0,0,.09-1,12.34,12.34,0,0,1-1.43.54,20,20,0,0,1-5.53,1.25,22.31,22.31,0,0,1-9.43-1.09,1.3,1.3,0,0,0,.11.19,4.45,4.45,0,0,0,1.55,1.56h0a10.37,10.37,0,0,0,2.24.33A34.29,34.29,0,0,0,80.14,112.64Z"/><path class="cls-72" d="M80.28,115.14a2.72,2.72,0,0,1,.08-1.25,20.34,20.34,0,0,1-4.1.7,31.17,31.17,0,0,1-7.11-.31c.07.32.1.65.14.94l0,.28a10.4,10.4,0,0,0,1.1.09A41.2,41.2,0,0,0,80.28,115.14Z"/><path class="cls-72" d="M75.44,117.89a27.12,27.12,0,0,0,4.22-.47l.61-.11c0-.35,0-.7,0-1.06-1.08.28-2.19.5-3.25.68a24.09,24.09,0,0,1-5.94.12l-1.67-.13c0,.25,0,.49,0,.74l.56.07A36.73,36.73,0,0,0,75.44,117.89Z"/><path class="cls-72" d="M80.39,119.93c0-.29,0-.61-.07-.94a2.72,2.72,0,0,1,0-.28,20,20,0,0,1-4,.69,32,32,0,0,1-6.86-.27c0,.39-.05.78-.08,1.18l1.1.09A41.08,41.08,0,0,0,80.39,119.93Z"/><path class="cls-72" d="M75.44,122.84a27.12,27.12,0,0,0,4.22-.47c.33-.05.63-.11.93-.17,0-.33-.06-.68-.1-1-1.14.3-2.33.54-3.46.73a24.59,24.59,0,0,1-5.94.13c-.6-.05-1.22-.09-1.83-.15,0,.25,0,.49,0,.73l.72.1A38.13,38.13,0,0,0,75.44,122.84Z"/><path class="cls-72" d="M72.59,125.36c.7,0,1.43,0,2.15,0h.16c.74,0,1.48-.06,2.2-.14l1.05-.09h.35l.87-.13.06,0c.41-.2,1.24-.58,1.25-1,0-.16,0-.31,0-.47a20.05,20.05,0,0,1-4.41.79,32,32,0,0,1-6.72-.24,8.66,8.66,0,0,0,1.22,1.07.81.81,0,0,0,.44.2l1.14,0A2.08,2.08,0,0,1,72.59,125.36Z"/><path class="cls-51" d="M119.3,96.12a.19.19,0,0,0,0-.08q0-.15-.3-.3a1.65,1.65,0,0,0-.62-.18.58.58,0,0,0-.53.11.44.44,0,0,0-.16.26.18.18,0,0,0,0,.09.14.14,0,0,0,.11.06c.06,0,.11,0,.16-.12a.3.3,0,0,1,.29-.13,1.1,1.1,0,0,1,.59.18.89.89,0,0,0,.28.18.11.11,0,0,0,.12-.07"/><path class="cls-51" d="M113.6,96.27a1.21,1.21,0,0,0,.27-.17,1.1,1.1,0,0,1,.59-.18c.15,0,.25,0,.29.12s.1.13.16.13a.12.12,0,0,0,.11-.07.2.2,0,0,0,0-.08.4.4,0,0,0-.16-.26.56.56,0,0,0-.53-.12,1.6,1.6,0,0,0-.61.18c-.21.1-.31.2-.31.3a.19.19,0,0,0,0,.08A.13.13,0,0,0,113.6,96.27Z"/><path class="cls-23" d="M114.76,100.71s.51,1.67,1.74,1.71,1.73-1.6,1.73-1.6a11.16,11.16,0,0,1-1.73.26A4.78,4.78,0,0,1,114.76,100.71Z"/><path d="M115,96.57a4,4,0,0,0-.64.08,3.33,3.33,0,0,0-.61.17A.83.83,0,0,1,115,96.57Z"/><circle cx="114.39" cy="96.82" r="0.24"/><path d="M117.71,96.52a.84.84,0,0,1,1.26.25,3.42,3.42,0,0,0-.62-.17A3.85,3.85,0,0,0,117.71,96.52Z"/><circle cx="118.28" cy="96.77" r="0.24"/><text class="cls-73" transform="translate(53.12 77.81)">Cero discriminacin</text></g></g></svg>