<svg id="Capa_1" data-name="Capa 1" xmlns="http://www.w3.org/2000/svg" xmlns:xlink="http://www.w3.org/1999/xlink" viewBox="0 0 150 150"><defs><style>.cls-1{fill:none;}.cls-2{fill:#9ac0fc;}.cls-3{fill:#52914c;}.cls-4{fill:#9b7b52;}.cls-5{fill:#6db053;}.cls-6{fill:#6b4d2e;}.cls-7{fill:#6d6e6f;}.cls-8{fill:#adcffc;}.cls-9{fill:#beddfd;}.cls-10{fill:#e5e5e6;}.cls-11{fill:#b9bbbc;}.cls-12{fill:#ced0d1;}.cls-13{fill:#7f8082;}.cls-14{fill:#a4a5a8;}.cls-15{fill:#e5d3a9;}.cls-16{fill:#7e5d3f;}.cls-17{fill:#64a6dc;}.cls-18{fill:#94cbe7;}.cls-19{fill:#4674b6;}.cls-20{fill:#c9b284;}.cls-21{fill:#b6976d;}.cls-22{fill:#fff;}.cls-23{fill:#931d2d;}.cls-24{fill:#a52a41;}.cls-25{fill:#b03041;}.cls-26{fill:#424243;}.cls-27{fill:#59595b;}.cls-28{fill:#909294;}.cls-29{fill:#f6df86;}.cls-30{fill:#a22330;}.cls-31{fill:#282828;}.cls-32{fill:#dbbb5a;}.cls-33{fill:#f8e7b3;}.cls-34{fill:#2a2a2a;}.cls-35{fill:#e6ac4a;}.cls-36{clip-path:url(#clip-path);}.cls-37{opacity:0.7;}.cls-38{fill:#d4e5e9;}</style><clipPath id="clip-path"><rect class="cls-1" width="150" height="150"/></clipPath></defs><title>Mesa de trabajo 1</title><rect class="cls-2" width="150" height="150"/><path class="cls-3" d="M18.56,65.63s3-.24,4.6,1.24-.21.61-.21.61,2.38,2.35,2.2,3.08-1.27-1-1.27-1S25.69,74.4,25,75.29s-.75-2-.75-2,.68,6.67-.61,7.6-.22-3.7-.22-3.7-.45,3-1.33,3.17-.23-1.9-.23-1.9-1.08,2.56-2.2,2.5.55-2.87.55-2.87-1.51,2.3-2,1.77.78-3.26.78-3.26-.84,1.24-1.27,1.22.31-3.59.31-3.59S16,78.13,15.1,77.7s1.13-7.1,1.13-7.1-1,1.76-1.51,1.2,1.53-2.66,1.53-2.66-.75,1.25-.84,0,2.2-4,2.2-4Z"/><path class="cls-4" d="M4.21,54.12s10.9,3.66,15.53,13.6l-.75.65s-6-9.8-15.57-11.93C3.42,56.44,3.16,55.68,4.21,54.12Z"/><path class="cls-4" d="M17,64.11A4,4,0,0,1,20,63a3.65,3.65,0,0,1,2.57,2.09l-.61.34a3,3,0,0,0-2.06-1.74,3.3,3.3,0,0,0-2.41.94Z"/><path class="cls-4" d="M16.59,69.18a10,10,0,0,1,1.53-2.82l.54.43s-2.94,3.72-1.18,6.7l-.6.35A5.46,5.46,0,0,1,16.59,69.18Z"/><path class="cls-5" d="M19.72,63.19a3.54,3.54,0,0,1,2.3-.68c1.08.21.07.32.07.32s1.64.38,1.75.74-.82-.11-.82-.11,2.06,1.62,2,2.19-.84-.65-.84-.65,2,2.68,1.73,3.42-1.06-1.53-1.06-1.53.59,1.4.26,1.71-.6-.75-.6-.75.21,1.38-.29,1.65-.51-1.38-.51-1.38-.05,1.38-.38,1.27-.52-1.6-.52-1.6,0,.75-.22.85S21.76,67,21.76,67s.13,2.2-.36,2.25S20,65.93,20,65.93s.06,1-.33.91,0-1.54,0-1.54,0,.73-.37.21.44-2.32.44-2.32Z"/><path class="cls-5" d="M17,72.76a3.57,3.57,0,0,1,2.17,1c.67.88-.16.29-.16.29s1,1.37.82,1.72-.54-.63-.54-.63.46,2.57,0,3-.19-1-.19-1-.25,3.36-1,3.71.22-1.85.22-1.85-.48,1.43-.94,1.45.06-1,.06-1-.76,1.17-1.32,1,.53-1.38.53-1.38-.95,1-1.12.71.67-1.55.67-1.55-.52.54-.73.49S16,77,16,77s-1.36,1.73-1.76,1.44S15.42,75,15.42,75s-.63.78-.86.45,1-1.18,1-1.18-.49.56-.42-.09S17,72.76,17,72.76Z"/><path class="cls-4" d="M18.36,70.65a.57.57,0,0,1,0-.15.6.6,0,0,1,0-.19,2.58,2.58,0,0,1,.36-.94,6.53,6.53,0,0,1,.59-.85l.21-.26.06-.07h0l0,0s0-.05.07-.08a.43.43,0,0,1,.1-.09.36.36,0,0,1,.12-.08l.06,0H20a.26.26,0,0,1,.15,0,.55.55,0,0,1,.17.11,1.5,1.5,0,0,1,.27.34,3.2,3.2,0,0,1,.19.36c.09.22.14.38.14.38a3.13,3.13,0,0,0-.06-.4,2.83,2.83,0,0,0-.11-.41,1.93,1.93,0,0,0-.22-.46.8.8,0,0,0-.21-.2.58.58,0,0,0-.28-.12.45.45,0,0,0-.16,0l-.14,0a1,1,0,0,0-.23.08l-.18.1-.12.08-.1.08,0,0-.07.12-.18.31a8.72,8.72,0,0,0-.44,1,2.9,2.9,0,0,0-.2,1.06,1,1,0,0,0,0,.2.52.52,0,0,0,.06.15l.07.11A1.06,1.06,0,0,1,18.36,70.65Z"/><polygon class="cls-6" points="77.64 29.78 52.53 16.08 53.83 14.97 77.96 27.02 77.64 29.78"/><polygon class="cls-6" points="53.92 19.73 57.81 12.7 58.31 12.81 54.45 20.45 53.92 19.73"/><polygon class="cls-6" points="56.81 20.99 59.92 14.4 60.55 14.55 57.87 21.24 56.81 20.99"/><path class="cls-7" d="M57.9,12.66l-.18.07s-2.15-4.82-6.21-4.25c-2.18.31-3,2-3.73,3.62-.67,1.46-1.31,2.83-2.88,3.11A2.43,2.43,0,0,1,43,14.78C41.19,13.49,40.6,10,40.57,9.85l.2,0s.6,3.56,2.36,4.8a2.25,2.25,0,0,0,1.74.39c1.46-.26,2.08-1.59,2.73-3,.78-1.68,1.59-3.41,3.88-3.73C55.69,7.69,57.88,12.61,57.9,12.66Z"/><path class="cls-7" d="M54,19.78c-.29.41-7,10-9.88,9.45-1.09-.21-1.47-1.61-1-3.85.53-2.79,2.14-6,3.27-5.8,1.81.34,1.06,4.76,1,5l-.19,0c0-.05.76-4.42-.86-4.73-.91-.17-2.5,2.79-3,5.65-.19,1-.48,3.35.89,3.61,2.79.54,9.6-9.26,9.67-9.36Z"/><path class="cls-7" d="M67.35,12.11a1.74,1.74,0,0,1-.13.36,1.28,1.28,0,0,1-.79.77c-.53.12-1.09-.31-1.68-.76A3.6,3.6,0,0,0,63,11.57c-1.54-.1-3,2.85-3,2.88l-.18-.09c.06-.13,1.53-3.1,3.2-3a3.63,3.63,0,0,1,1.84,1c.56.42,1.08.82,1.51.72.25,0,.47-.27.67-.66.56-1.11-.47-2.87-1.71-4-.93-.81-2.23-1.46-3.1-.86l-.11-.16c1-.66,2.36,0,3.34.87C66.65,9.3,67.63,10.92,67.35,12.11Z"/><path class="cls-7" d="M57.18,26.77a1,1,0,0,1-.42.55,22.87,22.87,0,0,0-2.07,1.81c-1.49,1.4-2.42,2.25-2.83,2.07-.12-.05-.18-.18-.18-.37h.2c0,.06,0,.17.06.19.31.13,1.59-1.07,2.61-2a22,22,0,0,1,2.1-1.83A.74.74,0,0,0,57,26.7c.06-.34-.24-.76-.59-1.24-.63-.86-1.49-2.05-.8-3.65s.9-1.65,1.08-1.61.24.58.23.8h-.2a1,1,0,0,0-.08-.59s-.23,0-.85,1.48.14,2.59.78,3.47c.37.51.7,1,.63,1.38Z"/><path class="cls-8" d="M90.63,122c12-7.89,18.91.94,18.91.94s-1.83-3-1.34-8.79,9.61-6.75,9.61-6.75-4-6.56,2.26-12.73S135.5,98.5,135.5,98.5s-3.76-4,1.19-13.56A14.83,14.83,0,0,1,150,76.53V150H101.48l-.08,0C79.64,145.42,78.6,129.9,90.63,122Z"/><path class="cls-9" d="M124.93,134.72s.21-9.07-7.59-10.41-11.89,1.24-11.89,1.24S99,113.1,87.07,110.07s-23.94,3.19-25.75,6.42c0,0-3.66-16.81-17.73-16.81s-30.88,8.34-27.88,35Z"/><path class="cls-8" d="M59.37,122c-12-7.89-18.91.94-18.91.94s1.83-3,1.34-8.79-9.61-6.75-9.61-6.75,4-6.56-2.27-12.73S14.5,98.5,14.5,98.5s3.76-4-1.19-13.56A14.83,14.83,0,0,0,0,76.53V150H48.52l.08,0C70.36,145.42,71.4,129.9,59.37,122Z"/><path class="cls-3" d="M74.43,114.17s-1.19-2.75-.31-4.75.64,0,.64,0,1.46-3,2.21-3.07-.58,1.54-.58,1.54,4-3.29,5.12-2.89-1.63,1.35-1.63,1.35,6.1-2.8,7.39-1.88-3.42,1.4-3.42,1.4,3-.53,3.42.24-1.72.83-1.72.83,2.77.19,3.07,1.28-2.9.4-2.9.4,2.67.69,2.31,1.28-3.34.31-3.34.31,1.45.4,1.57.81-3.5.87-3.5.87,4.33.7,4.21,1.67-7.09,1.22-7.09,1.22,2,.33,1.63,1-3-.59-3-.59,1.43.31.24.81-4.47-.81-4.47-.81Z"/><path class="cls-4" d="M68.16,131.47s0-11.5,7.86-19.09l.86.5s-7.33,8.88-6.28,18.59C70.6,131.47,70,132,68.16,131.47Z"/><path class="cls-4" d="M73.5,116.15a4,4,0,0,1-2-2.47,3.6,3.6,0,0,1,1.15-3.11l.52.47a3,3,0,0,0-1,2.51,3.3,3.3,0,0,0,1.67,2Z"/><path class="cls-4" d="M78.42,114.89a10.19,10.19,0,0,1-3.17-.53l.24-.66c.05,0,4.47,1.59,6.72-1l.53.45A5.47,5.47,0,0,1,78.42,114.89Z"/><path class="cls-5" d="M71.74,113.87a3.55,3.55,0,0,1-1.38-2c-.15-1.09.28-.17.28-.17s-.17-1.68.14-1.9.15.81.15.81.87-2.47,1.44-2.58-.35,1-.35,1,1.88-2.8,2.68-2.75-1.1,1.5-1.1,1.5,1.13-1,1.53-.8-.52.81-.52.81,1.24-.64,1.66-.26-1.14.94-1.14.94,1.32-.41,1.32-.06-1.35,1-1.35,1,.73-.21.89-.06-1.28,1.29-1.28,1.29,2-.84,2.25-.39-2.72,2.38-2.72,2.38.93-.37,1,0-1.45.54-1.45.54.69-.24.32.28-2.34.34-2.34.34Z"/><path class="cls-5" d="M81.68,113.34a3.53,3.53,0,0,1,.26-2.38c.62-.91.32.06.32.06s1-1.36,1.37-1.33-.42.71-.42.71,2.28-1.27,2.78-1-.92.52-.92.52,3.26-.85,3.82-.27-1.82.39-1.82.39,1.52,0,1.68.42-.93.25-.93.25,1.36.35,1.41.91-1.47-.06-1.47-.06,1.26.58,1,.84-1.68-.14-1.68-.14.68.32.7.54S86,113,86,113s2.08.73,1.94,1.2-3.62,0-3.62,0,1,.34.71.66-1.43-.56-1.43-.56.67.28,0,.43-2-1.31-2-1.31Z"/><path class="cls-4" d="M79.24,112.75l-.13.07a.48.48,0,0,1-.18.06,2.34,2.34,0,0,1-1,0,6,6,0,0,1-1-.28l-.32-.12-.08,0h0l-.06,0-.1,0-.12-.06-.11-.09,0-.06s0,0,0-.06a.33.33,0,0,1,0-.15.49.49,0,0,1,0-.19,1.43,1.43,0,0,1,.23-.37,4,4,0,0,1,.29-.29l.31-.26-.36.19a4.18,4.18,0,0,0-.36.23,2,2,0,0,0-.36.36.77.77,0,0,0-.12.26.65.65,0,0,0,0,.31.37.37,0,0,0,0,.15l.06.13a.77.77,0,0,0,.16.19l.14.13.12.09.11.07h0l.14,0,.35.07a7.81,7.81,0,0,0,1.08.1A2.54,2.54,0,0,0,79,113l.18-.09a.38.38,0,0,0,.11-.11.44.44,0,0,0,.08-.1A.61.61,0,0,1,79.24,112.75Z"/><path class="cls-10" d="M117.28,93.92s0,0,0,0,0,0,0,0a.69.69,0,0,1-.17.18,4,4,0,0,1-.61.38,10.37,10.37,0,0,1-1.39.53c-.9.28-1.68.45-2.23.57l-.63.13-.22,0,.34,1.62.24-.06.66-.19c.57-.17,1.37-.41,2.32-.79a12.31,12.31,0,0,0,1.52-.74,4.6,4.6,0,0,0,.82-.6,2.12,2.12,0,0,0,.38-.51,1.42,1.42,0,0,0,.08-.18,1.29,1.29,0,0,0,0-.21s0-.07,0-.11a.66.66,0,0,0,0-.14.66.66,0,0,0,0-.14v-.09l0-.11h0c0-.13,0,0,0-.08v0l0,0-.06-.1a1.3,1.3,0,0,0-.28-.29,2.2,2.2,0,0,0-.54-.29,5.36,5.36,0,0,0-1-.26,15.39,15.39,0,0,0-2-.16c-1.34,0-2.65,0-3.89.14s-2.37.22-3.35.34c-2,.25-3.24.51-3.24.51s1.31-.16,3.27-.25c1-.05,2.12-.08,3.34-.08s2.53,0,3.82.17a13.62,13.62,0,0,1,1.86.3,4.06,4.06,0,0,1,.81.26,1.16,1.16,0,0,1,.27.17l0,0,0,.09v0h0a0,0,0,0,1,0,0v0Z"/><path class="cls-10" d="M127.86,76.77a11.55,11.55,0,0,0-2.41-.79,27.5,27.5,0,0,0-3-.43c-2.13-.2-4.53-.31-7.16-.35s-5.47,0-8.48.15c-1.5.08-3,.19-4.63.37-.79.09-1.59.2-2.39.35a11.93,11.93,0,0,0-2.44.69,2.7,2.7,0,0,0-.63.39l-.16.15,0,.06,0,0,0,.07-.1.13-.1.18a1.83,1.83,0,0,0,0,1.6,3.53,3.53,0,0,0,.87,1.15,7.42,7.42,0,0,0,1.09.8,21.76,21.76,0,0,0,4.66,2.06l-1,.13a23.87,23.87,0,0,0-3.76.8,7.2,7.2,0,0,0-.88.33c-.15.06-.3.14-.44.21l-.22.13c-.07,0-.16.1-.23.16l-.09.07-.09.06,0,0,0,0h0l-.06.06a.87.87,0,0,0-.12.14,1.22,1.22,0,0,0-.23.46,1,1,0,0,0,0,.38.86.86,0,0,0,.13.34,1.19,1.19,0,0,0,.34.36l.29.16a4,4,0,0,0,.48.17,11.5,11.5,0,0,0,1.59.27l1.38.1c.86,0,1.6,0,2.21,0l1.43,0h.5l-.08-1.69-.49,0-1.38.06c-.6,0-1.32,0-2.15,0-.41,0-.84,0-1.3,0A10.57,10.57,0,0,1,97.45,86l.3-.16c.23-.11.48-.21.74-.31a22.9,22.9,0,0,1,3.52-.89c1.12-.2,2.28-.37,3.47-.52h0c.87.22,1.71.4,2.57.58l5.12,1.07c1.7.37,3.39.76,5,1.24a20.47,20.47,0,0,1,2.36.83,7.64,7.64,0,0,1,1,.54l.21.15.17.15h0l-.09,0a7.66,7.66,0,0,1-1.1.28c-.8.16-1.62.26-2.45.35-1.65.18-3.31.3-4.94.42-3.26.23-6.43.44-9.45.76-1.51.17-3,.36-4.41.61a23.85,23.85,0,0,0-4.17,1.07,7.54,7.54,0,0,0-2,1.08,3.46,3.46,0,0,0-.91,1l-.1.17,0,.09-.06.15L92.2,95l0,.11,0,.14c0,.13-.05.27-.08.4a3.08,3.08,0,0,0,.17,1.51,4.69,4.69,0,0,0,.35.63,4.31,4.31,0,0,0,.43.5,5.34,5.34,0,0,0,1.28.88c-.38.08-.75.16-1.11.26a11,11,0,0,0-2.19.78,3.27,3.27,0,0,0-.56.33,2.27,2.27,0,0,0-.58.58,1.28,1.28,0,0,0-.2.57,1.11,1.11,0,0,0,.11.68,1.62,1.62,0,0,0,.64.71,4.59,4.59,0,0,0,1.14.53c.37.12.72.2,1.07.28l.51.1.15,0,.12,0,.24,0,1,.15c.76.14,1.51.24,2.24.33a33.36,33.36,0,0,0-3.3.68,12.67,12.67,0,0,0-1.58.52,5.28,5.28,0,0,0-1.58,1,2.37,2.37,0,0,0-.63,1,1.86,1.86,0,0,0-.1.61v.08s0,.1,0,.1v.12l0,.19a3,3,0,0,0,1,1.78,5.64,5.64,0,0,0,1.54.9,12.08,12.08,0,0,0,1.58.51c1,.27,2.09.46,3.1.64a28.37,28.37,0,0,1,2.95.65,5.63,5.63,0,0,1,1.27.53,1.27,1.27,0,0,1,.66.83v.05h0v.26c0,.08,0,.15,0,.24a1.3,1.3,0,0,1-.26.49,3.54,3.54,0,0,1-1,.8,17.15,17.15,0,0,1-2.5,1,23.91,23.91,0,0,0-4.74,2,5.73,5.73,0,0,0-.94.75,3.19,3.19,0,0,0-.66,1,1.94,1.94,0,0,0-.12,1.13,2.49,2.49,0,0,0,.42,1,5.88,5.88,0,0,0,1.27,1.31,13,13,0,0,0,1.27.86,16.44,16.44,0,0,0,1.89,1c.45.21.7.3.7.3s-.24-.1-.68-.32-1.08-.57-1.85-1.07a12.15,12.15,0,0,1-1.21-.9,5.51,5.51,0,0,1-1.17-1.31,2.23,2.23,0,0,1-.35-.86,1.66,1.66,0,0,1,.13-.93,3.77,3.77,0,0,1,1.53-1.48,23.13,23.13,0,0,1,4.71-1.74,16.63,16.63,0,0,0,2.66-1,4.35,4.35,0,0,0,1.28-.94,2.25,2.25,0,0,0,.44-.77,1.78,1.78,0,0,0,.1-.48v-.43a1.81,1.81,0,0,0-.36-.89,3.52,3.52,0,0,0-.31-.35l-.35-.27a6.64,6.64,0,0,0-1.48-.7c-1-.34-2-.56-3-.8s-2-.45-3-.74a12.08,12.08,0,0,1-1.39-.52,4.34,4.34,0,0,1-1.15-.72,1.64,1.64,0,0,1-.51-.9l0-.2v-.07h0v0a.83.83,0,0,1,0-.15,1,1,0,0,1,.25-.33,3.86,3.86,0,0,1,1.13-.59,12,12,0,0,1,1.4-.4,49.62,49.62,0,0,1,5.91-.8c2-.18,3.85-.33,5.67-.51a46.49,46.49,0,0,0,5.17-.76,13.64,13.64,0,0,0,2.36-.7,7.36,7.36,0,0,0,1.15-.59,5.3,5.3,0,0,0,.55-.44c.09-.09.21-.21.3-.32l.16-.2s.09-.13.06-.08v0l0-.05.06-.11a1.33,1.33,0,0,0,.11-.24,2,2,0,0,0,.14-.59,2.11,2.11,0,0,0,0-.66,2.53,2.53,0,0,0-.24-.55,3.31,3.31,0,0,0-.3-.39l-.29-.27a5.32,5.32,0,0,0-.53-.35,7.92,7.92,0,0,0-1.22-.53l1,0a20.28,20.28,0,0,1,5.3.68c.6.2,1.06.5,1.16.84a.58.58,0,0,1,0,.38.86.86,0,0,1-.07.12.86.86,0,0,0,.07-.12.56.56,0,0,0,0-.39,1.06,1.06,0,0,0-.39-.51,3.24,3.24,0,0,0-.77-.42,19.89,19.89,0,0,0-5.31-.94c-.94-.08-2-.13-3-.17l-.72-.13-.6-.09-.21,0,0,.2c-1,0-2,0-3,0h-1v-.2l-.29,0-.91,0c-.79,0-2,0-3.44,0-.74,0-1.55-.11-2.41-.23a12.85,12.85,0,0,1-2.61-.62,3.25,3.25,0,0,1-1-.57.57.57,0,0,1-.25-.49s0,0,0,0,0,0,0-.08l0-.11.06-.19v0a1.66,1.66,0,0,1,.31-.35,5.06,5.06,0,0,1,1.36-.75,21.52,21.52,0,0,1,3.72-1c1.35-.27,2.77-.49,4.24-.69,3-.39,6.1-.68,9.36-1,1.64-.16,3.3-.33,5-.55.85-.12,1.7-.24,2.58-.44a7.92,7.92,0,0,0,1.36-.4,2.54,2.54,0,0,0,.81-.46l.11-.11.12-.15a1.2,1.2,0,0,0,.22-.54c0-.07,0,0,0-.07v-.08s0-.31,0-.21c0-.1,0-.2-.07-.3a2,2,0,0,0-.26-.5,3.65,3.65,0,0,0-.31-.36l-.32-.27-.32-.22a8.59,8.59,0,0,0-1.29-.64,21.24,21.24,0,0,0-2.56-.84c-1.72-.46-3.44-.81-5.17-1.14l-3.81-.69.36,0c2.74-.21,5.5-.32,8.09-.35,1.29,0,2.54,0,3.73,0a30.55,30.55,0,0,1,3.32.23c.25,0,.5.09.73.15a2,2,0,0,1,.63.25c.09.06.14.13.13.19a.36.36,0,0,1-.15.21,2.29,2.29,0,0,1-.55.31,11,11,0,0,1-2.07.63c-.59.13-1.06.21-1.38.26l-.49.06.5,0c.32,0,.79-.1,1.39-.2a12.26,12.26,0,0,0,2.12-.56,2.79,2.79,0,0,0,.59-.31.65.65,0,0,0,.24-.33.4.4,0,0,0,0-.24.71.71,0,0,0-.15-.15,2.09,2.09,0,0,0-.7-.31,5.87,5.87,0,0,0-.75-.18,27.72,27.72,0,0,0-3.34-.37c-1.19-.08-2.45-.13-3.75-.17-2.6-.07-5.37-.06-8.14,0-1.3.05-2.59.11-3.86.21l-.32-.07c-.84-.19-1.66-.41-2.47-.65a21.61,21.61,0,0,1-4.61-1.87,7.51,7.51,0,0,1-1-.68,2.43,2.43,0,0,1-.66-.8.86.86,0,0,1-.09-.4.65.65,0,0,1,0-.2c0-.07,0-.15.07-.2l0-.09a1.25,1.25,0,0,0,.08-.12l.05-.06,0,0h0l.06-.07a2,2,0,0,1,.42-.26,10.43,10.43,0,0,1,2.22-.68c.77-.16,1.55-.29,2.33-.4,1.55-.22,3.08-.37,4.57-.48,3-.23,5.82-.33,8.44-.36s5,0,7.14.17a27.16,27.16,0,0,1,3,.35,11.51,11.51,0,0,1,2.4.72,1.65,1.65,0,0,1,.82.62.42.42,0,0,1,0,.43,1,1,0,0,1-.32.31,4.83,4.83,0,0,1-1.37.59c-.39.11-.7.17-.91.21l-.32,0,.32,0a8.87,8.87,0,0,0,.92-.18,5,5,0,0,0,1.4-.56,1.21,1.21,0,0,0,.35-.33.54.54,0,0,0,0-.51A1.84,1.84,0,0,0,127.86,76.77ZM96.68,100c.44.1.86.18,1.26.25,1,.16,1.84.25,2.63.32,1.58.12,2.81.14,3.65.14h1.31l-.09-1.79.94-.06c1-.06,2-.1,3-.13l-.19,2h.17l.52.06a14.26,14.26,0,0,1,1.94.34,5.9,5.9,0,0,1,1,.31h0a4,4,0,0,1-.7.41,12.53,12.53,0,0,1-1.94.66,43.2,43.2,0,0,1-4.48.85l-.06-.7-.49,0c-.33,0-.83.06-1.46.09s-1.4,0-2.29,0-1.89,0-3-.08-2.25-.14-3.53-.3l-1-.1-.24,0h-.13l-.1,0-.46-.07A8.62,8.62,0,0,1,92,102a4,4,0,0,1-.67-.24,2.88,2.88,0,0,1,.34-.23,10.28,10.28,0,0,1,1.87-.76A28.07,28.07,0,0,1,96.68,100Z"/><path class="cls-10" d="M131,70.23l0-.19v0c0-.23,0-.07,0-.13v0l0-.09a1,1,0,0,0-.07-.18,2.33,2.33,0,0,0-.38-.54,3.29,3.29,0,0,0-.84-.63,8.25,8.25,0,0,0-1.64-.7,25.73,25.73,0,0,0-3.29-.78c-2.21-.38-4.41-.61-6.48-.78s-4-.25-5.64-.3c-3-.08-5,0-5.43,0l-1.42,0c-.75,0-1.66-.1-2.7-.2s-2.21-.25-3.49-.41-2.62-.4-4.1-.73l-1.12-.22L94,64.18l-.14,0-.11,0L93.2,64c-.36-.09-.71-.2-1-.32a4.5,4.5,0,0,1-.76-.36c.13-.08.27-.15.43-.23a12.62,12.62,0,0,1,2.27-.69,39.27,39.27,0,0,1,5.06-.7,89.67,89.67,0,0,1,10.19-.2c3.26.12,6.31.31,8.9.63a23.21,23.21,0,0,1,6.14,1.35c.68.3,1.19.7,1.27,1.11a.7.7,0,0,1-.06.44.49.49,0,0,1-.1.13.33.33,0,0,0,.1-.12.61.61,0,0,0,.09-.46,1.14,1.14,0,0,0-.39-.64,3.89,3.89,0,0,0-.86-.57,23.79,23.79,0,0,0-6.12-1.67c-2.6-.45-5.64-.8-8.92-1.08a94.16,94.16,0,0,0-10.32-.32,41.09,41.09,0,0,0-5.3.48,13.64,13.64,0,0,0-2.64.67,7.21,7.21,0,0,0-.69.33,2.68,2.68,0,0,0-.74.62,1.71,1.71,0,0,0-.31.65,1.51,1.51,0,0,0,.06.82,2.07,2.07,0,0,0,.67.89,5.62,5.62,0,0,0,1.29.74c.42.18.82.32,1.22.45l.6.17.16,0,.14,0,.28.07,1.11.28c1.44.39,2.88.67,4.19,1s2.51.47,3.58.61,2,.26,2.8.35,1.39.12,1.82.14l.68,0V65.9c.94,0,2.53.16,4.52.38,1.63.18,3.54.42,5.57.74s4.18.72,6.28,1.26a26,26,0,0,1,3,1,8,8,0,0,1,1.28.66,2.11,2.11,0,0,1,.4.35l0,0v.19s0,0,0,0,0,0,0,0a.06.06,0,0,1,0,0s0,0,0,0l0,0,0,0a1.57,1.57,0,0,1-.34.25,5.36,5.36,0,0,1-1.11.46,17.11,17.11,0,0,1-2.43.53c-1.57.23-2.91.32-3.85.37l-1.08,0h-.37l.14,2.79.42,0,1.14-.13c1-.14,2.37-.34,4-.73a17.69,17.69,0,0,0,2.71-.82,6.88,6.88,0,0,0,1.51-.79,3.4,3.4,0,0,0,.78-.75l.17-.27c0-.1.09-.22.14-.33a1.21,1.21,0,0,0,.05-.18l0-.24a1.77,1.77,0,0,0,0-.23v-.16Z"/><path class="cls-10" d="M133.2,56.18a1.19,1.19,0,0,0-.24-.36,4.79,4.79,0,0,0-1.31-.86c-.48-.23-1-.43-1.47-.62a63.67,63.67,0,0,0-6.66-1.83c-2.38-.55-4.9-1.07-7.52-1.56-1.69-.32-3.42-.62-5.17-.92l.62-.09c.4-.06,1-.15,1.74-.3s1.64-.34,2.67-.62a22.72,22.72,0,0,0,3.46-1.22,9.68,9.68,0,0,0,2-1.18,5.49,5.49,0,0,0,1-1,3.61,3.61,0,0,0,.66-1.57,3.42,3.42,0,0,0-.22-1.73,5.07,5.07,0,0,0-.77-1.29,7.72,7.72,0,0,0-.93-1c-.16-.15-.33-.29-.51-.43s-.32-.24-.48-.36A17.75,17.75,0,0,0,115.4,37a38,38,0,0,0-4.93-1.3,78.87,78.87,0,0,0-9.8-1.24c-3.14-.22-6.06-.3-8.57-.32-5,0-8.34.17-8.34.17s3.34,0,8.32.38c2.49.18,5.39.44,8.48.87a75.1,75.1,0,0,1,9.51,1.84,35.43,35.43,0,0,1,4.6,1.53,16,16,0,0,1,3.87,2.21c.14.13.32.26.43.37s.24.22.35.34a4.87,4.87,0,0,1,.61.72,2.3,2.3,0,0,1,.33.64.64.64,0,0,1,0,.4,1.14,1.14,0,0,1-.21.35,3.11,3.11,0,0,1-.49.42,7.36,7.36,0,0,1-1.43.72,18.77,18.77,0,0,1-3,.84c-.95.19-1.79.32-2.48.41s-1.25.14-1.62.17l-.55,0,.33,3.46c-3.69-.62-7.49-1.18-11.32-1.66-2.91-.36-5.84-.67-8.73-.91l-.06-3-.76,0-2.23,0c-1.92,0-4.67-.06-7.94-.38a51.8,51.8,0,0,1-5.22-.76,23.7,23.7,0,0,1-5.45-1.7,8.45,8.45,0,0,1-2.31-1.56,3.7,3.7,0,0,1-1.15-2.2,4.73,4.73,0,0,1,.06-1.36,3.9,3.9,0,0,1,.47-1.27A4.78,4.78,0,0,1,67,34.12c.17-.18.37-.34.55-.5s.4-.32.62-.45A13,13,0,0,1,71,31.76a26.9,26.9,0,0,1,3.09-.94,48.14,48.14,0,0,1,6.29-1c2.07-.22,4.08-.33,6-.39s3.73-.07,5.4,0c3.35.05,6.14.21,8.09.34s3.06.26,3.06.26-1.1-.17-3.05-.41-4.72-.52-8.08-.74c-1.67-.1-3.49-.18-5.42-.22s-4,0-6.08.1a48.13,48.13,0,0,0-6.5.74,26.7,26.7,0,0,0-3.31.83,14.89,14.89,0,0,0-3.23,1.43c-.26.15-.51.33-.76.5a8.48,8.48,0,0,0-.72.6,6.45,6.45,0,0,0-2.2,5.2,5.77,5.77,0,0,0,1.59,3.59A10.4,10.4,0,0,0,68,43.74,26.05,26.05,0,0,0,74,45.94,53.21,53.21,0,0,0,79.41,47l.34.05a40.51,40.51,0,0,0-4.84.38,18.48,18.48,0,0,0-1.91.39c-.31.08-.63.18-1,.29l-.48.18-.53.25-.21.11-.18.1-.05,0-.08.05,0,0-.14.09a2.82,2.82,0,0,0-.29.24,2.37,2.37,0,0,0-.61.87,1.82,1.82,0,0,0-.14.75,2.12,2.12,0,0,0,.15.74,2.43,2.43,0,0,0,.59.83,4.17,4.17,0,0,0,.52.42,6.54,6.54,0,0,0,.91.5,20.75,20.75,0,0,0,3.14,1.06c1,.26,1.9.47,2.76.66,1.73.36,3.23.62,4.47.82s2.22.35,2.89.44l1,.14L86.14,53l-1-.1c-.65-.07-1.61-.17-2.82-.33s-2.69-.35-4.36-.64c-.83-.15-1.71-.31-2.61-.52a19,19,0,0,1-2.27-.64c.22-.08.43-.16.67-.23.5-.15,1-.28,1.61-.39a46.23,46.23,0,0,1,7.41-.65,158.88,158.88,0,0,1,16.53.66c5.63.48,11.25,1.15,16.5,1.93,2.63.38,5.16.8,7.55,1.25A63.86,63.86,0,0,1,130,54.87c.5.16,1,.34,1.44.53a4.66,4.66,0,0,1,1.2.72c.16.15.24.31.2.42a.77.77,0,0,1-.38.38,4.73,4.73,0,0,1-1.2.46,24.34,24.34,0,0,1-4.4.6c-1.24.07-2.22.07-2.88.06l-1,0,1,.07c.66,0,1.64.07,2.88.05a24.46,24.46,0,0,0,4.47-.43,5.39,5.39,0,0,0,1.32-.44,1.19,1.19,0,0,0,.58-.59A.69.69,0,0,0,133.2,56.18Z"/><path class="cls-10" d="M67.35,16.21a11.09,11.09,0,0,0,2.77,2.09,32.3,32.3,0,0,0,5.4,2.31c1.7.57,3.26,1,4.66,1.37s2.62.64,3.63.86,1.8.37,2.35.48l.85.15.5-3.45-.79-.1-2.29-.35c-1-.17-2.17-.38-3.53-.67s-2.88-.63-4.5-1.1a28.44,28.44,0,0,1-5-1.86,8.74,8.74,0,0,1-2.19-1.47,2.43,2.43,0,0,1-.6-.85,1.24,1.24,0,0,1,0-.83,4.74,4.74,0,0,1,1.6-2l.14-.12.16-.12.34-.26.63-.41a15.49,15.49,0,0,1,1.39-.77,24.52,24.52,0,0,1,6.35-1.92,51.61,51.61,0,0,1,6.78-.71c2.26-.09,4.49-.07,6.65,0,4.33.16,8.36.58,11.81,1s6.3.92,8.3,1.28,3.13.62,3.13.62-1.12-.3-3.1-.76S107.91,7.56,104.48,7,97,5.74,92.66,5.37a66.06,66.06,0,0,0-13.76.09A26,26,0,0,0,72,7.22,14.68,14.68,0,0,0,70.32,8l-.39.23-.2.12-.1,0,0,0,0,0,0,0-.35.23L69,8.86,68.8,9a9.93,9.93,0,0,0-1.42,1.26,5.4,5.4,0,0,0-1.09,1.79,3.51,3.51,0,0,0-.21,1.17,3.59,3.59,0,0,0,.18,1.18A4.93,4.93,0,0,0,67.35,16.21Z"/><path class="cls-11" d="M73.24,10.4a50.62,50.62,0,0,0-5.81,17.42c-1.16,9.52,4.65,20.2,16.49,28.1S104.13,75.2,99,88s-12.5,27.17,1.53,46c0,0-6.64-12.54-1.07-21.6s27.87-22.07,25.32-42.17c-2.07-16.3-13.74-21.33-9.29-34.94,3.94-12.08,18.58-15.33,18.58-15.33S95.77,2.27,73.24,10.4Z"/><path class="cls-12" d="M75.09,11.56s16.2-5.34,50.6,7.9c0,0-15.7-5.37-25-4.48,0,0,14.73,3.94,18.33,8.49,0,0-15.36-3.55-25.81-1.46,0,0,15.51,1.77,22.62,6.58,0,0-30.28-7.36-44,0,0,0,.7-2.4,5.11-4a12.46,12.46,0,0,0-7.65.93A10.6,10.6,0,0,1,76,20.15s-1.65-.86-5.34-.61C70.68,19.54,72.73,13.92,75.09,11.56Z"/><path class="cls-12" d="M115.83,70.19s4.55-.61,6.18,0c0,0-2.05-8.08-5.62-13.07-4.16,0-13.77.12-20.27,1.26,10.17,7.57,6.58,15.43,6.58,15.43s7.51-2.76,20.26.71C123,74.52,122.42,71.91,115.83,70.19Z"/><path class="cls-12" d="M115.83,56.39c-.55-.69-1.13-1.45-1.71-2.25a78.16,78.16,0,0,0-14.06-1.55s6.91-2,11.86-1.7a41.5,41.5,0,0,1-2.61-4.84,29.58,29.58,0,0,0-5.43-2.22,29.78,29.78,0,0,1,4.48-.25,15.28,15.28,0,0,1-.43-1.71c-8.27-4.39-18.31-5.66-18.31-5.66a37.32,37.32,0,0,1,15,1.07,54.91,54.91,0,0,0-31.88-2.09A12.51,12.51,0,0,0,74,40.93c8.66-2.64,24.47.17,24.47.17-13.5-.32-20,.89-23.14,2.3,2.38,3.75,7,8.15,15.67,11.82a21.37,21.37,0,0,1,3,1.72c4.42-.56,11.37-.74,22.28,0Z"/><path class="cls-12" d="M95.78,121.42c-.11-.69-.18-1.35-.23-2l-.74.16A5.47,5.47,0,0,0,95.78,121.42Z"/><path class="cls-12" d="M96.89,110.57a26.7,26.7,0,0,1,4.32-7.26c-2,.38-4.1.8-6,1.31a47.39,47.39,0,0,0-1.07,6.57c.68-.17,1.37-.32,2.07-.47Z"/><path class="cls-12" d="M107.76,85.81c-2-.1-3.91-.14-5.54-.15A98,98,0,0,0,98,95.19c2.78-.42,5.42-.73,7.87-1q2.91-.26,5.43-.36A37,37,0,0,0,117.13,87a23.61,23.61,0,0,0-3-.61C112,86.1,109.81,85.93,107.76,85.81Z"/><path class="cls-12" d="M102.44,85.2c1.58-.11,3.39-.22,5.33-.27s4.29-.05,6.52.1a25.73,25.73,0,0,1,3.36.43l.44.1a54.6,54.6,0,0,0,3.75-7c-3.49-3.44-18.48-2.27-18.48-2.27C104.77,79.62,104.07,81.79,102.44,85.2Z"/><path class="cls-12" d="M97.75,95.88c-.54,1.53-1.09,3.22-1.63,5.1-.24.85-.46,1.65-.65,2.44,1.91-.41,3.89-.73,5.88-1l.71-.09a61.29,61.29,0,0,1,8.12-7.48c.26-.2.51-.41.75-.62-1.56.1-3.24.26-5,.46C103.37,95,100.63,95.36,97.75,95.88Z"/><path class="cls-12" d="M96.13,112.93c-.73.18-1.44.37-2.14.56a19.26,19.26,0,0,0,.53,5.13l1-.16A20.31,20.31,0,0,1,96.13,112.93Z"/><path class="cls-10" d="M138.75,27.24a1.09,1.09,0,0,0-.31-.49l0-.05-.06-.05-.08-.07-.16-.14c-.1-.09-.23-.18-.35-.28a20,20,0,0,0-3.17-1.86,68.86,68.86,0,0,0-7.27-2.95c-2.57-.89-5.25-1.72-8-2.49s-5.55-1.49-8.37-2.14c-5.65-1.3-11.36-2.34-16.76-3a89.38,89.38,0,0,0-15-.8,33.74,33.74,0,0,0-6.13.8,17.32,17.32,0,0,0-2.58.82,10.84,10.84,0,0,0-2.16,1.18c-.16.1-.31.24-.46.35a4.89,4.89,0,0,0-.41.37,6.3,6.3,0,0,0-.7.79l-.28.38c-1.28,2.08,2.41,3.22,2.41,3.22l.26-.91a3.34,3.34,0,0,1,1.17-1.53,8,8,0,0,1,1.47-.87,14.94,14.94,0,0,1,2.07-.74,31.44,31.44,0,0,1,5.53-.93,86.52,86.52,0,0,1,14.52.24c5.34.48,11,1.29,16.66,2.37,2.81.54,5.62,1.14,8.37,1.8s5.43,1.38,8,2.17A66.36,66.36,0,0,1,134.23,25a18.68,18.68,0,0,1,3.11,1.67,3.69,3.69,0,0,1,.34.25l.17.13.08.07,0,0,0,0a.5.5,0,0,1,.16.21c0,.05,0,.07,0,.14a1.43,1.43,0,0,1-.55.38,5.7,5.7,0,0,1-.73.25,17.34,17.34,0,0,1-3,.5c-1,.08-1.91.12-2.78.13a42.35,42.35,0,0,1-4.53-.19c-1.26-.13-2.24-.28-2.9-.4l-1-.2,1,.24c.66.14,1.64.33,2.89.5a42.69,42.69,0,0,0,4.54.37q1.32,0,2.82,0a17.51,17.51,0,0,0,3.11-.39,6.61,6.61,0,0,0,.83-.26,1.83,1.83,0,0,0,.81-.55.64.64,0,0,0,.14-.3A.63.63,0,0,0,138.75,27.24Z"/><path class="cls-10" d="M66.17,35.24A4.78,4.78,0,0,1,67,34.12c.17-.18.37-.34.55-.5s.4-.32.62-.45A13,13,0,0,1,71,31.76a26.9,26.9,0,0,1,3.09-.94,48.14,48.14,0,0,1,6.29-1c2.07-.22,4.08-.33,6-.39s3.73-.07,5.4,0c3.35.05,6.14.21,8.09.34s3.06.26,3.06.26-1.1-.17-3.05-.41-4.72-.52-8.08-.74c-1.67-.1-3.49-.18-5.42-.22s-4,0-6.08.1a48.13,48.13,0,0,0-6.5.74,26.7,26.7,0,0,0-3.31.83,14.89,14.89,0,0,0-3.23,1.43c-.26.15-.51.33-.76.5a8.48,8.48,0,0,0-.72.6,6.45,6.45,0,0,0-2.2,5.2,5.77,5.77,0,0,0,1.59,3.59A10.4,10.4,0,0,0,68,43.74l.18.09v-2.7a7.15,7.15,0,0,1-1.4-1.06,3.7,3.7,0,0,1-1.15-2.2,4.73,4.73,0,0,1,.06-1.36A3.9,3.9,0,0,1,66.17,35.24Z"/><path class="cls-10" d="M120.08,44a3.11,3.11,0,0,1-.49.42,6.24,6.24,0,0,1-.89.49v3.2l.62-.27a9.68,9.68,0,0,0,2-1.18,5.49,5.49,0,0,0,1-1,3.61,3.61,0,0,0,.66-1.57,3.42,3.42,0,0,0-.22-1.73,5.07,5.07,0,0,0-.77-1.29,7.72,7.72,0,0,0-.93-1c-.16-.15-.33-.29-.51-.43s-.32-.24-.48-.36A17.75,17.75,0,0,0,115.4,37a38,38,0,0,0-4.93-1.3,78.87,78.87,0,0,0-9.8-1.24c-3.14-.22-6.06-.3-8.57-.32-5,0-8.34.17-8.34.17s3.34,0,8.32.38c2.49.18,5.39.44,8.48.87a75.1,75.1,0,0,1,9.51,1.84,35.43,35.43,0,0,1,4.6,1.53,16,16,0,0,1,3.87,2.21c.14.13.32.26.43.37s.24.22.35.34a4.87,4.87,0,0,1,.61.72,2.3,2.3,0,0,1,.33.64.64.64,0,0,1,0,.4A1.14,1.14,0,0,1,120.08,44Z"/><path class="cls-10" d="M133,55.82a4.79,4.79,0,0,0-1.31-.86c-.48-.23-1-.43-1.47-.62a63.67,63.67,0,0,0-6.66-1.83c-2.38-.55-4.9-1.07-7.52-1.56-5.24-1-10.86-1.87-16.51-2.58a159.64,159.64,0,0,0-16.72-1.32,49.64,49.64,0,0,0-7.86.39,18.48,18.48,0,0,0-1.91.39c-.31.08-.63.18-1,.29l-.48.18-.53.25-.21.11-.18.1-.05,0-.08.05,0,0-.14.09a2.82,2.82,0,0,0-.29.24,2.37,2.37,0,0,0-.61.87,1.82,1.82,0,0,0-.14.75,2.12,2.12,0,0,0,.15.74,2.43,2.43,0,0,0,.59.83,4.17,4.17,0,0,0,.52.42,6.54,6.54,0,0,0,.91.5,20.75,20.75,0,0,0,3.14,1.06c1,.26,1.9.47,2.76.66l.22,0V51.83c-.72-.13-1.46-.27-2.23-.45a19,19,0,0,1-2.27-.64c.22-.08.43-.16.67-.23.5-.15,1-.28,1.61-.39a46.23,46.23,0,0,1,7.41-.65,158.88,158.88,0,0,1,16.53.66c5.63.48,11.25,1.15,16.5,1.93,2.63.38,5.16.8,7.55,1.25A63.86,63.86,0,0,1,130,54.87c.5.16,1,.34,1.44.53a4.66,4.66,0,0,1,1.2.72c.16.15.24.31.2.42a.77.77,0,0,1-.38.38,4.73,4.73,0,0,1-1.2.46,24.34,24.34,0,0,1-4.4.6c-1.24.07-2.22.07-2.88.06l-1,0,1,.07c.66,0,1.64.07,2.88.05a24.46,24.46,0,0,0,4.47-.43,5.39,5.39,0,0,0,1.32-.44,1.19,1.19,0,0,0,.58-.59.69.69,0,0,0,0-.49A1.19,1.19,0,0,0,133,55.82Z"/><path class="cls-10" d="M126.65,83.84a2.09,2.09,0,0,0-.7-.31,5.87,5.87,0,0,0-.75-.18,27.72,27.72,0,0,0-3.34-.37c-1.19-.08-2.45-.13-3.75-.17-2.6-.07-5.37-.06-8.14,0a75.94,75.94,0,0,0-8.15.66,23.87,23.87,0,0,0-3.76.8,7.2,7.2,0,0,0-.88.33c-.15.06-.3.14-.44.21l-.22.13c-.07,0-.16.1-.23.16l-.09.07-.09.06,0,0,0,0h0l-.06.06a.87.87,0,0,0-.12.14.62.62,0,0,0-.08.12h2.49l.22-.09a22.9,22.9,0,0,1,3.52-.89,78.74,78.74,0,0,1,8-1c2.74-.21,5.5-.32,8.09-.35,1.29,0,2.54,0,3.73,0a30.55,30.55,0,0,1,3.32.23c.25,0,.5.09.73.15a2,2,0,0,1,.63.25c.09.06.14.13.13.19a.36.36,0,0,1-.15.21,2.29,2.29,0,0,1-.55.31,11,11,0,0,1-2.07.63c-.59.13-1.06.21-1.38.26l-.49.06.5,0c.32,0,.79-.1,1.39-.2a12.26,12.26,0,0,0,2.12-.56,2.79,2.79,0,0,0,.59-.31.65.65,0,0,0,.24-.33.4.4,0,0,0,0-.24A.71.71,0,0,0,126.65,83.84Z"/><path class="cls-10" d="M90.12,64.75a5.62,5.62,0,0,0,1.29.74c.4.17.78.3,1.16.43V63.81l-.42-.14a4.5,4.5,0,0,1-.76-.36c.13-.08.27-.15.43-.23a12.62,12.62,0,0,1,2.27-.69,39.27,39.27,0,0,1,5.06-.7,89.67,89.67,0,0,1,10.19-.2c3.26.12,6.31.31,8.9.63a23.21,23.21,0,0,1,6.14,1.35c.68.3,1.19.7,1.27,1.11a.7.7,0,0,1-.06.44.49.49,0,0,1-.1.13.33.33,0,0,0,.1-.12.61.61,0,0,0,.09-.46,1.14,1.14,0,0,0-.39-.64,3.89,3.89,0,0,0-.86-.57,23.79,23.79,0,0,0-6.12-1.67c-2.6-.45-5.64-.8-8.92-1.08a94.16,94.16,0,0,0-10.32-.32,41.09,41.09,0,0,0-5.3.48,13.64,13.64,0,0,0-2.64.67,7.21,7.21,0,0,0-.69.33,2.68,2.68,0,0,0-.74.62,1.71,1.71,0,0,0-.31.65,1.51,1.51,0,0,0,.06.82A2.07,2.07,0,0,0,90.12,64.75Z"/><path class="cls-10" d="M131,70.23l0-.19v0c0-.23,0-.07,0-.13v0l0-.09a1,1,0,0,0-.07-.18,2.33,2.33,0,0,0-.38-.54,3.29,3.29,0,0,0-.84-.63,8.25,8.25,0,0,0-1.64-.7,25.73,25.73,0,0,0-3.29-.78c-2.21-.38-4.41-.61-6.48-.78s-4-.25-5.64-.3c-3.31-.09-5.51,0-5.51,0s2.2.07,5.48.43c1.63.18,3.54.42,5.57.74s4.18.72,6.28,1.26a26,26,0,0,1,3,1,8,8,0,0,1,1.28.66,2.11,2.11,0,0,1,.4.35l0,0v.19s0,0,0,0,0,0,0,0a.06.06,0,0,1,0,0s0,0,0,0l0,0,0,0a1.57,1.57,0,0,1-.34.25,5.36,5.36,0,0,1-1.11.46c-.4.12-.81.23-1.22.31v2.33a16.23,16.23,0,0,0,2-.63,6.88,6.88,0,0,0,1.51-.79,3.4,3.4,0,0,0,.78-.75l.17-.27c0-.1.09-.22.14-.33a1.21,1.21,0,0,0,.05-.18l0-.24a1.77,1.77,0,0,0,0-.23v-.16Z"/><path class="cls-10" d="M127.86,76.77a11.55,11.55,0,0,0-2.41-.79,27.5,27.5,0,0,0-3-.43c-2.13-.2-4.53-.31-7.16-.35s-5.47,0-8.48.15c-1.5.08-3,.19-4.63.37-.79.09-1.59.2-2.39.35a11.93,11.93,0,0,0-2.44.69,2.7,2.7,0,0,0-.63.39l-.16.15,0,.06,0,0,0,.07-.1.13-.1.18a1.83,1.83,0,0,0,0,1.6,3.53,3.53,0,0,0,.87,1.15,7.42,7.42,0,0,0,1.09.8,13.53,13.53,0,0,0,1.29.71V80.88l-.77-.41a7.51,7.51,0,0,1-1-.68,2.43,2.43,0,0,1-.66-.8.86.86,0,0,1-.09-.4.65.65,0,0,1,0-.2c0-.07,0-.15.07-.2l0-.09a1.25,1.25,0,0,0,.08-.12l.05-.06,0,0h0l.06-.07a2,2,0,0,1,.42-.26,10.43,10.43,0,0,1,2.22-.68c.77-.16,1.55-.29,2.33-.4,1.55-.22,3.08-.37,4.57-.48,3-.23,5.82-.33,8.44-.36s5,0,7.14.17a27.16,27.16,0,0,1,3,.35,11.51,11.51,0,0,1,2.4.72,1.65,1.65,0,0,1,.82.62.42.42,0,0,1,0,.43,1,1,0,0,1-.32.31,4.83,4.83,0,0,1-1.37.59c-.39.11-.7.17-.91.21l-.32,0,.32,0a8.87,8.87,0,0,0,.92-.18,5,5,0,0,0,1.4-.56,1.21,1.21,0,0,0,.35-.33.54.54,0,0,0,0-.51A1.84,1.84,0,0,0,127.86,76.77Z"/><path class="cls-10" d="M123.77,88.7c0-.1,0-.2-.07-.3l0-.08h-2.22l.16.09.21.15.17.15h0l-.09,0a7.66,7.66,0,0,1-1.1.28c-.8.16-1.62.26-2.45.35-1.65.18-3.31.3-4.94.42-3.26.23-6.43.44-9.45.76-1.51.17-3,.36-4.41.61a23.85,23.85,0,0,0-4.17,1.07,7.54,7.54,0,0,0-2,1.08,3.46,3.46,0,0,0-.91,1l-.1.17,0,.09-.06.15L92.2,95l0,.11,0,.14c0,.13-.05.27-.08.4a2.84,2.84,0,0,0,0,.58H94.5a.62.62,0,0,1,0-.23s0,0,0,0,0,0,0-.08l0-.11.06-.19v0a1.66,1.66,0,0,1,.31-.35,5.06,5.06,0,0,1,1.36-.75,21.52,21.52,0,0,1,3.72-1c1.35-.27,2.77-.49,4.24-.69,3-.39,6.1-.68,9.36-1,1.64-.16,3.3-.33,5-.55.85-.12,1.7-.24,2.58-.44a7.92,7.92,0,0,0,1.36-.4,2.54,2.54,0,0,0,.81-.46l.11-.11.12-.15a1.2,1.2,0,0,0,.22-.54c0-.07,0,0,0-.07v-.08S123.78,88.6,123.77,88.7Z"/><path class="cls-10" d="M102.69,114.49a1.81,1.81,0,0,0-.36-.89,3.52,3.52,0,0,0-.31-.35l-.35-.27a4.85,4.85,0,0,0-.74-.4v1.07l.22.12a1.27,1.27,0,0,1,.66.83v.05h0v.26c0,.08,0,.15,0,.24a1.3,1.3,0,0,1-.26.49,3.54,3.54,0,0,1-1,.8,17.15,17.15,0,0,1-2.5,1,23.91,23.91,0,0,0-4.74,2,5.73,5.73,0,0,0-.94.75,3.19,3.19,0,0,0-.66,1,1.94,1.94,0,0,0-.12,1.13,2.49,2.49,0,0,0,.42,1,5.88,5.88,0,0,0,1.27,1.31,13,13,0,0,0,1.27.86l.06,0v-.14h0a12.15,12.15,0,0,1-1.21-.9,5.51,5.51,0,0,1-1.17-1.31,2.23,2.23,0,0,1-.35-.86,1.66,1.66,0,0,1,.13-.93,3.77,3.77,0,0,1,1.53-1.48,23.13,23.13,0,0,1,4.71-1.74,16.63,16.63,0,0,0,2.66-1,4.35,4.35,0,0,0,1.28-.94,2.25,2.25,0,0,0,.44-.77,1.78,1.78,0,0,0,.1-.48v-.43Z"/><path class="cls-10" d="M112.05,101.82a12.53,12.53,0,0,1-1.94.66,44,44,0,0,1-4.88.91c-1.77.26-3.66.48-5.63.74a52.64,52.64,0,0,0-6.09,1.1,12.67,12.67,0,0,0-1.58.52,5.28,5.28,0,0,0-1.58,1,2.37,2.37,0,0,0-.63,1,1.86,1.86,0,0,0-.1.61v.08s0,.1,0,.1v0l0,.29a1.17,1.17,0,0,0,0,.2h1.52a1.17,1.17,0,0,1-.12-.36l0-.2v-.07h0v0a.83.83,0,0,1,0-.15,1,1,0,0,1,.25-.33,3.86,3.86,0,0,1,1.13-.59,12,12,0,0,1,1.4-.4,49.62,49.62,0,0,1,5.91-.8c2-.18,3.85-.33,5.67-.51a46.49,46.49,0,0,0,5.17-.76,13.64,13.64,0,0,0,2.36-.7,7.36,7.36,0,0,0,1.15-.59,5.3,5.3,0,0,0,.55-.44c.09-.09.21-.21.3-.32l.16-.2s.09-.13.06-.08v0l0-.05.06-.11a1.33,1.33,0,0,0,.11-.24,2.55,2.55,0,0,0,.12-.44h-3C112.39,101.65,112.23,101.73,112.05,101.82Z"/><path class="cls-10" d="M120.06,99.68a3.24,3.24,0,0,0-.77-.42,19.89,19.89,0,0,0-5.31-.94c-2.23-.18-4.83-.24-7.62-.23a80.57,80.57,0,0,0-8.76.52,35.35,35.35,0,0,0-4.44.81,11,11,0,0,0-2.19.78,3.27,3.27,0,0,0-.56.33,2.27,2.27,0,0,0-.58.58,1.28,1.28,0,0,0-.2.57,1.11,1.11,0,0,0,.11.68,1.62,1.62,0,0,0,.64.71,4.59,4.59,0,0,0,1.14.53c.35.11.68.19,1,.27l-.16-1.78L92,102a4,4,0,0,1-.67-.24,2.88,2.88,0,0,1,.34-.23,10.28,10.28,0,0,1,1.87-.76,35.09,35.09,0,0,1,4.22-1,77.51,77.51,0,0,1,8.61-.94c2.77-.15,5.37-.22,7.58-.16a20.28,20.28,0,0,1,5.3.68c.6.2,1.06.5,1.16.84a.58.58,0,0,1,0,.38.86.86,0,0,1-.07.12.86.86,0,0,0,.07-.12.56.56,0,0,0,0-.39A1.06,1.06,0,0,0,120.06,99.68Z"/><path class="cls-10" d="M118.32,93.44v0l0,0-.06-.1a1.3,1.3,0,0,0-.28-.29,2.2,2.2,0,0,0-.54-.29,5.36,5.36,0,0,0-1-.26,15.39,15.39,0,0,0-2-.16c-1.34,0-2.65,0-3.89.14s-2.37.22-3.35.34c-2,.25-3.24.51-3.24.51s1.31-.16,3.27-.25c1-.05,2.12-.08,3.34-.08s2.53,0,3.82.17a13.62,13.62,0,0,1,1.86.3,4.06,4.06,0,0,1,.81.26,1.16,1.16,0,0,1,.27.17l0,0,0,.09v0h0a0,0,0,0,1,0,0v0h0s0,0,0,0,0,0,0,0a.69.69,0,0,1-.17.18,1.85,1.85,0,0,1-.27.19h1.55a.65.65,0,0,0,0-.2s0-.07,0-.11a.66.66,0,0,0,0-.14.66.66,0,0,0,0-.14v-.09l0-.11h0C118.3,93.39,118.33,93.48,118.32,93.44Z"/><path class="cls-3" d="M63.07,92.76s-2.55-5.91-.66-10.22,1.39,0,1.39,0,3.13-6.47,4.74-6.6-1.24,3.31-1.24,3.31,8.67-7.06,11-6.2-3.49,2.89-3.49,2.89,13.09-6,15.88-4-7.36,3-7.36,3,6.35-1.15,7.36.51S87,77.21,87,77.21s6,.42,6.61,2.76-6.23.86-6.23.86,5.73,1.48,5,2.75-7.18.67-7.18.67,3.1.84,3.36,1.74S81,87.85,81,87.85s9.3,1.51,9,3.58S74.8,94.05,74.8,94.05s4.23.72,3.49,2.25S71.81,95,71.81,95s3.06.66.51,1.73S62.72,95,62.72,95Z"/><path class="cls-4" d="M49.61,129.92s-.11-24.71,16.89-41L68.35,90s-15.74,19.07-13.49,39.93C54.86,129.92,53.51,131,49.61,129.92Z"/><path class="cls-4" d="M61.08,97c-.15-.08-3.74-1.89-4.39-5.32-.41-2.15.43-4.4,2.48-6.68l1.12,1c-1.73,1.91-2.44,3.73-2.12,5.39.51,2.71,3.55,4.24,3.58,4.26Z"/><path class="cls-4" d="M71.65,94.3a21.35,21.35,0,0,1-6.79-1.15l.51-1.41c.1,0,9.6,3.41,14.43-2.24l1.14,1A11.75,11.75,0,0,1,71.65,94.3Z"/><path class="cls-5" d="M57.3,92.1s-2.64-1.87-3-4.21.59-.37.59-.37-.36-3.59.3-4.07.34,1.74.34,1.74,1.86-5.3,3.08-5.54-.73,2.16-.73,2.16,4-6,5.75-5.9-2.37,3.22-2.37,3.22,2.43-2.16,3.29-1.71-1.12,1.74-1.12,1.74,2.67-1.39,3.56-.56-2.45,2-2.45,2,2.85-.88,2.85-.13-2.9,2.17-2.9,2.17,1.55-.45,1.9-.13-2.74,2.77-2.74,2.77,4.39-1.8,4.82-.84-5.84,5.12-5.84,5.12,2-.8,2.09.05-3.11,1.16-3.11,1.16,1.48-.53.67.61-5,.71-5,.71Z"/><path class="cls-5" d="M78.65,91s-.74-3.15.58-5.12.68.13.68.13,2.13-2.93,2.94-2.85-.91,1.53-.91,1.53,4.92-2.73,6-2.1-2,1.12-2,1.12,7-1.82,8.22-.58-3.91.83-3.91.83,3.25,0,3.6.91-2,.55-2,.55,2.91.73,3,2-3.16-.13-3.16-.13,2.71,1.24,2.22,1.81-3.61-.31-3.61-.31,1.46.69,1.5,1.16-3.88.26-3.88.26,4.47,1.56,4.16,2.57-7.77,0-7.77,0,2,.73,1.53,1.42-3.09-1.2-3.09-1.2,1.45.59.1.9S78.65,91,78.65,91Z"/><path class="cls-4" d="M73.41,89.69a1,1,0,0,1-.27.16,1.88,1.88,0,0,1-.38.13,5.45,5.45,0,0,1-2.18-.08,15,15,0,0,1-2.13-.61L67.77,89,67.6,89h0l0,0h0l-.12,0-.21-.09-.26-.14a2.23,2.23,0,0,1-.24-.19l-.1-.12a.54.54,0,0,1-.07-.13.67.67,0,0,1-.06-.33,1.3,1.3,0,0,1,.1-.4,3.1,3.1,0,0,1,.51-.8,7.41,7.41,0,0,1,.61-.63,7.55,7.55,0,0,1,.67-.54,7.51,7.51,0,0,0-.78.39,6.31,6.31,0,0,0-.76.51,3.31,3.31,0,0,0-.77.77,2.1,2.1,0,0,0-.28.56,1.51,1.51,0,0,0,0,.67,1.28,1.28,0,0,0,.09.32A1.38,1.38,0,0,0,66,89a2.46,2.46,0,0,0,.33.42,3.76,3.76,0,0,0,.32.28l.25.19.23.14.07,0,.29.07.76.13a16.23,16.23,0,0,0,2.32.23,6,6,0,0,0,2.3-.34A2.7,2.7,0,0,0,73.2,90a1.94,1.94,0,0,0,.25-.22,1.12,1.12,0,0,0,.17-.23A.79.79,0,0,1,73.41,89.69Z"/><path class="cls-13" d="M36.43,91.94S40.19,102.83,42,105.5l1.78-1S39.59,96.66,38.6,91A3.07,3.07,0,0,0,36.43,91.94Z"/><path class="cls-14" d="M12.63,98.38s8.44-6.76,27.74-10.94v1.47s-16.94,3.51-27.17,11Z"/><path class="cls-11" d="M32.67,80.42s-8,7.82-7.7,9.08,2.23,5.93,2.23,5.93l1.15-.9s-2.58-3.44-2.59-5S33.06,81,33.06,81Z"/><path class="cls-11" d="M17.4,88.91S21.71,96.32,22.61,99l-1.2.4S18,90.81,16,88.91Z"/><path class="cls-14" d="M47.21,91.13s-10.7,9-12.32,13.32l1.12-.26s6.85-7.7,11.8-12.29Z"/><path class="cls-15" d="M49.61,101.69a64.69,64.69,0,0,0-3.07,8.74c-.11.41-.21.82-.32,1.22A67.65,67.65,0,0,0,44.69,120c0,.43-.09.85-.13,1.26a47.29,47.29,0,0,0-.15,8.66H4.81s-.75-21.83,8.25-33.58l3.52.51-1.07,1.67,2.9.5,1.2-1.73L23,97.8,22.61,99l2.3.1.49-1,2.91.43-.4.85,1.6.27-.5,1.44,2.2.53,1.47-2.45,3.13.46v1l2.8.51v1.23l2.9.17v-.87l-1.3-.53.56-.74,4,.59-.28.71,2.3.53,1-.8Z"/><path class="cls-16" d="M10.81,129.92s-1-12.3,2-19.6l8.6,1.16a54.06,54.06,0,0,0-2.3,18.44Z"/><path class="cls-11" d="M18.91,120.92a.8.8,0,1,1-.8-.8A.8.8,0,0,1,18.91,120.92Z"/><path class="cls-17" d="M41.21,112.4c-.16.41-.31.84-.44,1.28s-.23.77-.33,1.16c-.23.9-.41,1.82-.55,2.7l-2.37-.24-1.09-.12-3.3-.35c0-.11,0-.23.06-.34h0c.08-.45.16-.88.25-1.29h0a35.13,35.13,0,0,1,1-3.8l3.21.48,1.22.18Z"/><path class="cls-17" d="M33.06,111.19c-.05.17-.1.35-.14.53a43.12,43.12,0,0,0-.89,4.59l-.06.39-.4,0-5.23-.55-.58-.06c.16-1.1.34-2,.53-2.82a16.19,16.19,0,0,1,.91-2.91l2.49.37Z"/><path class="cls-17" d="M39.78,118.27a45.3,45.3,0,0,0-.47,5.45l-3.74-.36-1.29-.12-1.58-.14a29,29,0,0,1,.31-5.52l2.6.26,1.44.15h0Z"/><path class="cls-17" d="M31.87,117.47v0c-.27,2.18-.38,4.12-.43,5.47l-6-.55h-.08c0-.33,0-.65,0-1a41.45,41.45,0,0,1,.26-4.62l5,.52Z"/><path class="cls-18" d="M30.69,117.35l1.18.12v0l-6.38,4.92h-.08c0-.33,0-.65,0-1Z"/><path class="cls-18" d="M31.57,116.66l.46-.35-.06.39Z"/><path class="cls-18" d="M38.94,112.06l-5.74,4.43c.08-.45.16-.88.25-1.29h0l4.26-3.32Z"/><polygon class="cls-18" points="37.06 118 39.03 118.55 35.57 123.36 34.28 123.25 37.17 118.82 35.06 118.29 35.61 117.84 37.05 117.99 37.06 118"/><path class="cls-18" d="M40.77,113.68c-.12.38-.23.77-.33,1.16l-2.92,2.46-1.09-.12Z"/><path class="cls-18" d="M33.06,111.19c-.05.17-.1.35-.14.53l-6.58,4.39-.58-.06c.16-1.1.34-2,.53-2.82l3.4-2.54Z"/><polygon class="cls-19" points="26.58 117.58 26.58 118.97 27.86 117.55 27.2 118.97 28.6 118.97 30.26 118.26 29.41 119.41 30.26 120.12 29.41 120.92 30.93 121.72 28.76 121.29 28.64 122.43 26.58 121.14 25.76 121.72 26.49 120.61 25.76 119.89 26.43 119.89 26.58 117.58"/><polygon class="cls-20" points="12.33 101.13 12.86 99.84 15.71 100.48 15.18 101.57 12.33 101.13"/><polygon class="cls-20" points="18.11 100.71 18.63 99.42 21.48 100.07 20.96 101.15 18.11 100.71"/><polygon class="cls-20" points="24.97 100.71 25.5 99.42 28.35 100.07 27.82 101.15 24.97 100.71"/><polygon class="cls-20" points="42.07 102.95 42.6 101.67 45.45 102.31 44.92 103.39 42.07 102.95"/><polygon class="cls-20" points="38.09 104.24 38.61 102.96 41.46 103.6 40.94 104.68 38.09 104.24"/><polygon class="cls-20" points="38.6 106.14 39.13 104.85 41.98 105.5 41.45 106.58 38.6 106.14"/><polygon class="cls-20" points="35.48 105.48 36.01 104.19 38.86 104.83 38.33 105.91 35.48 105.48"/><polygon class="cls-20" points="20.8 126.9 21.1 125.55 24.02 125.7 23.68 126.86 20.8 126.9"/><polygon class="cls-20" points="22.47 125.55 22.77 124.19 25.69 124.35 25.35 125.5 22.47 125.55"/><polygon class="cls-20" points="40.37 129.44 40.67 128.09 43.59 128.25 43.25 129.4 40.37 129.44"/><path class="cls-20" d="M44.69,120c0,.43-.09.85-.13,1.26l-1.57,0,.3-1.35Z"/><path class="cls-20" d="M46.54,110.43c-.11.41-.21.82-.32,1.22l-1.66-.07.38-1.34Z"/><polygon class="cls-20" points="23.29 106.77 23.81 105.48 26.66 106.13 26.14 107.21 23.29 106.77"/><polygon class="cls-20" points="24.08 108.72 24.6 107.43 27.45 108.08 26.93 109.16 24.08 108.72"/><polygon class="cls-20" points="31.51 101.99 32.03 100.7 34.88 101.35 34.36 102.43 31.51 101.99"/><polygon class="cls-20" points="14.02 102.95 14.54 101.67 17.39 102.31 16.87 103.39 14.02 102.95"/><polygon class="cls-20" points="9.82 108.09 10.35 106.8 13.2 107.44 12.67 108.53 9.82 108.09"/><polygon class="cls-20" points="10.95 109.9 11.47 108.62 14.32 109.26 13.79 110.34 10.95 109.9"/><polyline class="cls-6" points="21.6 65.45 29.92 56.45 51.99 66.79 46.8 84.96 21.6 65.94"/><polygon class="cls-4" points="51.66 68.83 46.8 84.96 22.05 67.81 21.6 65.45 46.15 83.33 50.83 67.81 51.66 68.83"/><polygon class="cls-21" points="11.52 50.93 11.51 52.38 40.68 71.99 51.66 68.83 51.99 66.79 11.52 50.93"/><polygon class="cls-16" points="11.52 50.93 41.18 71 51.99 66.79 28.04 49.76 11.52 50.93"/><polygon class="cls-4" points="28.58 56.45 34.63 48.65 41.94 52.68 42.81 54.45 37.73 61.46 35.16 61.46 28.58 56.45"/><polygon class="cls-21" points="35.16 61.46 41.94 52.68 42.81 54.45 37.73 61.46 35.16 61.46"/><polygon class="cls-6" points="119.97 132.16 131.59 90.37 133.68 91.9 124.16 131.68 119.97 132.16"/><polygon class="cls-6" points="126.69 93.68 138.41 97.01 138.41 97.79 125.81 94.7 126.69 93.68"/><polygon class="cls-6" points="125.81 98.38 136.61 100.7 136.61 101.69 125.81 100.03 125.81 98.38"/><path class="cls-7" d="M138.5,97.13l-.18-.24c.06,0,6.39-4.83,4.15-10.64-1.2-3.11-4-3.69-6.63-4.26-2.38-.5-4.62-1-5.57-3.19a3.68,3.68,0,0,1,0-2.93c1.28-3.14,6.24-5.22,6.45-5.3l.11.27c-.05,0-5.05,2.12-6.28,5.15a3.36,3.36,0,0,0,0,2.69c.88,2.08,3,2.53,5.35,3,2.75.58,5.59,1.18,6.85,4.45C145.07,92.16,138.56,97.08,138.5,97.13Z"/><path class="cls-7" d="M126.63,93.82c-.7-.28-17.16-6.85-17.34-11.35-.06-1.68,1.88-2.72,5.32-2.86,4.31-.17,9.63,1.11,9.7,2.85.12,2.79-6.67,3.19-7,3.21l0-.3c.07,0,6.79-.4,6.68-2.9-.05-1.4-5-2.73-9.39-2.56-1.54.06-5.11.44-5,2.55.17,4.31,17,11,17.15,11.08Z"/><path class="cls-7" d="M142.54,110.9a2.22,2.22,0,0,1-.57-.07,2,2,0,0,1-1.41-.91c-.35-.73.08-1.7.55-2.73a5.47,5.47,0,0,0,.75-2.88c-.38-2.31-5.24-3.45-5.29-3.46l.07-.29c.21,0,5.1,1.2,5.52,3.7a5.65,5.65,0,0,1-.78,3c-.43,1-.84,1.87-.55,2.48a1.69,1.69,0,0,0,1.21.75c1.84.45,4.09-1.67,5.27-3.88.87-1.64,1.38-3.78.2-4.86l.2-.23c1.31,1.2.79,3.49-.14,5.23C146.46,108.9,144.4,110.9,142.54,110.9Z"/><path class="cls-7" d="M117.4,100.91a1.43,1.43,0,0,1-1-.44A35.39,35.39,0,0,0,113.06,98c-2.58-1.72-4.15-2.81-4-3.47,0-.2.2-.33.49-.39l.06.29c-.09,0-.24.07-.26.15-.09.51,2.13,2,3.91,3.17a34.23,34.23,0,0,1,3.42,2.46,1.09,1.09,0,0,0,.79.35c.52,0,1-.62,1.62-1.3,1.06-1.22,2.52-2.9,5.13-2.44,2.41.43,2.74.77,2.74,1s-.77.56-1.1.62l0-.3a1.7,1.7,0,0,0,.85-.32s-.14-.34-2.49-.75-3.78,1.1-4.85,2.34c-.63.73-1.18,1.36-1.83,1.4Z"/><path class="cls-10" d="M92.26,126.71c1.1-.19,3.64-.32,3,1,0,0,4.27,0,5.4,1.27s-4.91,1.55-4.91,1.55-15.71-.46-17.89-2S79,125.64,79,125.64s-2.46,1.28-1.11,2.1,11.39.33,11.39.33S88.77,127.32,92.26,126.71Z"/><path class="cls-22" d="M94.35,130.42s-.15-1.5,2.14-1.48a8.59,8.59,0,0,1,3.19.44s2-2.81,4.15-2.52a3.48,3.48,0,0,1,2.83,2.08s13.53.27,15-.89-3.6-2.41-3.6-2.41,5.56.59,5.56,2.53S96.13,130.73,94.35,130.42Z"/><path class="cls-22" d="M101.28,123S86.2,124,85.41,127s12.25,2.69,12.25,2.69-14,2-14.71-2.77S101.28,123,101.28,123Z"/><rect class="cls-11" y="129.92" width="150" height="20.08"/><path class="cls-23" d="M51.66,43.83c2.12-2.52,3.21-2.56,4.93-2S59.17,47,59.17,47l-4.9,3.89S47,49.4,51.66,43.83Z"/><path class="cls-24" d="M59.17,47.34s-.9-1.79-.58-2.47,2-2.93,3.47-2a1.5,1.5,0,0,1,.6,2.15s2,2.94,1.72,3.66-1.2,1.87-2.1,1.11S59.17,47.34,59.17,47.34Z"/><path class="cls-23" d="M56.13,53.57l1.62,1.25S63.9,49.48,64,49.36,60.86,46.51,60.63,47,53.81,52.37,56.13,53.57Z"/><path class="cls-25" d="M54.63,51.42s-.58-.8,2.26-3.19,3.37-3.22,4.58-2.66,1.56,1.29,0,2.66S57.15,53,56,52.68,54.65,51.88,54.63,51.42Z"/><path class="cls-24" d="M52,52.14a1.69,1.69,0,0,1,1-2.77c1.35-.15,4,2.92,4.5,3.67s1.13,1.1,0,2-4.27-2.46-4.27-2.46S52.8,53,52,52.14Z"/><path class="cls-26" d="M32.29,23.82l-2.42-6.53a.16.16,0,0,1,.09-.2.15.15,0,0,1,.19.09l2.22,6,3.32-4.92a.15.15,0,0,1,.25.17Z"/><path class="cls-14" d="M32.06,23.15c2.24.41,3.57,1.16,3.25,2.49s-1.11,3.14-1.64,3.06-5-.33-5.16-2.12S27.85,22.38,32.06,23.15Z"/><path class="cls-27" d="M33.64,28.12a5.18,5.18,0,0,1-2.72-.07l-.39-.13a2.16,2.16,0,0,1-.43-.22,1,1,0,0,1-.44-.52.76.76,0,0,1-.06-.2c0-.21,0-.42-.05-.62a4.86,4.86,0,0,1,0-.54,3.22,3.22,0,0,1,.53-2.07,1.79,1.79,0,0,1,1.09-.16c.2,0,.41,0,.62.07s.61.1.88.16.76.18,1.06.28a2.24,2.24,0,0,1,.6.29.78.78,0,0,1,.34.41.61.61,0,0,1,0,.27,1,1,0,0,1,0,.16A7.87,7.87,0,0,1,33.64,28.12Z"/><path class="cls-13" d="M30.1,27.7a1,1,0,0,1-.44-.52l4.07-3.08a2.24,2.24,0,0,1,.6.29Z"/><path class="cls-13" d="M34.67,25.23l-3.75,2.82-.39-.13,4.14-3.12a.61.61,0,0,1,0,.27A1,1,0,0,1,34.67,25.23Z"/><path class="cls-13" d="M31.91,24.59l-2.36,1.77a4.86,4.86,0,0,1,0-.54l1.51-1.13-.93-.31,1-.79c.2,0,.41,0,.62.07l-.91.62Z"/><path class="cls-26" d="M135.72,38l-.1-.15-.12-.15h0c-1.05-1.16-3.54-.86-5.71.71s-3.2,3.86-2.42,5.22h0l1.24,1.7,1-.7a6.82,6.82,0,0,0,3.73-1.41,6.93,6.93,0,0,0,2.5-3.12l1-.7Z"/><path class="cls-27" d="M134.42,44.73c-2.25,1.63-4.86,1.89-5.82.56s.07-3.73,2.32-5.37,4.86-1.89,5.83-.56S136.67,43.09,134.42,44.73Z"/><path class="cls-7" d="M134.28,44.53c-2.07,1.5-4.46,1.73-5.34.52s.06-3.43,2.13-4.93,4.45-1.73,5.34-.52S136.34,43,134.28,44.53Z"/><path class="cls-11" d="M133.61,43.61c-1.21.89-2.61,1-3.13.31s0-2,1.25-2.89,2.61-1,3.13-.3S134.82,42.73,133.61,43.61Z"/><path class="cls-13" d="M133,42.75c-.4.3-.86.34-1,.11s0-.67.42-1,.87-.33,1-.1S133.39,42.46,133,42.75Z"/><path class="cls-13" d="M134.31,41.36c-.14.11-.31.12-.37,0s0-.24.15-.34.31-.12.37,0S134.45,41.26,134.31,41.36Z"/><path class="cls-13" d="M131.25,43.59c-.14.1-.3.12-.36,0s0-.23.14-.33.31-.12.37,0S131.4,43.49,131.25,43.59Z"/><path class="cls-13" d="M133.07,43.41c-.06-.08,0-.23.15-.34s.3-.12.36,0,0,.23-.14.34S133.13,43.5,133.07,43.41Z"/><path class="cls-13" d="M131.76,41.61c-.06-.08,0-.23.15-.34s.3-.12.36,0,0,.23-.14.33S131.82,41.69,131.76,41.61Z"/><path class="cls-13" d="M134.11,42.41c-.14,0-.21-.08-.15-.21a.5.5,0,0,1,.36-.27.15.15,0,0,1,.16.22A.48.48,0,0,1,134.11,42.41Z"/><path class="cls-13" d="M131,42.71c-.14,0-.21-.08-.15-.21a.52.52,0,0,1,.36-.27.15.15,0,0,1,.16.22A.48.48,0,0,1,131,42.71Z"/><path class="cls-13" d="M131.8,43.77a.47.47,0,0,1,.36-.26c.14,0,.21.08.15.21A.48.48,0,0,1,132,44C131.81,44,131.74,43.91,131.8,43.77Z"/><path class="cls-13" d="M133,40.93a.47.47,0,0,1,.36-.27c.15,0,.22.08.16.21a.47.47,0,0,1-.37.27C133,41.15,133,41.06,133,40.93Z"/><path class="cls-28" d="M84.6,65.61l-.21,0,.1.12h.1v.1l.11.12v-.21l.31,0,0,.4h.11l0-.4.41,0h0l0-.41.41,0v0h0l0-.4.4,0h0l0-.4.4,0h0l0-.41.41,0h0l0-.41.41,0v0h0l0-.4.4,0h0l0-.4.4,0h0l0-.41.41,0v0h0l0-.41.41,0h0l0-.4.4,0v-.11l-.4,0,0-.31.19,0-.1-.13h-.08v-.08l-.11-.12v.19l-.31,0,0-.4h-.12l0,.4-.4,0h0l0,.41-.41,0v0h0l0,.41-.41,0h0l0,.4-.4,0h0l0,.4-.4,0h0l0,.41-.41,0v0h0l0,.4-.41,0h0l0,.4-.4,0h0l0,.41-.4,0v0h0l0,.41-.41,0h0l0,.4-.41,0v.11l.41,0Zm.84.07-.31,0,0-.3.3,0Zm.45-.38-.31,0,0-.3.3,0Zm.45-.39-.3,0,0-.31.31,0Zm.45-.38-.3,0,0-.3.31,0Zm.46-.38-.31,0,0-.3.3,0Zm.45-.38-.31,0,0-.31.3,0Zm.45-.39-.3,0,0-.31.31,0ZM88.6,63l-.3,0,0-.3.31,0Zm.46-.38-.31,0,0-.3.3,0Zm.45-.39-.31,0,0-.31.3,0Zm.06-.72,0,.31-.3,0,0-.3Zm-.72-.06.3,0,0,.3-.31,0Zm.27.44,0,.31-.3,0,0-.3Zm-.73-.06.31,0,0,.3-.3,0Zm.27.45,0,.3-.31,0,0-.31Zm-.72-.06.31,0,0,.31-.31,0Zm.27.44,0,.3-.31,0,0-.31Zm-.72-.06.3,0,0,.31-.31,0Zm.27.44,0,.31-.3,0,0-.3ZM87,63l.3,0,0,.3-.31,0Zm.27.44,0,.31-.3,0,0-.3Zm-.73-.06.31,0,0,.31-.3,0Zm.27.45,0,.3-.31,0,0-.31Zm-.72-.06.31,0,0,.31-.3,0Zm.27.44,0,.31-.31,0,0-.31Zm-.72-.06.3,0,0,.3-.31,0Zm.27.44,0,.31-.3,0,0-.3Zm-.72-.06.3,0,0,.3-.31,0Zm.27.45,0,.3-.3,0,0-.31Zm-.73-.06.31,0,0,.31-.3,0Zm.27.44,0,.3-.31,0,0-.31Z"/><path class="cls-27" d="M83.94,65.32l.24-.2.79.93,5-4.22-.79-.93.24-.2.9,1a.17.17,0,0,1,0,.22l-5.23,4.42a.16.16,0,0,1-.22,0Z"/><path class="cls-29" d="M79.27,62.36l-.88-1L76,58.43,93,44l2.78,3.28a1.92,1.92,0,0,1,.43.7,27.77,27.77,0,0,1,.62,3.1c.12.7.21,1.25.28,1.68.21,1.42.11,1.61-.38,2L83.81,65.71c-.34.28-.34.29-1.34-.57-.12-.11-.26-.24-.42-.37A26.54,26.54,0,0,1,79.27,62.36Z"/><polygon class="cls-7" points="85.42 57.11 80.29 61.45 83.34 64.4 88.15 60.34 85.42 57.11"/><rect class="cls-7" x="86.64" y="54.49" width="5.3" height="4.23" transform="translate(-15.43 71.06) rotate(-40.23)"/><polygon class="cls-13" points="85.71 62.4 84.97 57.49 85.16 57.33 85.9 62.23 85.71 62.4"/><polygon class="cls-13" points="84.76 63.2 84.01 58.3 84.49 57.89 85.23 62.8 84.76 63.2"/><polygon class="cls-13" points="83.44 61.66 82.78 62.22 82.39 59.67 82.87 59.27 83.17 61.24 83.83 60.67 84.28 63.61 83.8 64.01 83.44 61.66"/><path class="cls-7" d="M79.27,62.36l0,0,.59-.5,3.06,3-.43.36c-.12-.11-.26-.24-.42-.37A26.54,26.54,0,0,1,79.27,62.36Z"/><path class="cls-7" d="M96.55,53.23l-.43-1.39-.42-1.38-.5-1.63,1-.86a27.77,27.77,0,0,1,.62,3.1c.12.7.21,1.25.28,1.68Z"/><polygon class="cls-7" points="93.17 56.09 90.44 52.86 94.67 49.28 95.25 51.03 96.1 53.61 93.17 56.09"/><path class="cls-26" d="M90,52.07a.1.1,0,0,1,0-.14l.66-.56a.09.09,0,0,1,.13,0l.16.18a.11.11,0,0,1,0,.14l-.66.56a.09.09,0,0,1-.13,0Z"/><path class="cls-30" d="M78,60.27l-.77-.91a.32.32,0,0,0-.45,0l0,0,1.18,1.39,0,0A.32.32,0,0,0,78,60.27Z"/><polygon class="cls-13" points="90.17 58.63 89.43 53.72 89.62 53.55 90.36 58.46 90.17 58.63"/><polygon class="cls-13" points="89.21 59.43 88.47 54.52 88.95 54.12 89.69 59.03 89.21 59.43"/><polygon class="cls-13" points="96.12 51.84 95.7 50.46 95.42 48.64 95.62 48.48 96.12 51.84"/><polygon class="cls-13" points="95.21 54.36 94.47 49.45 94.67 49.28 95.25 51.03 95.69 53.95 95.21 54.36"/><polygon class="cls-13" points="93.9 52.81 93.23 53.38 92.85 50.83 93.32 50.42 93.62 52.39 94.29 51.83 94.73 54.76 94.26 55.17 93.9 52.81"/><path class="cls-31" d="M93.74,49.36a.11.11,0,0,1,0-.14L94,49a.11.11,0,0,1,.14,0l.22.26a.11.11,0,0,1,0,.14l-.26.22a.11.11,0,0,1-.14,0Z"/><path class="cls-31" d="M94.54,50.78l0,0a.16.16,0,0,0,0-.24l-.24-.29c.25-.21.24-.29,0-.56L94,49.21l-.16.14.38.45a1.17,1.17,0,0,1,.12.15s0,.07-.11.11l-.36-.43a.17.17,0,0,0-.24,0l0,0Z"/><path class="cls-32" d="M87.17,49.53,92,45.47,95,49l1.44,4.49L93,56.43ZM92,45.62l-4.64,3.92L93,56.28l3.29-2.79-1.42-4.41Z"/><path class="cls-26" d="M85.34,56a.09.09,0,0,1,0-.13l.67-.56a.09.09,0,0,1,.13,0l.16.18a.09.09,0,0,1,0,.13l-.66.57a.11.11,0,0,1-.14,0Z"/><polygon class="cls-32" points="82.59 53.4 87.21 49.49 87.28 49.58 82.74 53.42 88.47 60.19 88.39 60.26 82.59 53.4"/><path class="cls-33" d="M82.47,65.4,97.31,52.85c-.13-.16-.21-.09-.21-.09L82.41,65.19S82.34,65.25,82.47,65.4Z"/><path class="cls-32" d="M94.77,46.42a.08.08,0,0,1,0-.1l.12-.1.09.11-.12.1A.08.08,0,0,1,94.77,46.42Z"/><path class="cls-32" d="M94.59,46.2a.08.08,0,0,1,0-.1l.12-.1.09.11-.12.1A.07.07,0,0,1,94.59,46.2Z"/><path class="cls-32" d="M94.41,46a.07.07,0,0,1,0-.1l.11-.1.1.11-.12.1A.08.08,0,0,1,94.41,46Z"/><path class="cls-32" d="M94.23,45.77a.07.07,0,0,1,0-.1l.12-.1.09.11-.12.1A.06.06,0,0,1,94.23,45.77Z"/><path class="cls-32" d="M94,45.55a.06.06,0,0,1,0-.09l.12-.1.09.1-.12.1A.07.07,0,0,1,94,45.55Z"/><path class="cls-32" d="M93.68,45.12a.07.07,0,0,1,0-.1l.12-.1.09.11-.11.1A.07.07,0,0,1,93.68,45.12Z"/><path class="cls-32" d="M93.86,45.34a.07.07,0,0,1,0-.1l.12-.1.09.11-.12.1A.08.08,0,0,1,93.86,45.34Z"/><path class="cls-32" d="M93.16,44.88l.08-.06,1.58,1.86.15.17.46.54c.22.3,0,.44-.25.69l-.58.5-.07-.08.58-.5c.32-.26.39-.34.23-.54s-.28-.34-.45-.54l-.15-.17Z"/><path class="cls-22" d="M94.09,46.67l-.76-.91a.32.32,0,0,1,0-.45l.06,0,1.18,1.39-.06.05A.33.33,0,0,1,94.09,46.67Z"/><path class="cls-11" d="M89.1,47.24a.85.85,0,0,1,.1-1.18.84.84,0,1,1-.1,1.18Z"/><path class="cls-13" d="M89.53,46.88a.28.28,0,0,1,0-.39.28.28,0,0,1,.4,0,.28.28,0,0,1-.43.36Z"/><path class="cls-13" d="M90.05,47.21a.1.1,0,0,1,0-.14.11.11,0,0,1,.14,0,.11.11,0,0,1,0,.14A.1.1,0,0,1,90.05,47.21Z"/><path class="cls-13" d="M89.29,46.32a.11.11,0,0,1,0-.14.1.1,0,1,1,.13.15A.11.11,0,0,1,89.29,46.32Z"/><path class="cls-13" d="M89.23,47a.1.1,0,0,1,.14,0,.09.09,0,0,1,0,.13.1.1,0,0,1-.14,0A.11.11,0,0,1,89.23,47Z"/><path class="cls-13" d="M90.13,46.25a.1.1,0,0,1,.14,0,.1.1,0,0,1,0,.14.09.09,0,0,1-.13,0A.1.1,0,0,1,90.13,46.25Z"/><path class="cls-13" d="M89.6,47.28a.1.1,0,1,1,.09.1A.09.09,0,0,1,89.6,47.28Z"/><path class="cls-13" d="M89.7,46.11a.1.1,0,0,1,.1-.09.09.09,0,0,1,.09.11.1.1,0,0,1-.11.09A.1.1,0,0,1,89.7,46.11Z"/><path class="cls-13" d="M89.17,46.55a.12.12,0,0,1,.09.11.1.1,0,0,1-.11.09.1.1,0,0,1-.09-.11A.12.12,0,0,1,89.17,46.55Z"/><path class="cls-13" d="M90.34,46.65a.11.11,0,0,1,.09.11.12.12,0,0,1-.11.09.1.1,0,1,1,0-.2Z"/><path class="cls-34" d="M76,57.15a2.88,2.88,0,1,1,4.05.34A2.86,2.86,0,0,1,76,57.15Z"/><path class="cls-26" d="M76.17,57a2.64,2.64,0,1,1,3.72.31A2.64,2.64,0,0,1,76.17,57Z"/><path class="cls-11" d="M77,56.29a1.53,1.53,0,0,1,.18-2.18A1.55,1.55,0,1,1,77,56.29Z"/><path class="cls-13" d="M77.79,55.63a.53.53,0,0,1,.06-.73.52.52,0,0,1,.67.79A.53.53,0,0,1,77.79,55.63Z"/><path class="cls-13" d="M78.74,56.23a.18.18,0,0,1,0-.25A.17.17,0,0,1,79,56a.18.18,0,0,1,0,.26A.19.19,0,0,1,78.74,56.23Z"/><path class="cls-13" d="M77.35,54.59a.18.18,0,1,1,.26,0A.2.2,0,0,1,77.35,54.59Z"/><path class="cls-13" d="M77.25,55.85a.19.19,0,0,1,.25,0,.18.18,0,0,1,0,.26.2.2,0,0,1-.26,0A.19.19,0,0,1,77.25,55.85Z"/><path class="cls-13" d="M78.89,54.46a.18.18,0,0,1,.26,0,.2.2,0,0,1,0,.26.19.19,0,0,1-.26,0A.19.19,0,0,1,78.89,54.46Z"/><path class="cls-13" d="M77.92,56.35a.17.17,0,0,1,.19-.16.18.18,0,0,1,.17.19.19.19,0,0,1-.2.17A.18.18,0,0,1,77.92,56.35Z"/><path class="cls-13" d="M78.1,54.2a.17.17,0,0,1,.19-.16.18.18,0,0,1,.17.19.19.19,0,0,1-.2.17A.18.18,0,0,1,78.1,54.2Z"/><path class="cls-13" d="M77.13,55a.18.18,0,0,1,.16.2.17.17,0,0,1-.19.16.17.17,0,0,1-.17-.19A.19.19,0,0,1,77.13,55Z"/><path class="cls-13" d="M79.28,55.2a.18.18,0,0,1,.16.2.17.17,0,0,1-.19.16.17.17,0,0,1-.17-.19A.19.19,0,0,1,79.28,55.2Z"/><path class="cls-27" d="M87.18,48.2a.38.38,0,0,1,.47,0A2.4,2.4,0,0,0,90.74,48,2.22,2.22,0,0,0,91.42,45a.36.36,0,0,1,.12-.51.36.36,0,0,1,.51.12,3,3,0,0,1-.83,3.88,3.14,3.14,0,0,1-4,.25.37.37,0,0,1-.06-.52A.12.12,0,0,1,87.18,48.2Z"/><path class="cls-27" d="M76.28,57.42a.36.36,0,0,1,.47,0,2.4,2.4,0,0,0,3.09-.24,2.22,2.22,0,0,0,.68-2.92.37.37,0,0,1,.63-.4,3,3,0,0,1-.83,3.89,3.14,3.14,0,0,1-4,.25.37.37,0,0,1-.06-.52Z"/><rect class="cls-7" x="75.51" y="57.59" width="1.25" height="1.61" rx="0.32" ry="0.32" transform="translate(-19.71 62.99) rotate(-40.24)"/><path class="cls-35" d="M76,59.15l-.59-.69.09-.08a.11.11,0,0,1,.15,0l.45.53a.1.1,0,0,1,0,.15Z"/><rect class="cls-7" x="91.87" y="43.62" width="1.57" height="1.61" rx="0.32" ry="0.32" transform="translate(-6.77 70.35) rotate(-40.23)"/><path class="cls-35" d="M93.54,44.26,93,43.57l-.1.08a.11.11,0,0,0,0,.15l.45.53a.11.11,0,0,0,.15,0Z"/><rect class="cls-12" y="133.96" width="150" height="16.04"/><g class="cls-36"><g id="_Grupo_" data-name="&lt;Grupo&gt;" class="cls-37"><g id="_Grupo_2" data-name="&lt;Grupo&gt;"><path id="_Trazado_" data-name="&lt;Trazado&gt;" class="cls-38" d="M8.9,13.48c-.5,1.36-.87,1.93-1.37,1.74s-.33-1,.14-2.27a40.26,40.26,0,0,1,2.58-5.11A40.67,40.67,0,0,1,8.9,13.48Z"/><path id="_Trazado_2" data-name="&lt;Trazado&gt;" class="cls-38" d="M2,31.25C1.47,32.61,1.1,33.18.59,33s-.32-1,.14-2.28a41.23,41.23,0,0,1,2.59-5.11A40.67,40.67,0,0,1,2,31.25Z"/></g><g id="_Grupo_3" data-name="&lt;Grupo&gt;"><path id="_Trazado_3" data-name="&lt;Trazado&gt;" class="cls-38" d="M23.28,6.63c-.5,1.36-.87,1.94-1.38,1.75s-.32-1,.15-2.28A40.61,40.61,0,0,1,24.63,1,40.66,40.66,0,0,1,23.28,6.63Z"/><path id="_Trazado_4" data-name="&lt;Trazado&gt;" class="cls-38" d="M16.35,24.41c-.51,1.36-.88,1.93-1.38,1.74s-.32-1,.14-2.27a40.26,40.26,0,0,1,2.58-5.11A40.07,40.07,0,0,1,16.35,24.41Z"/><path id="_Trazado_5" data-name="&lt;Trazado&gt;" class="cls-38" d="M9.41,42.18c-.5,1.36-.87,1.93-1.37,1.75s-.32-1,.14-2.28a40.26,40.26,0,0,1,2.58-5.11A40.67,40.67,0,0,1,9.41,42.18Z"/><path id="_Trazado_6" data-name="&lt;Trazado&gt;" class="cls-38" d="M2.48,60C2,61.32,1.61,61.89,1.1,61.7s-.32-1,.15-2.27a40.26,40.26,0,0,1,2.58-5.11A40.67,40.67,0,0,1,2.48,60Z"/></g><g id="_Grupo_4" data-name="&lt;Grupo&gt;"><path id="_Trazado_7" data-name="&lt;Trazado&gt;" class="cls-38" d="M44.59-1C44.09.4,43.72,1,43.22.78s-.33-1,.14-2.27A40.26,40.26,0,0,1,45.94-6.6,40.67,40.67,0,0,1,44.59-1Z"/><path id="_Trazado_8" data-name="&lt;Trazado&gt;" class="cls-38" d="M37.66,16.81c-.51,1.36-.88,1.93-1.38,1.75s-.32-1,.14-2.28A41.3,41.3,0,0,1,39,11.18,40.06,40.06,0,0,1,37.66,16.81Z"/><path id="_Trazado_9" data-name="&lt;Trazado&gt;" class="cls-38" d="M30.72,34.59c-.5,1.36-.87,1.93-1.37,1.74s-.32-1,.14-2.27A40.26,40.26,0,0,1,32.07,29,40.67,40.67,0,0,1,30.72,34.59Z"/><path id="_Trazado_10" data-name="&lt;Trazado&gt;" class="cls-38" d="M23.79,52.36c-.5,1.36-.87,1.93-1.37,1.75s-.33-1,.14-2.28a40.26,40.26,0,0,1,2.58-5.11A40.67,40.67,0,0,1,23.79,52.36Z"/><path id="_Trazado_11" data-name="&lt;Trazado&gt;" class="cls-38" d="M16.86,70.14c-.51,1.36-.88,1.93-1.38,1.74s-.32-1,.14-2.27a41.23,41.23,0,0,1,2.59-5.11A40.67,40.67,0,0,1,16.86,70.14Z"/><path id="_Trazado_12" data-name="&lt;Trazado&gt;" class="cls-38" d="M9.92,87.91c-.5,1.36-.87,1.93-1.37,1.75s-.32-1,.14-2.28a40.26,40.26,0,0,1,2.58-5.11A39.17,39.17,0,0,1,9.92,87.91Z"/><path id="_Trazado_13" data-name="&lt;Trazado&gt;" class="cls-38" d="M3,105.68c-.5,1.37-.87,1.94-1.37,1.75s-.33-1,.14-2.27a40.26,40.26,0,0,1,2.58-5.11A40.32,40.32,0,0,1,3,105.68Z"/></g><g id="_Grupo_5" data-name="&lt;Grupo&gt;"><path id="_Trazado_14" data-name="&lt;Trazado&gt;" class="cls-38" d="M52,10c-.5,1.36-.87,1.93-1.37,1.75s-.32-1,.14-2.28a40.26,40.26,0,0,1,2.58-5.11A39.17,39.17,0,0,1,52,10Z"/><path id="_Trazado_15" data-name="&lt;Trazado&gt;" class="cls-38" d="M45.1,27.74c-.5,1.37-.87,1.94-1.37,1.75s-.33-1,.14-2.27a40.26,40.26,0,0,1,2.58-5.11A40.32,40.32,0,0,1,45.1,27.74Z"/><path id="_Trazado_16" data-name="&lt;Trazado&gt;" class="cls-38" d="M38.17,45.52c-.5,1.36-.87,1.93-1.38,1.75s-.32-1,.15-2.28a40.26,40.26,0,0,1,2.58-5.11A40.67,40.67,0,0,1,38.17,45.52Z"/><path id="_Trazado_17" data-name="&lt;Trazado&gt;" class="cls-38" d="M31.23,63.29c-.5,1.36-.87,1.94-1.37,1.75s-.32-1,.14-2.27a40.26,40.26,0,0,1,2.58-5.11A39.16,39.16,0,0,1,31.23,63.29Z"/><path id="_Trazado_18" data-name="&lt;Trazado&gt;" class="cls-38" d="M24.3,81.07c-.5,1.36-.87,1.93-1.37,1.74s-.33-1,.14-2.27a40.26,40.26,0,0,1,2.58-5.11A40.67,40.67,0,0,1,24.3,81.07Z"/><path id="_Trazado_19" data-name="&lt;Trazado&gt;" class="cls-38" d="M17.37,98.84c-.5,1.36-.87,1.93-1.38,1.75s-.32-1,.14-2.28a41.23,41.23,0,0,1,2.59-5.11A40.67,40.67,0,0,1,17.37,98.84Z"/><path id="_Trazado_20" data-name="&lt;Trazado&gt;" class="cls-38" d="M10.43,116.62c-.5,1.36-.87,1.93-1.37,1.74s-.32-1,.14-2.27A40.26,40.26,0,0,1,11.78,111,39.17,39.17,0,0,1,10.43,116.62Z"/></g><g id="_Grupo_6" data-name="&lt;Grupo&gt;"><path id="_Trazado_21" data-name="&lt;Trazado&gt;" class="cls-38" d="M73.35,2.38c-.51,1.36-.88,1.93-1.38,1.74s-.32-1,.14-2.27a40.26,40.26,0,0,1,2.58-5.11A40.07,40.07,0,0,1,73.35,2.38Z"/><path id="_Trazado_22" data-name="&lt;Trazado&gt;" class="cls-38" d="M66.41,20.15c-.5,1.36-.87,1.93-1.37,1.75s-.32-1,.14-2.28a40.26,40.26,0,0,1,2.58-5.11A40.67,40.67,0,0,1,66.41,20.15Z"/><path id="_Trazado_23" data-name="&lt;Trazado&gt;" class="cls-38" d="M59.48,37.92c-.5,1.37-.87,1.94-1.37,1.75s-.33-1,.14-2.27a40.26,40.26,0,0,1,2.58-5.11A40.32,40.32,0,0,1,59.48,37.92Z"/><path id="_Trazado_24" data-name="&lt;Trazado&gt;" class="cls-38" d="M52.55,55.7c-.51,1.36-.88,1.93-1.38,1.74s-.32-1,.14-2.27a41.73,41.73,0,0,1,2.58-5.11A40.07,40.07,0,0,1,52.55,55.7Z"/><path id="_Trazado_25" data-name="&lt;Trazado&gt;" class="cls-38" d="M45.61,73.47c-.5,1.36-.87,1.93-1.37,1.75s-.33-1,.14-2.28A40.61,40.61,0,0,1,47,67.84,40.66,40.66,0,0,1,45.61,73.47Z"/><path id="_Trazado_26" data-name="&lt;Trazado&gt;" class="cls-38" d="M38.68,91.25c-.5,1.36-.87,1.93-1.38,1.74s-.32-1,.15-2.27A40.26,40.26,0,0,1,40,85.61,40.67,40.67,0,0,1,38.68,91.25Z"/><path id="_Trazado_27" data-name="&lt;Trazado&gt;" class="cls-38" d="M31.74,109c-.5,1.36-.87,1.93-1.37,1.75s-.32-1,.14-2.28a39.85,39.85,0,0,1,2.58-5.1A39.16,39.16,0,0,1,31.74,109Z"/><path id="_Trazado_28" data-name="&lt;Trazado&gt;" class="cls-38" d="M24.81,126.8c-.5,1.36-.87,1.93-1.37,1.74s-.32-1,.14-2.27a40.26,40.26,0,0,1,2.58-5.11A40.67,40.67,0,0,1,24.81,126.8Z"/></g><g id="_Grupo_7" data-name="&lt;Grupo&gt;"><path id="_Trazado_29" data-name="&lt;Trazado&gt;" class="cls-38" d="M80.79,13.31c-.5,1.36-.87,1.93-1.37,1.74s-.33-1,.14-2.27a40.26,40.26,0,0,1,2.58-5.11A40.67,40.67,0,0,1,80.79,13.31Z"/><path id="_Trazado_30" data-name="&lt;Trazado&gt;" class="cls-38" d="M73.86,31.08c-.51,1.36-.88,1.93-1.38,1.75s-.32-1,.14-2.28a41.23,41.23,0,0,1,2.59-5.11A40.67,40.67,0,0,1,73.86,31.08Z"/><path id="_Trazado_31" data-name="&lt;Trazado&gt;" class="cls-38" d="M66.92,48.86c-.5,1.36-.87,1.93-1.37,1.74s-.32-1,.14-2.27a40.26,40.26,0,0,1,2.58-5.11A39.17,39.17,0,0,1,66.92,48.86Z"/><path id="_Trazado_32" data-name="&lt;Trazado&gt;" class="cls-38" d="M60,66.63c-.5,1.36-.87,1.93-1.37,1.75s-.33-1,.14-2.28A40.26,40.26,0,0,1,61.34,61,40.67,40.67,0,0,1,60,66.63Z"/><path id="_Trazado_33" data-name="&lt;Trazado&gt;" class="cls-38" d="M53.06,84.4c-.51,1.37-.87,1.94-1.38,1.75s-.32-1,.14-2.27a41.23,41.23,0,0,1,2.59-5.11A40.32,40.32,0,0,1,53.06,84.4Z"/><path id="_Trazado_34" data-name="&lt;Trazado&gt;" class="cls-38" d="M46.12,102.18c-.5,1.36-.87,1.93-1.37,1.75s-.32-1,.14-2.28a40.26,40.26,0,0,1,2.58-5.11A39.17,39.17,0,0,1,46.12,102.18Z"/><path id="_Trazado_35" data-name="&lt;Trazado&gt;" class="cls-38" d="M39.19,120c-.5,1.36-.87,1.94-1.37,1.75s-.33-1,.14-2.27a40.26,40.26,0,0,1,2.58-5.11A40.32,40.32,0,0,1,39.19,120Z"/></g><g id="_Grupo_8" data-name="&lt;Grupo&gt;"><path id="_Trazado_36" data-name="&lt;Trazado&gt;" class="cls-38" d="M102.1,5.71c-.5,1.36-.87,1.93-1.37,1.75s-.33-1,.14-2.28a39.85,39.85,0,0,1,2.58-5.1A40.66,40.66,0,0,1,102.1,5.71Z"/><path id="_Trazado_37" data-name="&lt;Trazado&gt;" class="cls-38" d="M95.17,23.49c-.5,1.36-.87,1.93-1.38,1.74s-.32-1,.15-2.27a40.26,40.26,0,0,1,2.58-5.11A40.67,40.67,0,0,1,95.17,23.49Z"/><path id="_Trazado_38" data-name="&lt;Trazado&gt;" class="cls-38" d="M88.23,41.26c-.5,1.36-.87,1.93-1.37,1.75s-.32-1,.14-2.28a40.26,40.26,0,0,1,2.58-5.11A39.17,39.17,0,0,1,88.23,41.26Z"/><path id="_Trazado_39" data-name="&lt;Trazado&gt;" class="cls-38" d="M81.3,59c-.5,1.36-.87,1.93-1.37,1.74s-.33-1,.14-2.27a40.26,40.26,0,0,1,2.58-5.11A40.67,40.67,0,0,1,81.3,59Z"/><path id="_Trazado_40" data-name="&lt;Trazado&gt;" class="cls-38" d="M74.37,76.81c-.5,1.36-.87,1.93-1.38,1.75s-.32-1,.14-2.28a41.23,41.23,0,0,1,2.59-5.11A40.67,40.67,0,0,1,74.37,76.81Z"/><path id="_Trazado_41" data-name="&lt;Trazado&gt;" class="cls-38" d="M67.44,94.58c-.51,1.37-.88,1.94-1.38,1.75s-.32-1,.14-2.27A40.26,40.26,0,0,1,68.78,89,39.73,39.73,0,0,1,67.44,94.58Z"/><path id="_Trazado_42" data-name="&lt;Trazado&gt;" class="cls-38" d="M60.5,112.36c-.5,1.36-.87,1.93-1.37,1.75s-.33-1,.14-2.28a40.26,40.26,0,0,1,2.58-5.11A40.67,40.67,0,0,1,60.5,112.36Z"/><path id="_Trazado_43" data-name="&lt;Trazado&gt;" class="cls-38" d="M53.57,130.13c-.5,1.36-.87,1.94-1.38,1.75s-.32-1,.15-2.28a39.85,39.85,0,0,1,2.58-5.1A40.66,40.66,0,0,1,53.57,130.13Z"/></g><g id="_Grupo_9" data-name="&lt;Grupo&gt;"><path id="_Trazado_44" data-name="&lt;Trazado&gt;" class="cls-38" d="M116.48-1.13C116,.23,115.61.8,115.1.62s-.32-1,.15-2.28a40.26,40.26,0,0,1,2.58-5.11A40.67,40.67,0,0,1,116.48-1.13Z"/><path id="_Trazado_45" data-name="&lt;Trazado&gt;" class="cls-38" d="M109.55,16.64c-.51,1.37-.88,1.94-1.38,1.75s-.32-1,.14-2.27A41.73,41.73,0,0,1,110.89,11,39.73,39.73,0,0,1,109.55,16.64Z"/><path id="_Trazado_46" data-name="&lt;Trazado&gt;" class="cls-38" d="M102.61,34.42c-.5,1.36-.87,1.93-1.37,1.75s-.32-1,.14-2.28A40.26,40.26,0,0,1,104,28.78,40.67,40.67,0,0,1,102.61,34.42Z"/><path id="_Trazado_47" data-name="&lt;Trazado&gt;" class="cls-38" d="M95.68,52.19c-.5,1.36-.87,1.94-1.38,1.75s-.32-1,.15-2.28A40.61,40.61,0,0,1,97,46.56,40.66,40.66,0,0,1,95.68,52.19Z"/><path id="_Trazado_48" data-name="&lt;Trazado&gt;" class="cls-38" d="M88.75,70c-.51,1.36-.88,1.93-1.38,1.74s-.32-1,.14-2.27a39.8,39.8,0,0,1,2.59-5.11A40.67,40.67,0,0,1,88.75,70Z"/><path id="_Trazado_49" data-name="&lt;Trazado&gt;" class="cls-38" d="M81.81,87.74c-.5,1.36-.87,1.93-1.37,1.75s-.32-1,.14-2.28a39.85,39.85,0,0,1,2.58-5.1A39.16,39.16,0,0,1,81.81,87.74Z"/><path id="_Trazado_50" data-name="&lt;Trazado&gt;" class="cls-38" d="M74.88,105.52c-.5,1.36-.87,1.93-1.38,1.74s-.32-1,.15-2.27a40.26,40.26,0,0,1,2.58-5.11A40.67,40.67,0,0,1,74.88,105.52Z"/><path id="_Trazado_51" data-name="&lt;Trazado&gt;" class="cls-38" d="M68,123.29c-.51,1.36-.88,1.93-1.38,1.75s-.32-1,.14-2.28a41.23,41.23,0,0,1,2.59-5.11A40.67,40.67,0,0,1,68,123.29Z"/></g><g id="_Grupo_10" data-name="&lt;Grupo&gt;"><path id="_Trazado_52" data-name="&lt;Trazado&gt;" class="cls-38" d="M130.86,9.05c-.51,1.36-.88,1.93-1.38,1.75s-.32-1,.14-2.28a41.23,41.23,0,0,1,2.59-5.11A40.67,40.67,0,0,1,130.86,9.05Z"/><path id="_Trazado_53" data-name="&lt;Trazado&gt;" class="cls-38" d="M123.92,26.82c-.5,1.36-.87,1.94-1.37,1.75s-.32-1,.14-2.27a40.26,40.26,0,0,1,2.58-5.11A38.84,38.84,0,0,1,123.92,26.82Z"/><path id="_Trazado_54" data-name="&lt;Trazado&gt;" class="cls-38" d="M117,44.6c-.5,1.36-.87,1.93-1.37,1.74s-.33-1,.14-2.27A40.26,40.26,0,0,1,118.34,39,40.67,40.67,0,0,1,117,44.6Z"/><path id="_Trazado_55" data-name="&lt;Trazado&gt;" class="cls-38" d="M110.06,62.37c-.51,1.36-.87,1.93-1.38,1.75s-.32-1,.14-2.28a41.6,41.6,0,0,1,2.59-5.1A40.66,40.66,0,0,1,110.06,62.37Z"/><path id="_Trazado_56" data-name="&lt;Trazado&gt;" class="cls-38" d="M103.12,80.15c-.5,1.36-.87,1.93-1.37,1.74s-.32-1,.14-2.27a40.26,40.26,0,0,1,2.58-5.11A39.17,39.17,0,0,1,103.12,80.15Z"/><path id="_Trazado_57" data-name="&lt;Trazado&gt;" class="cls-38" d="M96.19,97.92c-.5,1.36-.87,1.93-1.37,1.75s-.33-1,.14-2.28a40.26,40.26,0,0,1,2.58-5.11A40.67,40.67,0,0,1,96.19,97.92Z"/><path id="_Trazado_58" data-name="&lt;Trazado&gt;" class="cls-38" d="M89.26,115.7c-.5,1.36-.88,1.93-1.38,1.74s-.32-1,.14-2.27a41.23,41.23,0,0,1,2.59-5.11A40.67,40.67,0,0,1,89.26,115.7Z"/><path id="_Trazado_59" data-name="&lt;Trazado&gt;" class="cls-38" d="M82.32,133.47c-.5,1.36-.87,1.93-1.37,1.75s-.32-1,.14-2.28a40.26,40.26,0,0,1,2.58-5.11A39.17,39.17,0,0,1,82.32,133.47Z"/></g><g id="_Grupo_11" data-name="&lt;Grupo&gt;"><path id="_Trazado_60" data-name="&lt;Trazado&gt;" class="cls-38" d="M145.23,2.21c-.5,1.36-.87,1.93-1.37,1.74s-.32-1,.14-2.27a40.26,40.26,0,0,1,2.58-5.11A39.17,39.17,0,0,1,145.23,2.21Z"/><path id="_Trazado_61" data-name="&lt;Trazado&gt;" class="cls-38" d="M138.3,20c-.5,1.36-.87,1.93-1.37,1.75s-.33-1,.14-2.28a40.26,40.26,0,0,1,2.58-5.11A40.67,40.67,0,0,1,138.3,20Z"/><path id="_Trazado_62" data-name="&lt;Trazado&gt;" class="cls-38" d="M131.37,37.76c-.5,1.36-.87,1.93-1.38,1.74s-.32-1,.15-2.27a40.26,40.26,0,0,1,2.58-5.11A40.67,40.67,0,0,1,131.37,37.76Z"/><path id="_Trazado_63" data-name="&lt;Trazado&gt;" class="cls-38" d="M124.43,55.53c-.5,1.36-.87,1.93-1.37,1.75s-.32-1,.14-2.28a40.26,40.26,0,0,1,2.58-5.11A39.17,39.17,0,0,1,124.43,55.53Z"/><path id="_Trazado_64" data-name="&lt;Trazado&gt;" class="cls-38" d="M117.5,73.31c-.5,1.36-.87,1.93-1.37,1.74s-.33-1,.14-2.27a40.26,40.26,0,0,1,2.58-5.11A40.67,40.67,0,0,1,117.5,73.31Z"/><path id="_Trazado_65" data-name="&lt;Trazado&gt;" class="cls-38" d="M110.57,91.08c-.5,1.36-.87,1.93-1.38,1.75s-.32-1,.15-2.28a40.26,40.26,0,0,1,2.58-5.11A40.67,40.67,0,0,1,110.57,91.08Z"/><path id="_Trazado_66" data-name="&lt;Trazado&gt;" class="cls-38" d="M103.63,108.85c-.5,1.37-.87,1.94-1.37,1.75s-.32-1,.14-2.28a40.61,40.61,0,0,1,2.58-5.1A38.84,38.84,0,0,1,103.63,108.85Z"/><path id="_Trazado_67" data-name="&lt;Trazado&gt;" class="cls-38" d="M96.7,126.63c-.5,1.36-.87,1.93-1.37,1.75s-.33-1,.14-2.28A40.26,40.26,0,0,1,98.05,121,40.67,40.67,0,0,1,96.7,126.63Z"/></g><g id="_Grupo_12" data-name="&lt;Grupo&gt;"><path id="_Trazado_68" data-name="&lt;Trazado&gt;" class="cls-38" d="M145.75,47.94c-.51,1.36-.88,1.93-1.38,1.74s-.32-1,.14-2.27a41.23,41.23,0,0,1,2.59-5.11A40.67,40.67,0,0,1,145.75,47.94Z"/><path id="_Trazado_69" data-name="&lt;Trazado&gt;" class="cls-38" d="M138.81,65.71c-.5,1.36-.87,1.93-1.37,1.75s-.32-1,.14-2.28a40.26,40.26,0,0,1,2.58-5.11A39.17,39.17,0,0,1,138.81,65.71Z"/><path id="_Trazado_70" data-name="&lt;Trazado&gt;" class="cls-38" d="M131.88,83.48c-.5,1.37-.87,1.94-1.37,1.75s-.33-1,.14-2.27a40.26,40.26,0,0,1,2.58-5.11A40.32,40.32,0,0,1,131.88,83.48Z"/><path id="_Trazado_71" data-name="&lt;Trazado&gt;" class="cls-38" d="M125,101.26c-.51,1.36-.87,1.93-1.38,1.74s-.32-1,.14-2.27a41.23,41.23,0,0,1,2.59-5.11A40.67,40.67,0,0,1,125,101.26Z"/><path id="_Trazado_72" data-name="&lt;Trazado&gt;" class="cls-38" d="M118,119c-.5,1.36-.87,1.93-1.37,1.75s-.32-1,.14-2.27a40.26,40.26,0,0,1,2.58-5.11A40.66,40.66,0,0,1,118,119Z"/><path id="_Trazado_73" data-name="&lt;Trazado&gt;" class="cls-38" d="M111.08,136.81c-.5,1.36-.87,1.93-1.37,1.74s-.33-1,.14-2.27a40.26,40.26,0,0,1,2.58-5.11A40.67,40.67,0,0,1,111.08,136.81Z"/></g><g id="_Grupo_13" data-name="&lt;Grupo&gt;"><path id="_Trazado_74" data-name="&lt;Trazado&gt;" class="cls-38" d="M146.26,76.64c-.5,1.36-.87,1.93-1.38,1.75s-.32-1,.14-2.28a40.81,40.81,0,0,1,2.59-5.1A40.66,40.66,0,0,1,146.26,76.64Z"/><path id="_Trazado_75" data-name="&lt;Trazado&gt;" class="cls-38" d="M139.33,94.42c-.51,1.36-.88,1.93-1.38,1.74s-.32-1,.14-2.27a40.26,40.26,0,0,1,2.58-5.11A40.07,40.07,0,0,1,139.33,94.42Z"/><path id="_Trazado_76" data-name="&lt;Trazado&gt;" class="cls-38" d="M132.39,112.19c-.5,1.36-.87,1.93-1.37,1.75s-.33-1,.14-2.28a40.26,40.26,0,0,1,2.58-5.11A40.67,40.67,0,0,1,132.39,112.19Z"/><path id="_Trazado_77" data-name="&lt;Trazado&gt;" class="cls-38" d="M125.46,130c-.5,1.36-.87,1.93-1.38,1.74s-.32-1,.15-2.27a40.26,40.26,0,0,1,2.58-5.11A40.67,40.67,0,0,1,125.46,130Z"/></g><g id="_Grupo_14" data-name="&lt;Grupo&gt;"><path id="_Trazado_78" data-name="&lt;Trazado&gt;" class="cls-38" d="M146.77,122.37c-.5,1.36-.87,1.93-1.38,1.75s-.32-1,.15-2.28a40.26,40.26,0,0,1,2.58-5.11A40.67,40.67,0,0,1,146.77,122.37Z"/><path id="_Trazado_79" data-name="&lt;Trazado&gt;" class="cls-38" d="M139.84,140.14c-.51,1.37-.88,1.94-1.38,1.75s-.32-1,.14-2.28a42.11,42.11,0,0,1,2.58-5.1A39.73,39.73,0,0,1,139.84,140.14Z"/></g></g></g></svg>