<svg xmlns="http://www.w3.org/2000/svg" xmlns:xlink="http://www.w3.org/1999/xlink" viewBox="0 0 150 150"><defs><style>.cls-1,.cls-23,.cls-24,.cls-25,.cls-26,.cls-27,.cls-28,.cls-29,.cls-30,.cls-32{fill:none;}.cls-2{isolation:isolate;}.cls-3{clip-path:url(#clip-path);}.cls-4{fill:url(#Degradado_sin_nombre_11);}.cls-5{fill:#bfcad8;}.cls-6{fill:#97acc1;}.cls-7{fill:#62728e;}.cls-8{fill:#b0254d;}.cls-9{fill:#f24649;}.cls-10{fill:#375075;}.cls-11{fill:#253c66;}.cls-12{fill:#98737b;}.cls-13{fill:#4c577a;}.cls-14{fill:#dac9cb;}.cls-15{fill:#8d8996;}.cls-16{fill:#87919c;}.cls-17{fill:#36496f;}.cls-18{fill:#616b8a;}.cls-19{fill:#1a2f5a;}.cls-20,.cls-21,.cls-22,.cls-23,.cls-24,.cls-25,.cls-26,.cls-27,.cls-28,.cls-29,.cls-30{mix-blend-mode:screen;}.cls-20{fill:url(#Безымянный_градиент_34);}.cls-21{fill:url(#Безымянный_градиент_34-2);}.cls-22{fill:url(#Безымянный_градиент_59);}.cls-23,.cls-24,.cls-25,.cls-26,.cls-27,.cls-28,.cls-29,.cls-30,.cls-32{stroke-miterlimit:10;}.cls-23,.cls-24,.cls-25,.cls-26,.cls-27,.cls-28,.cls-29,.cls-30{opacity:0.2;}.cls-23{stroke:url(#Безымянный_градиент_34-3);}.cls-24{stroke:url(#Безымянный_градиент_34-4);}.cls-25{stroke:url(#Безымянный_градиент_34-5);}.cls-26{stroke:url(#Безымянный_градиент_34-6);}.cls-27{stroke:url(#Безымянный_градиент_34-7);}.cls-28{stroke:url(#Безымянный_градиент_34-8);}.cls-29{stroke:url(#Безымянный_градиент_34-9);}.cls-30{stroke:url(#Безымянный_градиент_34-10);}.cls-31{fill:#b0bfd1;opacity:0.72;}.cls-32{stroke:#ff0;stroke-width:0.75px;}.cls-33{fill:#ff0;}</style><clipPath id="clip-path"><rect class="cls-1" width="150" height="150"/></clipPath><linearGradient id="Degradado_sin_nombre_11" x1="75" x2="75" y2="109" gradientUnits="userSpaceOnUse"><stop offset="0.07" stop-color="#ffffd7"/><stop offset="0.26" stop-color="#fcb249"/><stop offset="0.28" stop-color="#f7b452"/><stop offset="0.39" stop-color="#d9bf89"/><stop offset="0.49" stop-color="#c2c7b1"/><stop offset="0.56" stop-color="#b5ccc9"/><stop offset="0.61" stop-color="#b0ced2"/><stop offset="0.99" stop-color="#f2f2f2"/></linearGradient><radialGradient id="Безымянный_градиент_34" cx="29.77" cy="30.61" r="44.94" gradientUnits="userSpaceOnUse"><stop offset="0" stop-color="#fff"/><stop offset="0.01" stop-color="#fff" stop-opacity="0.98"/><stop offset="0.09" stop-color="#fff" stop-opacity="0.77"/><stop offset="0.17" stop-color="#fff" stop-opacity="0.59"/><stop offset="0.26" stop-color="#fff" stop-opacity="0.43"/><stop offset="0.35" stop-color="#fff" stop-opacity="0.3"/><stop offset="0.45" stop-color="#fff" stop-opacity="0.19"/><stop offset="0.55" stop-color="#fff" stop-opacity="0.11"/><stop offset="0.66" stop-color="#fff" stop-opacity="0.05"/><stop offset="0.8" stop-color="#fff" stop-opacity="0.01"/><stop offset="1" stop-color="#fff" stop-opacity="0"/></radialGradient><radialGradient id="Безымянный_градиент_34-2" cx="29.77" cy="30.61" r="61.02" xlink:href="#Безымянный_градиент_34"/><radialGradient id="Безымянный_градиент_59" cx="29.77" cy="30.61" r="14.45" gradientUnits="userSpaceOnUse"><stop offset="0" stop-color="#fff"/><stop offset="0.15" stop-color="#fff" stop-opacity="0.88"/><stop offset="0.47" stop-color="#fff" stop-opacity="0.56"/><stop offset="0.94" stop-color="#fff" stop-opacity="0.07"/><stop offset="1" stop-color="#fff" stop-opacity="0"/></radialGradient><radialGradient id="Безымянный_градиент_34-3" cx="29.77" cy="30.61" r="80" gradientTransform="matrix(-0.92, 0.38, -0.04, -0.09, 58.34, 21.76)" xlink:href="#Безымянный_градиент_34"/><radialGradient id="Безымянный_градиент_34-4" cx="29.77" cy="30.61" r="80" gradientTransform="matrix(-0.92, 0.38, -0.04, -0.09, 58.34, 21.76)" xlink:href="#Безымянный_градиент_34"/><radialGradient id="Безымянный_градиент_34-5" cx="29.77" cy="30.61" r="80.12" gradientTransform="matrix(-0.92, -0.38, 0.04, -0.09, 56.23, 44.56)" xlink:href="#Безымянный_градиент_34"/><radialGradient id="Безымянный_градиент_34-6" cx="29.77" cy="30.61" r="80.12" gradientTransform="matrix(-0.92, -0.38, 0.04, -0.09, 56.23, 44.56)" xlink:href="#Безымянный_градиент_34"/><radialGradient id="Безымянный_градиент_34-7" cx="29.77" cy="30.61" r="80.08" gradientTransform="matrix(-0.71, -0.71, 0.07, -0.07, 48.83, 53.66)" xlink:href="#Безымянный_градиент_34"/><radialGradient id="Безымянный_градиент_34-8" cx="29.77" cy="30.61" r="80.08" gradientTransform="translate(48.83 53.66) rotate(-135) scale(1 0.09)" xlink:href="#Безымянный_градиент_34"/><radialGradient id="Безымянный_градиент_34-9" cx="29.77" cy="30.61" r="80.09" gradientTransform="translate(59.54 33.43) rotate(180) scale(1 0.09)" xlink:href="#Безымянный_градиент_34"/><radialGradient id="Безымянный_градиент_34-10" cx="29.77" cy="30.61" r="80.09" gradientTransform="translate(59.54 33.43) rotate(180) scale(1 0.09)" xlink:href="#Безымянный_градиент_34"/></defs><title>Mesa de trabajo 2</title><g class="cls-2"><g id="Capa_1" data-name="Capa 1"><g class="cls-3"><rect class="cls-4" width="150" height="109"/><rect class="cls-5" x="1.22" y="81.91" width="12.24" height="48.43"/><rect class="cls-5" x="16.3" y="87.05" width="11.84" height="43.29"/><rect class="cls-5" x="26.69" y="102.61" width="10.65" height="27.72"/><rect class="cls-5" x="40.82" y="105.13" width="10.45" height="25.21"/><rect class="cls-5" x="57.08" y="109.08" width="10.15" height="21.26"/><rect class="cls-5" x="69.9" y="108.76" width="10.18" height="21.58"/><polygon class="cls-5" points="114.29 123.61 130 123.61 126.9 88.06 118.03 88.06 114.29 123.61"/><rect class="cls-5" x="91.71" y="84.59" width="12.03" height="45.74"/><rect class="cls-5" x="108.49" y="119.29" width="9.37" height="11.05"/><rect class="cls-5" x="132.7" y="106.76" width="10.33" height="23.58"/><rect class="cls-6" x="146.36" y="107.42" width="10.5" height="28.31"/><rect class="cls-6" x="135.32" y="99.47" width="11.23" height="36.26"/><rect class="cls-6" x="122.14" y="126.52" width="8.74" height="9.21"/><rect class="cls-6" x="113.74" y="113.65" width="9.92" height="22.08"/><rect class="cls-6" x="98.66" y="116.75" width="9.64" height="18.98"/><rect class="cls-6" x="84.34" y="102.51" width="10.95" height="33.22"/><rect class="cls-6" x="73.16" y="117.12" width="9.61" height="18.61"/><rect class="cls-6" x="66.16" y="123.4" width="9.03" height="12.33"/><rect class="cls-6" x="52.44" y="104.76" width="10.74" height="30.97"/><rect class="cls-6" x="36.58" y="106.94" width="10.54" height="28.79"/><rect class="cls-6" x="28.52" y="112.96" width="9.99" height="22.77"/><rect class="cls-6" x="10.46" y="100.86" width="11.1" height="34.87"/><rect class="cls-6" x="0.13" y="123.48" width="9.02" height="12.25"/><rect class="cls-6" x="140.6" y="114.37" width="11.22" height="21.36"/><rect class="cls-6" x="127.44" y="129.32" width="8.73" height="6.41"/><rect class="cls-6" x="119.05" y="122.21" width="9.91" height="13.52"/><rect class="cls-6" x="106.45" y="123.92" width="9.63" height="11.81"/><rect class="cls-6" x="89.68" y="116.05" width="10.94" height="19.68"/><rect class="cls-6" x="78.51" y="124.13" width="9.59" height="11.6"/><rect class="cls-6" x="71.52" y="127.6" width="9.02" height="8.13"/><rect class="cls-6" x="57.82" y="117.29" width="10.73" height="18.44"/><rect class="cls-6" x="41.98" y="118.5" width="10.53" height="17.23"/><rect class="cls-6" x="24.72" y="116.57" width="9.98" height="19.16"/><rect class="cls-6" x="15.89" y="115.13" width="11.09" height="20.6"/><rect class="cls-6" x="5.57" y="127.64" width="9.01" height="8.09"/><path class="cls-7" d="M84.14,132.79a24.75,24.75,0,0,1,0-5.79c.2-3.24,4.37-3.11,4.37-3.11l-.3-3.43s-9.12-3.18-13.26,1.43c-3.43,3.81-1.69,12.64-5.83,13s15.9,7.3,17.07,5Z"/><polygon class="cls-8" points="87.94 124.63 106.05 124.63 106.05 119.34 87.94 124.63"/><polygon class="cls-9" points="87.94 119.34 87.94 124.63 106.05 119.34 87.94 119.34"/><path class="cls-7" d="M52.66,143.53c2.44,0,4.52-1.13,4.52-2.54,0,1.41,2.09,2.54,4.52,2.54s4.52-1.13,4.52-2.54c0,1.41,2.08,2.54,4.52,2.54s4.51-1.13,4.51-2.54c0,1.41,2.09,2.54,4.52,2.54s4.52-1.13,4.52-2.54c0,1.41,2.08,2.54,4.52,2.54,2.28,0,4.15-1,4.38-2.28v-8.46H93c0,1.41-2,2.55-4.38,2.55s-4.49-1.14-4.49-2.55c0,1.41-2.08,2.55-4.5,2.55s-4.49-1.14-4.49-2.55c0,1.41-2.08,2.55-4.5,2.55s-4.5-1.14-4.5-2.55c0,1.41-2.07,2.55-4.49,2.55s-4.5-1.14-4.5-2.55c0,1.41-2.07,2.55-4.49,2.55s-4.39-1.14-4.39-2.55v8.46C48.51,142.53,50.39,143.53,52.66,143.53Z"/><path class="cls-10" d="M52.66,151.73c2.44,0,4.52-1.14,4.52-2.54,0,1.4,2.09,2.54,4.52,2.54s4.52-1.14,4.52-2.54c0,1.4,2.08,2.54,4.52,2.54s4.51-1.14,4.51-2.54c0,1.4,2.09,2.54,4.52,2.54s4.52-1.14,4.52-2.54c0,1.4,2.08,2.54,4.52,2.54,2.28,0,4.15-1,4.38-2.28v-8.2c-.23,1.28-2.1,2.28-4.38,2.28-2.44,0-4.52-1.13-4.52-2.54,0,1.41-2.09,2.54-4.52,2.54s-4.52-1.13-4.52-2.54c0,1.41-2.08,2.54-4.51,2.54s-4.52-1.13-4.52-2.54c0,1.41-2.09,2.54-4.52,2.54s-4.52-1.13-4.52-2.54c0,1.41-2.08,2.54-4.52,2.54-2.27,0-4.15-1-4.38-2.28v8.2C48.51,150.73,50.39,151.73,52.66,151.73Z"/><path class="cls-11" d="M88.81,151.73c-2.44,0-4.52-1.14-4.52-2.54,0,1.4-2.09,2.54-4.52,2.54s-4.52-1.14-4.52-2.54c0,1.4-2.08,2.54-4.51,2.54s-4.52-1.14-4.52-2.54c0,1.4-2.09,2.54-4.52,2.54s-4.52-1.14-4.52-2.54c0,1.4-2.08,2.54-4.52,2.54-2.27,0-4.15-1-4.38-2.28v8.19c.23,1.29,2.11,2.29,4.38,2.29,2.44,0,4.52-1.14,4.52-2.55,0,1.41,2.09,2.55,4.52,2.55s4.52-1.14,4.52-2.55c0,1.41,2.08,2.55,4.52,2.55s4.51-1.14,4.51-2.55c0,1.41,2.09,2.55,4.52,2.55s4.52-1.14,4.52-2.55c0,1.41,2.08,2.55,4.52,2.55,2.28,0,4.15-1,4.38-2.29v-8.19C93,150.73,91.09,151.73,88.81,151.73Z"/><path class="cls-7" d="M4.72,144.35c2.62,0,4.87-1.22,4.87-2.73,0,1.51,2.25,2.73,4.88,2.73s4.87-1.22,4.87-2.73c0,1.51,2.25,2.73,4.87,2.73s4.87-1.22,4.87-2.73c0,1.51,2.25,2.73,4.87,2.73s4.87-1.22,4.87-2.73c0,1.51,2.25,2.73,4.87,2.73,2.46,0,4.48-1.07,4.73-2.45v-9.11h-.19c0,1.52-2.11,2.74-4.72,2.74s-4.85-1.22-4.85-2.74c0,1.52-2.24,2.74-4.85,2.74S29,134.31,29,132.79c0,1.52-2.24,2.74-4.84,2.74s-4.85-1.22-4.85-2.74c0,1.52-2.24,2.74-4.85,2.74s-4.85-1.22-4.85-2.74c0,1.52-2.24,2.74-4.85,2.74S0,134.31,0,132.79v9.11C.24,143.28,2.27,144.35,4.72,144.35Z"/><path class="cls-10" d="M4.72,153.18c2.62,0,4.87-1.23,4.87-2.74,0,1.51,2.25,2.74,4.88,2.74s4.87-1.23,4.87-2.74c0,1.51,2.25,2.74,4.87,2.74s4.87-1.23,4.87-2.74c0,1.51,2.25,2.74,4.87,2.74s4.87-1.23,4.87-2.74c0,1.51,2.25,2.74,4.87,2.74,2.46,0,4.48-1.08,4.73-2.46V141.9c-.25,1.38-2.27,2.45-4.73,2.45-2.62,0-4.87-1.22-4.87-2.73,0,1.51-2.25,2.73-4.87,2.73s-4.87-1.22-4.87-2.73c0,1.51-2.25,2.73-4.87,2.73s-4.87-1.22-4.87-2.73c0,1.51-2.25,2.73-4.87,2.73s-4.88-1.22-4.88-2.73c0,1.51-2.25,2.73-4.87,2.73-2.45,0-4.48-1.07-4.72-2.45v8.82C.24,152.1,2.27,153.18,4.72,153.18Z"/><path class="cls-12" d="M0,157c6.77,3.05,27.23,5.73,34.66,5.73h5.27A52.43,52.43,0,0,0,79.3,144.92l.32-.36A52.41,52.41,0,0,1,119,126.75h62v49.49H0Z"/><path class="cls-7" d="M144.2,79.39c0,4-4,7.23-8.93,7.23s-8.93-3.24-8.93-7.23,4-7.24,8.93-7.24S144.2,75.39,144.2,79.39Z"/><path class="cls-7" d="M130,76.65c0,3.29-3.28,5.95-7.34,5.95s-7.33-2.66-7.33-5.95,3.28-5.94,7.33-5.94S130,73.37,130,76.65Z"/><path class="cls-7" d="M136,69.76c0,3-3,5.41-6.67,5.41s-6.68-2.42-6.68-5.41,3-5.4,6.68-5.4S136,66.78,136,69.76Z"/><path class="cls-7" d="M126.34,71.27c0,2-2,3.6-4.43,3.6s-4.44-1.61-4.44-3.6,2-3.59,4.44-3.59S126.34,69.29,126.34,71.27Z"/><path class="cls-7" d="M144.59,65.32c0,2.45-2.46,4.44-5.49,4.44s-5.49-2-5.49-4.44,2.46-4.45,5.49-4.45S144.59,62.86,144.59,65.32Z"/><path class="cls-7" d="M156.81,68.81c0,2.45-2.46,4.44-5.49,4.44s-5.49-2-5.49-4.44,2.46-4.45,5.49-4.45S156.81,66.35,156.81,68.81Z"/><path class="cls-7" d="M149.75,75.17c0,4.19-4.19,7.59-9.37,7.59S131,79.36,131,75.17s4.2-7.59,9.37-7.59S149.75,71,149.75,75.17Z"/><path class="cls-10" d="M148.47,82.6c0,4.19-4.19,7.59-9.37,7.59s-9.37-3.4-9.37-7.59S133.93,75,139.1,75,148.47,78.41,148.47,82.6Z"/><path class="cls-7" d="M160.88,81.72c0,4.06-4.07,7.36-9.09,7.36s-9.09-3.3-9.09-7.36,4.07-7.37,9.09-7.37S160.88,77.65,160.88,81.72Z"/><path class="cls-10" d="M158.59,88.54c0,3.77-3.77,6.82-8.42,6.82s-8.42-3-8.42-6.82,3.77-6.82,8.42-6.82S158.59,84.77,158.59,88.54Z"/><path class="cls-10" d="M164,85.84c0,3.69-3.69,6.68-8.25,6.68s-8.25-3-8.25-6.68,3.7-6.68,8.25-6.68S164,82.15,164,85.84Z"/><ellipse class="cls-10" cx="143.59" cy="83.81" rx="8.12" ry="6.58"/><ellipse class="cls-13" cx="152.06" cy="73.25" rx="7.47" ry="6.05"/><ellipse class="cls-7" cx="154.13" cy="67.58" rx="7.47" ry="6.05"/><path class="cls-7" d="M152.93,63.52c0,2.42-2.42,4.38-5.41,4.38s-5.4-2-5.4-4.38,2.42-4.38,5.4-4.38S152.93,61.1,152.93,63.52Z"/><path class="cls-13" d="M140.77,128.54H105.5V118c2-2,3.08-3.24,5-5.22h30.22v15.8Z"/><path class="cls-7" d="M108.78,81.72h2s1.3-2.09,2.93-2.41,5,2.41,5,2.41l.73-10.45a16,16,0,0,0-7.22,3.9C110.53,77,108.65,81.07,108.78,81.72Z"/><path class="cls-13" d="M119.53,94.27h2.38s-.77-7.33,3.57-7.65,8.09,1.47,10.5-.78-3.71-9.19-3.71-9.19-10,3.78-11.78,8.81A17.31,17.31,0,0,0,119.53,94.27Z"/><path class="cls-10" d="M132.36,94.27h2.38s-.77-7.33,3.58-7.65,8.08,1.47,10.49-.78-3.7-9.19-3.7-9.19-10,3.78-11.78,8.81A17.39,17.39,0,0,0,132.36,94.27Z"/><rect class="cls-9" x="106.21" y="99.73" width="3.55" height="0.01"/><rect class="cls-9" x="106.37" y="95.69" width="3.39" height="0.01"/><rect class="cls-9" x="106.05" y="103.76" width="3.7" height="0.01"/><rect class="cls-9" x="105.89" y="107.8" width="3.86" height="0.01"/><rect class="cls-9" x="105.74" y="111.83" width="4.02" height="0.01"/><polygon class="cls-9" points="105.58 115.87 105.5 117.96 109.75 117.96 109.75 115.87 105.58 115.87"/><rect class="cls-9" x="106.53" y="91.65" width="3.23" height="0.01"/><rect class="cls-9" x="106.68" y="87.62" width="3.07" height="0.01"/><rect class="cls-8" x="109.75" y="111.83" width="4.02" height="0.01"/><polygon class="cls-8" points="109.75 117.96 114.01 117.96 113.93 115.87 109.75 115.87 109.75 117.96"/><rect class="cls-8" x="109.75" y="91.65" width="3.23" height="0.01"/><rect class="cls-8" x="109.75" y="87.62" width="3.07" height="0.01"/><rect class="cls-8" x="109.75" y="103.76" width="3.7" height="0.01"/><rect class="cls-8" x="109.75" y="99.73" width="3.55" height="0.01"/><rect class="cls-8" x="109.75" y="107.8" width="3.86" height="0.01"/><rect class="cls-8" x="109.75" y="95.69" width="3.39" height="0.01"/><polygon class="cls-9" points="109.75 83.59 106.84 83.59 106.68 87.62 109.75 87.62 109.75 83.59"/><polygon class="cls-8" points="112.83 87.62 112.67 83.59 109.75 83.59 109.75 87.62 112.83 87.62"/><polygon class="cls-14" points="109.75 87.62 106.68 87.62 106.53 91.65 109.75 91.65 109.75 87.62"/><polygon class="cls-15" points="109.75 91.65 112.98 91.65 112.83 87.62 109.75 87.62 109.75 91.65"/><polygon class="cls-9" points="109.75 91.66 106.53 91.66 106.37 95.69 109.75 95.69 109.75 91.66"/><polygon class="cls-8" points="109.75 95.69 113.14 95.69 112.98 91.66 109.75 91.66 109.75 95.69"/><polygon class="cls-14" points="109.75 95.69 106.37 95.69 106.21 99.73 109.75 99.73 109.75 95.69"/><polygon class="cls-15" points="109.75 99.73 113.3 99.73 113.14 95.69 109.75 95.69 109.75 99.73"/><polygon class="cls-9" points="109.75 99.73 106.21 99.73 106.05 103.76 109.75 103.76 109.75 99.73"/><polygon class="cls-8" points="109.75 103.76 113.46 103.76 113.3 99.73 109.75 99.73 109.75 103.76"/><polygon class="cls-14" points="109.75 103.77 106.05 103.77 105.89 107.8 109.75 107.8 109.75 103.77"/><polygon class="cls-15" points="109.75 107.8 113.61 107.8 113.46 103.77 109.75 103.77 109.75 107.8"/><polygon class="cls-9" points="109.75 107.8 105.89 107.8 105.74 111.83 109.75 111.83 109.75 107.8"/><polygon class="cls-8" points="109.75 111.83 113.77 111.83 113.61 107.8 109.75 107.8 109.75 111.83"/><polygon class="cls-14" points="109.75 111.84 105.74 111.84 105.58 115.87 109.75 115.87 109.75 111.84"/><polygon class="cls-15" points="109.75 115.87 113.93 115.87 113.77 111.84 109.75 111.84 109.75 115.87"/><polygon class="cls-16" points="129.26 95.18 127.21 112.74 133.61 112.74 133.61 95.18 129.26 95.18"/><polygon class="cls-17" points="138.13 95.18 133.61 95.18 133.61 112.74 140.18 112.74 138.13 95.18"/><polygon class="cls-16" points="116.06 95.18 114.01 112.74 120.49 112.74 120.49 95.18 116.06 95.18"/><polygon class="cls-17" points="124.93 95.18 120.49 95.18 120.49 112.74 126.98 112.74 124.93 95.18"/><polygon class="cls-10" points="140.77 114.34 140.77 128.54 150.97 128.54 150.97 114.34 150.97 106.42 140.77 114.34"/><polygon class="cls-11" points="148.19 114.34 148.19 128.54 158.39 128.54 158.39 114.34 158.39 106.42 148.19 114.34"/><rect class="cls-18" x="105.5" y="117.96" width="8.51" height="10.58"/><rect class="cls-18" x="127.21" y="112.74" width="13.56" height="15.8"/><rect class="cls-19" x="115.3" y="116.99" width="1.96" height="4.45"/><rect class="cls-19" x="119.33" y="116.99" width="1.96" height="4.45"/><rect class="cls-19" x="123.37" y="116.99" width="1.96" height="4.45"/><rect class="cls-11" x="128.59" y="116.99" width="1.96" height="4.45"/><rect class="cls-11" x="132.63" y="116.99" width="1.96" height="4.45"/><rect class="cls-11" x="136.67" y="116.99" width="1.96" height="4.45"/><ellipse class="cls-13" cx="135.27" cy="80.76" rx="8.12" ry="6.58"/><ellipse class="cls-13" cx="147.1" cy="79.16" rx="7.47" ry="6.05"/><ellipse class="cls-7" cx="143.59" cy="70.71" rx="8.12" ry="6.58"/><path class="cls-7" d="M138.74,73.25c0,2.42-2.41,4.38-5.4,4.38s-5.4-2-5.4-4.38,2.42-4.38,5.4-4.38S138.74,70.83,138.74,73.25Z"/><g id="sun"><circle class="cls-20" cx="29.77" cy="30.61" r="44.94"/><circle class="cls-21" cx="29.77" cy="30.61" r="61.02"/><circle class="cls-22" cx="29.77" cy="30.61" r="14.45"/><ellipse class="cls-23" cx="29.77" cy="30.61" rx="112.12" ry="10.33"/><ellipse class="cls-24" cx="29.77" cy="30.61" rx="10.33" ry="112.12"/><ellipse class="cls-25" cx="29.77" cy="30.61" rx="10.33" ry="112.12" transform="translate(-12.93 30.02) rotate(-45)"/><ellipse class="cls-26" cx="29.77" cy="30.61" rx="112.12" ry="10.33" transform="translate(-12.93 30.02) rotate(-45)"/><ellipse class="cls-27" cx="29.77" cy="30.61" rx="10.33" ry="112.12" transform="translate(-9.87 46.49) rotate(-67.62)"/><ellipse class="cls-28" cx="29.77" cy="30.61" rx="112.12" ry="10.33" transform="translate(-9.87 46.49) rotate(-67.62)"/><ellipse class="cls-29" cx="29.77" cy="30.61" rx="10.33" ry="112.12" transform="translate(-9.48 13.81) rotate(-22.62)"/><ellipse class="cls-30" cx="29.77" cy="30.61" rx="112.12" ry="10.33" transform="translate(-9.48 13.81) rotate(-22.62)"/></g><rect class="cls-1" x="-91.79" y="-4.29" width="147.53" height="147.53"/><path class="cls-31" d="M-58,0V43c3.46,0,6.27-3.26,6.27-7.27a8,8,0,0,0-.11-1.31A14,14,0,0,0-46,35.71a14.88,14.88,0,0,0,11.83-6.24c.35,9.44,6.86,17,15,17.44a5.69,5.69,0,0,0,.72,0,5.79,5.79,0,0,0,.72,0C-11.44,46.58-6.11,42-3.86,35.54,1.9,34.7,6.69,30.25,8.77,24.2a13.87,13.87,0,0,0,2.75.29,13.76,13.76,0,0,0,4.91-.91c.51,3.79,3.33,6.69,6.74,6.69,3.1,0,5.72-2.4,6.55-5.69a14.42,14.42,0,0,0,10,4.11c5.39,0,10.15-3.15,13-7.94a15.11,15.11,0,0,0,3.79,2.48A14.78,14.78,0,0,0,56,26.91c0,7.19,5,13,11.23,13a10.38,10.38,0,0,0,7.54-3.39,14.27,14.27,0,0,0,9.46,3.69c.25,0,.49,0,.73,0a13.73,13.73,0,0,0,6.62,0,11.35,11.35,0,0,0,1.22,5c-1.82,2.29-2.31,6,0,9.55a8.89,8.89,0,0,0,1.11.83c-2.67,2-3.84,6.47-1.11,10.63,4.53,4,9.49.79,10-4,4.86,0,8.69-5.12,7.6-11,7.08,3.75,14-2.73,13.1-10.7a10.74,10.74,0,0,0-3.93-7.32l.13-.21a14.42,14.42,0,0,0,7.4-3,6.4,6.4,0,0,0,5.75,4.16,5.6,5.6,0,0,0,2.9-.81,7.76,7.76,0,0,0-.42,2.53,7.05,7.05,0,0,0,2.74,5.73,7.08,7.08,0,0,0-2.74,5.73c0,3.74,2.61,6.77,5.83,6.77,3,0,5.39-2.55,5.78-5.85h.06l.34,0a7.91,7.91,0,0,0-.06.84c0,3.74,2.61,6.77,5.84,6.77,3,0,5.39-2.55,5.77-5.85H159a6.93,6.93,0,0,0,4.26-1.48c5.49-.68,10.13-4.63,12.45-10.14a10.93,10.93,0,0,0,4-8.68c0-.35,0-.7,0-1a9.79,9.79,0,0,0,3.36-1c0,.35,0,.69,0,1C183,38.78,190.05,47,198.75,47c5.19,0,9.78-2.93,12.65-7.42a9.39,9.39,0,0,0,5.35,1.72,10,10,0,0,0,8-4.3,14.49,14.49,0,0,0,10.32,4.49c7.06,0,13-5.37,15-12.79.2,0,.4,0,.6,0a14.36,14.36,0,0,0,2.18-.19c.68,8.22,6.66,14.66,13.94,14.66a13.36,13.36,0,0,0,10.9-6.06,15.55,15.55,0,0,0,2.3-1.68V0Z"/></g><path class="cls-32" d="M37.13,49c3.56,11.14,17.22,39.23,62.51,29.07"/><polygon class="cls-33" points="35.05 51.75 37.42 49.88 40.41 50.29 36 44.67 35.05 51.75"/><polygon class="cls-33" points="98.25 81.24 98.75 78.26 96.95 75.84 104 77 98.25 81.24"/></g></g></svg>