<svg id="Capa_1" data-name="Capa 1" xmlns="http://www.w3.org/2000/svg" viewBox="0 0 150 150"><defs><style>.cls-1{fill:#abdee0;}.cls-2{fill:#fffdf5;}.cls-3{fill:#5d5b1a;}.cls-4{fill:#41669d;}.cls-5{fill:#5180bc;}.cls-6{fill:#814123;}.cls-7{fill:#924826;}.cls-8{fill:#c0d944;}.cls-9{fill:#cce64f;}.cls-10,.cls-14{fill:#fff;}.cls-10,.cls-13{opacity:0.2;}.cls-11{fill:#97a92f;}.cls-12{fill:#adc23d;}.cls-15{fill:#5f591c;}.cls-16{fill:#e4fa71;}.cls-17{fill:#80acd2;}.cls-18{fill:#b6e1fd;}.cls-19{fill:#fdfffc;}.cls-20{fill:#572428;}.cls-21{fill:#e79b4c;}.cls-22{fill:#303e3c;}.cls-23{fill:#3f4e43;}.cls-24{fill:#deddd6;}.cls-25{fill:#e48988;}.cls-26{fill:#514d19;}.cls-27{fill:#e4a4b2;}.cls-28{fill:#d78da1;}.cls-29{fill:#e8b7c1;}.cls-30{fill:none;stroke:#000;stroke-linecap:round;stroke-miterlimit:10;stroke-width:0.15px;}.cls-31{fill:#bb720f;}.cls-32{fill:#ef9e32;}.cls-33{fill:#f7b551;}.cls-34{fill:#667221;}.cls-35{fill:#889a2b;}.cls-36{fill:#bfd73a;}</style></defs><title>Mesa de trabajo 4</title><rect class="cls-1" width="150" height="150"/><path class="cls-2" d="M150,57.75V88H0V41.26a27.85,27.85,0,0,1,34.6,27c0,.67,0,1.34-.07,2A24.85,24.85,0,0,1,42,75.21c.95-7.2,7.7-12.95,12-13.45,8.67-1,12.85,2.83,16.23,8.51a12.93,12.93,0,0,1,17.76,3.41,12.22,12.22,0,0,1,22.73,5.84,8.2,8.2,0,0,1,12.72.15c0-.33,0-.65,0-1a15.8,15.8,0,0,1,20.52-15.07A7.92,7.92,0,0,1,150,57.75Z"/><path class="cls-2" d="M132.75,60.73a1.24,1.24,0,0,0-2.47,0,1.24,1.24,0,1,0,2.47,0Z"/><circle class="cls-2" cx="108.75" cy="68.01" r="1.23"/><circle class="cls-2" cx="137.3" cy="55.23" r="2.26"/><circle class="cls-2" cx="65.59" cy="59.5" r="2.26" transform="translate(-8.67 11.25) rotate(-9.2)"/><circle class="cls-2" cx="70.19" cy="65.09" r="1.11"/><path class="cls-2" d="M10.63,36.36a1.11,1.11,0,1,0-1.11,1.11A1.11,1.11,0,0,0,10.63,36.36Z"/><polygon class="cls-3" points="62.61 87.96 150 78.96 150 87.96 62.61 87.96"/><path class="cls-3" d="M110.66,82.57c0-.8-1.45-2.74-1.45-2.74s-1.45,1.94-1.45,2.74a1.45,1.45,0,0,0,2.9,0Z"/><path class="cls-3" d="M114.56,81.63c0-1-1.83-3.47-1.83-3.47s-1.84,2.45-1.84,3.47a1.84,1.84,0,0,0,3.67,0Z"/><path class="cls-3" d="M141.25,78.51c0-1.19-2.15-4.07-2.15-4.07s-2.16,2.88-2.16,4.07a2.16,2.16,0,1,0,4.31,0Z"/><path class="cls-3" d="M143.09,79.58c0-.76-1.37-2.61-1.37-2.61s-1.38,1.85-1.38,2.61a1.38,1.38,0,0,0,2.75,0Z"/><rect class="cls-4" y="87.96" width="150" height="61.47"/><path class="cls-5" d="M0,130H103.18a3.11,3.11,0,0,0,3.12-3.12h0a3.35,3.35,0,0,1,3.35-3.34h5.2a2,2,0,0,0,2-2h0a2,2,0,0,1,2-2H150v30H0Z"/><path class="cls-6" d="M150,88v26.38H98.64a6.92,6.92,0,0,1-6.92,6.92H0V88Z"/><path class="cls-7" d="M41.05,121.26H0v-9.45H41.05a4.73,4.73,0,0,1,4.73,4.73h0A4.73,4.73,0,0,1,41.05,121.26Z"/><rect class="cls-7" x="112.73" y="102.81" width="22.32" height="11.52" rx="5.76" ry="5.76"/><path class="cls-8" d="M0,88H150v14.85H89.74a9,9,0,0,1-9,9H0Z"/><rect class="cls-9" y="87.96" width="150" height="3.6"/><path class="cls-10" d="M65.5,33a3,3,0,0,0-1.5.42c-1.8-3.46-4.12-5.56-6.64-5.56-2.28,0-4.39,1.7-6.1,4.57a7.45,7.45,0,0,0-3.67-1,8,8,0,0,0-5.81,2.67A3.26,3.26,0,0,0,39.41,33a3.53,3.53,0,0,0-2.81,1.65H68.32A3.53,3.53,0,0,0,65.5,33Z"/><path class="cls-10" d="M104.58,21.79a4.54,4.54,0,0,0-2.28.64C99.57,17.19,96.07,14,92.24,14c-3.46,0-6.64,2.57-9.24,6.92a11.25,11.25,0,0,0-5.57-1.5,12.11,12.11,0,0,0-8.8,4.05,5,5,0,0,0-3.58-1.69,5.36,5.36,0,0,0-4.27,2.5h48.07A5.37,5.37,0,0,0,104.58,21.79Z"/><path class="cls-10" d="M131.47,30.25a3.46,3.46,0,0,0-1.74.49c-2.1-4-4.79-6.45-7.73-6.45-2.64,0-5.09,2-7.08,5.3a8.72,8.72,0,0,0-4.27-1.15,9.24,9.24,0,0,0-6.75,3.11,3.83,3.83,0,0,0-2.75-1.3,4.1,4.1,0,0,0-3.27,1.92h36.87A4.14,4.14,0,0,0,131.47,30.25Z"/><polygon class="cls-11" points="0 74.44 0 87.96 121.38 87.96 0 74.44"/><path class="cls-11" d="M10.55,74.49c0-1.23-2.23-4.22-2.23-4.22s-2.22,3-2.22,4.22a2.23,2.23,0,0,0,4.45,0Z"/><path class="cls-11" d="M42.31,77.21c0-1.93-3.49-6.6-3.49-6.6s-3.49,4.67-3.49,6.6a3.49,3.49,0,1,0,7,0Z"/><path class="cls-11" d="M45.81,78.47c0-1.23-2.23-4.21-2.23-4.21s-2.23,3-2.23,4.21a2.23,2.23,0,0,0,4.46,0Z"/><path class="cls-11" d="M57.55,80.3c0-.9-1.63-3.09-1.63-3.09s-1.63,2.19-1.63,3.09a1.63,1.63,0,0,0,3.26,0Z"/><path class="cls-12" d="M150,93.59H107.82a3.6,3.6,0,0,0-3.6,3.6h0a3.6,3.6,0,0,0,3.6,3.6H150Z"/><rect class="cls-12" x="80.15" y="93.59" width="12.85" height="7.2" rx="3.6" ry="3.6"/><g class="cls-13"><path class="cls-14" d="M39.76,142.55H22.46a1.32,1.32,0,0,0-1.32,1.32h0a1.32,1.32,0,0,0,1.32,1.32h17.3a1.32,1.32,0,0,0,1.32-1.32h0A1.32,1.32,0,0,0,39.76,142.55Z"/><path class="cls-14" d="M52.53,142.55H46a1.32,1.32,0,0,0-1.32,1.32h0A1.32,1.32,0,0,0,46,145.19h6.56a1.32,1.32,0,0,0,1.31-1.32h0A1.32,1.32,0,0,0,52.53,142.55Z"/></g><g class="cls-13"><rect class="cls-14" x="118.82" y="134.1" width="15.2" height="2.64" rx="1.32" ry="1.32"/><rect class="cls-14" x="112.15" y="134.1" width="4.09" height="2.64" rx="1.32" ry="1.32"/><rect class="cls-14" x="135.67" y="134.1" width="4.09" height="2.64" rx="1.32" ry="1.32"/></g><ellipse class="cls-4" cx="49.02" cy="135.41" rx="17.1" ry="5.44"/><path class="cls-15" d="M55.93,132.82l8,3.14c1.39-.79,2.18-1.69,2.18-2.66,0-3-7.66-5.44-17.1-5.44s-17.1,2.44-17.1,5.44,7.66,5.44,17.1,5.44a45.32,45.32,0,0,0,10.24-1.08Z"/><path class="cls-16" d="M55.49,92.51a3.18,3.18,0,0,0-2.35.62,2.14,2.14,0,0,0-.53,1,2.12,2.12,0,0,0-.52-1,3.21,3.21,0,0,0-2.36-.62,3.18,3.18,0,0,0,.62,2.35,3.05,3.05,0,0,0,2.26.63,3,3,0,0,0,2.26-.63A3.18,3.18,0,0,0,55.49,92.51Z"/><path class="cls-16" d="M46.35,92.51a3.18,3.18,0,0,0-2.35.62,2.05,2.05,0,0,0-.53,1,2.05,2.05,0,0,0-.53-1,3.18,3.18,0,0,0-2.35-.62,3.18,3.18,0,0,0,.62,2.35,3.05,3.05,0,0,0,2.26.63,3.05,3.05,0,0,0,2.26-.63A3.18,3.18,0,0,0,46.35,92.51Z"/><path class="cls-16" d="M112.86,95.52a3.18,3.18,0,0,0-2.35.62,2.28,2.28,0,0,0-.53,1,2.16,2.16,0,0,0-.52-1,3.2,3.2,0,0,0-2.36-.62,3.18,3.18,0,0,0,.62,2.35,4.37,4.37,0,0,0,4.52,0A3.13,3.13,0,0,0,112.86,95.52Z"/><path class="cls-16" d="M105.43,90.07a3.16,3.16,0,0,0-2.35.63,2.05,2.05,0,0,0-.53,1,2.12,2.12,0,0,0-.52-1,3.19,3.19,0,0,0-2.36-.63,3.2,3.2,0,0,0,.62,2.36,4.37,4.37,0,0,0,4.52,0A3.2,3.2,0,0,0,105.43,90.07Z"/><path class="cls-16" d="M147.1,93.52a3.21,3.21,0,0,0-2.36.62,2.17,2.17,0,0,0-.52,1,2.19,2.19,0,0,0-.53-1,3.18,3.18,0,0,0-2.35-.62,3.18,3.18,0,0,0,.62,2.35,4.37,4.37,0,0,0,4.52,0A3.18,3.18,0,0,0,147.1,93.52Z"/><path class="cls-16" d="M82,94a3.18,3.18,0,0,0-2.35.62,2.13,2.13,0,0,0-.53,1,2.13,2.13,0,0,0-.53-1A3.18,3.18,0,0,0,76.22,94a3.2,3.2,0,0,0,.62,2.36,4.37,4.37,0,0,0,4.52,0A3.2,3.2,0,0,0,82,94Z"/><path class="cls-16" d="M70.71,86.48a3.13,3.13,0,0,0-2.35.62,2.05,2.05,0,0,0-.53,1,2.05,2.05,0,0,0-.53-1A3.13,3.13,0,0,0,65,86.48a3.18,3.18,0,0,0,.62,2.35,3.1,3.1,0,0,0,2.26.63,3.1,3.1,0,0,0,2.26-.63A3.18,3.18,0,0,0,70.71,86.48Z"/><path class="cls-16" d="M78.76,106.75a3.18,3.18,0,0,0-2.35.62,2.05,2.05,0,0,0-.53,1,2.05,2.05,0,0,0-.53-1,3.18,3.18,0,0,0-2.35-.62,3.18,3.18,0,0,0,.62,2.35,4.37,4.37,0,0,0,4.52,0A3.18,3.18,0,0,0,78.76,106.75Z"/><path class="cls-16" d="M12,86.48a3.13,3.13,0,0,0-2.35.62,2.05,2.05,0,0,0-.53,1,2.05,2.05,0,0,0-.53-1,3.13,3.13,0,0,0-2.35-.62,3.18,3.18,0,0,0,.62,2.35,3.1,3.1,0,0,0,2.26.63,3.1,3.1,0,0,0,2.26-.63A3.18,3.18,0,0,0,12,86.48Z"/><path class="cls-17" d="M89.29,122.77s2.53-2.85,9-.89a7.83,7.83,0,0,0-1.12,3.41Z"/><path class="cls-18" d="M99.65,130.43a8,8,0,0,0-5.9-7.66c-2.56-.79-7.55-.76-9.79,3-.09.14,1.32,2.08,4.81,2.41C91.66,128.41,96,127.41,99.65,130.43Z"/><path class="cls-17" d="M99.8,130.89c.89,2-.84,4.13-.84,4.13-2.25-4.94.17-5.61.17-5.61s2.1-1.38,4.34,3.56C103.47,133,100.69,132.84,99.8,130.89Z"/><path class="cls-17" d="M93.32,125.4a2.5,2.5,0,0,1-.5,1.52,6.33,6.33,0,0,1-2.25-1.29.61.61,0,0,1,0-.89,6.19,6.19,0,0,1,2-1.18A2.54,2.54,0,0,1,93.32,125.4Z"/><path class="cls-19" d="M87.72,123.33a2.8,2.8,0,0,1,0,3.92,2,2,0,0,0,0-3.92Z"/><circle class="cls-20" cx="86.69" cy="124.23" r="0.34"/><path class="cls-17" d="M119,126.94s1.88-2.12,6.67-.67a5.74,5.74,0,0,0-.83,2.53Z"/><path class="cls-18" d="M126.64,132.62a6,6,0,0,0-4.38-5.69c-1.89-.58-5.6-.55-7.26,2.2-.06.11,1,1.54,3.57,1.79C120.71,131.12,123.91,130.38,126.64,132.62Z"/><path class="cls-17" d="M126.75,133c.66,1.46-.63,3.07-.63,3.07-1.66-3.67.13-4.16.13-4.16s1.56-1,3.22,2.64C129.47,134.5,127.41,134.41,126.75,133Z"/><path class="cls-17" d="M122,128.88a1.89,1.89,0,0,1-.37,1.13,4.68,4.68,0,0,1-1.67-.95.45.45,0,0,1,0-.66,4.59,4.59,0,0,1,1.46-.88A1.87,1.87,0,0,1,122,128.88Z"/><path class="cls-19" d="M117.79,127.35a2.06,2.06,0,0,1,.6,1.45,2.08,2.08,0,0,1-.6,1.46,1.48,1.48,0,0,0,0-2.91Z"/><circle class="cls-20" cx="117.03" cy="128.02" r="0.26"/><path class="cls-17" d="M137,121.94s1.88-2.12,6.67-.67a5.74,5.74,0,0,0-.83,2.53Z"/><path class="cls-18" d="M144.64,127.62a6,6,0,0,0-4.38-5.69c-1.89-.58-5.6-.55-7.26,2.2-.06.11,1,1.54,3.57,1.79C138.71,126.12,141.91,125.38,144.64,127.62Z"/><path class="cls-17" d="M144.75,128c.66,1.46-.63,3.07-.63,3.07-1.66-3.67.13-4.16.13-4.16s1.56-1,3.22,2.64C147.47,129.5,145.41,129.41,144.75,128Z"/><path class="cls-17" d="M140,123.88a1.89,1.89,0,0,1-.37,1.13,4.68,4.68,0,0,1-1.67-1,.45.45,0,0,1,0-.66,4.59,4.59,0,0,1,1.46-.88A1.87,1.87,0,0,1,140,123.88Z"/><path class="cls-19" d="M135.79,122.35a2.06,2.06,0,0,1,.6,1.45,2.08,2.08,0,0,1-.6,1.46,1.48,1.48,0,0,0,0-2.91Z"/><circle class="cls-20" cx="135.03" cy="123.02" r="0.26"/><path class="cls-4" d="M103.47,138.29c0-.86-3.46-1.56-7.72-1.56s-7.73.7-7.73,1.56,3.46,1.57,7.73,1.57S103.47,139.16,103.47,138.29Z"/><path class="cls-10" d="M91.71,133.67c.45.45,2.19.54,2.19.54s-.12-1.73-.57-2.18a1.15,1.15,0,1,0-1.62,1.64Z"/><path class="cls-10" d="M105.25,135.58c-.45.45-2.19.55-2.19.55s.12-1.74.57-2.18a1.14,1.14,0,0,1,1.63,0A1.13,1.13,0,0,1,105.25,135.58Z"/><path class="cls-10" d="M95.21,133c0,.35.52,1.17.52,1.17s.73-.66.78-1a.67.67,0,0,0-.58-.73A.66.66,0,0,0,95.21,133Z"/><path class="cls-21" d="M38.59,15.75H40.3a.31.31,0,0,1,.17.57l-1.88,1.25Z"/><path class="cls-20" d="M25.17,15H19.9a1.14,1.14,0,0,0-1.14,1.13h0a1.43,1.43,0,0,0,2,1.32l4.53-1.88A.3.3,0,0,0,25.17,15Z"/><path class="cls-22" d="M38.57,20.17a4.61,4.61,0,0,0-5-4.15l.9,9.19A4.61,4.61,0,0,0,38.57,20.17Z"/><path class="cls-14" d="M24.17,15H37.56a1.53,1.53,0,0,1,.91,2.76,10.37,10.37,0,0,1-6.13,2.14C26.79,19.9,24.17,15,24.17,15Z"/><path class="cls-23" d="M33.28,22.52A4.6,4.6,0,0,0,33.45,16l-6.69,6.35A4.6,4.6,0,0,0,33.28,22.52Z"/><path class="cls-20" d="M37.84,16.16a.29.29,0,0,0-.29-.29.28.28,0,0,0-.28.29.27.27,0,0,0,.28.28A.28.28,0,0,0,37.84,16.16Z"/><path class="cls-21" d="M53.45,9.75h1a.18.18,0,0,1,.1.33l-1.08.72Z"/><path class="cls-20" d="M45.7,9.32H42.65A.65.65,0,0,0,42,10h0a.82.82,0,0,0,1.14.76l2.62-1.08A.17.17,0,0,0,45.7,9.32Z"/><path class="cls-22" d="M53.43,12.3a2.65,2.65,0,0,0-2.91-2.39l.52,5.3A2.66,2.66,0,0,0,53.43,12.3Z"/><path class="cls-14" d="M45.12,9.32h7.73a.88.88,0,0,1,.53,1.59,6,6,0,0,1-3.55,1.23A5.65,5.65,0,0,1,45.12,9.32Z"/><path class="cls-23" d="M50.38,13.66a2.67,2.67,0,0,0,.1-3.77l-3.87,3.67A2.67,2.67,0,0,0,50.38,13.66Z"/><path class="cls-20" d="M53,10a.16.16,0,0,0-.16-.16.16.16,0,0,0-.17.16.17.17,0,0,0,.17.17A.17.17,0,0,0,53,10Z"/><path class="cls-21" d="M55.17,20.31h.7a.12.12,0,0,1,.07.23l-.77.52Z"/><path class="cls-20" d="M49.64,20H47.47a.47.47,0,0,0-.47.47h0a.59.59,0,0,0,.82.54l1.87-.77A.13.13,0,0,0,49.64,20Z"/><path class="cls-22" d="M55.16,22.13a1.9,1.9,0,0,0-2.08-1.71l.37,3.79A1.91,1.91,0,0,0,55.16,22.13Z"/><path class="cls-14" d="M49.23,20h5.51a.63.63,0,0,1,.38,1.14,4.24,4.24,0,0,1-2.53.88A4,4,0,0,1,49.23,20Z"/><path class="cls-23" d="M53,23.1a1.91,1.91,0,0,0,.07-2.69L50.29,23A1.91,1.91,0,0,0,53,23.1Z"/><path class="cls-20" d="M54.86,20.48a.12.12,0,0,0-.12-.12.12.12,0,0,0-.12.12.13.13,0,0,0,.12.12A.12.12,0,0,0,54.86,20.48Z"/><path class="cls-12" d="M9.33,104.28H60.68A1.28,1.28,0,0,1,62,105.56h0a1.27,1.27,0,0,1-1.28,1.27H9.33a1.27,1.27,0,0,1-1.28-1.27h0A1.28,1.28,0,0,1,9.33,104.28Z"/><path class="cls-24" d="M20.76,89.6l1.8-4.31,6.23,7.37s-.5,5.88-3.69,5.59L27.79,105H25.1l-4.24-9.3A7.57,7.57,0,0,1,20.76,89.6Z"/><path class="cls-20" d="M26.87,102.69h0a2.71,2.71,0,0,1,2,1.65l.26.64h-4l-.66-1.43Z"/><polygon class="cls-24" points="40.94 96.6 38.69 102.69 36.25 103.55 37.12 96.17 40.94 96.6"/><path class="cls-20" d="M38.69,102.69h0a2.73,2.73,0,0,1,2,1.65l.26.64h-4l-.67-1.43Z"/><path class="cls-24" d="M57.21,94.75A2.13,2.13,0,0,0,56,97.51L60,95.94A2.12,2.12,0,0,0,57.21,94.75Z"/><circle class="cls-25" cx="20.46" cy="94.78" r="5.04"/><path class="cls-25" d="M21.87,100.66h0a.58.58,0,0,0,.45-.68l-.21-1a.59.59,0,0,0-.68-.45h0a.59.59,0,0,0-.45.68l.22,1A.57.57,0,0,0,21.87,100.66Z"/><path class="cls-25" d="M25,99h0a.58.58,0,0,0-.06-.81l-.82-.7a.56.56,0,0,0-.8.06h0a.58.58,0,0,0,.05.81l.82.7A.57.57,0,0,0,25,99Z"/><path class="cls-25" d="M18.34,100.47h0a.58.58,0,0,0,.71-.39l.29-1a.57.57,0,0,0-.39-.71h0a.57.57,0,0,0-.71.39l-.3,1A.57.57,0,0,0,18.34,100.47Z"/><path class="cls-14" d="M43.27,105l-3.51-7.5s-16.53.91-19.11-4.82c0,0-.5,5.88-3.69,5.59L19.65,105H17l-4.25-9.3a7.65,7.65,0,0,1-.1-6.08l1.81-4.31a9.9,9.9,0,0,1,9.14-6.09H34.64a6.09,6.09,0,0,0,2.8-.68h0a4.57,4.57,0,0,1,5.48,1L55.35,93.24A7.64,7.64,0,0,1,57.3,97.6l.36,3.38a3.39,3.39,0,0,1-1.8,3.35h0A1.36,1.36,0,0,1,54,103.7h0a11.13,11.13,0,0,0-8.51-6.3l-2.33-.34,2.7,7.92Z"/><path class="cls-20" d="M18.73,102.69h0a2.71,2.71,0,0,1,2,1.65L21,105H17l-.66-1.43Z"/><path class="cls-20" d="M45,102.69h0a2.73,2.73,0,0,1,2,1.65l.26.64h-4l-.67-1.43Z"/><path class="cls-23" d="M34.64,79.2H23.56v1.27a3.17,3.17,0,0,1-3.18,3.17h0a1.68,1.68,0,0,0-1.68,1.68V87a1.68,1.68,0,0,0,1.68,1.68H25.6a2.65,2.65,0,0,1,2.64,2.65h0a1.35,1.35,0,0,0,1.36,1.35h6.47a5.25,5.25,0,0,0,5.25-5.25v-.18a2.84,2.84,0,0,0-2.84-2.84h0a3.84,3.84,0,0,1-3.84-3.84Z"/><path class="cls-23" d="M23,89.89H25.4a1.38,1.38,0,0,1,1.38,1.39h0a1.38,1.38,0,0,1-1.38,1.38H23a1.38,1.38,0,0,1-1.39-1.38h0A1.39,1.39,0,0,1,23,89.89Z"/><path class="cls-23" d="M47.29,84.34H45.22a2.06,2.06,0,0,0-1.87,2.93l.22.46a2.05,2.05,0,0,0,1.86,1.18h1.08a1.4,1.4,0,0,1,1.4,1.4h0A1.19,1.19,0,0,0,49.1,91.5h4.67Z"/><path class="cls-23" d="M40.31,83.85H42.9a1.25,1.25,0,0,0,1.25-1.25h0a1.25,1.25,0,0,0-1.25-1.25H40.31a1.25,1.25,0,0,0-1.25,1.25h0A1.25,1.25,0,0,0,40.31,83.85Z"/><path class="cls-23" d="M38.34,80.77h.5a.78.78,0,0,0,.79-.78h0a.79.79,0,0,0-.79-.79h-.5a.79.79,0,0,0-.79.79h0A.79.79,0,0,0,38.34,80.77Z"/><path class="cls-25" d="M57.64,100.62l-4.52,1.54,1.17,2.23a.74.74,0,0,0,.93.35l1.15-.45a2.3,2.3,0,0,0,1.44-2.49Z"/><path class="cls-20" d="M55.09,98.86a.52.52,0,1,0,.52-.52A.52.52,0,0,0,55.09,98.86Z"/><path class="cls-14" d="M56.15,93.61a2.13,2.13,0,0,0,0,3l3-3A2.13,2.13,0,0,0,56.15,93.61Z"/><path class="cls-20" d="M56.18,103.51c-.38.22-.64.52-.56.65s.46.07.85-.15.64-.52.56-.66S56.57,103.29,56.18,103.51Z"/><path class="cls-14" d="M10.33,84.77c1.24-1.54,3.12-1.38,4.86-1,.9.2.52,1.58-.38,1.38-1.44-.33-2.89-.49-3.69,1A13.62,13.62,0,0,0,10,90.58c-.13.91-1.51.52-1.38-.38C8.9,88.41,9.16,86.23,10.33,84.77Z"/><path class="cls-20" d="M7.19,91.31a1.81,1.81,0,0,1,3.58.48,5.11,5.11,0,0,1-.71,1.52A1.42,1.42,0,0,1,7.48,93,5.16,5.16,0,0,1,7.19,91.31Z"/><path class="cls-4" d="M72.11,139.86c0-1-1.29-1.82-2.88-1.82s-2.88.81-2.88,1.82,1.29,1.82,2.88,1.82S72.11,140.86,72.11,139.86Z"/><path class="cls-4" d="M64.33,141.27c0,.36-.64.66-1.44.66s-1.44-.3-1.44-.66.65-.66,1.44-.66S64.33,140.91,64.33,141.27Z"/><path class="cls-26" d="M5.76,149.44s3.53-42,11.53-48c0,0-4.26,32.5-4.64,48Z"/><polygon class="cls-26" points="9.07 149.44 0 85.11 0 149.44 9.07 149.44"/><path class="cls-26" d="M11.62,149.44s.49-18.45,9-20.39c0,0-3.88,12.29-4.49,20.39Z"/><path class="cls-15" d="M9.77,149.44s.08-24.59,9.83-30.36a134.23,134.23,0,0,0-5.87,30.36Z"/><path class="cls-15" d="M11.73,149.44s0-17.95-10.52-19.34c0,0,7.46,9.32,6.78,19.34Z"/><path class="cls-15" d="M13.73,149.44s-.23-11.7,8.63-12.38c0,0-4.95,6.83-5.23,12.38Z"/><path class="cls-27" d="M146.76,86.07c.14-.31.37-1,.62-.82s.46,1.36.76,1.12.3-.62.41-.84.19.3,0,.87-.68.72-1,.24-.44,0-.67-.17A.37.37,0,0,1,146.76,86.07Z"/><path class="cls-28" d="M131.2,92.72c.33.84.84,1.85,1.09,2.51a8,8,0,0,1,.43,2.36c0,1.4-.78,1.37-.75,1.55s.12.13.32.13-.1,0,.15.2,1.1.2,1.27-.3a6.34,6.34,0,0,0,.18-2.36c-.1-.74-.54-4.33-1.32-4.54A1.46,1.46,0,0,0,131.2,92.72Z"/><path class="cls-28" d="M139.65,93.69c.36.63.64.58.28,1.39s-.71,2-1.07,2.08a3.84,3.84,0,0,0-1.29,1c-.1.23.56-.08.36.11-.35.32,1.14.07,1.39.07A1.1,1.1,0,0,0,140,98c.23-.18,1.29-2.61,1.62-2.82a1.36,1.36,0,0,0,.39-1.29c-.08-.51.07-1.09-.33-1.12A8.53,8.53,0,0,0,139.65,93.69Z"/><path class="cls-28" d="M129.22,83.81a7.72,7.72,0,0,0-2.36-1.67c-.46-.1-1.42-.25-1.45,0s.16.63.69,1a4.24,4.24,0,0,1,1.37,1.47C127.7,85.06,129.46,84.06,129.22,83.81Z"/><path class="cls-27" d="M126.33,84.17a5.14,5.14,0,0,1-2,.81c-.58.08-1.11.38-1.39.28s-.36-.48-.53-.3-.82,1.21-.72,1.47,0,.48.49,1,2.1,2.16,3.24,2.49,1.22.81,1.92,1.17A17.23,17.23,0,0,1,129,92.23c.46.26,2.72,1.13,3.28,1.38s.73.73.94,1.5.67,2.33.81,3a2.92,2.92,0,0,1-.51,2.06c-.28.25-.61.4-.56.53s.43,0,.43,0-.28.28,0,.35,1.06.06,1.17-.2.2-.86.3-.66.28.46.36.15-.06-1,0-1.54a10.65,10.65,0,0,1,.17-1.55,11.08,11.08,0,0,1,1-3,11.11,11.11,0,0,1,2.89-.15,9.62,9.62,0,0,0,2.65-.41c.5-.22.93-.83,1.21-.48a6.32,6.32,0,0,1,.46,2.28,10.79,10.79,0,0,1-.36,2.65c-.1.4-.51,1.2-.36,1.35s.39-.29.51-.21,0,.43.36.33.48-.46.63-.64.05.26.18.06a3.61,3.61,0,0,0,.23-1.3,7.26,7.26,0,0,1,.25-1.77c.18-.51.13-1.78.23-2A12.36,12.36,0,0,0,147,90.56c.45-1.77.6-3.93-.46-5.3a4.47,4.47,0,0,0-4.47-1.91c-2.18.24-6.06,1.05-7.08.82s-2.64-.74-4.13-1A7.09,7.09,0,0,0,126.33,84.17Z"/><path class="cls-29" d="M129.91,85.13a5.65,5.65,0,0,0-2.58-1.78c-.62,0-1.39,0-1.31.46a6.19,6.19,0,0,0,.51,1.5,15,15,0,0,0,1.75,1.83c.38.43.58.76,1,.45a2,2,0,0,0,.67-1.64Z"/><path d="M125.85,85.82c.22-.18.38-.33.66-.19s.38.42.15.44-.28-.34-.46-.25A.37.37,0,0,1,125.85,85.82Z"/><path class="cls-30" d="M121.74,86.51a2.86,2.86,0,0,0,2.2.92"/><path class="cls-13" d="M148.55,85.53c-.11.22-.1.6-.41.84s-.5-.92-.76-1.12-.35.19-.49.5a3.12,3.12,0,0,0-.31-.49,4.41,4.41,0,0,0-3.34-1.94,5.2,5.2,0,0,1,1.45,3.91c-.18,2.47-2.24,4.1-4.55,4.62a12.86,12.86,0,0,1-2.63.31c-1.11.19-2.38.76-2.65,1.89-.06.22-.09.46-.13.69a.6.6,0,0,1,0,.2,44.8,44.8,0,0,1-.22,5,4.46,4.46,0,0,1-.27,1.09.45.45,0,0,0,.31-.19c.1-.25.2-.86.3-.66s.28.46.36.15-.06-1,0-1.54a10.65,10.65,0,0,1,.17-1.55,11.08,11.08,0,0,1,1-3,11.11,11.11,0,0,1,2.89-.15,3,3,0,0,0,.65,0,.53.53,0,0,1,.06.1.59.59,0,0,1,.45-.06.6.6,0,0,1,.42.73.79.79,0,0,1-.09.23.28.28,0,0,1,0,.13,3.94,3.94,0,0,1-.59,1.06,4.16,4.16,0,0,1-2.22,2,9.25,9.25,0,0,0,1.35-.08A1.1,1.1,0,0,0,140,98c.23-.18,1.29-2.61,1.62-2.82a1.36,1.36,0,0,0,.39-1.29s0-.08,0-.11c.5-.22.93-.83,1.21-.48a6.32,6.32,0,0,1,.46,2.28,10.79,10.79,0,0,1-.36,2.65c-.1.4-.51,1.2-.36,1.35s.39-.29.51-.21,0,.43.36.33.48-.46.63-.64.05.26.18.06a3.61,3.61,0,0,0,.23-1.3,7.26,7.26,0,0,1,.25-1.77c.18-.51.13-1.78.23-2A12.36,12.36,0,0,0,147,90.56a8.24,8.24,0,0,0,.14-4.09c.13,0,.26-.12.42.17.27.48.8.23,1-.24S148.71,85.22,148.55,85.53Z"/><path class="cls-13" d="M127.38,86.27c0,.59-.19,1,.44,1.38a1.35,1.35,0,0,0,1.2.06s-.43-.3-.84-.66S127.38,86.27,127.38,86.27Z"/><g id="Layer2_9_MEMBER_1_MEMBER_0_MEMBER_0_FILL" data-name="Layer2 9 MEMBER 1 MEMBER 0 MEMBER 0 FILL"><path class="cls-31" d="M98.05,96.33c-.07-.51,0-.67.25-.49a1.45,1.45,0,0,1,.48.83c0,.13.15.41.33.82a2,2,0,0,1,.22.76,1.26,1.26,0,0,1,.76,0c.06,0,.08.08.06.14v.17a2.58,2.58,0,0,1-.56.25A3.69,3.69,0,0,1,99,99a6.28,6.28,0,0,1-.74,0l0-.1a1.26,1.26,0,0,1,0-.19.28.28,0,0,1,.1-.25.76.76,0,0,1,.53-.17v0s-.12-.32-.36-.9A5.23,5.23,0,0,1,98.05,96.33Z"/></g><g id="Layer2_9_MEMBER_1_MEMBER_0_MEMBER_1_FILL" data-name="Layer2 9 MEMBER 1 MEMBER 0 MEMBER 1 FILL"><path class="cls-31" d="M97.12,99a.79.79,0,0,1-.32-.24,2,2,0,0,0,.3-.87c.1-.6.18-1,.23-1.26.08-.42.16-.61.23-.58s.17.42.27,1.14q0,.23.06.72c0,.37,0,.69,0,1l-.25.09-.27,0A.63.63,0,0,1,97.12,99Z"/></g><g id="Layer2_9_MEMBER_1_MEMBER_0_MEMBER_2_FILL" data-name="Layer2 9 MEMBER 1 MEMBER 0 MEMBER 2 FILL"><path class="cls-32" d="M100.84,93l.19.06.9-.68a11.38,11.38,0,0,1,1.48-1.09h.19l.78-.58a6.19,6.19,0,0,1-.23-1.61c-.08-1-.16-1.35-.22-1.09a1.84,1.84,0,0,1-.36.38l.16.1a4.22,4.22,0,0,1-.06.64q0,.36,0,.78a5.4,5.4,0,0,1-1.54,1.73,1.88,1.88,0,0,0-.87.68l-.45.52V93m-2.9,2a.56.56,0,0,0-.23,0,2.08,2.08,0,0,0-1.48.93l-.41.68a1,1,0,0,1-.49.29,1.94,1.94,0,0,1-.77-.1,1.14,1.14,0,0,0-.51-.1c.34,1.57.63,2.18.86,1.84s.19-.75.29-1.29a3,3,0,0,0,.91-.19V97l.22-.26.19-.38.26-.26a1.73,1.73,0,0,1,1.1-.36l.38-.09.13.06c0-.06,0-.09.1-.09h.13l-.13.09h-.1l.1.1.42.16a6.83,6.83,0,0,0,1,.29,5.53,5.53,0,0,0,1.13-.16,2.42,2.42,0,0,0,.87-.32,3.31,3.31,0,0,0,.32-.81,3.69,3.69,0,0,0,.45-1.29c.6-1.18.72-1.84.36-2-.09.08-.08.17,0,.26a5.68,5.68,0,0,0-.58,1.28l-.32.49c0,.1-.09.23-.26.38a.15.15,0,0,0-.1.16.56.56,0,0,1-.22.39,5.14,5.14,0,0,1-2.1.64,2.68,2.68,0,0,1-1.25-.19A.53.53,0,0,1,97.94,95Z"/><path class="cls-33" d="M94.69,94.69c-.67.22-1,.41-1,.58-.38.37-.31.86.23,1.48h.13a1.14,1.14,0,0,1,.51.1,1.94,1.94,0,0,0,.77.1,1,1,0,0,0,.49-.29l.41-.68a2.08,2.08,0,0,1,1.48-.93.56.56,0,0,1,.23,0,.53.53,0,0,0,.29.1,2.68,2.68,0,0,0,1.25.19,5.14,5.14,0,0,0,2.1-.64.56.56,0,0,0,.22-.39.15.15,0,0,1,.1-.16c.17-.15.26-.28.26-.38l.32-.49a5.68,5.68,0,0,1,.58-1.28c-.11-.09-.12-.18,0-.26h-.13l.7-.42h-.19a11.38,11.38,0,0,0-1.48,1.09l-.9.68-.19-.06v-.16l.45-.52a1.88,1.88,0,0,1,.87-.68,5.4,5.4,0,0,0,1.54-1.73q0-.42,0-.78a4.22,4.22,0,0,0,.06-.64l-.16-.1a.39.39,0,0,1-.09.36,3.2,3.2,0,0,0-.36.29,2.77,2.77,0,0,1,.16-1.13l.1-.9a34.94,34.94,0,0,0-2,3.67l-1.48.1a5.21,5.21,0,0,0-2,.35A9,9,0,0,0,96.59,93a12.16,12.16,0,0,0-.9,1.41Z"/></g><g id="Layer2_9_MEMBER_1_MEMBER_0_MEMBER_2_MEMBER_0_FILL" data-name="Layer2 9 MEMBER 1 MEMBER 0 MEMBER 2 MEMBER 0 FILL"><path class="cls-31" d="M93.05,97.46a.36.36,0,0,1-.23-.06c-.09-.05-.14-.11-.14-.17s.07-.17.25-.23.29,0,.32.2a1,1,0,0,0,0,.13c0,.07-.09.12-.21.13M99.85,93l.16-.2-1,.71a5.13,5.13,0,0,1-1.54.92.32.32,0,0,1-.23,0Q98.16,93.63,99,93c.88-.63,1.33-.84,1.36-.63h0c.08,0,.13,0,.14.08s-.19.44-.63,1a6.48,6.48,0,0,1-.75.82.12.12,0,0,1-.09,0A6.67,6.67,0,0,1,99.85,93m1.37-2.09a.18.18,0,0,0,0,.05s-.1.17-.32.38a1.54,1.54,0,0,1-.55.36,1.77,1.77,0,0,1,.39-.48,1.34,1.34,0,0,1,.45-.32h0m-.58-1.53v.07c0,.12,0,.42-.09.89s-.22.64-.44.67c0,0-.06,0-.07,0a.11.11,0,0,1,0,0,2.17,2.17,0,0,0,.29-.85,1.24,1.24,0,0,1,.31-.71m-5.58,6.39s0-.06,0-.07l.06,0a13.66,13.66,0,0,0,1.6,1,1.24,1.24,0,0,0,.39.15c0,.06,0,.08,0,0a1.06,1.06,0,0,1-.22.07,1.65,1.65,0,0,1-1.23-.48,2.91,2.91,0,0,1-.43-.43A.68.68,0,0,1,95.06,95.74Z"/></g><g id="Layer2_9_MEMBER_1_MEMBER_0_MEMBER_2_MEMBER_1_FILL" data-name="Layer2 9 MEMBER 1 MEMBER 0 MEMBER 2 MEMBER 1 FILL"><path class="cls-31" d="M93.61,100.27l.44-.06h.09s0,.05.06.1a.16.16,0,0,1,0,.13l-.09,0-.44.06h-.1a.11.11,0,0,1-.06-.11q0-.09,0-.12Z"/></g><g id="Layer2_9_MEMBER_1_MEMBER_0_MEMBER_2_MEMBER_2_FILL" data-name="Layer2 9 MEMBER 1 MEMBER 0 MEMBER 2 MEMBER 2 FILL"><path class="cls-31" d="M91.74,100.37a.19.19,0,0,0,0-.08A.36.36,0,0,1,92,100c.12,0,.18,0,.19.11s0,.12,0,.08a.53.53,0,0,1-.13.1.58.58,0,0,1-.21.07A.12.12,0,0,1,91.74,100.37Z"/></g><g id="Layer2_9_MEMBER_1_MEMBER_0_MEMBER_2_MEMBER_3_FILL" data-name="Layer2 9 MEMBER 1 MEMBER 0 MEMBER 2 MEMBER 3 FILL"><path class="cls-31" d="M92.15,101.34h0a.39.39,0,0,1,.25-.06c.08,0,.12,0,.12.1s0,.09,0,.1l0,0h0a.21.21,0,0,1-.13,0h-.13l0,0s0,0,0-.1S92.14,101.34,92.15,101.34Z"/></g><g id="Layer2_9_MEMBER_1_MEMBER_0_MEMBER_2_MEMBER_4_FILL" data-name="Layer2 9 MEMBER 1 MEMBER 0 MEMBER 2 MEMBER 4 FILL"><path class="cls-31" d="M90.59,101.28l-.1,0c-.23,0-.36-.13-.37-.26s0-.1,0-.11l.09,0,.22.1c.11.06.17.1.17.14a.51.51,0,0,1,0,.1l0,0Z"/></g><g id="Layer2_9_MEMBER_1_MEMBER_0_MEMBER_2_MEMBER_5_FILL" data-name="Layer2 9 MEMBER 1 MEMBER 0 MEMBER 2 MEMBER 5 FILL"><path class="cls-31" d="M88.72,100.27h0a.81.81,0,0,1,.46,0c.13,0,.2.07.21.14s0,.1,0,.12,0,0-.09.05l-.44-.09q-.12,0-.12-.09S88.71,100.28,88.72,100.27Z"/></g><g id="Layer2_9_MEMBER_1_MEMBER_0_MEMBER_0_FILL-2" data-name="Layer2 9 MEMBER 1 MEMBER 0 MEMBER 0 FILL"><path class="cls-31" d="M90.48,92.77q-.08-.55.18-.36A1,1,0,0,1,91,93q0,.15.24.6a1.44,1.44,0,0,1,.16.54,1,1,0,0,1,.55,0,.11.11,0,0,1,.05.11v.12a1.48,1.48,0,0,1-.41.18,2,2,0,0,1-.44.11,3.7,3.7,0,0,1-.53,0,.17.17,0,0,0,0-.06.61.61,0,0,1,0-.14.24.24,0,0,1,.07-.19.64.64,0,0,1,.39-.12h0s-.09-.23-.26-.66A3.76,3.76,0,0,1,90.48,92.77Z"/></g><g id="Layer2_9_MEMBER_1_MEMBER_0_MEMBER_1_FILL-2" data-name="Layer2 9 MEMBER 1 MEMBER 0 MEMBER 1 FILL"><path class="cls-31" d="M89.81,94.7a.7.7,0,0,1-.23-.17,1.54,1.54,0,0,0,.21-.64c.08-.43.13-.73.17-.91s.12-.44.17-.42.12.3.2.83c0,.11,0,.28,0,.52s0,.5,0,.7l-.19.06-.19,0A.32.32,0,0,1,89.81,94.7Z"/></g><g id="Layer2_9_MEMBER_1_MEMBER_0_MEMBER_2_FILL-2" data-name="Layer2 9 MEMBER 1 MEMBER 0 MEMBER 2 FILL"><path class="cls-32" d="M92.5,90.34l.14,0,.66-.49a7.75,7.75,0,0,1,1.07-.8h.14l.56-.42a4.37,4.37,0,0,1-.16-1.16c-.07-.72-.12-1-.17-.8a.93.93,0,0,1-.25.28l.11.07a3,3,0,0,1,0,.47,5.53,5.53,0,0,0,0,.56,4.11,4.11,0,0,1-1.12,1.26,1.35,1.35,0,0,0-.63.49l-.33.37v.12m-2.1,1.47-.16,0a1.53,1.53,0,0,0-1.07.68l-.31.49a.58.58,0,0,1-.35.21,1.29,1.29,0,0,1-.56-.07,1,1,0,0,0-.37-.07c.25,1.14.46,1.58.63,1.33s.13-.54.21-.93a2,2,0,0,0,.65-.14v-.07l.17-.19.14-.28.18-.19a1.23,1.23,0,0,1,.8-.25l.28-.07.09,0a.06.06,0,0,1,.07-.07h.09l-.09.07h-.07l.07.07.3.12a5.4,5.4,0,0,0,.73.21,4,4,0,0,0,.81-.12,1.49,1.49,0,0,0,.63-.23,2,2,0,0,0,.24-.58,2.62,2.62,0,0,0,.32-.94c.44-.85.52-1.33.26-1.44-.06.06,0,.12,0,.18a4.94,4.94,0,0,0-.42.94l-.23.35c0,.08-.06.17-.19.28a.1.1,0,0,0-.07.11.38.38,0,0,1-.16.28,3.61,3.61,0,0,1-1.52.47,2,2,0,0,1-.91-.14A.4.4,0,0,1,90.4,91.81Z"/><path class="cls-33" d="M88.05,91.58c-.49.15-.73.29-.73.42-.28.26-.22.62.17,1.07h.09a1,1,0,0,1,.37.07,1.29,1.29,0,0,0,.56.07.58.58,0,0,0,.35-.21l.31-.49a1.53,1.53,0,0,1,1.07-.68l.16,0a.4.4,0,0,0,.21.07,2,2,0,0,0,.91.14A3.61,3.61,0,0,0,93,91.55a.38.38,0,0,0,.16-.28.1.1,0,0,1,.07-.11c.13-.11.19-.2.19-.28l.23-.35a4.94,4.94,0,0,1,.42-.94c-.07-.06-.08-.12,0-.18H94l.51-.31h-.14a7.75,7.75,0,0,0-1.07.8l-.66.49-.14,0v-.12l.33-.37a1.35,1.35,0,0,1,.63-.49,4.11,4.11,0,0,0,1.12-1.26,5.53,5.53,0,0,1,0-.56,3,3,0,0,0,0-.47L94.49,87a.28.28,0,0,1-.07.26,2.32,2.32,0,0,0-.26.21,1.84,1.84,0,0,1,.12-.82l.07-.65a25.9,25.9,0,0,0-1.47,2.66l-1.08.07a3.71,3.71,0,0,0-1.47.26,6.55,6.55,0,0,0-.91,1.35,7.89,7.89,0,0,0-.65,1Z"/></g><g id="Layer2_9_MEMBER_1_MEMBER_0_MEMBER_2_MEMBER_0_FILL-2" data-name="Layer2 9 MEMBER 1 MEMBER 0 MEMBER 2 MEMBER 0 FILL"><path class="cls-31" d="M86.86,93.59a.3.3,0,0,1-.17,0c-.06,0-.1-.08-.1-.12s0-.13.18-.17.21,0,.23.15v.09c0,.05-.06.09-.15.1m4.93-3.26.11-.15-.7.52a3.85,3.85,0,0,1-1.12.67.28.28,0,0,1-.17,0c.43-.36.86-.7,1.29-1,.64-.45,1-.61,1-.46h0c.06,0,.09,0,.1.06s-.14.32-.46.69a5.06,5.06,0,0,1-.54.6l-.07,0a4.52,4.52,0,0,1,.57-.9m1-1.51a.08.08,0,0,0,0,0s-.08.12-.24.27a1,1,0,0,1-.39.27,1.24,1.24,0,0,1,.28-.35c.15-.14.25-.22.33-.23h0m-.42-1.11v.05c0,.08,0,.3-.07.64s-.16.47-.32.49,0,0,0,0,0,0,0,0a1.45,1.45,0,0,0,.22-.61.87.87,0,0,1,.22-.51m-4,4.63s0,0,0,0l0,0a9.4,9.4,0,0,0,1.17.72,1.05,1.05,0,0,0,.28.1s0,.06,0,0l-.16.05a1.21,1.21,0,0,1-.9-.35,3,3,0,0,1-.31-.31A.7.7,0,0,1,88.31,92.34Z"/></g><g id="Layer2_9_MEMBER_1_MEMBER_0_MEMBER_2_MEMBER_1_FILL-2" data-name="Layer2 9 MEMBER 1 MEMBER 0 MEMBER 2 MEMBER 1 FILL"><path class="cls-31" d="M87.26,95.62l.32,0a.16.16,0,0,1,.07,0,.07.07,0,0,1,0,.07.11.11,0,0,1,0,.09l-.07,0-.32,0h-.07s0,0,0-.08,0-.07,0-.08Z"/></g><g id="Layer2_9_MEMBER_1_MEMBER_0_MEMBER_2_MEMBER_2_FILL-2" data-name="Layer2 9 MEMBER 1 MEMBER 0 MEMBER 2 MEMBER 2 FILL"><path class="cls-31" d="M85.91,95.69s0,0,0,0,.12-.18.22-.18.14,0,.14.08,0,.08,0,0a.35.35,0,0,1-.09.07l-.15.06S85.93,95.72,85.91,95.69Z"/></g><g id="Layer2_9_MEMBER_1_MEMBER_0_MEMBER_2_MEMBER_3_FILL-2" data-name="Layer2 9 MEMBER 1 MEMBER 0 MEMBER 2 MEMBER 3 FILL"><path class="cls-31" d="M86.21,96.4a0,0,0,0,1,0,0,.24.24,0,0,1,.18,0c.06,0,.09,0,.09.07a.15.15,0,0,1,0,.07l0,0h0l-.09,0h-.13s0,0,0-.07S86.2,96.4,86.21,96.4Z"/></g><g id="Layer2_9_MEMBER_1_MEMBER_0_MEMBER_2_MEMBER_4_FILL-2" data-name="Layer2 9 MEMBER 1 MEMBER 0 MEMBER 2 MEMBER 4 FILL"><path class="cls-31" d="M85.08,96.36H85q-.25,0-.27-.18s0-.07,0-.08l.07,0,.16.07c.08,0,.12.07.12.1a.32.32,0,0,1,0,.07l0,0Z"/></g><g id="Layer2_9_MEMBER_1_MEMBER_0_MEMBER_2_MEMBER_5_FILL-2" data-name="Layer2 9 MEMBER 1 MEMBER 0 MEMBER 2 MEMBER 5 FILL"><path class="cls-31" d="M83.72,95.62a0,0,0,0,0,0,0,.62.62,0,0,1,.33,0c.09,0,.14.06.15.1s0,.08,0,.09,0,0-.07,0l-.32-.07s-.08,0-.08-.06S83.71,95.63,83.72,95.62Z"/></g><g id="Layer2_9_MEMBER_1_MEMBER_0_MEMBER_0_FILL-3" data-name="Layer2 9 MEMBER 1 MEMBER 0 MEMBER 0 FILL"><path class="cls-31" d="M81.66,101.53c0-.3,0-.39-.14-.28a.82.82,0,0,0-.28.47,3.34,3.34,0,0,1-.19.48,1.13,1.13,0,0,0-.13.44.78.78,0,0,0-.44,0,.07.07,0,0,0,0,.08v.1a1.1,1.1,0,0,0,.32.14,1.64,1.64,0,0,0,.35.09,2.39,2.39,0,0,0,.43,0l0,0a.39.39,0,0,0,0-.11.15.15,0,0,0-.06-.15.46.46,0,0,0-.3-.1h0s.07-.19.21-.52A2.45,2.45,0,0,0,81.66,101.53Z"/></g><g id="Layer2_9_MEMBER_1_MEMBER_0_MEMBER_1_FILL-3" data-name="Layer2 9 MEMBER 1 MEMBER 0 MEMBER 1 FILL"><path class="cls-31" d="M82.2,103.07a.47.47,0,0,0,.19-.14,1.11,1.11,0,0,1-.18-.5c-.06-.34-.1-.59-.13-.73s-.09-.35-.13-.34-.1.25-.16.67c0,.08,0,.22,0,.41s0,.4,0,.56l.15,0,.15,0A.25.25,0,0,0,82.2,103.07Z"/></g><g id="Layer2_9_MEMBER_1_MEMBER_0_MEMBER_2_FILL-3" data-name="Layer2 9 MEMBER 1 MEMBER 0 MEMBER 2 FILL"><path class="cls-32" d="M80.05,99.59V99.5l-.26-.3a1.19,1.19,0,0,0-.5-.39,3.22,3.22,0,0,1-.9-1c0-.16,0-.31,0-.44a3.29,3.29,0,0,1,0-.38l.1,0a.94.94,0,0,1-.21-.23c0-.15-.08.07-.13.64a3.47,3.47,0,0,1-.13.93l.45.33h.11a8.25,8.25,0,0,1,.86.64l.52.39.11,0m1.51,1.23a1.5,1.5,0,0,1-.73.11,2.87,2.87,0,0,1-1.21-.37.36.36,0,0,1-.13-.22.1.1,0,0,0-.06-.1.35.35,0,0,1-.14-.22l-.19-.28a3,3,0,0,0-.34-.74c.07,0,.07-.1,0-.15-.21.08-.14.47.21,1.15a2,2,0,0,0,.26.75,1.82,1.82,0,0,0,.18.46,1.4,1.4,0,0,0,.51.19,3.37,3.37,0,0,0,.65.09,2.7,2.7,0,0,0,.58-.17l.24-.09.06,0h-.06l-.07-.06h.07a.05.05,0,0,1,.06.06l.07,0,.22,0a1,1,0,0,1,.64.21l.15.15.11.22.13.15V102a1.6,1.6,0,0,0,.52.11c.06.31.12.56.17.74s.3-.15.5-1.06a.75.75,0,0,0-.3.06.91.91,0,0,1-.44,0,.48.48,0,0,1-.28-.16l-.25-.4a1.22,1.22,0,0,0-.85-.54h-.13A.45.45,0,0,1,81.56,100.82Z"/><path class="cls-33" d="M83.61,100.58c.38.12.58.24.58.33.22.22.18.5-.13.86H84a.75.75,0,0,0-.3.06.91.91,0,0,1-.44,0,.48.48,0,0,1-.28-.16l-.25-.4a1.22,1.22,0,0,0-.85-.54h-.13a.45.45,0,0,1-.17,0,1.5,1.5,0,0,1-.73.11,2.87,2.87,0,0,1-1.21-.37.36.36,0,0,1-.13-.22.1.1,0,0,0-.06-.1.35.35,0,0,1-.14-.22l-.19-.28a3,3,0,0,0-.34-.74c.07,0,.07-.1,0-.15h.08l-.41-.25h.11a8.25,8.25,0,0,1,.86.64l.52.39.11,0V99.5l-.26-.3a1.19,1.19,0,0,0-.5-.39,3.22,3.22,0,0,1-.9-1c0-.16,0-.31,0-.44a3.29,3.29,0,0,1,0-.38l.1,0a.18.18,0,0,0,0,.2,1.39,1.39,0,0,1,.21.17,1.53,1.53,0,0,0-.1-.65l0-.52a21,21,0,0,1,1.17,2.12l.86.06a3,3,0,0,1,1.17.2,4.87,4.87,0,0,1,.73,1.08,6,6,0,0,1,.52.82Z"/></g><g id="Layer2_9_MEMBER_1_MEMBER_0_MEMBER_2_MEMBER_0_FILL-3" data-name="Layer2 9 MEMBER 1 MEMBER 0 MEMBER 2 MEMBER 0 FILL"><path class="cls-31" d="M84.56,102.18c-.07,0-.11,0-.12-.08V102c0-.11.08-.15.19-.11s.15.07.14.13a.14.14,0,0,1-.08.1.17.17,0,0,1-.13,0m-3.94-2.6a3.33,3.33,0,0,1,.45.72l0,0a4.16,4.16,0,0,1-.44-.48c-.25-.3-.37-.48-.36-.55s0-.07.08-.05h0c0-.12.28,0,.79.37.34.24.68.51,1,.8a.2.2,0,0,1-.14,0,3.17,3.17,0,0,1-.89-.53l-.56-.42.09.12m-.79-1.21h0a.66.66,0,0,1,.26.18,1.49,1.49,0,0,1,.23.28.85.85,0,0,1-.32-.21c-.13-.12-.19-.19-.19-.22v0m.34-.88a.72.72,0,0,1,.17.41,1.24,1.24,0,0,0,.17.49v0h-.05c-.12,0-.21-.15-.25-.39s0-.44,0-.51v0m3.12,3.84a1.48,1.48,0,0,1-.25.25,1,1,0,0,1-.71.28l-.13,0s0,0,0,0a.63.63,0,0,0,.23-.09,7.35,7.35,0,0,0,.93-.57h0a0,0,0,0,1,0,0S83.36,101.26,83.29,101.33Z"/></g><g id="Layer2_9_MEMBER_1_MEMBER_0_MEMBER_2_MEMBER_1_FILL-3" data-name="Layer2 9 MEMBER 1 MEMBER 0 MEMBER 2 MEMBER 1 FILL"><path class="cls-31" d="M84.23,103.81l-.25,0h0s0,0,0,0a.17.17,0,0,0,0,.08l.06,0,.25,0h.06s0,0,0-.07a.08.08,0,0,0,0-.06Z"/></g><g id="Layer2_9_MEMBER_1_MEMBER_0_MEMBER_2_MEMBER_2_FILL-3" data-name="Layer2 9 MEMBER 1 MEMBER 0 MEMBER 2 MEMBER 2 FILL"><path class="cls-31" d="M85.31,103.86l0,0a.2.2,0,0,0-.18-.14c-.07,0-.11,0-.11.06s0,.07,0,0a.18.18,0,0,0,.08.06.34.34,0,0,0,.11,0S85.3,103.88,85.31,103.86Z"/></g><g id="Layer2_9_MEMBER_1_MEMBER_0_MEMBER_2_MEMBER_3_FILL-3" data-name="Layer2 9 MEMBER 1 MEMBER 0 MEMBER 2 MEMBER 3 FILL"><path class="cls-31" d="M85.08,104.43a0,0,0,0,1,0,0,.21.21,0,0,0-.15,0,.09.09,0,0,0-.07.06v0l0,0h0l.07,0h.11s0,0,0-.06Z"/></g><g id="Layer2_9_MEMBER_1_MEMBER_0_MEMBER_2_MEMBER_4_FILL-3" data-name="Layer2 9 MEMBER 1 MEMBER 0 MEMBER 2 MEMBER 4 FILL"><path class="cls-31" d="M86,104.39l.06,0c.13,0,.21-.08.22-.15a.08.08,0,0,0,0-.07l0,0-.13.06c-.07,0-.1.06-.1.08a.18.18,0,0,0,0,.06l0,0Z"/></g><g id="Layer2_9_MEMBER_1_MEMBER_0_MEMBER_2_MEMBER_5_FILL-3" data-name="Layer2 9 MEMBER 1 MEMBER 0 MEMBER 2 MEMBER 5 FILL"><path class="cls-31" d="M87.07,103.81s0,0,0,0a.5.5,0,0,0-.27,0c-.07,0-.11,0-.12.08s0,.06,0,.07l0,0,.26-.06a.07.07,0,0,0,.07,0Z"/></g><g id="Layer2_9_MEMBER_1_MEMBER_0_MEMBER_0_FILL-4" data-name="Layer2 9 MEMBER 1 MEMBER 0 MEMBER 0 FILL"><path class="cls-31" d="M82.26,91.86c0-.26,0-.34-.13-.25a.73.73,0,0,0-.25.42,2.91,2.91,0,0,1-.17.43,1.17,1.17,0,0,0-.11.39.61.61,0,0,0-.39,0s0,0,0,.07V93a1.17,1.17,0,0,0,.29.13,1.78,1.78,0,0,0,.31.08l.37,0a.11.11,0,0,0,0-.05s0,0,0-.1a.14.14,0,0,0,0-.13.43.43,0,0,0-.27-.09h0s.07-.17.19-.47A3.27,3.27,0,0,0,82.26,91.86Z"/></g><g id="Layer2_9_MEMBER_1_MEMBER_0_MEMBER_1_FILL-4" data-name="Layer2 9 MEMBER 1 MEMBER 0 MEMBER 1 FILL"><path class="cls-31" d="M82.74,93.24a.53.53,0,0,0,.16-.13,1.09,1.09,0,0,1-.15-.45c0-.3-.09-.52-.12-.65s-.08-.31-.12-.3a1.43,1.43,0,0,0-.14.59c0,.08,0,.21,0,.38s0,.35,0,.49a.38.38,0,0,0,.14,0l.14,0A.32.32,0,0,0,82.74,93.24Z"/></g><g id="Layer2_9_MEMBER_1_MEMBER_0_MEMBER_2_FILL-4" data-name="Layer2 9 MEMBER 1 MEMBER 0 MEMBER 2 FILL"><path class="cls-32" d="M80.82,90.14v-.08l-.23-.27a1,1,0,0,0-.45-.35,2.88,2.88,0,0,1-.79-.89c0-.15,0-.28,0-.4a2.23,2.23,0,0,1,0-.33l.08,0a.87.87,0,0,1-.18-.2c0-.13-.07.05-.11.56A3.08,3.08,0,0,1,79,89l.4.3h.1a6.85,6.85,0,0,1,.76.56l.46.35.1,0m1.35,1.09a1.46,1.46,0,0,1-.65.1A2.74,2.74,0,0,1,80.44,91a.29.29,0,0,1-.11-.2.08.08,0,0,0,0-.08c-.09-.08-.14-.15-.14-.2L80,90.27a3.15,3.15,0,0,0-.3-.66c.06,0,.06-.09,0-.13-.19.07-.13.42.18,1a2,2,0,0,0,.23.67,1.31,1.31,0,0,0,.17.41,1.19,1.19,0,0,0,.44.17,3.49,3.49,0,0,0,.58.08,2.74,2.74,0,0,0,.52-.15L82,91.6l0,0h0l-.06,0H82s0,0,0,0l.07,0,.2,0a.88.88,0,0,1,.56.19l.14.13.09.2.12.13v.05a1.3,1.3,0,0,0,.47.1c0,.28.1.5.14.66s.28-.14.45-.94a.52.52,0,0,0-.26,0,1,1,0,0,1-.4.05.45.45,0,0,1-.25-.15l-.22-.35a1,1,0,0,0-.76-.48l-.11,0A.26.26,0,0,1,82.17,91.23Z"/><path class="cls-33" d="M84,91q.51.17.51.3c.2.18.16.44-.11.76h-.07a.52.52,0,0,0-.26,0,1,1,0,0,1-.4.05.45.45,0,0,1-.25-.15l-.22-.35a1,1,0,0,0-.76-.48l-.11,0a.26.26,0,0,1-.15,0,1.46,1.46,0,0,1-.65.1A2.74,2.74,0,0,1,80.44,91a.29.29,0,0,1-.11-.2.08.08,0,0,0,0-.08c-.09-.08-.14-.15-.14-.2L80,90.27a3.15,3.15,0,0,0-.3-.66c.06,0,.06-.09,0-.13h.06l-.36-.22h.1a6.85,6.85,0,0,1,.76.56l.46.35.1,0v-.08l-.23-.27a1,1,0,0,0-.45-.35,2.88,2.88,0,0,1-.79-.89c0-.15,0-.28,0-.4a2.23,2.23,0,0,1,0-.33l.08,0a.19.19,0,0,0,0,.18,1,1,0,0,1,.19.15,1.39,1.39,0,0,0-.09-.58l0-.47a18.53,18.53,0,0,1,1,1.89l.76,0a2.81,2.81,0,0,1,1.05.19,4.7,4.7,0,0,1,.64,1,5.73,5.73,0,0,1,.47.73Z"/></g><g id="Layer2_9_MEMBER_1_MEMBER_0_MEMBER_2_MEMBER_0_FILL-4" data-name="Layer2 9 MEMBER 1 MEMBER 0 MEMBER 2 MEMBER 0 FILL"><path class="cls-31" d="M84.83,92.45a.11.11,0,0,1-.1-.08v-.06c0-.1.07-.13.17-.1s.13.07.13.11a.12.12,0,0,1-.08.09.19.19,0,0,1-.12,0m-3.5-2.32a3.15,3.15,0,0,1,.4.64s0,0,0,0a3,3,0,0,1-.39-.42,1.37,1.37,0,0,1-.33-.49c0-.05,0-.07.08-.05h0c0-.11.25,0,.7.33a11.27,11.27,0,0,1,.91.71.2.2,0,0,1-.12,0,2.9,2.9,0,0,1-.79-.48l-.5-.37.08.11m-.7-1.08h0a.79.79,0,0,1,.23.16.93.93,0,0,1,.2.25.68.68,0,0,1-.28-.19c-.12-.1-.17-.17-.17-.19s0,0,0,0m.3-.78a.61.61,0,0,1,.15.36,1,1,0,0,0,.16.44s0,0,0,0l0,0c-.11,0-.19-.14-.23-.35s0-.4,0-.46v0m2.78,3.42a2.28,2.28,0,0,1-.22.22.91.91,0,0,1-.64.25l-.11,0s0,0,0,0a.57.57,0,0,0,.2-.07,6.74,6.74,0,0,0,.83-.51h0s0,0,0,0S83.77,91.62,83.71,91.69Z"/></g><g id="Layer2_9_MEMBER_1_MEMBER_0_MEMBER_2_MEMBER_1_FILL-4" data-name="Layer2 9 MEMBER 1 MEMBER 0 MEMBER 2 MEMBER 1 FILL"><path class="cls-31" d="M84.55,93.89l-.23,0h0a.11.11,0,0,0,0,0,.15.15,0,0,0,0,.07l0,0,.23,0h0a.06.06,0,0,0,0-.06s0,0,0-.06Z"/></g><g id="Layer2_9_MEMBER_1_MEMBER_0_MEMBER_2_MEMBER_2_FILL-4" data-name="Layer2 9 MEMBER 1 MEMBER 0 MEMBER 2 MEMBER 2 FILL"><path class="cls-31" d="M85.51,93.94s0,0,0,0a.21.21,0,0,0-.16-.13c-.06,0-.09,0-.1.06s0,.06,0,0l.07,0,.11,0S85.5,94,85.51,93.94Z"/></g><g id="Layer2_9_MEMBER_1_MEMBER_0_MEMBER_2_MEMBER_3_FILL-4" data-name="Layer2 9 MEMBER 1 MEMBER 0 MEMBER 2 MEMBER 3 FILL"><path class="cls-31" d="M85.3,94.44h0a.2.2,0,0,0-.13,0s-.06,0-.06,0,0,0,0,.05h0l.07,0h.09s0,0,0-.05Z"/></g><g id="Layer2_9_MEMBER_1_MEMBER_0_MEMBER_2_MEMBER_4_FILL-4" data-name="Layer2 9 MEMBER 1 MEMBER 0 MEMBER 2 MEMBER 4 FILL"><path class="cls-31" d="M86.1,94.41h.05c.12,0,.19-.06.2-.13s0-.05,0-.06l0,0-.11.06c-.06,0-.09,0-.09.07v0h0Z"/></g><g id="Layer2_9_MEMBER_1_MEMBER_0_MEMBER_2_MEMBER_5_FILL-4" data-name="Layer2 9 MEMBER 1 MEMBER 0 MEMBER 2 MEMBER 5 FILL"><path class="cls-31" d="M87.07,93.89s0,0,0,0a.49.49,0,0,0-.24,0c-.06,0-.1,0-.1.07a.08.08,0,0,0,0,.07l0,0L87,94a.07.07,0,0,0,.06,0Z"/></g><path class="cls-34" d="M51.73,130.74l1.84-.33a.61.61,0,0,1,.6,1l-1.61,2.25h1.76a1.86,1.86,0,0,1,1.54.83H50.19Z"/><path class="cls-35" d="M52,130.91h0a.63.63,0,0,1,.84.41l.65,2.15s1.51-.08,1.45,1H52.66l-1-2.71A.65.65,0,0,1,52,130.91Z"/><path class="cls-11" d="M42.31,131.63l2.93-4.21a3.69,3.69,0,0,1,3-1.58h3.53a2,2,0,0,1,1.93,2.29c-.45,2.55-1.59,6.32-4.4,6.32H43.79A1.8,1.8,0,0,1,42.31,131.63Z"/><path class="cls-36" d="M43.86,134.45l2-3.71a3.74,3.74,0,0,1,3.29-2h4.43l-1,3.95a2.27,2.27,0,0,1-2.2,1.72Z"/><ellipse class="cls-11" cx="48.77" cy="125.01" rx="1.57" ry="2.01"/><ellipse class="cls-11" cx="51.46" cy="125.01" rx="1.57" ry="2.01"/><circle class="cls-2" cx="48.77" cy="124.81" r="1.03"/><circle class="cls-2" cx="51.46" cy="124.81" r="1.03"/><path class="cls-36" d="M48.79,135.66c6.43,0,6.44-10,0-10s-6.45,10,0,10Z"/><path class="cls-11" d="M45.4,130.74l1.84-.33a.61.61,0,0,1,.6,1l-1.61,2.25H48a1.89,1.89,0,0,1,1.55.83H43.86Z"/><path class="cls-34" d="M52.49,128.17a1,1,0,0,0-1.85,0Z"/><path class="cls-25" d="M54,128.17H51.46a.23.23,0,0,1-.24-.23.24.24,0,0,1,.24-.24H54a.85.85,0,0,0,.85-.85.85.85,0,0,1,.85-.85h.93a.24.24,0,0,1,0,.48h-.93a.37.37,0,0,0-.38.37A1.32,1.32,0,0,1,54,128.17Z"/><path class="cls-11" d="M49.07,130.91h0a.65.65,0,0,1,.85.41l.64,2.15s1.52-.08,1.45,1H49.72l-1-2.71A.64.64,0,0,1,49.07,130.91Z"/><circle class="cls-20" cx="48.77" cy="124.81" r="0.55"/><path class="cls-20" d="M52,124.81a.56.56,0,1,1-1.11,0,.56.56,0,0,1,1.11,0Z"/></svg>