<svg xmlns="http://www.w3.org/2000/svg" viewBox="0 0 150 150"><defs><style>.cls-1{isolation:isolate;}.cls-2{fill:#a6eda8;opacity:0.44;}.cls-3{fill:#b0bde7;}.cls-4{fill:#eecfb4;}.cls-5{fill:#edcdb4;}.cls-6{fill:#ecc8b3;}.cls-7{fill:#ecc3b3;}.cls-8{fill:#e8b7a4;}.cls-9{fill:#e19486;}.cls-10{fill:#dc706d;}.cls-11{fill:#352a36;}.cls-12,.cls-23{fill:#fff;}.cls-12{opacity:0.3;mix-blend-mode:screen;}.cls-13{fill:#5d3742;}.cls-14{fill:#271c28;}.cls-15{fill:#4a2c3c;}.cls-16{fill:#443440;}.cls-17{fill:#5c4f58;}.cls-18{fill:#8c8184;}.cls-19{fill:#88434e;}.cls-20{fill:#7f434e;}.cls-21{fill:#b84a54;}.cls-22{fill:#77515b;}</style></defs><title>Mesa de trabajo 2</title><g class="cls-1"><g id="Capa_1" data-name="Capa 1"><circle class="cls-2" cx="75" cy="73.68" r="58.71"/><path class="cls-2" d="M88.78,9.53c-8.15,5.62-9,7.07-26.29,29.62-8.1,10.59-21.83,1.72-35.16,3.76C-5.4,47.91,1.89,87.09,1.89,87.09s4,22.62,23.6,25.66,25.13-2,39.08,7.9,53.25-.68,62-6.81,33.07-20.52,16.7-48c-8-13.46,15-28.72-5.14-49.41C115.66-6.64,99,2.47,88.78,9.53Z"/><path class="cls-2" d="M85.64,14.5c-7.4,5.09-8.19,6.41-23.86,26.87C54.43,51,42,42.94,29.87,44.78.17,49.32,6.78,84.88,6.78,84.88s3.65,20.53,21.42,23.29,22.81-1.86,35.46,7.16,48.33-.61,56.28-6.17,30-18.63,15.15-43.56c-7.28-12.21,13.61-26.06-4.66-44.84C110-.18,95,8.09,85.64,14.5Z"/><path class="cls-3" d="M4.53,103.17a91.57,91.57,0,0,1,27-51.93A84.3,84.3,0,0,0,3.53,98.94C3.23,100.49,4.14,101.64,4.53,103.17Z"/><path class="cls-3" d="M45.62,103.17a101.78,101.78,0,0,1,30-57.78,93.66,93.66,0,0,0-31.1,53.07C44.17,100.18,45.18,101.47,45.62,103.17Z"/><path class="cls-3" d="M113.3,103.17a101.85,101.85,0,0,1,30-57.78,93.68,93.68,0,0,0-31.11,53.07C111.86,100.18,112.87,101.47,113.3,103.17Z"/><path class="cls-3" d="M75,103.17a42.32,42.32,0,0,1,12.45-24,39,39,0,0,0-12.91,22C74.44,101.93,74.86,102.46,75,103.17Z"/><path class="cls-3" d="M63.36,103.17a42.27,42.27,0,0,1,12.46-24,38.92,38.92,0,0,0-12.92,22C62.76,101.93,63.18,102.46,63.36,103.17Z"/><path class="cls-3" d="M130.33,103.17A56.77,56.77,0,0,1,147,71a52.2,52.2,0,0,0-17.32,29.56C129.53,101.51,130.09,102.22,130.33,103.17Z"/><path class="cls-3" d="M22.89,103.17a62.48,62.48,0,0,1,18.4-35.46,57.51,57.51,0,0,0-19.08,32.57C22,101.34,22.62,102.12,22.89,103.17Z"/><path class="cls-3" d="M95.29,103.17a62.48,62.48,0,0,1,18.4-35.46,57.51,57.51,0,0,0-19.08,32.57C94.4,101.34,95,102.12,95.29,103.17Z"/><rect class="cls-4" x="0.5" y="95.86" width="149.5" height="53.87"/><rect class="cls-5" x="0.5" y="95.86" width="149.5" height="47.1"/><rect class="cls-6" x="0.5" y="95.86" width="149.5" height="30.55"/><rect class="cls-7" x="0.5" y="95.86" width="149.5" height="11.42"/><rect class="cls-4" x="0.5" y="95.86" width="149.5" height="0.38"/><path class="cls-4" d="M49.45,96.24a13.48,13.48,0,0,0-19,0Z"/><path class="cls-7" d="M35.39,98.61a7,7,0,0,1-2.79-.44,2,2,0,0,1-1-2.21,2.12,2.12,0,0,1,1-1.15c4.94-3,10.83-3.79,15.37.74a2.22,2.22,0,0,1,.83,2c-.56,2.21-5,1.41-6.45,1.4Q38.88,98.88,35.39,98.61Z"/><path class="cls-8" d="M32.94,96.24c-.86-1.07,2.32-3.68,7-3.57s8,2.58,7.33,3.77C46.4,98.16,34.33,98,32.94,96.24Z"/><path class="cls-9" d="M36.67,93.34a13.55,13.55,0,0,1,6.84,0,2.64,2.64,0,0,1,.91.39.92.92,0,0,1-.13,1.64,2.78,2.78,0,0,1-1,.25,18.94,18.94,0,0,1-6.19-.3A2.39,2.39,0,0,1,36.05,95a.9.9,0,0,1-.32-1A1.28,1.28,0,0,1,36.67,93.34Z"/><ellipse class="cls-10" cx="40.29" cy="93.87" rx="2" ry="0.34"/><path class="cls-11" d="M44.28,84.22,56.36,68.67l-.77-1.43S48.58,77,47.32,79s-4.47,3.4-3.76,4.29c0,0-15.82,10.27-16.24,10.3S22,95.57,22,95.57l-2.23.67L22,96l5.57-2L43.69,84S44,84.53,44.28,84.22Z"/><path class="cls-11" d="M104,88.7,87.62,83.31l-.2-1.08s9.89,3.58,11.8,4.37,4.85.62,4.82,1.36c0,0,16.26,1.15,16.56,1.05s4.69-.49,4.69-.49l1.89-.3-1.65.55-4.89.54-16.32-.9S104.33,88.81,104,88.7Z"/><path class="cls-11" d="M40.47,93.91S50.6,81.59,51.11,81.22s9.34-3,10.64-3.45,1.43-1,1.49-1.66-1.33-.83-2.08-1a11.12,11.12,0,0,0-3.1.6l.78,1S62,76,62.09,76.52,51.88,80,51.88,80a2.1,2.1,0,0,0-1,.52l-10.59,13S39.91,93.59,40.47,93.91Z"/><path class="cls-11" d="M67.76,61.41s-5.29-7.6-5.54-7.71-1.09.64-1.09.64-6.05,13-6.36,13.41-.76.77-.44,1,1.56.89,2-.08,5.58-13.83,5.58-13.83l3.55,7.44Z"/><path class="cls-11" d="M72.1,64.68c-.29-.06-1,1.17-1,1.17s-2.85,18.7-3.07,19.34l-.06.15c-1.24,1.14-7.55,6.94-8.48,7.56a68.56,68.56,0,0,1-6.21,3L50,96.3s2.39.17,3.15.14,6.14-2.83,6.7-2.91,6-5.07,8-6.93h0c.39.19.74.86,1-.54l3.29-19.84L76,70.72a1.31,1.31,0,0,0,2.19-.34h0S72.4,64.73,72.1,64.68Z"/><path class="cls-11" d="M57.45,72.27s-4.31-1.57-7-2.59a18.67,18.67,0,0,0-7.74-1,16.8,16.8,0,0,1,8,.76c4.87,1.51,7.88,2.8,7.88,2.8Z"/><path class="cls-11" d="M58.07,71.23s-4-2.27-6.48-3.74a18.65,18.65,0,0,0-7.46-2.27,16.65,16.65,0,0,1,7.79,2.11c4.54,2.31,7.3,4.09,7.3,4.09Z"/><path class="cls-11" d="M75.06,69.89s6.1,21.37,6.08,21.82.12.69.53.24,1.28.28.18-1.48-6-21.23-6-21.23Z"/><path class="cls-11" d="M81.6,91.5s25.13,4.31,25.69,4.42,8.47.21,8.47.21-8.07.16-8.65.09-25.79-4.09-25.79-4.09Z"/><path class="cls-11" d="M77.15,67.8s6.11,21.36,6.09,21.82.12.68.53.23,1.28.28.18-1.48-6-21.23-6-21.23Z"/><path class="cls-11" d="M83.7,89.41s27.35,6.09,27.91,6.2,8.47.2,8.47.2-8.07.16-8.65.09-28-5.87-28-5.87Z"/><path class="cls-11" d="M78.7,70.93s8,12.1,8.46,12.25,1-.69,1.12-1.11-.71-.07-3-3.35-7.75-10.83-7.75-10.83Z"/><path class="cls-11" d="M107.82,85.27,90.87,82.05l-.34-1s10.27,2.26,12.27,2.8,4.88,0,5,.72c0,0,16.27-1,16.56-1.11s4.59-1.09,4.59-1.09l1.83-.54-1.56.76-4.79,1.17-16.29,1.22S108.15,85.34,107.82,85.27Z"/><path class="cls-11" d="M80.42,70.93s9.51,11,10,11,.87-.8,1-1.24-.71,0-3.45-2.93-9.1-9.73-9.1-9.73Z"/><path class="cls-12" d="M86.18,61.77c11.92-.61,39.33-5.83,40.44-5s-6.9,7.46-19.53,7.84S86.18,61.77,86.18,61.77Z"/><path class="cls-13" d="M81.05,66.24c3,4.52,8.56,8,9,7.53s1.77-6.06,1.77-6.06L84.64,64Z"/><path class="cls-13" d="M113,72.16c2.14-.28,13.51-1.67,10.1-4.45s-12.38,1.45-12.38,1.45Z"/><path class="cls-13" d="M100.07,75c1.51.65,12.71-1.07,14.57-1.93,1.11-.51-3.91-3.92-3.91-3.92L99.39,71.34Z"/><path class="cls-13" d="M87.8,71.57a23.67,23.67,0,0,0,12.27,4.54c2.63.24-.68-6.7-.68-6.7l-9.93-1.92Z"/><path class="cls-11" d="M65.64,71.18c3.26.33,9.75,1.91,12.25,1S89.22,61.59,89.22,61.59,80.77,56,74.39,56.79s-12.55,7.92-12.5,9.61S62.24,70.83,65.64,71.18Z"/><path class="cls-14" d="M77.8,72.21q-2.72-.57-5.47-.93a25.55,25.55,0,0,1-5.22-1,10.86,10.86,0,0,1-3.48-2L63,70a4,4,0,0,0,2.63,1.18C68.86,71.51,75.25,73.05,77.8,72.21Z"/><path class="cls-15" d="M123.55,68.17a2.06,2.06,0,0,0-.44-.46c-3.4-2.79-12.38,1.45-12.38,1.45l-10.59,2c-.39-1-.75-1.78-.75-1.78l-7.65-1.48.05-.22L84.64,64l-3.59,2.2a22.28,22.28,0,0,0,3,3.57,9.05,9.05,0,0,1-.63-1.74c.45-.57,1-.58,1.62-1,7.9,6.81,20.62,7.54,38.28,1.18Z"/><path class="cls-11" d="M89.22,61.59S124.45,64.2,127,66s-15.51,6.3-25.82,6.36-18-7.76-18-7.76Z"/><path class="cls-11" d="M63.88,68.29a21.67,21.67,0,0,0-4.94.13c-.38.18-1.66,6.26-1.75,7.49s2.35,1.92,5.08-.8S63.88,68.29,63.88,68.29Z"/><path class="cls-16" d="M59.78,69a2.62,2.62,0,0,0-.87,1.1A6.49,6.49,0,0,0,58.42,73c.11,1.77,1.48,1.54,2.75.7a3.51,3.51,0,0,0,1.52-2,2.49,2.49,0,0,0-.56-2.38A2,2,0,0,0,59.78,69Z"/><path class="cls-17" d="M62.1,70.59a1.73,1.73,0,0,1-.51,1.7,1.3,1.3,0,0,1-1.7,0,1.7,1.7,0,0,1-.33-1.58,1.57,1.57,0,0,1,1-1.26A1.41,1.41,0,0,1,62.1,70.59Z"/><circle class="cls-18" cx="61.17" cy="70.43" r="0.57"/><path class="cls-16" d="M66.91,65.37a9.79,9.79,0,0,1-3.15-.07.73.73,0,0,1-.45-.29.65.65,0,0,1,.09-.69,4.92,4.92,0,0,1,.66-.71c.47-.45.94-.9,1.43-1.33a27.37,27.37,0,0,1,3.13-2.44,14.34,14.34,0,0,1,7.16-2.54,14.44,14.44,0,0,1,6.41,1.41A42.84,42.84,0,0,1,87.91,62a20.88,20.88,0,0,1-15,4.08A38.94,38.94,0,0,0,66.91,65.37Z"/><path class="cls-12" d="M89.22,61.59s30.57-7.83,33.32-6.89-6.24,6-16.43,8.41a31.71,31.71,0,0,1-17.72-.62Z"/><path class="cls-19" d="M88.21,69.82c-.32-.21-.67-.4-1-.59a19.91,19.91,0,0,0-2.16-1.18,4.39,4.39,0,0,1-.75.85,15.69,15.69,0,0,0,2,2.28c.58.55,1.38,1.55,2.21,1.67s1-.52.91-1.2A2.73,2.73,0,0,0,88.21,69.82Z"/><path class="cls-20" d="M100.56,73.54a29.22,29.22,0,0,0-9.27-1.77l-.09.33a17.19,17.19,0,0,0,4.59,2.64,13.37,13.37,0,0,0,2.94.86,2.44,2.44,0,0,0,1.51-.16C100.88,75.07,100.58,74.17,100.56,73.54Z"/><path class="cls-20" d="M113.45,72.06l-10.71,2a28.17,28.17,0,0,0,11.17-1.16Z"/><path class="cls-21" d="M86.87,70.61c.16.57,1,2,1.76,1.67,1-.45-.36-2.15-.95-2.38a.67.67,0,0,0-.77.1A.68.68,0,0,0,86.87,70.61Z"/><path class="cls-21" d="M99.27,74a4.21,4.21,0,0,0-1.86-.71c-.78-.13-1.47-.08-1.62.12s.41.63,1.27.88a4,4,0,0,0,2.2.11C99.43,74.34,99.43,74.2,99.27,74Z"/><path class="cls-22" d="M82.36,59.61a6.88,6.88,0,0,1-3.94.49,5.49,5.49,0,0,1-3.85-1.87A9.37,9.37,0,0,1,82.36,59.61Z"/><path class="cls-23" d="M73.34,58.46l1.59.87a2,2,0,0,1-.85.3.94.94,0,0,1-.81-.34A.63.63,0,0,1,73.34,58.46Z"/><path class="cls-23" d="M72.75,59.46A2.26,2.26,0,0,1,72,60a.78.78,0,0,1-.86-.18A3.4,3.4,0,0,1,72.75,59.46Z"/><path class="cls-23" d="M75,60a3.38,3.38,0,0,1,2.09,1A2.07,2.07,0,0,1,75,60Z"/><path class="cls-23" d="M73.31,61.06l1.59.86a1.78,1.78,0,0,1-.85.3.92.92,0,0,1-.81-.34A.61.61,0,0,1,73.31,61.06Z"/><path class="cls-23" d="M73.34,63.46l1.59.87a2,2,0,0,1-.85.3.94.94,0,0,1-.81-.34A.63.63,0,0,1,73.34,63.46Z"/><path class="cls-23" d="M72.75,62.46A2.26,2.26,0,0,1,72,63a.78.78,0,0,1-.86-.18A3.4,3.4,0,0,1,72.75,62.46Z"/><path class="cls-23" d="M75,63a3.38,3.38,0,0,1,2.09,1A2.07,2.07,0,0,1,75,63Z"/><path class="cls-23" d="M82,61a3.38,3.38,0,0,1,2.09,1A2.07,2.07,0,0,1,82,61Z"/><path class="cls-23" d="M69.34,60.46l1.59.87a2,2,0,0,1-.85.3.94.94,0,0,1-.81-.34A.63.63,0,0,1,69.34,60.46Z"/><path class="cls-23" d="M68.75,61.46A2.26,2.26,0,0,1,68,62a.78.78,0,0,1-.86-.18A3.4,3.4,0,0,1,68.75,61.46Z"/><path class="cls-23" d="M78.34,61.46l1.59.87a2,2,0,0,1-.85.3.94.94,0,0,1-.81-.34A.63.63,0,0,1,78.34,61.46Z"/><path class="cls-23" d="M77.9,62.37a2.32,2.32,0,0,1-.76.53.78.78,0,0,1-.86-.19A3.24,3.24,0,0,1,77.9,62.37Z"/><path class="cls-23" d="M79.62,63.62a2.32,2.32,0,0,1-.76.53A.78.78,0,0,1,78,64,3.24,3.24,0,0,1,79.62,63.62Z"/><path class="cls-23" d="M83.75,62.58a2.16,2.16,0,0,1-.77.54.78.78,0,0,1-.86-.19A3.4,3.4,0,0,1,83.75,62.58Z"/><path class="cls-23" d="M80,63a3.38,3.38,0,0,1,2.09,1A2.07,2.07,0,0,1,80,63Z"/><path class="cls-23" d="M80,61a3.38,3.38,0,0,1,2.09,1A2.07,2.07,0,0,1,80,61Z"/><path class="cls-16" d="M93.87,65.16a87.12,87.12,0,0,1,29.52.94c-4.92,1.43-9.9,2.87-15,3.1S97.9,68.34,93.87,65.16Z"/><path class="cls-22" d="M106.61,64.72l13.15,1.75a28.38,28.38,0,0,1-6.86.73A9.61,9.61,0,0,1,106.61,64.72Z"/><path class="cls-22" d="M105.32,67.28a2.32,2.32,0,0,1-3.79-2.11Z"/><path class="cls-22" d="M99.77,66.81a1.2,1.2,0,0,1-1.61-.2.81.81,0,0,1,0-1.08Z"/><path class="cls-23" d="M90.61,67.76a5.81,5.81,0,0,0-3.54-2.53A5.11,5.11,0,0,0,90.61,67.76Z"/><path class="cls-23" d="M94.18,69.49,91.32,66.9A3.41,3.41,0,0,0,94.18,69.49Z"/><path class="cls-23" d="M94.69,68A3.13,3.13,0,0,0,98,70.39Z"/><path class="cls-23" d="M98.6,69.29a3.51,3.51,0,0,0,3.47,1.46Z"/></g></g></svg>