<svg id="Capa_1" data-name="Capa 1" xmlns="http://www.w3.org/2000/svg" viewBox="0 0 150 150"><defs><style>.cls-1{fill:none;stroke:#000;stroke-width:6px;opacity:0.25;}.cls-1,.cls-5{stroke-miterlimit:10;}.cls-2{fill:#089b2b;}.cls-3,.cls-5{fill:#fff;}.cls-4{fill:#ffda00;}.cls-5{font-size:41.51px;stroke:#fff;font-family:MyriadPro-Regular, Myriad Pro;}.cls-6{fill:#606060;}.cls-7{fill:#ff8b2c;}.cls-8{fill:#0043ff;}</style></defs><title>Mesa de trabajo 1</title><polygon class="cls-1" points="74.88 55.5 50.61 73.14 59.88 101.67 89.89 101.67 99.16 73.14 74.88 55.5"/><circle class="cls-2" cx="28.28" cy="66.06" r="25.94"/><path class="cls-3" d="M29.78,82.05V72.13l3-3.71L32.43,68S30,71,29.62,70.91s-.49-1.82-.13-3.06A14.57,14.57,0,0,1,31.06,64c.49-.47-.4-.89-.4-.89a6.66,6.66,0,0,0-1.06,1.8c-.52,1.22-1,3.24-1.14,3.37s-.37.62-.55-.08a11.36,11.36,0,0,1-.13-5.09c.55-1.84-1.09.16-1.09.16a20.24,20.24,0,0,0,0,4.62c.34,1.17-.47.18-.93-.47s-2-3.55-2.26-3.58-.78.55-.78.55,2.44,3.68,2.88,4.28.73.92.47,1.44S23,68,22.33,67.38s-.47.91-.47.91a46.44,46.44,0,0,1,3.9,2.93,11.77,11.77,0,0,1,.88,1.35c.39.68,0,9.48,0,9.48Z"/><path class="cls-3" d="M25.46,83.09c-.31-.08-1-1.15-1-1.13l.87.24s-.31-.79-.19-.77a11.61,11.61,0,0,1,1,.62c.15.06.86-.57,1-.51a7.06,7.06,0,0,0,1.51.42c.26,0,1.19-1.21,1.65-1,.2.07.14.56.23.8s.26.33.53.2a1.85,1.85,0,0,1,.89-.17c.18,0,.89.45.5.39s-.83-.33-1.07.31a3.54,3.54,0,0,0-.19.64Z"/><path class="cls-3" d="M24.54,65.15c.82.86,1.76-1.2,2.38-1.2s.78.42,1.35.6,1.1-.75,1.56-.6.31,1,.73,1.2.67.31.67,1,.46.5.69.68c.65.49-1.05,1.94.81,2.37,1.18.27.32,2.87,4.37,2.09s3.81-3.19,3.53-3.6-.93-1-.78-1.74,1.8-.65,2.39-1.61a2.8,2.8,0,0,0-.72-3.8c-1.67-1.45-2.81-.77-3.38-1.35s1.11-1.07.68-2c-.35-.75-.83-.29-1.15-.91s.21-1.06-.67-1.43-1-.78-1.09-1.19a5.69,5.69,0,0,0-2.81-3.38c-1.72-.67-3.75-1.28-5.09-.62s-.93,1.23-1.38,1c-1.24-.59-1.59.26-2.16.47s-1.49-1-4,.44S19,54.06,18.25,54.66c-.29.24-1.13-.5-1.5.2-.28.53.52,1.33,0,1.51s-1.29.08-1.2.78c0,.4.68,1.09,0,1.4s-2.78,1.57-3,2.76c-.15.78-.72,2,1.87,4.51s-1.44,3,.58,5.25,3.71,2.79,5.27,1.8,3.64-1.89,3.4-2.79-1.19-1.2-.72-1.61,1.05-.45.93-1.35c-.05-.37-.78-1.14-.88-1.51S23.5,64.06,24.54,65.15Z"/><circle class="cls-4" cx="102.81" cy="120.39" r="25.94"/><text class="cls-5" transform="translate(91.56 135.38)">$</text><circle class="cls-6" cx="120.84" cy="66.06" r="25.94"/><path class="cls-3" d="M131,50.73c-.38.82-.74,1.62-1.12,2.41s-.44.88.13,1.7c.36.52.72,1,1.11,1.55a.55.55,0,0,0,.39.18,21.46,21.46,0,0,0,2.28-.21,2.63,2.63,0,0,0,1.62-.81,14.58,14.58,0,0,1,1.13-1.07,4.18,4.18,0,0,1,.17,2,5.1,5.1,0,0,1-4.12,4.44,5.31,5.31,0,0,1-2.71-.17.65.65,0,0,0-.41,0c-.08,0-.14.13-.22.21l-5.36,5.32,10.47,10.45-2.92,2.88L121,69.2l-1.46,1.44c-.93.94-1.86,1.88-2.8,2.81a.4.4,0,0,0-.13.49,5.15,5.15,0,0,1-4,6.78,1.48,1.48,0,0,1-.3,0c.44-.94.85-1.87,1.3-2.77a.8.8,0,0,0-.07-1c-.47-.58-.87-1.22-1.3-1.84a.45.45,0,0,0-.47-.22c-.74.08-1.49.13-2.24.18-.36,0-.68.08-.77.51a1.92,1.92,0,0,1-.17.39.83.83,0,0,1-1.28.4c-.09,0-.19-.13-.28-.12-.45,0-.47-.24-.48-.61a5.14,5.14,0,0,1,4.29-5.1,5.08,5.08,0,0,1,2.56.2.43.43,0,0,0,.4,0c1.44-1.4,2.86-2.82,4.26-4.22l-6-6-3.31,3.36L105,60l2.11-2.09c1.82-1.82,3.63-3.67,5.49-5.47a3.42,3.42,0,0,1,1.22-.56c1.53-.52,3.06-1,4.66-1.54-.14.42-.26.81-.39,1.2-.42,1.28-.87,2.55-1.27,3.84a2.48,2.48,0,0,1-.71,1.14l-1,1,6,6c.36-.35.75-.72,1.13-1.11,1.44-1.44,2.87-2.89,4.32-4.32a.46.46,0,0,0,.14-.58,5.17,5.17,0,0,1,4.08-6.75Z"/><circle class="cls-7" cx="46.68" cy="120.39" r="25.94"/><path class="cls-3" d="M46.4,142.35c-1.8-.19-3.61-.33-5.4-.57-1.12-.16-1.19-.33-1-1.46s.25-2.31.39-3.46A5.88,5.88,0,0,1,43,132.51a1.26,1.26,0,0,1,1.09-.08,5.48,5.48,0,0,0,4.82,0,1.27,1.27,0,0,1,1.09.1,5.9,5.9,0,0,1,2.63,4.36c.16,1.24.21,2.49.43,3.71.16.82-.27,1.06-.86,1.13-1.74.2-3.48.34-5.23.5h-.53Z"/><path class="cls-3" d="M60.76,122.32c-1.8-.17-3.61-.29-5.4-.54-1.27-.18-1.29-.33-1.14-1.57s.25-2.3.4-3.45a5.87,5.87,0,0,1,2.62-4.27,1.34,1.34,0,0,1,1.09-.08,5.44,5.44,0,0,0,4.82,0,1.3,1.3,0,0,1,1.09.08,5.62,5.62,0,0,1,2.52,3.84c.21,1.29.37,2.59.5,3.89s.06,1.39-1.17,1.56C64.33,122,62.55,122.15,60.76,122.32Z"/><path class="cls-3" d="M33.35,122.34l-5.58-.66c-.69-.09-.93-.45-.81-1.16.21-1.32.31-2.66.5-4A6,6,0,0,1,30,112.49a1,1,0,0,1,1.21-.1,4.85,4.85,0,0,0,4.7,0,1,1,0,0,1,1.21.11,6,6,0,0,1,2.49,4c.19,1.26.32,2.54.47,3.8s.08,1.34-1.13,1.51C37.14,122,35.33,122.15,33.35,122.34Z"/><path class="cls-3" d="M39.93,134.85a7,7,0,0,1-4,.64,9,9,0,0,1-7.64-5.76c-.39-.9-.83-1.21-1.75-.9a2.32,2.32,0,0,1-.82-.05,2.86,2.86,0,0,1,.18-.74c.88-1.58,1.79-3.15,2.7-4.71.53-.89.89-1,1.7-.31q2.06,1.64,4.08,3.32a2.48,2.48,0,0,1,.39.63,6.11,6.11,0,0,1-.67.35,2,2,0,0,1-.44.07c-1.7.33-1.89.71-1,2.27,1.37,2.48,3.65,3.74,6.25,4.53l1.06.34Z"/><path class="cls-3" d="M64.7,123.29a6.87,6.87,0,0,1,.42,1.06A9.06,9.06,0,0,1,60,134.83a5.37,5.37,0,0,1-.65.29.91.91,0,0,0-.69,1.29,4.39,4.39,0,0,1,0,1.09,5.94,5.94,0,0,1-1.13-.35c-1.41-.78-2.79-1.59-4.19-2.39-1-.6-1.12-1-.4-1.87,1.06-1.33,2.12-2.65,3.21-4a2.84,2.84,0,0,1,.69-.45c.12.23.24.45.34.69a1.82,1.82,0,0,1,.06.35c.36,1.82.65,2,2.28,1.11,2.54-1.37,3.77-3.7,4.56-6.34.1-.32.21-.64.32-1Z"/><path class="cls-3" d="M48.06,107c.29-.49.55-1,.86-1.46.59-.9.5-1.27-.48-1.7a8.36,8.36,0,0,0-6.75.27c-.84.34-1.64.79-2.72,1.32a6.19,6.19,0,0,1,.33-1.13,9.07,9.07,0,0,1,11.34-3.92c1.31.5,1.3.49,2.12-.62a2.61,2.61,0,0,1,.52-.41c.14.18.34.34.39.54.52,1.86,1,3.72,1.51,5.59.16.56-.06,1-.6,1.08-2.06.25-4.13.42-6.2.62C48.33,107.18,48.28,107.12,48.06,107Z"/><path class="cls-3" d="M60.69,112.32a4.46,4.46,0,0,1-4.45-4.5,4.5,4.5,0,1,1,9,0A4.46,4.46,0,0,1,60.69,112.32Z"/><path class="cls-3" d="M46.48,132.34a4.51,4.51,0,0,1,0-9A4.55,4.55,0,0,1,51,127.78,4.49,4.49,0,0,1,46.48,132.34Z"/><path class="cls-3" d="M33.54,112.32a4.42,4.42,0,0,1-4.49-4.44,4.48,4.48,0,1,1,9,0A4.42,4.42,0,0,1,33.54,112.32Z"/><circle class="cls-8" cx="74.85" cy="31.7" r="25.94"/><path class="cls-3" d="M81.4,38.43a11.13,11.13,0,0,1,.65,1.78c.37,2.3.68,4.61,1,6.92,0,.22,0,.45.06.68.18,1.43.06,1.6-1.39,1.93a37.67,37.67,0,0,1-9.93.75c-2.61-.1-5.21-.47-7.81-.73a1.89,1.89,0,0,1-.41-.1c-1.21-.35-1.28-.43-1.13-1.65.26-2.28.44-4.59.85-6.85a9.28,9.28,0,0,1,4.36-6.27.93.93,0,0,1,1.14,0,7.79,7.79,0,0,0,8,0,.83.83,0,0,1,1.06,0L80,36.51A4.19,4.19,0,0,1,81.4,38.43Z"/><path class="cls-3" d="M65.5,28a7.45,7.45,0,0,1,5.18-6.86.88.88,0,0,0,.72-.86,5.42,5.42,0,0,1,4-4.72,4,4,0,0,0,.83-.51c.65-.38,1.3-.76,2-1.13a9.06,9.06,0,0,0,.82-.42,5.47,5.47,0,0,1,7.61.72,1.52,1.52,0,0,0,.77.41,3.75,3.75,0,0,1,2.75,1.68,2.37,2.37,0,0,0,.65.65A5.26,5.26,0,0,1,93.32,22a5.3,5.3,0,0,1-3.11,4.48,2.86,2.86,0,0,0-1,.85,4.63,4.63,0,0,1-4.52,2,4.12,4.12,0,0,0-1.28.23,24,24,0,0,1-3.22.61.86.86,0,0,0-.91.6A6.79,6.79,0,0,1,72.91,35a6.66,6.66,0,0,1-6.39-3.8A19,19,0,0,1,65.5,28Zm7.55-7.28c4.63.94,6.39,2.84,6.89,7.31a.88.88,0,0,0,.61.57,3.8,3.8,0,0,0,2.76-.92,1.06,1.06,0,0,1,.85-.17,3,3,0,0,0,4-1.66,1.24,1.24,0,0,1,.7-.59A3.88,3.88,0,0,0,91.69,22a3.81,3.81,0,0,0-2-3.83c-.22-.12-.54-.22-.61-.41-.54-1.43-1.6-1.73-3-1.4-.17-.27-.3-.52-.46-.75a3.75,3.75,0,0,0-5.53-.87,2.51,2.51,0,0,1-1.46.72,1.75,1.75,0,0,0-1.18.73,1.91,1.91,0,0,1-1.49.92A3.69,3.69,0,0,0,73.05,20.68Z"/><path class="cls-8" d="M73.05,20.68A3.69,3.69,0,0,1,76,17.11a1.91,1.91,0,0,0,1.49-.92,1.75,1.75,0,0,1,1.18-.73,2.51,2.51,0,0,0,1.46-.72,3.75,3.75,0,0,1,5.53.87c.16.23.29.48.46.75,1.37-.33,2.43,0,3,1.4.07.19.39.29.61.41a3.81,3.81,0,0,1,2,3.83,3.88,3.88,0,0,1-2.8,3.22,1.24,1.24,0,0,0-.7.59,3,3,0,0,1-4,1.66,1.06,1.06,0,0,0-.85.17,3.8,3.8,0,0,1-2.76.92.88.88,0,0,1-.61-.57C79.44,23.52,77.68,21.62,73.05,20.68Z"/><circle class="cls-3" cx="85.83" cy="31.25" r="2"/><circle class="cls-3" cx="84.23" cy="35.02" r="1.5"/><circle class="cls-3" cx="81.83" cy="37.25" r="1"/></svg>