<svg xmlns="http://www.w3.org/2000/svg" width="50" height="50" viewBox="0 0 50 50">
  <g id="climafami_turquoise" transform="translate(-1158 -283)">
    <rect id="Rectángulo_608" data-name="Rectángulo 608" width="50" height="50" rx="10" transform="translate(1158 283)" fill="#00acc1"/>
    <g id="climafami_simbol" transform="translate(725.723 -200.469)">
      <path id="Trazado_2054" data-name="Trazado 2054" d="M770.013,328.018a7.014,7.014,0,0,1-1.78.74,19.137,19.137,0,0,1-4.5.538c-10.214,0-18.619-8.161-18.619-18.079s8.405-18.08,18.619-18.08a18.984,18.984,0,0,1,11.463,3.833" transform="translate(-304.798 195.332)" fill="#fff"/>
      <path id="Trazado_2055" data-name="Trazado 2055" d="M769.363,328.406a15.5,15.5,0,0,0,3.35-9.9,23.515,23.515,0,0,0-2.524-10.178,27.543,27.543,0,0,0-6.359-8.407,23.145,23.145,0,0,0-9.314-5.1,19.09,19.09,0,0,1,5.224,1.522,23.121,23.121,0,0,1,4.658,2.9,25.374,25.374,0,0,1,6.82,8.577,22.182,22.182,0,0,1,2.371,10.7,16.573,16.573,0,0,1-1.162,5.383A13.428,13.428,0,0,1,769.363,328.406Z" transform="translate(-303.423 195.579)" fill="#0090a4"/>
      <path id="Trazado_2056" data-name="Trazado 2056" d="M766.81,327.029c-.8-.18-1.6-.37-2.407-.578l-2.31-.936c-.712-.43-1.443-.842-2.139-1.3-.643-.532-1.332-1.021-1.943-1.6a20.288,20.288,0,0,1-5.239-8.5,23.794,23.794,0,0,1-.981-9.924c.14-.824.195-1.659.406-2.465s.369-1.623.642-2.407c.306-.772.578-1.555.911-2.31q.56-1.107,1.148-2.188c-.281.776-.567,1.543-.865,2.3-.25.776-.436,1.573-.655,2.352s-.309,1.592-.47,2.383-.154,1.609-.24,2.409a26.235,26.235,0,0,0,1.193,9.5,21.649,21.649,0,0,0,4.769,8.228A18.63,18.63,0,0,0,766.81,327.029Z" transform="translate(-303.844 195.579)" fill="#0090a4"/>
      <g id="Grupo_1901" data-name="Grupo 1901" transform="translate(436.277 489.804)">
        <path id="Trazado_2057" data-name="Trazado 2057" d="M769.307,328.912c.383,2.292-5,2.885-8.5,2.885a18.708,18.708,0,0,1-5.362-36.633,23.729,23.729,0,0,0-.393,21.949C760.891,329.072,768.753,325.588,769.307,328.912Z" transform="translate(-741.517 -294.175)" fill="#80aa11"/>
        <path id="Trazado_2058" data-name="Trazado 2058" d="M760.876,332.5a19.282,19.282,0,0,1-5.527-37.756l1.456-.44-.8,1.292a23.352,23.352,0,0,0-.366,21.4c3.646,7.463,8.036,8.707,10.941,9.531,1.669.473,3.111.882,3.369,2.425h0a1.863,1.863,0,0,1-.441,1.549C767.929,332.353,762.5,332.5,760.876,332.5Zm-6.529-36.2a18.132,18.132,0,0,0,6.529,35.051c3.185,0,6.818-.5,7.754-1.6a.714.714,0,0,0,.184-.619c-.132-.792-.92-1.049-2.549-1.511-2.912-.825-7.787-2.208-11.658-10.13A24.616,24.616,0,0,1,754.347,296.3Z" transform="translate(-741.59 -294.301)" fill="#80aa11"/>
      </g>
      <path id="Trazado_2059" data-name="Trazado 2059" d="M754.516,294.824c1.535,2.59,2.958,5.237,4.365,7.893s2.756,5.338,4.092,8.027c1.312,2.7,2.623,5.4,3.852,8.145L768.667,323c.577,1.39,1.189,2.762,1.734,4.168-.778-1.291-1.491-2.613-2.239-3.92l-2.129-3.973c-1.417-2.649-2.754-5.338-4.09-8.028-1.311-2.7-2.623-5.4-3.851-8.146S755.627,297.623,754.516,294.824Z" transform="translate(-303.423 195.579)" fill="#0090a4"/>
      <path id="Trazado_2060" data-name="Trazado 2060" d="M743.607,303.084l2.874-.563-3.443,1.749s.194-.449.269-.607C743.373,303.524,743.607,303.084,743.607,303.084Z" transform="translate(-305.101 196.704)" fill="#0090a4"/>
      <path id="Trazado_2061" data-name="Trazado 2061" d="M741.619,311.982l3.754-2.007-3.66,3.164s-.052-.474-.063-.63C741.64,312.376,741.619,311.982,741.619,311.982Z" transform="translate(-305.309 197.794)" fill="#0090a4"/>
      <path id="Trazado_2062" data-name="Trazado 2062" d="M746.546,323.179l2.547-3.621-1.786,4.332s-.313-.279-.414-.373S746.546,323.179,746.546,323.179Z" transform="translate(-304.588 199.195)" fill="#0090a4"/>
      <path id="Trazado_2063" data-name="Trazado 2063" d="M758.8,328.042l-1.386-3.288,2.6,3.251s-.479.023-.635.029S758.8,328.042,758.8,328.042Z" transform="translate(-303 199.955)" fill="#0090a4"/>
      <path id="Trazado_2064" data-name="Trazado 2064" d="M770.013,328.018a7.014,7.014,0,0,1-1.78.74,19.137,19.137,0,0,1-4.5.538c-10.214,0-18.619-8.161-18.619-18.079s8.405-18.08,18.619-18.08a18.984,18.984,0,0,1,11.463,3.833" transform="translate(-304.798 195.332)" fill="none" stroke="#4b3c2f" stroke-miterlimit="10" stroke-width="0.5"/>
      <path id="Trazado_2065" data-name="Trazado 2065" d="M747.214,317.487a83.044,83.044,0,0,0,8.672-2.523,57.842,57.842,0,0,0,8.171-3.676,64.894,64.894,0,0,0,7.536-4.865c1.212-.888,2.385-1.829,3.546-2.791,1.181-.939,2.311-1.94,3.479-2.909-.986,1.153-2.041,2.24-3.1,3.327-1.092,1.052-2.213,2.079-3.376,3.064a46.129,46.129,0,0,1-7.533,5.179,42.75,42.75,0,0,1-8.449,3.505A44.638,44.638,0,0,1,747.214,317.487Z" transform="translate(-304.491 196.442)" fill="#0090a4"/>
      <path id="Trazado_2066" data-name="Trazado 2066" d="M745.7,307.25c2.368-.559,4.717-1.118,7.009-1.835a51.883,51.883,0,0,0,6.689-2.579,42.06,42.06,0,0,0,6.188-3.581,17.283,17.283,0,0,0,1.45-1.06c.471-.369.954-.73,1.395-1.138.95-.745,1.794-1.606,2.7-2.422a29.6,29.6,0,0,1-2.315,2.83c-.407.46-.867.863-1.314,1.283s-.9.83-1.385,1.21a30.113,30.113,0,0,1-6.233,3.914,34.574,34.574,0,0,1-6.947,2.39A38.44,38.44,0,0,1,745.7,307.25Z" transform="translate(-304.712 195.551)" fill="#0090a4"/>
      <path id="Trazado_2067" data-name="Trazado 2067" d="M756.455,325.1a41.558,41.558,0,0,1,10.254-7.6,29.355,29.355,0,0,1,12.225-3.619,54.154,54.154,0,0,0-11.692,4.632A120.412,120.412,0,0,0,756.455,325.1Z" transform="translate(-303.139 198.366)" fill="#0090a4"/>
      <g id="Grupo_1902" data-name="Grupo 1902" transform="translate(462.67 490.991)">
        <path id="Trazado_2068" data-name="Trazado 2068" d="M776.081,330.23c-4.519.1-5.874-.471-7.141-1.317a7.34,7.34,0,0,1-2.7-4.179,15.621,15.621,0,0,1-.588-4.977,26.175,26.175,0,0,1,.69-4.976,4.828,4.828,0,0,1,1.136-2.154,2.57,2.57,0,0,1,.238-.269,1.694,1.694,0,0,0,.761-1.325,1.016,1.016,0,0,1,.549-.8,14.12,14.12,0,0,1,2.789-1.126c.273.065.323.307.386.519a1.42,1.42,0,0,0,.554.762,4.16,4.16,0,0,1,1.318,1.937,13.887,13.887,0,0,1,.711,2.427c.676,3.348.687,6.717,1.395,10.058.139.652.11,4.31.107,4.965A.535.535,0,0,1,776.081,330.23Z" transform="translate(-764.466 -293.324)" fill="#321916"/>
        <path id="Trazado_2069" data-name="Trazado 2069" d="M774.36,330.623c.19-.842.111-12.558-.607-16.063a9.118,9.118,0,0,0-.975-2.675,2.714,2.714,0,0,0-1.115-1.186c-.2-.1-.209-.3-.285-.464-.107-.234-.065-.546-.353-.688a1.811,1.811,0,0,1-.132-1.005,2.9,2.9,0,0,1,1.581-2.039c.425.056.691.39,1.033.591a2.68,2.68,0,0,1,.382.293,3.476,3.476,0,0,0,3.018.885,10.717,10.717,0,0,1,1.832,2.848,1.563,1.563,0,0,1-.319,1.554,3.96,3.96,0,0,0-.721,2.491c-.15,2.445-.175,4.892-.159,7.341a4.837,4.837,0,0,0,.064.88c.066,1.28.026,5.566.022,6.846a.5.5,0,0,1-.143.364C776.967,330.6,774.872,330.623,774.36,330.623Z" transform="translate(-763.7 -293.704)" fill="#b59992"/>
        <path id="Trazado_2070" data-name="Trazado 2070" d="M767.562,313.272c-.124-.162-.039-.335-.017-.5a5.4,5.4,0,0,0-1.5-4.814c.075-.108.186-.091.291-.081a2.118,2.118,0,0,0,1.975-.933,5.089,5.089,0,0,0,.567-.967c.1-.174.179-.359.279-.533a1.164,1.164,0,0,1,.452-.446.943.943,0,0,1,1.026,0,.889.889,0,0,1,.194,1.032c-.08.213-.214.4-.3.611a1.028,1.028,0,0,0,.219,1.179,8.324,8.324,0,0,1,.94.925c-.016.347.143.688.044,1.038-.721.295-1.437.6-2.165.878a1.514,1.514,0,0,0-1.121,1.571.46.46,0,0,1-.21.4C768,312.835,767.785,313.059,767.562,313.272Z" transform="translate(-764.407 -293.946)" fill="#63382f"/>
        <path id="Trazado_2071" data-name="Trazado 2071" d="M777.814,302.535c-.221.932-.886,1.131-1.725,1.021-.394-.052-.555.115-.612.492-.072.463-.222.912-.294,1.375a4.411,4.411,0,0,0,.837,3.306c.238.34.455.7.682,1.044a.211.211,0,0,1-.183.136,3.623,3.623,0,0,1-2.552-.649,13.193,13.193,0,0,0-1.7-1.21.156.156,0,0,1,.016-.152,9.413,9.413,0,0,0,1.067-1.9,2.5,2.5,0,0,0,.732-2.7,5.169,5.169,0,0,1-.251-1.173,1.3,1.3,0,0,0-.289-1.067c-.37-.4-.347-.507-.041-.965a2.284,2.284,0,0,1,.132-.2.654.654,0,0,1,.485-.152,1.7,1.7,0,0,0,1.322-.728,5.11,5.11,0,0,0,.981-2.422c.023-.155-.031-.41.283-.351.463.437,1.552,3.691,1.83,4.244.165.327.269.7-.128.862C777.867,301.608,777.877,302.345,777.814,302.535Z" transform="translate(-763.499 -295.206)" fill="#cc6958"/>
        <path id="Trazado_2072" data-name="Trazado 2072" d="M774.01,305.52a5.877,5.877,0,0,1-1.153,2,3.821,3.821,0,0,0-1.495,1.959,3.516,3.516,0,0,1-1.209-1.042,1.087,1.087,0,0,1-.024-1.217,2.507,2.507,0,0,0,.327-.687.657.657,0,0,0-.88-.808,1.1,1.1,0,0,0-.689.58q-.119.232-.24.462c-.4-.2-.3-.6-.382-.932.321-.721.511-1.493.868-2.2a3.548,3.548,0,0,1,.534-.8.921.921,0,0,0-.011-1.392.826.826,0,0,1-.276-.432,1.241,1.241,0,0,1,2.338-.478,2.38,2.38,0,0,0,.767.748A3.817,3.817,0,0,1,774.228,304,2.543,2.543,0,0,1,774.01,305.52Z" transform="translate(-764.083 -294.674)" fill="#060506"/>
        <path id="Trazado_2073" data-name="Trazado 2073" d="M769.929,300.928a1.628,1.628,0,0,1,.586.649.941.941,0,0,1-.15,1.088,5.159,5.159,0,0,0-1.133,2.189,3.788,3.788,0,0,1-.413.863,1.319,1.319,0,0,1-1.589.692c-.7-.267-1.355-.638-2.025-.974-.493-.444-.493-.444-.088-.971q.39-.507.782-1.012a5.058,5.058,0,0,1,1.386-1.706c.068-.064.148-.112.217-.175a3.484,3.484,0,0,1,2.008-.731A.517.517,0,0,1,769.929,300.928Z" transform="translate(-764.586 -294.533)" fill="#63382f"/>
        <path id="Trazado_2074" data-name="Trazado 2074" d="M765.236,304.848a3.24,3.24,0,0,1,1.293.5c1.105.6,1.372.578,2.321-.219.213.266.092.651.33.908a2.948,2.948,0,0,1-2.014,1.947,2.562,2.562,0,0,1-.911-.026c-.326-.156-.66-.293-.972-.471a1.054,1.054,0,0,1-.521-1.542C764.912,305.577,765.077,305.214,765.236,304.848Z" transform="translate(-764.616 -293.946)" fill="#63382f"/>
        <path id="Trazado_2075" data-name="Trazado 2075" d="M767.265,302.469c-.3-.1-.193-.351-.177-.533a4.164,4.164,0,0,1,1.272-2.549,3.249,3.249,0,0,1,1.556-.685,1.371,1.371,0,0,0,1.112-.818,4.118,4.118,0,0,1,1.245-1.687c.111-.08.361-.253.476-.314a4.447,4.447,0,0,1,2.844-.487,5.234,5.234,0,0,1,.917.275,4.325,4.325,0,0,1,1,.7c-.233.033-.144.222-.159.347a4.99,4.99,0,0,1-1.074,2.59,1.5,1.5,0,0,1-1.381.658.493.493,0,0,0-.382.092c-.469.432-.539.854.021,1.289a.5.5,0,0,1,.19.455c-.007.157.321,1.561.382,2.116a2.238,2.238,0,0,1-.879,2.266,10.961,10.961,0,0,0,.087-1.518,3.772,3.772,0,0,0-1.956-2.8.84.84,0,0,1-.417-.417,1.225,1.225,0,0,0-.873-.751,1.074,1.074,0,0,0-1.259.624c-.062.133-.111.272-.166.408A3.9,3.9,0,0,0,767.265,302.469Z" transform="translate(-764.259 -295.337)" fill="#321916"/>
        <path id="Trazado_2076" data-name="Trazado 2076" d="M776.661,299.13c-.019.117-.079.2-.205.2a.2.2,0,1,1,0-.4A.2.2,0,0,1,776.661,299.13Z" transform="translate(-762.914 -294.812)" fill="#060506"/>
        <path id="Trazado_2077" data-name="Trazado 2077" d="M766.93,303.315c.107.013.183.068.186.175a.174.174,0,0,1-.207.189.167.167,0,0,1-.165-.189C766.749,303.381,766.827,303.33,766.93,303.315Z" transform="translate(-764.305 -294.17)" fill="#060506"/>
      </g>
    </g>
  </g>
</svg>
