<svg xmlns="http://www.w3.org/2000/svg" width="258.849" height="40.079" viewBox="0 0 258.849 40.079">
  <g id="climafami_logo_big" transform="translate(-1046.42 -85)">
    <g id="Climafami" transform="translate(1153.364 94.573)">
      <path id="Trazado_2262" data-name="Trazado 2262" d="M568.72,327.328a5.284,5.284,0,0,1-1.351.562,14.492,14.492,0,0,1-3.419.408,13.729,13.729,0,1,1,0-27.445,14.41,14.41,0,0,1,8.7,2.909" transform="translate(-546.757 -300.853)" fill="#fff"/>
      <path id="Trazado_2263" data-name="Trazado 2263" d="M568.175,327.613a11.765,11.765,0,0,0,2.543-7.513,17.846,17.846,0,0,0-1.916-7.727,20.889,20.889,0,0,0-4.827-6.381,17.6,17.6,0,0,0-7.069-3.87,14.54,14.54,0,0,1,3.965,1.156,17.564,17.564,0,0,1,3.536,2.2,19.268,19.268,0,0,1,5.177,6.511,16.84,16.84,0,0,1,1.8,8.125,12.584,12.584,0,0,1-.883,4.086A10.179,10.179,0,0,1,568.175,327.613Z" transform="translate(-545.66 -300.656)" fill="#0090a4"/>
      <path id="Trazado_2264" data-name="Trazado 2264" d="M566.252,326.568c-.6-.136-1.216-.281-1.826-.438l-1.754-.711c-.54-.327-1.095-.64-1.624-.991-.487-.4-1.01-.775-1.473-1.21a15.392,15.392,0,0,1-3.978-6.449,18.06,18.06,0,0,1-.744-7.533c.106-.626.148-1.259.307-1.871s.281-1.232.487-1.828c.232-.587.439-1.18.693-1.753q.424-.842.871-1.662-.319.885-.657,1.747c-.189.589-.33,1.194-.5,1.785s-.235,1.208-.357,1.808-.117,1.222-.181,1.829a19.892,19.892,0,0,0,.905,7.208,16.433,16.433,0,0,0,3.62,6.245A14.143,14.143,0,0,0,566.252,326.568Z" transform="translate(-545.995 -300.656)" fill="#0090a4"/>
      <g id="Grupo_2008" data-name="Grupo 2008" transform="translate(0 1.012)">
        <path id="Trazado_2265" data-name="Trazado 2265" d="M568.2,328c.29,1.74-3.793,2.191-6.454,2.191a14.2,14.2,0,0,1-4.069-27.806,18.013,18.013,0,0,0-.3,16.66C561.813,328.118,567.781,325.473,568.2,328Z" transform="translate(-547.109 -301.628)" fill="#80aa11"/>
        <path id="Trazado_2266" data-name="Trazado 2266" d="M561.806,330.722a14.636,14.636,0,0,1-4.2-28.658l1.1-.335-.61.982a17.726,17.726,0,0,0-.276,16.24c2.767,5.665,6.1,6.609,8.3,7.235,1.267.359,2.36.669,2.557,1.841h0a1.414,1.414,0,0,1-.335,1.174C567.158,330.612,563.04,330.722,561.806,330.722Zm-4.956-27.474a13.763,13.763,0,0,0,4.956,26.6c2.417,0,5.173-.375,5.885-1.215a.541.541,0,0,0,.141-.47c-.1-.6-.7-.8-1.936-1.147-2.211-.626-5.911-1.676-8.849-7.688A18.678,18.678,0,0,1,556.85,303.248Z" transform="translate(-547.167 -301.729)" fill="#80aa11"/>
      </g>
      <path id="Trazado_2267" data-name="Trazado 2267" d="M556.905,302.123c1.165,1.968,2.246,3.976,3.313,5.992s2.091,4.052,3.105,6.093c1,2.051,1.991,4.1,2.925,6.183l1.4,3.123c.438,1.054.9,2.1,1.315,3.163-.59-.979-1.132-1.984-1.7-2.975l-1.615-3.016c-1.076-2.01-2.091-4.052-3.105-6.094-.994-2.051-1.99-4.1-2.923-6.183S557.748,304.249,556.905,302.123Z" transform="translate(-545.66 -300.656)" fill="#0090a4"/>
      <path id="Trazado_2268" data-name="Trazado 2268" d="M548.689,308.349l2.181-.426-2.614,1.327s.148-.341.206-.461C548.512,308.684,548.689,308.349,548.689,308.349Z" transform="translate(-546.998 -299.759)" fill="#0090a4"/>
      <path id="Trazado_2269" data-name="Trazado 2269" d="M547.188,315.062l2.849-1.523-2.777,2.4s-.039-.36-.049-.478C547.2,315.361,547.188,315.062,547.188,315.062Z" transform="translate(-547.164 -298.89)" fill="#0090a4"/>
      <path id="Trazado_2270" data-name="Trazado 2270" d="M550.9,323.507l1.933-2.748-1.354,3.288s-.238-.212-.315-.284S550.9,323.507,550.9,323.507Z" transform="translate(-546.589 -297.772)" fill="#0090a4"/>
      <path id="Trazado_2271" data-name="Trazado 2271" d="M560.137,327.169l-1.052-2.5,1.972,2.466s-.364.017-.483.021S560.137,327.169,560.137,327.169Z" transform="translate(-545.323 -297.166)" fill="#0090a4"/>
      <path id="Trazado_2272" data-name="Trazado 2272" d="M568.72,327.328a5.284,5.284,0,0,1-1.351.562,14.492,14.492,0,0,1-3.419.408,13.729,13.729,0,1,1,0-27.445,14.41,14.41,0,0,1,8.7,2.909" transform="translate(-546.757 -300.853)" fill="none" stroke="#4b3c2f" stroke-miterlimit="10" stroke-width="0.5"/>
      <path id="Trazado_2273" data-name="Trazado 2273" d="M551.4,319.292a62.562,62.562,0,0,0,6.583-1.915,43.877,43.877,0,0,0,6.2-2.79,49.19,49.19,0,0,0,5.721-3.693c.919-.673,1.811-1.388,2.692-2.118.9-.712,1.753-1.473,2.64-2.208-.747.875-1.55,1.7-2.355,2.525-.829.8-1.68,1.578-2.562,2.326a35.044,35.044,0,0,1-5.717,3.931,32.413,32.413,0,0,1-6.414,2.659A33.786,33.786,0,0,1,551.4,319.292Z" transform="translate(-546.511 -299.968)" fill="#0090a4"/>
      <path id="Trazado_2274" data-name="Trazado 2274" d="M550.265,311.557c1.8-.425,3.58-.849,5.319-1.393a39.5,39.5,0,0,0,5.079-1.959,31.907,31.907,0,0,0,4.7-2.718,13.365,13.365,0,0,0,1.1-.8c.358-.281.724-.554,1.059-.864.721-.567,1.361-1.219,2.05-1.84a22.375,22.375,0,0,1-1.756,2.149c-.31.349-.658.655-1,.974a13.95,13.95,0,0,1-1.051.919,22.872,22.872,0,0,1-4.731,2.97,26.23,26.23,0,0,1-5.273,1.814A29.248,29.248,0,0,1,550.265,311.557Z" transform="translate(-546.688 -300.678)" fill="#0090a4"/>
      <path id="Trazado_2275" data-name="Trazado 2275" d="M558.365,325a31.568,31.568,0,0,1,7.784-5.767,22.255,22.255,0,0,1,9.28-2.746A41.051,41.051,0,0,0,566.554,320,91.6,91.6,0,0,0,558.365,325Z" transform="translate(-545.434 -298.434)" fill="#0090a4"/>
      <g id="Grupo_2009" data-name="Grupo 2009" transform="translate(20.033 1.913)">
        <path id="Trazado_2276" data-name="Trazado 2276" d="M573.211,328.917c-3.43.08-4.458-.357-5.419-1a5.575,5.575,0,0,1-2.049-3.172,11.866,11.866,0,0,1-.447-3.777,19.793,19.793,0,0,1,.526-3.777,3.66,3.66,0,0,1,.86-1.634,1.96,1.96,0,0,1,.182-.206,1.288,1.288,0,0,0,.577-1.006.773.773,0,0,1,.417-.611,10.763,10.763,0,0,1,2.117-.853c.207.05.245.232.293.394a1.077,1.077,0,0,0,.419.579,3.163,3.163,0,0,1,1,1.47,10.605,10.605,0,0,1,.539,1.842c.513,2.542.522,5.1,1.059,7.635.105.494.083,3.27.081,3.768A.4.4,0,0,1,573.211,328.917Z" transform="translate(-564.395 -300.905)" fill="#321916"/>
        <path id="Trazado_2277" data-name="Trazado 2277" d="M571.875,329.23a79.872,79.872,0,0,0-.461-12.192,6.938,6.938,0,0,0-.74-2.03,2.062,2.062,0,0,0-.846-.9c-.15-.075-.159-.225-.217-.352-.081-.178-.05-.413-.268-.522a1.368,1.368,0,0,1-.1-.762,2.2,2.2,0,0,1,1.2-1.549c.323.043.524.3.784.449a1.9,1.9,0,0,1,.29.223,2.641,2.641,0,0,0,2.291.672,8.145,8.145,0,0,1,1.39,2.162,1.187,1.187,0,0,1-.243,1.179,3.007,3.007,0,0,0-.547,1.89c-.113,1.856-.133,3.714-.121,5.573a3.689,3.689,0,0,0,.049.667c.052.972.021,4.225.018,5.2a.384.384,0,0,1-.109.276C573.854,329.211,572.264,329.23,571.875,329.23Z" transform="translate(-563.784 -301.208)" fill="#b59992"/>
        <path id="Trazado_2278" data-name="Trazado 2278" d="M566.743,316.071c-.095-.124-.03-.255-.014-.38a4.1,4.1,0,0,0-1.137-3.654c.056-.082.141-.069.221-.062a1.607,1.607,0,0,0,1.5-.708,3.925,3.925,0,0,0,.431-.734c.076-.133.136-.273.211-.405a.873.873,0,0,1,.343-.337.718.718,0,0,1,.779,0,.674.674,0,0,1,.146.783c-.06.163-.163.3-.227.464a.781.781,0,0,0,.165.9,6,6,0,0,1,.714.7,3.267,3.267,0,0,1,.033.788c-.547.223-1.091.456-1.643.666a1.151,1.151,0,0,0-.851,1.193.35.35,0,0,1-.159.3C567.073,315.738,566.912,315.908,566.743,316.071Z" transform="translate(-564.348 -301.401)" fill="#63382f"/>
        <path id="Trazado_2279" data-name="Trazado 2279" d="M574.489,307.97c-.168.707-.672.858-1.308.775-.3-.039-.422.087-.465.373-.054.351-.169.693-.223,1.044a3.349,3.349,0,0,0,.636,2.509c.18.259.345.528.517.793a.162.162,0,0,1-.14.1,2.757,2.757,0,0,1-1.937-.492,9.9,9.9,0,0,0-1.286-.919.119.119,0,0,1,.012-.115,7.135,7.135,0,0,0,.809-1.446,1.9,1.9,0,0,0,.557-2.049,3.922,3.922,0,0,1-.191-.89.985.985,0,0,0-.218-.811c-.282-.306-.264-.385-.032-.733.033-.05.062-.1.1-.15a.492.492,0,0,1,.367-.115,1.282,1.282,0,0,0,1-.553,3.873,3.873,0,0,0,.745-1.837c.017-.118-.023-.312.215-.266a24.672,24.672,0,0,1,1.389,3.221c.126.248.2.531-.1.655C574.529,307.265,574.537,307.825,574.489,307.97Z" transform="translate(-563.623 -302.406)" fill="#cc6958"/>
        <path id="Trazado_2280" data-name="Trazado 2280" d="M571.624,310.214a4.474,4.474,0,0,1-.875,1.517,2.9,2.9,0,0,0-1.135,1.487,2.676,2.676,0,0,1-.918-.791.826.826,0,0,1-.018-.924,1.923,1.923,0,0,0,.247-.521.5.5,0,0,0-.667-.614.829.829,0,0,0-.523.44c-.06.118-.121.234-.181.351-.3-.153-.228-.457-.29-.708.242-.547.387-1.133.658-1.67a2.685,2.685,0,0,1,.405-.605.7.7,0,0,0-.008-1.057.62.62,0,0,1-.21-.328.942.942,0,0,1,1.775-.363,1.777,1.777,0,0,0,.582.568,2.9,2.9,0,0,1,1.323,2.063A1.935,1.935,0,0,1,571.624,310.214Z" transform="translate(-564.09 -301.981)" fill="#060506"/>
        <path id="Trazado_2281" data-name="Trazado 2281" d="M568.546,306.724a1.231,1.231,0,0,1,.445.492.714.714,0,0,1-.114.826,3.921,3.921,0,0,0-.86,1.662,2.773,2.773,0,0,1-.313.655,1,1,0,0,1-1.206.525,16.907,16.907,0,0,1-1.537-.739c-.374-.337-.374-.337-.067-.737l.592-.769a3.886,3.886,0,0,1,1.052-1.295c.052-.047.113-.084.165-.133a2.65,2.65,0,0,1,1.524-.555A.393.393,0,0,1,568.546,306.724Z" transform="translate(-564.491 -301.869)" fill="#63382f"/>
        <path id="Trazado_2282" data-name="Trazado 2282" d="M564.985,309.676a2.457,2.457,0,0,1,.982.38c.838.456,1.041.439,1.761-.166.162.2.07.494.252.689a2.241,2.241,0,0,1-1.529,1.478,1.957,1.957,0,0,1-.692-.02c-.247-.119-.5-.223-.738-.358a.8.8,0,0,1-.4-1.17C564.739,310.229,564.865,309.954,564.985,309.676Z" transform="translate(-564.515 -301.401)" fill="#63382f"/>
        <path id="Trazado_2283" data-name="Trazado 2283" d="M566.511,307.924c-.225-.073-.145-.267-.134-.4a3.164,3.164,0,0,1,.966-1.935,2.478,2.478,0,0,1,1.181-.521,1.039,1.039,0,0,0,.844-.62,3.122,3.122,0,0,1,.945-1.281,4.3,4.3,0,0,1,.361-.239,3.369,3.369,0,0,1,2.158-.37,4,4,0,0,1,.7.208,3.325,3.325,0,0,1,.761.532c-.177.024-.111.169-.121.263a3.784,3.784,0,0,1-.815,1.965,1.138,1.138,0,0,1-1.048.5.367.367,0,0,0-.289.069c-.357.328-.41.648.015.979a.38.38,0,0,1,.144.345c0,.119.244,1.185.29,1.605a1.7,1.7,0,0,1-.667,1.721,8.322,8.322,0,0,0,.066-1.151,2.865,2.865,0,0,0-1.484-2.124.636.636,0,0,1-.317-.316.924.924,0,0,0-.662-.57.816.816,0,0,0-.955.473c-.049.1-.086.207-.127.311A2.955,2.955,0,0,0,566.511,307.924Z" transform="translate(-564.23 -302.51)" fill="#321916"/>
        <path id="Trazado_2284" data-name="Trazado 2284" d="M573.591,305.37c-.014.088-.06.149-.156.148a.151.151,0,1,1,0-.3A.155.155,0,0,1,573.591,305.37Z" transform="translate(-563.158 -302.091)" fill="#060506"/>
        <path id="Trazado_2285" data-name="Trazado 2285" d="M566.259,308.521c.081.01.138.051.14.134a.131.131,0,0,1-.157.142.126.126,0,0,1-.125-.143C566.122,308.571,566.181,308.532,566.259,308.521Z" transform="translate(-564.267 -301.58)" fill="#060506"/>
      </g>
    </g>
    <g id="Grupo_2012" data-name="Grupo 2012" transform="translate(1046.42 85)">
      <g id="Grupo_2011" data-name="Grupo 2011">
        <g id="Grupo_2010" data-name="Grupo 2010">
          <path id="Trazado_2286" data-name="Trazado 2286" d="M471.8,309.536c-5.987,0-8.038,2.716-8.038,7.594,0,5.1,1.774,8.094,8.314,8.094,6.486,0,8.981-2.827,9.813-4.046a3.787,3.787,0,0,1,2.217,3.769c0,3.437-4.214,6.209-13.359,6.209-13.138,0-16.186-7.207-16.186-14.469s3.325-14.524,15.686-14.524c9.425,0,13.749,2.882,13.749,7.041,0,1.829-1.33,4.1-3.27,4.1C480.722,310.534,475.677,309.536,471.8,309.536Z" transform="translate(-454.557 -291.077)" fill="#fff"/>
          <path id="Trazado_2287" data-name="Trazado 2287" d="M491.111,331.942h-3.6c-3.549,0-5.544-.608-5.544-4.213V293.138h3.6c3.493,0,5.544.554,5.544,4.158Z" transform="translate(-450.315 -292.474)" fill="#fff"/>
          <path id="Trazado_2288" data-name="Trazado 2288" d="M496.649,292.9c2.827,0,5.1,1.885,5.1,4.1s-2.273,4.1-5.1,4.1c-2.717,0-4.989-1.885-4.989-4.1S493.931,292.9,496.649,292.9Zm4.6,39.081h-3.6c-3.05,0-5.544-1.386-5.544-4.989V304.262h4.269c2.939,0,4.879,1,4.879,4.157Z" transform="translate(-448.815 -292.511)" fill="#fff"/>
          <path id="Trazado_2289" data-name="Trazado 2289" d="M543.24,316.174c0-3.77-2.161-5.544-4.657-5.544-3.324,0-5.6,2.938-6.706,6.042V330.53h-9.148V316.174c0-3.77-1.939-5.544-4.6-5.544-3.437,0-5.821,3.049-6.761,6.042V330.53h-9.148V302.813h3.992c3.879,0,5.156,1.275,5.156,4.157v1.941c1.773-2.717,5.431-6.653,10.864-6.653a8.426,8.426,0,0,1,8.7,6.431c.776-1.221,4.879-6.431,11.751-6.431,5.6,0,9.7,3.658,9.7,11.309V330.53h-3.822c-3.882,0-5.323-1.606-5.323-5.543Z" transform="translate(-447.18 -291.062)" fill="#fff"/>
          <path id="Trazado_2290" data-name="Trazado 2290" d="M597.523,298.272a5.689,5.689,0,0,1-2.328,4.656s-.444-3.437-3.824-3.437-5.821,1.386-5.821,6.485v2.494H596.8v6.6H585.549v16.962H576.57v-26c0-8.7,4.268-13.469,12.915-13.469C594.7,292.563,597.523,295.445,597.523,298.272Z" transform="translate(-435.673 -292.563)" fill="#fff"/>
          <path id="Trazado_2291" data-name="Trazado 2291" d="M627.223,330.464c-4.269.167-8.536,0-8.536-3.936-1.552,2.329-5.323,4.546-10.7,4.546-6.985,0-12.362-3.992-12.362-14.026,0-11.031,5.6-14.357,12.362-14.357,6.541,0,9.536,3.436,10.754,6.154-.887-4.713,1.664-6.209,4.213-6.154l4.269.055Zm-22.45-13.026c0,6.152,2.106,7.815,6.707,7.815,5.655,0,6.485-4.434,6.485-7.76v-.555c0-4.434-1.829-7.04-6.485-7.04C606.879,309.9,604.773,311.838,604.773,317.438Z" transform="translate(-432.724 -290.996)" fill="#fff"/>
          <path id="Trazado_2292" data-name="Trazado 2292" d="M665.783,316.174c0-3.77-2.163-5.544-4.657-5.544-3.327,0-5.6,2.938-6.708,6.042V330.53h-9.146V316.174c0-3.77-1.941-5.544-4.6-5.544-3.437,0-5.821,3.049-6.763,6.042V330.53h-9.146V302.813h3.99c3.881,0,5.156,1.275,5.156,4.157v1.941c1.775-2.717,5.433-6.653,10.864-6.653a8.424,8.424,0,0,1,8.7,6.431c.776-1.221,4.879-6.431,11.753-6.431,5.6,0,9.7,3.658,9.7,11.309V330.53H671.1c-3.88,0-5.321-1.606-5.321-5.543Z" transform="translate(-428.214 -291.062)" fill="#fff"/>
          <path id="Trazado_2293" data-name="Trazado 2293" d="M674.966,292.9c2.828,0,5.1,1.885,5.1,4.1s-2.272,4.1-5.1,4.1c-2.716,0-4.989-1.885-4.989-4.1S672.25,292.9,674.966,292.9Zm4.6,39.081h-3.6c-3.05,0-5.544-1.386-5.544-4.989V304.262h4.268c2.939,0,4.878,1,4.878,4.157Z" transform="translate(-421.216 -292.511)" fill="#fff"/>
        </g>
      </g>
    </g>
  </g>
</svg>
