<svg xmlns="http://www.w3.org/2000/svg" width="146.894" height="22.744" viewBox="0 0 146.894 22.744">
  <g id="climafami_logo" transform="translate(-533.243 -209.174)">
    <g id="Climafami" transform="translate(593.932 214.607)">
      <path id="Trazado_2262" data-name="Trazado 2262" d="M560.545,315.878a3,3,0,0,1-.767.319,8.226,8.226,0,0,1-1.94.231,7.791,7.791,0,1,1,0-15.575,8.178,8.178,0,0,1,4.938,1.651" transform="translate(-548.081 -300.853)" fill="#fff"/>
      <path id="Trazado_2263" data-name="Trazado 2263" d="M563.3,316.588a6.676,6.676,0,0,0,1.443-4.263,10.127,10.127,0,0,0-1.087-4.385,11.855,11.855,0,0,0-2.739-3.621,9.987,9.987,0,0,0-4.012-2.2,8.251,8.251,0,0,1,2.25.656,9.968,9.968,0,0,1,2.007,1.25,10.935,10.935,0,0,1,2.938,3.695,9.557,9.557,0,0,1,1.022,4.611,7.141,7.141,0,0,1-.5,2.319A5.776,5.776,0,0,1,563.3,316.588Z" transform="translate(-550.524 -301.291)" fill="#0090a4"/>
      <path id="Trazado_2264" data-name="Trazado 2264" d="M561.272,316c-.343-.077-.69-.159-1.036-.248l-1-.4c-.307-.185-.621-.363-.921-.562-.277-.229-.573-.44-.836-.687a8.735,8.735,0,0,1-2.258-3.66,10.249,10.249,0,0,1-.422-4.275c.06-.355.084-.714.174-1.062s.159-.7.277-1.037.249-.67.393-.995q.241-.478.494-.943-.181.5-.373.991c-.107.334-.187.678-.282,1.013s-.134.685-.2,1.026-.066.693-.1,1.038a11.289,11.289,0,0,0,.514,4.091,9.326,9.326,0,0,0,2.054,3.544A8.027,8.027,0,0,0,561.272,316Z" transform="translate(-549.776 -301.291)" fill="#0090a4"/>
      <g id="Grupo_2008" data-name="Grupo 2008" transform="translate(0 0.574)">
        <path id="Trazado_2265" data-name="Trazado 2265" d="M559.267,316.916c.164.988-2.153,1.243-3.663,1.243A8.058,8.058,0,0,1,553.3,302.38a10.222,10.222,0,0,0-.17,9.454C555.642,316.986,559.028,315.485,559.267,316.916Z" transform="translate(-547.297 -301.953)" fill="#80aa11"/>
        <path id="Trazado_2266" data-name="Trazado 2266" d="M555.474,318.182a8.306,8.306,0,0,1-2.381-16.263l.627-.19-.346.557a10.06,10.06,0,0,0-.157,9.216c1.57,3.215,3.461,3.75,4.712,4.106.719.2,1.339.379,1.451,1.045h0a.8.8,0,0,1-.19.666C558.512,318.12,556.174,318.182,555.474,318.182Zm-2.813-15.591a7.81,7.81,0,0,0,2.813,15.1c1.372,0,2.936-.213,3.339-.689a.307.307,0,0,0,.08-.267c-.057-.341-.4-.451-1.1-.651-1.255-.355-3.354-.951-5.022-4.363A10.6,10.6,0,0,1,552.662,302.591Z" transform="translate(-547.167 -301.729)" fill="#80aa11"/>
      </g>
      <path id="Trazado_2267" data-name="Trazado 2267" d="M556.905,302.123c.661,1.117,1.275,2.256,1.88,3.4s1.187,2.3,1.762,3.457,1.13,2.328,1.66,3.509l.794,1.772c.248.6.512,1.189.746,1.795-.335-.556-.642-1.126-.964-1.688l-.917-1.712c-.611-1.141-1.187-2.3-1.762-3.458s-1.129-2.328-1.659-3.509S557.383,303.329,556.905,302.123Z" transform="translate(-550.524 -301.291)" fill="#0090a4"/>
      <path id="Trazado_2268" data-name="Trazado 2268" d="M548.5,308.165l1.238-.242-1.484.753s.084-.193.117-.261S548.5,308.165,548.5,308.165Z" transform="translate(-547.542 -303.29)" fill="#0090a4"/>
      <path id="Trazado_2269" data-name="Trazado 2269" d="M547.188,314.4l1.617-.864-1.576,1.362s-.022-.2-.028-.271S547.188,314.4,547.188,314.4Z" transform="translate(-547.174 -305.226)" fill="#0090a4"/>
      <path id="Trazado_2270" data-name="Trazado 2270" d="M550.9,322.319l1.1-1.56-.769,1.866s-.135-.121-.179-.161S550.9,322.319,550.9,322.319Z" transform="translate(-548.454 -307.714)" fill="#0090a4"/>
      <path id="Trazado_2271" data-name="Trazado 2271" d="M559.682,326.09l-.6-1.416,1.119,1.4-.274.012Z" transform="translate(-551.275 -309.064)" fill="#0090a4"/>
      <path id="Trazado_2272" data-name="Trazado 2272" d="M560.545,315.878a3,3,0,0,1-.767.319,8.226,8.226,0,0,1-1.94.231,7.791,7.791,0,1,1,0-15.575,8.178,8.178,0,0,1,4.938,1.651" transform="translate(-548.081 -300.853)" fill="none" stroke="#4b3c2f" stroke-miterlimit="10" stroke-width="0.5"/>
      <path id="Trazado_2273" data-name="Trazado 2273" d="M551.4,313.789a35.508,35.508,0,0,0,3.736-1.087,24.905,24.905,0,0,0,3.52-1.583,27.917,27.917,0,0,0,3.246-2.1c.522-.382,1.028-.788,1.528-1.2s.995-.836,1.5-1.253c-.424.5-.88.965-1.336,1.433-.47.454-.953.9-1.454,1.32a19.885,19.885,0,0,1-3.245,2.231,18.4,18.4,0,0,1-3.64,1.509A19.176,19.176,0,0,1,551.4,313.789Z" transform="translate(-548.627 -302.823)" fill="#0090a4"/>
      <path id="Trazado_2274" data-name="Trazado 2274" d="M550.265,307.416c1.02-.241,2.031-.482,3.018-.79a22.411,22.411,0,0,0,2.882-1.111,18.111,18.111,0,0,0,2.665-1.543,7.587,7.587,0,0,0,.625-.456c.2-.159.411-.315.6-.49.409-.322.773-.692,1.163-1.044a12.7,12.7,0,0,1-1,1.22c-.176.2-.374.372-.566.552a7.911,7.911,0,0,1-.6.522,12.979,12.979,0,0,1-2.685,1.685,14.888,14.888,0,0,1-2.992,1.03A16.6,16.6,0,0,1,550.265,307.416Z" transform="translate(-548.235 -301.242)" fill="#0090a4"/>
      <path id="Trazado_2275" data-name="Trazado 2275" d="M558.365,321.314a17.917,17.917,0,0,1,4.418-3.273,12.629,12.629,0,0,1,5.266-1.558,23.3,23.3,0,0,0-5.037,1.995A51.99,51.99,0,0,0,558.365,321.314Z" transform="translate(-551.027 -306.24)" fill="#0090a4"/>
      <g id="Grupo_2009" data-name="Grupo 2009" transform="translate(11.368 1.086)">
        <path id="Trazado_2276" data-name="Trazado 2276" d="M569.784,321.982c-1.946.045-2.53-.2-3.075-.567a3.164,3.164,0,0,1-1.163-1.8,6.733,6.733,0,0,1-.254-2.144,11.232,11.232,0,0,1,.3-2.144,2.077,2.077,0,0,1,.488-.927,1.107,1.107,0,0,1,.1-.117.731.731,0,0,0,.328-.571.439.439,0,0,1,.237-.347,6.1,6.1,0,0,1,1.2-.484c.117.028.139.132.166.223a.611.611,0,0,0,.238.328,1.8,1.8,0,0,1,.568.834,6.014,6.014,0,0,1,.306,1.045c.291,1.442.3,2.893.6,4.333.06.28.047,1.856.046,2.138A.23.23,0,0,1,569.784,321.982Z" transform="translate(-564.781 -306.085)" fill="#321916"/>
        <path id="Trazado_2277" data-name="Trazado 2277" d="M570.733,321.311a45.323,45.323,0,0,0-.261-6.919,3.939,3.939,0,0,0-.42-1.152,1.171,1.171,0,0,0-.48-.511c-.085-.043-.09-.128-.123-.2-.046-.1-.028-.235-.152-.3a.776.776,0,0,1-.057-.433,1.25,1.25,0,0,1,.681-.879c.183.024.3.168.445.255a1.079,1.079,0,0,1,.164.126,1.5,1.5,0,0,0,1.3.381,4.622,4.622,0,0,1,.789,1.227.674.674,0,0,1-.138.669,1.706,1.706,0,0,0-.311,1.073c-.064,1.053-.075,2.108-.069,3.163a2.1,2.1,0,0,0,.028.379c.03.552.012,2.4.01,2.95a.218.218,0,0,1-.062.157C571.856,321.3,570.953,321.311,570.733,321.311Z" transform="translate(-566.141 -305.409)" fill="#b59992"/>
        <path id="Trazado_2278" data-name="Trazado 2278" d="M566.245,313.306c-.054-.07-.017-.145-.008-.216a2.328,2.328,0,0,0-.646-2.073c.032-.047.08-.039.125-.035a.912.912,0,0,0,.851-.4,2.23,2.23,0,0,0,.244-.417c.043-.075.077-.155.12-.23a.5.5,0,0,1,.195-.191.407.407,0,0,1,.442,0,.382.382,0,0,1,.083.444c-.034.092-.092.173-.129.263a.443.443,0,0,0,.094.509,3.4,3.4,0,0,1,.4.4,1.852,1.852,0,0,1,.019.447c-.311.126-.619.259-.932.378a.653.653,0,0,0-.483.677.2.2,0,0,1-.09.172C566.433,313.117,566.341,313.213,566.245,313.306Z" transform="translate(-564.886 -304.98)" fill="#63382f"/>
        <path id="Trazado_2279" data-name="Trazado 2279" d="M572.666,305.9c-.1.4-.381.487-.742.44-.171-.022-.239.049-.264.212-.031.2-.1.393-.127.592a1.9,1.9,0,0,0,.361,1.424c.1.147.2.3.294.45a.092.092,0,0,1-.079.058,1.565,1.565,0,0,1-1.1-.279,5.615,5.615,0,0,0-.73-.522.068.068,0,0,1,.007-.066,4.053,4.053,0,0,0,.459-.82,1.077,1.077,0,0,0,.316-1.163,2.226,2.226,0,0,1-.108-.505.559.559,0,0,0-.124-.46c-.16-.174-.15-.218-.018-.416.019-.028.035-.058.057-.085a.28.28,0,0,1,.208-.065.727.727,0,0,0,.569-.314,2.2,2.2,0,0,0,.423-1.043c.01-.067-.013-.177.122-.151a14.009,14.009,0,0,1,.788,1.828c.071.141.116.3-.055.372C572.689,305.5,572.693,305.817,572.666,305.9Z" transform="translate(-566.5 -302.742)" fill="#cc6958"/>
        <path id="Trazado_2280" data-name="Trazado 2280" d="M569.739,308.359a2.54,2.54,0,0,1-.5.861,1.647,1.647,0,0,0-.644.844,1.519,1.519,0,0,1-.521-.449.469.469,0,0,1-.01-.524,1.092,1.092,0,0,0,.14-.3.283.283,0,0,0-.379-.349.47.47,0,0,0-.3.25l-.1.2c-.172-.087-.129-.26-.164-.4.138-.311.22-.643.374-.948a1.523,1.523,0,0,1,.23-.343.4.4,0,0,0,0-.6.352.352,0,0,1-.119-.186.535.535,0,0,1,1.007-.206,1.008,1.008,0,0,0,.33.322,1.644,1.644,0,0,1,.751,1.17A1.1,1.1,0,0,1,569.739,308.359Z" transform="translate(-565.463 -303.688)" fill="#060506"/>
        <path id="Trazado_2281" data-name="Trazado 2281" d="M566.87,306.693a.7.7,0,0,1,.252.279.405.405,0,0,1-.065.469,2.225,2.225,0,0,0-.488.943,1.576,1.576,0,0,1-.178.372.568.568,0,0,1-.684.3,9.592,9.592,0,0,1-.872-.419c-.212-.191-.212-.191-.038-.418l.336-.436a2.205,2.205,0,0,1,.6-.735c.029-.027.064-.048.094-.075a1.5,1.5,0,0,1,.865-.315A.223.223,0,0,1,566.87,306.693Z" transform="translate(-564.569 -303.938)" fill="#63382f"/>
        <path id="Trazado_2282" data-name="Trazado 2282" d="M564.782,309.676a1.394,1.394,0,0,1,.557.216c.476.259.591.249,1-.094.092.115.04.28.143.391a1.272,1.272,0,0,1-.868.839,1.11,1.11,0,0,1-.392-.011c-.14-.067-.284-.126-.419-.2a.454.454,0,0,1-.225-.664C564.642,309.99,564.714,309.834,564.782,309.676Z" transform="translate(-564.515 -304.98)" fill="#63382f"/>
        <path id="Trazado_2283" data-name="Trazado 2283" d="M566.443,305.582c-.128-.041-.083-.151-.076-.229a1.8,1.8,0,0,1,.548-1.1,1.406,1.406,0,0,1,.67-.3.59.59,0,0,0,.479-.352,1.772,1.772,0,0,1,.536-.727,2.441,2.441,0,0,1,.2-.136,1.912,1.912,0,0,1,1.225-.21,2.269,2.269,0,0,1,.4.118,1.889,1.889,0,0,1,.432.3c-.1.014-.063.1-.069.149a2.148,2.148,0,0,1-.463,1.115.646.646,0,0,1-.595.284.208.208,0,0,0-.164.039c-.2.186-.233.368.009.556a.216.216,0,0,1,.082.2c0,.067.138.672.164.911a.965.965,0,0,1-.379.976,4.715,4.715,0,0,0,.037-.653,1.626,1.626,0,0,0-.842-1.205.361.361,0,0,1-.18-.18.524.524,0,0,0-.375-.324.463.463,0,0,0-.542.269c-.028.058-.049.117-.072.176A1.677,1.677,0,0,0,566.443,305.582Z" transform="translate(-565.149 -302.51)" fill="#321916"/>
        <path id="Trazado_2284" data-name="Trazado 2284" d="M573.458,305.3c-.008.05-.034.085-.088.084a.086.086,0,1,1,0-.171A.088.088,0,0,1,573.458,305.3Z" transform="translate(-567.537 -303.443)" fill="#060506"/>
        <path id="Trazado_2285" data-name="Trazado 2285" d="M566.2,308.521c.046.006.079.029.079.076a.074.074,0,0,1-.089.081.071.071,0,0,1-.071-.081C566.12,308.549,566.153,308.527,566.2,308.521Z" transform="translate(-565.067 -304.582)" fill="#060506"/>
      </g>
    </g>
    <g id="Grupo_2012" data-name="Grupo 2012" transform="translate(533.243 209.174)">
      <g id="Grupo_2011" data-name="Grupo 2011">
        <g id="Grupo_2010" data-name="Grupo 2010">
          <path id="Trazado_2286" data-name="Trazado 2286" d="M464.34,306.347c-3.4,0-4.562,1.541-4.562,4.309,0,2.895,1.007,4.593,4.718,4.593,3.681,0,5.1-1.6,5.569-2.3a2.149,2.149,0,0,1,1.258,2.139c0,1.95-2.391,3.524-7.581,3.524-7.456,0-9.186-4.09-9.186-8.211s1.887-8.242,8.9-8.242c5.349,0,7.8,1.636,7.8,4,0,1.038-.755,2.328-1.856,2.328C469.405,306.913,466.542,306.347,464.34,306.347Z" transform="translate(-454.557 -295.872)" fill="#fff"/>
          <path id="Trazado_2287" data-name="Trazado 2287" d="M487.155,315.159h-2.044c-2.014,0-3.146-.345-3.146-2.391v-19.63h2.044c1.982,0,3.146.315,3.146,2.36Z" transform="translate(-464.004 -292.761)" fill="#fff"/>
          <path id="Trazado_2288" data-name="Trazado 2288" d="M494.491,292.9a2.373,2.373,0,1,1-2.831,2.328A2.673,2.673,0,0,1,494.491,292.9Zm2.611,22.178h-2.045c-1.731,0-3.146-.786-3.146-2.831v-12.9h2.423c1.668,0,2.769.566,2.769,2.359Z" transform="translate(-467.346 -292.678)" fill="#fff"/>
          <path id="Trazado_2289" data-name="Trazado 2289" d="M525.5,310.156c0-2.14-1.226-3.146-2.643-3.146-1.887,0-3.177,1.667-3.806,3.429V318.3h-5.191v-8.147c0-2.14-1.1-3.146-2.611-3.146-1.95,0-3.3,1.73-3.837,3.429V318.3h-5.191V302.574h2.266c2.2,0,2.926.723,2.926,2.359v1.1c1.006-1.542,3.082-3.775,6.165-3.775a4.782,4.782,0,0,1,4.939,3.65,8.375,8.375,0,0,1,6.669-3.65c3.178,0,5.5,2.076,5.5,6.418V318.3h-2.169c-2.2,0-3.021-.912-3.021-3.146Z" transform="translate(-470.985 -295.905)" fill="#fff"/>
          <path id="Trazado_2290" data-name="Trazado 2290" d="M588.461,295.8a3.229,3.229,0,0,1-1.321,2.642,2.222,2.222,0,0,0-2.17-1.95c-1.919,0-3.3.786-3.3,3.68v1.415h6.387v3.744h-6.387v9.626h-5.1V300.207c0-4.939,2.422-7.644,7.329-7.644C586.857,292.563,588.461,294.2,588.461,295.8Z" transform="translate(-496.613 -292.563)" fill="#fff"/>
          <path id="Trazado_2291" data-name="Trazado 2291" d="M613.556,318.451c-2.423.095-4.844,0-4.844-2.233-.881,1.322-3.021,2.58-6.072,2.58-3.964,0-7.015-2.265-7.015-7.96,0-6.26,3.178-8.148,7.015-8.148,3.712,0,5.412,1.95,6.1,3.492-.5-2.674.944-3.524,2.391-3.492l2.423.031Zm-12.74-7.392c0,3.491,1.2,4.435,3.806,4.435,3.209,0,3.68-2.516,3.68-4.4v-.315c0-2.516-1.038-3.995-3.68-3.995C602.012,306.78,600.816,307.881,600.816,311.059Z" transform="translate(-503.18 -296.053)" fill="#fff"/>
          <path id="Trazado_2292" data-name="Trazado 2292" d="M648.041,310.156c0-2.14-1.227-3.146-2.643-3.146-1.888,0-3.177,1.667-3.807,3.429V318.3H636.4v-8.147c0-2.14-1.1-3.146-2.611-3.146-1.95,0-3.3,1.73-3.838,3.429V318.3h-5.19V302.574h2.264c2.2,0,2.926.723,2.926,2.359v1.1c1.007-1.542,3.083-3.775,6.165-3.775a4.781,4.781,0,0,1,4.939,3.65,8.376,8.376,0,0,1,6.67-3.65c3.176,0,5.5,2.076,5.5,6.418V318.3h-2.17c-2.2,0-3.02-.912-3.02-3.146Z" transform="translate(-513.223 -295.905)" fill="#fff"/>
          <path id="Trazado_2293" data-name="Trazado 2293" d="M672.808,292.9a2.373,2.373,0,1,1-2.831,2.328A2.673,2.673,0,0,1,672.808,292.9Zm2.611,22.178h-2.044c-1.731,0-3.146-.786-3.146-2.831v-12.9h2.422c1.668,0,2.768.566,2.768,2.359Z" transform="translate(-528.808 -292.678)" fill="#fff"/>
        </g>
      </g>
    </g>
  </g>
</svg>
