<svg xmlns="http://www.w3.org/2000/svg" width="37.552" height="37.552" viewBox="0 0 37.552 37.552">
  <g id="edit" transform="translate(-886 -249)">
    <circle id="Ellipse" cx="18.776" cy="18.776" r="18.776" transform="translate(886 249)" fill="#c66900" opacity="0.995"/>
    <g id="Grupo_2055" data-name="Grupo 2055" transform="translate(894 257)">
      <rect id="Rect치ngulo_631" data-name="Rect치ngulo 631" width="14.635" height="7.805" transform="translate(1.758 14.251) rotate(-45)" fill="#fff"/>
      <path id="Rect치ngulo_632" data-name="Rect치ngulo 632" d="M0,0H2.878a2,2,0,0,1,2,2V5.805a2,2,0,0,1-2,2H0a0,0,0,0,1,0,0V0A0,0,0,0,1,0,0Z" transform="translate(12.559 3.449) rotate(-45)" fill="#fff"/>
      <path id="Trazado_2229" data-name="Trazado 2229" d="M8209.366,1474.6l-1.36,6.1,6.151-1.306Z" transform="translate(-8208.006 -1458.906)" fill="#fff"/>
    </g>
  </g>
</svg>
