<svg xmlns="http://www.w3.org/2000/svg" xmlns:xlink="http://www.w3.org/1999/xlink" width="41.74" height="64" viewBox="0 0 41.74 64">
  <defs>
    <linearGradient id="linear-gradient" x1="0.5" y1="0.007" x2="0.5" y2="0.984" gradientUnits="objectBoundingBox">
      <stop offset="0" stop-color="#f0d869"/>
      <stop offset="0.078" stop-color="#f6df73"/>
      <stop offset="0.205" stop-color="#fce77f"/>
      <stop offset="0.34" stop-color="#ffea83"/>
      <stop offset="0.604" stop-color="#fff2b2"/>
      <stop offset="0.759" stop-color="#ffdf35"/>
      <stop offset="0.888" stop-color="#feed9a"/>
      <stop offset="1" stop-color="#fff"/>
    </linearGradient>
  </defs>
  <g id="edufami_simbol" transform="translate(-395.26 -632)">
    <g id="Grupo_3" data-name="Grupo 3" transform="translate(409.511 683.363)">
      <path id="Trazado_2009" data-name="Trazado 2009" d="M683.744,160.917,675.993,173.5l-7.75-12.584A22.3,22.3,0,0,0,683.744,160.917Z" transform="translate(-668.243 -160.917)" fill="#fff"/>
    </g>
    <g id="Grupo_5" data-name="Grupo 5" transform="translate(395.26 632)">
      <g id="Grupo_4" data-name="Grupo 4">
        <path id="Trazado_2010" data-name="Trazado 2010" d="M688.528,174.56c5.636-8.529-12.344-8.68-16.322-5.654-2.087,1.587-3.357,2.777-.644,4.321,3.985,2.269,10.983.537,14.435-2.072,1.529-1.156,3.567-2.89,3.9-4.91,1.281-7.88-12.218-6.716-16.3-5.938-1.537.292-5.16,1.416-5.762,3.412-.853,2.833,5.972,2.541,8.188,2.4,8.061-.509,16.583-6.7,20.868-13.83,7.709-12.825-1.2-27.41-14.826-28.245-8.152-.5-15.079,3.3-20.367,9.558-8.906,10.543-.42,24.564,11.772,25.391,8.626.587,20.8-7.137,16.689-17.695-2.454-6.305-9.651-6.145-14.075-2.372-1.838,1.568-4.782,4.063-3.967,6.859-.146-.5,3.3-2.232,3.1-2.9-.971-3.335,2.549-3.937,4.992-3.737a7.56,7.56,0,0,1,6.845,5.055c3.466,8.9-3.887,12.731-11.558,11.814-12.991-1.553-21.688-21.622-6.372-27.655,10.286-4.053,23.844-.065,26.809,11.875,2.4,9.665-2.375,18.837-11.548,21.938a21.333,21.333,0,0,1-8.847.975c-.363-.033-6.1-.616-4.956-1.926l-3.057,2.837c4.331-2.134,19.711-3.549,19.3,4.755-.093,1.924.459.552-1.209,1.333a15.841,15.841,0,0,1-5.983.913c-.851,0-8.377-.557-6.482-2.938l-3.057,2.837c4.013-2.061,20.789-1.759,15.328,6.5.75-1.135,2.328-1.731,3.1-2.9Z" transform="translate(-658 -124)" fill="url(#linear-gradient)"/>
      </g>
    </g>
    <g id="Grupo_6" data-name="Grupo 6" transform="translate(412.532 688.299)">
      <path id="Trazado_2011" data-name="Trazado 2011" d="M671.453,165.206l3.3,5.352,3.3-5.352a20.256,20.256,0,0,1-3.3.415A19.916,19.916,0,0,1,671.453,165.206Z" transform="translate(-670.007 -164.175)" fill="#403d3c"/>
      <path id="Trazado_2012" data-name="Trazado 2012" d="M675.157,172.166l-4.743-7.7L672,164.8a19.456,19.456,0,0,0,3.157.4,19.7,19.7,0,0,0,3.164-.4l1.582-.335Zm-1.892-5.706,1.892,3.072,1.892-3.073a14.954,14.954,0,0,1-1.889.163A13.673,13.673,0,0,1,673.265,166.46Z" transform="translate(-670.414 -164.465)" fill="#403d3c"/>
    </g>
  </g>
</svg>
