<svg xmlns="http://www.w3.org/2000/svg" width="223.597" height="54.312" viewBox="0 0 223.597 54.312">
  <g id="equfami_logo_big" transform="translate(-1041.137 -192.532)">
    <g id="Grupo_2058" data-name="Grupo 2058" transform="translate(1041.137 192.532)">
      <g id="Grupo_2057" data-name="Grupo 2057">
        <g id="Grupo_2056" data-name="Grupo 2056">
          <path id="Trazado_2294" data-name="Trazado 2294" d="M478.316,238.289c.284,4.322,3.241,5.971,8.473,5.971,5.176,0,8.076-1.08,9.725-3.81,1.423.739,2.9,1.99,2.9,3.81,0,4.039-5.516,6.312-13.707,6.312-12,0-16.834-4.265-16.834-14.672s4.607-14.9,16.038-14.9c12.4,0,15.811,5.118,15.811,13.307a29.477,29.477,0,0,1-.4,3.982Zm-.056-5.345h14.387c-.4-4.437-2.672-5.4-6.881-5.4S478.827,228.563,478.26,232.943Z" transform="translate(-468.875 -209.455)" fill="#fff"/>
          <path id="Trazado_2295" data-name="Trazado 2295" d="M536.051,235.422c0,3.924,1.42,6.483,4.834,6.483,4.663,0,8.36-5.175,8.36-6.255V221.432h9.383v28.436h-3.7c-3.639,0-5.687-.626-5.687-4.323v-1.592c-3.129,3.81-6.484,6.427-12,6.427-4.834,0-10.579-2.73-10.579-12.967V221.432h3.753c3.639,0,5.632,1.422,5.632,5.118Z" transform="translate(-458.2 -209.375)" fill="#fff"/>
          <path id="Trazado_2296" data-name="Trazado 2296" d="M576.963,217.112a5.838,5.838,0,0,1-2.387,4.777s-.456-3.526-3.925-3.526-5.972,1.422-5.972,6.655v2.559h11.546v6.767H564.678v17.4h-9.211V225.074c0-8.928,4.378-13.819,13.249-13.819C574.064,211.255,576.963,214.212,576.963,217.112Z" transform="translate(-452.88 -211.255)" fill="#fff"/>
          <path id="Trazado_2297" data-name="Trazado 2297" d="M606.94,249.877c-4.38.171-8.759,0-8.759-4.039-1.592,2.39-5.46,4.663-10.976,4.663-7.166,0-12.684-4.094-12.684-14.388,0-11.316,5.746-14.73,12.684-14.73,6.71,0,9.782,3.527,11.032,6.313-.91-4.834,1.707-6.37,4.323-6.313l4.38.058Zm-23.033-13.365c0,6.312,2.162,8.018,6.882,8.018,5.8,0,6.652-4.549,6.652-7.961V236c0-4.55-1.877-7.223-6.652-7.223C586.068,228.777,583.906,230.767,583.906,236.512Z" transform="translate(-449.36 -209.384)" fill="#fff"/>
          <path id="Trazado_2298" data-name="Trazado 2298" d="M645.742,235.226c0-3.867-2.219-5.687-4.779-5.687-3.41,0-5.742,3.014-6.878,6.2v14.218H624.7V235.226c0-3.867-1.99-5.687-4.72-5.687-3.527,0-5.972,3.128-6.938,6.2v14.218h-9.385V221.521h4.1c3.981,0,5.29,1.308,5.29,4.265v1.99c1.818-2.786,5.572-6.824,11.146-6.824,5.176,0,7.9,3.014,8.929,6.6.8-1.251,5.005-6.6,12.056-6.6,5.746,0,9.953,3.753,9.953,11.6v17.4H651.2c-3.982,0-5.46-1.649-5.46-5.688Z" transform="translate(-443.979 -209.464)" fill="#fff"/>
          <path id="Trazado_2299" data-name="Trazado 2299" d="M653.991,211.591c2.9,0,5.232,1.933,5.232,4.208s-2.332,4.208-5.232,4.208c-2.788,0-5.118-1.933-5.118-4.208S651.2,211.591,653.991,211.591Zm4.721,40.094h-3.7c-3.129,0-5.688-1.423-5.688-5.119V223.25h4.38c3.015,0,5.005,1.022,5.005,4.265Z" transform="translate(-435.626 -211.193)" fill="#fff"/>
        </g>
      </g>
    </g>
    <g id="Equfami" transform="translate(1075.297 200.819)">
      <path id="Trazado_2300" data-name="Trazado 2300" d="M508.094,227.944c-4.613,5.619-2.16,11.858.924,13.82,2.464,1.569,5.046,2.523,10.533.926.036,1.7.085,3.41.089,5.118a.909.909,0,0,1-.373.665,14.6,14.6,0,0,1-18.856-21.4,19.736,19.736,0,0,1,4.445-4.6" transform="translate(-497.709 -217.469)" fill="#ffe300"/>
      <path id="Trazado_2301" data-name="Trazado 2301" d="M499.6,222.859l13.079-4.609-2.614,13.444" transform="translate(-497.36 -218.25)" fill="#ffe300"/>
      <g id="Grupo_2059" data-name="Grupo 2059" transform="translate(14.751 2.422)">
        <path id="Trazado_2302" data-name="Trazado 2302" d="M510.16,227.259s.187-.969,1.09-5.116c.592-2.721,3.583-1.753,5.052-1.332,12.725,3.651,11.158,22.307,11.158,22.307l-.047,20.766-4.06.013c-2.795.009-4.643-1.009-4.654-4.254l-.037-11.587s.474-12.307-2.057-16.438C513.724,226.915,510.16,227.259,510.16,227.259Z" transform="translate(-510.16 -220.295)" fill="#ffe300"/>
      </g>
      <g id="Grupo_2060" data-name="Grupo 2060" transform="translate(20.018 35.519)">
        <path id="Trazado_2303" data-name="Trazado 2303" d="M529.738,248.231v2.018c0,1.707-.757,3.1-2.724,3.1H514.606v-2.39c0-1.646.545-2.732,2.27-2.732Z" transform="translate(-514.606 -248.231)" fill="#ffe300"/>
      </g>
    </g>
  </g>
</svg>
