<svg xmlns="http://www.w3.org/2000/svg" width="122.563" height="29.771" viewBox="0 0 122.563 29.771">
  <g id="equfami_logo" transform="translate(-1041.137 -257.203)">
    <g id="Grupo_2058" data-name="Grupo 2058" transform="translate(1041.137 257.203)">
      <g id="Grupo_2057" data-name="Grupo 2057">
        <g id="Grupo_2056" data-name="Grupo 2056">
          <path id="Trazado_2294" data-name="Trazado 2294" d="M474.05,230.477c.156,2.369,1.777,3.273,4.645,3.273,2.837,0,4.427-.592,5.331-2.088a2.529,2.529,0,0,1,1.59,2.088c0,2.214-3.024,3.46-7.513,3.46-6.578,0-9.227-2.338-9.227-8.042S471.4,221,477.666,221c6.8,0,8.667,2.805,8.667,7.294a16.159,16.159,0,0,1-.218,2.183Zm-.031-2.93h7.886c-.218-2.432-1.464-2.962-3.772-2.962S474.33,225.146,474.02,227.547Z" transform="translate(-468.875 -214.672)" fill="#fff"/>
          <path id="Trazado_2295" data-name="Trazado 2295" d="M531.811,229.1c0,2.151.779,3.554,2.649,3.554,2.556,0,4.583-2.837,4.583-3.429v-7.793h5.143v15.587H542.16c-1.995,0-3.117-.343-3.117-2.37v-.873c-1.715,2.088-3.554,3.523-6.578,3.523-2.65,0-5.8-1.5-5.8-7.108v-8.76h2.057c1.995,0,3.087.779,3.087,2.805Z" transform="translate(-489.137 -214.823)" fill="#fff"/>
          <path id="Trazado_2296" data-name="Trazado 2296" d="M567.25,214.466a3.2,3.2,0,0,1-1.309,2.618,2.2,2.2,0,0,0-2.151-1.933c-1.9,0-3.274.779-3.274,3.648v1.4h6.329v3.709h-6.329v9.54h-5.049V218.83c0-4.894,2.4-7.575,7.262-7.575C565.661,211.255,567.25,212.876,567.25,214.466Z" transform="translate(-499.234 -211.255)" fill="#fff"/>
          <path id="Trazado_2297" data-name="Trazado 2297" d="M592.291,237c-2.4.094-4.8,0-4.8-2.214-.873,1.31-2.993,2.556-6.017,2.556-3.928,0-6.952-2.244-6.952-7.887,0-6.2,3.15-8.074,6.952-8.074,3.678,0,5.362,1.933,6.047,3.461-.5-2.65.936-3.492,2.37-3.461l2.4.032Zm-12.626-7.326c0,3.46,1.185,4.4,3.772,4.4,3.179,0,3.646-2.494,3.646-4.364v-.312c0-2.494-1.029-3.959-3.646-3.959C580.851,225.435,579.666,226.526,579.666,229.675Z" transform="translate(-505.915 -214.805)" fill="#fff"/>
          <path id="Trazado_2298" data-name="Trazado 2298" d="M626.725,228.776c0-2.12-1.216-3.117-2.62-3.117-1.869,0-3.148,1.652-3.77,3.4v7.793h-5.145v-8.075c0-2.12-1.091-3.117-2.587-3.117-1.933,0-3.274,1.714-3.8,3.4v7.793h-5.145V221.264H605.9c2.182,0,2.9.717,2.9,2.338v1.091c1-1.527,3.054-3.741,6.109-3.741a4.739,4.739,0,0,1,4.895,3.616,8.3,8.3,0,0,1,6.608-3.616c3.15,0,5.456,2.057,5.456,6.359v9.54h-2.15c-2.183,0-2.993-.9-2.993-3.118Z" transform="translate(-516.13 -214.655)" fill="#fff"/>
          <path id="Trazado_2299" data-name="Trazado 2299" d="M651.678,211.591a2.351,2.351,0,1,1-2.805,2.307A2.649,2.649,0,0,1,651.678,211.591Zm2.588,21.978H652.24c-1.715,0-3.118-.78-3.118-2.806V217.982h2.4c1.653,0,2.744.56,2.744,2.338Z" transform="translate(-531.983 -211.373)" fill="#fff"/>
        </g>
      </g>
    </g>
    <g id="Equfami" transform="translate(1059.862 261.746)">
      <path id="Trazado_2300" data-name="Trazado 2300" d="M503.4,225.475c-2.529,3.08-1.184,6.5.507,7.575,1.351.86,2.766,1.383,5.774.508.019.933.047,1.869.049,2.805a.5.5,0,0,1-.2.364A8.005,8.005,0,0,1,499.19,225a10.818,10.818,0,0,1,2.437-2.52" transform="translate(-497.709 -219.733)" fill="#ffe300"/>
      <path id="Trazado_2301" data-name="Trazado 2301" d="M499.6,220.777l7.169-2.527-1.433,7.369" transform="translate(-498.371 -218.25)" fill="#ffe300"/>
      <g id="Grupo_2059" data-name="Grupo 2059" transform="translate(8.086 1.328)">
        <path id="Trazado_2302" data-name="Trazado 2302" d="M510.16,224.112s.1-.531.6-2.8c.325-1.492,1.964-.961,2.769-.73,6.975,2,6.116,12.228,6.116,12.228l-.026,11.383-2.226.007c-1.532.005-2.545-.553-2.551-2.332l-.02-6.351s.26-6.746-1.127-9.01C512.113,223.924,510.16,224.112,510.16,224.112Z" transform="translate(-510.16 -220.295)" fill="#ffe300"/>
      </g>
      <g id="Grupo_2060" data-name="Grupo 2060" transform="translate(10.973 19.47)">
        <path id="Trazado_2303" data-name="Trazado 2303" d="M522.9,248.231v1.106c0,.936-.415,1.7-1.493,1.7h-6.8v-1.31c0-.9.3-1.5,1.244-1.5Z" transform="translate(-514.606 -248.231)" fill="#ffe300"/>
      </g>
    </g>
  </g>
</svg>
