<svg xmlns="http://www.w3.org/2000/svg" width="150.67" height="191.123" viewBox="0 0 150.67 191.123">
  <g id="medal_big" transform="translate(-742 -331.385)">
    <path id="Trazado_2245" data-name="Trazado 2245" d="M92.675,177.064a52.736,52.736,0,1,1,52.708-55.474A52.656,52.656,0,0,1,92.675,177.064ZM115.5,158.672a2.6,2.6,0,0,0,2.775-3.351c-1.875-7.845-3.73-15.7-5.638-23.534a1.542,1.542,0,0,1,.593-1.8c6.059-5.156,12.085-10.351,18.135-15.516.964-.824,1.645-1.739,1.191-3.049a2.76,2.76,0,0,0-2.757-1.786c-7.891-.607-15.78-1.267-23.672-1.865a1.82,1.82,0,0,1-1.776-1.322c-2.989-7.323-6.037-14.623-9.047-21.937-.468-1.138-1.157-2.029-2.449-2.046a2.73,2.73,0,0,0-2.619,1.994c-2.97,7.163-6,14.3-8.919,21.48A2.517,2.517,0,0,1,78.8,107.8c-7.7.546-15.39,1.22-23.086,1.811-1.286.1-2.307.47-2.741,1.78s.193,2.231,1.162,3.058C60.127,119.558,66.092,124.7,72.1,129.8a1.868,1.868,0,0,1,.75,2.182c-1.889,7.68-3.691,15.383-5.544,23.072-.3,1.251-.238,2.36.886,3.15s2.192.439,3.275-.228c6.673-4.1,13.373-8.165,20.035-12.291a1.93,1.93,0,0,1,2.391-.013c6.721,4.173,13.482,8.281,20.241,12.39A9.132,9.132,0,0,0,115.5,158.672Z" transform="translate(724.569 345.444)" fill="#00acc1"/>
    <path id="Trazado_2246" data-name="Trazado 2246" d="M91.64,93.961a58.331,58.331,0,0,0-21.1,7.688,62.829,62.829,0,0,0-16.666,14.831c-.278-.544-.521-.983-.73-1.435Q41.74,90.556,30.347,66.064c-1.685-3.62-3.337-7.255-5.055-10.858a3.6,3.6,0,0,1,.61-4.314Q38.473,36.431,51,21.93c1.688-1.951,3.36-3.916,5.211-6.075C68.046,41.955,79.807,67.877,91.64,93.961Z" transform="translate(717.163 318.289)" fill="#00acc1"/>
    <path id="Trazado_2247" data-name="Trazado 2247" d="M118.971,116.549a58.78,58.78,0,0,0-16.685-15.093,55.584,55.584,0,0,0-21.108-7.393l35.389-78.119a7.229,7.229,0,0,1,.61.553Q132.12,33.72,147.065,50.942a3.545,3.545,0,0,1,.531,4.222q-7.775,16.589-15.5,33.2-6.244,13.414-12.463,26.84C119.454,115.591,119.258,115.969,118.971,116.549Z" transform="translate(744.615 318.332)" fill="#00acc1"/>
    <path id="Trazado_2248" data-name="Trazado 2248" d="M49.038,14h78.7c-.175.422-.306.767-.458,1.1q-8.857,19.585-17.7,39.178a1.69,1.69,0,0,1-1.822,1.179q-19.46-.069-38.921-.037a1.457,1.457,0,0,1-1.576-.988q-8.879-19.707-17.813-39.39C49.309,14.736,49.2,14.413,49.038,14Z" transform="translate(728.955 317.385)" fill="#00acc1"/>
  </g>
</svg>
