<svg xmlns="http://www.w3.org/2000/svg" width="89.929" height="76.968" viewBox="0 0 89.929 76.968">
  <g id="correct" transform="translate(-1138.071 -428)">
    <path id="shape" d="M97.412-33.038H58.14a7.108,7.108,0,0,0-7.1,7.14L51,24.085a7.138,7.138,0,0,0,7.14,7.14h49.982a7.161,7.161,0,0,0,7.14-7.14V-25.9a7.161,7.161,0,0,0-7.14-7.14H97.412Zm10.71,57.122H58.14V-25.9h49.982Z" transform="translate(1087.071 473.743)" fill="#fff"/>
    <g id="Grupo_1945" data-name="Grupo 1945" transform="translate(1156.058 462.288)">
      <path id="Trazado_2226" data-name="Trazado 2226" d="M8118.032,1467.28h17.5" transform="translate(-8118.032 -1467.28)" fill="none" stroke="#fff" stroke-width="3"/>
      <path id="Trazado_2227" data-name="Trazado 2227" d="M8118.032,1467.28h17.5" transform="translate(-8118.032 -1457.208)" fill="none" stroke="#fff" stroke-width="3"/>
      <path id="Trazado_2228" data-name="Trazado 2228" d="M8118.032,1467.28h28.754" transform="translate(-8118.032 -1445.697)" fill="none" stroke="#fff" stroke-width="3"/>
    </g>
    <g id="Elipse_110" data-name="Elipse 110" transform="translate(1162.532 429.416)" fill="none" stroke="#fff" stroke-width="5">
      <ellipse cx="7.969" cy="7.969" rx="7.969" ry="7.969" stroke="none"/>
      <ellipse cx="7.969" cy="7.969" rx="5.469" ry="5.469" fill="none"/>
    </g>
    <rect id="Rectángulo_633" data-name="Rectángulo 633" width="29.884" height="11.953" rx="2" transform="translate(1155.338 437.385)" fill="#fff"/>
    <g id="Icon_Done_Filled" data-name="Icon / Done / Filled" transform="translate(216 -916)">
      <rect id="Box" width="56" height="56" transform="translate(956 1344)" fill="none"/>
      <path id="Icon_Done_Black" data-name="Icon / Done / Black" d="M15.035,9.705,5.3-.027,2,3.275,15.035,16.311,43.043-11.7l-3.3-3.3Z" transform="translate(961.001 1375.334)" fill="#0f1" stroke="#0f1" stroke-width="2"/>
    </g>
  </g>
</svg>
