<svg xmlns="http://www.w3.org/2000/svg" width="89.83" height="89.83" viewBox="0 0 89.83 89.83">
  <g id="tips_big_gray" transform="translate(-1125 -212.008)">
    <g id="logo" transform="translate(1125 212.008)">
      <path id="Ellipse" d="M44.915,0A44.915,44.915,0,1,1,0,44.915,44.915,44.915,0,0,1,44.915,0Z" fill="#203b47" opacity="0.144"/>
      <circle id="Ellipse-2" data-name="Ellipse" cx="36.234" cy="36.234" r="36.234" transform="translate(8.681 8.681)" fill="#203b47" opacity="0.29"/>
      <circle id="Ellipse-3" data-name="Ellipse" cx="26.421" cy="26.421" r="26.421" transform="translate(18.494 18.494)" fill="#4a6572" opacity="0.995"/>
    </g>
    <g id="Grupo_1992" data-name="Grupo 1992" transform="translate(1153.078 237.72)">
      <path id="Trazado_2230" data-name="Trazado 2230" d="M8744.977,1504.378c.652-2.479-5.291-6.712-4.477-11.678a8.791,8.791,0,0,1,8.873-7.815c4.477-.081,7.9,2.849,8.711,7.815s-5.455,8.874-4.641,11.678" transform="translate(-8732.189 -1476.952)" fill="none" stroke="#ffc947" stroke-linecap="round" stroke-width="2.5"/>
      <path id="Trazado_2231" data-name="Trazado 2231" d="M8826.339,1880.506h7.956s.063,3.358,0,4.042-.752,3.58-3.677,3.592a3.988,3.988,0,0,1-4.279-3.592C8826.344,1883.265,8826.339,1880.506,8826.339,1880.506Z" transform="translate(-8813.226 -1850.105)" fill="none" stroke="#ffc947" stroke-linecap="round" stroke-width="2.5"/>
      <path id="Trazado_2232" data-name="Trazado 2232" d="M8634.052,1779.92l2.818-1.51" transform="translate(-8631.86 -1753.807)" fill="none" stroke="#ffc947" stroke-linecap="round" stroke-width="2.5"/>
      <path id="Trazado_2233" data-name="Trazado 2233" d="M8595.463,1650.158h2.943" transform="translate(-8595.463 -1632.84)" fill="none" stroke="#ffc947" stroke-linecap="round" stroke-width="2.5"/>
      <path id="Trazado_2234" data-name="Trazado 2234" d="M8634.052,1500.568l2.755,1.566" transform="translate(-8631.86 -1491.746)" fill="none" stroke="#ffc947" stroke-linecap="round" stroke-width="2.5"/>
      <path id="Trazado_2235" data-name="Trazado 2235" d="M8746.512,1392l1.378,2.346" transform="translate(-8737.933 -1389.345)" fill="none" stroke="#ffc947" stroke-linecap="round" stroke-width="2.5"/>
      <path id="Trazado_2236" data-name="Trazado 2236" d="M8897.076,1345.253v3.186" transform="translate(-8879.945 -1345.253)" fill="none" stroke="#ffc947" stroke-linecap="round" stroke-width="2.5"/>
      <path id="Trazado_2237" data-name="Trazado 2237" d="M9023.881,1392l-1.732,2.472" transform="translate(-8997.913 -1389.345)" fill="none" stroke="#ffc947" stroke-linecap="round" stroke-width="2.5"/>
      <path id="Trazado_2238" data-name="Trazado 2238" d="M9116.29,1500.568l-2.63,1.5" transform="translate(-9084.228 -1491.746)" fill="none" stroke="#ffc947" stroke-linecap="round" stroke-width="2.5"/>
      <path id="Trazado_2239" data-name="Trazado 2239" d="M9145.646,1650.158h-3.319" transform="translate(-9111.266 -1632.84)" fill="none" stroke="#ffc947" stroke-linecap="round" stroke-width="2.5"/>
      <path id="Trazado_2240" data-name="Trazado 2240" d="M9118.37,1778.88l-2.5-1.573" transform="translate(-9086.308 -1752.767)" fill="none" stroke="#ffc947" stroke-linecap="round" stroke-width="2.5"/>
    </g>
  </g>
</svg>
