<svg xmlns="http://www.w3.org/2000/svg" width="46.834" height="46.833" viewBox="0 0 46.834 46.833">
  <g id="volume_yellow" transform="translate(-641 -171.004)">
    <g id="logo" transform="translate(641 171.004)">
      <path id="Ellipse" d="M23.417,0A23.417,23.417,0,1,1,0,23.417,23.417,23.417,0,0,1,23.417,0Z" fill="#fec846" opacity="0.144"/>
      <path id="Ellipse-2" data-name="Ellipse" d="M18.891,0A18.964,18.964,0,0,1,34.247,7.886a18.645,18.645,0,0,1,3.535,11.005A18.891,18.891,0,1,1,18.891,0Z" transform="translate(4.526 4.526)" fill="#fec847" opacity="0.29"/>
      <ellipse id="Ellipse-3" data-name="Ellipse" cx="13.775" cy="13.775" rx="13.775" ry="13.775" transform="translate(9.642 9.642)" fill="#ffc947" opacity="0.995"/>
    </g>
    <g id="volume-sound-speaker-lound" transform="translate(656.406 186.41)">
      <path id="Trazado_133" data-name="Trazado 133" d="M10.424,16.679V0l-7.3,5.212H0v6.254H3.127Z" fill="#fff"/>
      <path id="Trazado_134" data-name="Trazado 134" d="M11,14.411A6.247,6.247,0,0,0,11,2.09V3.144a5.212,5.212,0,0,1,0,10.214Z" transform="translate(0.467 0.089)" fill="#fff"/>
      <path id="Trazado_135" data-name="Trazado 135" d="M11,9.914v1.14a3.109,3.109,0,0,0,0-5.871v1.14a2.067,2.067,0,0,1,0,3.59Z" transform="translate(0.467 0.22)" fill="#fff"/>
    </g>
  </g>
</svg>
