<svg xmlns="http://www.w3.org/2000/svg" width="75.322" height="75.322" viewBox="0 0 75.322 75.322">
  <g id="volume_big_yellow" transform="translate(-1179.022 -568.961)">
    <g id="logo" transform="translate(1179.022 568.961)">
      <path id="Ellipse" d="M37.661,0A37.661,37.661,0,1,1,0,37.661,37.661,37.661,0,0,1,37.661,0Z" fill="#fec846" opacity="0.144"/>
      <path id="Ellipse-2" data-name="Ellipse" d="M30.382,0a30.5,30.5,0,0,1,24.7,12.683,29.987,29.987,0,0,1,5.685,17.7A30.382,30.382,0,1,1,30.382,0Z" transform="translate(7.279 7.279)" fill="#fec847" opacity="0.29"/>
      <ellipse id="Ellipse-3" data-name="Ellipse" cx="22.154" cy="22.154" rx="22.154" ry="22.154" transform="translate(15.508 15.508)" fill="#ffc947" opacity="0.995"/>
    </g>
    <g id="volume-sound-speaker-lound" transform="translate(1203.8 593.739)">
      <path id="Trazado_133" data-name="Trazado 133" d="M16.765,26.824V0L5.03,8.383H0V18.442H5.03Z" fill="#fff"/>
      <path id="Trazado_134" data-name="Trazado 134" d="M11,21.906A10.047,10.047,0,0,0,11,2.09V3.785a8.383,8.383,0,0,1,0,16.426Z" transform="translate(7.442 1.414)" fill="#fff"/>
      <path id="Trazado_135" data-name="Trazado 135" d="M11,12.792v1.834a5,5,0,0,0,0-9.442V7.018a3.324,3.324,0,0,1,0,5.774Z" transform="translate(7.442 3.507)" fill="#fff"/>
    </g>
  </g>
</svg>
