<svg id="Capa_1" data-name="Capa 1" xmlns="http://www.w3.org/2000/svg" viewBox="0 0 150 150"><defs><style>.cls-1{fill:#eee3a5;}.cls-1,.cls-2{opacity:0.44;}.cls-2{fill:#e0c955;}.cls-3{fill:#ae52d4;}.cls-4,.cls-6{fill:none;stroke-miterlimit:10;stroke-width:8px;}.cls-4{stroke:#ae52d4;stroke-linecap:round;}.cls-5{fill:#4a0072;}.cls-6{stroke:#4a0072;}</style></defs><title>Mesa de trabajo 3</title><circle class="cls-1" cx="75.55" cy="85.01" r="58.71"/><path class="cls-2" d="M89.33,20.87c-8.15,5.61-9,7.06-26.29,29.61-8.1,10.59-21.82,1.72-35.16,3.76-32.73,5-25.44,44.19-25.44,44.19S6.46,121,26,124.08s25.13-2,39.08,7.9,53.25-.68,62-6.8,33.07-20.53,16.7-48c-8-13.46,15-28.72-5.13-49.41C116.22,4.69,99.59,13.8,89.33,20.87Z"/><path class="cls-2" d="M86.19,25.83c-7.4,5.1-8.18,6.41-23.86,26.88-7.35,9.6-19.81,1.56-31.91,3.41C.72,60.66,7.33,96.22,7.33,96.22S11,116.74,28.75,119.5s22.81-1.86,35.47,7.17,48.32-.62,56.27-6.18,30-18.63,15.15-43.55C128.36,64.72,149.25,50.87,131,32.1,110.59,11.15,95.5,19.42,86.19,25.83Z"/><path class="cls-3" d="M68.51,62.77v8a12.57,12.57,0,1,1-10,4.92,12.52,12.52,0,0,1,10-4.92v-8m0,0A20.56,20.56,0,1,0,81,67a20.54,20.54,0,0,0-12.51-4.24Z"/><line class="cls-4" x1="56.94" y1="98.41" x2="36.25" y2="125.41"/><line class="cls-4" x1="32.67" y1="107.64" x2="54.33" y2="124.25"/><path class="cls-5" d="M83.62,65.4h0c.35,0,.7,0,1,0A12.18,12.18,0,0,1,95.79,78.64,12.26,12.26,0,0,1,83.66,89.8c-.35,0-.71,0-1.06,0a12.22,12.22,0,0,1-11.12-13.2A12.27,12.27,0,0,1,83.62,65.4m0-8a20.2,20.2,0,0,0-1.69,40.33c.58,0,1.16.07,1.74.07a20.2,20.2,0,0,0,1.7-40.33c-.59,0-1.17-.07-1.75-.07Z"/><line class="cls-6" x1="95.81" y1="66.45" x2="114.29" y2="50.88"/><polygon class="cls-5" points="110.84 71.52 112.48 52.4 93.36 50.77 102.17 43.35 121.28 44.99 119.65 64.1 110.84 71.52"/></svg>